<?xml version="1.0" encoding="UTF-8" standalone="no"?><!DOCTYPE svg PUBLIC "-//W3C//DTD SVG 1.1//EN" "http://www.w3.org/Graphics/SVG/1.1/DTD/svg11.dtd"><svg width="100%" height="100%" viewBox="0 0 55 65" version="1.1" xmlns="http://www.w3.org/2000/svg" xmlns:xlink="http://www.w3.org/1999/xlink" xml:space="preserve" xmlns:serif="http://www.serif.com/" style="fill-rule:evenodd;clip-rule:evenodd;stroke-linecap:round;stroke-linejoin:round;stroke-miterlimit:1.5;"><g id="Alfa-Eradicated" serif:id="Alfa Eradicated"><g id="Flaske"><path d="M50.833,15.296c0,-2.728 -2.216,-4.943 -4.944,-4.943l-36.67,0c-2.729,0 -4.944,2.215 -4.944,4.943l0,41.953c0,2.728 2.215,4.944 4.944,4.944l36.67,0c2.728,0 4.944,-2.216 4.944,-4.944l0,-41.953Z" style="fill:url(#_Linear1);"/><path d="M45.93,8.853l0.042,0l0.041,0.001l0.041,0.001l0.041,0.001l0.042,0.001l0.041,0.002l0.041,0.002l0.041,0.002l0.041,0.003l0.041,0.002l0.041,0.003l0.041,0.004l0.041,0.003l0.04,0.004l0.041,0.004l0.04,0.004l0.04,0.004l0.041,0.005l0.041,0.005l0.04,0.006l0.04,0.005l0.04,0.006l0.04,0.006l0.04,0.006l0.04,0.007l0.04,0.006l0.039,0.007l0.04,0.007l0.04,0.008l0.039,0.008l0.04,0.008l0.038,0.008l0.04,0.008l0.04,0.009l0.038,0.009l0.039,0.009l0.039,0.009l0.04,0.01l0.038,0.01l0.038,0.01l0.04,0.01l0.037,0.011l0.039,0.01l0.038,0.011l0.038,0.012l0.038,0.011l0.037,0.011l0.039,0.013l0.038,0.012l0.038,0.012l0.038,0.013l0.036,0.012l0.037,0.013l0.038,0.014l0.037,0.013l0.036,0.014l0.037,0.014l0.039,0.014l0.036,0.015l0.035,0.014l0.036,0.014l0.038,0.016l0.036,0.015l0.036,0.015l0.036,0.016l0.036,0.016l0.036,0.016l0.035,0.016l0.036,0.016l0.035,0.017l0.036,0.018l0.035,0.017l0.036,0.017l0.034,0.017l0.035,0.018l0.034,0.018l0.034,0.017l0.036,0.019l0.034,0.019l0.033,0.018l0.035,0.019l0.035,0.02l0.032,0.018l0.033,0.02l0.038,0.021l0.064,0.039l0.065,0.04l0.066,0.042l0.066,0.043l0.064,0.042l0.065,0.045l0.063,0.044l0.062,0.045l0.062,0.046l0.062,0.047l0.062,0.048l0.06,0.047l0.06,0.049l0.058,0.049l0.06,0.051l0.057,0.051l0.058,0.051l0.057,0.053l0.056,0.053l0.056,0.053l0.054,0.054l0.054,0.055l0.054,0.055l0.053,0.057l0.053,0.058l0.051,0.057l0.051,0.057l0.051,0.06l0.048,0.058l0.05,0.06l0.048,0.061l0.048,0.062l0.046,0.061l0.046,0.061l0.045,0.063l0.044,0.064l0.044,0.063l0.044,0.066l0.042,0.065l0.041,0.065l0.042,0.067l0.039,0.066l0.019,0.033l0.02,0.034l0.02,0.034l0.019,0.034l0.019,0.034l0.017,0.032l0.021,0.038l0.018,0.034l0.017,0.032l0.018,0.035l0.019,0.038l0.018,0.035l0.015,0.032l0.018,0.036l0.016,0.035l0.017,0.036l0.017,0.035l0.016,0.036l0.016,0.036l0.016,0.036l0.016,0.036l0.015,0.036l0.015,0.036l0.017,0.039l0.014,0.037l0.013,0.033l0.015,0.036l0.014,0.037l0.015,0.04l0.013,0.037l0.012,0.033l0.015,0.04l0.013,0.037l0.012,0.037l0.013,0.038l0.012,0.037l0.012,0.037l0.012,0.037l0.012,0.041l0.012,0.038l0.011,0.038l0.011,0.037l0.01,0.038l0.012,0.041l0.01,0.038l0.009,0.034l0.01,0.042l0.011,0.042l0.009,0.038l0.008,0.034l0.009,0.042l0.009,0.042l0.008,0.034l0.008,0.039l0.009,0.042l0.008,0.042l0.007,0.039l0.007,0.038l0.007,0.039l0.006,0.039l0.007,0.038l0.006,0.043l0.007,0.042l0.005,0.039l0.005,0.039l0.006,0.039l0.005,0.043l0.004,0.039l0.005,0.039l0.004,0.043l0.004,0.039l0.004,0.043l0.004,0.043l0.003,0.035l0.003,0.04l0.003,0.047l0.002,0.039l0.002,0.039l0.002,0.043l0.002,0.04l0.001,0.039l0.002,0.044l0,0.043l0.001,0.039l0,0.044l0,42.031l0,0.044l-0.001,0.039l0,0.043l-0.002,0.044l-0.001,0.039l-0.002,0.04l-0.002,0.043l-0.002,0.039l-0.002,0.039l-0.003,0.047l-0.003,0.04l-0.003,0.035l-0.004,0.043l-0.004,0.043l-0.004,0.039l-0.004,0.043l-0.005,0.039l-0.004,0.039l-0.005,0.043l-0.006,0.039l-0.005,0.039l-0.005,0.039l-0.007,0.042l-0.006,0.043l-0.007,0.039l-0.006,0.038l-0.007,0.039l-0.007,0.038l-0.007,0.039l-0.008,0.042l-0.009,0.042l-0.008,0.039l-0.008,0.034l-0.009,0.042l-0.009,0.042l-0.008,0.034l-0.009,0.039l-0.011,0.041l-0.01,0.042l-0.009,0.034l-0.01,0.038l-0.012,0.041l-0.01,0.038l-0.011,0.038l-0.011,0.037l-0.011,0.038l-0.013,0.041l-0.012,0.037l-0.012,0.037l-0.012,0.037l-0.013,0.038l-0.012,0.037l-0.013,0.037l-0.015,0.04l-0.012,0.033l-0.013,0.037l-0.015,0.04l-0.014,0.037l-0.015,0.036l-0.013,0.033l-0.014,0.037l-0.017,0.039l-0.015,0.036l-0.015,0.037l-0.016,0.035l-0.016,0.036l-0.016,0.036l-0.016,0.036l-0.017,0.035l-0.017,0.036l-0.016,0.035l-0.018,0.036l-0.015,0.032l-0.018,0.035l-0.019,0.038l-0.018,0.035l-0.017,0.032l-0.018,0.034l-0.021,0.038l-0.017,0.031l-0.019,0.035l-0.019,0.034l-0.02,0.034l-0.02,0.034l-0.019,0.033l-0.039,0.066l-0.042,0.067l-0.041,0.065l-0.042,0.065l-0.044,0.066l-0.044,0.063l-0.044,0.064l-0.045,0.063l-0.046,0.061l-0.046,0.062l-0.048,0.061l-0.048,0.061l-0.049,0.06l-0.049,0.059l-0.051,0.059l-0.051,0.057l-0.051,0.057l-0.053,0.058l-0.053,0.057l-0.054,0.055l-0.054,0.055l-0.054,0.054l-0.056,0.053l-0.056,0.053l-0.057,0.052l-0.058,0.052l-0.058,0.051l-0.059,0.051l-0.058,0.049l-0.06,0.049l-0.06,0.047l-0.062,0.048l-0.062,0.047l-0.062,0.046l-0.062,0.045l-0.063,0.044l-0.065,0.045l-0.065,0.043l-0.064,0.042l-0.067,0.042l-0.065,0.04l-0.064,0.039l-0.038,0.022l-0.033,0.019l-0.032,0.018l-0.035,0.02l-0.036,0.02l-0.031,0.017l-0.035,0.018l-0.036,0.02l-0.034,0.018l-0.034,0.017l-0.035,0.018l-0.035,0.017l-0.035,0.017l-0.034,0.017l-0.037,0.018l-0.035,0.017l-0.036,0.016l-0.035,0.016l-0.036,0.016l-0.036,0.016l-0.036,0.016l-0.036,0.015l-0.036,0.015l-0.038,0.016l-0.036,0.014l-0.035,0.014l-0.037,0.015l-0.038,0.015l-0.037,0.013l-0.035,0.013l-0.037,0.014l-0.039,0.014l-0.038,0.013l-0.036,0.012l-0.037,0.013l-0.038,0.012l-0.038,0.012l-0.039,0.013l-0.037,0.011l-0.038,0.011l-0.038,0.012l-0.038,0.011l-0.039,0.011l-0.037,0.01l-0.04,0.01l-0.039,0.011l-0.037,0.009l-0.039,0.01l-0.04,0.009l-0.039,0.009l-0.038,0.009l-0.04,0.009l-0.04,0.008l-0.038,0.008l-0.04,0.008l-0.039,0.008l-0.04,0.008l-0.04,0.007l-0.039,0.007l-0.04,0.007l-0.04,0.006l-0.04,0.006l-0.041,0.006l-0.039,0.006l-0.04,0.005l-0.04,0.006l-0.041,0.005l-0.041,0.005l-0.04,0.004l-0.04,0.004l-0.041,0.004l-0.04,0.004l-0.041,0.004l-0.041,0.003l-0.041,0.003l-0.041,0.003l-0.041,0.002l-0.041,0.002l-0.041,0.002l-0.041,0.002l-0.042,0.001l-0.041,0.001l-0.041,0.001l-0.041,0.001l-0.042,0l-0.039,0.001l-36.674,0l-0.04,-0.001l-0.041,0l-0.041,-0.001l-0.042,-0.001l-0.041,-0.001l-0.041,-0.001l-0.041,-0.002l-0.041,-0.002l-0.042,-0.002l-0.04,-0.002l-0.042,-0.003l-0.04,-0.003l-0.041,-0.003l-0.041,-0.004l-0.041,-0.004l-0.04,-0.004l-0.04,-0.004l-0.041,-0.004l-0.04,-0.005l-0.041,-0.005l-0.04,-0.005l-0.04,-0.006l-0.04,-0.006l-0.041,-0.006l-0.039,-0.006l-0.04,-0.006l-0.04,-0.007l-0.039,-0.007l-0.041,-0.007l-0.039,-0.008l-0.04,-0.008l-0.04,-0.008l-0.038,-0.008l-0.039,-0.008l-0.039,-0.009l-0.04,-0.009l-0.039,-0.009l-0.039,-0.009l-0.039,-0.01l-0.038,-0.009l-0.039,-0.011l-0.039,-0.01l-0.037,-0.01l-0.039,-0.011l-0.039,-0.011l-0.037,-0.011l-0.039,-0.012l-0.038,-0.012l-0.038,-0.012l-0.038,-0.012l-0.036,-0.012l-0.037,-0.012l-0.039,-0.014l-0.038,-0.013l-0.036,-0.013l-0.037,-0.013l-0.038,-0.014l-0.037,-0.014l-0.037,-0.014l-0.036,-0.015l-0.035,-0.014l-0.037,-0.014l-0.038,-0.016l-0.036,-0.015l-0.036,-0.015l-0.036,-0.016l-0.035,-0.016l-0.036,-0.016l-0.036,-0.016l-0.035,-0.016l-0.035,-0.017l-0.037,-0.018l-0.035,-0.017l-0.033,-0.016l-0.037,-0.018l-0.036,-0.019l-0.032,-0.016l-0.035,-0.018l-0.034,-0.019l-0.036,-0.019l-0.033,-0.018l-0.034,-0.019l-0.036,-0.02l-0.031,-0.018l-0.033,-0.019l-0.037,-0.022l-0.065,-0.039l-0.066,-0.041l-0.066,-0.041l-0.065,-0.042l-0.064,-0.043l-0.065,-0.045l-0.063,-0.044l-0.063,-0.045l-0.061,-0.046l-0.063,-0.047l-0.061,-0.048l-0.06,-0.047l-0.059,-0.049l-0.06,-0.049l-0.06,-0.052l-0.057,-0.05l-0.058,-0.052l-0.056,-0.052l-0.056,-0.052l-0.056,-0.054l-0.056,-0.055l-0.053,-0.054l-0.053,-0.055l-0.054,-0.057l-0.052,-0.057l-0.052,-0.058l-0.051,-0.058l-0.05,-0.058l-0.049,-0.059l-0.049,-0.06l-0.048,-0.061l-0.047,-0.06l-0.047,-0.062l-0.047,-0.064l-0.045,-0.063l-0.044,-0.062l-0.044,-0.063l-0.043,-0.066l-0.042,-0.065l-0.042,-0.065l-0.041,-0.067l-0.037,-0.063l-0.022,-0.036l-0.021,-0.037l-0.018,-0.031l-0.019,-0.034l-0.019,-0.035l-0.018,-0.031l-0.02,-0.038l-0.018,-0.034l-0.017,-0.032l-0.018,-0.035l-0.018,-0.035l-0.019,-0.038l-0.017,-0.036l-0.016,-0.032l-0.017,-0.035l-0.017,-0.036l-0.016,-0.035l-0.016,-0.036l-0.016,-0.036l-0.016,-0.036l-0.016,-0.035l-0.015,-0.037l-0.016,-0.036l-0.015,-0.036l-0.016,-0.04l-0.014,-0.036l-0.013,-0.033l-0.014,-0.037l-0.014,-0.036l-0.015,-0.041l-0.013,-0.036l-0.012,-0.034l-0.014,-0.04l-0.013,-0.037l-0.012,-0.038l-0.014,-0.04l-0.01,-0.034l-0.012,-0.037l-0.013,-0.041l-0.011,-0.038l-0.011,-0.037l-0.011,-0.038l-0.011,-0.038l-0.01,-0.037l-0.011,-0.042l-0.01,-0.038l-0.01,-0.038l-0.01,-0.041l-0.008,-0.035l-0.009,-0.038l-0.01,-0.042l-0.009,-0.042l-0.008,-0.038l-0.007,-0.035l-0.009,-0.042l-0.008,-0.042l-0.007,-0.035l-0.007,-0.038l-0.007,-0.043l-0.007,-0.042l-0.007,-0.039l-0.006,-0.039l-0.006,-0.042l-0.006,-0.039l-0.005,-0.039l-0.005,-0.039l-0.005,-0.043l-0.005,-0.039l-0.004,-0.039l-0.005,-0.043l-0.004,-0.039l-0.004,-0.043l-0.003,-0.039l-0.003,-0.039l-0.003,-0.043l-0.003,-0.044l-0.002,-0.039l-0.003,-0.039l-0.002,-0.043l-0.001,-0.04l-0.002,-0.039l-0.001,-0.044l-0.001,-0.043l0,-0.039l-0.001,-0.04l0,-0.039l0,-41.96l0,-0.04l0.001,-0.04l0,-0.039l0.001,-0.043l0.001,-0.044l0.002,-0.039l0.001,-0.04l0.002,-0.043l0.003,-0.039l0.002,-0.039l0.003,-0.044l0.003,-0.043l0.003,-0.039l0.003,-0.039l0.004,-0.043l0.004,-0.039l0.005,-0.043l0.004,-0.039l0.005,-0.039l0.005,-0.043l0.005,-0.039l0.005,-0.039l0.006,-0.039l0.006,-0.042l0.006,-0.039l0.007,-0.039l0.007,-0.042l0.007,-0.042l0.007,-0.039l0.007,-0.035l0.008,-0.042l0.009,-0.042l0.007,-0.035l0.008,-0.038l0.009,-0.042l0.01,-0.042l0.009,-0.038l0.008,-0.034l0.01,-0.042l0.01,-0.038l0.01,-0.038l0.011,-0.042l0.01,-0.037l0.011,-0.038l0.011,-0.037l0.011,-0.038l0.011,-0.038l0.013,-0.041l0.012,-0.037l0.01,-0.034l0.014,-0.04l0.012,-0.038l0.013,-0.037l0.014,-0.04l0.012,-0.033l0.013,-0.037l0.015,-0.041l0.014,-0.036l0.014,-0.037l0.013,-0.033l0.014,-0.036l0.016,-0.04l0.015,-0.036l0.016,-0.036l0.015,-0.036l0.016,-0.036l0.016,-0.036l0.016,-0.036l0.016,-0.036l0.016,-0.035l0.017,-0.036l0.017,-0.035l0.016,-0.032l0.017,-0.036l0.019,-0.038l0.018,-0.035l0.018,-0.035l0.017,-0.032l0.018,-0.034l0.02,-0.038l0.018,-0.032l0.019,-0.034l0.019,-0.034l0.018,-0.031l0.021,-0.037l0.022,-0.036l0.037,-0.063l0.041,-0.067l0.042,-0.065l0.042,-0.065l0.043,-0.066l0.044,-0.063l0.044,-0.062l0.045,-0.063l0.047,-0.064l0.047,-0.062l0.047,-0.06l0.048,-0.061l0.049,-0.06l0.049,-0.058l0.05,-0.059l0.051,-0.058l0.052,-0.058l0.052,-0.057l0.054,-0.057l0.053,-0.055l0.053,-0.054l0.056,-0.055l0.056,-0.054l0.056,-0.052l0.057,-0.053l0.057,-0.051l0.057,-0.05l0.06,-0.052l0.06,-0.049l0.059,-0.049l0.06,-0.047l0.061,-0.048l0.063,-0.047l0.062,-0.046l0.062,-0.045l0.063,-0.044l0.065,-0.045l0.064,-0.042l0.065,-0.043l0.066,-0.041l0.066,-0.041l0.065,-0.039l0.036,-0.021l0.034,-0.02l0.032,-0.018l0.034,-0.02l0.034,-0.018l0.034,-0.019l0.036,-0.019l0.034,-0.019l0.034,-0.017l0.033,-0.017l0.036,-0.019l0.037,-0.018l0.033,-0.016l0.035,-0.017l0.037,-0.018l0.035,-0.017l0.035,-0.016l0.036,-0.016l0.036,-0.016l0.035,-0.016l0.036,-0.016l0.036,-0.015l0.037,-0.015l0.037,-0.016l0.037,-0.014l0.035,-0.014l0.036,-0.015l0.037,-0.014l0.037,-0.014l0.038,-0.014l0.038,-0.014l0.035,-0.012l0.037,-0.013l0.039,-0.013l0.038,-0.013l0.037,-0.012l0.037,-0.012l0.038,-0.012l0.038,-0.012l0.039,-0.012l0.037,-0.011l0.039,-0.011l0.038,-0.01l0.038,-0.011l0.04,-0.01l0.038,-0.01l0.038,-0.01l0.039,-0.01l0.039,-0.009l0.039,-0.009l0.04,-0.009l0.038,-0.009l0.04,-0.008l0.039,-0.008l0.039,-0.008l0.04,-0.008l0.039,-0.008l0.041,-0.007l0.039,-0.007l0.039,-0.006l0.041,-0.007l0.04,-0.006l0.039,-0.006l0.041,-0.006l0.04,-0.005l0.04,-0.006l0.041,-0.005l0.04,-0.005l0.04,-0.004l0.041,-0.004l0.041,-0.004l0.04,-0.004l0.04,-0.003l0.042,-0.004l0.041,-0.003l0.041,-0.002l0.04,-0.003l0.042,-0.002l0.041,-0.002l0.04,-0.002l0.042,-0.001l0.042,-0.001l0.041,-0.001l0.041,-0.001l0.041,0l0.04,0l36.674,0l0.039,0Zm-36.711,1.5l-0.032,0l-0.032,0l-0.032,0l-0.032,0.001l-0.031,0.001l-0.032,0.001l-0.032,0.001l-0.031,0.002l-0.032,0.002l-0.031,0.002l-0.032,0.002l-0.031,0.002l-0.032,0.002l-0.031,0.003l-0.031,0.003l-0.031,0.003l-0.031,0.003l-0.031,0.004l-0.031,0.003l-0.031,0.004l-0.031,0.004l-0.031,0.005l-0.031,0.004l-0.031,0.005l-0.03,0.004l-0.031,0.005l-0.03,0.005l-0.031,0.006l-0.03,0.005l-0.031,0.006l-0.03,0.006l-0.03,0.006l-0.03,0.006l-0.03,0.007l-0.03,0.006l-0.03,0.007l-0.03,0.007l-0.03,0.007l-0.029,0.008l-0.03,0.007l-0.03,0.008l-0.029,0.008l-0.03,0.008l-0.029,0.008l-0.029,0.009l-0.029,0.008l-0.03,0.009l-0.029,0.009l-0.029,0.009l-0.028,0.009l-0.029,0.01l-0.029,0.009l-0.029,0.01l-0.028,0.01l-0.029,0.01l-0.028,0.011l-0.029,0.01l-0.028,0.011l-0.028,0.011l-0.028,0.011l-0.028,0.011l-0.028,0.011l-0.028,0.012l-0.028,0.011l-0.027,0.012l-0.028,0.012l-0.028,0.012l-0.027,0.013l-0.027,0.012l-0.027,0.013l-0.028,0.012l-0.027,0.013l-0.027,0.013l-0.027,0.014l-0.026,0.013l-0.027,0.014l-0.027,0.013l-0.026,0.014l-0.027,0.014l-0.026,0.015l-0.026,0.014l-0.026,0.014l-0.026,0.015l-0.026,0.015l-0.026,0.015l-0.026,0.015l-0.051,0.031l-0.051,0.031l-0.05,0.032l-0.05,0.032l-0.049,0.033l-0.05,0.034l-0.048,0.034l-0.049,0.035l-0.047,0.035l-0.048,0.036l-0.047,0.037l-0.046,0.037l-0.046,0.037l-0.046,0.038l-0.045,0.039l-0.044,0.039l-0.045,0.039l-0.043,0.041l-0.043,0.04l-0.043,0.042l-0.042,0.041l-0.042,0.042l-0.041,0.043l-0.041,0.043l-0.04,0.044l-0.04,0.044l-0.039,0.045l-0.038,0.045l-0.038,0.045l-0.038,0.046l-0.037,0.047l-0.036,0.047l-0.036,0.047l-0.036,0.048l-0.034,0.048l-0.035,0.049l-0.033,0.049l-0.033,0.05l-0.033,0.05l-0.032,0.05l-0.031,0.051l-0.03,0.051l-0.016,0.026l-0.015,0.025l-0.014,0.026l-0.015,0.026l-0.015,0.026l-0.014,0.027l-0.014,0.026l-0.014,0.026l-0.014,0.027l-0.014,0.026l-0.013,0.027l-0.014,0.027l-0.013,0.027l-0.013,0.027l-0.013,0.027l-0.013,0.027l-0.013,0.027l-0.012,0.028l-0.012,0.027l-0.012,0.028l-0.012,0.027l-0.012,0.028l-0.012,0.028l-0.011,0.027l-0.012,0.028l-0.011,0.028l-0.011,0.028l-0.011,0.029l-0.01,0.028l-0.011,0.028l-0.01,0.029l-0.01,0.028l-0.01,0.029l-0.01,0.028l-0.01,0.029l-0.009,0.029l-0.009,0.029l-0.01,0.029l-0.008,0.029l-0.009,0.029l-0.009,0.029l-0.008,0.03l-0.009,0.029l-0.008,0.029l-0.008,0.03l-0.007,0.029l-0.008,0.03l-0.007,0.03l-0.007,0.03l-0.007,0.029l-0.007,0.03l-0.007,0.03l-0.006,0.03l-0.006,0.031l-0.007,0.03l-0.005,0.03l-0.006,0.03l-0.006,0.031l-0.005,0.03l-0.005,0.031l-0.005,0.03l-0.005,0.031l-0.005,0.031l-0.004,0.03l-0.004,0.031l-0.004,0.031l-0.004,0.031l-0.004,0.031l-0.003,0.031l-0.003,0.031l-0.003,0.031l-0.003,0.032l-0.003,0.031l-0.003,0.031l-0.002,0.032l-0.002,0.031l-0.002,0.032l-0.002,0.031l-0.001,0.032l-0.001,0.031l-0.001,0.032l-0.001,0.032l-0.001,0.032l-0.001,0.032l0,0.031l0,0.032l0,41.953l0,0.032l0,0.032l0.001,0.031l0.001,0.032l0.001,0.032l0.001,0.032l0.001,0.031l0.001,0.032l0.002,0.031l0.002,0.032l0.002,0.031l0.002,0.032l0.003,0.031l0.003,0.031l0.003,0.032l0.003,0.031l0.003,0.031l0.003,0.031l0.004,0.031l0.004,0.031l0.004,0.031l0.004,0.031l0.004,0.03l0.005,0.031l0.005,0.031l0.005,0.03l0.005,0.031l0.005,0.03l0.006,0.031l0.006,0.03l0.005,0.03l0.007,0.031l0.006,0.03l0.006,0.03l0.007,0.03l0.007,0.03l0.007,0.029l0.007,0.03l0.007,0.03l0.008,0.03l0.007,0.029l0.008,0.03l0.008,0.029l0.009,0.029l0.008,0.03l0.009,0.029l0.009,0.029l0.008,0.029l0.01,0.029l0.009,0.029l0.009,0.029l0.01,0.029l0.01,0.028l0.01,0.029l0.01,0.028l0.01,0.029l0.011,0.028l0.01,0.028l0.011,0.029l0.011,0.028l0.011,0.028l0.012,0.028l0.011,0.028l0.012,0.027l0.012,0.028l0.012,0.028l0.012,0.027l0.012,0.027l0.012,0.028l0.013,0.027l0.013,0.027l0.013,0.027l0.013,0.027l0.013,0.027l0.014,0.027l0.013,0.027l0.014,0.026l0.014,0.027l0.014,0.026l0.014,0.026l0.014,0.027l0.015,0.026l0.015,0.026l0.014,0.026l0.015,0.026l0.016,0.025l0.03,0.051l0.031,0.051l0.032,0.051l0.033,0.05l0.033,0.049l0.033,0.049l0.035,0.049l0.034,0.048l0.036,0.048l0.036,0.047l0.036,0.047l0.037,0.047l0.038,0.046l0.038,0.045l0.038,0.045l0.039,0.045l0.04,0.044l0.04,0.044l0.041,0.043l0.041,0.043l0.042,0.042l0.042,0.042l0.043,0.041l0.043,0.04l0.043,0.041l0.045,0.039l0.044,0.039l0.045,0.039l0.046,0.038l0.046,0.038l0.046,0.037l0.047,0.036l0.048,0.036l0.047,0.035l0.049,0.035l0.048,0.034l0.05,0.034l0.049,0.033l0.05,0.032l0.05,0.032l0.051,0.031l0.051,0.031l0.026,0.015l0.026,0.015l0.026,0.015l0.026,0.015l0.026,0.014l0.026,0.014l0.026,0.015l0.027,0.014l0.026,0.014l0.027,0.013l0.027,0.014l0.026,0.013l0.027,0.014l0.027,0.013l0.027,0.013l0.028,0.012l0.027,0.013l0.027,0.013l0.027,0.012l0.028,0.012l0.028,0.012l0.027,0.012l0.028,0.011l0.028,0.012l0.028,0.011l0.028,0.011l0.028,0.011l0.028,0.011l0.028,0.011l0.029,0.01l0.028,0.011l0.029,0.01l0.028,0.01l0.029,0.01l0.029,0.009l0.029,0.01l0.028,0.009l0.029,0.009l0.029,0.009l0.03,0.009l0.029,0.008l0.029,0.009l0.029,0.008l0.03,0.008l0.029,0.008l0.03,0.008l0.03,0.007l0.029,0.008l0.03,0.007l0.03,0.007l0.03,0.007l0.03,0.006l0.03,0.007l0.03,0.006l0.03,0.006l0.03,0.006l0.031,0.006l0.03,0.005l0.031,0.006l0.03,0.005l0.031,0.005l0.03,0.005l0.031,0.004l0.031,0.005l0.031,0.004l0.031,0.004l0.031,0.004l0.031,0.003l0.031,0.004l0.031,0.003l0.031,0.003l0.031,0.003l0.031,0.003l0.032,0.002l0.031,0.002l0.032,0.002l0.031,0.002l0.032,0.002l0.031,0.002l0.032,0.001l0.032,0.001l0.031,0.001l0.032,0.001l0.032,0l0.032,0l0.032,0.001l36.67,0l0.032,-0.001l0.032,0l0.031,0l0.032,-0.001l0.032,-0.001l0.032,-0.001l0.031,-0.001l0.032,-0.002l0.032,-0.002l0.031,-0.002l0.031,-0.002l0.032,-0.002l0.031,-0.002l0.031,-0.003l0.032,-0.003l0.031,-0.003l0.031,-0.003l0.031,-0.004l0.031,-0.003l0.031,-0.004l0.031,-0.004l0.031,-0.004l0.03,-0.005l0.031,-0.004l0.031,-0.005l0.03,-0.005l0.031,-0.005l0.03,-0.006l0.031,-0.005l0.03,-0.006l0.03,-0.006l0.031,-0.006l0.03,-0.006l0.03,-0.007l0.03,-0.006l0.03,-0.007l0.029,-0.007l0.03,-0.007l0.03,-0.008l0.03,-0.007l0.029,-0.008l0.03,-0.008l0.029,-0.008l0.03,-0.008l0.029,-0.009l0.029,-0.008l0.029,-0.009l0.029,-0.009l0.029,-0.009l0.029,-0.009l0.029,-0.01l0.029,-0.009l0.028,-0.01l0.029,-0.01l0.028,-0.01l0.029,-0.011l0.028,-0.01l0.028,-0.011l0.029,-0.011l0.028,-0.011l0.028,-0.011l0.028,-0.011l0.028,-0.012l0.027,-0.011l0.028,-0.012l0.028,-0.012l0.027,-0.012l0.027,-0.012l0.028,-0.013l0.027,-0.013l0.027,-0.012l0.027,-0.013l0.027,-0.013l0.027,-0.014l0.027,-0.013l0.027,-0.014l0.026,-0.013l0.027,-0.014l0.026,-0.014l0.026,-0.015l0.027,-0.014l0.026,-0.014l0.026,-0.015l0.026,-0.015l0.026,-0.015l0.025,-0.015l0.051,-0.031l0.051,-0.031l0.051,-0.032l0.05,-0.032l0.049,-0.033l0.049,-0.034l0.049,-0.034l0.048,-0.035l0.048,-0.035l0.047,-0.036l0.047,-0.036l0.047,-0.037l0.046,-0.038l0.045,-0.038l0.045,-0.039l0.045,-0.039l0.044,-0.039l0.044,-0.041l0.043,-0.04l0.043,-0.041l0.042,-0.042l0.042,-0.042l0.041,-0.043l0.04,-0.043l0.041,-0.044l0.039,-0.044l0.039,-0.045l0.039,-0.045l0.038,-0.045l0.038,-0.046l0.037,-0.047l0.036,-0.047l0.036,-0.047l0.035,-0.048l0.035,-0.048l0.034,-0.049l0.034,-0.049l0.033,-0.049l0.032,-0.05l0.032,-0.051l0.031,-0.051l0.031,-0.051l0.015,-0.025l0.015,-0.026l0.015,-0.026l0.015,-0.026l0.014,-0.026l0.014,-0.027l0.015,-0.026l0.014,-0.026l0.014,-0.027l0.013,-0.026l0.014,-0.027l0.013,-0.027l0.014,-0.027l0.013,-0.027l0.013,-0.027l0.012,-0.027l0.013,-0.027l0.013,-0.028l0.012,-0.027l0.012,-0.027l0.012,-0.028l0.012,-0.028l0.011,-0.027l0.012,-0.028l0.011,-0.028l0.011,-0.028l0.011,-0.028l0.011,-0.029l0.011,-0.028l0.01,-0.028l0.011,-0.029l0.01,-0.028l0.01,-0.029l0.01,-0.028l0.009,-0.029l0.01,-0.029l0.009,-0.029l0.009,-0.029l0.009,-0.029l0.009,-0.029l0.008,-0.029l0.009,-0.03l0.008,-0.029l0.008,-0.029l0.008,-0.03l0.008,-0.029l0.007,-0.03l0.008,-0.03l0.007,-0.03l0.007,-0.029l0.007,-0.03l0.006,-0.03l0.007,-0.03l0.006,-0.03l0.006,-0.031l0.006,-0.03l0.006,-0.03l0.005,-0.031l0.006,-0.03l0.005,-0.031l0.005,-0.03l0.005,-0.031l0.004,-0.031l0.005,-0.03l0.004,-0.031l0.004,-0.031l0.004,-0.031l0.003,-0.031l0.004,-0.031l0.003,-0.031l0.003,-0.031l0.003,-0.032l0.003,-0.031l0.002,-0.031l0.002,-0.032l0.003,-0.031l0.001,-0.032l0.002,-0.031l0.002,-0.032l0.001,-0.031l0.001,-0.032l0.001,-0.032l0.001,-0.032l0,-0.031l0,-0.032l0.001,-0.032l0,-41.953l-0.001,-0.032l0,-0.031l0,-0.032l-0.001,-0.032l-0.001,-0.032l-0.001,-0.032l-0.001,-0.031l-0.002,-0.032l-0.002,-0.031l-0.001,-0.032l-0.003,-0.031l-0.002,-0.032l-0.002,-0.031l-0.003,-0.031l-0.003,-0.032l-0.003,-0.031l-0.003,-0.031l-0.004,-0.031l-0.003,-0.031l-0.004,-0.031l-0.004,-0.031l-0.004,-0.031l-0.005,-0.03l-0.004,-0.031l-0.005,-0.031l-0.005,-0.03l-0.005,-0.031l-0.006,-0.03l-0.005,-0.031l-0.006,-0.03l-0.006,-0.03l-0.006,-0.03l-0.006,-0.031l-0.007,-0.03l-0.006,-0.03l-0.007,-0.03l-0.007,-0.029l-0.007,-0.03l-0.008,-0.03l-0.007,-0.03l-0.008,-0.029l-0.008,-0.03l-0.008,-0.029l-0.008,-0.029l-0.009,-0.03l-0.008,-0.029l-0.009,-0.029l-0.009,-0.029l-0.009,-0.029l-0.009,-0.029l-0.01,-0.029l-0.009,-0.029l-0.01,-0.028l-0.01,-0.029l-0.01,-0.028l-0.011,-0.029l-0.01,-0.028l-0.011,-0.028l-0.011,-0.029l-0.011,-0.028l-0.011,-0.028l-0.011,-0.028l-0.012,-0.027l-0.011,-0.028l-0.012,-0.028l-0.012,-0.027l-0.012,-0.028l-0.012,-0.027l-0.013,-0.028l-0.013,-0.027l-0.012,-0.027l-0.013,-0.027l-0.013,-0.027l-0.014,-0.027l-0.013,-0.027l-0.014,-0.027l-0.013,-0.026l-0.014,-0.027l-0.014,-0.026l-0.015,-0.026l-0.014,-0.027l-0.014,-0.026l-0.015,-0.026l-0.015,-0.026l-0.015,-0.025l-0.015,-0.026l-0.031,-0.051l-0.031,-0.051l-0.032,-0.05l-0.032,-0.05l-0.033,-0.05l-0.034,-0.049l-0.034,-0.049l-0.035,-0.048l-0.035,-0.048l-0.036,-0.047l-0.036,-0.047l-0.037,-0.047l-0.038,-0.046l-0.038,-0.045l-0.039,-0.045l-0.039,-0.045l-0.039,-0.044l-0.041,-0.044l-0.04,-0.043l-0.041,-0.043l-0.042,-0.042l-0.042,-0.041l-0.043,-0.042l-0.043,-0.04l-0.044,-0.041l-0.044,-0.039l-0.045,-0.039l-0.045,-0.039l-0.045,-0.038l-0.046,-0.037l-0.047,-0.037l-0.047,-0.037l-0.047,-0.036l-0.048,-0.035l-0.048,-0.035l-0.049,-0.034l-0.049,-0.034l-0.049,-0.033l-0.05,-0.032l-0.051,-0.032l-0.051,-0.031l-0.051,-0.031l-0.025,-0.015l-0.026,-0.015l-0.026,-0.015l-0.026,-0.015l-0.026,-0.014l-0.027,-0.014l-0.026,-0.015l-0.026,-0.014l-0.027,-0.014l-0.026,-0.013l-0.027,-0.014l-0.027,-0.013l-0.027,-0.014l-0.027,-0.013l-0.027,-0.013l-0.027,-0.012l-0.027,-0.013l-0.028,-0.012l-0.027,-0.013l-0.027,-0.012l-0.028,-0.012l-0.028,-0.012l-0.027,-0.011l-0.028,-0.012l-0.028,-0.011l-0.028,-0.011l-0.028,-0.011l-0.029,-0.011l-0.028,-0.011l-0.028,-0.01l-0.029,-0.011l-0.028,-0.01l-0.029,-0.01l-0.028,-0.01l-0.029,-0.009l-0.029,-0.01l-0.029,-0.009l-0.029,-0.009l-0.029,-0.009l-0.029,-0.009l-0.029,-0.008l-0.029,-0.009l-0.03,-0.008l-0.029,-0.008l-0.03,-0.008l-0.029,-0.008l-0.03,-0.007l-0.03,-0.008l-0.03,-0.007l-0.029,-0.007l-0.03,-0.007l-0.03,-0.006l-0.03,-0.007l-0.03,-0.006l-0.031,-0.006l-0.03,-0.006l-0.03,-0.006l-0.031,-0.005l-0.03,-0.006l-0.031,-0.005l-0.03,-0.005l-0.031,-0.004l-0.031,-0.005l-0.03,-0.004l-0.031,-0.005l-0.031,-0.004l-0.031,-0.004l-0.031,-0.003l-0.031,-0.004l-0.031,-0.003l-0.031,-0.003l-0.032,-0.003l-0.031,-0.003l-0.031,-0.002l-0.032,-0.002l-0.031,-0.002l-0.031,-0.002l-0.032,-0.002l-0.032,-0.002l-0.031,-0.001l-0.032,-0.001l-0.032,-0.001l-0.032,-0.001l-0.031,0l-0.032,0l-0.032,0l-36.67,0Z" style="fill:#18001f;"/></g><path id="Etikett" d="M4.062,21.818l46.557,0l0,30.652l-23.065,0.24l-23.492,-0.24l0,-30.652Z" style="fill:url(#_Linear2);"/><path d="M50.75,20.827l0.128,0.026l0.124,0.042l0.117,0.057l0.109,0.073l0.099,0.086l0.086,0.099l0.072,0.108l0.058,0.118l0.042,0.124l0.026,0.128l0.008,0.13l0,30.652l-0.008,0.129l-0.025,0.128l-0.042,0.123l-0.057,0.116l-0.072,0.109l-0.085,0.098l-0.097,0.086l-0.108,0.073l-0.116,0.058l-0.122,0.043l-0.128,0.027l-0.129,0.009l-23.076,0.241l-23.502,-0.241l-0.13,-0.009l-0.127,-0.027l-0.123,-0.043l-0.116,-0.058l-0.108,-0.073l-0.097,-0.086l-0.085,-0.098l-0.072,-0.108l-0.057,-0.117l-0.041,-0.123l-0.026,-0.128l-0.008,-0.129l0,-30.652l0.008,-0.13l0.026,-0.128l0.042,-0.124l0.058,-0.118l0.073,-0.108l0.086,-0.099l0.098,-0.086l0.109,-0.073l0.117,-0.057l0.124,-0.042l0.128,-0.026l0.131,-0.009l46.557,0l0.131,0.009Zm-46.688,0.991l0,30.652l23.492,0.24l23.065,-0.24l0,-30.652l-46.557,0Z"/><path id="Alfa" d="M25.899,37.466c0,0 -0.228,0.372 -0.475,0.788c-0.946,1.593 -2.578,4.68 -3.446,7.505c-0.775,2.524 -1.625,2.471 -2.812,-0.055c-2.247,-4.778 -2.149,-13.15 -1.197,-16.989c0.626,-2.527 0.993,-3.075 2.187,-1.171c1.057,1.687 4.347,6.775 5.305,8.375c0.132,0.222 0.265,0.439 0.397,0.651c2.275,3.664 4.399,5.913 6.224,7.323c5.586,4.32 7.369,1.476 7.369,1.476c0,0 0.039,1.05 -1.985,1.373c-5.098,0.813 -9.341,-5.509 -11.567,-9.276Zm-0.272,-0.465c0,0 -0.158,-0.272 -0.341,-0.591c-1.935,-3.377 -3.541,-5.741 -5.286,-8.075c-0.596,-0.798 -1.145,-0.985 -1.481,0.232c-1.017,3.678 -0.931,11.371 0.739,16.488c0.605,1.856 1.534,1.822 2.307,0.181c0.85,-1.802 2.299,-5.066 3.595,-7.407c0.121,-0.219 0.314,-0.559 0.467,-0.828Zm0.239,-0.418c5.204,-8.962 9.09,-10.77 11.331,-10.762c1.956,0.006 2.129,0.782 2.129,0.782c0,0 -0.225,-0.401 -1.711,-0.3c-1.897,0.13 -6.11,2.164 -11.457,10.743" style="stroke:#000;stroke-width:0.24px;"/><path id="Lokk" d="M54.158,3.153c0,-1.325 -1.075,-2.4 -2.4,-2.4l-48.409,0c-1.324,0 -2.4,1.075 -2.4,2.4l0,4.8c0,1.324 1.076,2.4 2.4,2.4l48.409,0c1.325,0 2.4,-1.076 2.4,-2.4l0,-4.8Z" style="fill:url(#_Linear3);stroke:#000;stroke-width:1.5px;"/><path d="M26.088,38.295c5.535,-5.998 14.898,-6.374 20.896,-0.84c5.998,5.535 6.375,14.898 0.84,20.896c-5.534,5.998 -14.897,6.374 -20.895,0.84c-5.999,-5.535 -6.375,-14.898 -0.841,-20.896Zm20.155,2.486c3.875,4.626 3.721,11.393 -0.358,15.802c-4.08,4.409 -10.815,5.086 -15.727,1.581l16.085,-17.383Zm-2.574,-2.338c-4.911,-3.36 -11.527,-2.624 -15.544,1.73c-4.017,4.353 -4.219,11.007 -0.476,15.632l16.02,-17.362Z" style="fill:#ae1e1e;stroke:#000;stroke-width:1px;stroke-linejoin:miter;"/></g><defs><linearGradient id="_Linear1" x1="0" y1="0" x2="1" y2="0" gradientUnits="userSpaceOnUse" gradientTransform="matrix(46.5575,0,0,51.84,4.27503,36.2725)"><stop offset="0" style="stop-color:#1f0000;stop-opacity:1"/><stop offset="0.09" style="stop-color:#371212;stop-opacity:1"/><stop offset="0.2" style="stop-color:#4e2323;stop-opacity:1"/><stop offset="0.5" style="stop-color:#582a2a;stop-opacity:1"/><stop offset="0.8" style="stop-color:#4e2323;stop-opacity:1"/><stop offset="0.91" style="stop-color:#361212;stop-opacity:1"/><stop offset="1" style="stop-color:#1e0000;stop-opacity:1"/></linearGradient><linearGradient id="_Linear2" x1="0" y1="0" x2="1" y2="0" gradientUnits="userSpaceOnUse" gradientTransform="matrix(46.5575,0,0,32.571,4.27503,36.4781)"><stop offset="0" style="stop-color:#7c715a;stop-opacity:1"/><stop offset="0.09" style="stop-color:#afa795;stop-opacity:1"/><stop offset="0.2" style="stop-color:#e1dbcf;stop-opacity:1"/><stop offset="0.5" style="stop-color:#f7f2e8;stop-opacity:1"/><stop offset="0.8" style="stop-color:#e1dbcf;stop-opacity:1"/><stop offset="0.91" style="stop-color:#afa695;stop-opacity:1"/><stop offset="1" style="stop-color:#7c7059;stop-opacity:1"/></linearGradient><linearGradient id="_Linear3" x1="0" y1="0" x2="1" y2="0" gradientUnits="userSpaceOnUse" gradientTransform="matrix(53.2086,0,0,9.6,0.949489,5.55253)"><stop offset="0" style="stop-color:#1e1b1b;stop-opacity:1"/><stop offset="0.09" style="stop-color:#464444;stop-opacity:1"/><stop offset="0.2" style="stop-color:#6c6c6c;stop-opacity:1"/><stop offset="0.5" style="stop-color:#7d7d7d;stop-opacity:1"/><stop offset="0.8" style="stop-color:#6c6c6c;stop-opacity:1"/><stop offset="0.91" style="stop-color:#464444;stop-opacity:1"/><stop offset="1" style="stop-color:#1e1b1b;stop-opacity:1"/></linearGradient></defs></svg>