<?xml version="1.0" encoding="UTF-8" standalone="no"?><!DOCTYPE svg PUBLIC "-//W3C//DTD SVG 1.1//EN" "http://www.w3.org/Graphics/SVG/1.1/DTD/svg11.dtd"><svg width="100%" height="100%" viewBox="0 0 76 85" version="1.1" xmlns="http://www.w3.org/2000/svg" xmlns:xlink="http://www.w3.org/1999/xlink" xml:space="preserve" xmlns:serif="http://www.serif.com/" style="fill-rule:evenodd;clip-rule:evenodd;stroke-linecap:round;stroke-linejoin:round;stroke-miterlimit:1.5;"><g id="Alfa-AlfaGammaDisease" serif:id="Alfa AlfaGammaDisease"><circle cx="37.878" cy="46.377" r="33.792" style="fill:url(#_Radial1);"/><path d="M38,8.586l0.121,0l0.122,0.001l0.122,0.001l0.121,0.002l0.122,0.002l0.122,0.003l0.121,0.003l0.121,0.003l0.121,0.004l0.121,0.004l0.121,0.004l0.121,0.005l0.121,0.005l0.121,0.006l0.12,0.006l0.121,0.006l0.12,0.007l0.121,0.007l0.12,0.007l0.12,0.008l0.12,0.008l0.12,0.009l0.119,0.009l0.121,0.009l0.119,0.01l0.12,0.01l0.12,0.01l0.118,0.011l0.12,0.011l0.119,0.012l0.119,0.012l0.119,0.012l0.119,0.012l0.118,0.013l0.12,0.014l0.118,0.014l0.119,0.014l0.118,0.014l0.117,0.015l0.119,0.015l0.119,0.016l0.117,0.016l0.117,0.016l0.118,0.017l0.118,0.017l0.117,0.017l0.118,0.018l0.117,0.018l0.117,0.019l0.117,0.018l0.117,0.02l0.117,0.019l0.116,0.02l0.117,0.02l0.117,0.021l0.115,0.021l0.116,0.021l0.117,0.022l0.116,0.022l0.115,0.022l0.116,0.023l0.116,0.023l0.115,0.024l0.115,0.024l0.115,0.024l0.116,0.024l0.115,0.025l0.114,0.025l0.114,0.026l0.115,0.026l0.115,0.026l0.114,0.027l0.114,0.027l0.114,0.027l0.113,0.027l0.115,0.028l0.114,0.029l0.113,0.028l0.113,0.029l0.113,0.03l0.113,0.029l0.113,0.03l0.113,0.031l0.113,0.03l0.113,0.032l0.112,0.031l0.112,0.032l0.112,0.032l0.112,0.032l0.112,0.033l0.111,0.033l0.111,0.033l0.112,0.034l0.112,0.034l0.11,0.034l0.112,0.035l0.11,0.035l0.111,0.036l0.11,0.035l0.11,0.036l0.111,0.037l0.111,0.037l0.109,0.037l0.109,0.037l0.11,0.037l0.11,0.039l0.109,0.038l0.109,0.039l0.109,0.038l0.109,0.04l0.108,0.039l0.108,0.04l0.11,0.041l0.108,0.041l0.108,0.04l0.108,0.042l0.108,0.041l0.107,0.042l0.107,0.042l0.106,0.042l0.108,0.043l0.108,0.044l0.106,0.043l0.107,0.044l0.107,0.044l0.105,0.044l0.107,0.045l0.106,0.045l0.105,0.045l0.106,0.046l0.105,0.046l0.106,0.046l0.104,0.047l0.105,0.046l0.106,0.048l0.105,0.048l0.102,0.047l0.106,0.048l0.104,0.049l0.103,0.048l0.104,0.049l0.104,0.05l0.104,0.05l0.102,0.05l0.103,0.05l0.104,0.05l0.103,0.052l0.102,0.051l0.102,0.051l0.102,0.051l0.102,0.053l0.103,0.052l0.1,0.053l0.102,0.053l0.101,0.053l0.101,0.053l0.101,0.054l0.101,0.054l0.1,0.055l0.101,0.055l0.1,0.055l0.099,0.055l0.1,0.055l0.1,0.056l0.099,0.056l0.1,0.057l0.099,0.057l0.098,0.057l0.099,0.057l0.099,0.058l0.098,0.058l0.098,0.058l0.098,0.059l0.098,0.059l0.098,0.059l0.097,0.059l0.095,0.059l0.098,0.06l0.098,0.061l0.096,0.06l0.095,0.06l0.096,0.061l0.097,0.062l0.096,0.062l0.094,0.061l0.096,0.062l0.096,0.064l0.095,0.062l0.093,0.062l0.095,0.064l0.095,0.064l0.094,0.064l0.094,0.064l0.094,0.064l0.093,0.064l0.093,0.065l0.093,0.065l0.094,0.066l0.093,0.066l0.091,0.065l0.093,0.067l0.093,0.068l0.09,0.065l0.092,0.067l0.093,0.068l0.09,0.067l0.091,0.068l0.091,0.068l0.09,0.068l0.091,0.069l0.09,0.069l0.09,0.069l0.09,0.07l0.09,0.07l0.089,0.07l0.088,0.07l0.089,0.07l0.089,0.071l0.09,0.072l0.087,0.071l0.088,0.071l0.087,0.071l0.088,0.072l0.088,0.073l0.088,0.074l0.086,0.072l0.086,0.072l0.087,0.074l0.086,0.073l0.085,0.074l0.087,0.075l0.085,0.074l0.085,0.074l0.086,0.075l0.085,0.076l0.084,0.075l0.085,0.076l0.084,0.075l0.083,0.076l0.085,0.077l0.083,0.076l0.084,0.078l0.082,0.075l0.083,0.078l0.083,0.078l0.082,0.077l0.082,0.079l0.082,0.078l0.082,0.079l0.082,0.079l0.08,0.078l0.081,0.08l0.08,0.079l0.081,0.08l0.081,0.08l0.079,0.08l0.08,0.081l0.08,0.08l0.079,0.081l0.079,0.082l0.079,0.081l0.078,0.081l0.079,0.082l0.078,0.083l0.078,0.082l0.077,0.082l0.077,0.083l0.078,0.084l0.076,0.082l0.077,0.084l0.076,0.084l0.076,0.084l0.077,0.084l0.075,0.085l0.075,0.083l0.075,0.086l0.075,0.085l0.075,0.085l0.074,0.086l0.073,0.085l0.075,0.086l0.073,0.087l0.074,0.086l0.073,0.087l0.073,0.087l0.072,0.087l0.073,0.088l0.072,0.087l0.072,0.088l0.072,0.088l0.07,0.087l0.071,0.088l0.072,0.09l0.07,0.09l0.069,0.087l0.07,0.089l0.071,0.091l0.069,0.09l0.068,0.089l0.069,0.09l0.07,0.091l0.068,0.091l0.068,0.09l0.068,0.092l0.068,0.091l0.067,0.091l0.067,0.091l0.067,0.092l0.066,0.092l0.066,0.092l0.067,0.094l0.066,0.092l0.064,0.091l0.066,0.095l0.066,0.095l0.063,0.091l0.064,0.093l0.065,0.096l0.064,0.093l0.063,0.094l0.064,0.096l0.063,0.095l0.062,0.094l0.063,0.095l0.062,0.095l0.062,0.096l0.062,0.096l0.061,0.095l0.06,0.096l0.062,0.097l0.061,0.098l0.059,0.094l0.059,0.097l0.062,0.1l0.059,0.096l0.057,0.096l0.06,0.098l0.059,0.099l0.058,0.098l0.057,0.097l0.058,0.1l0.057,0.098l0.057,0.098l0.057,0.1l0.057,0.1l0.056,0.099l0.056,0.098l0.056,0.101l0.055,0.099l0.055,0.101l0.055,0.102l0.054,0.099l0.054,0.1l0.054,0.102l0.053,0.1l0.053,0.1l0.054,0.104l0.052,0.101l0.052,0.101l0.053,0.102l0.052,0.103l0.052,0.103l0.05,0.102l0.051,0.101l0.051,0.104l0.05,0.104l0.05,0.102l0.05,0.104l0.049,0.104l0.049,0.102l0.049,0.105l0.048,0.104l0.048,0.103l0.048,0.105l0.048,0.106l0.046,0.103l0.048,0.106l0.046,0.105l0.046,0.104l0.046,0.106l0.046,0.106l0.046,0.106l0.045,0.106l0.044,0.105l0.045,0.107l0.044,0.107l0.044,0.107l0.043,0.107l0.043,0.107l0.043,0.105l0.042,0.108l0.043,0.108l0.042,0.107l0.041,0.109l0.041,0.106l0.042,0.11l0.04,0.108l0.04,0.107l0.04,0.108l0.04,0.109l0.039,0.109l0.039,0.109l0.039,0.11l0.038,0.109l0.038,0.11l0.038,0.109l0.037,0.11l0.037,0.11l0.037,0.11l0.036,0.11l0.035,0.108l0.037,0.113l0.035,0.11l0.035,0.111l0.036,0.113l0.033,0.109l0.034,0.111l0.034,0.111l0.033,0.111l0.034,0.114l0.033,0.111l0.031,0.11l0.033,0.114l0.031,0.112l0.032,0.112l0.031,0.114l0.03,0.11l0.031,0.113l0.03,0.114l0.03,0.113l0.029,0.113l0.029,0.115l0.029,0.113l0.028,0.113l0.028,0.113l0.027,0.114l0.028,0.115l0.027,0.114l0.026,0.113l0.027,0.114l0.026,0.116l0.025,0.114l0.025,0.114l0.025,0.117l0.025,0.114l0.024,0.115l0.024,0.116l0.023,0.115l0.023,0.115l0.023,0.117l0.022,0.115l0.023,0.117l0.021,0.115l0.021,0.115l0.022,0.118l0.02,0.115l0.02,0.116l0.02,0.118l0.02,0.118l0.019,0.116l0.019,0.116l0.018,0.118l0.018,0.116l0.018,0.118l0.018,0.119l0.016,0.114l0.017,0.119l0.017,0.119l0.015,0.117l0.016,0.119l0.016,0.119l0.014,0.117l0.015,0.119l0.014,0.119l0.013,0.115l0.014,0.12l0.013,0.119l0.013,0.12l0.012,0.12l0.012,0.118l0.011,0.117l0.012,0.12l0.01,0.12l0.011,0.118l0.01,0.121l0.01,0.12l0.009,0.121l0.009,0.12l0.008,0.118l0.009,0.119l0.007,0.121l0.008,0.12l0.007,0.121l0.007,0.121l0.006,0.121l0.006,0.121l0.005,0.119l0.006,0.12l0.004,0.123l0.005,0.121l0.004,0.12l0.003,0.121l0.004,0.122l0.003,0.122l0.002,0.121l0.002,0.12l0.002,0.122l0.001,0.124l0.001,0.12l0.001,0.122l0,0.122l0,0.122l-0.001,0.122l-0.001,0.12l-0.001,0.124l-0.002,0.122l-0.002,0.119l-0.002,0.122l-0.003,0.122l-0.004,0.121l-0.003,0.122l-0.004,0.119l-0.005,0.122l-0.004,0.123l-0.006,0.119l-0.005,0.119l-0.006,0.121l-0.006,0.121l-0.007,0.121l-0.007,0.121l-0.008,0.121l-0.007,0.121l-0.009,0.118l-0.008,0.119l-0.009,0.12l-0.009,0.121l-0.01,0.12l-0.01,0.12l-0.011,0.118l-0.01,0.12l-0.012,0.12l-0.011,0.118l-0.012,0.118l-0.012,0.12l-0.013,0.119l-0.013,0.12l-0.014,0.119l-0.013,0.116l-0.014,0.119l-0.015,0.119l-0.014,0.117l-0.016,0.119l-0.015,0.119l-0.016,0.117l-0.017,0.119l-0.017,0.118l-0.016,0.115l-0.018,0.118l-0.018,0.119l-0.018,0.116l-0.018,0.118l-0.019,0.116l-0.019,0.116l-0.02,0.118l-0.02,0.118l-0.02,0.115l-0.02,0.116l-0.022,0.117l-0.021,0.116l-0.021,0.115l-0.023,0.117l-0.022,0.115l-0.023,0.117l-0.023,0.115l-0.023,0.114l-0.024,0.117l-0.024,0.115l-0.025,0.114l-0.025,0.116l-0.025,0.114l-0.025,0.114l-0.027,0.117l-0.026,0.113l-0.026,0.114l-0.027,0.114l-0.028,0.115l-0.027,0.113l-0.028,0.114l-0.028,0.113l-0.029,0.113l-0.029,0.115l-0.029,0.113l-0.03,0.112l-0.03,0.115l-0.031,0.112l-0.03,0.111l-0.031,0.114l-0.031,0.112l-0.032,0.112l-0.033,0.114l-0.031,0.109l-0.033,0.112l-0.034,0.114l-0.033,0.111l-0.034,0.111l-0.034,0.111l-0.033,0.109l-0.036,0.113l-0.035,0.11l-0.035,0.111l-0.037,0.113l-0.035,0.108l-0.036,0.11l-0.037,0.11l-0.037,0.11l-0.037,0.11l-0.038,0.109l-0.038,0.11l-0.038,0.109l-0.039,0.109l-0.039,0.11l-0.04,0.109l-0.039,0.108l-0.04,0.109l-0.04,0.107l-0.04,0.108l-0.042,0.11l-0.041,0.106l-0.041,0.108l-0.042,0.108l-0.043,0.108l-0.042,0.107l-0.043,0.106l-0.043,0.107l-0.043,0.107l-0.044,0.107l-0.044,0.107l-0.045,0.107l-0.044,0.104l-0.045,0.107l-0.046,0.106l-0.046,0.106l-0.046,0.106l-0.046,0.104l-0.047,0.105l-0.047,0.106l-0.046,0.103l-0.048,0.105l-0.048,0.105l-0.048,0.103l-0.048,0.105l-0.049,0.105l-0.049,0.102l-0.049,0.104l-0.05,0.104l-0.05,0.102l-0.05,0.104l-0.051,0.104l-0.051,0.101l-0.05,0.101l-0.052,0.104l-0.052,0.103l-0.053,0.102l-0.052,0.101l-0.052,0.101l-0.054,0.104l-0.053,0.1l-0.053,0.1l-0.054,0.102l-0.054,0.1l-0.054,0.099l-0.055,0.102l-0.055,0.101l-0.055,0.099l-0.056,0.1l-0.056,0.099l-0.056,0.099l-0.057,0.1l-0.057,0.1l-0.057,0.098l-0.057,0.098l-0.058,0.099l-0.057,0.098l-0.058,0.098l-0.059,0.098l-0.06,0.099l-0.057,0.095l-0.059,0.097l-0.062,0.1l-0.059,0.096l-0.059,0.095l-0.061,0.098l-0.062,0.097l-0.061,0.096l-0.061,0.095l-0.061,0.095l-0.062,0.097l-0.062,0.095l-0.063,0.095l-0.062,0.094l-0.063,0.095l-0.064,0.095l-0.063,0.094l-0.064,0.094l-0.064,0.095l-0.065,0.094l-0.063,0.092l-0.066,0.094l-0.066,0.094l-0.064,0.091l-0.066,0.093l-0.067,0.094l-0.066,0.092l-0.066,0.092l-0.067,0.091l-0.067,0.092l-0.067,0.091l-0.068,0.091l-0.067,0.091l-0.069,0.091l-0.068,0.09l-0.07,0.092l-0.069,0.09l-0.068,0.089l-0.069,0.089l-0.071,0.091l-0.07,0.09l-0.069,0.087l-0.07,0.089l-0.072,0.09l-0.071,0.089l-0.071,0.087l-0.071,0.088l-0.072,0.088l-0.072,0.087l-0.073,0.088l-0.072,0.087l-0.073,0.087l-0.073,0.087l-0.074,0.086l-0.074,0.087l-0.074,0.086l-0.073,0.084l-0.074,0.086l-0.075,0.086l-0.075,0.085l-0.075,0.085l-0.075,0.084l-0.075,0.084l-0.076,0.085l-0.077,0.084l-0.076,0.084l-0.078,0.084l-0.075,0.082l-0.077,0.084l-0.078,0.083l-0.077,0.082l-0.078,0.082l-0.078,0.082l-0.079,0.083l-0.078,0.081l-0.079,0.082l-0.079,0.081l-0.079,0.08l-0.08,0.081l-0.08,0.081l-0.079,0.08l-0.081,0.08l-0.081,0.08l-0.08,0.079l-0.081,0.079l-0.08,0.079l-0.082,0.079l-0.083,0.079l-0.081,0.078l-0.082,0.078l-0.082,0.078l-0.083,0.078l-0.083,0.077l-0.082,0.076l-0.083,0.077l-0.084,0.077l-0.085,0.077l-0.083,0.076l-0.084,0.075l-0.085,0.076l-0.084,0.075l-0.085,0.076l-0.086,0.075l-0.085,0.074l-0.085,0.074l-0.087,0.075l-0.085,0.073l-0.086,0.073l-0.087,0.074l-0.086,0.073l-0.087,0.072l-0.087,0.073l-0.088,0.073l-0.088,0.072l-0.087,0.072l-0.088,0.071l-0.088,0.071l-0.089,0.072l-0.089,0.071l-0.089,0.07l-0.088,0.07l-0.089,0.07l-0.09,0.069l-0.09,0.07l-0.09,0.069l-0.09,0.069l-0.091,0.069l-0.09,0.069l-0.091,0.068l-0.091,0.067l-0.091,0.068l-0.092,0.068l-0.091,0.067l-0.091,0.066l-0.093,0.067l-0.093,0.066l-0.092,0.066l-0.092,0.065l-0.093,0.066l-0.094,0.065l-0.093,0.065l-0.093,0.065l-0.094,0.064l-0.094,0.064l-0.094,0.064l-0.095,0.064l-0.095,0.063l-0.093,0.062l-0.095,0.063l-0.096,0.064l-0.095,0.061l-0.095,0.062l-0.096,0.061l-0.097,0.062l-0.096,0.061l-0.095,0.06l-0.097,0.061l-0.097,0.061l-0.097,0.06l-0.096,0.059l-0.098,0.059l-0.098,0.059l-0.097,0.059l-0.098,0.059l-0.098,0.058l-0.099,0.058l-0.098,0.058l-0.099,0.057l-0.098,0.057l-0.099,0.056l-0.1,0.058l-0.099,0.055l-0.099,0.056l-0.101,0.056l-0.099,0.055l-0.1,0.055l-0.101,0.055l-0.1,0.054l-0.101,0.055l-0.101,0.054l-0.101,0.053l-0.101,0.053l-0.102,0.053l-0.101,0.053l-0.102,0.052l-0.102,0.052l-0.103,0.052l-0.101,0.051l-0.102,0.051l-0.104,0.052l-0.103,0.05l-0.102,0.05l-0.103,0.05l-0.104,0.05l-0.103,0.049l-0.105,0.049l-0.103,0.049l-0.105,0.049l-0.104,0.048l-0.103,0.047l-0.105,0.048l-0.106,0.047l-0.104,0.047l-0.105,0.047l-0.106,0.046l-0.105,0.046l-0.106,0.046l-0.105,0.045l-0.106,0.045l-0.107,0.045l-0.105,0.044l-0.107,0.044l-0.107,0.044l-0.106,0.043l-0.108,0.043l-0.107,0.043l-0.107,0.043l-0.107,0.042l-0.107,0.042l-0.109,0.041l-0.107,0.042l-0.108,0.04l-0.108,0.041l-0.109,0.04l-0.109,0.04l-0.108,0.04l-0.11,0.039l-0.108,0.039l-0.109,0.039l-0.109,0.038l-0.11,0.038l-0.11,0.038l-0.109,0.037l-0.11,0.037l-0.11,0.037l-0.11,0.036l-0.111,0.037l-0.11,0.035l-0.111,0.036l-0.11,0.035l-0.112,0.034l-0.111,0.035l-0.111,0.034l-0.111,0.033l-0.112,0.034l-0.111,0.033l-0.112,0.033l-0.112,0.032l-0.112,0.032l-0.112,0.032l-0.113,0.031l-0.112,0.031l-0.113,0.031l-0.113,0.03l-0.112,0.03l-0.114,0.03l-0.113,0.029l-0.113,0.029l-0.113,0.029l-0.114,0.028l-0.115,0.029l-0.113,0.027l-0.114,0.027l-0.114,0.027l-0.114,0.027l-0.115,0.026l-0.115,0.026l-0.114,0.026l-0.114,0.025l-0.116,0.025l-0.115,0.024l-0.115,0.024l-0.115,0.024l-0.115,0.023l-0.116,0.024l-0.116,0.022l-0.115,0.023l-0.117,0.022l-0.116,0.022l-0.115,0.021l-0.117,0.021l-0.116,0.02l-0.117,0.021l-0.116,0.02l-0.117,0.019l-0.117,0.019l-0.117,0.019l-0.117,0.019l-0.117,0.018l-0.118,0.018l-0.118,0.017l-0.116,0.017l-0.118,0.017l-0.118,0.016l-0.118,0.016l-0.118,0.015l-0.118,0.016l-0.119,0.015l-0.117,0.014l-0.119,0.014l-0.119,0.014l-0.119,0.013l-0.118,0.013l-0.119,0.013l-0.119,0.012l-0.119,0.012l-0.119,0.012l-0.12,0.011l-0.119,0.011l-0.119,0.01l-0.12,0.01l-0.119,0.01l-0.12,0.009l-0.12,0.009l-0.12,0.009l-0.12,0.008l-0.12,0.008l-0.12,0.007l-0.121,0.007l-0.12,0.007l-0.121,0.006l-0.12,0.006l-0.121,0.006l-0.121,0.005l-0.121,0.005l-0.121,0.004l-0.121,0.004l-0.121,0.004l-0.121,0.003l-0.121,0.003l-0.122,0.002l-0.122,0.003l-0.121,0.001l-0.122,0.002l-0.122,0.001l-0.121,0l-0.122,0l-0.123,0l-0.121,0l-0.122,-0.001l-0.122,-0.002l-0.121,-0.001l-0.122,-0.003l-0.121,-0.002l-0.121,-0.003l-0.122,-0.003l-0.121,-0.004l-0.121,-0.004l-0.121,-0.004l-0.121,-0.005l-0.121,-0.005l-0.121,-0.006l-0.12,-0.006l-0.12,-0.006l-0.121,-0.007l-0.12,-0.007l-0.121,-0.007l-0.12,-0.008l-0.12,-0.008l-0.12,-0.009l-0.12,-0.009l-0.119,-0.009l-0.12,-0.01l-0.12,-0.01l-0.119,-0.01l-0.119,-0.011l-0.12,-0.011l-0.119,-0.012l-0.119,-0.012l-0.119,-0.012l-0.119,-0.013l-0.119,-0.013l-0.118,-0.013l-0.119,-0.014l-0.118,-0.014l-0.118,-0.014l-0.119,-0.015l-0.118,-0.016l-0.118,-0.015l-0.118,-0.016l-0.118,-0.016l-0.117,-0.017l-0.117,-0.017l-0.118,-0.017l-0.118,-0.018l-0.117,-0.018l-0.117,-0.019l-0.116,-0.019l-0.118,-0.019l-0.116,-0.019l-0.117,-0.02l-0.117,-0.021l-0.116,-0.02l-0.116,-0.021l-0.116,-0.021l-0.116,-0.022l-0.116,-0.022l-0.116,-0.023l-0.116,-0.022l-0.115,-0.024l-0.116,-0.023l-0.115,-0.024l-0.115,-0.024l-0.115,-0.024l-0.115,-0.025l-0.115,-0.025l-0.114,-0.026l-0.115,-0.026l-0.114,-0.026l-0.115,-0.027l-0.114,-0.027l-0.114,-0.027l-0.113,-0.027l-0.114,-0.029l-0.115,-0.028l-0.113,-0.029l-0.113,-0.029l-0.114,-0.029l-0.113,-0.03l-0.112,-0.03l-0.113,-0.03l-0.112,-0.031l-0.113,-0.031l-0.112,-0.031l-0.112,-0.032l-0.113,-0.032l-0.112,-0.032l-0.112,-0.033l-0.111,-0.033l-0.112,-0.034l-0.111,-0.033l-0.111,-0.034l-0.111,-0.035l-0.112,-0.034l-0.11,-0.035l-0.11,-0.036l-0.111,-0.036l-0.11,-0.036l-0.11,-0.036l-0.111,-0.037l-0.11,-0.037l-0.11,-0.037l-0.109,-0.038l-0.109,-0.038l-0.11,-0.038l-0.109,-0.039l-0.108,-0.039l-0.11,-0.039l-0.109,-0.04l-0.108,-0.04l-0.108,-0.04l-0.109,-0.041l-0.107,-0.04l-0.108,-0.042l-0.109,-0.041l-0.107,-0.042l-0.107,-0.042l-0.108,-0.043l-0.106,-0.043l-0.107,-0.042l-0.107,-0.044l-0.107,-0.044l-0.107,-0.044l-0.105,-0.045l-0.107,-0.044l-0.105,-0.045l-0.106,-0.045l-0.106,-0.046l-0.105,-0.046l-0.105,-0.046l-0.106,-0.047l-0.105,-0.047l-0.105,-0.047l-0.104,-0.048l-0.105,-0.048l-0.103,-0.047l-0.104,-0.049l-0.104,-0.049l-0.104,-0.049l-0.104,-0.049l-0.103,-0.05l-0.104,-0.05l-0.103,-0.05l-0.102,-0.05l-0.103,-0.052l-0.103,-0.051l-0.101,-0.051l-0.103,-0.052l-0.102,-0.052l-0.102,-0.052l-0.101,-0.053l-0.101,-0.053l-0.102,-0.053l-0.101,-0.053l-0.101,-0.054l-0.102,-0.055l-0.099,-0.054l-0.1,-0.055l-0.101,-0.055l-0.099,-0.055l-0.1,-0.056l-0.1,-0.056l-0.099,-0.056l-0.1,-0.057l-0.098,-0.056l-0.099,-0.057l-0.099,-0.057l-0.099,-0.058l-0.098,-0.058l-0.097,-0.058l-0.099,-0.059l-0.097,-0.059l-0.098,-0.059l-0.098,-0.059l-0.096,-0.059l-0.097,-0.06l-0.097,-0.061l-0.097,-0.061l-0.095,-0.06l-0.096,-0.061l-0.097,-0.062l-0.096,-0.061l-0.095,-0.062l-0.095,-0.061l-0.096,-0.064l-0.095,-0.063l-0.093,-0.062l-0.095,-0.063l-0.095,-0.064l-0.094,-0.064l-0.094,-0.064l-0.093,-0.064l-0.094,-0.065l-0.093,-0.065l-0.093,-0.065l-0.094,-0.066l-0.092,-0.065l-0.093,-0.066l-0.092,-0.066l-0.092,-0.067l-0.092,-0.066l-0.091,-0.067l-0.092,-0.068l-0.091,-0.068l-0.091,-0.067l-0.09,-0.068l-0.091,-0.069l-0.091,-0.069l-0.09,-0.069l-0.09,-0.069l-0.09,-0.07l-0.089,-0.069l-0.089,-0.07l-0.089,-0.07l-0.089,-0.07l-0.089,-0.071l-0.089,-0.072l-0.088,-0.071l-0.088,-0.071l-0.087,-0.072l-0.087,-0.072l-0.089,-0.073l-0.087,-0.073l-0.087,-0.072l-0.086,-0.073l-0.087,-0.074l-0.086,-0.073l-0.085,-0.073l-0.087,-0.075l-0.085,-0.074l-0.085,-0.074l-0.086,-0.075l-0.085,-0.076l-0.084,-0.075l-0.085,-0.076l-0.083,-0.075l-0.084,-0.076l-0.086,-0.078l-0.082,-0.076l-0.083,-0.076l-0.082,-0.077l-0.084,-0.077l-0.083,-0.078l-0.082,-0.078l-0.082,-0.078l-0.081,-0.078l-0.082,-0.079l-0.082,-0.079l-0.081,-0.079l-0.081,-0.079l-0.08,-0.079l-0.081,-0.08l-0.081,-0.08l-0.079,-0.08l-0.08,-0.081l-0.08,-0.081l-0.078,-0.08l-0.08,-0.081l-0.079,-0.082l-0.078,-0.081l-0.078,-0.083l-0.079,-0.082l-0.078,-0.082l-0.076,-0.082l-0.078,-0.083l-0.078,-0.084l-0.075,-0.082l-0.077,-0.084l-0.077,-0.084l-0.076,-0.084l-0.076,-0.085l-0.076,-0.084l-0.075,-0.084l-0.075,-0.085l-0.075,-0.085l-0.075,-0.086l-0.074,-0.086l-0.073,-0.084l-0.074,-0.086l-0.074,-0.087l-0.073,-0.086l-0.074,-0.087l-0.073,-0.087l-0.072,-0.087l-0.073,-0.088l-0.072,-0.087l-0.072,-0.088l-0.071,-0.088l-0.07,-0.087l-0.072,-0.089l-0.071,-0.09l-0.071,-0.089l-0.069,-0.087l-0.07,-0.09l-0.071,-0.091l-0.069,-0.089l-0.068,-0.089l-0.069,-0.09l-0.07,-0.092l-0.068,-0.09l-0.068,-0.091l-0.068,-0.091l-0.068,-0.091l-0.067,-0.091l-0.067,-0.092l-0.067,-0.091l-0.066,-0.092l-0.066,-0.092l-0.067,-0.094l-0.066,-0.093l-0.065,-0.092l-0.065,-0.093l-0.064,-0.093l-0.066,-0.095l-0.063,-0.092l-0.064,-0.093l-0.065,-0.096l-0.063,-0.094l-0.064,-0.095l-0.063,-0.095l-0.062,-0.094l-0.062,-0.095l-0.063,-0.095l-0.062,-0.097l-0.061,-0.095l-0.061,-0.095l-0.062,-0.098l-0.06,-0.095l-0.061,-0.096l-0.06,-0.097l-0.059,-0.096l-0.062,-0.1l-0.058,-0.097l-0.058,-0.095l-0.06,-0.099l-0.059,-0.098l-0.058,-0.098l-0.057,-0.098l-0.058,-0.099l-0.058,-0.1l-0.056,-0.096l-0.057,-0.1l-0.057,-0.1l-0.055,-0.097l-0.057,-0.101l-0.056,-0.1l-0.055,-0.101l-0.055,-0.099l-0.054,-0.1l-0.055,-0.101l-0.054,-0.1l-0.054,-0.102l-0.053,-0.1l-0.053,-0.1l-0.054,-0.104l-0.052,-0.101l-0.052,-0.101l-0.053,-0.102l-0.052,-0.103l-0.052,-0.104l-0.05,-0.101l-0.05,-0.101l-0.051,-0.104l-0.051,-0.104l-0.049,-0.102l-0.05,-0.104l-0.05,-0.104l-0.048,-0.102l-0.049,-0.105l-0.049,-0.105l-0.048,-0.103l-0.048,-0.105l-0.048,-0.105l-0.046,-0.103l-0.047,-0.106l-0.047,-0.105l-0.046,-0.104l-0.046,-0.106l-0.046,-0.106l-0.045,-0.106l-0.046,-0.107l-0.045,-0.106l-0.043,-0.105l-0.045,-0.107l-0.043,-0.107l-0.043,-0.105l-0.044,-0.109l-0.042,-0.106l-0.043,-0.107l-0.042,-0.108l-0.042,-0.108l-0.042,-0.108l-0.041,-0.106l-0.041,-0.11l-0.041,-0.108l-0.04,-0.107l-0.04,-0.109l-0.039,-0.108l-0.04,-0.109l-0.039,-0.11l-0.038,-0.109l-0.039,-0.109l-0.038,-0.11l-0.038,-0.109l-0.037,-0.11l-0.037,-0.11l-0.037,-0.11l-0.036,-0.11l-0.035,-0.108l-0.037,-0.113l-0.035,-0.111l-0.035,-0.11l-0.035,-0.113l-0.034,-0.109l-0.034,-0.111l-0.034,-0.111l-0.033,-0.111l-0.034,-0.114l-0.032,-0.112l-0.033,-0.111l-0.032,-0.112l-0.031,-0.112l-0.032,-0.112l-0.031,-0.112l-0.03,-0.113l-0.031,-0.114l-0.03,-0.113l-0.03,-0.112l-0.029,-0.113l-0.029,-0.113l-0.029,-0.115l-0.028,-0.113l-0.028,-0.114l-0.027,-0.113l-0.028,-0.115l-0.027,-0.114l-0.026,-0.114l-0.027,-0.116l-0.026,-0.114l-0.025,-0.114l-0.025,-0.114l-0.025,-0.114l-0.025,-0.116l-0.024,-0.115l-0.024,-0.117l-0.023,-0.114l-0.023,-0.115l-0.023,-0.117l-0.022,-0.115l-0.022,-0.117l-0.022,-0.115l-0.021,-0.116l-0.021,-0.117l-0.021,-0.116l-0.02,-0.115l-0.02,-0.118l-0.02,-0.118l-0.019,-0.116l-0.019,-0.116l-0.018,-0.118l-0.018,-0.116l-0.018,-0.119l-0.018,-0.118l-0.016,-0.115l-0.017,-0.118l-0.017,-0.119l-0.015,-0.117l-0.016,-0.119l-0.015,-0.119l-0.015,-0.117l-0.015,-0.119l-0.014,-0.119l-0.013,-0.116l-0.014,-0.119l-0.013,-0.12l-0.013,-0.119l-0.012,-0.12l-0.012,-0.118l-0.011,-0.118l-0.011,-0.12l-0.011,-0.12l-0.011,-0.118l-0.01,-0.12l-0.01,-0.12l-0.009,-0.121l-0.009,-0.12l-0.008,-0.119l-0.008,-0.118l-0.008,-0.123l-0.008,-0.121l-0.007,-0.116l-0.006,-0.121l-0.007,-0.124l-0.006,-0.121l-0.005,-0.119l-0.005,-0.119l-0.005,-0.123l-0.005,-0.122l-0.004,-0.119l-0.003,-0.122l-0.004,-0.121l-0.002,-0.122l-0.003,-0.122l-0.002,-0.119l-0.002,-0.122l-0.001,-0.124l-0.001,-0.12l-0.001,-0.122l0,-0.122l0,-0.122l0.001,-0.122l0.001,-0.12l0.001,-0.124l0.002,-0.122l0.002,-0.12l0.003,-0.121l0.002,-0.122l0.004,-0.122l0.003,-0.121l0.004,-0.12l0.005,-0.121l0.005,-0.123l0.005,-0.12l0.005,-0.119l0.006,-0.121l0.007,-0.123l0.006,-0.121l0.007,-0.116l0.008,-0.121l0.008,-0.123l0.008,-0.119l0.008,-0.118l0.009,-0.12l0.009,-0.121l0.01,-0.12l0.01,-0.121l0.011,-0.118l0.011,-0.12l0.011,-0.12l0.011,-0.117l0.012,-0.118l0.012,-0.12l0.013,-0.12l0.013,-0.119l0.014,-0.12l0.013,-0.115l0.014,-0.119l0.015,-0.119l0.015,-0.117l0.015,-0.119l0.016,-0.119l0.015,-0.117l0.017,-0.119l0.017,-0.119l0.016,-0.114l0.018,-0.119l0.018,-0.118l0.018,-0.116l0.018,-0.118l0.019,-0.116l0.019,-0.116l0.02,-0.118l0.02,-0.118l0.02,-0.116l0.021,-0.115l0.021,-0.118l0.021,-0.115l0.021,-0.115l0.023,-0.117l0.022,-0.115l0.023,-0.117l0.023,-0.115l0.023,-0.115l0.024,-0.116l0.024,-0.115l0.025,-0.116l0.025,-0.115l0.025,-0.114l0.025,-0.114l0.026,-0.114l0.027,-0.116l0.026,-0.113l0.027,-0.114l0.028,-0.115l0.027,-0.114l0.028,-0.113l0.028,-0.113l0.029,-0.115l0.029,-0.113l0.029,-0.113l0.03,-0.113l0.03,-0.112l0.031,-0.115l0.03,-0.112l0.031,-0.112l0.032,-0.112l0.031,-0.112l0.032,-0.112l0.033,-0.112l0.032,-0.111l0.034,-0.114l0.033,-0.111l0.034,-0.111l0.034,-0.111l0.034,-0.109l0.035,-0.113l0.035,-0.111l0.035,-0.11l0.037,-0.113l0.035,-0.108l0.036,-0.11l0.037,-0.11l0.037,-0.11l0.038,-0.11l0.037,-0.109l0.038,-0.11l0.039,-0.109l0.038,-0.11l0.039,-0.109l0.04,-0.109l0.039,-0.109l0.04,-0.108l0.04,-0.107l0.041,-0.108l0.041,-0.11l0.041,-0.106l0.042,-0.109l0.042,-0.107l0.042,-0.108l0.043,-0.108l0.042,-0.105l0.044,-0.109l0.043,-0.105l0.043,-0.107l0.045,-0.107l0.044,-0.105l0.044,-0.107l0.046,-0.106l0.045,-0.106l0.046,-0.106l0.046,-0.106l0.046,-0.104l0.047,-0.105l0.047,-0.106l0.046,-0.103l0.048,-0.106l0.048,-0.105l0.048,-0.103l0.048,-0.104l0.05,-0.105l0.048,-0.102l0.05,-0.104l0.05,-0.104l0.049,-0.102l0.051,-0.104l0.05,-0.104l0.051,-0.101l0.05,-0.102l0.052,-0.103l0.052,-0.103l0.053,-0.102l0.052,-0.101l0.052,-0.101l0.054,-0.104l0.053,-0.1l0.053,-0.1l0.054,-0.102l0.054,-0.1l0.055,-0.101l0.054,-0.1l0.055,-0.099l0.055,-0.101l0.057,-0.101l0.056,-0.1l0.055,-0.097l0.057,-0.1l0.057,-0.1l0.056,-0.096l0.058,-0.1l0.058,-0.1l0.057,-0.097l0.058,-0.098l0.059,-0.099l0.06,-0.098l0.058,-0.096l0.058,-0.096l0.062,-0.1l0.059,-0.097l0.06,-0.096l0.061,-0.096l0.06,-0.096l0.062,-0.097l0.061,-0.095l0.061,-0.096l0.063,-0.096l0.062,-0.095l0.062,-0.095l0.062,-0.094l0.063,-0.095l0.064,-0.096l0.063,-0.094l0.065,-0.095l0.064,-0.094l0.063,-0.091l0.065,-0.095l0.065,-0.093l0.065,-0.093l0.065,-0.093l0.066,-0.092l0.067,-0.094l0.066,-0.092l0.066,-0.092l0.067,-0.092l0.067,-0.091l0.067,-0.091l0.068,-0.091l0.068,-0.092l0.068,-0.09l0.068,-0.091l0.07,-0.091l0.069,-0.09l0.068,-0.089l0.069,-0.09l0.071,-0.091l0.07,-0.089l0.069,-0.087l0.071,-0.09l0.071,-0.09l0.072,-0.088l0.07,-0.087l0.071,-0.088l0.072,-0.088l0.072,-0.087l0.073,-0.088l0.072,-0.087l0.073,-0.087l0.074,-0.087l0.073,-0.086l0.073,-0.087l0.075,-0.086l0.073,-0.085l0.074,-0.086l0.075,-0.085l0.075,-0.085l0.076,-0.086l0.074,-0.083l0.076,-0.085l0.076,-0.084l0.076,-0.084l0.077,-0.084l0.076,-0.084l0.076,-0.082l0.078,-0.084l0.078,-0.083l0.076,-0.082l0.078,-0.082l0.079,-0.083l0.078,-0.082l0.078,-0.081l0.079,-0.081l0.079,-0.082l0.079,-0.081l0.08,-0.08l0.08,-0.081l0.079,-0.08l0.081,-0.08l0.081,-0.08l0.08,-0.079l0.081,-0.08l0.081,-0.078l0.082,-0.079l0.081,-0.079l0.082,-0.078l0.083,-0.079l0.081,-0.077l0.083,-0.078l0.084,-0.078l0.082,-0.076l0.083,-0.077l0.082,-0.075l0.086,-0.078l0.084,-0.076l0.083,-0.075l0.085,-0.076l0.084,-0.075l0.085,-0.076l0.086,-0.075l0.085,-0.074l0.085,-0.074l0.087,-0.075l0.085,-0.074l0.086,-0.073l0.087,-0.074l0.087,-0.072l0.085,-0.072l0.088,-0.074l0.089,-0.073l0.087,-0.072l0.087,-0.071l0.088,-0.071l0.088,-0.071l0.089,-0.072l0.089,-0.071l0.089,-0.07l0.089,-0.07l0.089,-0.07l0.089,-0.07l0.09,-0.07l0.09,-0.069l0.09,-0.069l0.091,-0.069l0.09,-0.068l0.091,-0.068l0.091,-0.068l0.091,-0.067l0.092,-0.068l0.092,-0.067l0.091,-0.066l0.092,-0.067l0.092,-0.066l0.092,-0.066l0.093,-0.066l0.094,-0.066l0.093,-0.065l0.093,-0.065l0.094,-0.064l0.093,-0.064l0.094,-0.064l0.094,-0.064l0.095,-0.064l0.095,-0.064l0.093,-0.062l0.095,-0.062l0.096,-0.064l0.096,-0.062l0.094,-0.061l0.096,-0.062l0.097,-0.062l0.096,-0.061l0.095,-0.06l0.096,-0.06l0.098,-0.061l0.098,-0.06l0.095,-0.059l0.097,-0.059l0.098,-0.059l0.098,-0.059l0.099,-0.06l0.097,-0.057l0.097,-0.057l0.1,-0.059l0.099,-0.057l0.099,-0.058l0.098,-0.056l0.099,-0.056l0.1,-0.057l0.1,-0.056l0.1,-0.055l0.099,-0.055l0.101,-0.056l0.1,-0.054l0.099,-0.054l0.102,-0.055l0.101,-0.054l0.101,-0.053l0.102,-0.053l0.101,-0.053l0.101,-0.053l0.102,-0.052l0.102,-0.053l0.102,-0.051l0.102,-0.051l0.103,-0.052l0.103,-0.051l0.102,-0.05l0.104,-0.05l0.102,-0.05l0.104,-0.05l0.104,-0.05l0.104,-0.049l0.104,-0.048l0.104,-0.049l0.104,-0.048l0.104,-0.048l0.104,-0.047l0.106,-0.047l0.105,-0.047l0.104,-0.047l0.106,-0.046l0.105,-0.046l0.106,-0.046l0.106,-0.045l0.105,-0.045l0.107,-0.045l0.105,-0.044l0.107,-0.044l0.107,-0.044l0.107,-0.044l0.107,-0.043l0.107,-0.043l0.107,-0.042l0.107,-0.042l0.107,-0.042l0.108,-0.041l0.109,-0.042l0.107,-0.04l0.109,-0.041l0.109,-0.041l0.107,-0.039l0.109,-0.04l0.109,-0.04l0.109,-0.038l0.109,-0.039l0.11,-0.039l0.109,-0.038l0.11,-0.037l0.109,-0.037l0.109,-0.037l0.112,-0.037l0.11,-0.037l0.11,-0.036l0.111,-0.035l0.11,-0.036l0.11,-0.035l0.112,-0.035l0.111,-0.034l0.111,-0.034l0.112,-0.034l0.111,-0.033l0.111,-0.033l0.112,-0.033l0.112,-0.032l0.113,-0.032l0.112,-0.032l0.111,-0.031l0.114,-0.032l0.112,-0.03l0.113,-0.031l0.113,-0.03l0.112,-0.029l0.114,-0.03l0.113,-0.029l0.113,-0.028l0.115,-0.029l0.114,-0.028l0.113,-0.027l0.114,-0.027l0.114,-0.027l0.115,-0.027l0.114,-0.026l0.115,-0.026l0.114,-0.026l0.115,-0.025l0.114,-0.025l0.116,-0.024l0.115,-0.024l0.115,-0.024l0.116,-0.024l0.116,-0.023l0.115,-0.023l0.116,-0.022l0.115,-0.022l0.117,-0.022l0.116,-0.021l0.115,-0.021l0.117,-0.021l0.117,-0.02l0.117,-0.02l0.116,-0.019l0.118,-0.02l0.116,-0.018l0.117,-0.019l0.117,-0.018l0.118,-0.018l0.117,-0.017l0.118,-0.017l0.118,-0.017l0.117,-0.016l0.118,-0.016l0.118,-0.016l0.119,-0.015l0.117,-0.015l0.119,-0.014l0.118,-0.014l0.119,-0.014l0.118,-0.014l0.12,-0.013l0.118,-0.012l0.119,-0.012l0.119,-0.012l0.119,-0.012l0.12,-0.011l0.119,-0.011l0.119,-0.01l0.12,-0.01l0.12,-0.01l0.12,-0.009l0.119,-0.009l0.12,-0.009l0.12,-0.008l0.12,-0.008l0.121,-0.007l0.12,-0.007l0.121,-0.007l0.12,-0.006l0.12,-0.006l0.121,-0.006l0.121,-0.005l0.121,-0.005l0.121,-0.004l0.121,-0.004l0.122,-0.004l0.121,-0.003l0.121,-0.003l0.121,-0.003l0.122,-0.002l0.122,-0.002l0.122,-0.001l0.121,-0.001l0.121,0l0.123,-0.001l0.122,0.001Zm-0.232,4l-0.109,0l-0.109,0.001l-0.109,0.001l-0.109,0.002l-0.109,0.002l-0.108,0.002l-0.109,0.002l-0.109,0.003l-0.108,0.004l-0.108,0.003l-0.109,0.004l-0.108,0.004l-0.108,0.005l-0.108,0.005l-0.108,0.005l-0.108,0.006l-0.108,0.006l-0.108,0.006l-0.107,0.007l-0.108,0.007l-0.107,0.007l-0.108,0.008l-0.107,0.008l-0.107,0.008l-0.107,0.009l-0.107,0.009l-0.107,0.009l-0.107,0.01l-0.106,0.01l-0.107,0.01l-0.106,0.011l-0.107,0.011l-0.106,0.011l-0.106,0.012l-0.106,0.012l-0.106,0.012l-0.106,0.013l-0.106,0.013l-0.106,0.013l-0.105,0.014l-0.106,0.014l-0.105,0.014l-0.106,0.014l-0.105,0.015l-0.105,0.016l-0.105,0.015l-0.105,0.016l-0.104,0.016l-0.105,0.017l-0.105,0.017l-0.104,0.017l-0.104,0.017l-0.105,0.018l-0.104,0.018l-0.104,0.019l-0.104,0.018l-0.104,0.019l-0.103,0.02l-0.104,0.019l-0.103,0.02l-0.104,0.021l-0.103,0.02l-0.103,0.021l-0.103,0.022l-0.103,0.021l-0.103,0.022l-0.102,0.022l-0.103,0.023l-0.102,0.023l-0.103,0.023l-0.102,0.023l-0.102,0.024l-0.102,0.024l-0.102,0.025l-0.102,0.024l-0.101,0.025l-0.102,0.025l-0.101,0.026l-0.101,0.026l-0.101,0.026l-0.101,0.027l-0.101,0.027l-0.101,0.027l-0.101,0.027l-0.1,0.028l-0.101,0.028l-0.1,0.028l-0.1,0.029l-0.1,0.029l-0.1,0.029l-0.1,0.03l-0.099,0.029l-0.1,0.03l-0.099,0.031l-0.099,0.031l-0.099,0.031l-0.099,0.031l-0.099,0.032l-0.099,0.032l-0.099,0.032l-0.098,0.032l-0.098,0.033l-0.099,0.033l-0.098,0.033l-0.097,0.034l-0.098,0.034l-0.098,0.034l-0.097,0.035l-0.098,0.035l-0.097,0.035l-0.097,0.035l-0.097,0.036l-0.097,0.036l-0.097,0.036l-0.096,0.037l-0.096,0.037l-0.097,0.037l-0.096,0.037l-0.096,0.038l-0.096,0.038l-0.095,0.038l-0.096,0.039l-0.095,0.038l-0.095,0.04l-0.096,0.039l-0.095,0.04l-0.094,0.04l-0.095,0.04l-0.095,0.04l-0.094,0.041l-0.094,0.041l-0.094,0.042l-0.094,0.041l-0.094,0.042l-0.093,0.042l-0.094,0.043l-0.093,0.043l-0.093,0.043l-0.093,0.043l-0.093,0.043l-0.093,0.044l-0.093,0.044l-0.092,0.045l-0.092,0.044l-0.092,0.045l-0.092,0.045l-0.092,0.046l-0.092,0.046l-0.091,0.046l-0.091,0.046l-0.092,0.046l-0.091,0.047l-0.09,0.047l-0.091,0.048l-0.091,0.047l-0.09,0.048l-0.09,0.048l-0.09,0.049l-0.09,0.048l-0.09,0.049l-0.089,0.049l-0.09,0.05l-0.089,0.05l-0.089,0.05l-0.089,0.05l-0.088,0.05l-0.089,0.051l-0.088,0.051l-0.088,0.051l-0.088,0.052l-0.088,0.052l-0.088,0.052l-0.087,0.052l-0.088,0.053l-0.087,0.052l-0.087,0.053l-0.087,0.054l-0.086,0.053l-0.087,0.054l-0.086,0.054l-0.086,0.055l-0.086,0.054l-0.086,0.055l-0.086,0.055l-0.085,0.055l-0.085,0.056l-0.086,0.056l-0.084,0.056l-0.085,0.056l-0.085,0.057l-0.084,0.057l-0.084,0.057l-0.084,0.057l-0.084,0.058l-0.084,0.058l-0.083,0.058l-0.083,0.058l-0.084,0.058l-0.082,0.059l-0.083,0.059l-0.083,0.06l-0.082,0.059l-0.082,0.06l-0.082,0.06l-0.082,0.06l-0.082,0.061l-0.081,0.06l-0.081,0.061l-0.081,0.061l-0.081,0.062l-0.081,0.061l-0.08,0.062l-0.081,0.063l-0.08,0.062l-0.08,0.062l-0.079,0.063l-0.08,0.063l-0.079,0.064l-0.079,0.063l-0.079,0.064l-0.079,0.064l-0.078,0.064l-0.079,0.065l-0.078,0.064l-0.078,0.065l-0.078,0.066l-0.077,0.065l-0.078,0.066l-0.077,0.065l-0.077,0.066l-0.076,0.067l-0.077,0.066l-0.076,0.067l-0.076,0.067l-0.076,0.067l-0.076,0.068l-0.076,0.067l-0.075,0.068l-0.075,0.068l-0.075,0.068l-0.075,0.069l-0.074,0.069l-0.075,0.069l-0.074,0.069l-0.074,0.069l-0.073,0.07l-0.074,0.07l-0.073,0.07l-0.073,0.07l-0.073,0.071l-0.073,0.07l-0.072,0.071l-0.072,0.071l-0.072,0.072l-0.072,0.071l-0.072,0.072l-0.071,0.072l-0.071,0.072l-0.071,0.073l-0.071,0.072l-0.07,0.073l-0.07,0.073l-0.07,0.074l-0.07,0.073l-0.07,0.074l-0.069,0.074l-0.07,0.074l-0.069,0.074l-0.068,0.075l-0.069,0.074l-0.068,0.075l-0.068,0.075l-0.068,0.076l-0.068,0.075l-0.067,0.076l-0.067,0.076l-0.067,0.076l-0.067,0.076l-0.067,0.077l-0.066,0.077l-0.066,0.077l-0.066,0.077l-0.065,0.077l-0.066,0.078l-0.065,0.077l-0.065,0.078l-0.065,0.079l-0.064,0.078l-0.064,0.078l-0.064,0.079l-0.064,0.079l-0.064,0.079l-0.063,0.08l-0.063,0.079l-0.063,0.08l-0.062,0.08l-0.063,0.08l-0.062,0.08l-0.062,0.08l-0.062,0.081l-0.061,0.081l-0.061,0.081l-0.061,0.081l-0.061,0.082l-0.06,0.081l-0.061,0.082l-0.06,0.082l-0.059,0.082l-0.06,0.083l-0.059,0.082l-0.059,0.083l-0.059,0.083l-0.058,0.083l-0.059,0.083l-0.058,0.084l-0.058,0.083l-0.057,0.084l-0.057,0.084l-0.058,0.084l-0.056,0.085l-0.057,0.084l-0.056,0.085l-0.056,0.085l-0.056,0.085l-0.056,0.085l-0.055,0.086l-0.055,0.085l-0.055,0.086l-0.055,0.086l-0.054,0.086l-0.054,0.086l-0.054,0.087l-0.054,0.086l-0.053,0.087l-0.053,0.087l-0.053,0.087l-0.052,0.088l-0.053,0.087l-0.052,0.088l-0.051,0.088l-0.052,0.088l-0.051,0.088l-0.051,0.088l-0.051,0.089l-0.05,0.089l-0.051,0.089l-0.05,0.089l-0.049,0.089l-0.05,0.089l-0.049,0.09l-0.049,0.089l-0.049,0.09l-0.048,0.09l-0.048,0.09l-0.048,0.091l-0.048,0.09l-0.047,0.091l-0.047,0.091l-0.047,0.091l-0.046,0.091l-0.047,0.091l-0.046,0.092l-0.045,0.091l-0.046,0.092l-0.045,0.092l-0.045,0.092l-0.045,0.092l-0.044,0.093l-0.044,0.092l-0.044,0.093l-0.043,0.093l-0.044,0.093l-0.043,0.093l-0.042,0.093l-0.043,0.094l-0.042,0.093l-0.042,0.094l-0.042,0.094l-0.041,0.094l-0.041,0.094l-0.041,0.095l-0.04,0.094l-0.041,0.095l-0.04,0.095l-0.039,0.095l-0.04,0.095l-0.039,0.095l-0.039,0.095l-0.038,0.096l-0.038,0.096l-0.038,0.096l-0.038,0.096l-0.038,0.096l-0.037,0.096l-0.037,0.096l-0.036,0.097l-0.036,0.096l-0.036,0.097l-0.036,0.097l-0.035,0.097l-0.036,0.098l-0.034,0.097l-0.035,0.097l-0.034,0.098l-0.034,0.098l-0.034,0.098l-0.033,0.098l-0.033,0.098l-0.033,0.098l-0.033,0.099l-0.032,0.098l-0.032,0.099l-0.031,0.099l-0.032,0.099l-0.031,0.099l-0.03,0.099l-0.031,0.1l-0.03,0.099l-0.03,0.1l-0.029,0.099l-0.03,0.1l-0.028,0.1l-0.029,0.1l-0.028,0.101l-0.028,0.1l-0.028,0.101l-0.028,0.1l-0.027,0.101l-0.027,0.101l-0.026,0.101l-0.026,0.101l-0.026,0.101l-0.026,0.102l-0.025,0.101l-0.025,0.102l-0.025,0.101l-0.024,0.102l-0.024,0.102l-0.024,0.102l-0.023,0.103l-0.024,0.102l-0.022,0.102l-0.023,0.103l-0.022,0.103l-0.022,0.102l-0.022,0.103l-0.021,0.103l-0.021,0.103l-0.02,0.104l-0.021,0.103l-0.02,0.104l-0.02,0.103l-0.019,0.104l-0.019,0.104l-0.019,0.103l-0.018,0.105l-0.018,0.104l-0.018,0.104l-0.018,0.104l-0.017,0.105l-0.017,0.104l-0.016,0.105l-0.016,0.105l-0.016,0.105l-0.016,0.105l-0.015,0.105l-0.015,0.105l-0.014,0.105l-0.015,0.105l-0.014,0.106l-0.013,0.106l-0.014,0.105l-0.012,0.106l-0.013,0.106l-0.012,0.106l-0.012,0.106l-0.012,0.106l-0.011,0.107l-0.011,0.106l-0.011,0.106l-0.01,0.107l-0.01,0.107l-0.01,0.106l-0.009,0.107l-0.009,0.107l-0.009,0.107l-0.008,0.108l-0.008,0.107l-0.008,0.107l-0.007,0.108l-0.007,0.107l-0.007,0.108l-0.006,0.107l-0.006,0.108l-0.006,0.108l-0.005,0.108l-0.005,0.108l-0.005,0.108l-0.004,0.108l-0.004,0.109l-0.004,0.108l-0.003,0.109l-0.003,0.108l-0.002,0.109l-0.003,0.109l-0.002,0.109l-0.001,0.108l-0.001,0.109l-0.001,0.109l-0.001,0.11l0,0.109l0,0.109l0.001,0.109l0.001,0.109l0.001,0.109l0.001,0.109l0.002,0.109l0.003,0.109l0.002,0.108l0.003,0.109l0.003,0.109l0.004,0.108l0.004,0.108l0.004,0.109l0.005,0.108l0.005,0.108l0.005,0.108l0.006,0.108l0.006,0.107l0.006,0.108l0.007,0.108l0.007,0.107l0.007,0.108l0.008,0.107l0.008,0.107l0.008,0.107l0.009,0.107l0.009,0.107l0.009,0.107l0.01,0.107l0.01,0.107l0.01,0.106l0.011,0.107l0.011,0.106l0.011,0.107l0.012,0.106l0.012,0.106l0.012,0.106l0.013,0.106l0.012,0.106l0.014,0.105l0.013,0.106l0.014,0.105l0.015,0.106l0.014,0.105l0.015,0.105l0.015,0.105l0.016,0.105l0.016,0.105l0.016,0.105l0.016,0.105l0.017,0.104l0.017,0.105l0.018,0.104l0.018,0.104l0.018,0.104l0.018,0.104l0.019,0.104l0.019,0.104l0.019,0.104l0.02,0.103l0.02,0.104l0.021,0.103l0.02,0.103l0.021,0.103l0.021,0.103l0.022,0.103l0.022,0.103l0.022,0.103l0.023,0.102l0.022,0.103l0.024,0.102l0.023,0.102l0.024,0.102l0.024,0.102l0.024,0.102l0.025,0.102l0.025,0.102l0.025,0.101l0.026,0.101l0.026,0.102l0.026,0.101l0.026,0.101l0.027,0.101l0.027,0.101l0.028,0.1l0.028,0.101l0.028,0.1l0.028,0.1l0.029,0.1l0.028,0.1l0.03,0.1l0.029,0.1l0.03,0.1l0.03,0.099l0.031,0.1l0.03,0.099l0.031,0.099l0.032,0.099l0.031,0.099l0.032,0.098l0.032,0.099l0.033,0.098l0.033,0.099l0.033,0.098l0.033,0.098l0.034,0.098l0.034,0.098l0.034,0.097l0.035,0.098l0.034,0.097l0.036,0.097l0.035,0.098l0.036,0.096l0.036,0.097l0.036,0.097l0.036,0.097l0.037,0.096l0.037,0.096l0.038,0.096l0.038,0.096l0.038,0.096l0.038,0.096l0.038,0.095l0.039,0.096l0.039,0.095l0.04,0.095l0.039,0.095l0.04,0.095l0.041,0.094l0.04,0.095l0.041,0.094l0.041,0.095l0.041,0.094l0.042,0.094l0.042,0.093l0.042,0.094l0.043,0.093l0.042,0.094l0.043,0.093l0.044,0.093l0.043,0.093l0.044,0.093l0.044,0.092l0.044,0.092l0.045,0.093l0.045,0.092l0.045,0.092l0.046,0.092l0.045,0.091l0.046,0.092l0.047,0.091l0.046,0.091l0.047,0.091l0.047,0.091l0.047,0.091l0.048,0.09l0.048,0.09l0.048,0.091l0.048,0.09l0.049,0.089l0.049,0.09l0.049,0.09l0.05,0.089l0.049,0.089l0.05,0.089l0.051,0.089l0.05,0.089l0.051,0.088l0.051,0.089l0.051,0.088l0.052,0.088l0.051,0.088l0.052,0.087l0.053,0.088l0.052,0.087l0.053,0.087l0.053,0.087l0.053,0.087l0.054,0.087l0.054,0.086l0.054,0.087l0.054,0.086l0.055,0.086l0.055,0.086l0.055,0.085l0.055,0.086l0.056,0.085l0.056,0.085l0.056,0.085l0.056,0.085l0.057,0.084l0.056,0.085l0.058,0.084l0.057,0.084l0.057,0.084l0.058,0.083l0.058,0.084l0.059,0.083l0.058,0.083l0.059,0.083l0.059,0.083l0.059,0.082l0.06,0.083l0.059,0.082l0.06,0.082l0.061,0.081l0.06,0.082l0.061,0.082l0.061,0.081l0.061,0.081l0.061,0.081l0.062,0.08l0.062,0.081l0.062,0.08l0.063,0.08l0.062,0.08l0.063,0.08l0.063,0.079l0.063,0.08l0.064,0.079l0.064,0.079l0.064,0.078l0.064,0.079l0.064,0.078l0.065,0.078l0.065,0.078l0.065,0.078l0.066,0.078l0.065,0.077l0.066,0.077l0.066,0.077l0.066,0.077l0.067,0.076l0.067,0.077l0.067,0.076l0.067,0.076l0.067,0.076l0.068,0.075l0.068,0.075l0.068,0.076l0.068,0.075l0.069,0.074l0.068,0.075l0.069,0.074l0.07,0.074l0.069,0.074l0.07,0.074l0.07,0.073l0.07,0.073l0.07,0.074l0.07,0.072l0.071,0.073l0.071,0.072l0.071,0.073l0.071,0.072l0.072,0.071l0.072,0.072l0.072,0.071l0.072,0.071l0.072,0.071l0.073,0.071l0.073,0.071l0.073,0.07l0.073,0.07l0.074,0.07l0.073,0.069l0.074,0.07l0.074,0.069l0.075,0.069l0.074,0.069l0.075,0.068l0.075,0.069l0.075,0.068l0.075,0.068l0.076,0.067l0.076,0.068l0.076,0.067l0.076,0.067l0.076,0.067l0.077,0.066l0.076,0.066l0.077,0.066l0.077,0.066l0.078,0.066l0.077,0.065l0.078,0.065l0.078,0.065l0.078,0.065l0.079,0.064l0.078,0.065l0.079,0.064l0.079,0.064l0.079,0.063l0.079,0.063l0.08,0.063l0.079,0.063l0.08,0.063l0.08,0.062l0.081,0.062l0.08,0.062l0.081,0.062l0.081,0.061l0.081,0.062l0.081,0.061l0.081,0.06l0.082,0.061l0.082,0.06l0.082,0.06l0.082,0.06l0.082,0.059l0.083,0.06l0.083,0.059l0.082,0.058l0.084,0.059l0.083,0.058l0.083,0.058l0.084,0.058l0.084,0.058l0.084,0.057l0.084,0.057l0.084,0.057l0.085,0.056l0.085,0.057l0.084,0.056l0.086,0.056l0.085,0.055l0.085,0.056l0.086,0.055l0.086,0.055l0.086,0.054l0.086,0.055l0.086,0.054l0.087,0.053l0.086,0.054l0.087,0.053l0.087,0.053l0.087,0.053l0.088,0.053l0.087,0.052l0.088,0.052l0.088,0.052l0.088,0.051l0.088,0.052l0.088,0.051l0.089,0.05l0.088,0.051l0.089,0.05l0.089,0.05l0.089,0.05l0.09,0.049l0.089,0.05l0.09,0.048l0.09,0.049l0.09,0.048l0.09,0.049l0.09,0.047l0.091,0.048l0.091,0.047l0.09,0.048l0.091,0.046l0.092,0.047l0.091,0.046l0.091,0.046l0.092,0.046l0.092,0.045l0.092,0.045l0.092,0.045l0.092,0.045l0.092,0.044l0.093,0.045l0.093,0.043l0.093,0.044l0.093,0.043l0.093,0.043l0.093,0.043l0.094,0.042l0.093,0.043l0.094,0.042l0.094,0.041l0.094,0.042l0.094,0.041l0.094,0.04l0.095,0.041l0.095,0.04l0.094,0.04l0.095,0.04l0.096,0.039l0.095,0.039l0.095,0.039l0.096,0.039l0.095,0.038l0.096,0.038l0.096,0.038l0.096,0.037l0.097,0.037l0.096,0.037l0.096,0.037l0.097,0.036l0.097,0.036l0.097,0.036l0.097,0.035l0.097,0.035l0.098,0.035l0.097,0.034l0.098,0.035l0.098,0.034l0.097,0.033l0.098,0.034l0.099,0.033l0.098,0.033l0.098,0.032l0.099,0.032l0.099,0.032l0.099,0.032l0.099,0.031l0.099,0.031l0.099,0.031l0.099,0.03l0.1,0.03l0.099,0.03l0.1,0.03l0.1,0.029l0.1,0.029l0.1,0.029l0.1,0.028l0.101,0.028l0.1,0.028l0.101,0.027l0.101,0.027l0.101,0.027l0.101,0.027l0.101,0.026l0.101,0.026l0.101,0.025l0.102,0.026l0.101,0.025l0.102,0.024l0.102,0.025l0.102,0.024l0.102,0.023l0.102,0.024l0.103,0.023l0.102,0.023l0.103,0.022l0.102,0.023l0.103,0.022l0.103,0.021l0.103,0.021l0.103,0.021l0.103,0.021l0.104,0.02l0.103,0.02l0.104,0.02l0.103,0.019l0.104,0.019l0.104,0.019l0.104,0.019l0.104,0.018l0.105,0.018l0.104,0.017l0.104,0.017l0.105,0.017l0.105,0.017l0.104,0.016l0.105,0.016l0.105,0.015l0.105,0.015l0.105,0.015l0.106,0.015l0.105,0.014l0.106,0.014l0.105,0.014l0.106,0.013l0.106,0.013l0.106,0.013l0.106,0.012l0.106,0.012l0.106,0.011l0.106,0.012l0.107,0.011l0.106,0.01l0.107,0.011l0.106,0.01l0.107,0.009l0.107,0.01l0.107,0.009l0.107,0.008l0.107,0.009l0.107,0.008l0.108,0.007l0.107,0.008l0.108,0.007l0.107,0.006l0.108,0.007l0.108,0.006l0.108,0.005l0.108,0.006l0.108,0.005l0.108,0.004l0.108,0.005l0.109,0.004l0.108,0.003l0.108,0.003l0.109,0.003l0.109,0.003l0.108,0.002l0.109,0.002l0.109,0.002l0.109,0.001l0.109,0.001l0.109,0l0.11,0l0.109,0l0.109,0l0.109,-0.001l0.109,-0.001l0.109,-0.002l0.109,-0.002l0.109,-0.002l0.108,-0.003l0.109,-0.003l0.108,-0.003l0.109,-0.003l0.108,-0.004l0.108,-0.005l0.108,-0.004l0.108,-0.005l0.108,-0.006l0.108,-0.005l0.108,-0.006l0.108,-0.007l0.107,-0.006l0.108,-0.007l0.107,-0.008l0.108,-0.007l0.107,-0.008l0.107,-0.009l0.107,-0.008l0.107,-0.009l0.107,-0.01l0.107,-0.009l0.106,-0.01l0.107,-0.011l0.107,-0.01l0.106,-0.011l0.106,-0.012l0.106,-0.011l0.106,-0.012l0.106,-0.012l0.106,-0.013l0.106,-0.013l0.106,-0.013l0.105,-0.014l0.106,-0.014l0.105,-0.014l0.106,-0.015l0.105,-0.015l0.105,-0.015l0.105,-0.015l0.105,-0.016l0.105,-0.016l0.104,-0.017l0.105,-0.017l0.104,-0.017l0.105,-0.017l0.104,-0.018l0.104,-0.018l0.104,-0.019l0.104,-0.019l0.104,-0.019l0.103,-0.019l0.104,-0.02l0.103,-0.02l0.104,-0.02l0.103,-0.021l0.103,-0.021l0.103,-0.021l0.103,-0.021l0.103,-0.022l0.103,-0.023l0.102,-0.022l0.103,-0.023l0.102,-0.023l0.102,-0.024l0.102,-0.023l0.102,-0.024l0.102,-0.025l0.102,-0.024l0.101,-0.025l0.102,-0.026l0.101,-0.025l0.101,-0.026l0.102,-0.026l0.101,-0.027l0.1,-0.027l0.101,-0.027l0.101,-0.027l0.1,-0.028l0.101,-0.028l0.1,-0.028l0.1,-0.029l0.1,-0.029l0.1,-0.029l0.1,-0.03l0.099,-0.03l0.1,-0.03l0.099,-0.03l0.1,-0.031l0.099,-0.031l0.099,-0.031l0.098,-0.032l0.099,-0.032l0.099,-0.032l0.098,-0.032l0.098,-0.033l0.099,-0.033l0.098,-0.034l0.098,-0.033l0.097,-0.034l0.098,-0.035l0.098,-0.034l0.097,-0.035l0.097,-0.035l0.097,-0.035l0.097,-0.036l0.097,-0.036l0.097,-0.036l0.096,-0.037l0.097,-0.037l0.096,-0.037l0.096,-0.037l0.096,-0.038l0.096,-0.038l0.095,-0.038l0.096,-0.039l0.095,-0.039l0.096,-0.039l0.095,-0.039l0.095,-0.04l0.094,-0.04l0.095,-0.04l0.095,-0.041l0.094,-0.04l0.094,-0.041l0.094,-0.042l0.094,-0.041l0.094,-0.042l0.094,-0.043l0.093,-0.042l0.093,-0.043l0.094,-0.043l0.093,-0.043l0.092,-0.044l0.093,-0.043l0.093,-0.045l0.092,-0.044l0.092,-0.045l0.092,-0.045l0.092,-0.045l0.092,-0.045l0.092,-0.046l0.091,-0.046l0.092,-0.046l0.091,-0.047l0.091,-0.046l0.091,-0.048l0.09,-0.047l0.091,-0.048l0.09,-0.047l0.09,-0.049l0.09,-0.048l0.09,-0.049l0.09,-0.048l0.089,-0.05l0.09,-0.049l0.089,-0.05l0.089,-0.05l0.089,-0.05l0.088,-0.051l0.089,-0.05l0.088,-0.051l0.089,-0.052l0.088,-0.051l0.087,-0.052l0.088,-0.052l0.088,-0.052l0.087,-0.053l0.087,-0.053l0.087,-0.053l0.087,-0.053l0.087,-0.054l0.086,-0.053l0.086,-0.054l0.087,-0.055l0.086,-0.054l0.085,-0.055l0.086,-0.055l0.085,-0.056l0.086,-0.055l0.085,-0.056l0.085,-0.056l0.084,-0.057l0.085,-0.056l0.084,-0.057l0.084,-0.057l0.084,-0.057l0.084,-0.058l0.084,-0.058l0.083,-0.058l0.084,-0.058l0.083,-0.059l0.083,-0.058l0.082,-0.059l0.083,-0.06l0.082,-0.059l0.082,-0.06l0.082,-0.06l0.082,-0.06l0.082,-0.061l0.081,-0.06l0.081,-0.061l0.081,-0.062l0.081,-0.061l0.081,-0.062l0.08,-0.062l0.081,-0.062l0.08,-0.062l0.08,-0.063l0.079,-0.063l0.08,-0.063l0.079,-0.063l0.079,-0.063l0.079,-0.064l0.079,-0.064l0.079,-0.065l0.078,-0.064l0.078,-0.065l0.078,-0.065l0.078,-0.065l0.077,-0.065l0.078,-0.066l0.077,-0.066l0.077,-0.066l0.077,-0.066l0.076,-0.066l0.076,-0.067l0.077,-0.067l0.076,-0.067l0.075,-0.068l0.076,-0.067l0.075,-0.068l0.075,-0.068l0.075,-0.069l0.075,-0.068l0.074,-0.069l0.075,-0.069l0.074,-0.069l0.074,-0.07l0.073,-0.069l0.074,-0.07l0.073,-0.07l0.073,-0.07l0.073,-0.071l0.073,-0.071l0.072,-0.071l0.072,-0.071l0.072,-0.071l0.072,-0.072l0.072,-0.071l0.071,-0.072l0.071,-0.073l0.071,-0.072l0.071,-0.073l0.07,-0.072l0.071,-0.074l0.07,-0.073l0.07,-0.073l0.069,-0.074l0.07,-0.074l0.069,-0.074l0.069,-0.074l0.068,-0.075l0.069,-0.074l0.068,-0.075l0.068,-0.076l0.068,-0.075l0.068,-0.075l0.067,-0.076l0.068,-0.076l0.066,-0.076l0.067,-0.077l0.067,-0.076l0.066,-0.077l0.066,-0.077l0.066,-0.077l0.066,-0.077l0.065,-0.078l0.065,-0.078l0.065,-0.078l0.065,-0.078l0.064,-0.078l0.064,-0.079l0.064,-0.078l0.064,-0.079l0.064,-0.079l0.063,-0.08l0.063,-0.079l0.063,-0.08l0.063,-0.08l0.062,-0.08l0.062,-0.08l0.062,-0.081l0.062,-0.08l0.061,-0.081l0.061,-0.081l0.061,-0.081l0.061,-0.082l0.06,-0.082l0.061,-0.081l0.06,-0.082l0.059,-0.082l0.06,-0.083l0.059,-0.082l0.059,-0.083l0.059,-0.083l0.059,-0.083l0.058,-0.083l0.058,-0.084l0.058,-0.083l0.057,-0.084l0.058,-0.084l0.057,-0.084l0.057,-0.085l0.056,-0.084l0.056,-0.085l0.057,-0.085l0.055,-0.085l0.056,-0.085l0.055,-0.086l0.055,-0.085l0.055,-0.086l0.055,-0.086l0.054,-0.086l0.054,-0.087l0.054,-0.086l0.054,-0.087l0.053,-0.087l0.053,-0.087l0.053,-0.087l0.052,-0.087l0.053,-0.088l0.052,-0.087l0.052,-0.088l0.051,-0.088l0.051,-0.088l0.051,-0.089l0.051,-0.088l0.051,-0.089l0.05,-0.089l0.05,-0.089l0.05,-0.089l0.049,-0.089l0.049,-0.09l0.049,-0.09l0.049,-0.089l0.048,-0.09l0.048,-0.091l0.048,-0.09l0.048,-0.09l0.047,-0.091l0.047,-0.091l0.047,-0.091l0.047,-0.091l0.046,-0.091l0.046,-0.092l0.046,-0.091l0.045,-0.092l0.045,-0.092l0.045,-0.092l0.045,-0.093l0.044,-0.092l0.044,-0.092l0.044,-0.093l0.044,-0.093l0.043,-0.093l0.043,-0.093l0.043,-0.094l0.042,-0.093l0.042,-0.094l0.042,-0.093l0.042,-0.094l0.041,-0.094l0.041,-0.095l0.041,-0.094l0.041,-0.095l0.04,-0.094l0.04,-0.095l0.039,-0.095l0.04,-0.095l0.039,-0.095l0.039,-0.096l0.038,-0.095l0.039,-0.096l0.038,-0.096l0.037,-0.096l0.038,-0.096l0.037,-0.096l0.037,-0.096l0.036,-0.097l0.037,-0.097l0.036,-0.097l0.035,-0.096l0.036,-0.098l0.035,-0.097l0.035,-0.097l0.034,-0.098l0.034,-0.097l0.034,-0.098l0.034,-0.098l0.033,-0.098l0.033,-0.098l0.033,-0.099l0.033,-0.098l0.032,-0.099l0.032,-0.098l0.031,-0.099l0.032,-0.099l0.031,-0.099l0.031,-0.099l0.03,-0.1l0.03,-0.099l0.03,-0.1l0.029,-0.1l0.03,-0.1l0.029,-0.1l0.028,-0.1l0.029,-0.1l0.028,-0.1l0.027,-0.101l0.028,-0.1l0.027,-0.101l0.027,-0.101l0.026,-0.101l0.026,-0.101l0.026,-0.102l0.026,-0.101l0.025,-0.101l0.025,-0.102l0.025,-0.102l0.024,-0.102l0.024,-0.102l0.024,-0.102l0.024,-0.102l0.023,-0.102l0.023,-0.103l0.022,-0.102l0.022,-0.103l0.022,-0.103l0.022,-0.103l0.021,-0.103l0.021,-0.103l0.021,-0.103l0.02,-0.103l0.02,-0.104l0.02,-0.103l0.019,-0.104l0.019,-0.104l0.019,-0.104l0.018,-0.104l0.018,-0.104l0.018,-0.104l0.018,-0.104l0.017,-0.105l0.017,-0.104l0.016,-0.105l0.016,-0.105l0.016,-0.105l0.016,-0.105l0.015,-0.105l0.015,-0.105l0.015,-0.105l0.014,-0.106l0.014,-0.105l0.013,-0.106l0.014,-0.105l0.013,-0.106l0.012,-0.106l0.013,-0.106l0.012,-0.106l0.011,-0.106l0.012,-0.107l0.01,-0.106l0.011,-0.107l0.01,-0.106l0.01,-0.107l0.01,-0.107l0.009,-0.107l0.009,-0.107l0.009,-0.107l0.008,-0.107l0.008,-0.107l0.008,-0.107l0.007,-0.108l0.007,-0.107l0.007,-0.108l0.006,-0.108l0.006,-0.107l0.006,-0.108l0.005,-0.108l0.005,-0.108l0.005,-0.108l0.004,-0.109l0.004,-0.108l0.004,-0.108l0.003,-0.109l0.003,-0.109l0.003,-0.108l0.002,-0.109l0.002,-0.109l0.001,-0.109l0.002,-0.109l0,-0.109l0.001,-0.109l0,-0.109l0,-0.109l-0.001,-0.11l0,-0.109l-0.002,-0.109l-0.001,-0.108l-0.002,-0.109l-0.002,-0.109l-0.003,-0.109l-0.003,-0.108l-0.003,-0.109l-0.004,-0.108l-0.004,-0.109l-0.004,-0.108l-0.005,-0.108l-0.005,-0.108l-0.005,-0.108l-0.006,-0.108l-0.006,-0.108l-0.006,-0.107l-0.007,-0.108l-0.007,-0.107l-0.007,-0.108l-0.008,-0.107l-0.008,-0.107l-0.008,-0.108l-0.009,-0.107l-0.009,-0.107l-0.009,-0.107l-0.01,-0.106l-0.01,-0.107l-0.01,-0.107l-0.011,-0.106l-0.01,-0.106l-0.012,-0.107l-0.011,-0.106l-0.012,-0.106l-0.013,-0.106l-0.012,-0.106l-0.013,-0.106l-0.014,-0.105l-0.013,-0.106l-0.014,-0.106l-0.014,-0.105l-0.015,-0.105l-0.015,-0.105l-0.015,-0.105l-0.016,-0.105l-0.016,-0.105l-0.016,-0.105l-0.016,-0.105l-0.017,-0.104l-0.017,-0.105l-0.018,-0.104l-0.018,-0.104l-0.018,-0.104l-0.018,-0.105l-0.019,-0.103l-0.019,-0.104l-0.019,-0.104l-0.02,-0.103l-0.02,-0.104l-0.02,-0.103l-0.021,-0.104l-0.021,-0.103l-0.021,-0.103l-0.022,-0.103l-0.022,-0.102l-0.022,-0.103l-0.022,-0.103l-0.023,-0.102l-0.023,-0.102l-0.024,-0.103l-0.024,-0.102l-0.024,-0.102l-0.024,-0.102l-0.025,-0.101l-0.025,-0.102l-0.025,-0.101l-0.026,-0.102l-0.026,-0.101l-0.026,-0.101l-0.026,-0.101l-0.027,-0.101l-0.027,-0.101l-0.028,-0.1l-0.027,-0.101l-0.028,-0.1l-0.029,-0.101l-0.028,-0.1l-0.029,-0.1l-0.03,-0.1l-0.029,-0.099l-0.03,-0.1l-0.03,-0.099l-0.03,-0.1l-0.031,-0.099l-0.031,-0.099l-0.032,-0.099l-0.031,-0.099l-0.032,-0.099l-0.032,-0.098l-0.033,-0.099l-0.033,-0.098l-0.033,-0.098l-0.033,-0.098l-0.034,-0.098l-0.034,-0.098l-0.034,-0.098l-0.034,-0.097l-0.035,-0.097l-0.035,-0.098l-0.036,-0.097l-0.035,-0.097l-0.036,-0.097l-0.037,-0.096l-0.036,-0.097l-0.037,-0.096l-0.037,-0.096l-0.038,-0.096l-0.037,-0.096l-0.038,-0.096l-0.039,-0.096l-0.038,-0.096l-0.039,-0.095l-0.039,-0.095l-0.04,-0.095l-0.039,-0.095l-0.04,-0.095l-0.04,-0.095l-0.041,-0.094l-0.041,-0.095l-0.041,-0.094l-0.041,-0.094l-0.042,-0.094l-0.042,-0.094l-0.042,-0.093l-0.042,-0.094l-0.043,-0.093l-0.043,-0.093l-0.043,-0.093l-0.044,-0.093l-0.044,-0.093l-0.044,-0.092l-0.044,-0.093l-0.045,-0.092l-0.045,-0.092l-0.045,-0.092l-0.045,-0.092l-0.046,-0.091l-0.046,-0.092l-0.046,-0.091l-0.047,-0.091l-0.047,-0.091l-0.047,-0.091l-0.047,-0.091l-0.048,-0.09l-0.048,-0.091l-0.048,-0.09l-0.048,-0.09l-0.049,-0.09l-0.049,-0.089l-0.049,-0.09l-0.049,-0.089l-0.05,-0.089l-0.05,-0.089l-0.05,-0.089l-0.051,-0.089l-0.051,-0.089l-0.051,-0.088l-0.051,-0.088l-0.051,-0.088l-0.052,-0.088l-0.052,-0.088l-0.053,-0.087l-0.052,-0.088l-0.053,-0.087l-0.053,-0.087l-0.053,-0.087l-0.054,-0.086l-0.054,-0.087l-0.054,-0.086l-0.054,-0.086l-0.055,-0.086l-0.055,-0.086l-0.055,-0.085l-0.055,-0.086l-0.056,-0.085l-0.055,-0.085l-0.057,-0.085l-0.056,-0.085l-0.056,-0.084l-0.057,-0.085l-0.057,-0.084l-0.058,-0.084l-0.057,-0.084l-0.058,-0.083l-0.058,-0.084l-0.058,-0.083l-0.059,-0.083l-0.059,-0.083l-0.059,-0.083l-0.059,-0.082l-0.06,-0.083l-0.059,-0.082l-0.06,-0.082l-0.061,-0.082l-0.06,-0.081l-0.061,-0.082l-0.061,-0.081l-0.061,-0.081l-0.061,-0.081l-0.062,-0.081l-0.062,-0.08l-0.062,-0.08l-0.062,-0.08l-0.063,-0.08l-0.063,-0.08l-0.063,-0.079l-0.063,-0.08l-0.064,-0.079l-0.064,-0.079l-0.064,-0.079l-0.064,-0.078l-0.064,-0.078l-0.065,-0.079l-0.065,-0.078l-0.065,-0.077l-0.065,-0.078l-0.066,-0.077l-0.066,-0.077l-0.066,-0.077l-0.066,-0.077l-0.067,-0.077l-0.067,-0.076l-0.066,-0.076l-0.068,-0.076l-0.067,-0.076l-0.068,-0.075l-0.068,-0.076l-0.068,-0.075l-0.068,-0.075l-0.069,-0.074l-0.068,-0.075l-0.069,-0.074l-0.069,-0.074l-0.07,-0.074l-0.069,-0.074l-0.07,-0.073l-0.07,-0.074l-0.071,-0.073l-0.07,-0.073l-0.071,-0.072l-0.071,-0.073l-0.071,-0.072l-0.071,-0.072l-0.072,-0.072l-0.072,-0.071l-0.072,-0.072l-0.072,-0.071l-0.072,-0.071l-0.073,-0.07l-0.073,-0.071l-0.073,-0.07l-0.073,-0.07l-0.074,-0.07l-0.073,-0.07l-0.074,-0.069l-0.074,-0.069l-0.075,-0.069l-0.074,-0.069l-0.075,-0.069l-0.075,-0.068l-0.075,-0.068l-0.075,-0.068l-0.076,-0.067l-0.075,-0.068l-0.076,-0.067l-0.077,-0.067l-0.076,-0.067l-0.076,-0.066l-0.077,-0.067l-0.077,-0.066l-0.077,-0.065l-0.078,-0.066l-0.077,-0.065l-0.078,-0.066l-0.078,-0.065l-0.078,-0.064l-0.078,-0.065l-0.079,-0.064l-0.079,-0.064l-0.079,-0.064l-0.079,-0.063l-0.079,-0.064l-0.08,-0.063l-0.079,-0.063l-0.08,-0.062l-0.08,-0.062l-0.081,-0.063l-0.08,-0.062l-0.081,-0.061l-0.081,-0.062l-0.081,-0.061l-0.081,-0.061l-0.081,-0.06l-0.082,-0.061l-0.082,-0.06l-0.082,-0.06l-0.082,-0.06l-0.082,-0.059l-0.083,-0.06l-0.082,-0.059l-0.083,-0.059l-0.083,-0.058l-0.084,-0.058l-0.083,-0.058l-0.084,-0.058l-0.084,-0.058l-0.084,-0.057l-0.084,-0.057l-0.084,-0.057l-0.085,-0.057l-0.084,-0.056l-0.085,-0.056l-0.085,-0.056l-0.086,-0.056l-0.085,-0.055l-0.086,-0.055l-0.085,-0.055l-0.086,-0.054l-0.087,-0.055l-0.086,-0.054l-0.086,-0.054l-0.087,-0.053l-0.087,-0.054l-0.087,-0.053l-0.087,-0.052l-0.087,-0.053l-0.088,-0.052l-0.088,-0.052l-0.087,-0.052l-0.088,-0.052l-0.089,-0.051l-0.088,-0.051l-0.089,-0.051l-0.088,-0.05l-0.089,-0.05l-0.089,-0.05l-0.089,-0.05l-0.09,-0.05l-0.089,-0.049l-0.09,-0.049l-0.09,-0.048l-0.09,-0.049l-0.09,-0.048l-0.09,-0.048l-0.091,-0.047l-0.09,-0.048l-0.091,-0.047l-0.091,-0.047l-0.091,-0.046l-0.092,-0.046l-0.091,-0.046l-0.092,-0.046l-0.092,-0.046l-0.092,-0.045l-0.092,-0.045l-0.092,-0.044l-0.092,-0.045l-0.093,-0.044l-0.093,-0.044l-0.092,-0.043l-0.093,-0.043l-0.094,-0.043l-0.093,-0.043l-0.093,-0.043l-0.094,-0.042l-0.094,-0.042l-0.094,-0.041l-0.094,-0.042l-0.094,-0.041l-0.094,-0.041l-0.095,-0.04l-0.095,-0.04l-0.094,-0.04l-0.095,-0.04l-0.095,-0.039l-0.096,-0.04l-0.095,-0.038l-0.096,-0.039l-0.095,-0.038l-0.096,-0.038l-0.096,-0.038l-0.096,-0.037l-0.096,-0.037l-0.097,-0.037l-0.096,-0.037l-0.097,-0.036l-0.097,-0.036l-0.097,-0.036l-0.097,-0.035l-0.097,-0.035l-0.097,-0.035l-0.098,-0.035l-0.098,-0.034l-0.097,-0.034l-0.098,-0.034l-0.098,-0.033l-0.099,-0.033l-0.098,-0.033l-0.098,-0.032l-0.099,-0.032l-0.099,-0.032l-0.098,-0.032l-0.099,-0.031l-0.099,-0.031l-0.1,-0.031l-0.099,-0.031l-0.1,-0.03l-0.099,-0.029l-0.1,-0.03l-0.1,-0.029l-0.1,-0.029l-0.1,-0.029l-0.1,-0.028l-0.101,-0.028l-0.1,-0.028l-0.101,-0.027l-0.101,-0.027l-0.1,-0.027l-0.101,-0.027l-0.102,-0.026l-0.101,-0.026l-0.101,-0.026l-0.102,-0.025l-0.101,-0.025l-0.102,-0.024l-0.102,-0.025l-0.102,-0.024l-0.102,-0.024l-0.102,-0.023l-0.102,-0.023l-0.103,-0.023l-0.102,-0.023l-0.103,-0.022l-0.103,-0.022l-0.103,-0.021l-0.103,-0.022l-0.103,-0.021l-0.103,-0.02l-0.104,-0.021l-0.103,-0.02l-0.104,-0.019l-0.103,-0.02l-0.104,-0.019l-0.104,-0.018l-0.104,-0.019l-0.104,-0.018l-0.104,-0.018l-0.105,-0.017l-0.104,-0.017l-0.105,-0.017l-0.104,-0.017l-0.105,-0.016l-0.105,-0.016l-0.105,-0.015l-0.105,-0.016l-0.105,-0.015l-0.106,-0.014l-0.105,-0.014l-0.106,-0.014l-0.105,-0.014l-0.106,-0.013l-0.106,-0.013l-0.106,-0.013l-0.106,-0.012l-0.106,-0.012l-0.106,-0.012l-0.106,-0.011l-0.106,-0.011l-0.107,-0.011l-0.107,-0.01l-0.106,-0.01l-0.107,-0.01l-0.107,-0.009l-0.107,-0.009l-0.107,-0.009l-0.107,-0.008l-0.107,-0.008l-0.108,-0.008l-0.107,-0.007l-0.108,-0.007l-0.107,-0.007l-0.108,-0.006l-0.108,-0.006l-0.108,-0.006l-0.108,-0.005l-0.108,-0.005l-0.108,-0.005l-0.108,-0.004l-0.108,-0.004l-0.109,-0.003l-0.108,-0.004l-0.109,-0.003l-0.108,-0.002l-0.109,-0.002l-0.109,-0.002l-0.109,-0.002l-0.109,-0.001l-0.109,-0.001l-0.109,0l-0.109,-0.001l-0.11,0.001Z" style="fill:#1f0000;"/><path d="M48.327,14.289c16.904,5.574 26.708,23.487 22.017,40.882c-4.691,17.395 -22.172,27.949 -39.587,24.269l17.57,-65.151Z" style="fill:url(#_Radial2);"/><path d="M48.956,12.39l0.102,0.034l0.104,0.035l0.105,0.035l0.104,0.036l0.104,0.036l0.104,0.036l0.104,0.036l0.103,0.037l0.104,0.037l0.103,0.038l0.103,0.037l0.103,0.039l0.103,0.038l0.102,0.038l0.103,0.039l0.101,0.039l0.103,0.04l0.102,0.04l0.101,0.04l0.102,0.04l0.101,0.04l0.101,0.041l0.101,0.042l0.101,0.041l0.1,0.042l0.101,0.042l0.1,0.042l0.1,0.043l0.1,0.043l0.1,0.043l0.099,0.043l0.099,0.044l0.1,0.044l0.099,0.044l0.099,0.045l0.098,0.045l0.099,0.045l0.098,0.045l0.098,0.046l0.098,0.046l0.097,0.046l0.098,0.046l0.097,0.047l0.097,0.047l0.097,0.048l0.097,0.047l0.097,0.048l0.096,0.048l0.096,0.049l0.097,0.048l0.095,0.049l0.095,0.049l0.096,0.05l0.096,0.05l0.095,0.05l0.094,0.05l0.095,0.05l0.094,0.051l0.095,0.051l0.094,0.052l0.094,0.052l0.094,0.051l0.092,0.052l0.094,0.053l0.093,0.052l0.093,0.053l0.093,0.054l0.092,0.053l0.093,0.053l0.092,0.055l0.092,0.054l0.092,0.054l0.091,0.055l0.091,0.055l0.091,0.055l0.092,0.055l0.091,0.056l0.091,0.057l0.089,0.055l0.09,0.057l0.091,0.057l0.089,0.057l0.09,0.057l0.089,0.057l0.09,0.058l0.088,0.058l0.089,0.058l0.089,0.059l0.088,0.059l0.088,0.058l0.088,0.06l0.087,0.059l0.088,0.06l0.088,0.06l0.087,0.06l0.086,0.06l0.087,0.061l0.087,0.061l0.086,0.061l0.086,0.061l0.086,0.062l0.086,0.062l0.085,0.062l0.085,0.062l0.086,0.063l0.084,0.062l0.085,0.064l0.084,0.063l0.085,0.063l0.084,0.064l0.083,0.064l0.084,0.064l0.083,0.065l0.083,0.064l0.084,0.065l0.082,0.065l0.083,0.066l0.083,0.066l0.081,0.065l0.082,0.066l0.082,0.067l0.081,0.065l0.081,0.067l0.081,0.067l0.081,0.067l0.081,0.068l0.081,0.068l0.079,0.067l0.08,0.068l0.08,0.068l0.079,0.069l0.079,0.068l0.079,0.069l0.08,0.07l0.078,0.069l0.078,0.069l0.078,0.07l0.078,0.07l0.078,0.071l0.078,0.07l0.077,0.071l0.078,0.071l0.076,0.07l0.076,0.071l0.077,0.072l0.076,0.072l0.077,0.072l0.074,0.071l0.076,0.073l0.076,0.073l0.075,0.073l0.074,0.072l0.075,0.073l0.074,0.073l0.075,0.074l0.074,0.074l0.073,0.074l0.074,0.074l0.073,0.075l0.073,0.074l0.073,0.075l0.072,0.075l0.072,0.075l0.072,0.075l0.073,0.076l0.071,0.076l0.072,0.076l0.071,0.076l0.07,0.076l0.072,0.077l0.07,0.077l0.07,0.076l0.069,0.077l0.07,0.077l0.071,0.079l0.068,0.077l0.07,0.078l0.069,0.078l0.068,0.078l0.068,0.079l0.069,0.078l0.068,0.079l0.067,0.08l0.067,0.078l0.068,0.08l0.067,0.079l0.067,0.08l0.066,0.08l0.066,0.08l0.066,0.081l0.066,0.08l0.065,0.081l0.066,0.081l0.065,0.081l0.065,0.081l0.064,0.082l0.064,0.081l0.064,0.082l0.065,0.083l0.063,0.081l0.063,0.082l0.063,0.083l0.063,0.082l0.063,0.083l0.062,0.084l0.062,0.082l0.062,0.084l0.062,0.084l0.061,0.083l0.061,0.084l0.061,0.084l0.061,0.085l0.061,0.084l0.059,0.084l0.06,0.085l0.06,0.085l0.059,0.085l0.059,0.085l0.059,0.085l0.06,0.087l0.058,0.085l0.058,0.085l0.057,0.086l0.058,0.087l0.058,0.087l0.057,0.086l0.057,0.086l0.056,0.087l0.057,0.088l0.056,0.087l0.056,0.086l0.056,0.088l0.055,0.088l0.055,0.088l0.055,0.088l0.055,0.088l0.055,0.089l0.054,0.088l0.053,0.088l0.054,0.088l0.053,0.09l0.053,0.089l0.053,0.089l0.053,0.089l0.052,0.09l0.052,0.09l0.052,0.089l0.052,0.09l0.051,0.09l0.051,0.09l0.051,0.092l0.05,0.09l0.05,0.09l0.05,0.091l0.05,0.091l0.049,0.091l0.05,0.092l0.049,0.091l0.049,0.091l0.048,0.093l0.048,0.09l0.048,0.092l0.048,0.094l0.047,0.092l0.047,0.091l0.047,0.093l0.047,0.093l0.046,0.092l0.046,0.094l0.046,0.093l0.046,0.093l0.045,0.093l0.044,0.093l0.045,0.094l0.045,0.094l0.044,0.094l0.044,0.094l0.044,0.094l0.043,0.094l0.043,0.094l0.043,0.095l0.042,0.095l0.043,0.094l0.042,0.096l0.042,0.095l0.041,0.094l0.041,0.095l0.042,0.097l0.04,0.095l0.04,0.095l0.041,0.097l0.039,0.095l0.04,0.096l0.039,0.096l0.039,0.096l0.039,0.096l0.038,0.097l0.039,0.097l0.038,0.098l0.037,0.095l0.037,0.097l0.038,0.098l0.036,0.097l0.037,0.097l0.036,0.098l0.036,0.098l0.036,0.097l0.035,0.097l0.035,0.099l0.035,0.098l0.035,0.098l0.034,0.097l0.034,0.099l0.034,0.099l0.033,0.098l0.033,0.098l0.034,0.1l0.032,0.099l0.032,0.098l0.032,0.1l0.032,0.098l0.032,0.1l0.031,0.1l0.031,0.099l0.03,0.1l0.031,0.1l0.03,0.099l0.03,0.1l0.029,0.101l0.029,0.099l0.029,0.099l0.029,0.101l0.028,0.101l0.028,0.101l0.028,0.101l0.027,0.1l0.027,0.1l0.027,0.101l0.027,0.101l0.026,0.102l0.026,0.1l0.026,0.102l0.025,0.101l0.025,0.101l0.025,0.102l0.025,0.102l0.024,0.102l0.024,0.101l0.024,0.102l0.023,0.102l0.023,0.103l0.023,0.102l0.022,0.101l0.023,0.103l0.021,0.103l0.022,0.101l0.021,0.103l0.021,0.103l0.021,0.103l0.02,0.103l0.02,0.102l0.02,0.103l0.02,0.103l0.019,0.104l0.019,0.103l0.018,0.102l0.019,0.104l0.018,0.105l0.018,0.102l0.017,0.104l0.017,0.104l0.017,0.103l0.017,0.105l0.016,0.104l0.015,0.103l0.016,0.104l0.015,0.104l0.015,0.104l0.015,0.105l0.015,0.104l0.014,0.105l0.013,0.104l0.014,0.105l0.013,0.103l0.013,0.105l0.012,0.106l0.013,0.105l0.011,0.103l0.012,0.105l0.011,0.105l0.011,0.105l0.011,0.107l0.01,0.104l0.011,0.105l0.009,0.106l0.01,0.105l0.009,0.105l0.009,0.105l0.008,0.106l0.009,0.107l0.007,0.105l0.008,0.105l0.007,0.105l0.007,0.107l0.007,0.106l0.006,0.105l0.006,0.105l0.006,0.107l0.005,0.106l0.005,0.106l0.005,0.106l0.005,0.107l0.004,0.106l0.003,0.106l0.004,0.107l0.003,0.106l0.003,0.106l0.003,0.107l0.002,0.106l0.002,0.107l0.001,0.106l0.002,0.107l0,0.107l0.001,0.107l0,0.107l0,0.106l0,0.107l-0.001,0.106l-0.001,0.108l-0.001,0.107l-0.002,0.107l-0.002,0.107l-0.002,0.106l-0.003,0.108l-0.003,0.107l-0.003,0.107l-0.003,0.107l-0.004,0.107l-0.004,0.108l-0.005,0.107l-0.005,0.107l-0.005,0.109l-0.006,0.107l-0.005,0.107l-0.007,0.108l-0.006,0.107l-0.007,0.107l-0.007,0.108l-0.008,0.107l-0.008,0.108l-0.008,0.107l-0.008,0.108l-0.009,0.108l-0.009,0.109l-0.01,0.107l-0.01,0.106l-0.01,0.109l-0.01,0.108l-0.011,0.107l-0.011,0.108l-0.012,0.108l-0.012,0.108l-0.012,0.107l-0.012,0.109l-0.013,0.107l-0.013,0.109l-0.014,0.107l-0.013,0.108l-0.015,0.108l-0.014,0.109l-0.015,0.107l-0.015,0.108l-0.016,0.107l-0.015,0.109l-0.017,0.109l-0.016,0.107l-0.017,0.108l-0.017,0.107l-0.018,0.11l-0.018,0.107l-0.018,0.108l-0.018,0.108l-0.019,0.108l-0.02,0.108l-0.019,0.108l-0.02,0.108l-0.02,0.109l-0.021,0.106l-0.021,0.109l-0.021,0.109l-0.022,0.108l-0.022,0.108l-0.022,0.107l-0.023,0.108l-0.023,0.109l-0.023,0.108l-0.024,0.108l-0.024,0.107l-0.024,0.109l-0.025,0.108l-0.025,0.108l-0.025,0.107l-0.026,0.108l-0.026,0.109l-0.027,0.108l-0.027,0.108l-0.027,0.107l-0.027,0.108l-0.028,0.108l-0.028,0.108l-0.029,0.107l-0.029,0.109l-0.029,0.107l-0.029,0.108l-0.03,0.107l-0.031,0.108l-0.03,0.107l-0.031,0.107l-0.031,0.107l-0.031,0.106l-0.032,0.107l-0.032,0.105l-0.032,0.107l-0.033,0.107l-0.033,0.105l-0.033,0.105l-0.034,0.106l-0.033,0.104l-0.035,0.107l-0.034,0.105l-0.035,0.104l-0.035,0.105l-0.035,0.104l-0.036,0.105l-0.036,0.104l-0.036,0.103l-0.036,0.104l-0.037,0.104l-0.037,0.103l-0.038,0.103l-0.037,0.104l-0.038,0.102l-0.038,0.103l-0.039,0.103l-0.039,0.102l-0.04,0.103l-0.039,0.101l-0.039,0.101l-0.04,0.102l-0.041,0.102l-0.04,0.101l-0.041,0.102l-0.042,0.101l-0.041,0.1l-0.042,0.101l-0.042,0.101l-0.042,0.1l-0.042,0.099l-0.043,0.1l-0.044,0.101l-0.043,0.099l-0.044,0.099l-0.044,0.099l-0.044,0.099l-0.045,0.1l-0.045,0.098l-0.045,0.098l-0.045,0.098l-0.046,0.098l-0.046,0.099l-0.045,0.096l-0.047,0.098l-0.047,0.098l-0.047,0.097l-0.047,0.096l-0.048,0.098l-0.048,0.097l-0.048,0.095l-0.048,0.096l-0.049,0.097l-0.049,0.096l-0.049,0.094l-0.05,0.096l-0.05,0.096l-0.05,0.095l-0.05,0.095l-0.05,0.094l-0.051,0.094l-0.051,0.095l-0.052,0.094l-0.051,0.094l-0.052,0.094l-0.052,0.093l-0.052,0.093l-0.053,0.094l-0.053,0.093l-0.054,0.093l-0.052,0.092l-0.054,0.092l-0.054,0.093l-0.055,0.091l-0.054,0.092l-0.055,0.092l-0.054,0.091l-0.056,0.092l-0.056,0.091l-0.055,0.09l-0.056,0.09l-0.056,0.091l-0.057,0.09l-0.057,0.09l-0.056,0.089l-0.057,0.09l-0.058,0.09l-0.058,0.089l-0.058,0.089l-0.058,0.089l-0.058,0.088l-0.059,0.088l-0.059,0.089l-0.06,0.088l-0.059,0.087l-0.059,0.088l-0.06,0.087l-0.061,0.087l-0.06,0.087l-0.061,0.087l-0.061,0.087l-0.06,0.085l-0.062,0.086l-0.061,0.086l-0.062,0.086l-0.063,0.086l-0.062,0.085l-0.063,0.086l-0.062,0.084l-0.063,0.085l-0.064,0.084l-0.063,0.084l-0.064,0.084l-0.064,0.084l-0.064,0.084l-0.065,0.083l-0.064,0.083l-0.064,0.082l-0.066,0.084l-0.066,0.083l-0.064,0.081l-0.066,0.082l-0.067,0.083l-0.066,0.081l-0.066,0.081l-0.067,0.082l-0.067,0.081l-0.067,0.08l-0.067,0.081l-0.068,0.081l-0.068,0.08l-0.068,0.079l-0.068,0.08l-0.069,0.08l-0.068,0.079l-0.069,0.079l-0.069,0.079l-0.069,0.078l-0.07,0.079l-0.07,0.078l-0.07,0.079l-0.07,0.077l-0.07,0.077l-0.071,0.077l-0.071,0.078l-0.071,0.077l-0.071,0.076l-0.072,0.076l-0.072,0.077l-0.071,0.076l-0.072,0.075l-0.072,0.076l-0.073,0.075l-0.073,0.076l-0.073,0.074l-0.073,0.075l-0.073,0.074l-0.074,0.074l-0.074,0.074l-0.074,0.074l-0.074,0.074l-0.074,0.073l-0.075,0.072l-0.074,0.073l-0.075,0.072l-0.076,0.073l-0.075,0.072l-0.075,0.072l-0.077,0.072l-0.075,0.071l-0.076,0.071l-0.077,0.071l-0.076,0.071l-0.077,0.07l-0.077,0.071l-0.077,0.07l-0.077,0.069l-0.078,0.07l-0.078,0.069l-0.077,0.069l-0.079,0.069l-0.078,0.069l-0.078,0.068l-0.08,0.069l-0.078,0.067l-0.079,0.068l-0.08,0.067l-0.078,0.067l-0.08,0.067l-0.08,0.067l-0.08,0.066l-0.08,0.067l-0.08,0.066l-0.081,0.065l-0.08,0.066l-0.082,0.065l-0.081,0.065l-0.081,0.065l-0.081,0.065l-0.082,0.064l-0.081,0.064l-0.082,0.064l-0.082,0.063l-0.083,0.064l-0.082,0.063l-0.083,0.063l-0.083,0.063l-0.083,0.062l-0.083,0.062l-0.083,0.062l-0.084,0.061l-0.084,0.062l-0.083,0.061l-0.085,0.061l-0.084,0.061l-0.084,0.06l-0.085,0.06l-0.085,0.06l-0.085,0.06l-0.085,0.059l-0.085,0.059l-0.085,0.059l-0.085,0.059l-0.086,0.058l-0.086,0.059l-0.087,0.058l-0.086,0.057l-0.085,0.057l-0.087,0.057l-0.087,0.058l-0.087,0.056l-0.087,0.057l-0.087,0.056l-0.087,0.056l-0.088,0.055l-0.087,0.056l-0.088,0.055l-0.089,0.055l-0.088,0.055l-0.088,0.054l-0.088,0.054l-0.089,0.054l-0.088,0.053l-0.089,0.054l-0.09,0.053l-0.089,0.053l-0.089,0.053l-0.09,0.052l-0.089,0.052l-0.09,0.052l-0.09,0.051l-0.09,0.051l-0.09,0.052l-0.091,0.05l-0.09,0.051l-0.091,0.05l-0.091,0.05l-0.091,0.05l-0.09,0.049l-0.092,0.05l-0.092,0.049l-0.091,0.048l-0.092,0.049l-0.091,0.048l-0.092,0.048l-0.093,0.047l-0.092,0.048l-0.092,0.047l-0.093,0.047l-0.093,0.047l-0.092,0.046l-0.093,0.046l-0.093,0.046l-0.093,0.045l-0.094,0.045l-0.093,0.045l-0.093,0.045l-0.094,0.045l-0.094,0.044l-0.094,0.044l-0.095,0.043l-0.094,0.044l-0.094,0.043l-0.095,0.043l-0.094,0.042l-0.095,0.043l-0.095,0.041l-0.094,0.042l-0.096,0.042l-0.096,0.041l-0.095,0.041l-0.096,0.041l-0.095,0.04l-0.096,0.04l-0.095,0.04l-0.097,0.04l-0.096,0.039l-0.096,0.039l-0.096,0.039l-0.097,0.038l-0.096,0.038l-0.097,0.038l-0.097,0.038l-0.097,0.037l-0.097,0.037l-0.097,0.037l-0.098,0.037l-0.097,0.036l-0.098,0.036l-0.098,0.036l-0.097,0.035l-0.098,0.035l-0.098,0.035l-0.098,0.035l-0.099,0.034l-0.098,0.034l-0.098,0.034l-0.099,0.033l-0.098,0.033l-0.099,0.033l-0.099,0.033l-0.099,0.032l-0.099,0.032l-0.1,0.032l-0.099,0.031l-0.099,0.032l-0.099,0.03l-0.1,0.031l-0.1,0.03l-0.1,0.031l-0.1,0.029l-0.099,0.03l-0.101,0.029l-0.1,0.029l-0.1,0.028l-0.1,0.029l-0.101,0.028l-0.101,0.028l-0.1,0.027l-0.101,0.027l-0.101,0.027l-0.101,0.027l-0.101,0.026l-0.101,0.026l-0.101,0.026l-0.102,0.025l-0.101,0.025l-0.102,0.025l-0.101,0.025l-0.102,0.024l-0.102,0.024l-0.102,0.023l-0.102,0.024l-0.102,0.023l-0.102,0.023l-0.102,0.022l-0.103,0.022l-0.102,0.022l-0.102,0.022l-0.103,0.021l-0.102,0.021l-0.103,0.021l-0.103,0.02l-0.103,0.02l-0.103,0.02l-0.103,0.02l-0.103,0.019l-0.103,0.019l-0.103,0.019l-0.104,0.018l-0.103,0.018l-0.104,0.018l-0.103,0.017l-0.104,0.017l-0.104,0.017l-0.104,0.016l-0.103,0.017l-0.105,0.016l-0.104,0.015l-0.103,0.015l-0.105,0.015l-0.104,0.015l-0.104,0.014l-0.105,0.015l-0.104,0.013l-0.105,0.014l-0.104,0.013l-0.105,0.013l-0.105,0.012l-0.105,0.013l-0.104,0.011l-0.105,0.012l-0.105,0.011l-0.105,0.011l-0.105,0.011l-0.105,0.011l-0.106,0.01l-0.105,0.009l-0.105,0.01l-0.106,0.009l-0.105,0.009l-0.106,0.008l-0.105,0.008l-0.106,0.008l-0.106,0.008l-0.105,0.007l-0.106,0.007l-0.106,0.007l-0.106,0.006l-0.105,0.006l-0.107,0.006l-0.106,0.005l-0.106,0.005l-0.106,0.005l-0.106,0.005l-0.106,0.004l-0.107,0.003l-0.106,0.004l-0.106,0.003l-0.107,0.003l-0.106,0.003l-0.107,0.002l-0.106,0.002l-0.107,0.001l-0.107,0.001l-0.106,0.001l-0.107,0.001l-0.107,0l-0.107,0l-0.106,0l-0.107,-0.001l-0.107,-0.001l-0.107,-0.001l-0.107,-0.002l-0.107,-0.002l-0.108,-0.002l-0.106,-0.003l-0.108,-0.002l-0.107,-0.004l-0.107,-0.003l-0.107,-0.004l-0.107,-0.004l-0.108,-0.005l-0.107,-0.005l-0.108,-0.005l-0.107,-0.006l-0.107,-0.005l-0.108,-0.007l-0.107,-0.006l-0.108,-0.007l-0.107,-0.007l-0.108,-0.008l-0.107,-0.008l-0.108,-0.008l-0.108,-0.008l-0.107,-0.009l-0.108,-0.009l-0.108,-0.01l-0.108,-0.01l-0.107,-0.01l-0.108,-0.01l-0.108,-0.011l-0.108,-0.011l-0.108,-0.012l-0.107,-0.011l-0.108,-0.013l-0.108,-0.012l-0.108,-0.013l-0.108,-0.013l-0.108,-0.013l-0.108,-0.014l-0.108,-0.014l-0.108,-0.015l-0.107,-0.015l-0.109,-0.015l-0.107,-0.015l-0.108,-0.016l-0.108,-0.016l-0.109,-0.017l-0.107,-0.017l-0.108,-0.017l-0.109,-0.018l-0.107,-0.017l-0.109,-0.019l-0.108,-0.018l-0.107,-0.019l-0.109,-0.019l-0.108,-0.02l-0.108,-0.02l-0.108,-0.02l-0.108,-0.021l-0.108,-0.021l-0.108,-0.021l-0.108,-0.022l-0.108,-0.022l-0.108,-0.022l-0.105,-0.022l-0.604,-0.234l-0.498,-0.415l-0.339,-0.552l-0.145,-0.632l0.066,-0.645l17.569,-65.151l0.268,-0.59l0.443,-0.474l0.571,-0.307l0.638,-0.108l0.641,0.101Zm-18.199,67.05l0.102,0.021l0.102,0.021l0.102,0.021l0.102,0.02l0.102,0.02l0.102,0.02l0.102,0.02l0.102,0.019l0.102,0.019l0.102,0.018l0.102,0.018l0.102,0.018l0.102,0.018l0.102,0.017l0.102,0.017l0.102,0.016l0.102,0.017l0.102,0.015l0.102,0.016l0.102,0.015l0.102,0.015l0.102,0.015l0.102,0.014l0.102,0.014l0.102,0.014l0.101,0.013l0.102,0.013l0.102,0.013l0.102,0.012l0.102,0.013l0.102,0.011l0.102,0.012l0.101,0.011l0.102,0.011l0.102,0.01l0.102,0.011l0.101,0.009l0.102,0.01l0.102,0.009l0.101,0.009l0.102,0.009l0.102,0.008l0.101,0.008l0.102,0.008l0.101,0.007l0.102,0.007l0.101,0.007l0.102,0.007l0.101,0.006l0.102,0.006l0.101,0.005l0.101,0.005l0.102,0.005l0.101,0.005l0.101,0.004l0.102,0.004l0.101,0.004l0.101,0.003l0.101,0.003l0.101,0.003l0.101,0.003l0.101,0.002l0.101,0.002l0.101,0.001l0.101,0.001l0.101,0.001l0.101,0.001l0.101,0l0.101,0l0.1,0l0.101,-0.001l0.101,0l0.1,-0.002l0.101,-0.001l0.101,-0.002l0.1,-0.002l0.101,-0.002l0.1,-0.003l0.1,-0.003l0.101,-0.003l0.1,-0.004l0.1,-0.004l0.101,-0.004l0.1,-0.005l0.1,-0.004l0.1,-0.005l0.1,-0.006l0.1,-0.005l0.1,-0.006l0.1,-0.007l0.1,-0.006l0.099,-0.007l0.1,-0.007l0.1,-0.008l0.099,-0.007l0.1,-0.008l0.099,-0.009l0.1,-0.008l0.099,-0.009l0.1,-0.01l0.099,-0.009l0.099,-0.01l0.099,-0.01l0.099,-0.01l0.1,-0.011l0.099,-0.011l0.098,-0.011l0.099,-0.012l0.099,-0.012l0.099,-0.012l0.099,-0.012l0.098,-0.013l0.099,-0.013l0.098,-0.013l0.099,-0.014l0.098,-0.014l0.099,-0.014l0.098,-0.014l0.098,-0.015l0.098,-0.015l0.098,-0.015l0.098,-0.016l0.098,-0.016l0.098,-0.016l0.098,-0.016l0.097,-0.017l0.098,-0.017l0.098,-0.017l0.097,-0.018l0.097,-0.018l0.098,-0.018l0.097,-0.018l0.097,-0.019l0.097,-0.019l0.097,-0.019l0.097,-0.02l0.097,-0.02l0.097,-0.02l0.097,-0.02l0.097,-0.021l0.096,-0.021l0.097,-0.021l0.096,-0.021l0.096,-0.022l0.097,-0.022l0.096,-0.023l0.096,-0.022l0.096,-0.023l0.096,-0.023l0.096,-0.024l0.095,-0.023l0.096,-0.024l0.096,-0.025l0.095,-0.024l0.096,-0.025l0.095,-0.025l0.095,-0.026l0.095,-0.025l0.095,-0.026l0.095,-0.026l0.095,-0.027l0.095,-0.027l0.095,-0.027l0.094,-0.027l0.095,-0.027l0.094,-0.028l0.095,-0.028l0.094,-0.029l0.094,-0.028l0.094,-0.029l0.094,-0.029l0.094,-0.03l0.094,-0.03l0.093,-0.03l0.094,-0.03l0.093,-0.03l0.094,-0.031l0.093,-0.031l0.093,-0.032l0.093,-0.031l0.093,-0.032l0.093,-0.032l0.093,-0.033l0.092,-0.032l0.093,-0.033l0.092,-0.033l0.093,-0.034l0.092,-0.033l0.092,-0.034l0.092,-0.035l0.092,-0.034l0.092,-0.035l0.091,-0.035l0.092,-0.035l0.091,-0.036l0.092,-0.036l0.091,-0.036l0.091,-0.036l0.091,-0.037l0.091,-0.037l0.091,-0.037l0.091,-0.037l0.09,-0.038l0.091,-0.038l0.09,-0.038l0.09,-0.038l0.09,-0.039l0.09,-0.039l0.09,-0.039l0.09,-0.039l0.089,-0.04l0.09,-0.04l0.089,-0.04l0.09,-0.041l0.089,-0.04l0.089,-0.041l0.089,-0.042l0.088,-0.041l0.089,-0.042l0.089,-0.042l0.088,-0.042l0.088,-0.042l0.088,-0.043l0.088,-0.043l0.088,-0.043l0.088,-0.044l0.088,-0.044l0.087,-0.044l0.088,-0.044l0.087,-0.044l0.087,-0.045l0.087,-0.045l0.087,-0.045l0.087,-0.046l0.086,-0.046l0.087,-0.046l0.086,-0.046l0.086,-0.046l0.086,-0.047l0.086,-0.047l0.086,-0.047l0.086,-0.048l0.085,-0.048l0.086,-0.048l0.085,-0.048l0.085,-0.048l0.085,-0.049l0.085,-0.049l0.084,-0.049l0.085,-0.05l0.084,-0.049l0.084,-0.05l0.085,-0.05l0.084,-0.051l0.083,-0.05l0.084,-0.051l0.084,-0.051l0.083,-0.052l0.083,-0.051l0.083,-0.052l0.083,-0.052l0.083,-0.053l0.083,-0.052l0.082,-0.053l0.082,-0.053l0.083,-0.053l0.082,-0.054l0.082,-0.054l0.081,-0.054l0.082,-0.054l0.081,-0.054l0.082,-0.055l0.081,-0.055l0.081,-0.055l0.08,-0.056l0.081,-0.055l0.081,-0.056l0.08,-0.056l0.08,-0.057l0.08,-0.056l0.08,-0.057l0.08,-0.057l0.079,-0.057l0.08,-0.058l0.079,-0.058l0.079,-0.058l0.079,-0.058l0.078,-0.058l0.079,-0.059l0.078,-0.059l0.079,-0.059l0.078,-0.059l0.078,-0.06l0.077,-0.06l0.078,-0.06l0.077,-0.06l0.077,-0.061l0.078,-0.06l0.076,-0.061l0.077,-0.062l0.077,-0.061l0.076,-0.062l0.076,-0.061l0.076,-0.063l0.076,-0.062l0.076,-0.062l0.075,-0.063l0.076,-0.063l0.075,-0.063l0.075,-0.064l0.075,-0.063l0.074,-0.064l0.075,-0.064l0.074,-0.065l0.074,-0.064l0.074,-0.065l0.074,-0.065l0.073,-0.065l0.074,-0.066l0.073,-0.065l0.073,-0.066l0.073,-0.066l0.072,-0.067l0.073,-0.066l0.072,-0.067l0.072,-0.067l0.072,-0.067l0.072,-0.068l0.071,-0.067l0.072,-0.068l0.071,-0.068l0.071,-0.068l0.071,-0.069l0.07,-0.069l0.071,-0.069l0.07,-0.069l0.07,-0.069l0.07,-0.07l0.069,-0.069l0.07,-0.07l0.069,-0.071l0.069,-0.07l0.069,-0.071l0.068,-0.071l0.069,-0.071l0.068,-0.071l0.068,-0.071l0.068,-0.072l0.068,-0.072l0.067,-0.072l0.068,-0.072l0.067,-0.073l0.066,-0.073l0.067,-0.073l0.067,-0.073l0.066,-0.073l0.066,-0.074l0.066,-0.074l0.065,-0.074l0.066,-0.074l0.065,-0.074l0.065,-0.075l0.065,-0.075l0.065,-0.075l0.064,-0.075l0.064,-0.075l0.064,-0.076l0.064,-0.076l0.064,-0.076l0.063,-0.076l0.063,-0.077l0.063,-0.076l0.063,-0.077l0.062,-0.077l0.063,-0.077l0.062,-0.078l0.062,-0.078l0.061,-0.077l0.062,-0.079l0.061,-0.078l0.061,-0.078l0.061,-0.079l0.06,-0.079l0.061,-0.079l0.06,-0.079l0.06,-0.08l0.059,-0.079l0.06,-0.08l0.059,-0.08l0.059,-0.081l0.059,-0.08l0.059,-0.081l0.058,-0.081l0.058,-0.081l0.058,-0.081l0.058,-0.081l0.057,-0.082l0.057,-0.082l0.057,-0.082l0.057,-0.082l0.057,-0.082l0.056,-0.083l0.056,-0.083l0.056,-0.083l0.056,-0.083l0.055,-0.083l0.055,-0.084l0.055,-0.084l0.055,-0.084l0.054,-0.084l0.055,-0.084l0.054,-0.085l0.053,-0.084l0.054,-0.085l0.053,-0.085l0.053,-0.086l0.053,-0.085l0.053,-0.086l0.052,-0.085l0.052,-0.087l0.052,-0.086l0.052,-0.086l0.051,-0.087l0.051,-0.086l0.051,-0.087l0.051,-0.088l0.05,-0.087l0.05,-0.087l0.05,-0.088l0.05,-0.088l0.049,-0.088l0.05,-0.088l0.049,-0.089l0.048,-0.088l0.049,-0.089l0.048,-0.089l0.048,-0.089l0.048,-0.09l0.047,-0.089l0.047,-0.09l0.047,-0.09l0.047,-0.09l0.046,-0.09l0.046,-0.091l0.046,-0.09l0.046,-0.091l0.045,-0.091l0.046,-0.091l0.045,-0.091l0.044,-0.092l0.045,-0.091l0.044,-0.092l0.044,-0.092l0.043,-0.093l0.044,-0.092l0.043,-0.092l0.043,-0.093l0.042,-0.093l0.043,-0.093l0.042,-0.093l0.041,-0.094l0.042,-0.093l0.041,-0.094l0.041,-0.094l0.041,-0.094l0.04,-0.095l0.041,-0.094l0.04,-0.095l0.039,-0.094l0.04,-0.095l0.039,-0.096l0.039,-0.095l0.038,-0.095l0.039,-0.096l0.038,-0.096l0.037,-0.096l0.038,-0.096l0.037,-0.096l0.037,-0.097l0.037,-0.096l0.036,-0.097l0.036,-0.097l0.036,-0.097l0.036,-0.098l0.035,-0.097l0.035,-0.098l0.035,-0.098l0.035,-0.098l0.034,-0.098l0.034,-0.098l0.033,-0.099l0.034,-0.098l0.033,-0.099l0.033,-0.099l0.032,-0.099l0.032,-0.099l0.032,-0.1l0.032,-0.1l0.031,-0.099l0.031,-0.1l0.031,-0.1l0.031,-0.101l0.03,-0.1l0.03,-0.101l0.03,-0.1l0.029,-0.101l0.029,-0.101l0.029,-0.102l0.028,-0.101l0.029,-0.101l0.028,-0.102l0.027,-0.102l0.028,-0.102l0.027,-0.102l0.026,-0.102l0.027,-0.102l0.026,-0.102l0.025,-0.102l0.026,-0.102l0.025,-0.102l0.024,-0.102l0.025,-0.102l0.024,-0.102l0.023,-0.102l0.024,-0.102l0.023,-0.102l0.022,-0.102l0.023,-0.102l0.022,-0.102l0.022,-0.102l0.021,-0.102l0.021,-0.102l0.021,-0.102l0.02,-0.102l0.02,-0.102l0.02,-0.102l0.02,-0.102l0.019,-0.102l0.019,-0.102l0.018,-0.102l0.018,-0.102l0.018,-0.102l0.018,-0.102l0.017,-0.102l0.017,-0.102l0.016,-0.102l0.016,-0.102l0.016,-0.102l0.016,-0.102l0.015,-0.102l0.015,-0.102l0.015,-0.102l0.014,-0.102l0.014,-0.102l0.014,-0.102l0.013,-0.102l0.013,-0.102l0.013,-0.102l0.012,-0.102l0.013,-0.101l0.011,-0.102l0.012,-0.102l0.011,-0.102l0.011,-0.102l0.01,-0.101l0.01,-0.102l0.01,-0.102l0.01,-0.101l0.009,-0.102l0.009,-0.102l0.009,-0.101l0.008,-0.102l0.008,-0.102l0.008,-0.101l0.007,-0.102l0.007,-0.101l0.007,-0.102l0.007,-0.101l0.006,-0.102l0.006,-0.101l0.005,-0.101l0.005,-0.102l0.005,-0.101l0.005,-0.101l0.004,-0.102l0.004,-0.101l0.004,-0.101l0.003,-0.101l0.003,-0.102l0.003,-0.101l0.003,-0.101l0.002,-0.101l0.002,-0.101l0.001,-0.101l0.001,-0.101l0.001,-0.101l0.001,-0.101l0,-0.1l0,-0.101l0,-0.101l-0.001,-0.101l0,-0.1l-0.002,-0.101l-0.001,-0.101l-0.002,-0.1l-0.002,-0.101l-0.002,-0.1l-0.003,-0.101l-0.003,-0.1l-0.003,-0.1l-0.004,-0.101l-0.004,-0.1l-0.004,-0.1l-0.005,-0.1l-0.004,-0.1l-0.005,-0.1l-0.006,-0.1l-0.005,-0.1l-0.006,-0.1l-0.007,-0.1l-0.006,-0.1l-0.007,-0.1l-0.007,-0.1l-0.008,-0.099l-0.007,-0.1l-0.008,-0.099l-0.009,-0.1l-0.008,-0.099l-0.009,-0.1l-0.01,-0.099l-0.009,-0.099l-0.01,-0.1l-0.01,-0.099l-0.01,-0.099l-0.011,-0.099l-0.011,-0.099l-0.011,-0.099l-0.012,-0.099l-0.012,-0.099l-0.012,-0.098l-0.012,-0.099l-0.013,-0.099l-0.013,-0.098l-0.013,-0.099l-0.014,-0.098l-0.014,-0.099l-0.014,-0.098l-0.014,-0.098l-0.015,-0.098l-0.015,-0.099l-0.015,-0.098l-0.016,-0.098l-0.016,-0.098l-0.016,-0.097l-0.016,-0.098l-0.017,-0.098l-0.017,-0.098l-0.017,-0.097l-0.018,-0.098l-0.018,-0.097l-0.018,-0.097l-0.018,-0.098l-0.019,-0.097l-0.019,-0.097l-0.019,-0.097l-0.02,-0.097l-0.02,-0.097l-0.02,-0.097l-0.02,-0.096l-0.021,-0.097l-0.021,-0.097l-0.021,-0.096l-0.021,-0.097l-0.022,-0.096l-0.022,-0.096l-0.023,-0.096l-0.022,-0.096l-0.023,-0.096l-0.023,-0.096l-0.024,-0.096l-0.023,-0.096l-0.024,-0.096l-0.025,-0.095l-0.024,-0.096l-0.025,-0.095l-0.025,-0.096l-0.026,-0.095l-0.025,-0.095l-0.026,-0.095l-0.026,-0.095l-0.027,-0.095l-0.026,-0.095l-0.027,-0.094l-0.028,-0.095l-0.027,-0.094l-0.028,-0.095l-0.028,-0.094l-0.029,-0.094l-0.028,-0.095l-0.029,-0.094l-0.029,-0.094l-0.03,-0.093l-0.03,-0.094l-0.03,-0.094l-0.03,-0.093l-0.03,-0.094l-0.031,-0.093l-0.031,-0.093l-0.031,-0.094l-0.032,-0.093l-0.032,-0.093l-0.032,-0.093l-0.032,-0.092l-0.033,-0.093l-0.033,-0.092l-0.033,-0.093l-0.034,-0.092l-0.033,-0.092l-0.034,-0.093l-0.035,-0.092l-0.034,-0.091l-0.035,-0.092l-0.035,-0.092l-0.035,-0.092l-0.036,-0.091l-0.035,-0.091l-0.037,-0.092l-0.036,-0.091l-0.036,-0.091l-0.037,-0.091l-0.037,-0.09l-0.038,-0.091l-0.037,-0.091l-0.038,-0.09l-0.038,-0.09l-0.039,-0.091l-0.039,-0.09l-0.038,-0.09l-0.04,-0.09l-0.039,-0.089l-0.04,-0.09l-0.04,-0.09l-0.04,-0.089l-0.04,-0.089l-0.041,-0.089l-0.041,-0.089l-0.041,-0.089l-0.042,-0.089l-0.042,-0.089l-0.042,-0.088l-0.042,-0.089l-0.042,-0.088l-0.043,-0.088l-0.043,-0.088l-0.043,-0.088l-0.044,-0.088l-0.043,-0.087l-0.044,-0.088l-0.045,-0.087l-0.044,-0.088l-0.045,-0.087l-0.045,-0.087l-0.045,-0.087l-0.046,-0.086l-0.045,-0.087l-0.046,-0.086l-0.047,-0.087l-0.046,-0.086l-0.047,-0.086l-0.047,-0.086l-0.047,-0.086l-0.048,-0.085l-0.047,-0.086l-0.048,-0.085l-0.049,-0.085l-0.048,-0.085l-0.049,-0.085l-0.049,-0.085l-0.049,-0.085l-0.049,-0.084l-0.05,-0.085l-0.05,-0.084l-0.05,-0.084l-0.05,-0.084l-0.051,-0.084l-0.051,-0.084l-0.051,-0.083l-0.051,-0.084l-0.052,-0.083l-0.052,-0.083l-0.052,-0.083l-0.052,-0.083l-0.053,-0.082l-0.053,-0.083l-0.053,-0.082l-0.053,-0.082l-0.054,-0.082l-0.053,-0.082l-0.054,-0.082l-0.055,-0.081l-0.054,-0.082l-0.055,-0.081l-0.055,-0.081l-0.055,-0.081l-0.055,-0.081l-0.056,-0.081l-0.056,-0.08l-0.056,-0.081l-0.056,-0.08l-0.057,-0.08l-0.057,-0.08l-0.057,-0.079l-0.057,-0.08l-0.058,-0.079l-0.057,-0.079l-0.058,-0.079l-0.059,-0.079l-0.058,-0.079l-0.059,-0.079l-0.059,-0.078l-0.059,-0.078l-0.059,-0.078l-0.06,-0.078l-0.059,-0.078l-0.06,-0.078l-0.061,-0.077l-0.06,-0.077l-0.061,-0.077l-0.061,-0.077l-0.061,-0.077l-0.062,-0.076l-0.061,-0.077l-0.062,-0.076l-0.062,-0.076l-0.062,-0.076l-0.063,-0.076l-0.063,-0.075l-0.063,-0.075l-0.063,-0.076l-0.063,-0.075l-0.064,-0.074l-0.064,-0.075l-0.064,-0.074l-0.064,-0.075l-0.065,-0.074l-0.065,-0.074l-0.065,-0.073l-0.065,-0.074l-0.065,-0.073l-0.066,-0.074l-0.066,-0.073l-0.066,-0.072l-0.066,-0.073l-0.067,-0.073l-0.067,-0.072l-0.067,-0.072l-0.067,-0.072l-0.067,-0.072l-0.068,-0.071l-0.068,-0.071l-0.068,-0.072l-0.068,-0.071l-0.069,-0.07l-0.068,-0.071l-0.069,-0.07l-0.069,-0.07l-0.07,-0.07l-0.069,-0.07l-0.07,-0.07l-0.07,-0.069l-0.07,-0.07l-0.071,-0.069l-0.07,-0.069l-0.071,-0.068l-0.071,-0.069l-0.071,-0.068l-0.072,-0.068l-0.072,-0.068l-0.072,-0.067l-0.072,-0.068l-0.072,-0.067l-0.073,-0.067l-0.072,-0.067l-0.073,-0.067l-0.073,-0.066l-0.074,-0.067l-0.073,-0.066l-0.074,-0.065l-0.074,-0.066l-0.074,-0.066l-0.075,-0.065l-0.074,-0.065l-0.075,-0.065l-0.075,-0.064l-0.075,-0.065l-0.076,-0.064l-0.076,-0.064l-0.075,-0.064l-0.076,-0.063l-0.077,-0.064l-0.076,-0.063l-0.077,-0.063l-0.077,-0.063l-0.077,-0.062l-0.077,-0.062l-0.077,-0.062l-0.078,-0.062l-0.078,-0.062l-0.078,-0.061l-0.078,-0.062l-0.079,-0.061l-0.079,-0.06l-0.078,-0.061l-0.079,-0.06l-0.08,-0.061l-0.079,-0.059l-0.08,-0.06l-0.08,-0.06l-0.08,-0.059l-0.08,-0.059l-0.081,-0.059l-0.08,-0.058l-0.081,-0.059l-0.081,-0.058l-0.081,-0.058l-0.082,-0.057l-0.081,-0.058l-0.082,-0.057l-0.082,-0.057l-0.082,-0.057l-0.083,-0.057l-0.082,-0.056l-0.083,-0.056l-0.083,-0.056l-0.083,-0.055l-0.084,-0.056l-0.083,-0.055l-0.084,-0.055l-0.084,-0.055l-0.084,-0.054l-0.085,-0.054l-0.084,-0.054l-0.085,-0.054l-0.085,-0.054l-0.085,-0.053l-0.085,-0.053l-0.085,-0.053l-0.086,-0.053l-0.086,-0.052l-0.086,-0.052l-0.086,-0.052l-0.087,-0.051l-0.086,-0.052l-0.087,-0.051l-0.087,-0.051l-0.087,-0.051l-0.087,-0.05l-0.088,-0.05l-0.088,-0.05l-0.087,-0.05l-0.089,-0.049l-0.088,-0.049l-0.088,-0.049l-0.089,-0.049l-0.089,-0.048l-0.089,-0.049l-0.089,-0.048l-0.089,-0.047l-0.09,-0.048l-0.089,-0.047l-0.09,-0.047l-0.09,-0.047l-0.091,-0.046l-0.09,-0.046l-0.091,-0.046l-0.09,-0.046l-0.091,-0.045l-0.091,-0.045l-0.092,-0.045l-0.091,-0.045l-0.092,-0.044l-0.092,-0.045l-0.092,-0.044l-0.092,-0.043l-0.092,-0.044l-0.093,-0.043l-0.093,-0.042l-0.093,-0.043l-0.093,-0.042l-0.093,-0.042l-0.093,-0.042l-0.094,-0.042l-0.094,-0.041l-0.094,-0.041l-0.094,-0.041l-0.094,-0.04l-0.094,-0.041l-0.095,-0.039l-0.095,-0.04l-0.095,-0.04l-0.095,-0.039l-0.095,-0.039l-0.096,-0.038l-0.095,-0.039l-0.096,-0.038l-0.096,-0.037l-0.096,-0.038l-0.097,-0.037l-0.096,-0.037l-0.097,-0.037l-0.097,-0.036l-0.097,-0.036l-0.097,-0.036l-0.097,-0.036l-0.098,-0.035l-0.097,-0.035l-0.098,-0.035l-0.098,-0.034l-0.098,-0.035l-0.099,-0.034l-0.098,-0.033l-0.099,-0.034l-0.098,-0.033l-0.099,-0.032l-17.57,65.151Z" style="fill:#18001f;"/><path id="Alfa" d="M10.666,11.933c0,0 -0.229,0.372 -0.476,0.788c-0.945,1.594 -2.577,4.68 -3.445,7.505c-0.775,2.524 -1.625,2.471 -2.813,-0.055c-2.246,-4.778 -2.149,-13.15 -1.197,-16.989c0.627,-2.527 0.994,-3.075 2.187,-1.171c1.058,1.687 4.347,6.775 5.305,8.375c0.133,0.222 0.265,0.439 0.397,0.651c2.276,3.664 4.4,5.913 6.224,7.323c5.587,4.32 7.369,1.476 7.369,1.476c0,0 0.04,1.05 -1.985,1.373c-5.098,0.813 -9.341,-5.509 -11.566,-9.276Zm-0.272,-0.465c0,0 -0.158,-0.272 -0.341,-0.591c-1.935,-3.377 -3.541,-5.741 -5.286,-8.075c-0.596,-0.797 -1.145,-0.984 -1.481,0.232c-1.017,3.678 -0.931,11.371 0.738,16.488c0.606,1.856 1.535,1.822 2.308,0.182c0.849,-1.803 2.299,-5.067 3.594,-7.408c0.122,-0.219 0.314,-0.558 0.468,-0.828Zm0.239,-0.418c5.204,-8.961 9.089,-10.77 11.33,-10.762c1.956,0.006 2.13,0.782 2.13,0.782c0,0 -0.226,-0.401 -1.711,-0.299c-1.897,0.129 -6.111,2.163 -11.458,10.742" style="stroke:#000;stroke-width:0.24px;"/></g><defs><radialGradient id="_Radial1" cx="0" cy="0" r="1" gradientUnits="userSpaceOnUse" gradientTransform="matrix(33.7915,0,0,33.7915,37.8776,46.3769)"><stop offset="0" style="stop-color:#582a2a;stop-opacity:1"/><stop offset="0.6" style="stop-color:#4e2323;stop-opacity:1"/><stop offset="0.81" style="stop-color:#371212;stop-opacity:1"/><stop offset="1" style="stop-color:#1f0000;stop-opacity:1"/></radialGradient><radialGradient id="_Radial2" cx="0" cy="0" r="1" gradientUnits="userSpaceOnUse" gradientTransform="matrix(24.9564,6.89051,-6.89051,24.9564,39.8599,44.8866)"><stop offset="0" style="stop-color:#4f2a58;stop-opacity:1"/><stop offset="0.62" style="stop-color:#46234f;stop-opacity:1"/><stop offset="0.82" style="stop-color:#301238;stop-opacity:1"/><stop offset="1" style="stop-color:#18001f;stop-opacity:1"/></radialGradient></defs></svg>