<?xml version="1.0" encoding="UTF-8" standalone="no"?><!DOCTYPE svg PUBLIC "-//W3C//DTD SVG 1.1//EN" "http://www.w3.org/Graphics/SVG/1.1/DTD/svg11.dtd"><svg width="100%" height="100%" viewBox="0 0 170 170" version="1.1" xmlns="http://www.w3.org/2000/svg" xmlns:xlink="http://www.w3.org/1999/xlink" xml:space="preserve" xmlns:serif="http://www.serif.com/" style="fill-rule:evenodd;clip-rule:evenodd;stroke-linecap:square;stroke-linejoin:round;stroke-miterlimit:1.5;"><g id="Alfa-PlayerCard" serif:id="Alfa PlayerCard"><path d="M14.131,0.697c-7.418,0.006 -13.435,6.033 -13.429,13.451l0.111,141.12c0.005,7.417 6.032,13.435 13.45,13.429l141.12,-0.111c7.418,-0.006 13.435,-6.033 13.429,-13.451l-0.11,-141.119c-0.006,-7.418 -6.033,-13.436 -13.451,-13.43l-141.12,0.111Z" style="fill:url(#_Linear1);stroke:#00191f;stroke-width:1px;"/><path id="Alfa" d="M24.503,65.723c0,0 -0.228,0.372 -0.475,0.788c-0.946,1.594 -2.578,4.68 -3.445,7.505c-0.776,2.524 -1.626,2.471 -2.813,-0.054c-2.247,-4.779 -2.149,-13.151 -1.197,-16.99c0.626,-2.527 0.993,-3.075 2.187,-1.171c1.057,1.687 4.347,6.776 5.305,8.375c0.132,0.222 0.265,0.439 0.397,0.651c2.275,3.664 4.399,5.913 6.224,7.324c5.586,4.319 7.369,1.475 7.369,1.475c0,0 0.04,1.05 -1.985,1.373c-5.098,0.813 -9.341,-5.509 -11.567,-9.276Zm-0.272,-0.464c0,0 -0.158,-0.273 -0.341,-0.592c-1.935,-3.377 -3.54,-5.741 -5.285,-8.075c-0.597,-0.797 -1.146,-0.984 -1.482,0.232c-1.017,3.678 -0.931,11.371 0.739,16.488c0.605,1.856 1.534,1.822 2.307,0.182c0.85,-1.803 2.299,-5.067 3.595,-7.408c0.121,-0.219 0.314,-0.558 0.467,-0.827Zm0.239,-0.419c5.204,-8.961 9.09,-10.77 11.331,-10.762c1.956,0.007 2.13,0.782 2.13,0.782c0,0 -0.226,-0.401 -1.712,-0.299c-1.897,0.129 -6.11,2.163 -11.457,10.743" style="stroke:#000;stroke-width:0.24px;stroke-linecap:round;"/><g id="Research"><g id="Caffeine"><g id="Cafeeine_base"><path d="M92.415,74.364l21.947,0.544l10.503,19.278l-11.444,18.735l-21.947,-0.544l-10.503,-19.278l11.444,-18.735Z" style="fill:none;stroke:#18001f;stroke-width:1.5px;stroke-linecap:round;"/><path d="M114.362,74.908l14.359,-23.453" style="fill:none;stroke:#18001f;stroke-width:1.5px;stroke-linecap:round;"/><path d="M59.376,97.093l21.558,-3.959l10.569,19.298l-15.025,15.886l-19.856,-9.48l2.754,-21.745Z" style="fill:none;stroke:#18001f;stroke-width:1.5px;stroke-linecap:round;"/><path d="M79.235,95.379l9.378,16.542" style="fill:none;stroke:#18001f;stroke-width:1.5px;stroke-linecap:round;"/><path d="M56.593,121.292l17.36,8.401" style="fill:none;stroke:#18001f;stroke-width:1.5px;stroke-linecap:round;"/><path d="M91.474,75.906l-6.849,-12.622" style="fill:none;stroke:#18001f;stroke-width:1.5px;stroke-linecap:round;"/><path d="M94.221,74.409l-6.87,-12.61" style="fill:none;stroke:#18001f;stroke-width:1.5px;stroke-linecap:round;"/><path d="M113.557,112.847l7.842,14.395" style="fill:none;stroke:#18001f;stroke-width:1.5px;stroke-linecap:round;"/><path d="M59.376,97.093l-11.909,-10.85" style="fill:none;stroke:#18001f;stroke-width:1.5px;stroke-linecap:round;"/><path d="M123.935,95.708l14.414,0.574" style="fill:none;stroke:#18001f;stroke-width:1.5px;stroke-linecap:round;"/><path d="M124.004,92.589l14.246,0.358" style="fill:none;stroke:#18001f;stroke-width:1.5px;stroke-linecap:round;"/></g><g id="Nitrogen"><path d="M111.231,108.902c2.218,-1.208 5,-0.388 6.208,1.83c1.208,2.217 0.389,4.999 -1.829,6.207c-2.218,1.209 -5,0.389 -6.208,-1.829c-1.208,-2.218 -0.388,-4.999 1.829,-6.208Z" style="fill:#f7f2e8;stroke:#18001f;stroke-width:1px;stroke-linecap:round;"/><g transform="matrix(0.878141,-0.478401,0.478401,0.878141,-31.728,-8.77035)"><text x="67.664px" y="179.265px" style="font-family:'ArialMT', 'Arial', sans-serif;font-size:8.28px;stroke:#000;stroke-width:0.24px;stroke-linecap:butt;stroke-miterlimit:2;">N</text></g></g><g id="Oxygen"><path d="M81.599,54.51c2.218,-1.208 5,-0.388 6.208,1.83c1.208,2.217 0.388,4.999 -1.829,6.207c-2.218,1.209 -5,0.389 -6.208,-1.829c-1.208,-2.218 -0.389,-4.999 1.829,-6.208Z" style="fill:#f7f2e8;stroke:#18001f;stroke-width:1px;stroke-linecap:round;"/><g transform="matrix(0.878141,-0.478401,0.478401,0.878141,-33.5876,-52.0055)"><text x="47.35px" y="156.055px" style="font-family:'ArialMT', 'Arial', sans-serif;font-size:7.922px;stroke:#000;stroke-width:0.24px;stroke-linecap:butt;stroke-miterlimit:2;">O</text></g></g><g id="Oxygen1" serif:id="Oxygen"><path d="M139.243,90.633c2.218,-1.208 5,-0.389 6.208,1.829c1.208,2.218 0.388,4.999 -1.829,6.208c-2.218,1.208 -5,0.388 -6.208,-1.83c-1.208,-2.217 -0.389,-4.999 1.829,-6.207Z" style="fill:#f7f2e8;stroke:#18001f;stroke-width:1px;stroke-linecap:round;"/><g transform="matrix(0.878141,-0.478401,0.478401,0.878141,-43.8442,-20.0267)"><text x="104.994px" y="192.177px" style="font-family:'ArialMT', 'Arial', sans-serif;font-size:7.922px;stroke:#000;stroke-width:0.24px;stroke-linecap:butt;stroke-miterlimit:2;">O</text></g></g><g id="Nitrogen1" serif:id="Nitrogen"><path d="M112.18,70.885c2.218,-1.208 5,-0.388 6.208,1.83c1.208,2.218 0.389,4.999 -1.829,6.207c-2.218,1.209 -5,0.389 -6.208,-1.829c-1.208,-2.218 -0.389,-4.999 1.829,-6.208Z" style="fill:#f7f2e8;stroke:#18001f;stroke-width:1px;stroke-linecap:round;"/><g transform="matrix(0.878141,-0.478401,0.478401,0.878141,-13.425,-12.949)"><text x="68.613px" y="141.248px" style="font-family:'ArialMT', 'Arial', sans-serif;font-size:8.28px;stroke:#000;stroke-width:0.24px;stroke-linecap:butt;stroke-miterlimit:2;">N</text></g></g><g id="Nitrogen2" serif:id="Nitrogen"><path d="M57.187,93.075c2.218,-1.209 4.999,-0.389 6.207,1.829c1.209,2.218 0.389,4.999 -1.829,6.207c-2.218,1.209 -4.999,0.389 -6.207,-1.829c-1.209,-2.218 -0.389,-4.999 1.829,-6.207Z" style="fill:#f7f2e8;stroke:#18001f;stroke-width:1px;stroke-linecap:round;"/><g transform="matrix(0.878141,-0.478401,0.478401,0.878141,-30.7417,-36.5541)"><text x="13.619px" y="163.437px" style="font-family:'ArialMT', 'Arial', sans-serif;font-size:8.28px;stroke:#000;stroke-width:0.24px;stroke-linecap:butt;stroke-miterlimit:2;">N</text></g></g><g id="Nitrogen3" serif:id="Nitrogen"><path d="M74.218,124.337c2.218,-1.208 5,-0.388 6.208,1.83c1.208,2.217 0.389,4.999 -1.829,6.207c-2.218,1.209 -5,0.389 -6.208,-1.829c-1.208,-2.218 -0.388,-4.999 1.829,-6.208Z" style="fill:#f7f2e8;stroke:#18001f;stroke-width:1px;stroke-linecap:round;"/><g transform="matrix(0.878141,-0.478401,0.478401,0.878141,-43.6224,-24.5965)"><text x="30.651px" y="194.7px" style="font-family:'ArialMT', 'Arial', sans-serif;font-size:8.28px;stroke:#000;stroke-width:0.24px;stroke-linecap:butt;stroke-miterlimit:2;">N</text></g></g><g><path d="M134.588,50.596c-0.406,0.77 -1.036,1.433 -1.857,1.88c-2.218,1.209 -4.999,0.389 -6.208,-1.829c-1.208,-2.218 -0.388,-4.999 1.83,-6.208c1.814,-0.988 4.006,-0.619 5.405,0.762c0.224,-0.224 0.484,-0.42 0.776,-0.58c1.641,-0.894 3.699,-0.287 4.593,1.354c0.894,1.641 0.288,3.699 -1.353,4.592c-1.028,0.561 -2.22,0.532 -3.186,0.029Z" style="fill:#f7f2e8;stroke:#18001f;stroke-width:1px;stroke-linecap:round;"/><g transform="matrix(0.878141,-0.478401,0.478401,0.878141,-10.0424,17.2994)"><text x="111.925px" y="97.892px" style="font-family:'ArialMT', 'Arial', sans-serif;font-size:4.743px;stroke:#000;stroke-width:0.24px;stroke-linecap:butt;stroke-miterlimit:2;">H</text></g><g transform="matrix(0.878141,-0.478401,0.478401,0.878141,-4.88809,-62.8422)"><text x="71.655px" y="166.951px" style="font-family:'ArialMT', 'Arial', sans-serif;font-size:2.748px;stroke:#000;stroke-width:0.24px;stroke-linecap:butt;stroke-miterlimit:2;">3</text></g><g transform="matrix(0.878141,-0.478401,0.478401,0.878141,-23.0723,-30.8659)"><text x="94.103px" y="145.984px" style="font-family:'ArialMT', 'Arial', sans-serif;font-size:7.922px;stroke:#000;stroke-width:0.24px;stroke-linecap:butt;stroke-miterlimit:2;">C</text></g></g><g><path d="M50.443,85.733c-0.406,0.77 -1.035,1.433 -1.856,1.881c-2.218,1.208 -5,0.388 -6.208,-1.829c-1.208,-2.218 -0.388,-5 1.829,-6.208c1.815,-0.989 4.007,-0.62 5.406,0.762c0.224,-0.225 0.484,-0.421 0.776,-0.58c1.641,-0.894 3.699,-0.288 4.593,1.353c0.894,1.641 0.287,3.699 -1.353,4.593c-1.028,0.56 -2.22,0.531 -3.187,0.028Z" style="fill:#f7f2e8;stroke:#18001f;stroke-width:1px;stroke-linecap:round;"/><g transform="matrix(0.878141,-0.478401,0.478401,0.878141,-37.1059,-18.6735)"><text x="27.781px" y="133.029px" style="font-family:'ArialMT', 'Arial', sans-serif;font-size:4.743px;stroke:#000;stroke-width:0.24px;stroke-linecap:butt;stroke-miterlimit:2;">H</text></g><g transform="matrix(0.878141,-0.478401,0.478401,0.878141,-31.9516,-98.8152)"><text x="-12.49px" y="202.088px" style="font-family:'ArialMT', 'Arial', sans-serif;font-size:2.748px;stroke:#000;stroke-width:0.24px;stroke-linecap:butt;stroke-miterlimit:2;">3</text></g><g transform="matrix(0.878141,-0.478401,0.478401,0.878141,-50.1358,-66.8388)"><text x="9.959px" y="181.121px" style="font-family:'ArialMT', 'Arial', sans-serif;font-size:7.922px;stroke:#000;stroke-width:0.24px;stroke-linecap:butt;stroke-miterlimit:2;">C</text></g></g><g><path d="M126.744,131.766c-0.406,0.77 -1.035,1.433 -1.856,1.88c-2.218,1.209 -5,0.389 -6.208,-1.829c-1.208,-2.218 -0.389,-4.999 1.829,-6.208c1.815,-0.988 4.007,-0.619 5.406,0.762c0.224,-0.224 0.483,-0.42 0.776,-0.58c1.641,-0.894 3.699,-0.287 4.593,1.354c0.894,1.641 0.287,3.699 -1.354,4.593c-1.028,0.56 -2.219,0.531 -3.186,0.028Z" style="fill:#f7f2e8;stroke:#18001f;stroke-width:1px;stroke-linecap:round;"/><g transform="matrix(0.878141,-0.478401,0.478401,0.878141,-49.83,23.4383)"><text x="104.081px" y="179.062px" style="font-family:'ArialMT', 'Arial', sans-serif;font-size:4.743px;stroke:#000;stroke-width:0.24px;stroke-linecap:butt;stroke-miterlimit:2;">H</text></g><g transform="matrix(0.878141,-0.478401,0.478401,0.878141,-44.6757,-56.7033)"><text x="63.811px" y="248.121px" style="font-family:'ArialMT', 'Arial', sans-serif;font-size:2.748px;stroke:#000;stroke-width:0.24px;stroke-linecap:butt;stroke-miterlimit:2;">3</text></g><g transform="matrix(0.878141,-0.478401,0.478401,0.878141,-62.8599,-24.7269)"><text x="86.26px" y="227.154px" style="font-family:'ArialMT', 'Arial', sans-serif;font-size:7.922px;stroke:#000;stroke-width:0.24px;stroke-linecap:butt;stroke-miterlimit:2;">C</text></g></g></g><g id="Erlenmeyer"><path d="M101.289,99.616l-9.313,-0.018c-2.894,-0.138 -2.905,-3.875 -0.085,-3.752l16.151,-0.063c2.472,0 2.353,3.73 0.064,3.73l-1.498,0.103l0.155,12.703l12.703,30.208c1.509,4.858 -0.503,7.076 -3.408,8.624c-10.268,3.145 -20.694,3.289 -31.293,0.155c-3.201,-1.731 -5.483,-3.8 -4.492,-7.075l12.909,-31.705l0.132,-12.926" style="fill:#d4f9ff;stroke:#18001f;stroke-width:1.35px;stroke-linejoin:miter;"/><path d="M89.205,131.444c2.992,-0.317 7.234,0.659 9.626,1.372c3.058,0.911 10.328,2.759 12.187,-0.05l3.412,8.28c1.623,3.535 2.782,5.781 -2.086,7.313c-6.609,1.395 -16.574,1.633 -23.834,0.419c-4.832,-0.866 -5.356,-3.342 -3.462,-7.652l4.157,-9.682" style="fill:url(#_Linear2);"/><circle cx="94.534" cy="137.664" r="2.479" style="fill:url(#_Radial3);"/><circle cx="105.916" cy="141.538" r="2.175" style="fill:url(#_Radial4);"/><circle cx="99.108" cy="146.019" r="1.395" style="fill:url(#_Linear5);"/><circle cx="102.876" cy="127.152" r="2.386" style="fill:url(#_Linear6);stroke:#18001f;stroke-width:0.97px;stroke-linejoin:miter;"/><circle cx="97.057" cy="119.482" r="1.672" style="fill:url(#_Linear7);stroke:#18001f;stroke-width:1px;stroke-linejoin:miter;"/></g></g></g><defs><linearGradient id="_Linear1" x1="0" y1="0" x2="1" y2="0" gradientUnits="userSpaceOnUse" gradientTransform="matrix(-0.132106,-168,168,-0.132106,84.8231,168.642)"><stop offset="0" style="stop-color:#1f0000;stop-opacity:1"/><stop offset="0.09" style="stop-color:#371212;stop-opacity:1"/><stop offset="0.2" style="stop-color:#4e2323;stop-opacity:1"/><stop offset="0.5" style="stop-color:#582a2a;stop-opacity:1"/><stop offset="0.8" style="stop-color:#4e2323;stop-opacity:1"/><stop offset="0.91" style="stop-color:#361212;stop-opacity:1"/><stop offset="1" style="stop-color:#1e0000;stop-opacity:1"/></linearGradient><linearGradient id="_Linear2" x1="0" y1="0" x2="1" y2="0" gradientUnits="userSpaceOnUse" gradientTransform="matrix(31.8051,0,0,18.1799,84.0287,140.472)"><stop offset="0" style="stop-color:#00191f;stop-opacity:1"/><stop offset="0.09" style="stop-color:#123037;stop-opacity:1"/><stop offset="0.2" style="stop-color:#23464e;stop-opacity:1"/><stop offset="0.5" style="stop-color:#2a5058;stop-opacity:1"/><stop offset="0.8" style="stop-color:#23464e;stop-opacity:1"/><stop offset="0.91" style="stop-color:#123037;stop-opacity:1"/><stop offset="1" style="stop-color:#00191f;stop-opacity:1"/></linearGradient><radialGradient id="_Radial3" cx="0" cy="0" r="1" gradientUnits="userSpaceOnUse" gradientTransform="matrix(4.95729,0,0,4.95729,92.0557,137.664)"><stop offset="0" style="stop-color:#fff;stop-opacity:1"/><stop offset="0.55" style="stop-color:#f7f7f7;stop-opacity:1"/><stop offset="1" style="stop-color:#d9d9d9;stop-opacity:1"/></radialGradient><radialGradient id="_Radial4" cx="0" cy="0" r="1" gradientUnits="userSpaceOnUse" gradientTransform="matrix(2.1746,0,0,2.1746,105.916,141.538)"><stop offset="0" style="stop-color:#fff;stop-opacity:1"/><stop offset="0.55" style="stop-color:#f7f7f7;stop-opacity:1"/><stop offset="1" style="stop-color:#d9d9d9;stop-opacity:1"/></radialGradient><linearGradient id="_Linear5" x1="0" y1="0" x2="1" y2="0" gradientUnits="userSpaceOnUse" gradientTransform="matrix(2.7893,0,0,2.7893,97.7136,146.019)"><stop offset="0" style="stop-color:#7c715a;stop-opacity:1"/><stop offset="0.09" style="stop-color:#afa795;stop-opacity:1"/><stop offset="0.2" style="stop-color:#e1dbcf;stop-opacity:1"/><stop offset="0.5" style="stop-color:#f7f2e8;stop-opacity:1"/><stop offset="0.8" style="stop-color:#e1dbcf;stop-opacity:1"/><stop offset="0.91" style="stop-color:#afa695;stop-opacity:1"/><stop offset="1" style="stop-color:#7c7059;stop-opacity:1"/></linearGradient><linearGradient id="_Linear6" x1="0" y1="0" x2="1" y2="0" gradientUnits="userSpaceOnUse" gradientTransform="matrix(4.77222,0,0,4.77222,100.49,127.152)"><stop offset="0" style="stop-color:#7c715a;stop-opacity:1"/><stop offset="0.09" style="stop-color:#afa795;stop-opacity:1"/><stop offset="0.2" style="stop-color:#e1dbcf;stop-opacity:1"/><stop offset="0.5" style="stop-color:#f7f2e8;stop-opacity:1"/><stop offset="0.8" style="stop-color:#e1dbcf;stop-opacity:1"/><stop offset="0.91" style="stop-color:#afa695;stop-opacity:1"/><stop offset="1" style="stop-color:#7c7059;stop-opacity:1"/></linearGradient><linearGradient id="_Linear7" x1="0" y1="0" x2="1" y2="0" gradientUnits="userSpaceOnUse" gradientTransform="matrix(3.34452,0,0,3.34452,95.3844,119.482)"><stop offset="0" style="stop-color:#7c715a;stop-opacity:1"/><stop offset="0.09" style="stop-color:#afa795;stop-opacity:1"/><stop offset="0.2" style="stop-color:#e1dbcf;stop-opacity:1"/><stop offset="0.5" style="stop-color:#f7f2e8;stop-opacity:1"/><stop offset="0.8" style="stop-color:#e1dbcf;stop-opacity:1"/><stop offset="0.91" style="stop-color:#afa695;stop-opacity:1"/><stop offset="1" style="stop-color:#7c7059;stop-opacity:1"/></linearGradient></defs></svg>