<?xml version="1.0" encoding="UTF-8" standalone="no"?><!DOCTYPE svg PUBLIC "-//W3C//DTD SVG 1.1//EN" "http://www.w3.org/Graphics/SVG/1.1/DTD/svg11.dtd"><svg width="100%" height="100%" viewBox="0 0 172 172" version="1.1" xmlns="http://www.w3.org/2000/svg" xmlns:xlink="http://www.w3.org/1999/xlink" xml:space="preserve" xmlns:serif="http://www.serif.com/" style="fill-rule:evenodd;clip-rule:evenodd;stroke-linecap:square;stroke-linejoin:round;stroke-miterlimit:1.5;"><g id="Back-InfectionCard" serif:id="Back InfectionCard"><path d="M15.092,1.723c-7.418,0.006 -13.435,6.033 -13.429,13.451l0.11,141.12c0.006,7.418 6.033,13.435 13.451,13.429l141.12,-0.111c7.418,-0.006 13.435,-6.033 13.429,-13.45l-0.111,-141.12c-0.005,-7.418 -6.032,-13.436 -13.45,-13.43l-141.12,0.111Z" style="fill:url(#_Radial1);stroke:#00191f;stroke-width:3px;"/><path d="M62.928,80.22c-2.71,-4.452 -4.283,-9.747 -4.283,-15.428c0,-15.75 12.09,-28.542 26.997,-28.585c-12.591,0.041 -22.801,10.276 -22.801,22.877c0,7.25 3.38,13.717 8.648,17.91l0,0l0.057,0.044l-0.057,-0.044c3.811,-3.314 8.788,-5.32 14.229,-5.32c5.441,0 10.418,2.006 14.229,5.32l-0.057,0.044l0.057,-0.044l0,0c5.268,-4.193 8.648,-10.66 8.648,-17.91c0,-12.601 -10.21,-22.836 -22.801,-22.877c14.907,0.043 26.997,12.835 26.997,28.585c0,5.681 -1.573,10.976 -4.283,15.428c5.21,-0.122 10.583,1.164 15.502,4.005c13.64,7.875 18.673,24.741 11.257,37.672c6.26,-10.925 2.501,-24.884 -8.411,-31.185c-6.279,-3.625 -13.569,-3.931 -19.835,-1.465l0,0l-0.067,0.027l0.067,-0.027c0.964,4.957 0.214,10.27 -2.507,14.983c-2.72,4.712 -6.947,8.018 -11.721,9.662l-0.011,-0.071l0.011,0.071l0,0c0.996,6.659 4.907,12.82 11.186,16.445c10.912,6.3 24.881,2.576 31.212,-8.308c-7.491,12.888 -24.614,16.962 -38.254,9.087c-4.919,-2.84 -8.719,-6.85 -11.219,-11.423c-2.5,4.573 -6.3,8.583 -11.219,11.423c-13.64,7.875 -30.763,3.801 -38.254,-9.087c6.331,10.884 20.3,14.608 31.212,8.308c6.279,-3.625 10.19,-9.786 11.186,-16.445l0,0l0.011,-0.071l-0.011,0.071c-4.774,-1.644 -9.001,-4.95 -11.721,-9.662c-2.721,-4.713 -3.471,-10.026 -2.507,-14.983l0.067,0.027l-0.067,-0.027l0,0c-6.266,-2.466 -13.556,-2.16 -19.835,1.465c-10.912,6.301 -14.671,20.26 -8.411,31.185c-7.416,-12.931 -2.383,-29.797 11.257,-37.672c4.919,-2.841 10.292,-4.127 15.502,-4.005Zm15.735,33.536l0.001,-0.006l-0.007,0.052l0.006,-0.046Zm14.116,0.046l-0.007,-0.052l0.001,0.006l0.006,0.046Zm-14.106,-0.115l0.001,-0.008l-0.006,0.046l0.005,-0.038Zm14.095,0.037l-0.006,-0.045l0.001,0.008l0.005,0.037Zm-14.085,-0.105l0.001,-0.011l-0.006,0.044l0.005,-0.033Zm14.075,0.032l-0.006,-0.043l0.001,0.011l0.005,0.032Zm-14.066,-0.1l0.002,-0.015l-0.006,0.043l0.004,-0.028Zm14.056,0.028l-0.006,-0.042l0.002,0.014l0.004,0.028Zm-14.047,-0.096l0.002,-0.018l-0.005,0.043l0.003,-0.025Zm14.037,0.024l-0.005,-0.041l0.002,0.017l0.003,0.024Zm-14.028,-0.092l0.002,-0.021l-0.005,0.042l0.003,-0.021Zm14.019,0.021l-0.005,-0.042l0.002,0.021l0.003,0.021Zm-14.011,-0.089l0.003,-0.025l-0.005,0.043l0.002,-0.018Zm14.002,0.017l-0.005,-0.041l0.003,0.024l0.002,0.017Zm-13.993,-0.085l0.003,-0.03l-0.005,0.044l0.002,-0.014Zm13.984,0.014l-0.005,-0.042l0.003,0.028l0.002,0.014Zm-13.976,-0.083l0.004,-0.034l-0.005,0.046l0.001,-0.012Zm13.967,0.012l-0.005,-0.044l0.004,0.032l0.001,0.012Zm-13.959,-0.08l0.005,-0.041l-0.006,0.05l0.001,-0.009Zm13.951,0.008l-0.006,-0.046l0.005,0.038l0.001,0.008Zm-13.943,-0.076l0.006,-0.054l-0.007,0.06l0.001,-0.006Zm13.935,0.005l-0.006,-0.055l0.005,0.05l0.001,0.005Zm-13.92,-0.146l0,0.003l0,0.001l0,-0.001l0,-0.003Zm13.904,0.001l-0.008,-0.069l0.001,0.004l0.007,0.065Zm-13.89,-0.134l0.001,-0.007l-0.006,0.054l0.005,-0.047Zm13.88,0.044l-0.005,-0.051l0.001,0.007l0.004,0.044Zm-13.873,-0.112l0.001,-0.011l-0.005,0.049l0.004,-0.038Zm13.866,0.035l-0.005,-0.045l0.001,0.01l0.004,0.035Zm-13.859,-0.104l0.001,-0.013l-0.005,0.046l0.004,-0.033Zm13.851,0.031l-0.004,-0.044l0.001,0.013l0.003,0.031Zm-13.845,-0.099l0.002,-0.017l-0.005,0.045l0.003,-0.028Zm13.838,0.026l-0.004,-0.042l0.002,0.016l0.002,0.026Zm-13.832,-0.095l0.002,-0.02l-0.004,0.045l0.002,-0.025Zm13.826,0.023l-0.004,-0.042l0.002,0.019l0.002,0.023Zm-13.82,-0.091l0.002,-0.024l-0.004,0.045l0.002,-0.021Zm13.813,0.019l-0.003,-0.042l0.002,0.023l0.001,0.019Zm-13.807,-0.088l0.002,-0.028l-0.003,0.046l0.001,-0.018Zm13.801,0.017l-0.003,-0.043l0.002,0.026l0.001,0.017Zm-13.795,-0.086l0.002,-0.032l-0.004,0.047l0.002,-0.015Zm13.789,0.014l-0.003,-0.044l0.002,0.03l0.001,0.014Zm-13.784,-0.082l0.003,-0.038l-0.004,0.049l0.001,-0.011Zm13.779,0.01l-0.004,-0.045l0.003,0.035l0.001,0.01Zm-13.774,-0.079l0.004,-0.047l-0.004,0.056l0,-0.009Zm13.768,0.008l-0.003,-0.05l0.003,0.042l0,0.008Zm-0.005,-0.072l-0.004,-0.065l0.004,0.06l0,0.005Zm-13.753,-0.074l0,0.002l-0.001,0.005l0.001,-0.004l0,-0.003Zm0.009,-0.137l0,-0.006l-0.004,0.07l0.004,-0.064Zm13.734,0.056l-0.004,-0.061l0,0.005l0.004,0.056Zm-13.73,-0.124l0,-0.009l-0.003,0.054l0.003,-0.045Zm13.725,0.041l-0.003,-0.05l0,0.009l0.003,0.041Zm-13.721,-0.11l0.001,-0.012l-0.003,0.049l0.002,-0.037Zm13.716,0.034l-0.003,-0.045l0.001,0.011l0.002,0.034Zm-13.712,-0.103l0,-0.015l-0.002,0.047l0.002,-0.032Zm13.708,0.03l-0.002,-0.044l0,0.014l0.002,0.03Zm-13.705,-0.099l0.001,-0.018l-0.002,0.046l0.001,-0.028Zm13.701,0.026l-0.002,-0.043l0.001,0.017l0.001,0.026Zm-13.698,-0.095l0.001,-0.022l-0.002,0.046l0.001,-0.024Zm13.695,0.023l-0.002,-0.043l0.001,0.02l0.001,0.023Zm-13.691,-0.092l0.001,-0.025l-0.002,0.046l0.001,-0.021Zm13.687,0.019l-0.002,-0.043l0.001,0.024l0.001,0.019Zm-13.685,-0.087l0.002,-0.03l-0.002,0.046l0,-0.016Zm13.682,0.015l-0.002,-0.043l0.001,0.028l0.001,0.015Zm-13.679,-0.084l0.001,-0.035l-0.001,0.048l0,-0.013Zm13.676,0.012l-0.001,-0.045l0.001,0.033l0,0.012Zm-13.673,-0.081l0.001,-0.042l-0.002,0.052l0.001,-0.01Zm13.671,0.009l-0.002,-0.048l0.001,0.039l0.001,0.009Zm-13.669,-0.078l0.002,-0.054l-0.002,0.061l0,-0.007Zm13.666,0.007l-0.001,-0.055l0.001,0.048l0,0.007Zm-0.004,-0.148l0,0.003l0,0.004l0,-0.004l0,-0.003Zm-13.658,0.001l0,0.002l0,0.003l0,-0.003l0,-0.002Zm0.003,-0.136l0,-0.007l-0.001,0.063l0.001,-0.056Zm13.653,0.051l-0.001,-0.058l0,0.007l0.001,0.051Zm-13.652,-0.12l0,-0.01l-0.001,0.053l0.001,-0.043Zm13.65,0.04l0,-0.05l0,0.01l0,0.04Zm-13.649,-0.109l0,-0.014l0,0.05l0,-0.036Zm13.648,0.034l0,-0.047l0,0.013l0,0.034Zm-13.647,-0.103l0,-0.017l0,0.048l0,-0.031Zm13.646,0.029l0,-0.045l0,0.016l0,0.029Zm-13.645,-0.098l0,-0.02l0,0.046l0,-0.026Zm13.644,0.025l0,-0.044l0,0.019l0,0.025Zm-13.644,-0.094l0,-0.024l0,0.047l0,-0.023Zm13.644,0.021l0,-0.044l0,0.023l0,0.021Zm-13.644,-0.09l0,-0.028l0,0.047l0,-0.019Zm13.644,0.018l0,-0.044l0,0.026l0,0.018Zm-13.644,-0.087l0,-0.032l0,0.048l0,-0.016Zm13.644,0.015l0,-0.046l0,0.031l0,0.015Zm-13.644,-0.084l0,-0.038l0,0.05l0,-0.012Zm13.644,0.012l0,-0.048l0,0.036l0,0.012Zm-13.644,-0.082l-0.001,-0.045l0.001,0.055l0,-0.01Zm13.644,0.01l0.001,-0.052l-0.001,0.042l0,0.01Zm-13.645,-0.079l-0.001,-0.062l0.001,0.069l0,-0.007Zm13.646,0.006l0.001,-0.063l-0.001,0.057l0,0.006Zm0.002,-0.15l0,0.005l0,0.003l0,-0.003l0,-0.005Zm-13.65,0.005l0,0l-0.001,-0.073l0.001,0.073Zm-0.003,-0.137l0,-0.009l0.002,0.06l-0.002,-0.051Zm13.654,0.048l0.002,-0.056l-0.001,0.008l-0.001,0.048Zm-13.655,-0.117l0,-0.012l0.001,0.052l-0.001,-0.04Zm13.657,0.039l0.001,-0.05l0,0.011l-0.001,0.039Zm-13.659,-0.108l-0.001,-0.015l0.002,0.049l-0.001,-0.034Zm13.661,0.033l0.001,-0.048l0,0.015l-0.001,0.033Zm-13.663,-0.103l-0.001,-0.018l0.002,0.048l-0.001,-0.03Zm13.665,0.029l0.002,-0.046l-0.001,0.017l-0.001,0.029Zm-13.667,-0.098l-0.001,-0.021l0.001,0.047l0,-0.026Zm13.67,0.025l0.001,-0.046l-0.001,0.021l0,0.025Zm-13.673,-0.094l-0.001,-0.025l0.002,0.047l-0.001,-0.022Zm13.675,0.021l0.002,-0.046l-0.001,0.025l-0.001,0.021Zm-13.678,-0.09l-0.001,-0.029l0.002,0.047l-0.001,-0.018Zm13.681,0.018l0.002,-0.047l-0.001,0.029l-0.001,0.018Zm-13.684,-0.087l-0.001,-0.034l0.002,0.049l-0.001,-0.015Zm13.687,0.014l0.002,-0.048l-0.001,0.034l-0.001,0.014Zm-13.69,-0.084l-0.002,-0.04l0.003,0.052l-0.001,-0.012Zm13.693,0.012l0.003,-0.051l-0.002,0.039l-0.001,0.012Zm-13.696,-0.081l-0.003,-0.05l0.003,0.059l0,-0.009Zm13.7,0.009l0.003,-0.058l-0.003,0.049l0,0.009Zm0.007,-0.145l-0.004,0.073l0.004,-0.074l0,0.001Zm-13.716,-0.026l0.001,0.02l0,-0.003l-0.001,-0.017l-0.003,-0.049l0,0l0.003,0.049Zm12.772,-19.234c-1.061,-1.829 -2.947,-3.122 -5.147,-3.368l0,-4.641c3.39,-0.112 6.594,-0.963 9.457,-2.397c-2.88,-2.003 -6.411,-3.182 -10.223,-3.182c-3.812,0 -7.343,1.179 -10.223,3.182c2.863,1.434 6.067,2.285 9.457,2.397l0,4.641c-2.2,0.246 -4.086,1.539 -5.147,3.368l-0.003,0.004l-0.002,0.005c-1.054,1.833 -1.231,4.113 -0.344,6.141l-4.019,2.32c-1.792,-2.879 -4.131,-5.229 -6.803,-6.991c-0.295,3.496 0.449,7.143 2.355,10.445c1.906,3.301 4.693,5.769 7.867,7.261c-0.189,-3.195 -1.055,-6.396 -2.653,-9.387l4.02,-2.321c1.313,1.783 3.375,2.769 5.49,2.773l0.005,0l0.005,0c2.115,-0.004 4.177,-0.99 5.49,-2.773l4.02,2.321c-1.598,2.991 -2.464,6.192 -2.653,9.387c3.174,-1.492 5.961,-3.96 7.867,-7.261c1.906,-3.302 2.65,-6.949 2.355,-10.445c-2.673,1.762 -5.011,4.112 -6.803,6.991l-4.019,-2.32c0.887,-2.028 0.71,-4.308 -0.344,-6.141l-0.002,-0.005l-0.003,-0.004Zm11.226,1.443l-0.014,0.01l-0.041,0.026l0,0l0.041,-0.026l0.017,-0.012l-0.003,0.002Zm-34.285,-0.005l-0.001,0l-0.061,-0.04l0.062,0.04Zm34.407,-0.074l-0.042,0.027l0.05,-0.032l-0.008,0.005Zm-34.53,-0.005l0.049,0.032l-0.041,-0.027l-0.008,-0.005Zm34.588,-0.033l-0.033,0.022l0.043,-0.028l-0.01,0.006Zm-34.648,-0.006l0.043,0.028l-0.034,-0.022l-0.009,-0.006Zm34.707,-0.031l-0.029,0.018l0.041,-0.026l-0.012,0.008Zm-34.768,-0.008l0.04,0.026l-0.028,-0.018l-0.012,-0.008Zm34.826,-0.029l-0.024,0.015l0.04,-0.025l-0.016,0.01Zm-34.887,-0.01l0.039,0.025l-0.024,-0.015l-0.015,-0.01Zm34.946,-0.027l-0.021,0.013l0.039,-0.025l-0.018,0.012Zm-35.008,-0.012l0.039,0.025l-0.021,-0.013l-0.018,-0.012Zm35.066,-0.025l-0.018,0.011l0.04,-0.024l-0.022,0.013Zm-35.128,-0.013l0.039,0.024l-0.018,-0.011l-0.021,-0.013Zm35.187,-0.024l-0.015,0.01l0.04,-0.025l-0.025,0.015Zm-35.249,-0.015l0.04,0.025l-0.015,-0.01l-0.025,-0.015Zm35.308,-0.021l-0.012,0.008l0.041,-0.026l-0.029,0.018Zm-35.37,-0.017l0.04,0.024l-0.012,-0.007l-0.028,-0.017Zm35.429,-0.019l-0.01,0.006l0.045,-0.027l-0.035,0.021Zm-35.493,-0.021l0.042,0.027l-0.009,-0.006l-0.033,-0.021Zm35.552,-0.015l-0.007,0.004l0.051,-0.031l-0.044,0.027Zm-35.619,-0.025l0.048,0.029l-0.007,-0.004l-0.041,-0.025Zm35.736,-0.046l-0.062,0.038l0.063,-0.038l-0.001,0Zm-35.815,-0.002l0.002,0.002l0.005,0.002l-0.004,-0.002l-0.003,-0.002Zm35.935,-0.069l-0.054,0.031l0.06,-0.035l-0.006,0.004Zm-36.058,-0.004l0.055,0.033l-0.049,-0.029l-0.006,-0.004Zm36.118,-0.032l-0.04,0.024l0.048,-0.028l-0.008,0.004Zm-36.18,-0.004l0.045,0.026l-0.037,-0.022l-0.008,-0.004Zm36.239,-0.03l-0.032,0.018l0.043,-0.025l-0.011,0.007Zm-36.301,-0.007l0.041,0.024l-0.03,-0.017l-0.011,-0.007Zm36.361,-0.028l-0.028,0.016l0.042,-0.024l-0.014,0.008Zm-36.423,-0.008l0.039,0.023l-0.026,-0.015l-0.013,-0.008Zm36.483,-0.027l-0.024,0.014l0.041,-0.023l-0.017,0.009Zm-36.546,-0.009l0.039,0.022l-0.023,-0.013l-0.016,-0.009Zm36.606,-0.025l-0.021,0.012l0.041,-0.023l-0.02,0.011Zm-36.669,-0.011l0.039,0.022l-0.02,-0.011l-0.019,-0.011Zm36.729,-0.023l-0.018,0.01l0.041,-0.023l-0.023,0.013Zm-36.792,-0.013l0.039,0.022l-0.017,-0.009l-0.022,-0.013Zm36.852,-0.021l-0.015,0.008l0.042,-0.023l-0.027,0.015Zm-36.915,-0.015l0.039,0.022l-0.014,-0.007l-0.025,-0.015Zm36.975,-0.019l-0.012,0.007l0.044,-0.025l-0.032,0.018Zm-37.04,-0.016l0.041,0.022l-0.011,-0.006l-0.03,-0.016Zm37.1,-0.018l-0.009,0.005l0.047,-0.026l-0.038,0.021Zm-37.165,-0.019l0.043,0.024l-0.009,-0.005l-0.034,-0.019Zm37.226,-0.014l-0.006,0.003l0.055,-0.03l-0.049,0.027Zm-37.296,-0.024l0.05,0.027l-0.006,-0.003l-0.044,-0.024Zm-0.08,-0.044l0.003,0.002l0.002,0.001l-0.002,-0.002l-0.003,-0.001Zm37.499,0l-0.002,0.001l-0.002,0.001l0.002,0l0.002,-0.002Zm0.119,-0.064l-0.047,0.026l0.054,-0.029l-0.007,0.003Zm-37.742,-0.003l0.048,0.026l-0.042,-0.023l-0.006,-0.003Zm37.803,-0.029l-0.037,0.019l0.047,-0.024l-0.01,0.005Zm-37.867,-0.005l0.043,0.023l-0.034,-0.018l-0.009,-0.005Zm37.928,-0.028l-0.031,0.017l0.043,-0.023l-0.012,0.006Zm-37.991,-0.006l0.04,0.022l-0.029,-0.016l-0.011,-0.006Zm38.052,-0.026l-0.026,0.014l0.041,-0.022l-0.015,0.008Zm-38.116,-0.007l0.039,0.02l-0.025,-0.013l-0.014,-0.007Zm38.177,-0.025l-0.023,0.012l0.041,-0.021l-0.018,0.009Zm-38.241,-0.008l0.038,0.019l-0.021,-0.011l-0.017,-0.008Zm38.302,-0.023l-0.019,0.01l0.041,-0.021l-0.022,0.011Zm-38.366,-0.011l0.038,0.02l-0.018,-0.009l-0.02,-0.011Zm38.428,-0.021l-0.017,0.009l0.041,-0.022l-0.024,0.013Zm-38.493,-0.012l0.039,0.02l-0.016,-0.008l-0.023,-0.012Zm38.554,-0.019l-0.014,0.007l0.043,-0.022l-0.029,0.015Zm-38.619,-0.014l0.04,0.02l-0.013,-0.006l-0.027,-0.014Zm38.68,-0.018l-0.01,0.006l0.044,-0.022l-0.034,0.016Zm-38.745,-0.015l0.04,0.021l-0.01,-0.006l-0.03,-0.015Zm38.807,-0.016l-0.008,0.005l0.049,-0.025l-0.041,0.02Zm-38.875,-0.018l0.044,0.022l-0.007,-0.004l-0.037,-0.018Zm38.937,-0.012l-0.006,0.002l0.063,-0.031l-0.057,0.029Zm-39.011,-0.025l0.054,0.027l-0.005,-0.002l-0.049,-0.025Zm39.14,-0.039l-0.004,0.002l-0.002,0.001l0.001,-0.001l0.005,-0.002Zm-39.28,-0.03l0.058,0.029l-0.054,-0.027l-0.004,-0.002Zm39.398,-0.028l-0.042,0.021l0.05,-0.024l-0.008,0.003Zm-39.463,-0.003l0.045,0.022l-0.038,-0.019l-0.007,-0.003Zm39.525,-0.026l-0.034,0.016l0.044,-0.021l-0.01,0.005Zm-39.59,-0.005l0.042,0.02l-0.032,-0.015l-0.01,-0.005Zm39.652,-0.025l-0.029,0.014l0.042,-0.02l-0.013,0.006Zm-39.716,-0.006l0.039,0.019l-0.027,-0.013l-0.012,-0.006Zm39.778,-0.024l-0.025,0.012l0.041,-0.019l-0.016,0.007Zm-39.843,-0.007l0.038,0.019l-0.023,-0.012l-0.015,-0.007Zm39.906,-0.022l-0.022,0.01l0.041,-0.019l-0.019,0.009Zm-39.972,-0.008l0.039,0.018l-0.021,-0.01l-0.018,-0.008Zm40.034,-0.021l-0.018,0.009l0.04,-0.019l-0.022,0.01Zm-40.099,-0.01l0.038,0.018l-0.017,-0.008l-0.021,-0.01Zm40.161,-0.019l-0.015,0.007l0.041,-0.019l-0.026,0.012Zm-40.227,-0.011l0.039,0.018l-0.015,-0.007l-0.024,-0.011Zm40.29,-0.018l-0.013,0.006l0.043,-0.019l-0.03,0.013Zm-40.356,-0.012l0.04,0.018l-0.012,-0.006l-0.028,-0.012Zm40.419,-0.016l-0.01,0.004l0.045,-0.02l-0.035,0.016Zm-40.486,-0.015l0.041,0.019l-0.009,-0.004l-0.032,-0.015Zm40.548,-0.013l-0.007,0.003l0.051,-0.023l-0.044,0.02Zm-40.618,-0.018l0.046,0.02l-0.006,-0.002l-0.04,-0.018Zm-0.083,-0.037l0.064,0.028l-0.004,-0.002l-0.06,-0.026Zm40.827,-0.002l-0.001,0.001l-0.003,0.001l0.003,-0.001l0.001,-0.001Zm0.126,-0.055l-0.05,0.022l0.055,-0.024l-0.005,0.002Zm-41.087,-0.002l0.051,0.022l-0.046,-0.02l-0.005,-0.002Zm41.15,-0.025l-0.038,0.016l0.046,-0.02l-0.008,0.004Zm-41.216,-0.004l0.044,0.019l-0.036,-0.015l-0.008,-0.004Zm41.279,-0.023l-0.031,0.013l0.042,-0.018l-0.011,0.005Zm-41.345,-0.005l0.041,0.018l-0.03,-0.013l-0.011,-0.005Zm41.408,-0.022l-0.027,0.011l0.041,-0.017l-0.014,0.006Zm-41.474,-0.006l0.04,0.017l-0.026,-0.011l-0.014,-0.006Zm41.538,-0.021l-0.024,0.01l0.04,-0.017l-0.016,0.007Zm-41.604,-0.007l0.039,0.016l-0.023,-0.009l-0.016,-0.007Zm41.667,-0.02l-0.02,0.009l0.04,-0.017l-0.02,0.008Zm-41.733,-0.008l0.038,0.016l-0.019,-0.008l-0.019,-0.008Zm41.796,-0.018l-0.016,0.007l0.039,-0.017l-0.023,0.01Zm-41.863,-0.009l0.039,0.016l-0.017,-0.007l-0.022,-0.009Zm41.927,-0.017l-0.014,0.005l0.04,-0.016l-0.026,0.011Zm-41.994,-0.011l0.039,0.016l-0.013,-0.005l-0.026,-0.011Zm42.058,-0.015l-0.011,0.004l0.041,-0.017l-0.03,0.013Zm-42.125,-0.012l0.04,0.016l-0.011,-0.004l-0.029,-0.012Zm42.188,-0.014l-0.008,0.003l0.043,-0.017l-0.035,0.014Zm-42.257,-0.014l0.043,0.017l-0.008,-0.003l-0.035,-0.014Zm42.321,-0.012l-0.005,0.002l0.049,-0.019l-0.044,0.017Zm-42.393,-0.017l0.048,0.019l-0.005,-0.002l-0.043,-0.017Zm10.936,-9.758l0.016,0.008l0.043,0.021l0,0l-0.043,-0.021l-0.018,-0.01l0.002,0.002Zm20.571,-0.004l0,0l0.065,-0.033l-0.065,0.033Zm-20.7,-0.062l0.045,0.023l-0.053,-0.027l0.008,0.004Zm20.83,-0.004l-0.052,0.026l0.044,-0.022l0.008,-0.004Zm-20.892,-0.028l0.036,0.019l-0.046,-0.024l0.01,0.005Zm20.956,-0.005l-0.046,0.023l0.036,-0.018l0.01,-0.005Zm-21.017,-0.027l0.03,0.016l-0.044,-0.023l0.014,0.007Zm21.081,-0.006l-0.042,0.022l0.029,-0.016l0.013,-0.006Zm-21.143,-0.026l0.026,0.014l-0.042,-0.022l0.016,0.008Zm21.207,-0.008l-0.041,0.022l0.026,-0.014l0.015,-0.008Zm-21.268,-0.024l0.022,0.012l-0.041,-0.022l0.019,0.01Zm21.333,-0.01l-0.041,0.022l0.022,-0.012l0.019,-0.01Zm-21.394,-0.022l0.019,0.01l-0.042,-0.022l0.023,0.012Zm21.458,-0.012l-0.04,0.021l0.018,-0.009l0.022,-0.012Zm-21.519,-0.021l0.016,0.009l-0.042,-0.023l0.026,0.014Zm21.583,-0.014l-0.04,0.022l0.015,-0.008l0.025,-0.014Zm-21.644,-0.019l0.013,0.007l-0.043,-0.023l0.03,0.016Zm21.709,-0.016l-0.041,0.023l0.012,-0.007l0.029,-0.016Zm-21.77,-0.017l0.01,0.006l-0.046,-0.025l0.036,0.019Zm21.836,-0.018l-0.044,0.024l0.01,-0.006l0.034,-0.018Zm-21.897,-0.015l0.008,0.004l-0.052,-0.028l0.044,0.024Zm21.966,-0.023l-0.049,0.027l0.007,-0.004l0.042,-0.023Zm-22.085,-0.043l0.063,0.036l-0.064,-0.036l0.001,0Zm22.165,-0.001l-0.002,0.001l-0.004,0.002l0.003,-0.002l0.003,-0.001Zm-22.287,-0.067l0.054,0.031l-0.06,-0.034l0.006,0.003Zm22.412,-0.003l-0.056,0.031l0.05,-0.028l0.006,-0.003Zm-22.473,-0.031l0.04,0.022l-0.048,-0.027l0.008,0.005Zm22.535,-0.005l-0.045,0.026l0.038,-0.021l0.007,-0.005Zm-22.595,-0.029l0.033,0.018l-0.044,-0.025l0.011,0.007Zm22.658,-0.006l-0.041,0.023l0.031,-0.017l0.01,-0.006Zm-22.718,-0.029l0.028,0.016l-0.041,-0.024l0.013,0.008Zm22.781,-0.007l-0.04,0.022l0.027,-0.015l0.013,-0.007Zm-22.84,-0.027l0.023,0.014l-0.04,-0.024l0.017,0.01Zm22.902,-0.009l-0.038,0.022l0.022,-0.013l0.016,-0.009Zm-22.962,-0.026l0.02,0.012l-0.04,-0.023l0.02,0.011Zm23.025,-0.011l-0.038,0.022l0.019,-0.011l0.019,-0.011Zm-23.085,-0.024l0.018,0.01l-0.041,-0.023l0.023,0.013Zm23.147,-0.013l-0.038,0.023l0.017,-0.01l0.021,-0.013Zm-23.206,-0.022l0.014,0.009l-0.041,-0.025l0.027,0.016Zm23.269,-0.015l-0.038,0.023l0.013,-0.008l0.025,-0.015Zm-23.329,-0.02l0.012,0.007l-0.042,-0.026l0.03,0.019Zm23.392,-0.017l-0.039,0.023l0.01,-0.006l0.029,-0.017Zm-23.451,-0.018l0.009,0.005l-0.046,-0.028l0.037,0.023Zm23.516,-0.021l-0.042,0.025l0.008,-0.004l0.034,-0.021Zm-23.575,-0.015l0.006,0.004l-0.054,-0.033l0.048,0.029Zm23.643,-0.026l-0.049,0.029l0.006,-0.003l0.043,-0.026Zm0.078,-0.048l-0.003,0.002l-0.002,0.002l0.002,-0.002l0.003,-0.002Zm-23.841,0.001l0.002,0.001l0.002,0.001l-0.002,-0.001l-0.002,-0.001Zm-0.115,-0.071l0.045,0.028l-0.052,-0.032l0.007,0.004Zm24.076,-0.004l-0.047,0.029l0.041,-0.025l0.006,-0.004Zm-24.135,-0.033l0.036,0.023l-0.045,-0.028l0.009,0.005Zm24.196,-0.005l-0.041,0.026l0.033,-0.021l0.008,-0.005Zm-24.254,-0.031l0.029,0.018l-0.041,-0.025l0.012,0.007Zm24.315,-0.007l-0.038,0.024l0.027,-0.017l0.011,-0.007Zm-24.374,-0.03l0.026,0.016l-0.04,-0.025l0.014,0.009Zm24.435,-0.008l-0.037,0.023l0.024,-0.015l0.013,-0.008Zm-24.493,-0.029l0.022,0.014l-0.039,-0.025l0.017,0.011Zm24.554,-0.01l-0.037,0.023l0.021,-0.013l0.016,-0.01Zm-24.612,-0.027l0.019,0.012l-0.039,-0.025l0.02,0.013Zm24.673,-0.012l-0.037,0.023l0.018,-0.011l0.019,-0.012Zm-24.731,-0.025l0.016,0.01l-0.039,-0.025l0.023,0.015Zm24.792,-0.014l-0.037,0.023l0.015,-0.009l0.022,-0.014Zm-24.85,-0.024l0.013,0.009l-0.04,-0.026l0.027,0.017Zm24.911,-0.016l-0.037,0.024l0.012,-0.008l0.025,-0.016Zm-24.968,-0.021l0.01,0.006l-0.042,-0.027l0.032,0.021Zm25.029,-0.019l-0.038,0.025l0.009,-0.006l0.029,-0.019Zm-25.087,-0.019l0.008,0.005l-0.046,-0.03l0.038,0.025Zm25.15,-0.023l-0.041,0.027l0.007,-0.004l0.034,-0.023Zm-25.207,-0.015l0.005,0.003l-0.059,-0.038l0.054,0.035Zm25.277,-0.031l-0.051,0.034l0.004,-0.003l0.047,-0.031Zm-25.398,-0.049l0.004,0.002l0.002,0.002l-0.001,-0.001l-0.005,-0.003Zm25.527,-0.038l-0.054,0.037l0.05,-0.034l0.004,-0.003Zm-25.635,-0.036l0.039,0.027l-0.046,-0.031l0.007,0.004Zm25.694,-0.004l-0.041,0.028l0.035,-0.024l0.006,-0.004Zm-25.751,-0.035l0.031,0.022l-0.04,-0.028l0.009,0.006Zm25.811,-0.006l-0.038,0.026l0.029,-0.02l0.009,-0.006Zm-25.868,-0.033l0.027,0.019l-0.039,-0.027l0.012,0.008Zm25.927,-0.007l-0.036,0.025l0.025,-0.018l0.011,-0.007Zm-25.983,-0.032l0.022,0.016l-0.037,-0.026l0.015,0.01Zm26.042,-0.009l-0.035,0.024l0.021,-0.015l0.014,-0.009Zm-26.099,-0.03l0.02,0.014l-0.037,-0.026l0.017,0.012Zm26.158,-0.011l-0.035,0.024l0.019,-0.013l0.016,-0.011Zm-26.214,-0.028l0.016,0.011l-0.036,-0.026l0.02,0.015Zm26.273,-0.014l-0.034,0.025l0.015,-0.011l0.019,-0.014Zm-26.33,-0.026l0.014,0.01l-0.037,-0.026l0.023,0.016Zm26.389,-0.016l-0.035,0.025l0.013,-0.009l0.022,-0.016Zm-26.445,-0.024l0.012,0.008l-0.038,-0.027l0.026,0.019Zm26.505,-0.018l-0.036,0.026l0.011,-0.008l0.025,-0.018Zm-26.561,-0.022l0.009,0.006l-0.04,-0.028l0.031,0.022Zm26.621,-0.021l-0.037,0.027l0.008,-0.006l0.029,-0.021Zm-26.677,-0.019l0.007,0.004l-0.045,-0.032l0.038,0.028Zm26.739,-0.026l-0.041,0.03l0.006,-0.004l0.035,-0.026Zm0.073,-0.053l-0.056,0.041l0.003,-0.002l0.053,-0.039Zm-26.923,-0.002l0.001,0.001l0.002,0.002l-0.002,-0.002l-0.001,-0.001Zm-0.111,-0.081l0.044,0.032l-0.049,-0.036l0.005,0.004Zm27.152,-0.003l-0.044,0.032l0.04,-0.029l0.004,-0.003Zm-27.207,-0.038l0.033,0.024l-0.04,-0.029l0.007,0.005Zm27.265,-0.005l-0.038,0.028l0.031,-0.023l0.007,-0.005Zm-27.32,-0.036l0.027,0.02l-0.037,-0.027l0.01,0.007Zm27.377,-0.007l-0.035,0.026l0.026,-0.019l0.009,-0.007Zm-27.432,-0.034l0.023,0.017l-0.035,-0.026l0.012,0.009Zm27.49,-0.009l-0.034,0.026l0.022,-0.017l0.012,-0.009Zm-27.545,-0.033l0.02,0.015l-0.034,-0.026l0.014,0.011Zm27.602,-0.01l-0.034,0.025l0.02,-0.015l0.014,-0.01Zm-27.657,-0.031l0.017,0.013l-0.034,-0.026l0.017,0.013Zm27.714,-0.013l-0.033,0.025l0.017,-0.012l0.016,-0.013Zm-27.768,-0.029l0.014,0.011l-0.034,-0.026l0.02,0.015Zm27.825,-0.015l-0.033,0.026l0.014,-0.011l0.019,-0.015Zm-27.88,-0.027l0.012,0.009l-0.034,-0.026l0.022,0.017Zm27.938,-0.017l-0.034,0.026l0.012,-0.009l0.022,-0.017Zm-27.992,-0.025l0.009,0.007l-0.035,-0.027l0.026,0.02Zm28.049,-0.02l-0.034,0.027l0.009,-0.007l0.025,-0.02Zm-28.103,-0.022l0.007,0.005l-0.037,-0.029l0.03,0.024Zm28.162,-0.023l-0.036,0.028l0.006,-0.005l0.03,-0.023Zm-28.217,-0.02l0.005,0.004l-0.042,-0.033l0.037,0.029Zm28.278,-0.029l-0.041,0.033l0.004,-0.004l0.037,-0.029Z"/></g><defs><radialGradient id="_Radial1" cx="0" cy="0" r="1" gradientUnits="userSpaceOnUse" gradientTransform="matrix(-0.0660531,-84,84,-0.0660531,85.718,85.6678)"><stop offset="0" style="stop-color:#ddd449;stop-opacity:1"/><stop offset="0.58" style="stop-color:#d8ce45;stop-opacity:1"/><stop offset="0.8" style="stop-color:#ccc23b;stop-opacity:1"/><stop offset="1" style="stop-color:#c0b632;stop-opacity:1"/></radialGradient></defs></svg>