<?xml version="1.0" encoding="UTF-8" standalone="no"?><!DOCTYPE svg PUBLIC "-//W3C//DTD SVG 1.1//EN" "http://www.w3.org/Graphics/SVG/1.1/DTD/svg11.dtd"><svg width="100%" height="100%" viewBox="0 0 170 170" version="1.1" xmlns="http://www.w3.org/2000/svg" xmlns:xlink="http://www.w3.org/1999/xlink" xml:space="preserve" xmlns:serif="http://www.serif.com/" style="fill-rule:evenodd;clip-rule:evenodd;stroke-linecap:square;stroke-linejoin:round;stroke-miterlimit:1.5;"><g id="Beta-InfectionCard" serif:id="Beta InfectionCard"><path d="M14.1,0.801c-7.418,0.006 -13.435,6.033 -13.43,13.45l0.111,141.12c0.006,7.418 6.033,13.435 13.451,13.43l141.12,-0.111c7.418,-0.006 13.435,-6.033 13.429,-13.451l-0.111,-141.12c-0.005,-7.418 -6.032,-13.435 -13.45,-13.429l-141.12,0.111Z" style="fill:url(#_Linear1);stroke:#00191f;stroke-width:1px;"/><path d="M92.586,98.568c-2.031,-3.338 -3.21,-7.308 -3.21,-11.566c0,-11.807 9.063,-21.397 20.238,-21.429c-9.439,0.031 -17.093,7.704 -17.093,17.15c0,5.435 2.534,10.283 6.483,13.426l0,0l0.043,0.034l-0.043,-0.034c2.857,-2.484 6.588,-3.988 10.667,-3.988c4.079,0 7.81,1.504 10.667,3.988l-0.043,0.034l0.043,-0.034l0,0c3.949,-3.143 6.483,-7.991 6.483,-13.426c0,-9.446 -7.654,-17.119 -17.093,-17.15c11.175,0.032 20.238,9.622 20.238,21.429c0,4.258 -1.179,8.228 -3.21,11.566c3.906,-0.091 7.933,0.873 11.621,3.002c10.225,5.903 13.998,18.547 8.439,28.241c4.693,-8.19 1.875,-18.655 -6.306,-23.378c-4.707,-2.717 -10.172,-2.947 -14.869,-1.098l0,0l-0.05,0.02l0.05,-0.02c0.723,3.716 0.16,7.699 -1.879,11.232c-2.04,3.532 -5.208,6.011 -8.787,7.243l-0.008,-0.053l0.008,0.053l0,0c0.747,4.992 3.678,9.61 8.385,12.328c8.181,4.723 18.653,1.931 23.399,-6.228c-5.616,9.662 -18.452,12.716 -28.677,6.812c-3.688,-2.129 -6.537,-5.135 -8.411,-8.563c-1.874,3.428 -4.723,6.434 -8.411,8.563c-10.225,5.904 -23.061,2.85 -28.677,-6.812c4.746,8.159 15.218,10.951 23.399,6.228c4.707,-2.718 7.638,-7.336 8.385,-12.328l0,0l0.008,-0.053l-0.008,0.053c-3.579,-1.232 -6.747,-3.711 -8.787,-7.243c-2.039,-3.533 -2.602,-7.516 -1.879,-11.232l0.05,0.02l-0.05,-0.02l0,0c-4.697,-1.849 -10.162,-1.619 -14.869,1.098c-8.181,4.723 -10.999,15.188 -6.306,23.378c-5.559,-9.694 -1.786,-22.338 8.439,-28.241c3.688,-2.129 7.715,-3.093 11.621,-3.002Zm11.796,25.14l0.001,-0.005l-0.006,0.04l0.005,-0.035Zm10.583,0.034l-0.006,-0.038l0.001,0.004l0.005,0.034Zm-10.575,-0.085l0.001,-0.007l-0.005,0.035l0.004,-0.028Zm10.566,0.027l-0.005,-0.034l0.001,0.007l0.004,0.027Zm-10.559,-0.078l0.001,-0.009l-0.005,0.033l0.004,-0.024Zm10.551,0.023l-0.004,-0.032l0.001,0.009l0.003,0.023Zm-10.544,-0.074l0.001,-0.011l-0.004,0.032l0.003,-0.021Zm10.537,0.02l-0.004,-0.031l0.001,0.011l0.003,0.02Zm-10.53,-0.071l0.001,-0.014l-0.004,0.032l0.003,-0.018Zm10.523,0.017l-0.004,-0.031l0.001,0.014l0.003,0.017Zm-10.517,-0.069l0.002,-0.016l-0.004,0.032l0.002,-0.016Zm10.51,0.016l-0.004,-0.031l0.002,0.015l0.002,0.016Zm-10.503,-0.067l0.002,-0.018l-0.004,0.032l0.002,-0.014Zm10.496,0.013l-0.004,-0.031l0.002,0.018l0.002,0.013Zm-10.49,-0.064l0.003,-0.022l-0.004,0.033l0.001,-0.011Zm10.483,0.011l-0.004,-0.032l0.003,0.021l0.001,0.011Zm-10.477,-0.062l0.003,-0.025l-0.004,0.034l0.001,-0.009Zm10.471,0.009l-0.004,-0.033l0.003,0.024l0.001,0.009Zm-10.465,-0.06l0.004,-0.031l-0.005,0.038l0.001,-0.007Zm10.459,0.006l-0.005,-0.035l0.004,0.029l0.001,0.006Zm-10.453,-0.057l0.005,-0.041l-0.005,0.045l0,-0.004Zm10.446,0.004l-0.004,-0.041l0.004,0.037l0,0.004Zm-10.434,-0.11l-0.001,0.003l0,0l0,-0.001l0.001,-0.002Zm10.422,0.001l-0.005,-0.052l0,0.003l0.005,0.049Zm-10.412,-0.1l0.001,-0.006l-0.005,0.041l0.004,-0.035Zm10.405,0.032l-0.004,-0.038l0.001,0.006l0.003,0.032Zm-10.4,-0.084l0.001,-0.008l-0.004,0.037l0.003,-0.029Zm10.395,0.027l-0.004,-0.034l0.001,0.007l0.003,0.027Zm-10.39,-0.078l0.001,-0.01l-0.003,0.034l0.002,-0.024Zm10.384,0.023l-0.003,-0.033l0.001,0.01l0.002,0.023Zm-10.379,-0.074l0.001,-0.013l-0.003,0.034l0.002,-0.021Zm10.374,0.02l-0.003,-0.032l0.001,0.012l0.002,0.02Zm-10.369,-0.072l0.001,-0.015l-0.003,0.033l0.002,-0.018Zm10.364,0.017l-0.003,-0.031l0.001,0.014l0.002,0.017Zm-10.36,-0.068l0.002,-0.018l-0.003,0.033l0.001,-0.015Zm10.355,0.015l-0.002,-0.032l0.001,0.017l0.001,0.015Zm-10.351,-0.067l0.002,-0.02l-0.003,0.034l0.001,-0.014Zm10.347,0.013l-0.003,-0.032l0.002,0.019l0.001,0.013Zm-10.342,-0.064l0.001,-0.024l-0.002,0.035l0.001,-0.011Zm10.337,0.01l-0.002,-0.033l0.001,0.023l0.001,0.01Zm-10.333,-0.062l0.002,-0.028l-0.003,0.037l0.001,-0.009Zm10.329,0.008l-0.003,-0.034l0.002,0.026l0.001,0.008Zm-10.326,-0.059l0.003,-0.035l-0.003,0.041l0,-0.006Zm10.322,0.006l-0.003,-0.038l0.003,0.032l0,0.006Zm-0.004,-0.054l-0.003,-0.048l0.003,0.045l0,0.003Zm-10.31,-0.055l0,0.001l-0.001,0.004l0.001,-0.003l0,-0.002Zm0.006,-0.103l0.001,-0.005l-0.004,0.053l0.003,-0.048Zm10.296,0.042l-0.003,-0.046l0.001,0.004l0.002,0.042Zm-10.292,-0.094l0,-0.006l-0.002,0.041l0.002,-0.035Zm10.288,0.031l-0.002,-0.037l0,0.006l0.002,0.031Zm-10.285,-0.082l0,-0.009l-0.002,0.037l0.002,-0.028Zm10.282,0.026l-0.002,-0.035l0,0.009l0.002,0.026Zm-10.28,-0.078l0.001,-0.011l-0.002,0.035l0.001,-0.024Zm10.277,0.023l-0.002,-0.033l0.001,0.01l0.001,0.023Zm-10.274,-0.074l0.001,-0.014l-0.002,0.034l0.001,-0.02Zm10.271,0.019l-0.002,-0.032l0.001,0.013l0.001,0.019Zm-10.269,-0.071l0.001,-0.016l-0.001,0.034l0,-0.018Zm10.266,0.017l-0.001,-0.032l0.001,0.015l0,0.017Zm-10.263,-0.069l0.001,-0.019l-0.002,0.035l0.001,-0.016Zm10.261,0.015l-0.002,-0.033l0.001,0.018l0.001,0.015Zm-10.259,-0.066l0.001,-0.023l-0.002,0.035l0.001,-0.012Zm10.257,0.012l-0.002,-0.033l0.001,0.021l0.001,0.012Zm-10.255,-0.064l0.001,-0.026l-0.001,0.036l0,-0.01Zm10.252,0.01l-0.001,-0.034l0.001,0.024l0,0.01Zm-10.25,-0.061l0.001,-0.032l-0.001,0.039l0,-0.007Zm10.248,0.007l-0.001,-0.036l0.001,0.029l0,0.007Zm-10.246,-0.059l0.001,-0.04l-0.002,0.046l0.001,-0.006Zm10.245,0.005l-0.002,-0.041l0.001,0.036l0.001,0.005Zm-0.004,-0.11l0,0.002l0.001,0.002l-0.001,-0.002l0,-0.002Zm-10.238,0l0,0.002l-0.001,0.001l0.001,-0.001l0,-0.002Zm0.002,-0.102l0,-0.005l-0.001,0.047l0.001,-0.042Zm10.235,0.038l-0.001,-0.043l0,0.005l0.001,0.038Zm-10.234,-0.09l0,-0.007l-0.001,0.04l0.001,-0.033Zm10.233,0.03l-0.001,-0.037l0,0.007l0.001,0.03Zm-10.232,-0.081l0,-0.011l-0.001,0.038l0.001,-0.027Zm10.231,0.025l-0.001,-0.035l0,0.01l0.001,0.025Zm-10.231,-0.077l0,-0.013l0,0.036l0,-0.023Zm10.23,0.022l0,-0.034l0,0.012l0,0.022Zm-10.229,-0.074l0,-0.015l-0.001,0.035l0.001,-0.02Zm10.228,0.019l0,-0.033l0,0.014l0,0.019Zm-10.228,-0.071l0,-0.017l0,0.034l0,-0.017Zm10.228,0.017l0,-0.034l0,0.017l0,0.017Zm-10.228,-0.068l0,-0.021l0,0.035l0,-0.014Zm10.228,0.013l0,-0.033l0,0.02l0,0.013Zm-10.228,-0.065l0,-0.024l0,0.036l0,-0.012Zm10.228,0.011l0,-0.034l0,0.023l0,0.011Zm-10.228,-0.063l0,-0.028l0,0.038l0,-0.01Zm10.228,0.009l0,-0.036l0,0.027l0,0.009Zm-10.228,-0.061l-0.001,-0.034l0.001,0.041l0,-0.007Zm10.228,0.007l0.001,-0.039l-0.001,0.032l0,0.007Zm-10.229,-0.059l0,-0.047l0,0.052l0,-0.005Zm10.23,0.005l0,-0.048l0,0.043l0,0.005Zm0.001,-0.113l0,0.004l0,0.002l0,-0.002l0,-0.004Zm-10.232,0.004l0,0l-0.001,-0.055l0.001,0.055Zm-0.002,-0.103l0,-0.006l0.001,0.044l-0.001,-0.038Zm10.235,0.036l0.001,-0.042l0,0.006l-0.001,0.036Zm-10.237,-0.088l0,-0.008l0.001,0.039l-0.001,-0.031Zm10.239,0.029l0.001,-0.037l0,0.008l-0.001,0.029Zm-10.24,-0.081l0,-0.011l0.001,0.037l-0.001,-0.026Zm10.241,0.025l0.001,-0.035l0,0.01l-0.001,0.025Zm-10.242,-0.076l-0.001,-0.014l0.001,0.036l0,-0.022Zm10.244,0.021l0.001,-0.035l-0.001,0.014l0,0.021Zm-10.246,-0.073l-0.001,-0.016l0.001,0.035l0,-0.019Zm10.248,0.018l0.001,-0.034l-0.001,0.016l0,0.018Zm-10.25,-0.07l-0.001,-0.019l0.001,0.035l0,-0.016Zm10.252,0.016l0.001,-0.035l-0.001,0.019l0,0.016Zm-10.254,-0.068l-0.001,-0.022l0.001,0.036l0,-0.014Zm10.256,0.013l0.001,-0.035l-0.001,0.022l0,0.013Zm-10.258,-0.065l-0.002,-0.025l0.002,0.036l0,-0.011Zm10.26,0.011l0.001,-0.036l-0.001,0.025l0,0.011Zm-10.263,-0.063l-0.001,-0.03l0.002,0.039l-0.001,-0.009Zm10.265,0.009l0.002,-0.039l-0.001,0.03l-0.001,0.009Zm-10.267,-0.061l-0.002,-0.037l0.002,0.044l0,-0.007Zm10.27,0.007l0.002,-0.044l-0.002,0.037l0,0.007Zm0.006,-0.109l-0.003,0.055l0.003,-0.055l0,0Zm-10.283,-0.02l0.001,0.016l0,-0.002l-0.001,-0.014l-0.002,-0.036l0,0l0.002,0.036Zm9.575,-14.418c-0.796,-1.372 -2.209,-2.341 -3.859,-2.525l0,-3.48c2.542,-0.083 4.944,-0.721 7.089,-1.796c-2.159,-1.501 -4.805,-2.386 -7.663,-2.386c-2.858,0 -5.504,0.885 -7.663,2.386c2.145,1.075 4.547,1.713 7.089,1.796l0,3.48c-1.65,0.184 -3.063,1.153 -3.859,2.525l-0.002,0.003l-0.001,0.003c-0.79,1.375 -0.923,3.084 -0.258,4.604l-3.013,1.74c-1.343,-2.159 -3.097,-3.92 -5.1,-5.241c-0.221,2.62 0.336,5.354 1.765,7.829c1.429,2.475 3.518,4.325 5.898,5.444c-0.142,-2.396 -0.791,-4.795 -1.989,-7.037l3.013,-1.74c0.985,1.336 2.531,2.076 4.116,2.079l0.004,0l0.004,0c1.585,-0.003 3.131,-0.743 4.116,-2.079l3.013,1.74c-1.198,2.242 -1.847,4.641 -1.989,7.037c2.38,-1.119 4.469,-2.969 5.898,-5.444c1.429,-2.475 1.986,-5.209 1.765,-7.829c-2.003,1.321 -3.757,3.082 -5.1,5.241l-3.013,-1.74c0.665,-1.52 0.532,-3.229 -0.258,-4.604l-0.001,-0.003l-0.002,-0.003Zm8.416,1.082l-0.011,0.007l-0.031,0.02l0,0l0.031,-0.02l0.013,-0.009l-0.002,0.002Zm-25.703,-0.004l0,0l-0.046,-0.03l0.046,0.03Zm25.794,-0.056l-0.032,0.021l0.038,-0.024l-0.006,0.003Zm-25.885,-0.003l0.036,0.023l-0.031,-0.02l-0.005,-0.003Zm25.929,-0.025l-0.026,0.016l0.033,-0.021l-0.007,0.005Zm-25.975,-0.005l0.032,0.021l-0.025,-0.016l-0.007,-0.005Zm26.018,-0.023l-0.021,0.014l0.031,-0.02l-0.01,0.006Zm-26.064,-0.006l0.031,0.019l-0.021,-0.013l-0.01,-0.006Zm26.108,-0.022l-0.018,0.012l0.03,-0.019l-0.012,0.007Zm-26.154,-0.007l0.03,0.019l-0.018,-0.012l-0.012,-0.007Zm26.198,-0.021l-0.016,0.01l0.03,-0.018l-0.014,0.008Zm-26.244,-0.008l0.029,0.018l-0.015,-0.01l-0.014,-0.008Zm26.288,-0.019l-0.014,0.008l0.03,-0.018l-0.016,0.01Zm-26.334,-0.01l0.029,0.018l-0.013,-0.008l-0.016,-0.01Zm26.378,-0.018l-0.011,0.008l0.03,-0.019l-0.019,0.011Zm-26.424,-0.011l0.029,0.018l-0.011,-0.007l-0.018,-0.011Zm26.468,-0.016l-0.009,0.006l0.031,-0.019l-0.022,0.013Zm-26.515,-0.013l0.03,0.019l-0.009,-0.006l-0.021,-0.013Zm26.559,-0.014l-0.007,0.005l0.034,-0.021l-0.027,0.016Zm-26.607,-0.015l0.032,0.019l-0.007,-0.004l-0.025,-0.015Zm26.652,-0.012l-0.006,0.003l0.038,-0.023l-0.032,0.02Zm-26.703,-0.019l0.036,0.022l-0.005,-0.003l-0.031,-0.019Zm26.79,-0.034l-0.046,0.028l0.047,-0.028l-0.001,0Zm-26.848,-0.001l0.001,0.001l0.003,0.002l-0.002,-0.002l-0.002,-0.001Zm26.938,-0.053l-0.04,0.024l0.045,-0.026l-0.005,0.002Zm-27.03,-0.002l0.041,0.024l-0.037,-0.022l-0.004,-0.002Zm27.075,-0.024l-0.029,0.017l0.035,-0.021l-0.006,0.004Zm-27.122,-0.003l0.033,0.019l-0.027,-0.016l-0.006,-0.003Zm27.167,-0.023l-0.024,0.014l0.032,-0.019l-0.008,0.005Zm-27.214,-0.005l0.031,0.018l-0.023,-0.013l-0.008,-0.005Zm27.259,-0.021l-0.021,0.012l0.031,-0.018l-0.01,0.006Zm-27.305,-0.006l0.029,0.017l-0.02,-0.011l-0.009,-0.006Zm27.349,-0.02l-0.017,0.01l0.03,-0.017l-0.013,0.007Zm-27.396,-0.007l0.029,0.017l-0.017,-0.01l-0.012,-0.007Zm27.441,-0.019l-0.015,0.009l0.03,-0.017l-0.015,0.008Zm-27.488,-0.008l0.028,0.017l-0.014,-0.009l-0.014,-0.008Zm27.533,-0.017l-0.013,0.007l0.031,-0.017l-0.018,0.01Zm-27.581,-0.01l0.029,0.017l-0.012,-0.007l-0.017,-0.01Zm27.626,-0.016l-0.01,0.006l0.031,-0.017l-0.021,0.011Zm-27.673,-0.011l0.029,0.017l-0.01,-0.006l-0.019,-0.011Zm27.719,-0.014l-0.009,0.005l0.032,-0.018l-0.023,0.013Zm-27.768,-0.012l0.031,0.016l-0.009,-0.004l-0.022,-0.012Zm27.813,-0.013l-0.007,0.003l0.035,-0.019l-0.028,0.016Zm-27.862,-0.015l0.032,0.018l-0.006,-0.003l-0.026,-0.015Zm27.907,-0.01l-0.005,0.002l0.042,-0.023l-0.037,0.021Zm-27.959,-0.019l0.037,0.021l-0.004,-0.002l-0.033,-0.019Zm-0.06,-0.032l0.002,0.001l0.002,0.001l-0.002,-0.001l-0.002,-0.001Zm28.112,0l-0.002,0.001l-0.001,0l0.001,0l0.002,-0.001Zm0.089,-0.048l-0.036,0.019l0.041,-0.022l-0.005,0.003Zm-28.294,-0.003l0.036,0.02l-0.032,-0.017l-0.004,-0.003Zm28.339,-0.022l-0.027,0.015l0.034,-0.018l-0.007,0.003Zm-28.387,-0.003l0.032,0.017l-0.025,-0.014l-0.007,-0.003Zm28.433,-0.021l-0.023,0.012l0.032,-0.017l-0.009,0.005Zm-28.48,-0.004l0.03,0.016l-0.022,-0.012l-0.008,-0.004Zm28.526,-0.02l-0.02,0.011l0.031,-0.017l-0.011,0.006Zm-28.574,-0.005l0.029,0.015l-0.019,-0.01l-0.01,-0.005Zm28.62,-0.019l-0.018,0.009l0.031,-0.016l-0.013,0.007Zm-28.668,-0.006l0.029,0.015l-0.017,-0.009l-0.012,-0.006Zm28.713,-0.018l-0.014,0.008l0.03,-0.016l-0.016,0.008Zm-28.761,-0.007l0.028,0.015l-0.013,-0.008l-0.015,-0.007Zm28.807,-0.016l-0.012,0.006l0.031,-0.016l-0.019,0.01Zm-28.856,-0.009l0.029,0.015l-0.011,-0.006l-0.018,-0.009Zm28.902,-0.015l-0.01,0.005l0.032,-0.016l-0.022,0.011Zm-28.95,-0.01l0.029,0.015l-0.009,-0.005l-0.02,-0.01Zm28.996,-0.013l-0.008,0.004l0.034,-0.017l-0.026,0.013Zm-29.046,-0.012l0.031,0.016l-0.007,-0.004l-0.024,-0.012Zm29.093,-0.011l-0.006,0.003l0.036,-0.019l-0.03,0.016Zm-29.143,-0.014l0.033,0.016l-0.006,-0.002l-0.027,-0.014Zm29.189,-0.009l-0.004,0.002l0.047,-0.024l-0.043,0.022Zm-29.245,-0.019l0.041,0.02l-0.004,-0.001l-0.037,-0.019Zm29.342,-0.029l-0.003,0.001l-0.002,0.001l0.001,-0.001l0.004,-0.001Zm-29.447,-0.022l0.044,0.021l-0.041,-0.02l-0.003,-0.001Zm29.535,-0.021l-0.032,0.015l0.038,-0.018l-0.006,0.003Zm-29.583,-0.003l0.034,0.017l-0.029,-0.014l-0.005,-0.003Zm29.63,-0.02l-0.026,0.013l0.033,-0.016l-0.007,0.003Zm-29.679,-0.003l0.031,0.015l-0.024,-0.012l-0.007,-0.003Zm29.725,-0.019l-0.022,0.01l0.032,-0.015l-0.01,0.005Zm-29.773,-0.004l0.029,0.014l-0.02,-0.01l-0.009,-0.004Zm29.82,-0.018l-0.019,0.009l0.031,-0.015l-0.012,0.006Zm-29.869,-0.005l0.029,0.013l-0.018,-0.008l-0.011,-0.005Zm29.916,-0.017l-0.017,0.008l0.031,-0.015l-0.014,0.007Zm-29.965,-0.006l0.029,0.013l-0.016,-0.007l-0.013,-0.006Zm30.011,-0.016l-0.013,0.007l0.03,-0.015l-0.017,0.008Zm-30.06,-0.007l0.029,0.013l-0.013,-0.006l-0.016,-0.007Zm30.107,-0.015l-0.011,0.006l0.031,-0.014l-0.02,0.008Zm-30.156,-0.008l0.029,0.014l-0.011,-0.006l-0.018,-0.008Zm30.203,-0.013l-0.009,0.004l0.031,-0.014l-0.022,0.01Zm-30.253,-0.01l0.03,0.014l-0.009,-0.004l-0.021,-0.01Zm30.3,-0.011l-0.007,0.003l0.033,-0.015l-0.026,0.012Zm-30.351,-0.011l0.032,0.014l-0.007,-0.003l-0.025,-0.011Zm30.398,-0.011l-0.005,0.003l0.038,-0.017l-0.033,0.014Zm-30.45,-0.013l0.035,0.016l-0.005,-0.003l-0.03,-0.013Zm-0.062,-0.028l0.048,0.022l-0.003,-0.002l-0.045,-0.02Zm30.606,-0.001l-0.001,0.001l-0.001,0l0.002,0l0,-0.001Zm0.095,-0.041l-0.038,0.016l0.042,-0.018l-0.004,0.002Zm-30.801,-0.002l0.038,0.017l-0.035,-0.015l-0.003,-0.002Zm30.848,-0.019l-0.028,0.013l0.034,-0.015l-0.006,0.002Zm-30.898,-0.002l0.033,0.014l-0.027,-0.012l-0.006,-0.002Zm30.945,-0.018l-0.023,0.01l0.031,-0.014l-0.008,0.004Zm-30.994,-0.003l0.03,0.013l-0.022,-0.01l-0.008,-0.003Zm31.042,-0.017l-0.021,0.008l0.031,-0.013l-0.01,0.005Zm-31.092,-0.004l0.03,0.012l-0.02,-0.008l-0.01,-0.004Zm31.139,-0.016l-0.017,0.007l0.03,-0.013l-0.013,0.006Zm-31.188,-0.005l0.029,0.012l-0.017,-0.007l-0.012,-0.005Zm31.236,-0.015l-0.015,0.006l0.029,-0.012l-0.014,0.006Zm-31.286,-0.006l0.029,0.012l-0.015,-0.006l-0.014,-0.006Zm31.333,-0.014l-0.012,0.005l0.029,-0.012l-0.017,0.007Zm-31.383,-0.007l0.029,0.012l-0.012,-0.005l-0.017,-0.007Zm31.431,-0.013l-0.011,0.004l0.03,-0.012l-0.019,0.008Zm-31.481,-0.008l0.029,0.012l-0.01,-0.004l-0.019,-0.008Zm31.529,-0.011l-0.009,0.003l0.031,-0.012l-0.022,0.009Zm-31.58,-0.009l0.031,0.012l-0.009,-0.003l-0.022,-0.009Zm31.627,-0.011l-0.006,0.003l0.033,-0.013l-0.027,0.01Zm-31.678,-0.01l0.032,0.013l-0.006,-0.003l-0.026,-0.01Zm31.726,-0.009l-0.004,0.002l0.037,-0.015l-0.033,0.013Zm-31.781,-0.013l0.037,0.015l-0.004,-0.002l-0.033,-0.013Zm8.199,-7.315l0.012,0.006l0.033,0.016l0,0l-0.033,-0.016l-0.014,-0.007l0.002,0.001Zm15.421,-0.003l0.001,0l0.048,-0.025l-0.049,0.025Zm-15.518,-0.046l0.034,0.017l-0.04,-0.02l0.006,0.003Zm15.615,-0.003l-0.038,0.02l0.033,-0.017l0.005,-0.003Zm-15.661,-0.021l0.027,0.014l-0.035,-0.018l0.008,0.004Zm15.71,-0.004l-0.034,0.017l0.026,-0.013l0.008,-0.004Zm-15.756,-0.02l0.023,0.012l-0.033,-0.017l0.01,0.005Zm15.804,-0.005l-0.032,0.016l0.022,-0.011l0.01,-0.005Zm-15.85,-0.019l0.019,0.01l-0.031,-0.016l0.012,0.006Zm15.898,-0.006l-0.031,0.016l0.019,-0.01l0.012,-0.006Zm-15.944,-0.018l0.017,0.009l-0.031,-0.017l0.014,0.008Zm15.992,-0.008l-0.03,0.016l0.016,-0.008l0.014,-0.008Zm-16.038,-0.017l0.014,0.008l-0.031,-0.017l0.017,0.009Zm16.086,-0.008l-0.03,0.016l0.014,-0.008l0.016,-0.008Zm-16.132,-0.016l0.012,0.006l-0.031,-0.016l0.019,0.01Zm16.181,-0.01l-0.031,0.016l0.012,-0.006l0.019,-0.01Zm-16.226,-0.015l0.009,0.006l-0.032,-0.018l0.023,0.012Zm16.274,-0.011l-0.031,0.016l0.009,-0.005l0.022,-0.011Zm-16.32,-0.013l0.008,0.004l-0.035,-0.019l0.027,0.015Zm16.37,-0.014l-0.033,0.018l0.007,-0.004l0.026,-0.014Zm-16.415,-0.011l0.005,0.003l-0.039,-0.022l0.034,0.019Zm16.466,-0.017l-0.037,0.02l0.005,-0.003l0.032,-0.017Zm-16.556,-0.033l0.048,0.027l-0.049,-0.027l0.001,0Zm16.616,-0.001l-0.001,0.001l-0.004,0.002l0.003,-0.002l0.002,-0.001Zm-16.708,-0.05l0.041,0.023l-0.045,-0.025l0.004,0.002Zm16.802,-0.002l-0.042,0.023l0.038,-0.021l0.004,-0.002Zm-16.847,-0.023l0.03,0.017l-0.036,-0.021l0.006,0.004Zm16.894,-0.004l-0.034,0.02l0.028,-0.016l0.006,-0.004Zm-16.939,-0.022l0.025,0.014l-0.033,-0.019l0.008,0.005Zm16.986,-0.004l-0.031,0.017l0.023,-0.013l0.008,-0.004Zm-17.031,-0.022l0.021,0.012l-0.031,-0.018l0.01,0.006Zm17.078,-0.005l-0.03,0.017l0.02,-0.012l0.01,-0.005Zm-17.123,-0.02l0.018,0.01l-0.03,-0.018l0.012,0.008Zm17.169,-0.007l-0.028,0.016l0.017,-0.009l0.011,-0.007Zm-17.213,-0.02l0.015,0.009l-0.03,-0.017l0.015,0.008Zm17.26,-0.008l-0.028,0.017l0.014,-0.009l0.014,-0.008Zm-17.305,-0.018l0.013,0.008l-0.03,-0.018l0.017,0.01Zm17.352,-0.009l-0.028,0.017l0.012,-0.008l0.016,-0.009Zm-17.397,-0.017l0.011,0.006l-0.031,-0.018l0.02,0.012Zm17.444,-0.011l-0.029,0.017l0.011,-0.006l0.018,-0.011Zm-17.488,-0.015l0.009,0.005l-0.032,-0.019l0.023,0.014Zm17.536,-0.013l-0.03,0.017l0.008,-0.004l0.022,-0.013Zm-17.581,-0.014l0.007,0.004l-0.034,-0.021l0.027,0.017Zm17.629,-0.015l-0.032,0.019l0.007,-0.004l0.025,-0.015Zm-17.673,-0.012l0.005,0.003l-0.041,-0.025l0.036,0.022Zm17.724,-0.019l-0.036,0.022l0.004,-0.003l0.032,-0.019Zm0.059,-0.036l-0.003,0.002l-0.001,0.001l0.001,-0.001l0.003,-0.002Zm-17.873,0.001l0.002,0.001l0.001,0l-0.001,0l-0.002,-0.001Zm-0.086,-0.054l0.034,0.022l-0.039,-0.025l0.005,0.003Zm18.049,-0.002l-0.035,0.021l0.03,-0.019l0.005,-0.002Zm-18.093,-0.025l0.026,0.017l-0.033,-0.021l0.007,0.004Zm18.138,-0.004l-0.03,0.019l0.024,-0.015l0.006,-0.004Zm-18.182,-0.023l0.022,0.014l-0.031,-0.02l0.009,0.006Zm18.228,-0.005l-0.029,0.018l0.021,-0.013l0.008,-0.005Zm-18.272,-0.023l0.019,0.012l-0.029,-0.019l0.01,0.007Zm18.318,-0.006l-0.028,0.017l0.018,-0.011l0.01,-0.006Zm-18.361,-0.022l0.016,0.011l-0.029,-0.019l0.013,0.008Zm18.406,-0.007l-0.027,0.017l0.015,-0.01l0.012,-0.007Zm-18.45,-0.02l0.014,0.008l-0.029,-0.018l0.015,0.01Zm18.496,-0.01l-0.027,0.018l0.013,-0.008l0.014,-0.01Zm-18.539,-0.018l0.011,0.007l-0.029,-0.019l0.018,0.012Zm18.585,-0.011l-0.028,0.018l0.011,-0.007l0.017,-0.011Zm-18.629,-0.018l0.01,0.007l-0.03,-0.02l0.02,0.013Zm18.674,-0.012l-0.027,0.018l0.009,-0.006l0.018,-0.012Zm-18.717,-0.016l0.008,0.005l-0.031,-0.02l0.023,0.015Zm18.764,-0.014l-0.029,0.019l0.007,-0.005l0.022,-0.014Zm-18.807,-0.014l0.005,0.004l-0.034,-0.023l0.029,0.019Zm18.854,-0.017l-0.031,0.02l0.005,-0.003l0.026,-0.017Zm-18.897,-0.012l0.003,0.003l-0.043,-0.029l0.04,0.026Zm18.949,-0.023l-0.038,0.026l0.003,-0.003l0.035,-0.023Zm-19.039,-0.037l0.002,0.002l0.002,0.001l-0.001,0l-0.003,-0.003Zm19.136,-0.028l-0.04,0.028l0.037,-0.026l0.003,-0.002Zm-19.218,-0.027l0.03,0.02l-0.035,-0.023l0.005,0.003Zm19.262,-0.003l-0.031,0.021l0.027,-0.018l0.004,-0.003Zm-19.304,-0.026l0.023,0.016l-0.03,-0.021l0.007,0.005Zm19.349,-0.004l-0.029,0.019l0.022,-0.015l0.007,-0.004Zm-19.392,-0.025l0.02,0.014l-0.029,-0.02l0.009,0.006Zm19.436,-0.006l-0.027,0.019l0.019,-0.013l0.008,-0.006Zm-19.478,-0.023l0.017,0.012l-0.028,-0.02l0.011,0.008Zm19.523,-0.007l-0.027,0.018l0.016,-0.011l0.011,-0.007Zm-19.566,-0.023l0.015,0.01l-0.028,-0.019l0.013,0.009Zm19.61,-0.008l-0.026,0.018l0.014,-0.01l0.012,-0.008Zm-19.652,-0.021l0.013,0.008l-0.028,-0.019l0.015,0.011Zm19.696,-0.01l-0.026,0.018l0.012,-0.008l0.014,-0.01Zm-19.738,-0.02l0.01,0.007l-0.027,-0.019l0.017,0.012Zm19.782,-0.012l-0.026,0.019l0.01,-0.007l0.016,-0.012Zm-19.824,-0.018l0.008,0.006l-0.028,-0.02l0.02,0.014Zm19.869,-0.013l-0.027,0.019l0.008,-0.006l0.019,-0.013Zm-19.911,-0.017l0.006,0.005l-0.03,-0.022l0.024,0.017Zm19.956,-0.016l-0.028,0.02l0.006,-0.004l0.022,-0.016Zm-19.998,-0.014l0.005,0.003l-0.034,-0.024l0.029,0.021Zm20.045,-0.019l-0.031,0.022l0.004,-0.003l0.027,-0.019Zm0.055,-0.04l-0.043,0.031l0.003,-0.002l0.04,-0.029Zm-20.184,-0.002l0.001,0.001l0.002,0.001l-0.002,-0.001l-0.001,-0.001Zm-0.083,-0.061l0.033,0.025l-0.036,-0.027l0.003,0.002Zm20.355,-0.002l-0.033,0.025l0.03,-0.023l0.003,-0.002Zm-20.396,-0.028l0.025,0.018l-0.03,-0.022l0.005,0.004Zm20.439,-0.004l-0.028,0.021l0.023,-0.017l0.005,-0.004Zm-20.48,-0.027l0.02,0.015l-0.028,-0.02l0.008,0.005Zm20.523,-0.005l-0.026,0.02l0.019,-0.015l0.007,-0.005Zm-20.565,-0.026l0.018,0.013l-0.027,-0.02l0.009,0.007Zm20.608,-0.006l-0.025,0.019l0.017,-0.013l0.008,-0.006Zm-20.649,-0.025l0.015,0.011l-0.026,-0.019l0.011,0.008Zm20.692,-0.008l-0.025,0.019l0.015,-0.011l0.01,-0.008Zm-20.733,-0.023l0.013,0.01l-0.025,-0.02l0.012,0.01Zm20.776,-0.01l-0.025,0.019l0.013,-0.009l0.012,-0.01Zm-20.817,-0.021l0.011,0.008l-0.025,-0.02l0.014,0.012Zm20.86,-0.011l-0.025,0.019l0.011,-0.008l0.014,-0.011Zm-20.901,-0.021l0.009,0.007l-0.025,-0.02l0.016,0.013Zm20.944,-0.013l-0.025,0.02l0.009,-0.007l0.016,-0.013Zm-20.984,-0.018l0.007,0.005l-0.027,-0.02l0.02,0.015Zm21.027,-0.015l-0.026,0.02l0.007,-0.005l0.019,-0.015Zm-21.068,-0.017l0.005,0.004l-0.027,-0.022l0.022,0.018Zm21.112,-0.017l-0.027,0.021l0.005,-0.004l0.022,-0.017Zm-21.153,-0.015l0.004,0.003l-0.031,-0.025l0.027,0.022Zm21.199,-0.022l-0.031,0.025l0.004,-0.003l0.027,-0.022Z"/><path id="Beta" d="M21.64,60.847c0,0 1.968,-0.341 3.698,2.015c0.43,0.586 1.185,1.771 0.993,3.828c-0.286,3.067 -1.726,4.762 -3.836,4.916c-2.61,0.19 -3.639,-0.881 -4.13,-1.487c-0.607,-0.749 -0.444,-1.084 -0.444,-1.084c0,0 -0.108,0.712 1.557,1.614c0.652,0.353 6.357,1.618 6.357,-4.709c0,-3.51 -2.73,-4.799 -3.89,-4.705c-2.642,0.216 -2.923,-0.851 -2.923,-0.851c0,0 1.013,1.36 2.832,-0.332c0.977,-0.908 1.589,-2.811 1.348,-3.676c-0.248,-0.888 -0.755,-1.253 -1.256,-1.543c-0.971,-0.564 -2.473,-0.473 -3.512,0.568c-0.717,0.718 -1.428,1.571 -1.491,4.33c-0.14,6.178 0.028,10.017 -0.03,11.181c-0.271,5.415 -2.029,6.339 -2.029,6.339l-0.643,-0.592c0,0 2.099,-1.959 2.019,-6.118c-0.08,-4.159 0.151,-7.84 0.06,-10.448c-0.024,-0.719 -0.47,-5.079 -0.817,-5.522c-0.417,-0.533 -0.7,-0.144 -0.74,0.137c-0.084,0.59 0.492,1.477 0.492,1.477c0,0 -1.225,-0.563 -0.994,-1.698c0.134,-0.659 0.694,-0.655 1.075,-0.522c0.366,0.128 0.538,0.697 0.653,1.188c0.079,0.332 0.613,3.915 0.613,3.915c0,0 0.429,-4.993 3.767,-4.993c2.78,0 3.212,2.384 3.225,2.934c0.067,2.896 -1.954,3.838 -1.954,3.838Z" style="stroke:#000;stroke-width:0.24px;stroke-linecap:round;"/></g><defs><linearGradient id="_Linear1" x1="0" y1="0" x2="1" y2="0" gradientUnits="userSpaceOnUse" gradientTransform="matrix(-0.132106,-168,168,-0.132106,84.7919,168.745)"><stop offset="0" style="stop-color:#001f05;stop-opacity:1"/><stop offset="0.09" style="stop-color:#123718;stop-opacity:1"/><stop offset="0.2" style="stop-color:#234e2a;stop-opacity:1"/><stop offset="0.5" style="stop-color:#2a5832;stop-opacity:1"/><stop offset="0.8" style="stop-color:#234e2a;stop-opacity:1"/><stop offset="0.91" style="stop-color:#123718;stop-opacity:1"/><stop offset="1" style="stop-color:#001f05;stop-opacity:1"/></linearGradient></defs></svg>