<?xml version="1.0" encoding="UTF-8" standalone="no"?><!DOCTYPE svg PUBLIC "-//W3C//DTD SVG 1.1//EN" "http://www.w3.org/Graphics/SVG/1.1/DTD/svg11.dtd"><svg width="100%" height="100%" viewBox="0 0 170 170" version="1.1" xmlns="http://www.w3.org/2000/svg" xmlns:xlink="http://www.w3.org/1999/xlink" xml:space="preserve" xmlns:serif="http://www.serif.com/" style="fill-rule:evenodd;clip-rule:evenodd;stroke-linecap:square;stroke-linejoin:round;stroke-miterlimit:1.5;"><g id="Beta-PlayerCard" serif:id="Beta PlayerCard"><path d="M13.989,0.826c-7.418,0.006 -13.435,6.033 -13.43,13.451l0.111,141.12c0.006,7.417 6.033,13.435 13.451,13.429l141.12,-0.111c7.418,-0.006 13.435,-6.033 13.429,-13.451l-0.111,-141.119c-0.005,-7.418 -6.032,-13.436 -13.45,-13.43l-141.12,0.111Z" style="fill:url(#_Linear1);stroke:#00191f;stroke-width:1px;"/><path id="Beta" d="M21.529,60.873c0,0 1.968,-0.342 3.698,2.015c0.43,0.585 1.185,1.77 0.993,3.827c-0.286,3.067 -1.726,4.762 -3.836,4.916c-2.61,0.19 -3.639,-0.881 -4.13,-1.487c-0.607,-0.748 -0.444,-1.084 -0.444,-1.084c0,0 -0.108,0.712 1.557,1.614c0.652,0.354 6.357,1.619 6.357,-4.709c0,-3.51 -2.73,-4.799 -3.89,-4.704c-2.642,0.215 -2.923,-0.852 -2.923,-0.852c0,0 1.014,1.36 2.832,-0.332c0.977,-0.908 1.589,-2.811 1.348,-3.676c-0.248,-0.888 -0.755,-1.252 -1.256,-1.543c-0.971,-0.564 -2.473,-0.473 -3.512,0.568c-0.717,0.719 -1.428,1.572 -1.491,4.331c-0.14,6.178 0.028,10.017 -0.03,11.181c-0.271,5.415 -2.029,6.339 -2.029,6.339l-0.643,-0.593c0,0 2.099,-1.959 2.019,-6.118c-0.08,-4.159 0.151,-7.84 0.06,-10.448c-0.024,-0.718 -0.47,-5.078 -0.817,-5.522c-0.417,-0.532 -0.7,-0.144 -0.74,0.138c-0.084,0.59 0.493,1.476 0.493,1.476c0,0 -1.226,-0.562 -0.995,-1.698c0.134,-0.658 0.694,-0.655 1.075,-0.522c0.366,0.128 0.538,0.698 0.653,1.188c0.079,0.333 0.613,3.915 0.613,3.915c0,0 0.429,-4.992 3.767,-4.992c2.78,0 3.212,2.383 3.225,2.933c0.067,2.897 -1.954,3.839 -1.954,3.839Z" style="stroke:#000;stroke-width:0.24px;stroke-linecap:round;"/><g id="Research"><g id="Caffeine"><g id="Cafeeine_base"><path d="M94.935,74.604l21.947,0.544l10.503,19.278l-11.445,18.735l-21.946,-0.544l-10.503,-19.278l11.444,-18.735Z" style="fill:none;stroke:#18001f;stroke-width:1.5px;stroke-linecap:round;"/><path d="M116.882,75.148l14.359,-23.453" style="fill:none;stroke:#18001f;stroke-width:1.5px;stroke-linecap:round;"/><path d="M61.896,97.333l21.558,-3.959l10.569,19.298l-15.026,15.886l-19.855,-9.48l2.754,-21.745Z" style="fill:none;stroke:#18001f;stroke-width:1.5px;stroke-linecap:round;"/><path d="M81.754,95.619l9.379,16.542" style="fill:none;stroke:#18001f;stroke-width:1.5px;stroke-linecap:round;"/><path d="M59.113,121.532l17.36,8.401" style="fill:none;stroke:#18001f;stroke-width:1.5px;stroke-linecap:round;"/><path d="M93.994,76.146l-6.849,-12.622" style="fill:none;stroke:#18001f;stroke-width:1.5px;stroke-linecap:round;"/><path d="M96.741,74.649l-6.87,-12.61" style="fill:none;stroke:#18001f;stroke-width:1.5px;stroke-linecap:round;"/><path d="M116.076,113.087l7.843,14.395" style="fill:none;stroke:#18001f;stroke-width:1.5px;stroke-linecap:round;"/><path d="M61.896,97.333l-11.91,-10.85" style="fill:none;stroke:#18001f;stroke-width:1.5px;stroke-linecap:round;"/><path d="M126.455,95.948l14.414,0.574" style="fill:none;stroke:#18001f;stroke-width:1.5px;stroke-linecap:round;"/><path d="M126.524,92.829l14.246,0.358" style="fill:none;stroke:#18001f;stroke-width:1.5px;stroke-linecap:round;"/></g><g id="Nitrogen"><path d="M113.751,109.142c2.218,-1.208 5,-0.388 6.208,1.83c1.208,2.217 0.388,4.999 -1.829,6.207c-2.218,1.209 -5,0.389 -6.208,-1.829c-1.208,-2.218 -0.389,-4.999 1.829,-6.208Z" style="fill:#f7f2e8;stroke:#18001f;stroke-width:1px;stroke-linecap:round;"/><g transform="matrix(0.878141,-0.478401,0.478401,0.878141,-31.5357,-7.53562)"><text x="70.184px" y="179.505px" style="font-family:'ArialMT', 'Arial', sans-serif;font-size:8.28px;stroke:#000;stroke-width:0.24px;stroke-linecap:butt;stroke-miterlimit:2;">N</text></g></g><g id="Oxygen"><path d="M84.119,54.75c2.218,-1.208 4.999,-0.388 6.208,1.83c1.208,2.217 0.388,4.999 -1.83,6.207c-2.217,1.209 -4.999,0.389 -6.207,-1.829c-1.208,-2.218 -0.389,-4.999 1.829,-6.208Z" style="fill:#f7f2e8;stroke:#18001f;stroke-width:1px;stroke-linecap:round;"/><g transform="matrix(0.878141,-0.478401,0.478401,0.878141,-33.3953,-50.7708)"><text x="49.87px" y="156.295px" style="font-family:'ArialMT', 'Arial', sans-serif;font-size:7.922px;stroke:#000;stroke-width:0.24px;stroke-linecap:butt;stroke-miterlimit:2;">O</text></g></g><g id="Oxygen1" serif:id="Oxygen"><path d="M141.763,90.873c2.218,-1.208 4.999,-0.389 6.208,1.829c1.208,2.218 0.388,4.999 -1.83,6.208c-2.217,1.208 -4.999,0.388 -6.207,-1.83c-1.208,-2.217 -0.389,-4.999 1.829,-6.207Z" style="fill:#f7f2e8;stroke:#18001f;stroke-width:1px;stroke-linecap:round;"/><g transform="matrix(0.878141,-0.478401,0.478401,0.878141,-43.6519,-18.792)"><text x="107.514px" y="192.417px" style="font-family:'ArialMT', 'Arial', sans-serif;font-size:7.922px;stroke:#000;stroke-width:0.24px;stroke-linecap:butt;stroke-miterlimit:2;">O</text></g></g><g id="Nitrogen1" serif:id="Nitrogen"><path d="M114.7,71.125c2.218,-1.208 5,-0.388 6.208,1.83c1.208,2.218 0.388,4.999 -1.829,6.207c-2.218,1.209 -5,0.389 -6.208,-1.829c-1.208,-2.218 -0.389,-4.999 1.829,-6.208Z" style="fill:#f7f2e8;stroke:#18001f;stroke-width:1px;stroke-linecap:round;"/><g transform="matrix(0.878141,-0.478401,0.478401,0.878141,-13.2327,-11.7143)"><text x="71.133px" y="141.488px" style="font-family:'ArialMT', 'Arial', sans-serif;font-size:8.28px;stroke:#000;stroke-width:0.24px;stroke-linecap:butt;stroke-miterlimit:2;">N</text></g></g><g id="Nitrogen2" serif:id="Nitrogen"><path d="M59.707,93.315c2.217,-1.209 4.999,-0.389 6.207,1.829c1.208,2.218 0.389,4.999 -1.829,6.207c-2.218,1.209 -4.999,0.389 -6.208,-1.829c-1.208,-2.218 -0.388,-4.999 1.83,-6.207Z" style="fill:#f7f2e8;stroke:#18001f;stroke-width:1px;stroke-linecap:round;"/><g transform="matrix(0.878141,-0.478401,0.478401,0.878141,-30.5494,-35.3194)"><text x="16.139px" y="163.677px" style="font-family:'ArialMT', 'Arial', sans-serif;font-size:8.28px;stroke:#000;stroke-width:0.24px;stroke-linecap:butt;stroke-miterlimit:2;">N</text></g></g><g id="Nitrogen3" serif:id="Nitrogen"><path d="M76.738,124.577c2.218,-1.208 5,-0.388 6.208,1.83c1.208,2.217 0.388,4.999 -1.829,6.207c-2.218,1.209 -5,0.389 -6.208,-1.829c-1.208,-2.218 -0.389,-4.999 1.829,-6.208Z" style="fill:#f7f2e8;stroke:#18001f;stroke-width:1px;stroke-linecap:round;"/><g transform="matrix(0.878141,-0.478401,0.478401,0.878141,-43.4302,-23.3618)"><text x="33.171px" y="194.94px" style="font-family:'ArialMT', 'Arial', sans-serif;font-size:8.28px;stroke:#000;stroke-width:0.24px;stroke-linecap:butt;stroke-miterlimit:2;">N</text></g></g><g><path d="M137.107,50.836c-0.405,0.77 -1.035,1.433 -1.856,1.88c-2.218,1.209 -5,0.389 -6.208,-1.829c-1.208,-2.218 -0.388,-4.999 1.829,-6.208c1.815,-0.988 4.007,-0.619 5.406,0.762c0.224,-0.224 0.484,-0.42 0.776,-0.58c1.641,-0.894 3.699,-0.287 4.593,1.354c0.894,1.641 0.288,3.699 -1.353,4.592c-1.028,0.561 -2.22,0.532 -3.187,0.029Z" style="fill:#f7f2e8;stroke:#18001f;stroke-width:1px;stroke-linecap:round;"/><g transform="matrix(0.878141,-0.478401,0.478401,0.878141,-9.85017,18.5341)"><text x="114.445px" y="98.132px" style="font-family:'ArialMT', 'Arial', sans-serif;font-size:4.743px;stroke:#000;stroke-width:0.24px;stroke-linecap:butt;stroke-miterlimit:2;">H</text></g><g transform="matrix(0.878141,-0.478401,0.478401,0.878141,-4.69585,-61.6075)"><text x="74.174px" y="167.191px" style="font-family:'ArialMT', 'Arial', sans-serif;font-size:2.748px;stroke:#000;stroke-width:0.24px;stroke-linecap:butt;stroke-miterlimit:2;">3</text></g><g transform="matrix(0.878141,-0.478401,0.478401,0.878141,-22.8801,-29.6311)"><text x="96.623px" y="146.224px" style="font-family:'ArialMT', 'Arial', sans-serif;font-size:7.922px;stroke:#000;stroke-width:0.24px;stroke-linecap:butt;stroke-miterlimit:2;">C</text></g></g><g><path d="M52.963,85.973c-0.406,0.77 -1.035,1.433 -1.856,1.881c-2.218,1.208 -5,0.388 -6.208,-1.829c-1.208,-2.218 -0.389,-5 1.829,-6.208c1.815,-0.989 4.007,-0.62 5.406,0.762c0.224,-0.225 0.483,-0.421 0.776,-0.58c1.641,-0.894 3.699,-0.288 4.593,1.353c0.894,1.641 0.287,3.699 -1.354,4.593c-1.028,0.56 -2.219,0.531 -3.186,0.028Z" style="fill:#f7f2e8;stroke:#18001f;stroke-width:1px;stroke-linecap:round;"/><g transform="matrix(0.878141,-0.478401,0.478401,0.878141,-36.9137,-17.4388)"><text x="30.3px" y="133.269px" style="font-family:'ArialMT', 'Arial', sans-serif;font-size:4.743px;stroke:#000;stroke-width:0.24px;stroke-linecap:butt;stroke-miterlimit:2;">H</text></g><g transform="matrix(0.878141,-0.478401,0.478401,0.878141,-31.7594,-97.5804)"><text x="-9.97px" y="202.328px" style="font-family:'ArialMT', 'Arial', sans-serif;font-size:2.748px;stroke:#000;stroke-width:0.24px;stroke-linecap:butt;stroke-miterlimit:2;">3</text></g><g transform="matrix(0.878141,-0.478401,0.478401,0.878141,-49.9436,-65.604)"><text x="12.479px" y="181.361px" style="font-family:'ArialMT', 'Arial', sans-serif;font-size:7.922px;stroke:#000;stroke-width:0.24px;stroke-linecap:butt;stroke-miterlimit:2;">C</text></g></g><g><path d="M129.264,132.006c-0.406,0.77 -1.035,1.433 -1.857,1.88c-2.217,1.209 -4.999,0.389 -6.207,-1.829c-1.208,-2.218 -0.389,-4.999 1.829,-6.208c1.815,-0.988 4.007,-0.619 5.405,0.762c0.225,-0.224 0.484,-0.42 0.777,-0.58c1.641,-0.894 3.699,-0.287 4.593,1.354c0.894,1.641 0.287,3.699 -1.354,4.593c-1.028,0.56 -2.219,0.531 -3.186,0.028Z" style="fill:#f7f2e8;stroke:#18001f;stroke-width:1px;stroke-linecap:round;"/><g transform="matrix(0.878141,-0.478401,0.478401,0.878141,-49.6378,24.6731)"><text x="106.601px" y="179.302px" style="font-family:'ArialMT', 'Arial', sans-serif;font-size:4.743px;stroke:#000;stroke-width:0.24px;stroke-linecap:butt;stroke-miterlimit:2;">H</text></g><g transform="matrix(0.878141,-0.478401,0.478401,0.878141,-44.4835,-55.4685)"><text x="66.331px" y="248.361px" style="font-family:'ArialMT', 'Arial', sans-serif;font-size:2.748px;stroke:#000;stroke-width:0.24px;stroke-linecap:butt;stroke-miterlimit:2;">3</text></g><g transform="matrix(0.878141,-0.478401,0.478401,0.878141,-62.6677,-23.4921)"><text x="88.78px" y="227.394px" style="font-family:'ArialMT', 'Arial', sans-serif;font-size:7.922px;stroke:#000;stroke-width:0.24px;stroke-linecap:butt;stroke-miterlimit:2;">C</text></g></g></g><g id="Erlenmeyer"><path d="M103.809,99.856l-9.313,-0.018c-2.895,-0.138 -2.905,-3.875 -0.085,-3.752l16.151,-0.063c2.472,0 2.353,3.73 0.064,3.73l-1.498,0.103l0.155,12.703l12.703,30.208c1.509,4.858 -0.504,7.076 -3.408,8.624c-10.268,3.145 -20.694,3.289 -31.293,0.155c-3.201,-1.731 -5.483,-3.8 -4.493,-7.075l12.91,-31.705l0.132,-12.926" style="fill:#d4f9ff;stroke:#18001f;stroke-width:1.35px;stroke-linejoin:miter;"/><path d="M91.725,131.684c2.992,-0.317 7.234,0.659 9.626,1.372c3.057,0.911 10.328,2.759 12.187,-0.05l3.412,8.28c1.623,3.535 2.782,5.781 -2.087,7.313c-6.608,1.395 -16.573,1.633 -23.834,0.419c-4.831,-0.866 -5.355,-3.342 -3.461,-7.652l4.157,-9.682" style="fill:url(#_Linear2);"/><circle cx="97.054" cy="137.904" r="2.479" style="fill:url(#_Radial3);"/><circle cx="108.436" cy="141.778" r="2.175" style="fill:url(#_Radial4);"/><circle cx="101.628" cy="146.259" r="1.395" style="fill:url(#_Linear5);"/><circle cx="105.396" cy="127.392" r="2.386" style="fill:url(#_Linear6);stroke:#18001f;stroke-width:0.97px;stroke-linejoin:miter;"/><circle cx="99.577" cy="119.722" r="1.672" style="fill:url(#_Linear7);stroke:#18001f;stroke-width:1px;stroke-linejoin:miter;"/></g></g></g><defs><linearGradient id="_Linear1" x1="0" y1="0" x2="1" y2="0" gradientUnits="userSpaceOnUse" gradientTransform="matrix(-0.132106,-168,168,-0.132106,84.6809,168.771)"><stop offset="0" style="stop-color:#001f05;stop-opacity:1"/><stop offset="0.09" style="stop-color:#123718;stop-opacity:1"/><stop offset="0.2" style="stop-color:#234e2a;stop-opacity:1"/><stop offset="0.5" style="stop-color:#2a5832;stop-opacity:1"/><stop offset="0.8" style="stop-color:#234e2a;stop-opacity:1"/><stop offset="0.91" style="stop-color:#123718;stop-opacity:1"/><stop offset="1" style="stop-color:#001f05;stop-opacity:1"/></linearGradient><linearGradient id="_Linear2" x1="0" y1="0" x2="1" y2="0" gradientUnits="userSpaceOnUse" gradientTransform="matrix(31.8051,0,0,18.1799,86.5486,140.712)"><stop offset="0" style="stop-color:#00191f;stop-opacity:1"/><stop offset="0.09" style="stop-color:#123037;stop-opacity:1"/><stop offset="0.2" style="stop-color:#23464e;stop-opacity:1"/><stop offset="0.5" style="stop-color:#2a5058;stop-opacity:1"/><stop offset="0.8" style="stop-color:#23464e;stop-opacity:1"/><stop offset="0.91" style="stop-color:#123037;stop-opacity:1"/><stop offset="1" style="stop-color:#00191f;stop-opacity:1"/></linearGradient><radialGradient id="_Radial3" cx="0" cy="0" r="1" gradientUnits="userSpaceOnUse" gradientTransform="matrix(4.95729,0,0,4.95729,94.5755,137.904)"><stop offset="0" style="stop-color:#fff;stop-opacity:1"/><stop offset="0.55" style="stop-color:#f7f7f7;stop-opacity:1"/><stop offset="1" style="stop-color:#d9d9d9;stop-opacity:1"/></radialGradient><radialGradient id="_Radial4" cx="0" cy="0" r="1" gradientUnits="userSpaceOnUse" gradientTransform="matrix(2.1746,0,0,2.1746,108.436,141.778)"><stop offset="0" style="stop-color:#fff;stop-opacity:1"/><stop offset="0.55" style="stop-color:#f7f7f7;stop-opacity:1"/><stop offset="1" style="stop-color:#d9d9d9;stop-opacity:1"/></radialGradient><linearGradient id="_Linear5" x1="0" y1="0" x2="1" y2="0" gradientUnits="userSpaceOnUse" gradientTransform="matrix(2.7893,0,0,2.7893,100.233,146.259)"><stop offset="0" style="stop-color:#7c715a;stop-opacity:1"/><stop offset="0.09" style="stop-color:#afa795;stop-opacity:1"/><stop offset="0.2" style="stop-color:#e1dbcf;stop-opacity:1"/><stop offset="0.5" style="stop-color:#f7f2e8;stop-opacity:1"/><stop offset="0.8" style="stop-color:#e1dbcf;stop-opacity:1"/><stop offset="0.91" style="stop-color:#afa695;stop-opacity:1"/><stop offset="1" style="stop-color:#7c7059;stop-opacity:1"/></linearGradient><linearGradient id="_Linear6" x1="0" y1="0" x2="1" y2="0" gradientUnits="userSpaceOnUse" gradientTransform="matrix(4.77222,0,0,4.77222,103.01,127.392)"><stop offset="0" style="stop-color:#7c715a;stop-opacity:1"/><stop offset="0.09" style="stop-color:#afa795;stop-opacity:1"/><stop offset="0.2" style="stop-color:#e1dbcf;stop-opacity:1"/><stop offset="0.5" style="stop-color:#f7f2e8;stop-opacity:1"/><stop offset="0.8" style="stop-color:#e1dbcf;stop-opacity:1"/><stop offset="0.91" style="stop-color:#afa695;stop-opacity:1"/><stop offset="1" style="stop-color:#7c7059;stop-opacity:1"/></linearGradient><linearGradient id="_Linear7" x1="0" y1="0" x2="1" y2="0" gradientUnits="userSpaceOnUse" gradientTransform="matrix(3.34452,0,0,3.34452,97.9043,119.722)"><stop offset="0" style="stop-color:#7c715a;stop-opacity:1"/><stop offset="0.09" style="stop-color:#afa795;stop-opacity:1"/><stop offset="0.2" style="stop-color:#e1dbcf;stop-opacity:1"/><stop offset="0.5" style="stop-color:#f7f2e8;stop-opacity:1"/><stop offset="0.8" style="stop-color:#e1dbcf;stop-opacity:1"/><stop offset="0.91" style="stop-color:#afa695;stop-opacity:1"/><stop offset="1" style="stop-color:#7c7059;stop-opacity:1"/></linearGradient></defs></svg>