<?xml version="1.0" encoding="UTF-8" standalone="no"?><!DOCTYPE svg PUBLIC "-//W3C//DTD SVG 1.1//EN" "http://www.w3.org/Graphics/SVG/1.1/DTD/svg11.dtd"><svg width="100%" height="100%" viewBox="0 0 55 64" version="1.1" xmlns="http://www.w3.org/2000/svg" xmlns:xlink="http://www.w3.org/1999/xlink" xml:space="preserve" xmlns:serif="http://www.serif.com/" style="fill-rule:evenodd;clip-rule:evenodd;stroke-linecap:round;stroke-linejoin:round;stroke-miterlimit:1.5;"><g id="Beta-Cure" serif:id="Beta Cure"><g id="Flaske"><path d="M50.829,15.414c0,-2.728 -2.216,-4.944 -4.944,-4.944l-36.67,0c-2.729,0 -4.944,2.216 -4.944,4.944l0,41.953c0,2.728 2.215,4.943 4.944,4.943l36.67,0c2.728,0 4.944,-2.215 4.944,-4.943l0,-41.953Z" style="fill:url(#_Linear1);"/><path d="M45.926,8.97l0.041,0.001l0.042,0.001l0.041,0l0.042,0.002l0.041,0.001l0.041,0.002l0.041,0.002l0.041,0.002l0.041,0.002l0.041,0.003l0.041,0.003l0.041,0.003l0.04,0.004l0.041,0.004l0.041,0.004l0.04,0.004l0.041,0.004l0.04,0.005l0.04,0.005l0.04,0.005l0.041,0.006l0.04,0.006l0.04,0.006l0.04,0.006l0.04,0.006l0.04,0.007l0.04,0.007l0.039,0.007l0.04,0.008l0.039,0.007l0.039,0.008l0.04,0.009l0.04,0.008l0.038,0.009l0.039,0.009l0.039,0.009l0.039,0.009l0.039,0.01l0.039,0.01l0.039,0.01l0.038,0.01l0.038,0.01l0.038,0.011l0.039,0.011l0.038,0.011l0.037,0.012l0.04,0.012l0.037,0.012l0.037,0.011l0.039,0.013l0.037,0.013l0.036,0.012l0.038,0.013l0.039,0.014l0.037,0.013l0.035,0.014l0.037,0.014l0.038,0.014l0.037,0.014l0.036,0.015l0.037,0.015l0.035,0.014l0.036,0.015l0.037,0.016l0.036,0.016l0.036,0.016l0.036,0.016l0.035,0.016l0.037,0.017l0.035,0.017l0.034,0.016l0.035,0.017l0.037,0.018l0.034,0.017l0.035,0.018l0.034,0.017l0.034,0.018l0.036,0.019l0.034,0.019l0.034,0.018l0.034,0.019l0.033,0.019l0.036,0.02l0.033,0.019l0.034,0.021l0.065,0.038l0.067,0.042l0.065,0.041l0.066,0.042l0.064,0.043l0.064,0.044l0.064,0.045l0.062,0.045l0.063,0.046l0.061,0.047l0.061,0.047l0.061,0.048l0.06,0.049l0.058,0.049l0.059,0.051l0.058,0.051l0.058,0.051l0.057,0.053l0.056,0.053l0.056,0.053l0.054,0.054l0.055,0.056l0.054,0.055l0.052,0.056l0.052,0.057l0.051,0.056l0.052,0.059l0.051,0.059l0.048,0.059l0.05,0.06l0.048,0.061l0.048,0.061l0.046,0.062l0.045,0.061l0.046,0.063l0.045,0.065l0.044,0.064l0.042,0.063l0.043,0.066l0.041,0.065l0.041,0.066l0.04,0.067l0.019,0.032l0.02,0.035l0.02,0.034l0.019,0.034l0.019,0.035l0.019,0.034l0.018,0.035l0.017,0.031l0.019,0.035l0.019,0.038l0.018,0.035l0.016,0.032l0.017,0.035l0.018,0.036l0.016,0.035l0.017,0.035l0.017,0.036l0.016,0.036l0.016,0.036l0.016,0.035l0.017,0.04l0.015,0.036l0.014,0.033l0.015,0.036l0.015,0.036l0.014,0.037l0.015,0.036l0.015,0.04l0.014,0.037l0.012,0.033l0.013,0.037l0.015,0.04l0.013,0.037l0.012,0.037l0.013,0.037l0.012,0.038l0.013,0.04l0.011,0.034l0.011,0.038l0.013,0.041l0.011,0.037l0.011,0.038l0.011,0.041l0.01,0.038l0.01,0.034l0.011,0.042l0.009,0.038l0.01,0.038l0.01,0.041l0.009,0.039l0.008,0.038l0.009,0.038l0.008,0.038l0.009,0.042l0.007,0.039l0.008,0.038l0.008,0.043l0.007,0.038l0.007,0.039l0.006,0.038l0.007,0.043l0.006,0.039l0.006,0.038l0.006,0.043l0.005,0.039l0.006,0.039l0.005,0.043l0.005,0.043l0.004,0.035l0.004,0.039l0.005,0.047l0.003,0.039l0.004,0.039l0.003,0.043l0.003,0.039l0.002,0.04l0.003,0.039l0.002,0.043l0.002,0.043l0.002,0.04l0.001,0.043l0.002,0.079l0.001,0.043l0,0.044l0,42.031l0,0.043l-0.001,0.044l-0.001,0.039l-0.001,0.04l-0.001,0.043l-0.002,0.039l-0.002,0.044l-0.002,0.043l-0.003,0.039l-0.002,0.039l-0.003,0.04l-0.003,0.043l-0.004,0.039l-0.003,0.039l-0.005,0.047l-0.004,0.039l-0.004,0.035l-0.005,0.043l-0.005,0.043l-0.006,0.039l-0.005,0.039l-0.006,0.042l-0.006,0.039l-0.006,0.039l-0.007,0.042l-0.006,0.039l-0.007,0.039l-0.007,0.038l-0.008,0.042l-0.008,0.039l-0.007,0.038l-0.009,0.042l-0.008,0.039l-0.009,0.038l-0.008,0.038l-0.009,0.038l-0.01,0.042l-0.01,0.038l-0.009,0.038l-0.011,0.042l-0.01,0.034l-0.01,0.037l-0.011,0.042l-0.011,0.037l-0.011,0.038l-0.013,0.041l-0.011,0.038l-0.011,0.033l-0.013,0.041l-0.012,0.037l-0.013,0.038l-0.012,0.037l-0.013,0.036l-0.015,0.041l-0.013,0.037l-0.012,0.033l-0.014,0.037l-0.015,0.04l-0.015,0.036l-0.014,0.037l-0.015,0.036l-0.015,0.036l-0.014,0.033l-0.015,0.036l-0.017,0.039l-0.016,0.036l-0.016,0.036l-0.016,0.036l-0.017,0.035l-0.017,0.036l-0.016,0.035l-0.018,0.036l-0.017,0.035l-0.016,0.032l-0.018,0.035l-0.019,0.038l-0.019,0.035l-0.017,0.031l-0.018,0.035l-0.019,0.034l-0.019,0.035l-0.019,0.034l-0.02,0.034l-0.02,0.034l-0.019,0.033l-0.04,0.067l-0.041,0.066l-0.041,0.065l-0.043,0.066l-0.042,0.063l-0.044,0.064l-0.045,0.065l-0.046,0.063l-0.045,0.061l-0.046,0.061l-0.048,0.062l-0.048,0.061l-0.05,0.06l-0.048,0.058l-0.051,0.06l-0.052,0.058l-0.051,0.057l-0.052,0.057l-0.052,0.055l-0.054,0.056l-0.055,0.055l-0.054,0.055l-0.056,0.053l-0.056,0.053l-0.057,0.052l-0.058,0.052l-0.058,0.051l-0.059,0.05l-0.058,0.049l-0.06,0.05l-0.061,0.048l-0.061,0.047l-0.061,0.046l-0.063,0.047l-0.062,0.045l-0.064,0.045l-0.064,0.043l-0.064,0.043l-0.066,0.043l-0.065,0.041l-0.067,0.041l-0.065,0.039l-0.034,0.02l-0.033,0.02l-0.036,0.02l-0.033,0.019l-0.034,0.018l-0.034,0.019l-0.034,0.018l-0.036,0.019l-0.034,0.018l-0.034,0.018l-0.035,0.018l-0.034,0.017l-0.037,0.018l-0.035,0.017l-0.034,0.016l-0.035,0.017l-0.037,0.017l-0.035,0.016l-0.036,0.016l-0.036,0.016l-0.036,0.015l-0.037,0.016l-0.036,0.016l-0.035,0.014l-0.037,0.015l-0.036,0.014l-0.037,0.015l-0.038,0.014l-0.037,0.014l-0.035,0.013l-0.038,0.014l-0.038,0.014l-0.038,0.013l-0.036,0.012l-0.037,0.013l-0.039,0.012l-0.037,0.012l-0.037,0.012l-0.04,0.012l-0.037,0.011l-0.038,0.012l-0.038,0.01l-0.039,0.011l-0.039,0.011l-0.037,0.01l-0.039,0.01l-0.039,0.01l-0.039,0.01l-0.039,0.009l-0.039,0.009l-0.039,0.009l-0.038,0.009l-0.04,0.008l-0.04,0.008l-0.039,0.008l-0.039,0.008l-0.04,0.007l-0.039,0.008l-0.04,0.007l-0.04,0.006l-0.04,0.007l-0.04,0.006l-0.04,0.006l-0.04,0.006l-0.041,0.005l-0.04,0.006l-0.04,0.005l-0.04,0.004l-0.041,0.005l-0.04,0.004l-0.041,0.004l-0.041,0.004l-0.04,0.003l-0.041,0.004l-0.041,0.003l-0.041,0.002l-0.041,0.003l-0.041,0.002l-0.041,0.002l-0.041,0.002l-0.041,0.001l-0.042,0.001l-0.041,0.001l-0.041,0.001l-0.042,0l-0.039,0l-36.674,0l-0.04,0l-0.041,0l-0.042,-0.001l-0.041,-0.001l-0.041,-0.001l-0.041,-0.001l-0.041,-0.002l-0.041,-0.002l-0.042,-0.002l-0.041,-0.003l-0.04,-0.002l-0.041,-0.003l-0.041,-0.004l-0.041,-0.003l-0.04,-0.004l-0.041,-0.004l-0.041,-0.004l-0.04,-0.005l-0.041,-0.004l-0.04,-0.005l-0.04,-0.006l-0.04,-0.005l-0.041,-0.006l-0.04,-0.006l-0.039,-0.006l-0.04,-0.007l-0.04,-0.006l-0.04,-0.007l-0.04,-0.008l-0.039,-0.007l-0.04,-0.008l-0.039,-0.008l-0.039,-0.008l-0.039,-0.008l-0.039,-0.009l-0.04,-0.009l-0.039,-0.009l-0.039,-0.009l-0.039,-0.01l-0.038,-0.01l-0.038,-0.01l-0.039,-0.01l-0.039,-0.011l-0.038,-0.011l-0.038,-0.01l-0.038,-0.012l-0.039,-0.011l-0.038,-0.012l-0.038,-0.012l-0.037,-0.012l-0.037,-0.012l-0.037,-0.013l-0.039,-0.013l-0.038,-0.013l-0.035,-0.013l-0.038,-0.013l-0.038,-0.014l-0.037,-0.014l-0.035,-0.014l-0.037,-0.014l-0.038,-0.015l-0.036,-0.015l-0.037,-0.015l-0.036,-0.015l-0.034,-0.015l-0.038,-0.016l-0.036,-0.016l-0.035,-0.016l-0.037,-0.017l-0.034,-0.015l-0.035,-0.017l-0.037,-0.018l-0.035,-0.017l-0.033,-0.016l-0.035,-0.018l-0.036,-0.018l-0.036,-0.018l-0.034,-0.019l-0.033,-0.017l-0.034,-0.018l-0.036,-0.02l-0.033,-0.018l-0.034,-0.019l-0.035,-0.02l-0.033,-0.02l-0.035,-0.02l-0.065,-0.039l-0.066,-0.041l-0.066,-0.041l-0.065,-0.043l-0.064,-0.043l-0.064,-0.043l-0.064,-0.045l-0.063,-0.045l-0.061,-0.046l-0.063,-0.047l-0.06,-0.047l-0.061,-0.048l-0.06,-0.05l-0.06,-0.049l-0.058,-0.05l-0.058,-0.051l-0.058,-0.052l-0.057,-0.052l-0.056,-0.053l-0.055,-0.053l-0.055,-0.055l-0.054,-0.054l-0.054,-0.057l-0.053,-0.055l-0.052,-0.057l-0.052,-0.058l-0.05,-0.057l-0.05,-0.058l-0.051,-0.061l-0.049,-0.061l-0.047,-0.059l-0.047,-0.06l-0.047,-0.062l-0.047,-0.064l-0.045,-0.063l-0.044,-0.062l-0.044,-0.063l-0.043,-0.066l-0.042,-0.065l-0.042,-0.065l-0.04,-0.066l-0.04,-0.065l-0.021,-0.038l-0.018,-0.031l-0.02,-0.034l-0.019,-0.034l-0.02,-0.035l-0.018,-0.034l-0.017,-0.032l-0.02,-0.038l-0.019,-0.034l-0.016,-0.032l-0.018,-0.035l-0.017,-0.035l-0.018,-0.035l-0.019,-0.039l-0.016,-0.036l-0.016,-0.032l-0.016,-0.035l-0.016,-0.036l-0.017,-0.036l-0.015,-0.036l-0.016,-0.036l-0.015,-0.036l-0.016,-0.036l-0.015,-0.036l-0.014,-0.036l-0.016,-0.04l-0.014,-0.037l-0.013,-0.033l-0.014,-0.037l-0.014,-0.036l-0.014,-0.041l-0.013,-0.037l-0.013,-0.036l-0.013,-0.037l-0.012,-0.038l-0.012,-0.037l-0.013,-0.037l-0.012,-0.041l-0.012,-0.037l-0.011,-0.038l-0.011,-0.038l-0.011,-0.037l-0.011,-0.038l-0.01,-0.038l-0.011,-0.041l-0.01,-0.038l-0.01,-0.038l-0.009,-0.038l-0.009,-0.038l-0.01,-0.042l-0.009,-0.038l-0.008,-0.038l-0.009,-0.042l-0.008,-0.039l-0.008,-0.038l-0.007,-0.039l-0.008,-0.038l-0.007,-0.042l-0.007,-0.039l-0.007,-0.042l-0.007,-0.039l-0.006,-0.039l-0.005,-0.039l-0.006,-0.039l-0.007,-0.046l-0.004,-0.039l-0.005,-0.035l-0.005,-0.043l-0.005,-0.043l-0.004,-0.039l-0.004,-0.039l-0.004,-0.043l-0.003,-0.039l-0.003,-0.039l-0.003,-0.044l-0.003,-0.039l-0.003,-0.043l-0.002,-0.043l-0.002,-0.04l-0.001,-0.039l-0.002,-0.039l-0.001,-0.044l-0.001,-0.043l0,-0.04l-0.001,-0.039l0,-0.04l0,-41.96l0,-0.039l0.001,-0.04l0,-0.039l0.001,-0.044l0.001,-0.043l0.002,-0.039l0.001,-0.04l0.002,-0.039l0.002,-0.043l0.003,-0.043l0.003,-0.04l0.003,-0.043l0.003,-0.039l0.003,-0.039l0.004,-0.043l0.004,-0.039l0.004,-0.039l0.005,-0.043l0.005,-0.043l0.005,-0.035l0.004,-0.039l0.007,-0.047l0.006,-0.039l0.005,-0.038l0.006,-0.039l0.007,-0.039l0.007,-0.042l0.007,-0.039l0.007,-0.042l0.008,-0.039l0.007,-0.038l0.008,-0.039l0.008,-0.038l0.009,-0.042l0.008,-0.038l0.009,-0.038l0.01,-0.042l0.009,-0.038l0.009,-0.038l0.01,-0.038l0.01,-0.038l0.011,-0.042l0.01,-0.037l0.011,-0.038l0.011,-0.038l0.011,-0.037l0.011,-0.038l0.012,-0.037l0.012,-0.041l0.013,-0.037l0.012,-0.038l0.012,-0.037l0.013,-0.037l0.013,-0.037l0.013,-0.037l0.014,-0.04l0.014,-0.037l0.014,-0.036l0.013,-0.033l0.014,-0.037l0.016,-0.04l0.014,-0.036l0.015,-0.036l0.016,-0.037l0.015,-0.036l0.016,-0.036l0.015,-0.035l0.017,-0.036l0.016,-0.036l0.016,-0.036l0.016,-0.032l0.016,-0.035l0.019,-0.039l0.018,-0.035l0.017,-0.035l0.018,-0.035l0.016,-0.032l0.019,-0.035l0.02,-0.038l0.017,-0.031l0.018,-0.034l0.02,-0.035l0.019,-0.034l0.02,-0.034l0.018,-0.031l0.021,-0.038l0.04,-0.065l0.04,-0.066l0.042,-0.065l0.042,-0.065l0.043,-0.066l0.044,-0.064l0.044,-0.062l0.045,-0.062l0.047,-0.064l0.047,-0.062l0.047,-0.06l0.047,-0.06l0.049,-0.06l0.051,-0.061l0.05,-0.058l0.05,-0.057l0.052,-0.058l0.052,-0.057l0.053,-0.056l0.054,-0.056l0.054,-0.055l0.055,-0.054l0.055,-0.053l0.056,-0.053l0.057,-0.053l0.058,-0.051l0.058,-0.051l0.058,-0.05l0.06,-0.05l0.06,-0.049l0.061,-0.048l0.06,-0.047l0.063,-0.047l0.061,-0.046l0.063,-0.045l0.064,-0.045l0.064,-0.044l0.064,-0.043l0.065,-0.042l0.066,-0.041l0.066,-0.041l0.065,-0.039l0.035,-0.021l0.033,-0.019l0.035,-0.02l0.034,-0.019l0.033,-0.019l0.036,-0.019l0.034,-0.018l0.033,-0.018l0.034,-0.018l0.036,-0.018l0.036,-0.019l0.035,-0.017l0.033,-0.017l0.035,-0.017l0.037,-0.017l0.035,-0.017l0.034,-0.015l0.037,-0.017l0.035,-0.016l0.036,-0.016l0.038,-0.016l0.034,-0.015l0.036,-0.015l0.037,-0.015l0.036,-0.015l0.038,-0.015l0.037,-0.014l0.035,-0.014l0.037,-0.014l0.038,-0.014l0.037,-0.014l0.036,-0.012l0.038,-0.013l0.039,-0.014l0.037,-0.012l0.037,-0.012l0.037,-0.012l0.038,-0.012l0.038,-0.012l0.039,-0.012l0.038,-0.011l0.038,-0.011l0.038,-0.011l0.039,-0.01l0.038,-0.01l0.039,-0.011l0.038,-0.009l0.039,-0.01l0.039,-0.009l0.039,-0.009l0.04,-0.009l0.039,-0.009l0.039,-0.008l0.039,-0.009l0.039,-0.008l0.04,-0.007l0.039,-0.008l0.04,-0.007l0.04,-0.007l0.04,-0.007l0.04,-0.006l0.039,-0.006l0.04,-0.006l0.041,-0.006l0.04,-0.006l0.04,-0.005l0.04,-0.005l0.041,-0.005l0.04,-0.004l0.041,-0.004l0.041,-0.004l0.04,-0.004l0.041,-0.004l0.041,-0.003l0.041,-0.003l0.04,-0.003l0.041,-0.002l0.042,-0.002l0.041,-0.002l0.041,-0.002l0.041,-0.001l0.041,-0.002l0.041,0l0.042,-0.001l0.042,-0.001l0.039,0l36.674,0l0.039,0Zm-36.711,1.5l-0.032,0l-0.032,0.001l-0.032,0l-0.032,0.001l-0.031,0.001l-0.032,0.001l-0.032,0.001l-0.031,0.002l-0.032,0.002l-0.031,0.001l-0.032,0.002l-0.031,0.003l-0.032,0.002l-0.031,0.003l-0.031,0.003l-0.031,0.003l-0.031,0.003l-0.032,0.004l-0.031,0.003l-0.03,0.004l-0.031,0.004l-0.031,0.004l-0.031,0.005l-0.031,0.004l-0.03,0.005l-0.031,0.005l-0.03,0.005l-0.031,0.006l-0.03,0.005l-0.031,0.006l-0.03,0.006l-0.03,0.006l-0.03,0.006l-0.03,0.007l-0.03,0.006l-0.03,0.007l-0.03,0.007l-0.03,0.007l-0.029,0.008l-0.03,0.007l-0.03,0.008l-0.029,0.008l-0.03,0.008l-0.029,0.008l-0.029,0.008l-0.029,0.009l-0.03,0.009l-0.029,0.009l-0.029,0.009l-0.029,0.009l-0.028,0.01l-0.029,0.009l-0.029,0.01l-0.028,0.01l-0.029,0.01l-0.028,0.011l-0.029,0.01l-0.028,0.011l-0.028,0.011l-0.028,0.011l-0.028,0.011l-0.028,0.011l-0.028,0.011l-0.028,0.012l-0.027,0.012l-0.028,0.012l-0.028,0.012l-0.027,0.012l-0.027,0.013l-0.028,0.012l-0.027,0.013l-0.027,0.013l-0.027,0.013l-0.027,0.014l-0.026,0.013l-0.027,0.014l-0.027,0.013l-0.026,0.014l-0.027,0.014l-0.026,0.014l-0.026,0.015l-0.026,0.014l-0.026,0.015l-0.026,0.015l-0.026,0.015l-0.026,0.015l-0.051,0.031l-0.051,0.031l-0.05,0.032l-0.05,0.032l-0.05,0.033l-0.049,0.034l-0.048,0.034l-0.049,0.035l-0.047,0.035l-0.048,0.036l-0.047,0.036l-0.046,0.037l-0.046,0.038l-0.046,0.038l-0.045,0.039l-0.044,0.039l-0.045,0.039l-0.043,0.04l-0.043,0.041l-0.043,0.041l-0.042,0.042l-0.042,0.042l-0.041,0.043l-0.041,0.043l-0.04,0.044l-0.04,0.044l-0.039,0.045l-0.038,0.045l-0.038,0.045l-0.038,0.046l-0.037,0.047l-0.036,0.047l-0.036,0.047l-0.036,0.048l-0.034,0.048l-0.035,0.049l-0.033,0.049l-0.033,0.049l-0.033,0.05l-0.032,0.051l-0.031,0.05l-0.031,0.052l-0.015,0.025l-0.015,0.026l-0.014,0.026l-0.015,0.026l-0.015,0.026l-0.014,0.026l-0.014,0.027l-0.014,0.026l-0.014,0.027l-0.014,0.026l-0.013,0.027l-0.014,0.027l-0.013,0.027l-0.013,0.027l-0.013,0.027l-0.013,0.027l-0.013,0.027l-0.012,0.027l-0.012,0.028l-0.012,0.027l-0.012,0.028l-0.012,0.028l-0.012,0.027l-0.011,0.028l-0.012,0.028l-0.011,0.028l-0.011,0.028l-0.011,0.028l-0.01,0.029l-0.011,0.028l-0.01,0.029l-0.01,0.028l-0.01,0.029l-0.01,0.028l-0.01,0.029l-0.009,0.029l-0.009,0.029l-0.01,0.029l-0.009,0.029l-0.008,0.029l-0.009,0.029l-0.008,0.029l-0.009,0.03l-0.008,0.029l-0.008,0.03l-0.007,0.029l-0.008,0.03l-0.007,0.03l-0.007,0.029l-0.007,0.03l-0.007,0.03l-0.007,0.03l-0.006,0.03l-0.006,0.03l-0.007,0.031l-0.005,0.03l-0.006,0.03l-0.006,0.031l-0.005,0.03l-0.005,0.031l-0.005,0.03l-0.005,0.031l-0.005,0.03l-0.004,0.031l-0.004,0.031l-0.004,0.031l-0.004,0.031l-0.004,0.031l-0.003,0.031l-0.003,0.031l-0.004,0.031l-0.002,0.031l-0.003,0.032l-0.003,0.031l-0.002,0.031l-0.002,0.032l-0.002,0.031l-0.002,0.032l-0.001,0.032l-0.001,0.031l-0.001,0.032l-0.001,0.032l-0.001,0.031l-0.001,0.032l0,0.032l0,0.032l0,41.953l0,0.031l0,0.032l0.001,0.032l0.001,0.032l0.001,0.032l0.001,0.032l0.001,0.031l0.001,0.032l0.002,0.031l0.002,0.032l0.002,0.031l0.002,0.032l0.003,0.031l0.003,0.031l0.002,0.032l0.004,0.031l0.003,0.031l0.003,0.031l0.004,0.031l0.004,0.031l0.004,0.031l0.004,0.031l0.004,0.03l0.005,0.031l0.005,0.031l0.005,0.03l0.005,0.031l0.005,0.03l0.006,0.031l0.006,0.03l0.005,0.03l0.007,0.03l0.006,0.03l0.006,0.031l0.007,0.03l0.007,0.029l0.007,0.03l0.007,0.03l0.007,0.03l0.008,0.029l0.007,0.03l0.008,0.03l0.008,0.029l0.009,0.029l0.008,0.03l0.009,0.029l0.008,0.029l0.009,0.029l0.01,0.029l0.009,0.029l0.009,0.029l0.01,0.028l0.01,0.029l0.01,0.029l0.01,0.028l0.01,0.029l0.011,0.028l0.01,0.028l0.011,0.028l0.011,0.029l0.011,0.028l0.012,0.028l0.011,0.027l0.012,0.028l0.012,0.028l0.012,0.027l0.012,0.028l0.012,0.027l0.012,0.028l0.013,0.027l0.013,0.027l0.013,0.027l0.013,0.027l0.013,0.027l0.014,0.027l0.013,0.026l0.014,0.027l0.014,0.027l0.014,0.026l0.014,0.026l0.014,0.026l0.015,0.027l0.015,0.026l0.014,0.026l0.015,0.025l0.015,0.026l0.031,0.051l0.031,0.051l0.032,0.05l0.033,0.05l0.033,0.05l0.033,0.049l0.035,0.049l0.034,0.048l0.036,0.048l0.036,0.047l0.036,0.047l0.037,0.046l0.038,0.047l0.038,0.045l0.038,0.045l0.039,0.045l0.04,0.044l0.04,0.044l0.041,0.043l0.041,0.042l0.042,0.043l0.042,0.041l0.043,0.042l0.043,0.04l0.043,0.04l0.045,0.04l0.044,0.039l0.045,0.039l0.046,0.038l0.046,0.037l0.046,0.037l0.047,0.037l0.048,0.036l0.047,0.035l0.049,0.035l0.048,0.034l0.049,0.034l0.05,0.033l0.05,0.032l0.05,0.032l0.051,0.031l0.051,0.031l0.026,0.015l0.026,0.015l0.026,0.015l0.026,0.014l0.026,0.015l0.026,0.014l0.026,0.014l0.027,0.015l0.026,0.013l0.027,0.014l0.027,0.014l0.026,0.013l0.027,0.013l0.027,0.014l0.027,0.012l0.027,0.013l0.028,0.013l0.027,0.012l0.027,0.013l0.028,0.012l0.028,0.012l0.027,0.012l0.028,0.011l0.028,0.012l0.028,0.011l0.028,0.011l0.028,0.011l0.028,0.011l0.028,0.011l0.029,0.01l0.028,0.01l0.029,0.011l0.028,0.01l0.029,0.009l0.029,0.01l0.028,0.01l0.029,0.009l0.029,0.009l0.029,0.009l0.03,0.009l0.029,0.008l0.029,0.009l0.029,0.008l0.03,0.008l0.029,0.008l0.03,0.008l0.03,0.007l0.029,0.007l0.03,0.008l0.03,0.007l0.03,0.006l0.03,0.007l0.03,0.007l0.03,0.006l0.03,0.006l0.03,0.006l0.031,0.006l0.03,0.005l0.031,0.005l0.03,0.006l0.031,0.005l0.03,0.004l0.031,0.005l0.031,0.004l0.031,0.005l0.031,0.004l0.03,0.003l0.031,0.004l0.032,0.004l0.031,0.003l0.031,0.003l0.031,0.003l0.031,0.002l0.032,0.003l0.031,0.002l0.032,0.002l0.031,0.002l0.032,0.002l0.031,0.001l0.032,0.002l0.032,0.001l0.031,0.001l0.032,0l0.032,0.001l0.032,0l0.032,0l36.67,0l0.032,0l0.032,0l0.031,-0.001l0.032,0l0.032,-0.001l0.032,-0.001l0.031,-0.002l0.032,-0.001l0.031,-0.002l0.032,-0.002l0.031,-0.002l0.032,-0.002l0.031,-0.003l0.031,-0.002l0.032,-0.003l0.031,-0.003l0.031,-0.003l0.031,-0.004l0.031,-0.004l0.031,-0.003l0.031,-0.004l0.031,-0.005l0.03,-0.004l0.031,-0.005l0.031,-0.004l0.03,-0.005l0.031,-0.006l0.03,-0.005l0.031,-0.005l0.03,-0.006l0.03,-0.006l0.031,-0.006l0.03,-0.006l0.03,-0.007l0.03,-0.007l0.03,-0.006l0.029,-0.007l0.03,-0.008l0.03,-0.007l0.03,-0.007l0.029,-0.008l0.03,-0.008l0.029,-0.008l0.029,-0.008l0.03,-0.009l0.029,-0.008l0.029,-0.009l0.029,-0.009l0.029,-0.009l0.029,-0.009l0.029,-0.01l0.029,-0.01l0.028,-0.009l0.029,-0.01l0.028,-0.011l0.029,-0.01l0.028,-0.01l0.028,-0.011l0.029,-0.011l0.028,-0.011l0.028,-0.011l0.028,-0.011l0.028,-0.012l0.027,-0.011l0.028,-0.012l0.028,-0.012l0.027,-0.012l0.027,-0.013l0.028,-0.012l0.027,-0.013l0.027,-0.013l0.027,-0.012l0.027,-0.014l0.027,-0.013l0.027,-0.013l0.027,-0.014l0.026,-0.014l0.027,-0.013l0.026,-0.015l0.026,-0.014l0.027,-0.014l0.026,-0.015l0.026,-0.014l0.026,-0.015l0.026,-0.015l0.025,-0.015l0.051,-0.031l0.051,-0.031l0.051,-0.032l0.049,-0.032l0.05,-0.033l0.049,-0.034l0.049,-0.034l0.048,-0.035l0.048,-0.035l0.047,-0.036l0.047,-0.037l0.047,-0.037l0.046,-0.037l0.045,-0.038l0.045,-0.039l0.045,-0.039l0.044,-0.04l0.044,-0.04l0.043,-0.04l0.043,-0.042l0.042,-0.041l0.042,-0.043l0.041,-0.042l0.04,-0.043l0.041,-0.044l0.039,-0.044l0.039,-0.045l0.039,-0.045l0.038,-0.045l0.038,-0.047l0.037,-0.046l0.036,-0.047l0.036,-0.047l0.035,-0.048l0.035,-0.048l0.034,-0.049l0.034,-0.049l0.033,-0.05l0.032,-0.05l0.032,-0.05l0.031,-0.051l0.031,-0.051l0.015,-0.026l0.015,-0.025l0.015,-0.026l0.015,-0.026l0.014,-0.027l0.014,-0.026l0.015,-0.026l0.014,-0.026l0.014,-0.027l0.013,-0.027l0.014,-0.026l0.013,-0.027l0.014,-0.027l0.013,-0.027l0.013,-0.027l0.012,-0.027l0.013,-0.027l0.013,-0.028l0.012,-0.027l0.012,-0.028l0.012,-0.027l0.012,-0.028l0.011,-0.028l0.012,-0.027l0.011,-0.028l0.011,-0.028l0.011,-0.029l0.011,-0.028l0.011,-0.028l0.01,-0.028l0.011,-0.029l0.01,-0.028l0.01,-0.029l0.01,-0.029l0.009,-0.028l0.01,-0.029l0.009,-0.029l0.009,-0.029l0.009,-0.029l0.009,-0.029l0.008,-0.029l0.009,-0.03l0.008,-0.029l0.008,-0.029l0.008,-0.03l0.008,-0.03l0.007,-0.029l0.008,-0.03l0.007,-0.03l0.007,-0.03l0.007,-0.029l0.006,-0.03l0.007,-0.031l0.006,-0.03l0.006,-0.03l0.006,-0.03l0.006,-0.03l0.005,-0.031l0.006,-0.03l0.005,-0.031l0.005,-0.03l0.005,-0.031l0.004,-0.031l0.005,-0.03l0.004,-0.031l0.004,-0.031l0.004,-0.031l0.003,-0.031l0.004,-0.031l0.003,-0.031l0.003,-0.031l0.003,-0.032l0.003,-0.031l0.002,-0.031l0.002,-0.032l0.002,-0.031l0.002,-0.032l0.002,-0.031l0.002,-0.032l0.001,-0.031l0.001,-0.032l0.001,-0.032l0.001,-0.032l0,-0.032l0,-0.032l0.001,-0.031l0,-41.953l-0.001,-0.032l0,-0.032l0,-0.032l-0.001,-0.031l-0.001,-0.032l-0.001,-0.032l-0.001,-0.031l-0.002,-0.032l-0.002,-0.032l-0.002,-0.031l-0.002,-0.032l-0.002,-0.031l-0.002,-0.031l-0.003,-0.032l-0.003,-0.031l-0.003,-0.031l-0.003,-0.031l-0.004,-0.031l-0.003,-0.031l-0.004,-0.031l-0.004,-0.031l-0.004,-0.031l-0.005,-0.031l-0.004,-0.03l-0.005,-0.031l-0.005,-0.03l-0.005,-0.031l-0.006,-0.03l-0.005,-0.031l-0.006,-0.03l-0.006,-0.03l-0.006,-0.031l-0.006,-0.03l-0.007,-0.03l-0.006,-0.03l-0.007,-0.03l-0.007,-0.03l-0.007,-0.029l-0.008,-0.03l-0.007,-0.03l-0.008,-0.029l-0.008,-0.03l-0.008,-0.029l-0.008,-0.03l-0.009,-0.029l-0.008,-0.029l-0.009,-0.029l-0.009,-0.029l-0.009,-0.029l-0.009,-0.029l-0.01,-0.029l-0.009,-0.029l-0.01,-0.028l-0.01,-0.029l-0.01,-0.028l-0.011,-0.029l-0.01,-0.028l-0.011,-0.029l-0.011,-0.028l-0.011,-0.028l-0.011,-0.028l-0.011,-0.028l-0.012,-0.028l-0.011,-0.027l-0.012,-0.028l-0.012,-0.028l-0.012,-0.027l-0.012,-0.028l-0.013,-0.027l-0.013,-0.027l-0.012,-0.027l-0.013,-0.027l-0.013,-0.027l-0.014,-0.027l-0.013,-0.027l-0.014,-0.027l-0.013,-0.026l-0.014,-0.027l-0.014,-0.026l-0.015,-0.027l-0.014,-0.026l-0.014,-0.026l-0.015,-0.026l-0.015,-0.026l-0.015,-0.026l-0.015,-0.025l-0.031,-0.052l-0.031,-0.05l-0.032,-0.051l-0.032,-0.05l-0.033,-0.049l-0.034,-0.049l-0.034,-0.049l-0.035,-0.048l-0.035,-0.048l-0.036,-0.047l-0.036,-0.047l-0.037,-0.047l-0.038,-0.046l-0.038,-0.045l-0.039,-0.045l-0.039,-0.045l-0.039,-0.044l-0.041,-0.044l-0.04,-0.043l-0.041,-0.043l-0.042,-0.042l-0.042,-0.042l-0.043,-0.041l-0.043,-0.041l-0.044,-0.04l-0.044,-0.039l-0.045,-0.039l-0.045,-0.039l-0.045,-0.038l-0.046,-0.038l-0.047,-0.037l-0.047,-0.036l-0.047,-0.036l-0.048,-0.035l-0.048,-0.035l-0.049,-0.034l-0.049,-0.034l-0.05,-0.033l-0.049,-0.032l-0.051,-0.032l-0.051,-0.031l-0.051,-0.031l-0.025,-0.015l-0.026,-0.015l-0.026,-0.015l-0.026,-0.015l-0.026,-0.014l-0.027,-0.015l-0.026,-0.014l-0.026,-0.014l-0.027,-0.014l-0.026,-0.013l-0.027,-0.014l-0.027,-0.013l-0.027,-0.014l-0.027,-0.013l-0.027,-0.013l-0.027,-0.013l-0.027,-0.012l-0.028,-0.013l-0.027,-0.012l-0.027,-0.012l-0.028,-0.012l-0.028,-0.012l-0.027,-0.012l-0.028,-0.011l-0.028,-0.011l-0.028,-0.011l-0.028,-0.011l-0.029,-0.011l-0.028,-0.011l-0.028,-0.01l-0.029,-0.011l-0.028,-0.01l-0.029,-0.01l-0.028,-0.01l-0.029,-0.009l-0.029,-0.01l-0.029,-0.009l-0.029,-0.009l-0.029,-0.009l-0.029,-0.009l-0.029,-0.009l-0.03,-0.008l-0.029,-0.008l-0.029,-0.008l-0.03,-0.008l-0.029,-0.008l-0.03,-0.007l-0.03,-0.008l-0.03,-0.007l-0.029,-0.007l-0.03,-0.007l-0.03,-0.006l-0.03,-0.007l-0.03,-0.006l-0.031,-0.006l-0.03,-0.006l-0.03,-0.006l-0.031,-0.005l-0.03,-0.006l-0.031,-0.005l-0.03,-0.005l-0.031,-0.005l-0.031,-0.004l-0.03,-0.005l-0.031,-0.004l-0.031,-0.004l-0.031,-0.004l-0.031,-0.003l-0.031,-0.004l-0.031,-0.003l-0.031,-0.003l-0.032,-0.003l-0.031,-0.003l-0.031,-0.002l-0.032,-0.003l-0.031,-0.002l-0.032,-0.001l-0.031,-0.002l-0.032,-0.002l-0.031,-0.001l-0.032,-0.001l-0.032,-0.001l-0.032,-0.001l-0.031,0l-0.032,-0.001l-0.032,0l-36.67,0Z" style="fill:#18001f;"/></g><path id="Etikett" d="M4.058,21.936l46.557,0l0,30.651l-23.065,0.24l-23.492,-0.24l0,-30.651Z" style="fill:url(#_Linear2);"/><path d="M50.746,20.945l0.128,0.025l0.124,0.042l0.117,0.058l0.109,0.073l0.098,0.086l0.087,0.099l0.072,0.108l0.058,0.118l0.042,0.123l0.026,0.129l0.008,0.13l0,30.651l-0.008,0.13l-0.025,0.127l-0.042,0.124l-0.057,0.116l-0.072,0.109l-0.085,0.098l-0.097,0.086l-0.108,0.073l-0.116,0.058l-0.122,0.043l-0.128,0.026l-0.129,0.01l-23.076,0.24l-23.502,-0.24l-0.13,-0.009l-0.127,-0.027l-0.123,-0.043l-0.116,-0.058l-0.108,-0.073l-0.097,-0.086l-0.085,-0.098l-0.072,-0.109l-0.057,-0.116l-0.042,-0.123l-0.025,-0.128l-0.008,-0.13l0,-30.651l0.008,-0.13l0.026,-0.129l0.042,-0.123l0.058,-0.118l0.072,-0.108l0.087,-0.099l0.098,-0.086l0.109,-0.073l0.117,-0.058l0.124,-0.042l0.128,-0.025l0.131,-0.009l46.557,0l0.131,0.009Zm-46.688,0.991l0,30.651l23.492,0.24l23.065,-0.24l0,-30.651l-46.557,0Z"/><path d="M28.708,33.124c0,0 1.969,-0.341 3.699,2.015c0.43,0.586 1.185,1.77 0.993,3.828c-0.286,3.067 -1.726,4.762 -3.837,4.916c-2.61,0.19 -3.639,-0.882 -4.13,-1.487c-0.606,-0.749 -0.443,-1.084 -0.443,-1.084c0,0 -0.109,0.712 1.556,1.614c0.653,0.353 6.358,1.618 6.358,-4.709c0,-3.51 -2.73,-4.799 -3.891,-4.705c-2.642,0.215 -2.923,-0.851 -2.923,-0.851c0,0 1.014,1.36 2.833,-0.332c0.976,-0.909 1.589,-2.811 1.347,-3.676c-0.248,-0.889 -0.755,-1.253 -1.255,-1.543c-0.972,-0.564 -2.474,-0.473 -3.513,0.568c-0.717,0.718 -1.428,1.571 -1.49,4.33c-0.141,6.178 0.028,10.017 -0.03,11.181c-0.272,5.415 -2.03,6.339 -2.03,6.339l-0.643,-0.592c0,0 2.1,-1.959 2.02,-6.118c-0.081,-4.159 0.15,-7.84 0.06,-10.448c-0.025,-0.719 -0.47,-5.079 -0.818,-5.522c-0.417,-0.533 -0.699,-0.144 -0.739,0.137c-0.085,0.59 0.492,1.477 0.492,1.477c0,0 -1.226,-0.563 -0.995,-1.698c0.134,-0.659 0.694,-0.655 1.075,-0.522c0.366,0.128 0.538,0.697 0.654,1.188c0.078,0.332 0.612,3.915 0.612,3.915c0,0 0.429,-4.993 3.767,-4.993c2.78,0 3.212,2.384 3.225,2.934c0.068,2.896 -1.954,3.838 -1.954,3.838Z" style="stroke:#000;stroke-width:0.24px;"/><path id="Lokk" d="M54.154,3.27c0,-1.324 -1.075,-2.4 -2.4,-2.4l-48.409,0c-1.324,0 -2.4,1.076 -2.4,2.4l0,4.8c0,1.325 1.076,2.4 2.4,2.4l48.409,0c1.325,0 2.4,-1.075 2.4,-2.4l0,-4.8Z" style="fill:url(#_Linear3);stroke:#000;stroke-width:1.5px;"/></g><defs><linearGradient id="_Linear1" x1="0" y1="0" x2="1" y2="0" gradientUnits="userSpaceOnUse" gradientTransform="matrix(46.5575,0,0,51.84,4.271,36.3904)"><stop offset="0" style="stop-color:#001f00;stop-opacity:1"/><stop offset="0.09" style="stop-color:#163712;stop-opacity:1"/><stop offset="0.2" style="stop-color:#2b4e23;stop-opacity:1"/><stop offset="0.5" style="stop-color:#34582a;stop-opacity:1"/><stop offset="0.8" style="stop-color:#2b4e23;stop-opacity:1"/><stop offset="0.91" style="stop-color:#163712;stop-opacity:1"/><stop offset="1" style="stop-color:#001f00;stop-opacity:1"/></linearGradient><linearGradient id="_Linear2" x1="0" y1="0" x2="1" y2="0" gradientUnits="userSpaceOnUse" gradientTransform="matrix(46.5575,0,0,32.571,4.271,36.5959)"><stop offset="0" style="stop-color:#7c715a;stop-opacity:1"/><stop offset="0.09" style="stop-color:#afa795;stop-opacity:1"/><stop offset="0.2" style="stop-color:#e1dbcf;stop-opacity:1"/><stop offset="0.5" style="stop-color:#f7f2e8;stop-opacity:1"/><stop offset="0.8" style="stop-color:#e1dbcf;stop-opacity:1"/><stop offset="0.91" style="stop-color:#afa695;stop-opacity:1"/><stop offset="1" style="stop-color:#7c7059;stop-opacity:1"/></linearGradient><linearGradient id="_Linear3" x1="0" y1="0" x2="1" y2="0" gradientUnits="userSpaceOnUse" gradientTransform="matrix(53.2086,0,0,9.6,0.945458,5.67036)"><stop offset="0" style="stop-color:#1e1b1b;stop-opacity:1"/><stop offset="0.09" style="stop-color:#464444;stop-opacity:1"/><stop offset="0.2" style="stop-color:#6c6c6c;stop-opacity:1"/><stop offset="0.5" style="stop-color:#7d7d7d;stop-opacity:1"/><stop offset="0.8" style="stop-color:#6c6c6c;stop-opacity:1"/><stop offset="0.91" style="stop-color:#464444;stop-opacity:1"/><stop offset="1" style="stop-color:#1e1b1b;stop-opacity:1"/></linearGradient></defs></svg>