<?xml version="1.0" encoding="UTF-8" standalone="no"?><!DOCTYPE svg PUBLIC "-//W3C//DTD SVG 1.1//EN" "http://www.w3.org/Graphics/SVG/1.1/DTD/svg11.dtd"><svg width="100%" height="100%" viewBox="0 0 122 122" version="1.1" xmlns="http://www.w3.org/2000/svg" xmlns:xlink="http://www.w3.org/1999/xlink" xml:space="preserve" xmlns:serif="http://www.serif.com/" style="fill-rule:evenodd;clip-rule:evenodd;stroke-linecap:round;stroke-miterlimit:1.5;"><g id="Chat"><circle cx="60.529" cy="60.729" r="60.505" style="fill:#7c7159;"/><path d="M106.784,44.89c0,-7.065 -5.736,-12.801 -12.801,-12.801l-66.898,0c-7.065,0 -12.801,5.736 -12.801,12.801l0,25.602c0,7.065 5.736,12.801 12.801,12.801l5.159,0l-4.562,21.944l19.281,-21.944l47.02,0c7.065,0 12.801,-5.736 12.801,-12.801l0,-25.602Z" style="fill:#f7f2e8;"/><clipPath id="_clip1"><path d="M106.784,44.89c0,-7.065 -5.736,-12.801 -12.801,-12.801l-66.898,0c-7.065,0 -12.801,5.736 -12.801,12.801l0,25.602c0,7.065 5.736,12.801 12.801,12.801l5.159,0l-4.562,21.944l19.281,-21.944l47.02,0c7.065,0 12.801,-5.736 12.801,-12.801l0,-25.602Z"/></clipPath><g clip-path="url(#_clip1)"><path d="M27.959,46.087l27.866,0.129" style="fill:none;stroke:#000;stroke-width:1px;"/><path d="M67.694,46.183l12.449,-0.064" style="fill:none;stroke:#000;stroke-width:1px;"/><path d="M27.443,55.698l70.955,0.774" style="fill:none;stroke:#000;stroke-width:1px;"/><path d="M28.088,66.623l10.803,0.095" style="fill:none;stroke:#000;stroke-width:1px;"/><path d="M47.832,66.671l37.792,0" style="fill:none;stroke:#000;stroke-width:1px;"/></g></g></svg>