<?xml version="1.0" encoding="UTF-8" standalone="no"?><!DOCTYPE svg PUBLIC "-//W3C//DTD SVG 1.1//EN" "http://www.w3.org/Graphics/SVG/1.1/DTD/svg11.dtd"><svg width="100%" height="100%" viewBox="0 0 170 170" version="1.1" xmlns="http://www.w3.org/2000/svg" xmlns:xlink="http://www.w3.org/1999/xlink" xml:space="preserve" xmlns:serif="http://www.serif.com/" style="fill-rule:evenodd;clip-rule:evenodd;stroke-linecap:square;stroke-linejoin:round;stroke-miterlimit:1.5;"><g id="Delta-PlayerCard" serif:id="Delta PlayerCard"><path d="M13.956,0.753c-7.417,0.005 -13.435,6.032 -13.429,13.45l0.111,141.12c0.006,7.418 6.033,13.435 13.451,13.429l141.119,-0.11c7.418,-0.006 13.436,-6.033 13.43,-13.451l-0.111,-141.12c-0.006,-7.418 -6.033,-13.435 -13.451,-13.429l-141.12,0.111Z" style="fill:url(#_Linear1);stroke:#00191f;stroke-width:1px;"/><path id="Delta" d="M20.674,57.131c0,0 1.098,0.473 0.797,1.986c-0.29,1.457 -1.276,0.504 -1.584,0.127c-0.399,-0.49 -0.953,-1.435 -1.365,-2.145c-0.716,-1.233 -1.881,-3.27 -3.433,-2.473c-0.654,0.335 -0.912,1.026 -0.88,1.494c0.074,1.063 0.683,2.002 1.148,2.758c0.482,0.784 4.789,6.324 5.237,6.991c2.314,3.438 2.101,5.536 1.575,7.106c-0.895,2.67 -5.04,3.924 -6.932,0.026c-1.719,-3.543 0.753,-6.658 3.082,-5.589c2.021,0.928 2.378,2.588 2.378,2.588c0,0 -0.511,-3.011 -2.51,-3.726c-4.294,-1.538 -4.751,4.221 -3.473,6.87c2.866,5.941 9.911,3.624 8.766,-2.361c-0.157,-0.821 -0.512,-2.698 -2.161,-5.183c-0.586,-0.884 -3.601,-4.265 -4.629,-5.888c-0.739,-1.168 -1.785,-2.64 -1.536,-3.852c0.175,-0.852 1.425,-0.555 1.777,-0.222c0.352,0.333 2.555,3.743 2.637,3.862c1.396,2.013 2.467,0.593 2.594,-0.227c0.178,-1.139 -0.392,-1.889 -1.488,-2.142Z" style="stroke:#000;stroke-width:0.32px;stroke-linecap:round;"/><g id="Research"><g id="Caffeine"><g id="Cafeeine_base"><path d="M102.135,74.364l21.947,0.544l10.502,19.278l-11.444,18.735l-21.947,-0.544l-10.502,-19.278l11.444,-18.735Z" style="fill:none;stroke:#18001f;stroke-width:1.5px;stroke-linecap:round;"/><path d="M124.082,74.908l14.359,-23.453" style="fill:none;stroke:#18001f;stroke-width:1.5px;stroke-linecap:round;"/><path d="M69.095,97.093l21.558,-3.959l10.57,19.298l-15.026,15.886l-19.856,-9.48l2.754,-21.745Z" style="fill:none;stroke:#18001f;stroke-width:1.5px;stroke-linecap:round;"/><path d="M88.954,95.379l9.379,16.542" style="fill:none;stroke:#18001f;stroke-width:1.5px;stroke-linecap:round;"/><path d="M66.313,121.292l17.36,8.401" style="fill:none;stroke:#18001f;stroke-width:1.5px;stroke-linecap:round;"/><path d="M101.193,75.906l-6.848,-12.622" style="fill:none;stroke:#18001f;stroke-width:1.5px;stroke-linecap:round;"/><path d="M103.941,74.409l-6.87,-12.61" style="fill:none;stroke:#18001f;stroke-width:1.5px;stroke-linecap:round;"/><path d="M123.276,112.847l7.842,14.395" style="fill:none;stroke:#18001f;stroke-width:1.5px;stroke-linecap:round;"/><path d="M69.095,97.093l-11.909,-10.85" style="fill:none;stroke:#18001f;stroke-width:1.5px;stroke-linecap:round;"/><path d="M133.655,95.708l14.414,0.574" style="fill:none;stroke:#18001f;stroke-width:1.5px;stroke-linecap:round;"/><path d="M133.724,92.589l14.246,0.358" style="fill:none;stroke:#18001f;stroke-width:1.5px;stroke-linecap:round;"/></g><g id="Nitrogen"><path d="M120.951,108.902c2.218,-1.208 4.999,-0.388 6.207,1.83c1.209,2.217 0.389,4.999 -1.829,6.207c-2.218,1.209 -4.999,0.389 -6.207,-1.829c-1.209,-2.218 -0.389,-4.999 1.829,-6.208Z" style="fill:#f7f2e8;stroke:#18001f;stroke-width:1px;stroke-linecap:round;"/><g transform="matrix(0.878141,-0.478401,0.478401,0.878141,-30.5436,-4.12054)"><text x="77.383px" y="179.265px" style="font-family:'ArialMT', 'Arial', sans-serif;font-size:8.28px;stroke:#000;stroke-width:0.24px;stroke-linecap:butt;stroke-miterlimit:2;">N</text></g></g><g id="Oxygen"><path d="M91.319,54.51c2.218,-1.208 4.999,-0.388 6.207,1.83c1.209,2.217 0.389,4.999 -1.829,6.207c-2.218,1.209 -4.999,0.389 -6.208,-1.829c-1.208,-2.218 -0.388,-4.999 1.83,-6.208Z" style="fill:#f7f2e8;stroke:#18001f;stroke-width:1px;stroke-linecap:round;"/><g transform="matrix(0.878141,-0.478401,0.478401,0.878141,-32.4032,-47.3557)"><text x="57.069px" y="156.055px" style="font-family:'ArialMT', 'Arial', sans-serif;font-size:7.922px;stroke:#000;stroke-width:0.24px;stroke-linecap:butt;stroke-miterlimit:2;">O</text></g></g><g id="Oxygen1" serif:id="Oxygen"><path d="M148.963,90.633c2.218,-1.208 4.999,-0.389 6.207,1.829c1.209,2.218 0.389,4.999 -1.829,6.208c-2.218,1.208 -4.999,0.388 -6.208,-1.83c-1.208,-2.217 -0.388,-4.999 1.83,-6.207Z" style="fill:#f7f2e8;stroke:#18001f;stroke-width:1px;stroke-linecap:round;"/><g transform="matrix(0.878141,-0.478401,0.478401,0.878141,-42.6598,-15.3769)"><text x="114.713px" y="192.177px" style="font-family:'ArialMT', 'Arial', sans-serif;font-size:7.922px;stroke:#000;stroke-width:0.24px;stroke-linecap:butt;stroke-miterlimit:2;">O</text></g></g><g id="Nitrogen1" serif:id="Nitrogen"><path d="M121.9,70.885c2.218,-1.208 4.999,-0.388 6.207,1.83c1.209,2.218 0.389,4.999 -1.829,6.207c-2.218,1.209 -4.999,0.389 -6.207,-1.829c-1.209,-2.218 -0.389,-4.999 1.829,-6.208Z" style="fill:#f7f2e8;stroke:#18001f;stroke-width:1px;stroke-linecap:round;"/><g transform="matrix(0.878141,-0.478401,0.478401,0.878141,-12.2406,-8.29923)"><text x="78.332px" y="141.248px" style="font-family:'ArialMT', 'Arial', sans-serif;font-size:8.28px;stroke:#000;stroke-width:0.24px;stroke-linecap:butt;stroke-miterlimit:2;">N</text></g></g><g id="Nitrogen2" serif:id="Nitrogen"><path d="M66.906,93.075c2.218,-1.209 5,-0.389 6.208,1.829c1.208,2.218 0.388,4.999 -1.829,6.207c-2.218,1.209 -5,0.389 -6.208,-1.829c-1.208,-2.218 -0.389,-4.999 1.829,-6.207Z" style="fill:#f7f2e8;stroke:#18001f;stroke-width:1px;stroke-linecap:round;"/><g transform="matrix(0.878141,-0.478401,0.478401,0.878141,-29.5573,-31.9043)"><text x="23.339px" y="163.437px" style="font-family:'ArialMT', 'Arial', sans-serif;font-size:8.28px;stroke:#000;stroke-width:0.24px;stroke-linecap:butt;stroke-miterlimit:2;">N</text></g></g><g id="Nitrogen3" serif:id="Nitrogen"><path d="M83.938,124.337c2.218,-1.208 4.999,-0.388 6.207,1.83c1.209,2.217 0.389,4.999 -1.829,6.207c-2.218,1.209 -4.999,0.389 -6.207,-1.829c-1.209,-2.218 -0.389,-4.999 1.829,-6.208Z" style="fill:#f7f2e8;stroke:#18001f;stroke-width:1px;stroke-linecap:round;"/><g transform="matrix(0.878141,-0.478401,0.478401,0.878141,-42.438,-19.9467)"><text x="40.37px" y="194.7px" style="font-family:'ArialMT', 'Arial', sans-serif;font-size:8.28px;stroke:#000;stroke-width:0.24px;stroke-linecap:butt;stroke-miterlimit:2;">N</text></g></g><g><path d="M144.307,50.596c-0.406,0.77 -1.035,1.433 -1.857,1.88c-2.217,1.209 -4.999,0.389 -6.207,-1.829c-1.208,-2.218 -0.389,-4.999 1.829,-6.208c1.815,-0.988 4.007,-0.619 5.405,0.762c0.225,-0.224 0.484,-0.42 0.777,-0.58c1.641,-0.894 3.699,-0.287 4.593,1.354c0.894,1.641 0.287,3.699 -1.354,4.592c-1.028,0.561 -2.219,0.532 -3.186,0.029Z" style="fill:#f7f2e8;stroke:#18001f;stroke-width:1px;stroke-linecap:round;"/><g transform="matrix(0.878141,-0.478401,0.478401,0.878141,-8.85802,21.9492)"><text x="121.644px" y="97.892px" style="font-family:'ArialMT', 'Arial', sans-serif;font-size:4.743px;stroke:#000;stroke-width:0.24px;stroke-linecap:butt;stroke-miterlimit:2;">H</text></g><g transform="matrix(0.878141,-0.478401,0.478401,0.878141,-3.70369,-58.1924)"><text x="81.374px" y="166.951px" style="font-family:'ArialMT', 'Arial', sans-serif;font-size:2.748px;stroke:#000;stroke-width:0.24px;stroke-linecap:butt;stroke-miterlimit:2;">3</text></g><g transform="matrix(0.878141,-0.478401,0.478401,0.878141,-21.8879,-26.216)"><text x="103.823px" y="145.984px" style="font-family:'ArialMT', 'Arial', sans-serif;font-size:7.922px;stroke:#000;stroke-width:0.24px;stroke-linecap:butt;stroke-miterlimit:2;">C</text></g></g><g><path d="M60.163,85.733c-0.406,0.77 -1.036,1.433 -1.857,1.881c-2.218,1.208 -4.999,0.388 -6.207,-1.829c-1.209,-2.218 -0.389,-5 1.829,-6.208c1.814,-0.989 4.006,-0.62 5.405,0.762c0.224,-0.225 0.484,-0.421 0.777,-0.58c1.641,-0.894 3.699,-0.288 4.592,1.353c0.894,1.641 0.288,3.699 -1.353,4.593c-1.028,0.56 -2.22,0.531 -3.186,0.028Z" style="fill:#f7f2e8;stroke:#18001f;stroke-width:1px;stroke-linecap:round;"/><g transform="matrix(0.878141,-0.478401,0.478401,0.878141,-35.9215,-14.0237)"><text x="37.5px" y="133.029px" style="font-family:'ArialMT', 'Arial', sans-serif;font-size:4.743px;stroke:#000;stroke-width:0.24px;stroke-linecap:butt;stroke-miterlimit:2;">H</text></g><g transform="matrix(0.878141,-0.478401,0.478401,0.878141,-30.7672,-94.1653)"><text x="-2.77px" y="202.088px" style="font-family:'ArialMT', 'Arial', sans-serif;font-size:2.748px;stroke:#000;stroke-width:0.24px;stroke-linecap:butt;stroke-miterlimit:2;">3</text></g><g transform="matrix(0.878141,-0.478401,0.478401,0.878141,-48.9514,-62.1889)"><text x="19.679px" y="181.121px" style="font-family:'ArialMT', 'Arial', sans-serif;font-size:7.922px;stroke:#000;stroke-width:0.24px;stroke-linecap:butt;stroke-miterlimit:2;">C</text></g></g><g><path d="M136.464,131.766c-0.406,0.77 -1.036,1.433 -1.857,1.88c-2.218,1.209 -4.999,0.389 -6.208,-1.829c-1.208,-2.218 -0.388,-4.999 1.83,-6.208c1.814,-0.988 4.006,-0.619 5.405,0.762c0.224,-0.224 0.484,-0.42 0.776,-0.58c1.641,-0.894 3.699,-0.287 4.593,1.354c0.894,1.641 0.288,3.699 -1.353,4.593c-1.028,0.56 -2.22,0.531 -3.186,0.028Z" style="fill:#f7f2e8;stroke:#18001f;stroke-width:1px;stroke-linecap:round;"/><g transform="matrix(0.878141,-0.478401,0.478401,0.878141,-48.6456,28.0882)"><text x="113.801px" y="179.062px" style="font-family:'ArialMT', 'Arial', sans-serif;font-size:4.743px;stroke:#000;stroke-width:0.24px;stroke-linecap:butt;stroke-miterlimit:2;">H</text></g><g transform="matrix(0.878141,-0.478401,0.478401,0.878141,-43.4913,-52.0535)"><text x="73.531px" y="248.121px" style="font-family:'ArialMT', 'Arial', sans-serif;font-size:2.748px;stroke:#000;stroke-width:0.24px;stroke-linecap:butt;stroke-miterlimit:2;">3</text></g><g transform="matrix(0.878141,-0.478401,0.478401,0.878141,-61.6755,-20.0771)"><text x="95.979px" y="227.154px" style="font-family:'ArialMT', 'Arial', sans-serif;font-size:7.922px;stroke:#000;stroke-width:0.24px;stroke-linecap:butt;stroke-miterlimit:2;">C</text></g></g></g><g id="Erlenmeyer"><path d="M111.009,99.616l-9.313,-0.018c-2.895,-0.138 -2.906,-3.875 -0.085,-3.752l16.151,-0.063c2.472,0 2.353,3.73 0.063,3.73l-1.497,0.103l0.155,12.703l12.703,30.208c1.508,4.858 -0.504,7.076 -3.409,8.624c-10.268,3.145 -20.694,3.289 -31.292,0.155c-3.201,-1.731 -5.483,-3.8 -4.493,-7.075l12.91,-31.705l0.132,-12.926" style="fill:#d4f9ff;stroke:#18001f;stroke-width:1.35px;stroke-linejoin:miter;"/><path d="M98.924,131.444c2.993,-0.317 7.235,0.659 9.627,1.372c3.057,0.911 10.328,2.759 12.187,-0.05l3.411,8.28c1.624,3.535 2.782,5.781 -2.086,7.313c-6.608,1.395 -16.573,1.633 -23.834,0.419c-4.831,-0.866 -5.356,-3.342 -3.462,-7.652l4.157,-9.682" style="fill:url(#_Linear2);"/><circle cx="104.254" cy="137.664" r="2.479" style="fill:url(#_Radial3);"/><circle cx="115.636" cy="141.538" r="2.175" style="fill:url(#_Radial4);"/><circle cx="108.828" cy="146.019" r="1.395" style="fill:url(#_Linear5);"/><circle cx="112.595" cy="127.152" r="2.386" style="fill:url(#_Linear6);stroke:#18001f;stroke-width:0.97px;stroke-linejoin:miter;"/><circle cx="106.776" cy="119.482" r="1.672" style="fill:url(#_Linear7);stroke:#18001f;stroke-width:1px;stroke-linejoin:miter;"/></g></g></g><defs><linearGradient id="_Linear1" x1="0" y1="0" x2="1" y2="0" gradientUnits="userSpaceOnUse" gradientTransform="matrix(-0.132106,-168,168,-0.132106,84.6485,168.697)"><stop offset="0" style="stop-color:#00191f;stop-opacity:1"/><stop offset="0.09" style="stop-color:#123037;stop-opacity:1"/><stop offset="0.2" style="stop-color:#23464e;stop-opacity:1"/><stop offset="0.5" style="stop-color:#2a5058;stop-opacity:1"/><stop offset="0.8" style="stop-color:#23464e;stop-opacity:1"/><stop offset="0.91" style="stop-color:#123037;stop-opacity:1"/><stop offset="1" style="stop-color:#00191f;stop-opacity:1"/></linearGradient><linearGradient id="_Linear2" x1="0" y1="0" x2="1" y2="0" gradientUnits="userSpaceOnUse" gradientTransform="matrix(31.8051,0,0,18.1799,93.7482,140.472)"><stop offset="0" style="stop-color:#00191f;stop-opacity:1"/><stop offset="0.09" style="stop-color:#123037;stop-opacity:1"/><stop offset="0.2" style="stop-color:#23464e;stop-opacity:1"/><stop offset="0.5" style="stop-color:#2a5058;stop-opacity:1"/><stop offset="0.8" style="stop-color:#23464e;stop-opacity:1"/><stop offset="0.91" style="stop-color:#123037;stop-opacity:1"/><stop offset="1" style="stop-color:#00191f;stop-opacity:1"/></linearGradient><radialGradient id="_Radial3" cx="0" cy="0" r="1" gradientUnits="userSpaceOnUse" gradientTransform="matrix(4.95729,0,0,4.95729,101.775,137.664)"><stop offset="0" style="stop-color:#fff;stop-opacity:1"/><stop offset="0.55" style="stop-color:#f7f7f7;stop-opacity:1"/><stop offset="1" style="stop-color:#d9d9d9;stop-opacity:1"/></radialGradient><radialGradient id="_Radial4" cx="0" cy="0" r="1" gradientUnits="userSpaceOnUse" gradientTransform="matrix(2.1746,0,0,2.1746,115.636,141.538)"><stop offset="0" style="stop-color:#fff;stop-opacity:1"/><stop offset="0.55" style="stop-color:#f7f7f7;stop-opacity:1"/><stop offset="1" style="stop-color:#d9d9d9;stop-opacity:1"/></radialGradient><linearGradient id="_Linear5" x1="0" y1="0" x2="1" y2="0" gradientUnits="userSpaceOnUse" gradientTransform="matrix(2.7893,0,0,2.7893,107.433,146.019)"><stop offset="0" style="stop-color:#7c715a;stop-opacity:1"/><stop offset="0.09" style="stop-color:#afa795;stop-opacity:1"/><stop offset="0.2" style="stop-color:#e1dbcf;stop-opacity:1"/><stop offset="0.5" style="stop-color:#f7f2e8;stop-opacity:1"/><stop offset="0.8" style="stop-color:#e1dbcf;stop-opacity:1"/><stop offset="0.91" style="stop-color:#afa695;stop-opacity:1"/><stop offset="1" style="stop-color:#7c7059;stop-opacity:1"/></linearGradient><linearGradient id="_Linear6" x1="0" y1="0" x2="1" y2="0" gradientUnits="userSpaceOnUse" gradientTransform="matrix(4.77222,0,0,4.77222,110.209,127.152)"><stop offset="0" style="stop-color:#7c715a;stop-opacity:1"/><stop offset="0.09" style="stop-color:#afa795;stop-opacity:1"/><stop offset="0.2" style="stop-color:#e1dbcf;stop-opacity:1"/><stop offset="0.5" style="stop-color:#f7f2e8;stop-opacity:1"/><stop offset="0.8" style="stop-color:#e1dbcf;stop-opacity:1"/><stop offset="0.91" style="stop-color:#afa695;stop-opacity:1"/><stop offset="1" style="stop-color:#7c7059;stop-opacity:1"/></linearGradient><linearGradient id="_Linear7" x1="0" y1="0" x2="1" y2="0" gradientUnits="userSpaceOnUse" gradientTransform="matrix(3.34452,0,0,3.34452,105.104,119.482)"><stop offset="0" style="stop-color:#7c715a;stop-opacity:1"/><stop offset="0.09" style="stop-color:#afa795;stop-opacity:1"/><stop offset="0.2" style="stop-color:#e1dbcf;stop-opacity:1"/><stop offset="0.5" style="stop-color:#f7f2e8;stop-opacity:1"/><stop offset="0.8" style="stop-color:#e1dbcf;stop-opacity:1"/><stop offset="0.91" style="stop-color:#afa695;stop-opacity:1"/><stop offset="1" style="stop-color:#7c7059;stop-opacity:1"/></linearGradient></defs></svg>