<?xml version="1.0" encoding="UTF-8" standalone="no"?><!DOCTYPE svg PUBLIC "-//W3C//DTD SVG 1.1//EN" "http://www.w3.org/Graphics/SVG/1.1/DTD/svg11.dtd"><svg width="100%" height="100%" viewBox="0 0 55 65" version="1.1" xmlns="http://www.w3.org/2000/svg" xmlns:xlink="http://www.w3.org/1999/xlink" xml:space="preserve" xmlns:serif="http://www.serif.com/" style="fill-rule:evenodd;clip-rule:evenodd;stroke-linecap:round;stroke-linejoin:round;stroke-miterlimit:1.5;"><g id="Delta-NoCure" serif:id="Delta NoCure"><g id="Flaske"><path d="M50.809,15.451c0,-2.729 -2.215,-4.944 -4.943,-4.944l-36.67,0c-2.729,0 -4.944,2.215 -4.944,4.944l0,41.952c0,2.729 2.215,4.944 4.944,4.944l36.67,0c2.728,0 4.943,-2.215 4.943,-4.944l0,-41.952Z" style="fill:url(#_Linear1);"/><path d="M45.907,9.007l0.041,0l0.042,0.001l0.041,0.001l0.042,0.001l0.041,0.002l0.041,0.001l0.041,0.002l0.041,0.002l0.041,0.003l0.041,0.003l0.041,0.003l0.04,0.003l0.041,0.003l0.041,0.004l0.04,0.004l0.041,0.004l0.041,0.005l0.04,0.005l0.04,0.005l0.04,0.005l0.041,0.005l0.04,0.006l0.04,0.006l0.04,0.006l0.039,0.007l0.04,0.006l0.041,0.008l0.039,0.007l0.039,0.007l0.039,0.008l0.04,0.008l0.04,0.008l0.039,0.009l0.039,0.008l0.039,0.009l0.039,0.009l0.039,0.01l0.039,0.009l0.038,0.01l0.039,0.01l0.038,0.01l0.039,0.011l0.038,0.011l0.039,0.011l0.038,0.011l0.038,0.011l0.038,0.012l0.037,0.012l0.039,0.012l0.037,0.013l0.037,0.012l0.039,0.013l0.037,0.013l0.036,0.013l0.037,0.013l0.038,0.015l0.037,0.013l0.036,0.014l0.036,0.014l0.038,0.015l0.037,0.015l0.036,0.015l0.036,0.015l0.035,0.015l0.037,0.016l0.036,0.016l0.036,0.016l0.036,0.017l0.034,0.016l0.036,0.016l0.035,0.017l0.035,0.017l0.036,0.018l0.035,0.017l0.035,0.018l0.036,0.019l0.034,0.018l0.032,0.017l0.034,0.018l0.036,0.02l0.034,0.018l0.033,0.019l0.035,0.021l0.034,0.019l0.034,0.02l0.066,0.039l0.066,0.041l0.065,0.042l0.065,0.042l0.065,0.043l0.063,0.043l0.064,0.045l0.063,0.045l0.063,0.047l0.061,0.046l0.061,0.047l0.06,0.049l0.061,0.049l0.059,0.05l0.058,0.049l0.058,0.051l0.058,0.052l0.057,0.052l0.056,0.053l0.055,0.054l0.055,0.054l0.054,0.054l0.055,0.057l0.052,0.056l0.052,0.056l0.052,0.058l0.051,0.058l0.049,0.058l0.051,0.06l0.048,0.06l0.049,0.06l0.047,0.062l0.046,0.06l0.047,0.064l0.045,0.061l0.044,0.064l0.045,0.065l0.043,0.064l0.042,0.065l0.041,0.065l0.04,0.066l0.04,0.065l0.022,0.038l0.018,0.031l0.019,0.034l0.02,0.035l0.019,0.034l0.019,0.034l0.017,0.032l0.02,0.038l0.018,0.035l0.016,0.031l0.018,0.035l0.018,0.035l0.017,0.036l0.017,0.035l0.017,0.035l0.019,0.039l0.016,0.036l0.015,0.032l0.016,0.036l0.016,0.036l0.015,0.036l0.016,0.036l0.015,0.036l0.015,0.036l0.015,0.037l0.014,0.036l0.016,0.04l0.014,0.037l0.012,0.033l0.014,0.036l0.015,0.041l0.013,0.037l0.013,0.037l0.012,0.037l0.013,0.037l0.012,0.037l0.012,0.037l0.013,0.041l0.011,0.038l0.011,0.037l0.012,0.038l0.01,0.037l0.011,0.038l0.01,0.038l0.012,0.041l0.009,0.038l0.01,0.038l0.009,0.038l0.01,0.038l0.009,0.042l0.009,0.038l0.009,0.038l0.009,0.042l0.007,0.039l0.008,0.034l0.008,0.043l0.008,0.042l0.007,0.039l0.007,0.038l0.006,0.039l0.007,0.042l0.007,0.043l0.005,0.035l0.006,0.039l0.005,0.042l0.006,0.043l0.005,0.039l0.004,0.039l0.005,0.043l0.004,0.039l0.004,0.039l0.004,0.039l0.003,0.043l0.004,0.043l0.003,0.04l0.002,0.039l0.003,0.043l0.002,0.04l0.002,0.039l0.002,0.047l0.002,0.079l0.001,0.043l0.001,0.04l0,0.039l0,0.04l0,41.96l0,0.039l0,0.04l-0.001,0.039l-0.001,0.044l-0.001,0.039l-0.001,0.04l-0.002,0.047l-0.002,0.039l-0.002,0.039l-0.003,0.044l-0.002,0.039l-0.003,0.039l-0.004,0.043l-0.003,0.043l-0.004,0.039l-0.004,0.04l-0.004,0.039l-0.005,0.042l-0.004,0.039l-0.005,0.039l-0.006,0.043l-0.005,0.043l-0.006,0.039l-0.005,0.035l-0.007,0.042l-0.007,0.043l-0.006,0.038l-0.007,0.039l-0.007,0.039l-0.008,0.042l-0.008,0.042l-0.008,0.035l-0.007,0.038l-0.009,0.042l-0.009,0.038l-0.009,0.039l-0.009,0.041l-0.01,0.039l-0.009,0.038l-0.01,0.037l-0.009,0.038l-0.012,0.042l-0.01,0.038l-0.011,0.037l-0.01,0.038l-0.012,0.037l-0.011,0.038l-0.011,0.037l-0.013,0.041l-0.012,0.038l-0.012,0.037l-0.013,0.037l-0.012,0.037l-0.013,0.037l-0.013,0.037l-0.015,0.04l-0.014,0.037l-0.012,0.033l-0.014,0.037l-0.016,0.04l-0.014,0.036l-0.015,0.036l-0.015,0.037l-0.015,0.036l-0.016,0.036l-0.015,0.036l-0.016,0.036l-0.016,0.035l-0.015,0.033l-0.016,0.035l-0.019,0.039l-0.017,0.036l-0.017,0.035l-0.017,0.035l-0.018,0.035l-0.018,0.035l-0.016,0.032l-0.018,0.035l-0.02,0.038l-0.017,0.031l-0.019,0.035l-0.019,0.034l-0.02,0.034l-0.019,0.035l-0.018,0.031l-0.022,0.037l-0.04,0.066l-0.04,0.065l-0.041,0.065l-0.042,0.065l-0.043,0.065l-0.045,0.065l-0.044,0.063l-0.045,0.062l-0.047,0.063l-0.046,0.061l-0.047,0.061l-0.049,0.061l-0.048,0.059l-0.051,0.061l-0.049,0.058l-0.051,0.058l-0.052,0.058l-0.052,0.056l-0.052,0.056l-0.055,0.056l-0.054,0.055l-0.055,0.054l-0.055,0.054l-0.056,0.052l-0.057,0.053l-0.058,0.051l-0.058,0.052l-0.058,0.049l-0.059,0.05l-0.061,0.049l-0.06,0.048l-0.061,0.047l-0.061,0.047l-0.063,0.046l-0.063,0.046l-0.064,0.044l-0.063,0.044l-0.065,0.043l-0.065,0.042l-0.065,0.042l-0.066,0.04l-0.066,0.039l-0.034,0.021l-0.034,0.019l-0.035,0.02l-0.033,0.019l-0.034,0.019l-0.036,0.019l-0.034,0.019l-0.032,0.017l-0.034,0.018l-0.036,0.019l-0.035,0.017l-0.035,0.018l-0.036,0.018l-0.035,0.017l-0.035,0.016l-0.036,0.017l-0.034,0.016l-0.036,0.017l-0.036,0.015l-0.036,0.016l-0.037,0.016l-0.035,0.015l-0.036,0.015l-0.036,0.015l-0.037,0.015l-0.038,0.015l-0.036,0.015l-0.036,0.013l-0.037,0.014l-0.038,0.014l-0.037,0.014l-0.036,0.013l-0.037,0.013l-0.039,0.013l-0.036,0.012l-0.038,0.012l-0.039,0.013l-0.037,0.011l-0.038,0.012l-0.038,0.012l-0.038,0.011l-0.039,0.011l-0.038,0.011l-0.038,0.01l-0.039,0.011l-0.039,0.01l-0.038,0.009l-0.039,0.01l-0.039,0.009l-0.039,0.01l-0.039,0.009l-0.039,0.008l-0.039,0.009l-0.04,0.008l-0.04,0.008l-0.039,0.007l-0.039,0.008l-0.039,0.007l-0.041,0.007l-0.04,0.007l-0.039,0.006l-0.04,0.006l-0.04,0.007l-0.04,0.005l-0.041,0.006l-0.04,0.005l-0.04,0.005l-0.04,0.005l-0.041,0.004l-0.041,0.005l-0.04,0.004l-0.041,0.003l-0.041,0.004l-0.04,0.003l-0.041,0.003l-0.041,0.003l-0.041,0.002l-0.041,0.002l-0.041,0.002l-0.042,0.002l-0.041,0.002l-0.041,0.001l-0.041,0.001l-0.042,0l-0.041,0.001l-0.039,0l-36.675,0l-0.039,0l-0.041,-0.001l-0.042,0l-0.041,-0.001l-0.041,-0.001l-0.041,-0.002l-0.042,-0.002l-0.041,-0.002l-0.041,-0.002l-0.041,-0.002l-0.04,-0.003l-0.041,-0.003l-0.041,-0.003l-0.041,-0.004l-0.041,-0.003l-0.04,-0.004l-0.041,-0.005l-0.04,-0.004l-0.041,-0.005l-0.04,-0.005l-0.04,-0.005l-0.04,-0.006l-0.04,-0.005l-0.041,-0.006l-0.04,-0.007l-0.04,-0.006l-0.039,-0.007l-0.04,-0.007l-0.039,-0.007l-0.04,-0.008l-0.04,-0.007l-0.039,-0.008l-0.04,-0.008l-0.039,-0.009l-0.039,-0.008l-0.039,-0.009l-0.039,-0.01l-0.038,-0.009l-0.039,-0.009l-0.04,-0.01l-0.038,-0.011l-0.038,-0.01l-0.039,-0.01l-0.038,-0.011l-0.039,-0.011l-0.038,-0.011l-0.038,-0.012l-0.038,-0.012l-0.037,-0.011l-0.038,-0.012l-0.038,-0.013l-0.038,-0.013l-0.036,-0.012l-0.038,-0.013l-0.038,-0.014l-0.037,-0.013l-0.036,-0.013l-0.037,-0.014l-0.038,-0.015l-0.036,-0.014l-0.037,-0.015l-0.036,-0.015l-0.035,-0.014l-0.037,-0.015l-0.037,-0.016l-0.036,-0.016l-0.036,-0.016l-0.035,-0.015l-0.036,-0.017l-0.037,-0.017l-0.035,-0.016l-0.033,-0.016l-0.036,-0.017l-0.036,-0.018l-0.035,-0.018l-0.034,-0.017l-0.035,-0.018l-0.034,-0.018l-0.036,-0.019l-0.034,-0.019l-0.034,-0.018l-0.033,-0.019l-0.034,-0.019l-0.035,-0.02l-0.033,-0.019l-0.035,-0.021l-0.065,-0.039l-0.067,-0.04l-0.064,-0.041l-0.066,-0.043l-0.065,-0.044l-0.063,-0.043l-0.063,-0.044l-0.064,-0.046l-0.063,-0.046l-0.061,-0.047l-0.06,-0.047l-0.061,-0.048l-0.06,-0.049l-0.059,-0.049l-0.059,-0.05l-0.059,-0.052l-0.057,-0.051l-0.056,-0.052l-0.057,-0.053l-0.055,-0.054l-0.055,-0.054l-0.055,-0.056l-0.053,-0.055l-0.053,-0.056l-0.052,-0.056l-0.051,-0.057l-0.052,-0.059l-0.05,-0.059l-0.05,-0.06l-0.048,-0.059l-0.048,-0.06l-0.048,-0.062l-0.047,-0.062l-0.045,-0.061l-0.046,-0.063l-0.045,-0.065l-0.044,-0.063l-0.042,-0.063l-0.043,-0.067l-0.042,-0.066l-0.039,-0.064l-0.04,-0.066l-0.022,-0.037l-0.018,-0.031l-0.019,-0.035l-0.019,-0.034l-0.018,-0.031l-0.021,-0.038l-0.018,-0.034l-0.017,-0.032l-0.02,-0.038l-0.018,-0.035l-0.016,-0.032l-0.018,-0.035l-0.017,-0.035l-0.017,-0.035l-0.017,-0.036l-0.017,-0.035l-0.016,-0.036l-0.017,-0.036l-0.017,-0.039l-0.016,-0.036l-0.014,-0.032l-0.016,-0.036l-0.015,-0.036l-0.015,-0.037l-0.014,-0.036l-0.015,-0.036l-0.014,-0.037l-0.016,-0.04l-0.013,-0.037l-0.013,-0.033l-0.014,-0.04l-0.013,-0.037l-0.012,-0.033l-0.014,-0.041l-0.012,-0.037l-0.013,-0.037l-0.013,-0.041l-0.012,-0.038l-0.01,-0.033l-0.011,-0.038l-0.012,-0.041l-0.011,-0.038l-0.012,-0.041l-0.01,-0.038l-0.009,-0.034l-0.011,-0.042l-0.01,-0.037l-0.009,-0.038l-0.01,-0.042l-0.009,-0.038l-0.009,-0.039l-0.008,-0.038l-0.009,-0.038l-0.008,-0.042l-0.008,-0.039l-0.008,-0.038l-0.008,-0.042l-0.007,-0.039l-0.006,-0.039l-0.007,-0.038l-0.007,-0.043l-0.006,-0.038l-0.006,-0.039l-0.006,-0.043l-0.005,-0.039l-0.006,-0.043l-0.004,-0.039l-0.005,-0.039l-0.005,-0.042l-0.004,-0.039l-0.004,-0.04l-0.003,-0.039l-0.004,-0.043l-0.004,-0.043l-0.002,-0.039l-0.003,-0.039l-0.003,-0.044l-0.002,-0.039l-0.002,-0.039l-0.001,-0.044l-0.002,-0.043l-0.001,-0.039l-0.001,-0.04l-0.001,-0.043l0,-0.043l0,-42.032l0,-0.043l0.001,-0.044l0.001,-0.039l0.001,-0.04l0.002,-0.043l0.001,-0.043l0.002,-0.039l0.002,-0.04l0.003,-0.043l0.003,-0.039l0.002,-0.04l0.004,-0.043l0.004,-0.043l0.003,-0.039l0.004,-0.039l0.004,-0.039l0.005,-0.043l0.005,-0.039l0.004,-0.039l0.006,-0.043l0.005,-0.038l0.006,-0.043l0.006,-0.039l0.006,-0.039l0.007,-0.042l0.007,-0.039l0.006,-0.038l0.007,-0.039l0.008,-0.042l0.008,-0.039l0.008,-0.038l0.008,-0.042l0.009,-0.039l0.008,-0.038l0.009,-0.038l0.009,-0.038l0.01,-0.042l0.009,-0.038l0.01,-0.038l0.011,-0.041l0.009,-0.035l0.01,-0.037l0.012,-0.042l0.011,-0.037l0.012,-0.042l0.011,-0.037l0.01,-0.034l0.012,-0.037l0.013,-0.041l0.013,-0.037l0.012,-0.037l0.014,-0.041l0.012,-0.033l0.013,-0.037l0.014,-0.041l0.013,-0.033l0.013,-0.036l0.016,-0.041l0.014,-0.036l0.015,-0.036l0.014,-0.037l0.015,-0.036l0.016,-0.036l0.015,-0.036l0.014,-0.033l0.016,-0.036l0.017,-0.039l0.017,-0.036l0.016,-0.035l0.017,-0.036l0.017,-0.035l0.017,-0.035l0.017,-0.036l0.018,-0.035l0.016,-0.031l0.018,-0.035l0.02,-0.038l0.017,-0.032l0.018,-0.035l0.021,-0.037l0.018,-0.031l0.019,-0.035l0.019,-0.034l0.018,-0.031l0.022,-0.038l0.04,-0.065l0.039,-0.064l0.042,-0.067l0.043,-0.066l0.042,-0.063l0.044,-0.064l0.045,-0.065l0.046,-0.062l0.045,-0.061l0.047,-0.062l0.048,-0.063l0.048,-0.059l0.048,-0.06l0.05,-0.059l0.05,-0.059l0.052,-0.059l0.051,-0.057l0.052,-0.056l0.053,-0.056l0.053,-0.056l0.055,-0.055l0.055,-0.054l0.055,-0.054l0.057,-0.054l0.056,-0.051l0.057,-0.051l0.059,-0.052l0.059,-0.05l0.059,-0.049l0.06,-0.049l0.061,-0.049l0.06,-0.047l0.061,-0.046l0.063,-0.047l0.064,-0.045l0.063,-0.045l0.063,-0.043l0.065,-0.043l0.066,-0.043l0.064,-0.041l0.067,-0.041l0.065,-0.039l0.035,-0.02l0.033,-0.019l0.035,-0.021l0.034,-0.019l0.033,-0.018l0.034,-0.019l0.034,-0.018l0.036,-0.019l0.034,-0.018l0.035,-0.018l0.034,-0.018l0.035,-0.017l0.036,-0.018l0.035,-0.017l0.034,-0.016l0.035,-0.017l0.037,-0.017l0.036,-0.016l0.035,-0.016l0.036,-0.016l0.036,-0.015l0.037,-0.016l0.037,-0.015l0.035,-0.015l0.036,-0.015l0.036,-0.014l0.037,-0.014l0.038,-0.015l0.037,-0.014l0.036,-0.013l0.037,-0.014l0.038,-0.013l0.038,-0.013l0.036,-0.013l0.038,-0.012l0.038,-0.013l0.038,-0.012l0.037,-0.012l0.038,-0.012l0.038,-0.011l0.038,-0.011l0.039,-0.011l0.038,-0.011l0.039,-0.011l0.037,-0.01l0.039,-0.01l0.04,-0.01l0.039,-0.01l0.038,-0.009l0.039,-0.009l0.039,-0.009l0.039,-0.008l0.039,-0.009l0.04,-0.008l0.039,-0.008l0.04,-0.008l0.04,-0.007l0.038,-0.007l0.041,-0.008l0.039,-0.006l0.04,-0.007l0.04,-0.006l0.041,-0.006l0.039,-0.006l0.041,-0.005l0.04,-0.005l0.04,-0.005l0.041,-0.005l0.04,-0.005l0.041,-0.004l0.04,-0.004l0.041,-0.004l0.041,-0.003l0.041,-0.003l0.04,-0.003l0.041,-0.003l0.041,-0.003l0.041,-0.002l0.041,-0.002l0.042,-0.001l0.041,-0.002l0.041,-0.001l0.042,-0.001l0.041,-0.001l0.041,0l0.039,0l36.675,0l0.039,0Zm-36.711,1.5l-0.032,0l-0.032,0l-0.032,0.001l-0.032,0l-0.032,0.001l-0.031,0.001l-0.032,0.002l-0.032,0.001l-0.031,0.002l-0.032,0.002l-0.031,0.002l-0.031,0.002l-0.032,0.003l-0.031,0.002l-0.031,0.003l-0.032,0.003l-0.031,0.004l-0.031,0.003l-0.031,0.004l-0.031,0.004l-0.031,0.004l-0.03,0.004l-0.031,0.004l-0.031,0.005l-0.03,0.005l-0.031,0.005l-0.031,0.005l-0.03,0.005l-0.03,0.006l-0.031,0.005l-0.03,0.006l-0.03,0.006l-0.03,0.007l-0.03,0.006l-0.03,0.007l-0.03,0.006l-0.03,0.007l-0.03,0.008l-0.03,0.007l-0.029,0.008l-0.03,0.007l-0.029,0.008l-0.03,0.008l-0.029,0.008l-0.029,0.009l-0.03,0.009l-0.029,0.008l-0.029,0.009l-0.029,0.009l-0.029,0.01l-0.029,0.009l-0.028,0.01l-0.029,0.01l-0.029,0.01l-0.028,0.01l-0.028,0.01l-0.029,0.01l-0.028,0.011l-0.028,0.011l-0.028,0.011l-0.028,0.011l-0.028,0.011l-0.028,0.012l-0.028,0.012l-0.028,0.011l-0.027,0.012l-0.028,0.013l-0.027,0.012l-0.027,0.012l-0.028,0.013l-0.027,0.013l-0.027,0.013l-0.027,0.013l-0.027,0.013l-0.027,0.013l-0.026,0.014l-0.027,0.014l-0.026,0.014l-0.027,0.014l-0.026,0.014l-0.026,0.014l-0.026,0.015l-0.026,0.014l-0.026,0.015l-0.026,0.015l-0.026,0.015l-0.051,0.031l-0.051,0.031l-0.05,0.032l-0.05,0.033l-0.05,0.033l-0.049,0.033l-0.048,0.034l-0.049,0.035l-0.048,0.036l-0.047,0.035l-0.047,0.037l-0.046,0.037l-0.046,0.037l-0.046,0.038l-0.045,0.039l-0.045,0.039l-0.044,0.04l-0.043,0.04l-0.044,0.041l-0.042,0.041l-0.042,0.042l-0.042,0.042l-0.041,0.042l-0.041,0.044l-0.04,0.043l-0.04,0.044l-0.039,0.045l-0.039,0.045l-0.038,0.046l-0.037,0.046l-0.037,0.046l-0.037,0.047l-0.035,0.047l-0.036,0.048l-0.035,0.049l-0.034,0.048l-0.033,0.049l-0.033,0.05l-0.033,0.05l-0.032,0.05l-0.031,0.051l-0.031,0.051l-0.015,0.026l-0.015,0.026l-0.015,0.026l-0.014,0.026l-0.015,0.026l-0.014,0.026l-0.014,0.026l-0.014,0.027l-0.014,0.026l-0.014,0.027l-0.014,0.026l-0.013,0.027l-0.013,0.027l-0.013,0.027l-0.013,0.027l-0.013,0.027l-0.013,0.028l-0.012,0.027l-0.012,0.027l-0.013,0.028l-0.012,0.027l-0.011,0.028l-0.012,0.028l-0.012,0.028l-0.011,0.028l-0.011,0.028l-0.011,0.028l-0.011,0.028l-0.01,0.028l-0.011,0.029l-0.01,0.028l-0.01,0.028l-0.01,0.029l-0.01,0.029l-0.01,0.028l-0.009,0.029l-0.01,0.029l-0.009,0.029l-0.009,0.029l-0.008,0.029l-0.009,0.03l-0.008,0.029l-0.009,0.029l-0.008,0.03l-0.008,0.029l-0.007,0.03l-0.008,0.029l-0.007,0.03l-0.007,0.03l-0.007,0.03l-0.007,0.03l-0.007,0.03l-0.006,0.03l-0.007,0.03l-0.006,0.03l-0.006,0.03l-0.005,0.031l-0.006,0.03l-0.005,0.03l-0.005,0.031l-0.005,0.031l-0.005,0.03l-0.005,0.031l-0.004,0.031l-0.004,0.03l-0.004,0.031l-0.004,0.031l-0.004,0.031l-0.003,0.031l-0.004,0.031l-0.003,0.032l-0.003,0.031l-0.002,0.031l-0.003,0.031l-0.002,0.032l-0.002,0.031l-0.002,0.032l-0.002,0.031l-0.001,0.032l-0.002,0.032l-0.001,0.031l-0.001,0.032l0,0.032l-0.001,0.032l0,0.032l0,0.032l0,41.952l0,0.032l0,0.032l0.001,0.032l0,0.031l0.001,0.032l0.001,0.032l0.002,0.032l0.001,0.031l0.002,0.032l0.002,0.031l0.002,0.032l0.002,0.031l0.003,0.031l0.002,0.032l0.003,0.031l0.003,0.031l0.004,0.031l0.003,0.031l0.004,0.031l0.004,0.031l0.004,0.031l0.004,0.031l0.004,0.031l0.005,0.03l0.005,0.031l0.005,0.031l0.005,0.03l0.005,0.031l0.006,0.03l0.005,0.03l0.006,0.031l0.006,0.03l0.007,0.03l0.006,0.03l0.007,0.03l0.007,0.03l0.007,0.03l0.007,0.03l0.007,0.029l0.008,0.03l0.007,0.029l0.008,0.03l0.008,0.029l0.009,0.03l0.008,0.029l0.009,0.029l0.008,0.029l0.009,0.029l0.009,0.029l0.01,0.029l0.009,0.029l0.01,0.029l0.01,0.029l0.01,0.028l0.01,0.029l0.01,0.028l0.011,0.028l0.01,0.029l0.011,0.028l0.011,0.028l0.011,0.028l0.011,0.028l0.012,0.028l0.012,0.028l0.011,0.027l0.012,0.028l0.013,0.027l0.012,0.028l0.012,0.027l0.013,0.027l0.013,0.027l0.013,0.028l0.013,0.026l0.013,0.027l0.013,0.027l0.014,0.027l0.014,0.026l0.014,0.027l0.014,0.026l0.014,0.027l0.014,0.026l0.015,0.026l0.014,0.026l0.015,0.026l0.015,0.026l0.015,0.026l0.031,0.051l0.031,0.05l0.032,0.051l0.033,0.05l0.033,0.049l0.033,0.049l0.034,0.049l0.035,0.048l0.036,0.048l0.035,0.048l0.037,0.046l0.037,0.047l0.037,0.046l0.038,0.045l0.039,0.046l0.039,0.044l0.04,0.044l0.04,0.044l0.041,0.043l0.041,0.043l0.042,0.042l0.042,0.042l0.042,0.041l0.044,0.041l0.043,0.04l0.044,0.039l0.045,0.04l0.045,0.038l0.046,0.038l0.046,0.038l0.046,0.037l0.047,0.036l0.047,0.036l0.048,0.035l0.049,0.035l0.048,0.034l0.049,0.034l0.05,0.033l0.05,0.032l0.05,0.032l0.051,0.032l0.051,0.03l0.026,0.015l0.026,0.015l0.026,0.015l0.026,0.015l0.026,0.014l0.026,0.015l0.026,0.014l0.027,0.014l0.026,0.014l0.027,0.014l0.026,0.013l0.027,0.014l0.027,0.013l0.027,0.013l0.027,0.013l0.027,0.013l0.028,0.012l0.027,0.013l0.027,0.012l0.028,0.012l0.027,0.012l0.028,0.012l0.028,0.012l0.028,0.011l0.028,0.011l0.028,0.012l0.028,0.011l0.028,0.01l0.028,0.011l0.029,0.011l0.028,0.01l0.028,0.01l0.029,0.01l0.029,0.01l0.028,0.009l0.029,0.01l0.029,0.009l0.029,0.009l0.029,0.009l0.029,0.009l0.03,0.009l0.029,0.008l0.029,0.008l0.03,0.008l0.029,0.008l0.03,0.008l0.029,0.008l0.03,0.007l0.03,0.007l0.03,0.007l0.03,0.007l0.03,0.007l0.03,0.006l0.03,0.006l0.03,0.006l0.03,0.006l0.031,0.006l0.03,0.006l0.03,0.005l0.031,0.005l0.031,0.005l0.03,0.005l0.031,0.004l0.031,0.005l0.03,0.004l0.031,0.004l0.031,0.004l0.031,0.004l0.031,0.003l0.031,0.003l0.032,0.003l0.031,0.003l0.031,0.003l0.032,0.002l0.031,0.003l0.031,0.002l0.032,0.002l0.031,0.001l0.032,0.002l0.032,0.001l0.031,0.001l0.032,0.001l0.032,0.001l0.032,0l0.032,0.001l0.032,0l36.67,0l0.031,0l0.032,-0.001l0.032,0l0.032,-0.001l0.032,-0.001l0.032,-0.001l0.031,-0.001l0.032,-0.002l0.031,-0.001l0.032,-0.002l0.031,-0.002l0.032,-0.003l0.031,-0.002l0.031,-0.003l0.032,-0.003l0.031,-0.003l0.031,-0.003l0.031,-0.003l0.031,-0.004l0.031,-0.004l0.031,-0.004l0.031,-0.004l0.03,-0.005l0.031,-0.004l0.031,-0.005l0.03,-0.005l0.031,-0.005l0.03,-0.005l0.031,-0.006l0.03,-0.006l0.03,-0.006l0.03,-0.006l0.03,-0.006l0.031,-0.006l0.03,-0.007l0.029,-0.007l0.03,-0.007l0.03,-0.007l0.03,-0.007l0.029,-0.008l0.03,-0.008l0.03,-0.008l0.029,-0.008l0.029,-0.008l0.03,-0.008l0.029,-0.009l0.029,-0.009l0.029,-0.009l0.029,-0.009l0.029,-0.009l0.029,-0.01l0.028,-0.009l0.029,-0.01l0.029,-0.01l0.028,-0.01l0.029,-0.01l0.028,-0.011l0.028,-0.011l0.028,-0.01l0.029,-0.011l0.028,-0.012l0.027,-0.011l0.028,-0.011l0.028,-0.012l0.028,-0.012l0.027,-0.012l0.028,-0.012l0.027,-0.012l0.028,-0.013l0.027,-0.012l0.027,-0.013l0.027,-0.013l0.027,-0.013l0.027,-0.013l0.027,-0.014l0.026,-0.013l0.027,-0.014l0.027,-0.014l0.026,-0.014l0.026,-0.014l0.026,-0.015l0.027,-0.014l0.026,-0.015l0.026,-0.015l0.025,-0.015l0.026,-0.015l0.051,-0.03l0.051,-0.032l0.05,-0.032l0.05,-0.032l0.05,-0.033l0.049,-0.034l0.049,-0.034l0.048,-0.035l0.048,-0.035l0.047,-0.036l0.047,-0.036l0.046,-0.037l0.046,-0.038l0.046,-0.038l0.045,-0.038l0.045,-0.04l0.044,-0.039l0.044,-0.04l0.043,-0.041l0.042,-0.041l0.043,-0.042l0.041,-0.042l0.042,-0.043l0.04,-0.043l0.04,-0.044l0.04,-0.044l0.039,-0.044l0.039,-0.046l0.038,-0.045l0.037,-0.046l0.037,-0.047l0.037,-0.046l0.036,-0.048l0.035,-0.048l0.035,-0.048l0.034,-0.049l0.034,-0.049l0.033,-0.049l0.032,-0.05l0.032,-0.051l0.031,-0.05l0.031,-0.051l0.015,-0.026l0.015,-0.026l0.015,-0.026l0.014,-0.026l0.015,-0.026l0.014,-0.026l0.014,-0.027l0.015,-0.026l0.013,-0.027l0.014,-0.026l0.014,-0.027l0.013,-0.027l0.013,-0.027l0.014,-0.026l0.012,-0.028l0.013,-0.027l0.013,-0.027l0.012,-0.027l0.013,-0.028l0.012,-0.027l0.012,-0.028l0.012,-0.027l0.011,-0.028l0.012,-0.028l0.011,-0.028l0.011,-0.028l0.011,-0.028l0.011,-0.028l0.011,-0.029l0.01,-0.028l0.01,-0.028l0.011,-0.029l0.01,-0.028l0.009,-0.029l0.01,-0.029l0.01,-0.029l0.009,-0.029l0.009,-0.029l0.009,-0.029l0.009,-0.029l0.008,-0.029l0.009,-0.029l0.008,-0.03l0.008,-0.029l0.008,-0.03l0.008,-0.029l0.007,-0.03l0.007,-0.029l0.008,-0.03l0.007,-0.03l0.006,-0.03l0.007,-0.03l0.007,-0.03l0.006,-0.03l0.006,-0.03l0.006,-0.031l0.006,-0.03l0.005,-0.03l0.005,-0.031l0.006,-0.03l0.005,-0.031l0.004,-0.031l0.005,-0.03l0.004,-0.031l0.005,-0.031l0.004,-0.031l0.003,-0.031l0.004,-0.031l0.004,-0.031l0.003,-0.031l0.003,-0.031l0.003,-0.031l0.002,-0.032l0.003,-0.031l0.002,-0.031l0.002,-0.032l0.002,-0.031l0.002,-0.032l0.001,-0.031l0.002,-0.032l0.001,-0.032l0.001,-0.032l0,-0.031l0.001,-0.032l0,-0.032l0,-0.032l0,-41.952l0,-0.032l0,-0.032l-0.001,-0.032l0,-0.032l-0.001,-0.032l-0.001,-0.031l-0.002,-0.032l-0.001,-0.032l-0.002,-0.031l-0.002,-0.032l-0.002,-0.031l-0.002,-0.032l-0.003,-0.031l-0.002,-0.031l-0.003,-0.031l-0.003,-0.032l-0.003,-0.031l-0.004,-0.031l-0.004,-0.031l-0.003,-0.031l-0.004,-0.031l-0.005,-0.03l-0.004,-0.031l-0.005,-0.031l-0.004,-0.03l-0.005,-0.031l-0.006,-0.031l-0.005,-0.03l-0.005,-0.03l-0.006,-0.031l-0.006,-0.03l-0.006,-0.03l-0.006,-0.03l-0.007,-0.03l-0.007,-0.03l-0.006,-0.03l-0.007,-0.03l-0.008,-0.03l-0.007,-0.03l-0.007,-0.029l-0.008,-0.03l-0.008,-0.029l-0.008,-0.03l-0.008,-0.029l-0.009,-0.029l-0.008,-0.03l-0.009,-0.029l-0.009,-0.029l-0.009,-0.029l-0.009,-0.029l-0.01,-0.029l-0.01,-0.028l-0.009,-0.029l-0.01,-0.029l-0.011,-0.028l-0.01,-0.028l-0.01,-0.029l-0.011,-0.028l-0.011,-0.028l-0.011,-0.028l-0.011,-0.028l-0.011,-0.028l-0.012,-0.028l-0.011,-0.028l-0.012,-0.028l-0.012,-0.027l-0.012,-0.028l-0.013,-0.027l-0.012,-0.027l-0.013,-0.028l-0.013,-0.027l-0.012,-0.027l-0.014,-0.027l-0.013,-0.027l-0.013,-0.027l-0.014,-0.026l-0.014,-0.027l-0.013,-0.026l-0.015,-0.027l-0.014,-0.026l-0.014,-0.026l-0.015,-0.026l-0.014,-0.026l-0.015,-0.026l-0.015,-0.026l-0.015,-0.026l-0.031,-0.051l-0.031,-0.051l-0.032,-0.05l-0.032,-0.05l-0.033,-0.05l-0.034,-0.049l-0.034,-0.048l-0.035,-0.049l-0.035,-0.048l-0.036,-0.047l-0.037,-0.047l-0.037,-0.046l-0.037,-0.046l-0.038,-0.046l-0.039,-0.045l-0.039,-0.045l-0.04,-0.044l-0.04,-0.043l-0.04,-0.044l-0.042,-0.042l-0.041,-0.042l-0.043,-0.042l-0.042,-0.041l-0.043,-0.041l-0.044,-0.04l-0.044,-0.04l-0.045,-0.039l-0.045,-0.039l-0.046,-0.038l-0.046,-0.037l-0.046,-0.037l-0.047,-0.037l-0.047,-0.035l-0.048,-0.036l-0.048,-0.035l-0.049,-0.034l-0.049,-0.033l-0.05,-0.033l-0.05,-0.033l-0.05,-0.032l-0.051,-0.031l-0.051,-0.031l-0.026,-0.015l-0.025,-0.015l-0.026,-0.015l-0.026,-0.014l-0.027,-0.015l-0.026,-0.014l-0.026,-0.014l-0.026,-0.014l-0.027,-0.014l-0.027,-0.014l-0.026,-0.014l-0.027,-0.013l-0.027,-0.013l-0.027,-0.013l-0.027,-0.013l-0.027,-0.013l-0.027,-0.013l-0.028,-0.012l-0.027,-0.012l-0.028,-0.013l-0.027,-0.012l-0.028,-0.011l-0.028,-0.012l-0.028,-0.012l-0.027,-0.011l-0.028,-0.011l-0.029,-0.011l-0.028,-0.011l-0.028,-0.011l-0.028,-0.01l-0.029,-0.01l-0.028,-0.01l-0.029,-0.01l-0.029,-0.01l-0.028,-0.01l-0.029,-0.009l-0.029,-0.01l-0.029,-0.009l-0.029,-0.009l-0.029,-0.008l-0.029,-0.009l-0.03,-0.009l-0.029,-0.008l-0.029,-0.008l-0.03,-0.008l-0.03,-0.007l-0.029,-0.008l-0.03,-0.007l-0.03,-0.008l-0.03,-0.007l-0.029,-0.006l-0.03,-0.007l-0.031,-0.006l-0.03,-0.007l-0.03,-0.006l-0.03,-0.006l-0.03,-0.005l-0.031,-0.006l-0.03,-0.005l-0.031,-0.005l-0.03,-0.005l-0.031,-0.005l-0.031,-0.005l-0.03,-0.004l-0.031,-0.004l-0.031,-0.004l-0.031,-0.004l-0.031,-0.004l-0.031,-0.003l-0.031,-0.004l-0.031,-0.003l-0.032,-0.003l-0.031,-0.002l-0.031,-0.003l-0.032,-0.002l-0.031,-0.002l-0.032,-0.002l-0.031,-0.002l-0.032,-0.001l-0.031,-0.002l-0.032,-0.001l-0.032,-0.001l-0.032,0l-0.032,-0.001l-0.032,0l-0.031,0l-36.67,0Z" style="fill:#2a5058;"/></g><path id="Etikett" d="M3.746,21.973l47.558,0l0,30.651l-23.562,0.24l-23.996,-0.24l0,-30.651Z" style="fill:url(#_Linear2);"/><path d="M51.434,20.981l0.128,0.026l0.124,0.042l0.117,0.058l0.109,0.072l0.099,0.087l0.086,0.098l0.073,0.109l0.057,0.117l0.042,0.124l0.026,0.128l0.008,0.131l0,30.651l-0.008,0.129l-0.025,0.128l-0.042,0.123l-0.057,0.117l-0.072,0.108l-0.085,0.098l-0.097,0.087l-0.108,0.072l-0.116,0.059l-0.122,0.042l-0.128,0.027l-0.129,0.01l-23.571,0.24l-24.007,-0.24l-0.129,-0.01l-0.128,-0.026l-0.122,-0.043l-0.117,-0.059l-0.107,-0.072l-0.098,-0.087l-0.085,-0.098l-0.072,-0.108l-0.057,-0.117l-0.041,-0.123l-0.025,-0.128l-0.009,-0.129l0,-30.651l0.009,-0.131l0.025,-0.128l0.042,-0.124l0.058,-0.117l0.073,-0.109l0.086,-0.098l0.098,-0.087l0.109,-0.072l0.117,-0.058l0.124,-0.042l0.129,-0.026l0.13,-0.008l47.557,0l0.131,0.008Zm-47.688,0.992l0,30.651l23.996,0.24l23.562,-0.24l0,-30.651l-47.558,0Z"/><path d="M29.327,29.358c0,0 1.097,0.473 0.797,1.986c-0.29,1.457 -1.276,0.504 -1.584,0.127c-0.399,-0.49 -0.954,-1.435 -1.366,-2.145c-0.715,-1.233 -1.88,-3.27 -3.433,-2.473c-0.654,0.335 -0.912,1.026 -0.879,1.494c0.074,1.063 0.683,2.002 1.148,2.758c0.482,0.784 4.789,6.324 5.237,6.991c2.313,3.438 2.101,5.536 1.575,7.106c-0.895,2.67 -5.04,3.924 -6.932,0.026c-1.72,-3.543 0.753,-6.658 3.082,-5.589c2.021,0.928 2.378,2.588 2.378,2.588c0,0 -0.512,-3.011 -2.51,-3.727c-4.295,-1.537 -4.751,4.222 -3.473,6.871c2.866,5.941 9.911,3.624 8.766,-2.361c-0.086,-0.449 -0.231,-1.215 -0.616,-2.224c-0.317,-0.834 -0.799,-1.834 -1.545,-2.959c-0.586,-0.884 -3.601,-4.265 -4.629,-5.888c-0.739,-1.168 -1.785,-2.64 -1.537,-3.852c0.175,-0.852 1.426,-0.555 1.778,-0.222c0.352,0.333 2.555,3.743 2.637,3.862c1.396,2.013 2.466,0.593 2.594,-0.227c0.178,-1.139 -0.393,-1.889 -1.488,-2.142Z" style="fill:none;stroke:#000;stroke-width:0.32px;"/><path id="Lokk" d="M54.135,3.307c0,-1.325 -1.076,-2.4 -2.4,-2.4l-48.409,0c-1.324,0 -2.4,1.075 -2.4,2.4l0,4.8c0,1.324 1.076,2.4 2.4,2.4l48.409,0c1.324,0 2.4,-1.076 2.4,-2.4l0,-4.8Z" style="fill:url(#_Linear3);stroke:#000;stroke-width:1.5px;"/></g><defs><linearGradient id="_Linear1" x1="0" y1="0" x2="1" y2="0" gradientUnits="userSpaceOnUse" gradientTransform="matrix(46.5575,0,0,51.84,4.25183,36.4268)"><stop offset="0" style="stop-color:#2a5058;stop-opacity:1"/><stop offset="0.09" style="stop-color:#83999e;stop-opacity:1"/><stop offset="0.2" style="stop-color:#d9e0e2;stop-opacity:1"/><stop offset="0.5" style="stop-color:#fff;stop-opacity:1"/><stop offset="0.8" style="stop-color:#d9e0e2;stop-opacity:1"/><stop offset="0.91" style="stop-color:#83999e;stop-opacity:1"/><stop offset="1" style="stop-color:#2a5058;stop-opacity:1"/></linearGradient><linearGradient id="_Linear2" x1="0" y1="0" x2="1" y2="0" gradientUnits="userSpaceOnUse" gradientTransform="matrix(47.5574,0,0,32.571,3.96381,36.6323)"><stop offset="0" style="stop-color:#7c715a;stop-opacity:1"/><stop offset="0.09" style="stop-color:#afa795;stop-opacity:1"/><stop offset="0.2" style="stop-color:#e1dbcf;stop-opacity:1"/><stop offset="0.5" style="stop-color:#f7f2e8;stop-opacity:1"/><stop offset="0.8" style="stop-color:#e1dbcf;stop-opacity:1"/><stop offset="0.91" style="stop-color:#afa695;stop-opacity:1"/><stop offset="1" style="stop-color:#7c7059;stop-opacity:1"/></linearGradient><linearGradient id="_Linear3" x1="0" y1="0" x2="1" y2="0" gradientUnits="userSpaceOnUse" gradientTransform="matrix(53.2086,0,0,9.6,0.926293,5.7068)"><stop offset="0" style="stop-color:#7d7d7d;stop-opacity:1"/><stop offset="0.09" style="stop-color:#b3b3b3;stop-opacity:1"/><stop offset="0.2" style="stop-color:#e8e8e8;stop-opacity:1"/><stop offset="0.5" style="stop-color:#fff;stop-opacity:1"/><stop offset="0.8" style="stop-color:#e8e8e8;stop-opacity:1"/><stop offset="0.91" style="stop-color:#b3b3b3;stop-opacity:1"/><stop offset="1" style="stop-color:#7d7d7d;stop-opacity:1"/></linearGradient></defs></svg>