<?xml version="1.0" encoding="UTF-8" standalone="no"?><!DOCTYPE svg PUBLIC "-//W3C//DTD SVG 1.1//EN" "http://www.w3.org/Graphics/SVG/1.1/DTD/svg11.dtd"><svg width="100%" height="100%" viewBox="0 0 170 170" version="1.1" xmlns="http://www.w3.org/2000/svg" xmlns:xlink="http://www.w3.org/1999/xlink" xml:space="preserve" xmlns:serif="http://www.serif.com/" style="fill-rule:evenodd;clip-rule:evenodd;stroke-linecap:square;stroke-linejoin:round;stroke-miterlimit:1.5;"><g id="Delta-InfectionCard" serif:id="Delta InfectionCard"><path d="M14.067,0.727c-7.417,0.006 -13.435,6.033 -13.429,13.451l0.111,141.12c0.006,7.417 6.033,13.435 13.45,13.429l141.12,-0.111c7.418,-0.006 13.436,-6.033 13.43,-13.45l-0.111,-141.12c-0.006,-7.418 -6.033,-13.436 -13.451,-13.43l-141.12,0.111Z" style="fill:url(#_Linear1);stroke:#00191f;stroke-width:1px;"/><path d="M92.554,98.494c-2.032,-3.337 -3.211,-7.307 -3.211,-11.565c0,-11.807 9.063,-21.397 20.239,-21.43c-9.44,0.031 -17.093,7.704 -17.093,17.15c0,5.435 2.533,10.283 6.483,13.426l0,0l0.042,0.034l-0.042,-0.034c2.857,-2.483 6.587,-3.988 10.667,-3.988c4.079,0 7.809,1.505 10.666,3.988l-0.042,0.034l0.042,-0.034l0,0c3.95,-3.143 6.484,-7.991 6.484,-13.426c0,-9.446 -7.654,-17.119 -17.093,-17.15c11.175,0.033 20.238,9.623 20.238,21.43c0,4.258 -1.179,8.228 -3.211,11.565c3.906,-0.091 7.934,0.873 11.621,3.002c10.226,5.904 13.999,18.547 8.44,28.242c4.692,-8.19 1.875,-18.655 -6.306,-23.378c-4.707,-2.718 -10.172,-2.948 -14.869,-1.099l0,0l-0.051,0.02l0.051,-0.02c0.722,3.716 0.16,7.699 -1.88,11.232c-2.039,3.533 -5.207,6.011 -8.787,7.244l-0.008,-0.054l0.008,0.054l0,0c0.747,4.992 3.679,9.61 8.386,12.327c8.18,4.724 18.652,1.932 23.398,-6.228c-5.615,9.662 -18.452,12.716 -28.677,6.813c-3.688,-2.13 -6.536,-5.136 -8.41,-8.564c-1.875,3.428 -4.723,6.434 -8.411,8.564c-10.225,5.903 -23.062,2.849 -28.677,-6.813c4.746,8.16 15.218,10.952 23.398,6.228c4.707,-2.717 7.639,-7.335 8.386,-12.327l0,0l0.008,-0.054l-0.008,0.054c-3.579,-1.233 -6.748,-3.711 -8.787,-7.244c-2.04,-3.533 -2.602,-7.516 -1.88,-11.232l0.051,0.02l-0.051,-0.02l0,0c-4.696,-1.849 -10.162,-1.619 -14.869,1.099c-8.18,4.723 -10.998,15.188 -6.305,23.378c-5.56,-9.695 -1.787,-22.338 8.439,-28.242c3.688,-2.129 7.715,-3.093 11.621,-3.002Zm11.796,25.14l0.001,-0.004l-0.006,0.039l0.005,-0.035Zm10.582,0.035l-0.006,-0.039l0.001,0.004l0.005,0.035Zm-10.575,-0.086l0.001,-0.006l-0.005,0.034l0.004,-0.028Zm10.567,0.028l-0.005,-0.034l0.001,0.006l0.004,0.028Zm-10.56,-0.079l0.002,-0.009l-0.005,0.033l0.003,-0.024Zm10.552,0.024l-0.004,-0.032l0.001,0.008l0.003,0.024Zm-10.545,-0.075l0.002,-0.011l-0.005,0.032l0.003,-0.021Zm10.538,0.021l-0.005,-0.032l0.002,0.011l0.003,0.021Zm-10.531,-0.072l0.002,-0.014l-0.004,0.032l0.002,-0.018Zm10.523,0.018l-0.004,-0.031l0.002,0.013l0.002,0.018Zm-10.516,-0.069l0.002,-0.016l-0.004,0.032l0.002,-0.016Zm10.509,0.015l-0.004,-0.031l0.002,0.016l0.002,0.015Zm-10.503,-0.066l0.003,-0.019l-0.004,0.032l0.001,-0.013Zm10.497,0.013l-0.004,-0.031l0.002,0.018l0.002,0.013Zm-10.49,-0.064l0.002,-0.022l-0.004,0.033l0.002,-0.011Zm10.483,0.01l-0.004,-0.031l0.003,0.021l0.001,0.01Zm-10.477,-0.061l0.003,-0.026l-0.004,0.034l0.001,-0.008Zm10.47,0.008l-0.004,-0.033l0.003,0.025l0.001,0.008Zm-10.464,-0.06l0.003,-0.03l-0.004,0.037l0.001,-0.007Zm10.458,0.007l-0.004,-0.036l0.003,0.029l0.001,0.007Zm-10.452,-0.058l0.004,-0.04l-0.005,0.045l0.001,-0.005Zm10.446,0.004l-0.005,-0.041l0.004,0.037l0.001,0.004Zm-10.435,-0.109l0,0.002l0,0.001l0,-0.001l0,-0.002Zm10.423,0l-0.006,-0.052l0.001,0.003l0.005,0.049Zm-10.412,-0.1l0,-0.006l-0.004,0.041l0.004,-0.035Zm10.405,0.033l-0.004,-0.038l0.001,0.005l0.003,0.033Zm-10.4,-0.084l0,-0.008l-0.003,0.036l0.003,-0.028Zm10.394,0.027l-0.003,-0.035l0,0.008l0.003,0.027Zm-10.389,-0.079l0.001,-0.01l-0.004,0.035l0.003,-0.025Zm10.384,0.023l-0.003,-0.032l0,0.009l0.003,0.023Zm-10.38,-0.074l0.002,-0.013l-0.004,0.034l0.002,-0.021Zm10.375,0.02l-0.003,-0.032l0.001,0.012l0.002,0.02Zm-10.37,-0.071l0.001,-0.016l-0.003,0.034l0.002,-0.018Zm10.365,0.017l-0.003,-0.032l0.001,0.015l0.002,0.017Zm-10.36,-0.069l0.001,-0.018l-0.003,0.034l0.002,-0.016Zm10.355,0.015l-0.003,-0.032l0.002,0.017l0.001,0.015Zm-10.351,-0.066l0.002,-0.021l-0.003,0.034l0.001,-0.013Zm10.346,0.012l-0.002,-0.032l0.001,0.02l0.001,0.012Zm-10.342,-0.064l0.002,-0.024l-0.003,0.035l0.001,-0.011Zm10.338,0.011l-0.003,-0.033l0.002,0.022l0.001,0.011Zm-10.334,-0.062l0.002,-0.029l-0.003,0.037l0.001,-0.008Zm10.33,0.008l-0.003,-0.034l0.002,0.026l0.001,0.008Zm-10.326,-0.06l0.003,-0.035l-0.003,0.042l0,-0.007Zm10.321,0.006l-0.002,-0.037l0.002,0.031l0,0.006Zm-0.003,-0.054l-0.004,-0.048l0.003,0.045l0.001,0.003Zm-10.311,-0.055l0,0.001l0,0.005l0,-0.004l0,-0.002Zm0.007,-0.103l0,-0.004l-0.003,0.052l0.003,-0.048Zm10.296,0.042l-0.003,-0.045l0,0.003l0.003,0.042Zm-10.293,-0.093l0.001,-0.007l-0.003,0.041l0.002,-0.034Zm10.289,0.031l-0.002,-0.037l0,0.006l0.002,0.031Zm-10.286,-0.083l0.001,-0.009l-0.003,0.037l0.002,-0.028Zm10.283,0.026l-0.002,-0.034l0,0.008l0.002,0.026Zm-10.28,-0.077l0,-0.012l-0.001,0.036l0.001,-0.024Zm10.276,0.022l-0.001,-0.033l0,0.011l0.001,0.022Zm-10.273,-0.074l0,-0.014l-0.002,0.035l0.002,-0.021Zm10.271,0.02l-0.002,-0.033l0.001,0.013l0.001,0.02Zm-10.269,-0.071l0.001,-0.017l-0.002,0.034l0.001,-0.017Zm10.266,0.016l-0.002,-0.032l0.001,0.016l0.001,0.016Zm-10.264,-0.068l0.001,-0.019l-0.001,0.034l0,-0.015Zm10.261,0.014l-0.001,-0.032l0.001,0.018l0,0.014Zm-10.258,-0.066l0,-0.022l-0.001,0.035l0.001,-0.013Zm10.256,0.012l-0.001,-0.033l0.001,0.021l0,0.012Zm-10.254,-0.063l0,-0.027l-0.001,0.037l0.001,-0.01Zm10.252,0.009l-0.001,-0.034l0.001,0.025l0,0.009Zm-10.251,-0.061l0.001,-0.031l-0.001,0.039l0,-0.008Zm10.249,0.007l-0.001,-0.036l0.001,0.029l0,0.007Zm-10.247,-0.059l0.001,-0.04l-0.001,0.046l0,-0.006Zm10.245,0.005l-0.001,-0.041l0.001,0.036l0,0.005Zm-0.003,-0.11l0,0.002l0,0.003l0,-0.003l0,-0.002Zm-10.239,0.001l0,0.001l0,0.002l0,-0.002l0,-0.001Zm0.002,-0.103l0.001,-0.005l-0.001,0.048l0,-0.043Zm10.235,0.038l0,-0.042l0,0.004l0,0.038Zm-10.234,-0.089l0,-0.008l0,0.04l0,-0.032Zm10.233,0.03l0,-0.037l0,0.007l0,0.03Zm-10.232,-0.082l0,-0.01l0,0.037l0,-0.027Zm10.231,0.025l0,-0.034l0,0.009l0,0.025Zm-10.23,-0.077l0,-0.012l-0.001,0.035l0.001,-0.023Zm10.23,0.022l-0.001,-0.034l0,0.012l0.001,0.022Zm-10.23,-0.073l0,-0.016l0,0.035l0,-0.019Zm10.229,0.018l0,-0.033l0,0.015l0,0.018Zm-10.228,-0.07l0,-0.018l-0.001,0.035l0.001,-0.017Zm10.228,0.016l0,-0.033l0,0.017l0,0.016Zm-10.228,-0.068l0,-0.021l0,0.035l0,-0.014Zm10.227,0.014l0,-0.034l0,0.02l0,0.014Zm-10.227,-0.066l0,-0.024l0,0.036l0,-0.012Zm10.227,0.012l0,-0.035l0,0.023l0,0.012Zm-10.227,-0.064l-0.001,-0.028l0.001,0.038l0,-0.01Zm10.228,0.009l0,-0.035l0,0.026l0,0.009Zm-10.229,-0.06l0,-0.035l0,0.042l0,-0.007Zm10.229,0.006l0,-0.038l0,0.032l0,0.006Zm-10.229,-0.058l-0.001,-0.047l0.001,0.052l0,-0.005Zm10.229,0.004l0.001,-0.047l-0.001,0.043l0,0.004Zm0.002,-0.112l0,0.003l0,0.002l0,-0.001l0,-0.004Zm-10.233,0.003l0,0l-0.001,-0.055l0.001,0.055Zm-0.002,-0.103l0,-0.006l0.001,0.045l-0.001,-0.039Zm10.236,0.037l0.001,-0.042l0,0.005l-0.001,0.037Zm-10.237,-0.088l0,-0.009l0.001,0.039l-0.001,-0.03Zm10.238,0.029l0.001,-0.038l0,0.009l-0.001,0.029Zm-10.239,-0.081l-0.001,-0.011l0.001,0.037l0,-0.026Zm10.241,0.025l0.001,-0.036l-0.001,0.011l0,0.025Zm-10.243,-0.077l0,-0.013l0.001,0.035l-0.001,-0.022Zm10.244,0.021l0.001,-0.034l0,0.013l-0.001,0.021Zm-10.246,-0.073l0,-0.016l0.001,0.035l-0.001,-0.019Zm10.248,0.019l0.001,-0.035l0,0.016l-0.001,0.019Zm-10.25,-0.071l0,-0.019l0.001,0.036l-0.001,-0.017Zm10.252,0.016l0.001,-0.034l0,0.018l-0.001,0.016Zm-10.254,-0.068l-0.001,-0.021l0.002,0.035l-0.001,-0.014Zm10.256,0.014l0.002,-0.035l-0.001,0.021l-0.001,0.014Zm-10.258,-0.065l-0.001,-0.026l0.002,0.037l-0.001,-0.011Zm10.26,0.011l0.002,-0.037l-0.001,0.026l-0.001,0.011Zm-10.262,-0.063l-0.002,-0.031l0.002,0.04l0,-0.009Zm10.265,0.008l0.002,-0.038l-0.002,0.03l0,0.008Zm-10.268,-0.06l-0.002,-0.038l0.003,0.044l-0.001,-0.006Zm10.27,0.006l0.003,-0.043l-0.002,0.037l-0.001,0.006Zm0.006,-0.108l-0.003,0.054l0.003,-0.055l0,0.001Zm-10.282,-0.02l0.001,0.015l0,-0.002l-0.001,-0.013l-0.002,-0.036l0,0l0.002,0.036Zm9.574,-14.419c-0.795,-1.371 -2.209,-2.34 -3.858,-2.525l0,-3.479c2.541,-0.084 4.943,-0.722 7.089,-1.796c-2.159,-1.502 -4.805,-2.386 -7.663,-2.386c-2.858,0 -5.505,0.884 -7.664,2.386c2.146,1.074 4.548,1.712 7.089,1.796l0,3.479c-1.649,0.185 -3.063,1.154 -3.858,2.525l-0.002,0.003l-0.002,0.004c-0.79,1.374 -0.922,3.083 -0.258,4.604l-3.013,1.739c-1.343,-2.159 -3.096,-3.92 -5.1,-5.241c-0.221,2.621 0.337,5.355 1.766,7.83c1.429,2.475 3.518,4.325 5.898,5.444c-0.142,-2.396 -0.791,-4.795 -1.989,-7.038l3.013,-1.739c0.984,1.336 2.53,2.075 4.116,2.078l0.004,0l0.003,0c1.586,-0.003 3.132,-0.742 4.116,-2.078l3.013,1.739c-1.198,2.243 -1.846,4.642 -1.989,7.038c2.38,-1.119 4.469,-2.969 5.898,-5.444c1.429,-2.475 1.987,-5.209 1.766,-7.83c-2.004,1.321 -3.757,3.082 -5.1,5.241l-3.013,-1.739c0.665,-1.521 0.532,-3.23 -0.258,-4.604l-0.002,-0.004l-0.002,-0.003Zm8.416,1.082l-0.011,0.007l-0.03,0.02l0,0l0.03,-0.02l0.013,-0.008l-0.002,0.001Zm-25.702,-0.003l-0.001,-0.001l-0.045,-0.03l0.046,0.031Zm25.794,-0.056l-0.032,0.02l0.037,-0.024l-0.005,0.004Zm-25.886,-0.004l0.037,0.024l-0.031,-0.02l-0.006,-0.004Zm25.929,-0.025l-0.025,0.017l0.033,-0.021l-0.008,0.004Zm-25.974,-0.004l0.032,0.021l-0.025,-0.017l-0.007,-0.004Zm26.018,-0.024l-0.022,0.014l0.031,-0.02l-0.009,0.006Zm-26.064,-0.005l0.03,0.019l-0.021,-0.014l-0.009,-0.005Zm26.108,-0.022l-0.019,0.011l0.03,-0.019l-0.011,0.008Zm-26.154,-0.008l0.029,0.019l-0.018,-0.011l-0.011,-0.008Zm26.198,-0.02l-0.016,0.01l0.029,-0.019l-0.013,0.009Zm-26.244,-0.009l0.029,0.019l-0.016,-0.01l-0.013,-0.009Zm26.288,-0.019l-0.014,0.009l0.03,-0.019l-0.016,0.01Zm-26.334,-0.009l0.029,0.018l-0.014,-0.009l-0.015,-0.009Zm26.378,-0.018l-0.012,0.007l0.031,-0.019l-0.019,0.012Zm-26.425,-0.011l0.03,0.018l-0.012,-0.007l-0.018,-0.011Zm26.469,-0.016l-0.01,0.005l0.032,-0.019l-0.022,0.014Zm-26.516,-0.013l0.03,0.018l-0.009,-0.005l-0.021,-0.013Zm26.56,-0.015l-0.007,0.005l0.033,-0.02l-0.026,0.015Zm-26.608,-0.015l0.032,0.02l-0.007,-0.005l-0.025,-0.015Zm26.652,-0.012l-0.005,0.004l0.038,-0.023l-0.033,0.019Zm-26.702,-0.018l0.036,0.022l-0.005,-0.004l-0.031,-0.018Zm26.79,-0.035l-0.047,0.029l0.047,-0.029l0,0Zm-26.849,-0.001l0.002,0.001l0.003,0.002l-0.003,-0.002l-0.002,-0.001Zm26.939,-0.052l-0.04,0.024l0.044,-0.027l-0.004,0.003Zm-27.031,-0.002l0.041,0.024l-0.037,-0.022l-0.004,-0.002Zm27.076,-0.024l-0.03,0.017l0.036,-0.021l-0.006,0.004Zm-27.122,-0.004l0.033,0.02l-0.028,-0.016l-0.005,-0.004Zm27.166,-0.023l-0.024,0.015l0.033,-0.019l-0.009,0.004Zm-27.213,-0.004l0.031,0.018l-0.023,-0.014l-0.008,-0.004Zm27.258,-0.022l-0.021,0.012l0.032,-0.018l-0.011,0.006Zm-27.305,-0.005l0.03,0.017l-0.02,-0.012l-0.01,-0.005Zm27.35,-0.021l-0.018,0.011l0.031,-0.018l-0.013,0.007Zm-27.397,-0.006l0.029,0.016l-0.017,-0.01l-0.012,-0.006Zm27.442,-0.019l-0.015,0.008l0.03,-0.017l-0.015,0.009Zm-27.489,-0.008l0.029,0.016l-0.015,-0.008l-0.014,-0.008Zm27.534,-0.018l-0.013,0.007l0.03,-0.017l-0.017,0.01Zm-27.581,-0.009l0.029,0.016l-0.013,-0.007l-0.016,-0.009Zm27.626,-0.016l-0.011,0.006l0.031,-0.018l-0.02,0.012Zm-27.674,-0.011l0.029,0.016l-0.01,-0.005l-0.019,-0.011Zm27.719,-0.015l-0.009,0.005l0.033,-0.018l-0.024,0.013Zm-27.767,-0.012l0.03,0.017l-0.008,-0.005l-0.022,-0.012Zm27.812,-0.013l-0.006,0.004l0.035,-0.02l-0.029,0.016Zm-27.861,-0.014l0.032,0.018l-0.006,-0.004l-0.026,-0.014Zm27.907,-0.011l-0.005,0.003l0.042,-0.023l-0.037,0.02Zm-27.96,-0.018l0.038,0.02l-0.004,-0.002l-0.034,-0.018Zm-0.06,-0.033l0.003,0.001l0.002,0.001l-0.002,-0.001l-0.003,-0.001Zm28.112,0l-0.001,0.001l-0.002,0.001l0.001,-0.001l0.002,-0.001Zm0.089,-0.048l-0.035,0.019l0.04,-0.021l-0.005,0.002Zm-28.294,-0.002l0.037,0.019l-0.032,-0.017l-0.005,-0.002Zm28.34,-0.022l-0.028,0.015l0.035,-0.019l-0.007,0.004Zm-28.387,-0.004l0.032,0.017l-0.026,-0.013l-0.006,-0.004Zm28.433,-0.02l-0.024,0.012l0.033,-0.017l-0.009,0.005Zm-28.481,-0.005l0.03,0.016l-0.021,-0.011l-0.009,-0.005Zm28.526,-0.019l-0.02,0.01l0.032,-0.016l-0.012,0.006Zm-28.574,-0.006l0.029,0.015l-0.018,-0.009l-0.011,-0.006Zm28.62,-0.018l-0.017,0.009l0.031,-0.016l-0.014,0.007Zm-28.668,-0.007l0.029,0.015l-0.016,-0.008l-0.013,-0.007Zm28.714,-0.017l-0.015,0.007l0.031,-0.015l-0.016,0.008Zm-28.762,-0.008l0.029,0.015l-0.014,-0.007l-0.015,-0.008Zm28.808,-0.016l-0.012,0.007l0.03,-0.016l-0.018,0.009Zm-28.856,-0.009l0.029,0.015l-0.012,-0.006l-0.017,-0.009Zm28.902,-0.014l-0.01,0.005l0.031,-0.016l-0.021,0.011Zm-28.951,-0.01l0.03,0.015l-0.01,-0.005l-0.02,-0.01Zm28.997,-0.014l-0.008,0.004l0.033,-0.016l-0.025,0.012Zm-29.046,-0.011l0.031,0.015l-0.008,-0.004l-0.023,-0.011Zm29.092,-0.012l-0.006,0.003l0.037,-0.018l-0.031,0.015Zm-29.143,-0.014l0.033,0.017l-0.005,-0.003l-0.028,-0.014Zm29.189,-0.009l-0.004,0.002l0.047,-0.023l-0.043,0.021Zm-29.245,-0.019l0.041,0.021l-0.003,-0.002l-0.038,-0.019Zm29.342,-0.029l-0.003,0.002l-0.001,0l0.001,0l0.003,-0.002Zm-29.446,-0.022l0.043,0.021l-0.04,-0.019l-0.003,-0.002Zm29.535,-0.021l-0.032,0.015l0.037,-0.018l-0.005,0.003Zm-29.584,-0.002l0.034,0.016l-0.029,-0.014l-0.005,-0.002Zm29.63,-0.02l-0.026,0.012l0.034,-0.016l-0.008,0.004Zm-29.678,-0.004l0.031,0.015l-0.024,-0.011l-0.007,-0.004Zm29.725,-0.019l-0.022,0.011l0.032,-0.015l-0.01,0.004Zm-29.774,-0.004l0.03,0.014l-0.021,-0.01l-0.009,-0.004Zm29.82,-0.018l-0.018,0.009l0.03,-0.014l-0.012,0.005Zm-29.869,-0.005l0.029,0.014l-0.017,-0.009l-0.012,-0.005Zm29.916,-0.017l-0.016,0.008l0.03,-0.014l-0.014,0.006Zm-29.965,-0.006l0.029,0.014l-0.015,-0.008l-0.014,-0.006Zm30.012,-0.015l-0.014,0.006l0.031,-0.014l-0.017,0.008Zm-30.061,-0.008l0.029,0.014l-0.013,-0.006l-0.016,-0.008Zm30.108,-0.014l-0.012,0.005l0.031,-0.014l-0.019,0.009Zm-30.157,-0.008l0.029,0.013l-0.011,-0.005l-0.018,-0.008Zm30.204,-0.014l-0.01,0.005l0.032,-0.015l-0.022,0.01Zm-30.254,-0.009l0.03,0.013l-0.009,-0.004l-0.021,-0.009Zm30.301,-0.012l-0.008,0.003l0.034,-0.015l-0.026,0.012Zm-30.351,-0.011l0.031,0.014l-0.006,-0.003l-0.025,-0.011Zm30.398,-0.01l-0.006,0.002l0.038,-0.017l-0.032,0.015Zm-30.45,-0.014l0.034,0.016l-0.004,-0.002l-0.03,-0.014Zm-0.062,-0.027l0.047,0.021l-0.003,-0.001l-0.044,-0.02Zm30.606,-0.001l-0.001,0l-0.002,0.001l0.002,-0.001l0.001,0Zm0.094,-0.042l-0.037,0.017l0.041,-0.018l-0.004,0.001Zm-30.801,-0.001l0.038,0.016l-0.034,-0.015l-0.004,-0.001Zm30.848,-0.019l-0.028,0.012l0.035,-0.015l-0.007,0.003Zm-30.897,-0.003l0.032,0.014l-0.026,-0.011l-0.006,-0.003Zm30.945,-0.018l-0.024,0.011l0.032,-0.014l-0.008,0.003Zm-30.995,-0.003l0.031,0.013l-0.023,-0.01l-0.008,-0.003Zm31.042,-0.017l-0.02,0.009l0.03,-0.013l-0.01,0.004Zm-31.091,-0.004l0.029,0.012l-0.019,-0.008l-0.01,-0.004Zm31.139,-0.016l-0.018,0.007l0.03,-0.012l-0.012,0.005Zm-31.189,-0.005l0.029,0.012l-0.017,-0.007l-0.012,-0.005Zm31.236,-0.015l-0.015,0.006l0.03,-0.012l-0.015,0.006Zm-31.285,-0.006l0.028,0.012l-0.014,-0.006l-0.014,-0.006Zm31.333,-0.014l-0.013,0.006l0.03,-0.013l-0.017,0.007Zm-31.383,-0.007l0.029,0.012l-0.013,-0.005l-0.016,-0.007Zm31.43,-0.012l-0.01,0.004l0.03,-0.012l-0.02,0.008Zm-31.48,-0.008l0.029,0.012l-0.01,-0.004l-0.019,-0.008Zm31.528,-0.012l-0.008,0.004l0.031,-0.013l-0.023,0.009Zm-31.579,-0.009l0.03,0.012l-0.008,-0.003l-0.022,-0.009Zm31.627,-0.01l-0.006,0.002l0.032,-0.013l-0.026,0.011Zm-31.679,-0.011l0.032,0.013l-0.006,-0.002l-0.026,-0.011Zm31.727,-0.008l-0.004,0.001l0.036,-0.015l-0.032,0.014Zm-31.781,-0.013l0.037,0.014l-0.004,-0.001l-0.033,-0.013Zm8.199,-7.316l0.012,0.006l0.032,0.017l0,0l-0.032,-0.017l-0.014,-0.007l0.002,0.001Zm15.421,-0.002l0,-0.001l0.049,-0.024l-0.049,0.025Zm-15.518,-0.047l0.033,0.017l-0.039,-0.02l0.006,0.003Zm15.615,-0.003l-0.039,0.02l0.033,-0.017l0.006,-0.003Zm-15.661,-0.021l0.026,0.014l-0.034,-0.018l0.008,0.004Zm15.709,-0.004l-0.034,0.018l0.027,-0.014l0.007,-0.004Zm-15.756,-0.02l0.023,0.012l-0.032,-0.017l0.009,0.005Zm15.804,-0.005l-0.032,0.017l0.023,-0.012l0.009,-0.005Zm-15.85,-0.019l0.02,0.011l-0.032,-0.017l0.012,0.006Zm15.899,-0.006l-0.031,0.016l0.019,-0.01l0.012,-0.006Zm-15.944,-0.018l0.016,0.009l-0.031,-0.016l0.015,0.007Zm15.992,-0.007l-0.031,0.016l0.017,-0.009l0.014,-0.007Zm-16.038,-0.017l0.014,0.007l-0.031,-0.016l0.017,0.009Zm16.086,-0.009l-0.03,0.016l0.013,-0.007l0.017,-0.009Zm-16.132,-0.016l0.012,0.007l-0.032,-0.017l0.02,0.01Zm16.18,-0.01l-0.03,0.017l0.011,-0.007l0.019,-0.01Zm-16.226,-0.014l0.01,0.005l-0.032,-0.017l0.022,0.012Zm16.275,-0.012l-0.031,0.017l0.009,-0.005l0.022,-0.012Zm-16.32,-0.013l0.007,0.004l-0.034,-0.018l0.027,0.014Zm16.369,-0.014l-0.033,0.018l0.007,-0.004l0.026,-0.014Zm-16.415,-0.011l0.006,0.003l-0.039,-0.021l0.033,0.018Zm16.467,-0.017l-0.037,0.02l0.005,-0.003l0.032,-0.017Zm-16.557,-0.032l0.048,0.026l-0.048,-0.026l0,0Zm16.617,-0.001l-0.002,0.001l-0.003,0.001l0.003,-0.001l0.002,-0.001Zm-16.708,-0.05l0.041,0.023l-0.045,-0.026l0.004,0.003Zm16.801,-0.003l-0.041,0.024l0.037,-0.021l0.004,-0.003Zm-16.846,-0.023l0.03,0.017l-0.037,-0.02l0.007,0.003Zm16.893,-0.003l-0.034,0.019l0.028,-0.016l0.006,-0.003Zm-16.938,-0.022l0.024,0.014l-0.033,-0.019l0.009,0.005Zm16.985,-0.005l-0.031,0.018l0.023,-0.013l0.008,-0.005Zm-17.03,-0.021l0.021,0.012l-0.032,-0.018l0.011,0.006Zm17.077,-0.006l-0.029,0.017l0.019,-0.011l0.01,-0.006Zm-17.122,-0.02l0.018,0.01l-0.031,-0.017l0.013,0.007Zm17.169,-0.007l-0.029,0.017l0.017,-0.01l0.012,-0.007Zm-17.214,-0.019l0.016,0.009l-0.031,-0.018l0.015,0.009Zm17.261,-0.008l-0.029,0.016l0.015,-0.008l0.014,-0.008Zm-17.305,-0.018l0.012,0.007l-0.03,-0.017l0.018,0.01Zm17.352,-0.01l-0.029,0.017l0.013,-0.007l0.016,-0.01Zm-17.397,-0.016l0.011,0.006l-0.031,-0.018l0.02,0.012Zm17.444,-0.012l-0.029,0.017l0.01,-0.005l0.019,-0.012Zm-17.489,-0.015l0.009,0.005l-0.032,-0.019l0.023,0.014Zm17.536,-0.013l-0.029,0.018l0.008,-0.005l0.021,-0.013Zm-17.58,-0.013l0.007,0.004l-0.035,-0.021l0.028,0.017Zm17.629,-0.016l-0.032,0.019l0.006,-0.003l0.026,-0.016Zm-17.673,-0.011l0.004,0.003l-0.041,-0.025l0.037,0.022Zm17.724,-0.02l-0.037,0.022l0.004,-0.002l0.033,-0.02Zm0.058,-0.035l-0.002,0.001l-0.002,0.001l0.002,-0.001l0.002,-0.001Zm-17.872,0l0.001,0.001l0.001,0.001l-0.001,-0.001l-0.001,-0.001Zm-0.087,-0.053l0.034,0.021l-0.039,-0.024l0.005,0.003Zm18.049,-0.003l-0.035,0.022l0.031,-0.019l0.004,-0.003Zm-18.093,-0.024l0.027,0.016l-0.033,-0.021l0.006,0.005Zm18.139,-0.004l-0.031,0.019l0.025,-0.015l0.006,-0.004Zm-18.182,-0.024l0.022,0.014l-0.031,-0.019l0.009,0.005Zm18.228,-0.005l-0.029,0.018l0.021,-0.013l0.008,-0.005Zm-18.272,-0.022l0.019,0.012l-0.03,-0.019l0.011,0.007Zm18.317,-0.007l-0.027,0.018l0.017,-0.011l0.01,-0.007Zm-18.361,-0.021l0.017,0.01l-0.03,-0.018l0.013,0.008Zm18.407,-0.008l-0.027,0.018l0.015,-0.01l0.012,-0.008Zm-18.45,-0.02l0.014,0.009l-0.029,-0.019l0.015,0.01Zm18.496,-0.009l-0.028,0.017l0.013,-0.008l0.015,-0.009Zm-18.54,-0.019l0.012,0.008l-0.029,-0.019l0.017,0.011Zm18.585,-0.011l-0.027,0.018l0.011,-0.007l0.016,-0.011Zm-18.628,-0.017l0.009,0.006l-0.029,-0.019l0.02,0.013Zm18.674,-0.012l-0.028,0.018l0.009,-0.006l0.019,-0.012Zm-18.717,-0.016l0.007,0.005l-0.031,-0.021l0.024,0.016Zm18.763,-0.015l-0.028,0.019l0.007,-0.004l0.021,-0.015Zm-18.807,-0.014l0.006,0.004l-0.034,-0.022l0.028,0.018Zm18.855,-0.017l-0.031,0.021l0.005,-0.004l0.026,-0.017Zm-18.898,-0.011l0.004,0.002l-0.043,-0.029l0.039,0.027Zm18.95,-0.023l-0.038,0.025l0.003,-0.002l0.035,-0.023Zm-19.04,-0.037l0.003,0.002l0.002,0.001l-0.001,-0.001l-0.004,-0.002Zm19.136,-0.028l-0.04,0.027l0.038,-0.025l0.002,-0.002Zm-19.217,-0.027l0.029,0.02l-0.034,-0.024l0.005,0.004Zm19.262,-0.003l-0.031,0.021l0.026,-0.018l0.005,-0.003Zm-19.305,-0.026l0.024,0.016l-0.031,-0.021l0.007,0.005Zm19.349,-0.005l-0.028,0.02l0.022,-0.015l0.006,-0.005Zm-19.391,-0.024l0.02,0.013l-0.029,-0.02l0.009,0.007Zm19.436,-0.006l-0.027,0.018l0.018,-0.012l0.009,-0.006Zm-19.479,-0.024l0.017,0.012l-0.028,-0.019l0.011,0.007Zm19.523,-0.007l-0.026,0.018l0.016,-0.011l0.01,-0.007Zm-19.565,-0.022l0.015,0.01l-0.028,-0.019l0.013,0.009Zm19.609,-0.009l-0.026,0.018l0.014,-0.009l0.012,-0.009Zm-19.651,-0.021l0.012,0.009l-0.027,-0.019l0.015,0.01Zm19.696,-0.01l-0.026,0.018l0.011,-0.008l0.015,-0.01Zm-19.739,-0.02l0.011,0.008l-0.028,-0.02l0.017,0.012Zm19.783,-0.011l-0.026,0.018l0.01,-0.007l0.016,-0.011Zm-19.825,-0.018l0.009,0.006l-0.029,-0.021l0.02,0.015Zm19.87,-0.014l-0.027,0.019l0.008,-0.005l0.019,-0.014Zm-19.912,-0.016l0.007,0.004l-0.03,-0.021l0.023,0.017Zm19.957,-0.016l-0.028,0.02l0.006,-0.004l0.022,-0.016Zm-19.999,-0.014l0.005,0.003l-0.033,-0.024l0.028,0.021Zm20.045,-0.02l-0.031,0.023l0.005,-0.003l0.026,-0.02Zm0.055,-0.04l-0.042,0.031l0.002,-0.002l0.04,-0.029Zm-20.183,-0.001l0.001,0.001l0.001,0.001l-0.002,-0.002l0,0Zm-0.083,-0.061l0.033,0.024l-0.037,-0.027l0.004,0.003Zm20.355,-0.003l-0.034,0.025l0.03,-0.022l0.004,-0.003Zm-20.397,-0.028l0.025,0.019l-0.03,-0.023l0.005,0.004Zm20.44,-0.004l-0.029,0.022l0.024,-0.018l0.005,-0.004Zm-20.481,-0.027l0.021,0.016l-0.028,-0.021l0.007,0.005Zm20.524,-0.005l-0.027,0.02l0.02,-0.015l0.007,-0.005Zm-20.565,-0.025l0.018,0.013l-0.027,-0.02l0.009,0.007Zm20.608,-0.007l-0.026,0.019l0.017,-0.012l0.009,-0.007Zm-20.649,-0.025l0.015,0.012l-0.026,-0.02l0.011,0.008Zm20.692,-0.007l-0.025,0.019l0.014,-0.012l0.011,-0.007Zm-20.733,-0.024l0.013,0.01l-0.026,-0.019l0.013,0.009Zm20.776,-0.009l-0.025,0.019l0.012,-0.01l0.013,-0.009Zm-20.817,-0.022l0.011,0.008l-0.026,-0.019l0.015,0.011Zm20.86,-0.011l-0.025,0.019l0.01,-0.008l0.015,-0.011Zm-20.901,-0.02l0.009,0.006l-0.026,-0.019l0.017,0.013Zm20.944,-0.013l-0.026,0.019l0.009,-0.006l0.017,-0.013Zm-20.985,-0.019l0.007,0.005l-0.026,-0.02l0.019,0.015Zm21.028,-0.015l-0.026,0.02l0.007,-0.005l0.019,-0.015Zm-21.068,-0.017l0.005,0.004l-0.028,-0.021l0.023,0.017Zm21.112,-0.017l-0.028,0.021l0.006,-0.004l0.022,-0.017Zm-21.153,-0.014l0.003,0.002l-0.031,-0.024l0.028,0.022Zm21.199,-0.022l-0.031,0.024l0.003,-0.002l0.028,-0.022Z"/><path id="Delta" d="M20.785,57.106c0,0 1.098,0.472 0.797,1.986c-0.29,1.456 -1.276,0.504 -1.584,0.127c-0.399,-0.49 -0.953,-1.436 -1.366,-2.145c-0.715,-1.233 -1.88,-3.27 -3.432,-2.474c-0.654,0.336 -0.912,1.027 -0.88,1.494c0.074,1.063 0.683,2.003 1.148,2.759c0.482,0.783 4.789,6.324 5.237,6.99c2.314,3.439 2.101,5.537 1.575,7.107c-0.895,2.67 -5.04,3.923 -6.932,0.025c-1.719,-3.542 0.753,-6.658 3.082,-5.588c2.021,0.928 2.378,2.588 2.378,2.588c0,0 -0.511,-3.011 -2.51,-3.727c-4.294,-1.537 -4.751,4.222 -3.473,6.871c2.866,5.94 9.911,3.623 8.766,-2.361c-0.157,-0.821 -0.512,-2.698 -2.161,-5.184c-0.586,-0.883 -3.601,-4.264 -4.629,-5.888c-0.739,-1.168 -1.785,-2.639 -1.537,-3.851c0.176,-0.853 1.426,-0.555 1.778,-0.222c0.352,0.333 2.555,3.743 2.637,3.862c1.396,2.013 2.467,0.592 2.594,-0.227c0.178,-1.14 -0.392,-1.889 -1.488,-2.142Z" style="stroke:#000;stroke-width:0.32px;stroke-linecap:round;"/></g><defs><linearGradient id="_Linear1" x1="0" y1="0" x2="1" y2="0" gradientUnits="userSpaceOnUse" gradientTransform="matrix(-0.132106,-168,168,-0.132106,84.7595,168.672)"><stop offset="0" style="stop-color:#00191f;stop-opacity:1"/><stop offset="0.09" style="stop-color:#123037;stop-opacity:1"/><stop offset="0.2" style="stop-color:#23464e;stop-opacity:1"/><stop offset="0.5" style="stop-color:#2a5058;stop-opacity:1"/><stop offset="0.8" style="stop-color:#23464e;stop-opacity:1"/><stop offset="0.91" style="stop-color:#123037;stop-opacity:1"/><stop offset="1" style="stop-color:#00191f;stop-opacity:1"/></linearGradient></defs></svg>