<?xml version="1.0" encoding="UTF-8" standalone="no"?><!DOCTYPE svg PUBLIC "-//W3C//DTD SVG 1.1//EN" "http://www.w3.org/Graphics/SVG/1.1/DTD/svg11.dtd"><svg width="100%" height="100%" viewBox="0 0 170 170" version="1.1" xmlns="http://www.w3.org/2000/svg" xmlns:xlink="http://www.w3.org/1999/xlink" xml:space="preserve" xmlns:serif="http://www.serif.com/" style="fill-rule:evenodd;clip-rule:evenodd;stroke-linecap:square;stroke-linejoin:round;stroke-miterlimit:1.5;"><g id="Gamma-PlayerCard" serif:id="Gamma PlayerCard"><path d="M14.087,0.697c-7.418,0.006 -13.436,6.033 -13.43,13.451l0.111,141.12c0.006,7.417 6.033,13.435 13.451,13.429l141.12,-0.111c7.417,-0.006 13.435,-6.033 13.429,-13.451l-0.111,-141.119c-0.006,-7.418 -6.033,-13.436 -13.45,-13.43l-141.12,0.111Z" style="fill:url(#_Linear1);stroke:#00191f;stroke-width:1px;"/><path id="Gamma" d="M19.437,70.908c-1.029,-4.276 -3.214,-13.165 -3.596,-14.162c-0.477,-1.244 -1.016,-0.29 -0.995,0.414c0.021,0.705 0.331,1.119 0.331,1.119c0,0 -1.208,-0.589 -0.911,-2.134c0.25,-1.307 1.113,-1.438 1.469,-1.039c0.213,0.238 0.361,0.762 0.417,0.956c0.076,0.264 2.167,8.754 3.514,14.141l-0.002,0.004c2.04,-6.1 4.938,-12.164 6.978,-15.242c1.567,-2.364 2.64,-1.726 3.2,-1.27c0.559,0.456 0.61,0.999 0.61,0.999c0,0 -0.348,-0.54 -0.961,-0.621c-0.576,-0.077 -1.556,0.271 -2.998,2.492c-2.57,3.956 -4.415,8.575 -6.56,14.705c0,0.001 0,0 0,0c0.392,1.561 0.689,2.728 0.803,3.138c0.904,3.255 -1.661,4.617 -2.153,1.568c-0.181,-1.121 0.187,-2.947 0.854,-5.068Zm-0.508,4.864c-0.065,-0.932 0.763,-3.798 0.763,-3.798c0.121,0.508 0.209,0.88 0.251,1.069c0.316,1.405 0.421,2.437 0.333,2.978c-0.185,1.139 -1.243,1.24 -1.347,-0.249Zm0.508,-4.864l0.001,0.003l-0.001,-0.004l0,0.001Z" style="stroke:#000;stroke-width:0.24px;stroke-linecap:round;"/><g id="Research"><g id="Caffeine"><g id="Cafeeine_base"><path d="M97.695,74.364l21.947,0.544l10.502,19.278l-11.444,18.735l-21.947,-0.544l-10.502,-19.278l11.444,-18.735Z" style="fill:none;stroke:#18001f;stroke-width:1.5px;stroke-linecap:round;"/><path d="M119.642,74.908l14.359,-23.453" style="fill:none;stroke:#18001f;stroke-width:1.5px;stroke-linecap:round;"/><path d="M64.656,97.093l21.558,-3.959l10.569,19.298l-15.026,15.886l-19.856,-9.48l2.755,-21.745Z" style="fill:none;stroke:#18001f;stroke-width:1.5px;stroke-linecap:round;"/><path d="M84.514,95.379l9.379,16.542" style="fill:none;stroke:#18001f;stroke-width:1.5px;stroke-linecap:round;"/><path d="M61.873,121.292l17.36,8.401" style="fill:none;stroke:#18001f;stroke-width:1.5px;stroke-linecap:round;"/><path d="M96.753,75.906l-6.848,-12.622" style="fill:none;stroke:#18001f;stroke-width:1.5px;stroke-linecap:round;"/><path d="M99.501,74.409l-6.87,-12.61" style="fill:none;stroke:#18001f;stroke-width:1.5px;stroke-linecap:round;"/><path d="M118.836,112.847l7.842,14.395" style="fill:none;stroke:#18001f;stroke-width:1.5px;stroke-linecap:round;"/><path d="M64.656,97.093l-11.91,-10.85" style="fill:none;stroke:#18001f;stroke-width:1.5px;stroke-linecap:round;"/><path d="M129.215,95.708l14.414,0.574" style="fill:none;stroke:#18001f;stroke-width:1.5px;stroke-linecap:round;"/><path d="M129.284,92.589l14.246,0.358" style="fill:none;stroke:#18001f;stroke-width:1.5px;stroke-linecap:round;"/></g><g id="Nitrogen"><path d="M116.511,108.902c2.218,-1.208 4.999,-0.388 6.208,1.83c1.208,2.217 0.388,4.999 -1.83,6.207c-2.217,1.209 -4.999,0.389 -6.207,-1.829c-1.208,-2.218 -0.389,-4.999 1.829,-6.208Z" style="fill:#f7f2e8;stroke:#18001f;stroke-width:1px;stroke-linecap:round;"/><g transform="matrix(0.878141,-0.478401,0.478401,0.878141,-31.0846,-6.24456)"><text x="72.944px" y="179.265px" style="font-family:'ArialMT', 'Arial', sans-serif;font-size:8.28px;stroke:#000;stroke-width:0.24px;stroke-linecap:butt;stroke-miterlimit:2;">N</text></g></g><g id="Oxygen"><path d="M86.879,54.51c2.218,-1.208 4.999,-0.388 6.208,1.83c1.208,2.217 0.388,4.999 -1.83,6.207c-2.218,1.209 -4.999,0.389 -6.207,-1.829c-1.209,-2.218 -0.389,-4.999 1.829,-6.208Z" style="fill:#f7f2e8;stroke:#18001f;stroke-width:1px;stroke-linecap:round;"/><g transform="matrix(0.878141,-0.478401,0.478401,0.878141,-32.9442,-49.4797)"><text x="52.63px" y="156.055px" style="font-family:'ArialMT', 'Arial', sans-serif;font-size:7.922px;stroke:#000;stroke-width:0.24px;stroke-linecap:butt;stroke-miterlimit:2;">O</text></g></g><g id="Oxygen1" serif:id="Oxygen"><path d="M144.523,90.633c2.218,-1.208 4.999,-0.389 6.208,1.829c1.208,2.218 0.388,4.999 -1.83,6.208c-2.218,1.208 -4.999,0.388 -6.207,-1.83c-1.209,-2.217 -0.389,-4.999 1.829,-6.207Z" style="fill:#f7f2e8;stroke:#18001f;stroke-width:1px;stroke-linecap:round;"/><g transform="matrix(0.878141,-0.478401,0.478401,0.878141,-43.2008,-17.5009)"><text x="110.274px" y="192.177px" style="font-family:'ArialMT', 'Arial', sans-serif;font-size:7.922px;stroke:#000;stroke-width:0.24px;stroke-linecap:butt;stroke-miterlimit:2;">O</text></g></g><g id="Nitrogen1" serif:id="Nitrogen"><path d="M117.46,70.885c2.218,-1.208 4.999,-0.388 6.208,1.83c1.208,2.218 0.388,4.999 -1.83,6.207c-2.217,1.209 -4.999,0.389 -6.207,-1.829c-1.209,-2.218 -0.389,-4.999 1.829,-6.208Z" style="fill:#f7f2e8;stroke:#18001f;stroke-width:1px;stroke-linecap:round;"/><g transform="matrix(0.878141,-0.478401,0.478401,0.878141,-12.7816,-10.4233)"><text x="73.893px" y="141.248px" style="font-family:'ArialMT', 'Arial', sans-serif;font-size:8.28px;stroke:#000;stroke-width:0.24px;stroke-linecap:butt;stroke-miterlimit:2;">N</text></g></g><g id="Nitrogen2" serif:id="Nitrogen"><path d="M62.466,93.075c2.218,-1.209 5,-0.389 6.208,1.829c1.208,2.218 0.389,4.999 -1.829,6.207c-2.218,1.209 -5,0.389 -6.208,-1.829c-1.208,-2.218 -0.388,-4.999 1.829,-6.207Z" style="fill:#f7f2e8;stroke:#18001f;stroke-width:1px;stroke-linecap:round;"/><g transform="matrix(0.878141,-0.478401,0.478401,0.878141,-30.0983,-34.0283)"><text x="18.899px" y="163.437px" style="font-family:'ArialMT', 'Arial', sans-serif;font-size:8.28px;stroke:#000;stroke-width:0.24px;stroke-linecap:butt;stroke-miterlimit:2;">N</text></g></g><g id="Nitrogen3" serif:id="Nitrogen"><path d="M79.498,124.337c2.218,-1.208 4.999,-0.388 6.208,1.83c1.208,2.217 0.388,4.999 -1.83,6.207c-2.217,1.209 -4.999,0.389 -6.207,-1.829c-1.208,-2.218 -0.389,-4.999 1.829,-6.208Z" style="fill:#f7f2e8;stroke:#18001f;stroke-width:1px;stroke-linecap:round;"/><g transform="matrix(0.878141,-0.478401,0.478401,0.878141,-42.9791,-22.0707)"><text x="35.931px" y="194.7px" style="font-family:'ArialMT', 'Arial', sans-serif;font-size:8.28px;stroke:#000;stroke-width:0.24px;stroke-linecap:butt;stroke-miterlimit:2;">N</text></g></g><g><path d="M139.867,50.596c-0.406,0.77 -1.035,1.433 -1.856,1.88c-2.218,1.209 -5,0.389 -6.208,-1.829c-1.208,-2.218 -0.389,-4.999 1.829,-6.208c1.815,-0.988 4.007,-0.619 5.406,0.762c0.224,-0.224 0.483,-0.42 0.776,-0.58c1.641,-0.894 3.699,-0.287 4.593,1.354c0.894,1.641 0.287,3.699 -1.354,4.592c-1.028,0.561 -2.219,0.532 -3.186,0.029Z" style="fill:#f7f2e8;stroke:#18001f;stroke-width:1px;stroke-linecap:round;"/><g transform="matrix(0.878141,-0.478401,0.478401,0.878141,-9.39905,19.8252)"><text x="117.204px" y="97.892px" style="font-family:'ArialMT', 'Arial', sans-serif;font-size:4.743px;stroke:#000;stroke-width:0.24px;stroke-linecap:butt;stroke-miterlimit:2;">H</text></g><g transform="matrix(0.878141,-0.478401,0.478401,0.878141,-4.24472,-60.3165)"><text x="76.934px" y="166.951px" style="font-family:'ArialMT', 'Arial', sans-serif;font-size:2.748px;stroke:#000;stroke-width:0.24px;stroke-linecap:butt;stroke-miterlimit:2;">3</text></g><g transform="matrix(0.878141,-0.478401,0.478401,0.878141,-22.4289,-28.3401)"><text x="99.383px" y="145.984px" style="font-family:'ArialMT', 'Arial', sans-serif;font-size:7.922px;stroke:#000;stroke-width:0.24px;stroke-linecap:butt;stroke-miterlimit:2;">C</text></g></g><g><path d="M55.723,85.733c-0.406,0.77 -1.035,1.433 -1.857,1.881c-2.217,1.208 -4.999,0.388 -6.207,-1.829c-1.208,-2.218 -0.389,-5 1.829,-6.208c1.815,-0.989 4.007,-0.62 5.405,0.762c0.225,-0.225 0.484,-0.421 0.777,-0.58c1.641,-0.894 3.699,-0.288 4.593,1.353c0.894,1.641 0.287,3.699 -1.354,4.593c-1.028,0.56 -2.219,0.531 -3.186,0.028Z" style="fill:#f7f2e8;stroke:#18001f;stroke-width:1px;stroke-linecap:round;"/><g transform="matrix(0.878141,-0.478401,0.478401,0.878141,-36.4626,-16.1477)"><text x="33.06px" y="133.029px" style="font-family:'ArialMT', 'Arial', sans-serif;font-size:4.743px;stroke:#000;stroke-width:0.24px;stroke-linecap:butt;stroke-miterlimit:2;">H</text></g><g transform="matrix(0.878141,-0.478401,0.478401,0.878141,-31.3082,-96.2894)"><text x="-7.21px" y="202.088px" style="font-family:'ArialMT', 'Arial', sans-serif;font-size:2.748px;stroke:#000;stroke-width:0.24px;stroke-linecap:butt;stroke-miterlimit:2;">3</text></g><g transform="matrix(0.878141,-0.478401,0.478401,0.878141,-49.4925,-64.313)"><text x="15.239px" y="181.121px" style="font-family:'ArialMT', 'Arial', sans-serif;font-size:7.922px;stroke:#000;stroke-width:0.24px;stroke-linecap:butt;stroke-miterlimit:2;">C</text></g></g><g><path d="M132.024,131.766c-0.406,0.77 -1.036,1.433 -1.857,1.88c-2.218,1.209 -4.999,0.389 -6.207,-1.829c-1.209,-2.218 -0.389,-4.999 1.829,-6.208c1.814,-0.988 4.006,-0.619 5.405,0.762c0.224,-0.224 0.484,-0.42 0.777,-0.58c1.641,-0.894 3.699,-0.287 4.592,1.354c0.894,1.641 0.288,3.699 -1.353,4.593c-1.028,0.56 -2.22,0.531 -3.186,0.028Z" style="fill:#f7f2e8;stroke:#18001f;stroke-width:1px;stroke-linecap:round;"/><g transform="matrix(0.878141,-0.478401,0.478401,0.878141,-49.1867,25.9641)"><text x="109.361px" y="179.062px" style="font-family:'ArialMT', 'Arial', sans-serif;font-size:4.743px;stroke:#000;stroke-width:0.24px;stroke-linecap:butt;stroke-miterlimit:2;">H</text></g><g transform="matrix(0.878141,-0.478401,0.478401,0.878141,-44.0323,-54.1775)"><text x="69.091px" y="248.121px" style="font-family:'ArialMT', 'Arial', sans-serif;font-size:2.748px;stroke:#000;stroke-width:0.24px;stroke-linecap:butt;stroke-miterlimit:2;">3</text></g><g transform="matrix(0.878141,-0.478401,0.478401,0.878141,-62.2166,-22.2011)"><text x="91.54px" y="227.154px" style="font-family:'ArialMT', 'Arial', sans-serif;font-size:7.922px;stroke:#000;stroke-width:0.24px;stroke-linecap:butt;stroke-miterlimit:2;">C</text></g></g></g><g id="Erlenmeyer"><path d="M106.569,99.616l-9.313,-0.018c-2.895,-0.138 -2.905,-3.875 -0.085,-3.752l16.151,-0.063c2.472,0 2.353,3.73 0.063,3.73l-1.497,0.103l0.155,12.703l12.703,30.208c1.508,4.858 -0.504,7.076 -3.408,8.624c-10.268,3.145 -20.695,3.289 -31.293,0.155c-3.201,-1.731 -5.483,-3.8 -4.493,-7.075l12.91,-31.705l0.132,-12.926" style="fill:#d4f9ff;stroke:#18001f;stroke-width:1.35px;stroke-linejoin:miter;"/><path d="M94.484,131.444c2.993,-0.317 7.235,0.659 9.627,1.372c3.057,0.911 10.328,2.759 12.187,-0.05l3.411,8.28c1.624,3.535 2.782,5.781 -2.086,7.313c-6.608,1.395 -16.573,1.633 -23.834,0.419c-4.831,-0.866 -5.355,-3.342 -3.461,-7.652l4.156,-9.682" style="fill:url(#_Linear2);"/><circle cx="99.814" cy="137.664" r="2.479" style="fill:url(#_Radial3);"/><circle cx="111.196" cy="141.538" r="2.175" style="fill:url(#_Radial4);"/><circle cx="104.388" cy="146.019" r="1.395" style="fill:url(#_Linear5);"/><circle cx="108.155" cy="127.152" r="2.386" style="fill:url(#_Linear6);stroke:#18001f;stroke-width:0.97px;stroke-linejoin:miter;"/><circle cx="102.336" cy="119.482" r="1.672" style="fill:url(#_Linear7);stroke:#18001f;stroke-width:1px;stroke-linejoin:miter;"/></g></g></g><defs><linearGradient id="_Linear1" x1="0" y1="0" x2="1" y2="0" gradientUnits="userSpaceOnUse" gradientTransform="matrix(-0.132106,-168,168,-0.132106,84.7788,168.642)"><stop offset="0" style="stop-color:#18001f;stop-opacity:1"/><stop offset="0.09" style="stop-color:#2f1237;stop-opacity:1"/><stop offset="0.2" style="stop-color:#45234e;stop-opacity:1"/><stop offset="0.5" style="stop-color:#4f2a58;stop-opacity:1"/><stop offset="0.8" style="stop-color:#45234e;stop-opacity:1"/><stop offset="0.91" style="stop-color:#2f1237;stop-opacity:1"/><stop offset="1" style="stop-color:#18001f;stop-opacity:1"/></linearGradient><linearGradient id="_Linear2" x1="0" y1="0" x2="1" y2="0" gradientUnits="userSpaceOnUse" gradientTransform="matrix(31.8051,0,0,18.1799,89.3084,140.472)"><stop offset="0" style="stop-color:#00191f;stop-opacity:1"/><stop offset="0.09" style="stop-color:#123037;stop-opacity:1"/><stop offset="0.2" style="stop-color:#23464e;stop-opacity:1"/><stop offset="0.5" style="stop-color:#2a5058;stop-opacity:1"/><stop offset="0.8" style="stop-color:#23464e;stop-opacity:1"/><stop offset="0.91" style="stop-color:#123037;stop-opacity:1"/><stop offset="1" style="stop-color:#00191f;stop-opacity:1"/></linearGradient><radialGradient id="_Radial3" cx="0" cy="0" r="1" gradientUnits="userSpaceOnUse" gradientTransform="matrix(4.95729,0,0,4.95729,97.3353,137.664)"><stop offset="0" style="stop-color:#fff;stop-opacity:1"/><stop offset="0.55" style="stop-color:#f7f7f7;stop-opacity:1"/><stop offset="1" style="stop-color:#d9d9d9;stop-opacity:1"/></radialGradient><radialGradient id="_Radial4" cx="0" cy="0" r="1" gradientUnits="userSpaceOnUse" gradientTransform="matrix(2.1746,0,0,2.1746,111.196,141.538)"><stop offset="0" style="stop-color:#fff;stop-opacity:1"/><stop offset="0.55" style="stop-color:#f7f7f7;stop-opacity:1"/><stop offset="1" style="stop-color:#d9d9d9;stop-opacity:1"/></radialGradient><linearGradient id="_Linear5" x1="0" y1="0" x2="1" y2="0" gradientUnits="userSpaceOnUse" gradientTransform="matrix(2.7893,0,0,2.7893,102.993,146.019)"><stop offset="0" style="stop-color:#7c715a;stop-opacity:1"/><stop offset="0.09" style="stop-color:#afa795;stop-opacity:1"/><stop offset="0.2" style="stop-color:#e1dbcf;stop-opacity:1"/><stop offset="0.5" style="stop-color:#f7f2e8;stop-opacity:1"/><stop offset="0.8" style="stop-color:#e1dbcf;stop-opacity:1"/><stop offset="0.91" style="stop-color:#afa695;stop-opacity:1"/><stop offset="1" style="stop-color:#7c7059;stop-opacity:1"/></linearGradient><linearGradient id="_Linear6" x1="0" y1="0" x2="1" y2="0" gradientUnits="userSpaceOnUse" gradientTransform="matrix(4.77222,0,0,4.77222,105.769,127.152)"><stop offset="0" style="stop-color:#7c715a;stop-opacity:1"/><stop offset="0.09" style="stop-color:#afa795;stop-opacity:1"/><stop offset="0.2" style="stop-color:#e1dbcf;stop-opacity:1"/><stop offset="0.5" style="stop-color:#f7f2e8;stop-opacity:1"/><stop offset="0.8" style="stop-color:#e1dbcf;stop-opacity:1"/><stop offset="0.91" style="stop-color:#afa695;stop-opacity:1"/><stop offset="1" style="stop-color:#7c7059;stop-opacity:1"/></linearGradient><linearGradient id="_Linear7" x1="0" y1="0" x2="1" y2="0" gradientUnits="userSpaceOnUse" gradientTransform="matrix(3.34452,0,0,3.34452,100.664,119.482)"><stop offset="0" style="stop-color:#7c715a;stop-opacity:1"/><stop offset="0.09" style="stop-color:#afa795;stop-opacity:1"/><stop offset="0.2" style="stop-color:#e1dbcf;stop-opacity:1"/><stop offset="0.5" style="stop-color:#f7f2e8;stop-opacity:1"/><stop offset="0.8" style="stop-color:#e1dbcf;stop-opacity:1"/><stop offset="0.91" style="stop-color:#afa695;stop-opacity:1"/><stop offset="1" style="stop-color:#7c7059;stop-opacity:1"/></linearGradient></defs></svg>