<?xml version="1.0" encoding="UTF-8" standalone="no"?><!DOCTYPE svg PUBLIC "-//W3C//DTD SVG 1.1//EN" "http://www.w3.org/Graphics/SVG/1.1/DTD/svg11.dtd"><svg width="100%" height="100%" viewBox="0 0 76 85" version="1.1" xmlns="http://www.w3.org/2000/svg" xmlns:xlink="http://www.w3.org/1999/xlink" xml:space="preserve" xmlns:serif="http://www.serif.com/" style="fill-rule:evenodd;clip-rule:evenodd;stroke-linecap:round;stroke-linejoin:round;stroke-miterlimit:1.5;"><g id="Gamma-BetaDisease" serif:id="Gamma BetaDisease"><circle cx="37.921" cy="46.313" r="33.792" style="fill:url(#_Radial1);"/><path d="M38.043,8.521l0.122,0.001l0.121,0.001l0.122,0.001l0.122,0.002l0.12,0.002l0.123,0.003l0.122,0.003l0.119,0.003l0.122,0.003l0.121,0.004l0.122,0.005l0.121,0.005l0.119,0.005l0.121,0.005l0.121,0.006l0.122,0.007l0.121,0.006l0.118,0.007l0.121,0.008l0.121,0.008l0.118,0.008l0.121,0.008l0.12,0.009l0.12,0.01l0.12,0.009l0.119,0.01l0.119,0.011l0.12,0.011l0.119,0.011l0.119,0.011l0.119,0.012l0.12,0.013l0.118,0.012l0.119,0.013l0.119,0.014l0.118,0.013l0.118,0.014l0.119,0.015l0.118,0.015l0.118,0.015l0.119,0.016l0.117,0.016l0.118,0.016l0.118,0.017l0.117,0.017l0.117,0.017l0.119,0.018l0.116,0.018l0.117,0.018l0.118,0.019l0.116,0.019l0.117,0.02l0.117,0.02l0.115,0.02l0.117,0.021l0.118,0.021l0.116,0.021l0.115,0.022l0.116,0.022l0.115,0.022l0.116,0.023l0.116,0.023l0.116,0.024l0.115,0.024l0.115,0.024l0.115,0.024l0.114,0.025l0.115,0.025l0.114,0.025l0.116,0.026l0.115,0.027l0.113,0.026l0.115,0.027l0.113,0.028l0.115,0.027l0.112,0.028l0.113,0.028l0.116,0.029l0.113,0.029l0.112,0.029l0.114,0.03l0.113,0.03l0.112,0.03l0.113,0.031l0.113,0.031l0.112,0.032l0.112,0.031l0.112,0.032l0.112,0.033l0.112,0.033l0.112,0.033l0.111,0.033l0.112,0.034l0.111,0.034l0.11,0.034l0.112,0.035l0.111,0.035l0.11,0.035l0.112,0.036l0.108,0.036l0.111,0.036l0.111,0.038l0.109,0.036l0.11,0.038l0.109,0.037l0.11,0.038l0.109,0.039l0.109,0.038l0.109,0.039l0.11,0.04l0.109,0.04l0.107,0.039l0.108,0.04l0.11,0.041l0.107,0.041l0.107,0.041l0.109,0.042l0.107,0.042l0.108,0.042l0.108,0.043l0.106,0.042l0.107,0.043l0.106,0.044l0.108,0.044l0.107,0.044l0.105,0.044l0.105,0.044l0.106,0.045l0.107,0.046l0.105,0.046l0.106,0.046l0.106,0.046l0.104,0.047l0.105,0.046l0.105,0.048l0.104,0.047l0.106,0.048l0.103,0.048l0.103,0.048l0.104,0.049l0.106,0.05l0.102,0.049l0.103,0.049l0.104,0.051l0.103,0.05l0.102,0.05l0.103,0.051l0.103,0.051l0.102,0.052l0.102,0.051l0.103,0.053l0.101,0.052l0.101,0.052l0.103,0.054l0.101,0.053l0.1,0.053l0.101,0.054l0.102,0.055l0.1,0.054l0.099,0.054l0.101,0.055l0.1,0.056l0.099,0.055l0.1,0.056l0.1,0.057l0.099,0.056l0.099,0.056l0.098,0.057l0.1,0.058l0.099,0.059l0.097,0.057l0.097,0.057l0.099,0.059l0.099,0.06l0.097,0.058l0.096,0.059l0.098,0.06l0.096,0.06l0.098,0.061l0.097,0.06l0.094,0.06l0.096,0.061l0.099,0.063l0.095,0.061l0.094,0.061l0.095,0.062l0.096,0.063l0.095,0.063l0.094,0.062l0.095,0.064l0.095,0.064l0.094,0.064l0.094,0.063l0.093,0.065l0.094,0.064l0.093,0.065l0.093,0.065l0.093,0.066l0.093,0.066l0.092,0.066l0.092,0.066l0.093,0.066l0.091,0.067l0.091,0.067l0.093,0.068l0.09,0.067l0.092,0.068l0.09,0.068l0.09,0.068l0.092,0.069l0.09,0.069l0.089,0.069l0.091,0.07l0.089,0.07l0.089,0.069l0.089,0.07l0.088,0.071l0.09,0.071l0.089,0.072l0.088,0.071l0.088,0.071l0.086,0.071l0.088,0.072l0.088,0.073l0.088,0.073l0.086,0.073l0.087,0.072l0.087,0.074l0.085,0.073l0.086,0.074l0.086,0.075l0.085,0.073l0.085,0.074l0.086,0.076l0.086,0.076l0.083,0.074l0.085,0.076l0.084,0.076l0.084,0.076l0.085,0.078l0.083,0.075l0.082,0.076l0.083,0.077l0.083,0.078l0.083,0.078l0.082,0.078l0.083,0.078l0.081,0.077l0.082,0.079l0.082,0.08l0.08,0.078l0.082,0.08l0.08,0.079l0.08,0.079l0.081,0.081l0.08,0.08l0.08,0.08l0.079,0.081l0.079,0.081l0.08,0.081l0.078,0.082l0.078,0.081l0.079,0.082l0.079,0.083l0.078,0.082l0.076,0.082l0.078,0.083l0.077,0.083l0.076,0.083l0.077,0.083l0.077,0.084l0.076,0.085l0.076,0.084l0.076,0.085l0.074,0.083l0.076,0.086l0.075,0.085l0.074,0.085l0.074,0.086l0.074,0.085l0.074,0.086l0.074,0.086l0.073,0.087l0.073,0.086l0.073,0.087l0.073,0.088l0.072,0.087l0.072,0.088l0.072,0.088l0.072,0.088l0.07,0.087l0.071,0.088l0.072,0.091l0.07,0.088l0.07,0.088l0.07,0.09l0.07,0.09l0.07,0.09l0.068,0.088l0.069,0.091l0.07,0.091l0.068,0.09l0.068,0.091l0.068,0.092l0.067,0.091l0.067,0.091l0.067,0.091l0.067,0.092l0.066,0.092l0.066,0.092l0.068,0.094l0.065,0.092l0.065,0.093l0.065,0.093l0.065,0.093l0.066,0.094l0.063,0.092l0.063,0.094l0.065,0.095l0.064,0.094l0.064,0.096l0.062,0.094l0.063,0.095l0.062,0.095l0.062,0.094l0.062,0.097l0.062,0.095l0.061,0.096l0.062,0.097l0.06,0.096l0.06,0.096l0.06,0.096l0.06,0.097l0.061,0.1l0.059,0.096l0.057,0.095l0.06,0.099l0.059,0.099l0.058,0.098l0.057,0.097l0.059,0.1l0.058,0.1l0.055,0.096l0.058,0.099l0.057,0.101l0.054,0.097l0.057,0.1l0.056,0.101l0.056,0.101l0.054,0.099l0.055,0.099l0.054,0.102l0.054,0.1l0.055,0.101l0.053,0.101l0.052,0.1l0.055,0.104l0.052,0.101l0.052,0.101l0.052,0.102l0.052,0.103l0.052,0.103l0.051,0.101l0.05,0.102l0.051,0.103l0.05,0.104l0.05,0.102l0.05,0.104l0.05,0.105l0.048,0.102l0.049,0.105l0.049,0.104l0.047,0.103l0.048,0.105l0.048,0.105l0.047,0.104l0.047,0.106l0.047,0.105l0.045,0.103l0.047,0.107l0.045,0.106l0.046,0.106l0.045,0.106l0.045,0.107l0.044,0.104l0.044,0.107l0.044,0.107l0.043,0.106l0.044,0.109l0.042,0.105l0.043,0.108l0.042,0.107l0.042,0.108l0.042,0.108l0.04,0.106l0.042,0.11l0.041,0.109l0.039,0.107l0.04,0.108l0.04,0.109l0.039,0.109l0.039,0.109l0.039,0.11l0.038,0.109l0.038,0.109l0.038,0.11l0.037,0.109l0.037,0.11l0.037,0.111l0.037,0.11l0.036,0.11l0.035,0.111l0.035,0.108l0.036,0.113l0.035,0.113l0.034,0.109l0.034,0.111l0.033,0.111l0.034,0.111l0.033,0.114l0.033,0.111l0.032,0.112l0.032,0.112l0.032,0.112l0.031,0.112l0.031,0.112l0.031,0.112l0.031,0.115l0.029,0.112l0.03,0.113l0.029,0.113l0.029,0.113l0.029,0.115l0.029,0.113l0.027,0.113l0.028,0.113l0.027,0.116l0.027,0.114l0.027,0.113l0.026,0.116l0.026,0.114l0.025,0.114l0.025,0.114l0.025,0.115l0.025,0.116l0.025,0.116l0.023,0.115l0.023,0.113l0.024,0.117l0.022,0.117l0.023,0.115l0.022,0.117l0.021,0.115l0.022,0.115l0.021,0.118l0.02,0.115l0.02,0.116l0.021,0.118l0.019,0.118l0.019,0.115l0.019,0.116l0.019,0.119l0.018,0.116l0.018,0.118l0.017,0.119l0.017,0.114l0.017,0.119l0.016,0.119l0.016,0.116l0.016,0.119l0.015,0.119l0.015,0.117l0.014,0.12l0.014,0.119l0.014,0.115l0.013,0.12l0.013,0.119l0.013,0.12l0.012,0.12l0.012,0.117l0.012,0.118l0.011,0.12l0.011,0.12l0.01,0.118l0.01,0.121l0.01,0.12l0.009,0.12l0.009,0.121l0.009,0.118l0.008,0.119l0.008,0.123l0.007,0.12l0.007,0.117l0.007,0.121l0.006,0.123l0.006,0.121l0.006,0.119l0.005,0.119l0.005,0.124l0.004,0.121l0.004,0.12l0.004,0.121l0.003,0.122l0.003,0.121l0.003,0.122l0.002,0.12l0.001,0.122l0.002,0.124l0.001,0.119l0,0.123l0,0.122l0,0.122l0,0.122l-0.001,0.12l-0.002,0.124l-0.001,0.122l-0.002,0.119l-0.003,0.122l-0.003,0.122l-0.003,0.121l-0.004,0.122l-0.004,0.119l-0.004,0.121l-0.005,0.124l-0.005,0.119l-0.006,0.119l-0.006,0.121l-0.006,0.123l-0.007,0.121l-0.007,0.117l-0.007,0.121l-0.008,0.123l-0.008,0.118l-0.009,0.118l-0.009,0.121l-0.009,0.121l-0.01,0.12l-0.01,0.12l-0.01,0.118l-0.011,0.12l-0.011,0.12l-0.012,0.118l-0.012,0.118l-0.012,0.12l-0.013,0.119l-0.013,0.12l-0.013,0.119l-0.014,0.115l-0.014,0.12l-0.014,0.119l-0.015,0.117l-0.015,0.119l-0.016,0.119l-0.016,0.117l-0.016,0.119l-0.017,0.118l-0.017,0.115l-0.017,0.118l-0.018,0.118l-0.018,0.116l-0.019,0.119l-0.019,0.116l-0.019,0.116l-0.019,0.118l-0.021,0.118l-0.02,0.115l-0.02,0.116l-0.021,0.117l-0.021,0.115l-0.022,0.116l-0.022,0.117l-0.023,0.115l-0.022,0.117l-0.024,0.117l-0.023,0.112l-0.023,0.115l-0.025,0.116l-0.025,0.117l-0.025,0.114l-0.025,0.114l-0.025,0.114l-0.026,0.114l-0.026,0.116l-0.027,0.114l-0.027,0.113l-0.027,0.116l-0.028,0.113l-0.027,0.113l-0.029,0.114l-0.029,0.115l-0.029,0.113l-0.029,0.112l-0.03,0.113l-0.029,0.113l-0.031,0.114l-0.031,0.112l-0.031,0.112l-0.031,0.113l-0.032,0.112l-0.032,0.111l-0.032,0.112l-0.033,0.112l-0.033,0.113l-0.034,0.112l-0.033,0.111l-0.034,0.111l-0.034,0.109l-0.035,0.113l-0.036,0.112l-0.035,0.109l-0.035,0.11l-0.036,0.11l-0.037,0.111l-0.037,0.11l-0.037,0.11l-0.037,0.109l-0.038,0.11l-0.038,0.11l-0.038,0.109l-0.039,0.109l-0.039,0.109l-0.039,0.109l-0.04,0.109l-0.04,0.109l-0.039,0.106l-0.041,0.109l-0.042,0.11l-0.04,0.106l-0.042,0.108l-0.042,0.108l-0.042,0.107l-0.043,0.108l-0.042,0.106l-0.044,0.109l-0.043,0.105l-0.044,0.107l-0.044,0.107l-0.044,0.104l-0.045,0.107l-0.045,0.107l-0.046,0.105l-0.045,0.107l-0.047,0.106l-0.045,0.104l-0.047,0.105l-0.047,0.105l-0.047,0.104l-0.048,0.105l-0.048,0.105l-0.047,0.103l-0.049,0.105l-0.049,0.104l-0.048,0.103l-0.05,0.104l-0.05,0.104l-0.05,0.102l-0.05,0.104l-0.051,0.104l-0.051,0.101l-0.05,0.102l-0.052,0.102l-0.052,0.103l-0.052,0.103l-0.052,0.101l-0.052,0.101l-0.055,0.103l-0.052,0.1l-0.053,0.101l-0.055,0.102l-0.053,0.099l-0.055,0.102l-0.055,0.1l-0.054,0.099l-0.056,0.1l-0.056,0.101l-0.057,0.101l-0.054,0.096l-0.057,0.101l-0.058,0.1l-0.055,0.096l-0.058,0.1l-0.058,0.099l-0.058,0.098l-0.058,0.097l-0.059,0.099l-0.06,0.099l-0.057,0.095l-0.059,0.097l-0.061,0.1l-0.06,0.096l-0.06,0.096l-0.06,0.096l-0.06,0.096l-0.062,0.097l-0.061,0.096l-0.062,0.095l-0.062,0.097l-0.062,0.095l-0.062,0.094l-0.063,0.095l-0.062,0.094l-0.064,0.096l-0.064,0.094l-0.065,0.096l-0.063,0.093l-0.063,0.092l-0.066,0.095l-0.065,0.092l-0.065,0.094l-0.065,0.092l-0.065,0.093l-0.067,0.093l-0.067,0.093l-0.066,0.092l-0.066,0.091l-0.067,0.091l-0.068,0.092l-0.067,0.091l-0.068,0.091l-0.068,0.091l-0.068,0.09l-0.07,0.092l-0.069,0.09l-0.068,0.089l-0.07,0.089l-0.07,0.091l-0.07,0.089l-0.07,0.088l-0.07,0.089l-0.072,0.09l-0.071,0.089l-0.07,0.086l-0.072,0.089l-0.072,0.088l-0.072,0.087l-0.072,0.087l-0.073,0.088l-0.072,0.086l-0.074,0.087l-0.074,0.088l-0.073,0.086l-0.074,0.085l-0.074,0.086l-0.074,0.085l-0.074,0.085l-0.075,0.086l-0.076,0.085l-0.074,0.084l-0.077,0.085l-0.075,0.084l-0.076,0.084l-0.077,0.084l-0.077,0.084l-0.076,0.083l-0.077,0.082l-0.078,0.083l-0.076,0.082l-0.078,0.083l-0.079,0.083l-0.079,0.082l-0.078,0.08l-0.078,0.082l-0.08,0.081l-0.079,0.081l-0.079,0.081l-0.08,0.081l-0.08,0.079l-0.081,0.081l-0.08,0.08l-0.08,0.078l-0.082,0.08l-0.08,0.079l-0.082,0.079l-0.082,0.079l-0.082,0.078l-0.082,0.078l-0.082,0.077l-0.083,0.079l-0.083,0.077l-0.082,0.076l-0.083,0.077l-0.083,0.076l-0.085,0.078l-0.084,0.076l-0.083,0.075l-0.086,0.076l-0.084,0.075l-0.085,0.075l-0.086,0.076l-0.085,0.074l-0.085,0.074l-0.086,0.075l-0.086,0.073l-0.085,0.073l-0.087,0.074l-0.087,0.073l-0.086,0.072l-0.088,0.074l-0.088,0.073l-0.087,0.071l-0.087,0.071l-0.089,0.072l-0.087,0.071l-0.089,0.071l-0.09,0.072l-0.088,0.07l-0.089,0.07l-0.089,0.07l-0.089,0.069l-0.091,0.07l-0.089,0.069l-0.09,0.069l-0.091,0.069l-0.091,0.068l-0.091,0.069l-0.091,0.067l-0.09,0.068l-0.093,0.067l-0.091,0.067l-0.091,0.067l-0.093,0.067l-0.092,0.066l-0.092,0.065l-0.093,0.066l-0.093,0.066l-0.093,0.065l-0.094,0.065l-0.092,0.064l-0.094,0.065l-0.095,0.064l-0.093,0.064l-0.095,0.064l-0.095,0.063l-0.094,0.063l-0.095,0.062l-0.096,0.063l-0.094,0.062l-0.095,0.061l-0.096,0.062l-0.098,0.062l-0.095,0.061l-0.095,0.06l-0.098,0.061l-0.097,0.061l-0.096,0.059l-0.098,0.06l-0.096,0.059l-0.097,0.059l-0.099,0.059l-0.099,0.059l-0.097,0.058l-0.097,0.057l-0.099,0.058l-0.099,0.058l-0.099,0.057l-0.1,0.057l-0.098,0.056l-0.1,0.056l-0.1,0.056l-0.099,0.055l-0.099,0.055l-0.101,0.056l-0.101,0.055l-0.099,0.054l-0.102,0.055l-0.101,0.053l-0.1,0.053l-0.101,0.054l-0.103,0.053l-0.101,0.052l-0.101,0.053l-0.103,0.052l-0.102,0.052l-0.102,0.051l-0.103,0.051l-0.103,0.051l-0.102,0.05l-0.103,0.051l-0.104,0.05l-0.103,0.049l-0.102,0.049l-0.105,0.05l-0.105,0.049l-0.104,0.049l-0.102,0.047l-0.106,0.048l-0.104,0.048l-0.104,0.046l-0.106,0.048l-0.105,0.046l-0.105,0.047l-0.106,0.046l-0.105,0.045l-0.107,0.046l-0.106,0.045l-0.104,0.044l-0.106,0.044l-0.107,0.045l-0.108,0.044l-0.107,0.043l-0.106,0.043l-0.106,0.043l-0.108,0.042l-0.108,0.043l-0.107,0.042l-0.109,0.041l-0.107,0.041l-0.107,0.041l-0.11,0.041l-0.107,0.04l-0.108,0.04l-0.11,0.04l-0.109,0.039l-0.109,0.039l-0.109,0.039l-0.109,0.038l-0.11,0.038l-0.108,0.037l-0.111,0.038l-0.11,0.037l-0.11,0.037l-0.111,0.036l-0.108,0.036l-0.112,0.036l-0.11,0.035l-0.111,0.035l-0.112,0.035l-0.11,0.034l-0.111,0.034l-0.112,0.034l-0.111,0.034l-0.112,0.033l-0.112,0.032l-0.111,0.033l-0.113,0.032l-0.112,0.032l-0.112,0.031l-0.114,0.031l-0.112,0.031l-0.112,0.03l-0.113,0.03l-0.113,0.03l-0.113,0.029l-0.114,0.029l-0.115,0.029l-0.113,0.028l-0.112,0.028l-0.115,0.028l-0.113,0.027l-0.115,0.027l-0.113,0.026l-0.114,0.027l-0.117,0.026l-0.114,0.025l-0.114,0.025l-0.116,0.025l-0.114,0.025l-0.115,0.024l-0.116,0.024l-0.115,0.023l-0.115,0.023l-0.117,0.023l-0.116,0.023l-0.115,0.022l-0.115,0.021l-0.116,0.021l-0.118,0.022l-0.117,0.02l-0.115,0.02l-0.117,0.02l-0.117,0.02l-0.116,0.019l-0.117,0.019l-0.118,0.018l-0.117,0.019l-0.118,0.017l-0.117,0.018l-0.117,0.017l-0.117,0.016l-0.119,0.017l-0.118,0.016l-0.118,0.015l-0.118,0.015l-0.118,0.015l-0.119,0.015l-0.118,0.014l-0.118,0.014l-0.118,0.013l-0.12,0.013l-0.119,0.013l-0.119,0.012l-0.119,0.012l-0.119,0.011l-0.119,0.012l-0.12,0.011l-0.119,0.01l-0.119,0.01l-0.12,0.01l-0.12,0.009l-0.12,0.009l-0.12,0.008l-0.119,0.009l-0.121,0.008l-0.12,0.007l-0.121,0.007l-0.121,0.007l-0.12,0.006l-0.121,0.006l-0.12,0.005l-0.12,0.006l-0.122,0.005l-0.121,0.004l-0.12,0.004l-0.121,0.004l-0.122,0.003l-0.122,0.003l-0.122,0.002l-0.12,0.002l-0.122,0.002l-0.122,0.001l-0.121,0.001l-0.122,0.001l-0.122,0l-0.122,0l-0.122,-0.001l-0.121,-0.001l-0.122,-0.001l-0.122,-0.002l-0.121,-0.002l-0.121,-0.002l-0.122,-0.003l-0.122,-0.003l-0.121,-0.004l-0.121,-0.004l-0.12,-0.004l-0.122,-0.005l-0.12,-0.006l-0.121,-0.005l-0.121,-0.006l-0.12,-0.006l-0.121,-0.007l-0.121,-0.007l-0.119,-0.007l-0.121,-0.008l-0.12,-0.009l-0.119,-0.008l-0.121,-0.009l-0.119,-0.009l-0.12,-0.01l-0.119,-0.01l-0.119,-0.01l-0.12,-0.011l-0.12,-0.012l-0.118,-0.011l-0.119,-0.012l-0.119,-0.012l-0.12,-0.013l-0.119,-0.013l-0.119,-0.013l-0.117,-0.014l-0.118,-0.014l-0.119,-0.015l-0.119,-0.015l-0.118,-0.015l-0.118,-0.015l-0.117,-0.016l-0.119,-0.017l-0.118,-0.016l-0.116,-0.017l-0.117,-0.018l-0.118,-0.017l-0.117,-0.019l-0.118,-0.018l-0.117,-0.019l-0.116,-0.019l-0.117,-0.02l-0.117,-0.02l-0.115,-0.02l-0.117,-0.02l-0.118,-0.022l-0.116,-0.021l-0.115,-0.021l-0.115,-0.022l-0.116,-0.023l-0.117,-0.023l-0.115,-0.023l-0.115,-0.023l-0.116,-0.024l-0.115,-0.024l-0.114,-0.025l-0.117,-0.025l-0.113,-0.025l-0.114,-0.025l-0.117,-0.026l-0.114,-0.027l-0.113,-0.026l-0.115,-0.027l-0.113,-0.027l-0.114,-0.028l-0.114,-0.028l-0.113,-0.028l-0.114,-0.029l-0.114,-0.029l-0.113,-0.029l-0.113,-0.03l-0.113,-0.03l-0.112,-0.03l-0.112,-0.031l-0.114,-0.031l-0.112,-0.031l-0.112,-0.032l-0.113,-0.032l-0.111,-0.033l-0.112,-0.032l-0.112,-0.033l-0.111,-0.034l-0.112,-0.034l-0.111,-0.034l-0.11,-0.034l-0.112,-0.035l-0.111,-0.035l-0.11,-0.035l-0.111,-0.036l-0.11,-0.036l-0.11,-0.036l-0.111,-0.037l-0.109,-0.037l-0.11,-0.037l-0.109,-0.038l-0.11,-0.038l-0.109,-0.038l-0.109,-0.039l-0.109,-0.039l-0.109,-0.039l-0.109,-0.04l-0.109,-0.04l-0.108,-0.04l-0.109,-0.041l-0.108,-0.041l-0.106,-0.041l-0.109,-0.041l-0.107,-0.042l-0.108,-0.043l-0.107,-0.042l-0.107,-0.043l-0.107,-0.043l-0.106,-0.043l-0.108,-0.044l-0.107,-0.045l-0.105,-0.044l-0.105,-0.044l-0.107,-0.045l-0.106,-0.046l-0.105,-0.045l-0.106,-0.046l-0.105,-0.047l-0.105,-0.046l-0.105,-0.047l-0.105,-0.047l-0.104,-0.048l-0.105,-0.048l-0.104,-0.048l-0.104,-0.048l-0.104,-0.049l-0.104,-0.049l-0.104,-0.05l-0.103,-0.049l-0.103,-0.05l-0.103,-0.05l-0.103,-0.051l-0.103,-0.051l-0.102,-0.051l-0.102,-0.051l-0.103,-0.052l-0.102,-0.052l-0.102,-0.053l-0.1,-0.052l-0.103,-0.053l-0.101,-0.054l-0.1,-0.053l-0.101,-0.053l-0.101,-0.055l-0.1,-0.054l-0.102,-0.055l-0.1,-0.056l-0.099,-0.054l-0.1,-0.056l-0.1,-0.056l-0.098,-0.056l-0.1,-0.056l-0.1,-0.058l-0.098,-0.056l-0.099,-0.058l-0.098,-0.057l-0.098,-0.058l-0.099,-0.059l-0.097,-0.058l-0.099,-0.059l-0.097,-0.059l-0.096,-0.059l-0.098,-0.06l-0.096,-0.059l-0.097,-0.061l-0.098,-0.061l-0.095,-0.06l-0.096,-0.061l-0.097,-0.062l-0.096,-0.062l-0.095,-0.061l-0.095,-0.062l-0.095,-0.063l-0.095,-0.062l-0.094,-0.063l-0.095,-0.063l-0.095,-0.064l-0.093,-0.064l-0.095,-0.064l-0.094,-0.065l-0.092,-0.064l-0.094,-0.065l-0.093,-0.065l-0.093,-0.066l-0.093,-0.066l-0.091,-0.065l-0.093,-0.066l-0.094,-0.068l-0.09,-0.066l-0.092,-0.067l-0.092,-0.067l-0.091,-0.068l-0.09,-0.067l-0.091,-0.069l-0.091,-0.068l-0.091,-0.069l-0.09,-0.069l-0.089,-0.069l-0.091,-0.07l-0.089,-0.069l-0.089,-0.07l-0.089,-0.07l-0.088,-0.07l-0.09,-0.072l-0.089,-0.071l-0.087,-0.071l-0.089,-0.072l-0.087,-0.071l-0.087,-0.071l-0.088,-0.073l-0.088,-0.074l-0.086,-0.072l-0.087,-0.073l-0.087,-0.074l-0.085,-0.073l-0.086,-0.073l-0.087,-0.075l-0.084,-0.074l-0.085,-0.074l-0.086,-0.076l-0.085,-0.075l-0.085,-0.075l-0.084,-0.075l-0.084,-0.076l-0.085,-0.077l-0.083,-0.076l-0.084,-0.077l-0.083,-0.077l-0.082,-0.076l-0.084,-0.079l-0.083,-0.077l-0.082,-0.077l-0.081,-0.078l-0.082,-0.078l-0.082,-0.079l-0.082,-0.079l-0.08,-0.079l-0.082,-0.08l-0.08,-0.078l-0.081,-0.08l-0.081,-0.081l-0.079,-0.079l-0.08,-0.081l-0.079,-0.081l-0.079,-0.081l-0.08,-0.081l-0.079,-0.082l-0.077,-0.08l-0.079,-0.082l-0.079,-0.083l-0.078,-0.083l-0.076,-0.082l-0.078,-0.083l-0.077,-0.082l-0.076,-0.083l-0.077,-0.084l-0.077,-0.084l-0.076,-0.084l-0.076,-0.084l-0.076,-0.085l-0.074,-0.084l-0.076,-0.085l-0.075,-0.086l-0.074,-0.085l-0.075,-0.085l-0.073,-0.086l-0.074,-0.085l-0.073,-0.086l-0.074,-0.088l-0.074,-0.087l-0.072,-0.086l-0.073,-0.088l-0.072,-0.087l-0.072,-0.087l-0.072,-0.088l-0.072,-0.089l-0.07,-0.086l-0.071,-0.089l-0.072,-0.09l-0.07,-0.089l-0.07,-0.088l-0.07,-0.089l-0.071,-0.091l-0.069,-0.089l-0.068,-0.089l-0.069,-0.09l-0.07,-0.092l-0.068,-0.09l-0.068,-0.091l-0.068,-0.091l-0.067,-0.091l-0.068,-0.092l-0.067,-0.091l-0.066,-0.091l-0.067,-0.092l-0.066,-0.093l-0.067,-0.093l-0.065,-0.093l-0.064,-0.091l-0.067,-0.095l-0.065,-0.094l-0.064,-0.092l-0.064,-0.093l-0.065,-0.095l-0.064,-0.094l-0.063,-0.094l-0.064,-0.096l-0.063,-0.094l-0.062,-0.095l-0.062,-0.094l-0.062,-0.095l-0.063,-0.097l-0.061,-0.095l-0.061,-0.096l-0.061,-0.095l-0.061,-0.098l-0.061,-0.097l-0.059,-0.095l-0.06,-0.096l-0.061,-0.1l-0.059,-0.097l-0.058,-0.095l-0.059,-0.099l-0.059,-0.099l-0.058,-0.097l-0.058,-0.098l-0.058,-0.099l-0.057,-0.098l-0.057,-0.098l-0.057,-0.1l-0.057,-0.101l-0.056,-0.098l-0.055,-0.099l-0.056,-0.101l-0.055,-0.099l-0.055,-0.1l-0.056,-0.102l-0.054,-0.1l-0.053,-0.099l-0.055,-0.102l-0.053,-0.101l-0.053,-0.1l-0.054,-0.103l-0.052,-0.101l-0.052,-0.101l-0.052,-0.103l-0.053,-0.103l-0.051,-0.102l-0.051,-0.102l-0.05,-0.101l-0.051,-0.104l-0.051,-0.104l-0.049,-0.102l-0.05,-0.104l-0.05,-0.104l-0.048,-0.103l-0.049,-0.104l-0.049,-0.105l-0.047,-0.103l-0.048,-0.105l-0.048,-0.105l-0.047,-0.104l-0.047,-0.105l-0.047,-0.105l-0.045,-0.104l-0.047,-0.106l-0.046,-0.107l-0.045,-0.105l-0.045,-0.107l-0.044,-0.105l-0.045,-0.106l-0.044,-0.107l-0.044,-0.107l-0.044,-0.107l-0.043,-0.107l-0.042,-0.106l-0.043,-0.108l-0.042,-0.107l-0.042,-0.108l-0.042,-0.108l-0.04,-0.106l-0.042,-0.11l-0.041,-0.109l-0.039,-0.106l-0.04,-0.109l-0.04,-0.109l-0.039,-0.109l-0.039,-0.109l-0.039,-0.109l-0.038,-0.109l-0.038,-0.11l-0.038,-0.11l-0.038,-0.109l-0.036,-0.11l-0.037,-0.108l-0.037,-0.113l-0.036,-0.11l-0.035,-0.11l-0.036,-0.111l-0.035,-0.11l-0.034,-0.111l-0.035,-0.111l-0.034,-0.113l-0.033,-0.109l-0.034,-0.112l-0.033,-0.113l-0.033,-0.112l-0.032,-0.11l-0.032,-0.113l-0.032,-0.112l-0.031,-0.113l-0.032,-0.114l-0.03,-0.11l-0.03,-0.112l-0.031,-0.115l-0.029,-0.113l-0.029,-0.112l-0.03,-0.115l-0.028,-0.113l-0.029,-0.114l-0.027,-0.113l-0.028,-0.113l-0.028,-0.116l-0.026,-0.113l-0.027,-0.114l-0.026,-0.114l-0.026,-0.116l-0.026,-0.114l-0.025,-0.114l-0.025,-0.116l-0.024,-0.115l-0.024,-0.114l-0.024,-0.117l-0.024,-0.114l-0.023,-0.115l-0.023,-0.117l-0.022,-0.115l-0.022,-0.117l-0.022,-0.116l-0.021,-0.115l-0.021,-0.117l-0.02,-0.116l-0.021,-0.115l-0.02,-0.118l-0.02,-0.118l-0.018,-0.116l-0.019,-0.116l-0.019,-0.119l-0.018,-0.116l-0.018,-0.118l-0.017,-0.118l-0.017,-0.115l-0.017,-0.118l-0.016,-0.119l-0.016,-0.117l-0.016,-0.119l-0.015,-0.119l-0.015,-0.117l-0.014,-0.119l-0.014,-0.12l-0.014,-0.115l-0.013,-0.119l-0.014,-0.12l-0.012,-0.119l-0.013,-0.12l-0.011,-0.118l-0.012,-0.118l-0.011,-0.12l-0.011,-0.12l-0.01,-0.118l-0.01,-0.12l-0.01,-0.12l-0.01,-0.121l-0.008,-0.121l-0.009,-0.118l-0.008,-0.118l-0.008,-0.121l-0.007,-0.121l-0.008,-0.121l-0.006,-0.121l-0.007,-0.121l-0.005,-0.119l-0.006,-0.121l-0.005,-0.121l-0.005,-0.122l-0.004,-0.121l-0.004,-0.119l-0.004,-0.122l-0.003,-0.121l-0.003,-0.122l-0.003,-0.122l-0.002,-0.119l-0.002,-0.122l-0.001,-0.124l-0.001,-0.12l0,-0.122l-0.001,-0.122l0.001,-0.122l0,-0.123l0.001,-0.119l0.001,-0.124l0.002,-0.122l0.002,-0.12l0.003,-0.122l0.003,-0.121l0.003,-0.122l0.004,-0.121l0.004,-0.12l0.004,-0.121l0.005,-0.121l0.005,-0.122l0.006,-0.121l0.005,-0.119l0.007,-0.121l0.006,-0.121l0.008,-0.121l0.007,-0.121l0.008,-0.12l0.008,-0.119l0.009,-0.118l0.008,-0.121l0.01,-0.12l0.01,-0.12l0.01,-0.121l0.01,-0.118l0.011,-0.12l0.011,-0.12l0.012,-0.118l0.011,-0.117l0.013,-0.12l0.012,-0.12l0.014,-0.119l0.013,-0.12l0.014,-0.115l0.014,-0.119l0.014,-0.12l0.015,-0.117l0.015,-0.119l0.016,-0.119l0.016,-0.116l0.016,-0.119l0.017,-0.119l0.017,-0.114l0.017,-0.119l0.018,-0.118l0.018,-0.116l0.019,-0.119l0.019,-0.116l0.018,-0.115l0.02,-0.118l0.02,-0.118l0.021,-0.116l0.02,-0.115l0.021,-0.118l0.021,-0.115l0.022,-0.115l0.022,-0.117l0.022,-0.115l0.023,-0.117l0.023,-0.115l0.024,-0.115l0.024,-0.117l0.024,-0.114l0.024,-0.114l0.025,-0.117l0.025,-0.114l0.026,-0.114l0.026,-0.116l0.026,-0.114l0.027,-0.113l0.026,-0.114l0.028,-0.116l0.028,-0.113l0.027,-0.113l0.029,-0.113l0.028,-0.113l0.03,-0.115l0.029,-0.113l0.029,-0.113l0.031,-0.114l0.03,-0.113l0.03,-0.11l0.032,-0.114l0.031,-0.112l0.032,-0.112l0.032,-0.114l0.032,-0.11l0.033,-0.111l0.033,-0.114l0.034,-0.111l0.033,-0.109l0.034,-0.113l0.035,-0.111l0.034,-0.111l0.035,-0.111l0.036,-0.11l0.035,-0.111l0.036,-0.11l0.037,-0.112l0.037,-0.109l0.037,-0.11l0.037,-0.109l0.037,-0.11l0.038,-0.109l0.039,-0.109l0.039,-0.11l0.039,-0.109l0.039,-0.109l0.04,-0.109l0.04,-0.108l0.039,-0.107l0.041,-0.109l0.042,-0.11l0.04,-0.106l0.042,-0.108l0.042,-0.108l0.042,-0.107l0.043,-0.108l0.042,-0.105l0.043,-0.107l0.044,-0.108l0.044,-0.107l0.044,-0.107l0.045,-0.106l0.044,-0.105l0.045,-0.106l0.045,-0.106l0.046,-0.106l0.047,-0.107l0.045,-0.103l0.047,-0.105l0.047,-0.106l0.047,-0.104l0.048,-0.105l0.048,-0.105l0.047,-0.103l0.049,-0.104l0.049,-0.105l0.048,-0.102l0.05,-0.105l0.05,-0.104l0.049,-0.102l0.051,-0.104l0.051,-0.103l0.05,-0.102l0.051,-0.101l0.052,-0.103l0.052,-0.103l0.052,-0.102l0.052,-0.101l0.052,-0.101l0.054,-0.104l0.053,-0.1l0.053,-0.101l0.055,-0.101l0.054,-0.1l0.053,-0.1l0.055,-0.101l0.056,-0.101l0.055,-0.099l0.056,-0.101l0.055,-0.099l0.056,-0.098l0.057,-0.101l0.057,-0.099l0.057,-0.098l0.057,-0.098l0.059,-0.1l0.057,-0.097l0.057,-0.098l0.06,-0.099l0.059,-0.099l0.058,-0.095l0.059,-0.096l0.061,-0.1l0.06,-0.097l0.059,-0.094l0.061,-0.098l0.061,-0.097l0.061,-0.096l0.061,-0.096l0.061,-0.095l0.063,-0.097l0.062,-0.094l0.062,-0.095l0.062,-0.095l0.063,-0.094l0.064,-0.096l0.063,-0.094l0.064,-0.094l0.065,-0.095l0.064,-0.093l0.064,-0.092l0.065,-0.094l0.067,-0.095l0.064,-0.091l0.065,-0.092l0.067,-0.094l0.066,-0.092l0.067,-0.092l0.067,-0.092l0.067,-0.091l0.067,-0.091l0.067,-0.091l0.068,-0.092l0.068,-0.091l0.068,-0.09l0.07,-0.091l0.069,-0.091l0.068,-0.088l0.069,-0.09l0.071,-0.09l0.07,-0.09l0.07,-0.088l0.07,-0.088l0.072,-0.091l0.071,-0.088l0.07,-0.087l0.072,-0.088l0.072,-0.088l0.072,-0.088l0.072,-0.087l0.073,-0.088l0.073,-0.087l0.073,-0.086l0.073,-0.087l0.074,-0.086l0.074,-0.086l0.073,-0.085l0.075,-0.086l0.074,-0.085l0.075,-0.085l0.076,-0.086l0.074,-0.083l0.076,-0.085l0.076,-0.084l0.076,-0.085l0.077,-0.084l0.077,-0.083l0.076,-0.083l0.077,-0.083l0.078,-0.083l0.076,-0.082l0.078,-0.082l0.079,-0.083l0.079,-0.082l0.077,-0.081l0.079,-0.082l0.08,-0.081l0.079,-0.081l0.079,-0.081l0.08,-0.08l0.08,-0.08l0.08,-0.081l0.081,-0.079l0.08,-0.079l0.082,-0.08l0.08,-0.078l0.082,-0.08l0.082,-0.079l0.081,-0.077l0.082,-0.078l0.082,-0.078l0.083,-0.077l0.084,-0.079l0.083,-0.077l0.082,-0.076l0.084,-0.076l0.083,-0.076l0.085,-0.077l0.085,-0.077l0.083,-0.075l0.084,-0.074l0.086,-0.076l0.086,-0.076l0.085,-0.074l0.084,-0.073l0.087,-0.075l0.086,-0.074l0.085,-0.073l0.087,-0.074l0.087,-0.072l0.086,-0.073l0.088,-0.073l0.088,-0.073l0.088,-0.072l0.086,-0.071l0.088,-0.071l0.088,-0.071l0.089,-0.072l0.09,-0.071l0.088,-0.071l0.089,-0.07l0.089,-0.069l0.089,-0.07l0.091,-0.07l0.089,-0.069l0.09,-0.069l0.092,-0.069l0.09,-0.068l0.09,-0.068l0.091,-0.068l0.091,-0.067l0.092,-0.068l0.092,-0.067l0.09,-0.066l0.094,-0.067l0.093,-0.067l0.091,-0.065l0.093,-0.066l0.093,-0.066l0.093,-0.065l0.093,-0.065l0.094,-0.064l0.093,-0.065l0.094,-0.063l0.094,-0.064l0.095,-0.064l0.095,-0.064l0.094,-0.062l0.095,-0.063l0.095,-0.063l0.096,-0.062l0.094,-0.061l0.095,-0.061l0.098,-0.063l0.097,-0.061l0.094,-0.06l0.097,-0.06l0.098,-0.061l0.096,-0.06l0.098,-0.06l0.096,-0.059l0.097,-0.058l0.099,-0.06l0.098,-0.059l0.098,-0.057l0.097,-0.058l0.099,-0.058l0.1,-0.058l0.097,-0.056l0.099,-0.057l0.101,-0.057l0.098,-0.055l0.1,-0.057l0.1,-0.056l0.1,-0.055l0.1,-0.055l0.1,-0.054l0.1,-0.055l0.102,-0.054l0.101,-0.054l0.1,-0.053l0.101,-0.053l0.103,-0.054l0.1,-0.052l0.102,-0.052l0.102,-0.053l0.103,-0.051l0.102,-0.052l0.102,-0.051l0.103,-0.051l0.103,-0.051l0.103,-0.049l0.103,-0.05l0.103,-0.05l0.104,-0.05l0.105,-0.049l0.103,-0.048l0.103,-0.048l0.105,-0.049l0.105,-0.048l0.104,-0.047l0.106,-0.048l0.104,-0.046l0.104,-0.047l0.106,-0.046l0.106,-0.046l0.105,-0.046l0.106,-0.045l0.107,-0.046l0.106,-0.044l0.104,-0.044l0.107,-0.044l0.108,-0.044l0.106,-0.043l0.107,-0.044l0.107,-0.043l0.107,-0.042l0.108,-0.042l0.107,-0.042l0.109,-0.042l0.106,-0.041l0.108,-0.041l0.109,-0.041l0.109,-0.04l0.108,-0.04l0.108,-0.039l0.11,-0.04l0.109,-0.039l0.109,-0.038l0.109,-0.039l0.11,-0.038l0.11,-0.038l0.109,-0.037l0.108,-0.036l0.112,-0.038l0.11,-0.036l0.11,-0.036l0.111,-0.036l0.11,-0.035l0.111,-0.035l0.112,-0.035l0.11,-0.034l0.111,-0.034l0.112,-0.034l0.111,-0.033l0.112,-0.033l0.112,-0.033l0.112,-0.033l0.112,-0.032l0.112,-0.031l0.112,-0.032l0.112,-0.031l0.114,-0.031l0.112,-0.03l0.113,-0.03l0.114,-0.03l0.112,-0.029l0.113,-0.029l0.115,-0.029l0.113,-0.028l0.114,-0.028l0.114,-0.027l0.113,-0.028l0.115,-0.027l0.113,-0.026l0.115,-0.027l0.116,-0.026l0.114,-0.025l0.114,-0.025l0.115,-0.025l0.115,-0.024l0.115,-0.024l0.115,-0.024l0.116,-0.024l0.116,-0.023l0.116,-0.023l0.115,-0.022l0.116,-0.022l0.115,-0.022l0.116,-0.021l0.118,-0.021l0.117,-0.021l0.115,-0.02l0.117,-0.02l0.117,-0.02l0.116,-0.019l0.118,-0.019l0.117,-0.018l0.116,-0.018l0.119,-0.018l0.117,-0.017l0.116,-0.017l0.119,-0.017l0.118,-0.016l0.116,-0.016l0.119,-0.016l0.118,-0.015l0.119,-0.015l0.119,-0.015l0.118,-0.014l0.117,-0.013l0.12,-0.014l0.118,-0.013l0.119,-0.012l0.12,-0.013l0.119,-0.012l0.118,-0.011l0.12,-0.011l0.12,-0.011l0.119,-0.011l0.119,-0.01l0.12,-0.009l0.119,-0.01l0.121,-0.009l0.121,-0.008l0.118,-0.008l0.121,-0.008l0.121,-0.008l0.118,-0.007l0.121,-0.006l0.121,-0.007l0.121,-0.006l0.122,-0.005l0.119,-0.005l0.121,-0.005l0.121,-0.005l0.122,-0.004l0.121,-0.003l0.12,-0.003l0.121,-0.003l0.123,-0.003l0.121,-0.002l0.122,-0.002l0.122,-0.001l0.121,-0.001l0.122,-0.001l0.122,0l0.122,0Zm-0.231,4l-0.109,0.001l-0.11,0.001l-0.109,0.001l-0.108,0.001l-0.109,0.002l-0.109,0.003l-0.109,0.002l-0.108,0.003l-0.109,0.003l-0.108,0.004l-0.108,0.004l-0.109,0.004l-0.108,0.005l-0.108,0.005l-0.108,0.005l-0.108,0.006l-0.108,0.006l-0.107,0.006l-0.108,0.007l-0.107,0.007l-0.108,0.007l-0.107,0.008l-0.107,0.008l-0.108,0.008l-0.107,0.009l-0.107,0.009l-0.106,0.009l-0.107,0.01l-0.107,0.01l-0.107,0.01l-0.106,0.011l-0.106,0.011l-0.107,0.011l-0.106,0.012l-0.106,0.012l-0.106,0.012l-0.106,0.013l-0.106,0.013l-0.105,0.013l-0.106,0.013l-0.105,0.014l-0.106,0.015l-0.105,0.014l-0.105,0.015l-0.105,0.015l-0.105,0.016l-0.105,0.016l-0.105,0.016l-0.105,0.017l-0.104,0.016l-0.105,0.018l-0.104,0.017l-0.104,0.018l-0.104,0.018l-0.104,0.018l-0.104,0.019l-0.104,0.019l-0.104,0.02l-0.103,0.019l-0.104,0.02l-0.103,0.021l-0.104,0.02l-0.103,0.021l-0.103,0.021l-0.103,0.022l-0.102,0.022l-0.103,0.022l-0.103,0.023l-0.102,0.022l-0.102,0.024l-0.103,0.023l-0.102,0.024l-0.102,0.024l-0.101,0.024l-0.102,0.025l-0.102,0.025l-0.101,0.025l-0.102,0.026l-0.101,0.026l-0.101,0.026l-0.101,0.026l-0.101,0.027l-0.101,0.027l-0.1,0.028l-0.101,0.028l-0.1,0.028l-0.1,0.028l-0.101,0.029l-0.1,0.029l-0.1,0.029l-0.099,0.029l-0.1,0.03l-0.099,0.03l-0.1,0.031l-0.099,0.03l-0.099,0.031l-0.099,0.032l-0.099,0.031l-0.099,0.032l-0.098,0.032l-0.099,0.033l-0.098,0.033l-0.098,0.033l-0.098,0.033l-0.098,0.034l-0.098,0.034l-0.098,0.034l-0.097,0.035l-0.097,0.034l-0.098,0.036l-0.097,0.035l-0.097,0.036l-0.096,0.036l-0.097,0.036l-0.097,0.037l-0.096,0.036l-0.096,0.037l-0.096,0.038l-0.096,0.038l-0.096,0.038l-0.096,0.038l-0.095,0.038l-0.096,0.039l-0.095,0.039l-0.095,0.04l-0.095,0.039l-0.095,0.04l-0.095,0.041l-0.094,0.04l-0.095,0.041l-0.094,0.041l-0.094,0.041l-0.094,0.042l-0.094,0.042l-0.093,0.042l-0.094,0.043l-0.093,0.042l-0.093,0.043l-0.093,0.044l-0.093,0.043l-0.093,0.044l-0.092,0.044l-0.093,0.044l-0.092,0.045l-0.092,0.045l-0.092,0.045l-0.092,0.046l-0.091,0.045l-0.092,0.046l-0.091,0.047l-0.091,0.046l-0.091,0.047l-0.091,0.047l-0.091,0.047l-0.09,0.048l-0.091,0.048l-0.09,0.048l-0.09,0.048l-0.09,0.049l-0.089,0.049l-0.09,0.049l-0.089,0.05l-0.089,0.049l-0.089,0.05l-0.089,0.051l-0.089,0.05l-0.088,0.051l-0.089,0.051l-0.088,0.051l-0.088,0.052l-0.088,0.051l-0.088,0.052l-0.087,0.053l-0.087,0.052l-0.088,0.053l-0.087,0.053l-0.086,0.054l-0.087,0.053l-0.087,0.054l-0.086,0.054l-0.086,0.054l-0.086,0.055l-0.086,0.055l-0.085,0.055l-0.086,0.055l-0.085,0.056l-0.085,0.056l-0.085,0.056l-0.085,0.056l-0.084,0.057l-0.085,0.056l-0.084,0.058l-0.084,0.057l-0.084,0.057l-0.083,0.058l-0.084,0.058l-0.083,0.059l-0.083,0.058l-0.083,0.059l-0.083,0.059l-0.082,0.059l-0.083,0.06l-0.082,0.06l-0.082,0.06l-0.082,0.06l-0.081,0.06l-0.082,0.061l-0.081,0.061l-0.081,0.061l-0.081,0.062l-0.08,0.061l-0.081,0.062l-0.08,0.062l-0.08,0.063l-0.08,0.062l-0.08,0.063l-0.079,0.063l-0.08,0.063l-0.079,0.064l-0.079,0.064l-0.079,0.064l-0.078,0.064l-0.078,0.065l-0.079,0.064l-0.078,0.065l-0.077,0.065l-0.078,0.066l-0.077,0.065l-0.077,0.066l-0.077,0.066l-0.077,0.066l-0.077,0.067l-0.076,0.067l-0.076,0.067l-0.076,0.067l-0.076,0.067l-0.075,0.068l-0.076,0.068l-0.075,0.068l-0.075,0.068l-0.074,0.069l-0.075,0.069l-0.074,0.068l-0.074,0.07l-0.074,0.069l-0.074,0.07l-0.073,0.07l-0.074,0.07l-0.073,0.07l-0.073,0.07l-0.072,0.071l-0.073,0.071l-0.072,0.071l-0.072,0.072l-0.072,0.071l-0.071,0.072l-0.072,0.072l-0.071,0.072l-0.071,0.073l-0.07,0.072l-0.071,0.073l-0.07,0.073l-0.07,0.073l-0.07,0.074l-0.07,0.074l-0.069,0.073l-0.069,0.074l-0.069,0.075l-0.069,0.074l-0.068,0.075l-0.069,0.075l-0.068,0.075l-0.068,0.075l-0.067,0.076l-0.068,0.076l-0.067,0.076l-0.067,0.076l-0.067,0.076l-0.066,0.077l-0.067,0.076l-0.066,0.077l-0.065,0.078l-0.066,0.077l-0.065,0.077l-0.066,0.078l-0.065,0.078l-0.064,0.078l-0.065,0.079l-0.064,0.078l-0.064,0.079l-0.064,0.079l-0.063,0.079l-0.064,0.079l-0.063,0.08l-0.062,0.079l-0.063,0.08l-0.062,0.08l-0.063,0.081l-0.061,0.08l-0.062,0.081l-0.062,0.081l-0.061,0.081l-0.061,0.081l-0.06,0.081l-0.061,0.082l-0.06,0.082l-0.06,0.082l-0.06,0.082l-0.059,0.082l-0.06,0.083l-0.059,0.083l-0.059,0.083l-0.058,0.083l-0.058,0.083l-0.058,0.083l-0.058,0.084l-0.058,0.084l-0.057,0.084l-0.057,0.084l-0.057,0.084l-0.057,0.085l-0.056,0.085l-0.056,0.085l-0.056,0.085l-0.055,0.085l-0.056,0.085l-0.055,0.086l-0.055,0.086l-0.054,0.086l-0.055,0.086l-0.054,0.086l-0.054,0.087l-0.053,0.086l-0.053,0.087l-0.054,0.087l-0.052,0.087l-0.053,0.088l-0.052,0.087l-0.052,0.088l-0.052,0.088l-0.052,0.088l-0.051,0.088l-0.051,0.088l-0.051,0.089l-0.05,0.088l-0.05,0.089l-0.05,0.089l-0.05,0.09l-0.049,0.089l-0.05,0.089l-0.049,0.09l-0.048,0.09l-0.049,0.09l-0.048,0.09l-0.048,0.091l-0.047,0.09l-0.048,0.091l-0.047,0.091l-0.046,0.091l-0.047,0.091l-0.046,0.091l-0.046,0.091l-0.046,0.092l-0.045,0.092l-0.046,0.092l-0.045,0.092l-0.044,0.092l-0.045,0.092l-0.044,0.093l-0.044,0.093l-0.043,0.093l-0.043,0.093l-0.043,0.093l-0.043,0.093l-0.043,0.094l-0.042,0.093l-0.042,0.094l-0.041,0.094l-0.042,0.094l-0.041,0.094l-0.041,0.095l-0.04,0.094l-0.04,0.095l-0.04,0.095l-0.04,0.095l-0.039,0.095l-0.039,0.095l-0.039,0.095l-0.039,0.096l-0.038,0.095l-0.038,0.096l-0.038,0.096l-0.037,0.096l-0.037,0.097l-0.037,0.096l-0.037,0.097l-0.036,0.096l-0.036,0.097l-0.036,0.097l-0.035,0.097l-0.035,0.097l-0.035,0.098l-0.035,0.097l-0.034,0.098l-0.034,0.098l-0.033,0.098l-0.034,0.098l-0.033,0.098l-0.033,0.098l-0.032,0.099l-0.032,0.098l-0.032,0.099l-0.032,0.099l-0.031,0.099l-0.031,0.099l-0.031,0.099l-0.03,0.099l-0.031,0.1l-0.029,0.099l-0.03,0.1l-0.029,0.1l-0.029,0.1l-0.029,0.1l-0.028,0.1l-0.028,0.101l-0.028,0.1l-0.027,0.101l-0.027,0.101l-0.027,0.101l-0.027,0.101l-0.026,0.101l-0.026,0.101l-0.025,0.101l-0.026,0.102l-0.025,0.102l-0.024,0.101l-0.025,0.102l-0.024,0.102l-0.024,0.102l-0.023,0.102l-0.023,0.103l-0.023,0.102l-0.023,0.103l-0.022,0.102l-0.022,0.103l-0.021,0.103l-0.022,0.103l-0.021,0.103l-0.02,0.103l-0.02,0.104l-0.02,0.103l-0.02,0.104l-0.02,0.104l-0.019,0.103l-0.018,0.104l-0.019,0.104l-0.018,0.104l-0.018,0.105l-0.017,0.104l-0.017,0.104l-0.017,0.105l-0.017,0.105l-0.016,0.104l-0.016,0.105l-0.015,0.105l-0.016,0.105l-0.014,0.106l-0.015,0.105l-0.014,0.105l-0.014,0.106l-0.014,0.105l-0.013,0.106l-0.013,0.106l-0.013,0.106l-0.012,0.106l-0.012,0.106l-0.012,0.106l-0.011,0.106l-0.011,0.107l-0.011,0.106l-0.01,0.107l-0.01,0.106l-0.01,0.107l-0.009,0.107l-0.009,0.107l-0.009,0.107l-0.008,0.107l-0.008,0.108l-0.008,0.107l-0.007,0.107l-0.007,0.108l-0.007,0.107l-0.006,0.108l-0.006,0.108l-0.006,0.108l-0.005,0.108l-0.005,0.108l-0.004,0.108l-0.005,0.108l-0.004,0.109l-0.003,0.108l-0.004,0.108l-0.003,0.109l-0.002,0.109l-0.002,0.108l-0.002,0.109l-0.002,0.109l-0.001,0.109l-0.001,0.109l0,0.109l-0.001,0.11l0.001,0.109l0,0.109l0.001,0.109l0.001,0.109l0.002,0.109l0.002,0.109l0.002,0.109l0.002,0.108l0.003,0.109l0.004,0.108l0.003,0.109l0.004,0.108l0.005,0.108l0.004,0.108l0.005,0.108l0.005,0.108l0.006,0.108l0.006,0.108l0.006,0.108l0.007,0.107l0.007,0.108l0.007,0.107l0.008,0.108l0.008,0.107l0.008,0.107l0.009,0.107l0.009,0.107l0.009,0.107l0.01,0.107l0.01,0.107l0.01,0.106l0.011,0.107l0.011,0.106l0.011,0.106l0.012,0.106l0.012,0.107l0.012,0.106l0.013,0.105l0.013,0.106l0.013,0.106l0.014,0.106l0.014,0.105l0.014,0.105l0.015,0.106l0.014,0.105l0.016,0.105l0.015,0.105l0.016,0.105l0.016,0.105l0.017,0.104l0.017,0.105l0.017,0.104l0.017,0.105l0.018,0.104l0.018,0.104l0.019,0.104l0.018,0.104l0.019,0.104l0.02,0.103l0.02,0.104l0.02,0.104l0.02,0.103l0.02,0.103l0.021,0.103l0.022,0.103l0.021,0.103l0.022,0.103l0.022,0.103l0.023,0.102l0.023,0.103l0.023,0.102l0.023,0.102l0.024,0.102l0.024,0.102l0.025,0.102l0.024,0.102l0.025,0.101l0.026,0.102l0.025,0.101l0.026,0.102l0.026,0.101l0.027,0.101l0.027,0.101l0.027,0.1l0.027,0.101l0.028,0.1l0.028,0.101l0.028,0.1l0.029,0.1l0.029,0.1l0.029,0.1l0.03,0.1l0.029,0.099l0.031,0.1l0.03,0.099l0.031,0.1l0.031,0.099l0.031,0.099l0.032,0.099l0.032,0.098l0.032,0.099l0.032,0.098l0.033,0.099l0.033,0.098l0.034,0.098l0.033,0.098l0.034,0.097l0.034,0.098l0.035,0.098l0.035,0.097l0.035,0.097l0.035,0.097l0.036,0.097l0.036,0.097l0.036,0.097l0.037,0.096l0.037,0.097l0.037,0.096l0.037,0.096l0.038,0.096l0.038,0.096l0.038,0.096l0.039,0.095l0.039,0.095l0.039,0.096l0.039,0.095l0.04,0.095l0.04,0.095l0.04,0.094l0.04,0.095l0.041,0.094l0.041,0.094l0.042,0.094l0.041,0.094l0.042,0.094l0.042,0.094l0.043,0.093l0.043,0.094l0.043,0.093l0.043,0.093l0.043,0.093l0.044,0.092l0.044,0.093l0.045,0.092l0.044,0.092l0.045,0.093l0.046,0.091l0.045,0.092l0.046,0.092l0.046,0.091l0.046,0.092l0.047,0.091l0.046,0.091l0.047,0.091l0.048,0.09l0.047,0.091l0.048,0.09l0.048,0.09l0.049,0.09l0.048,0.09l0.049,0.09l0.05,0.089l0.049,0.09l0.05,0.089l0.05,0.089l0.05,0.089l0.05,0.089l0.051,0.088l0.051,0.088l0.051,0.089l0.052,0.088l0.052,0.088l0.052,0.087l0.052,0.088l0.053,0.087l0.052,0.087l0.054,0.087l0.053,0.087l0.053,0.087l0.054,0.086l0.054,0.087l0.055,0.086l0.054,0.086l0.055,0.085l0.055,0.086l0.056,0.085l0.055,0.086l0.056,0.085l0.056,0.085l0.056,0.084l0.057,0.085l0.057,0.084l0.057,0.085l0.057,0.084l0.058,0.083l0.058,0.084l0.058,0.083l0.058,0.084l0.058,0.083l0.059,0.083l0.059,0.082l0.06,0.083l0.059,0.082l0.06,0.082l0.06,0.082l0.06,0.082l0.061,0.082l0.06,0.081l0.061,0.082l0.061,0.081l0.062,0.08l0.062,0.081l0.061,0.081l0.063,0.08l0.062,0.08l0.063,0.08l0.062,0.08l0.063,0.079l0.064,0.079l0.063,0.079l0.064,0.079l0.064,0.079l0.064,0.079l0.065,0.078l0.064,0.078l0.065,0.078l0.066,0.078l0.065,0.077l0.066,0.078l0.065,0.077l0.066,0.077l0.067,0.077l0.066,0.076l0.067,0.077l0.067,0.076l0.067,0.076l0.068,0.075l0.067,0.076l0.068,0.075l0.068,0.075l0.069,0.075l0.068,0.075l0.069,0.074l0.069,0.075l0.069,0.074l0.069,0.074l0.07,0.073l0.07,0.074l0.07,0.073l0.07,0.073l0.071,0.073l0.07,0.073l0.071,0.072l0.071,0.072l0.072,0.072l0.071,0.072l0.072,0.072l0.072,0.071l0.072,0.071l0.073,0.071l0.072,0.071l0.073,0.07l0.073,0.071l0.074,0.07l0.073,0.07l0.074,0.069l0.074,0.07l0.074,0.069l0.074,0.069l0.075,0.069l0.074,0.068l0.075,0.068l0.075,0.068l0.076,0.068l0.075,0.068l0.076,0.067l0.076,0.068l0.076,0.067l0.076,0.066l0.077,0.067l0.077,0.066l0.077,0.066l0.077,0.066l0.077,0.066l0.078,0.065l0.077,0.065l0.078,0.065l0.079,0.065l0.078,0.064l0.078,0.064l0.079,0.065l0.079,0.063l0.079,0.064l0.08,0.063l0.079,0.063l0.08,0.063l0.08,0.063l0.08,0.062l0.08,0.062l0.081,0.062l0.08,0.062l0.081,0.061l0.081,0.061l0.081,0.061l0.082,0.061l0.081,0.061l0.082,0.06l0.082,0.06l0.082,0.06l0.083,0.059l0.082,0.059l0.083,0.059l0.083,0.059l0.083,0.059l0.083,0.058l0.084,0.058l0.083,0.058l0.084,0.057l0.084,0.058l0.084,0.057l0.085,0.057l0.084,0.056l0.085,0.057l0.085,0.056l0.085,0.055l0.085,0.056l0.086,0.055l0.085,0.056l0.086,0.054l0.086,0.055l0.086,0.054l0.086,0.054l0.087,0.054l0.087,0.054l0.086,0.053l0.087,0.053l0.088,0.053l0.087,0.053l0.087,0.052l0.088,0.052l0.088,0.052l0.088,0.051l0.088,0.051l0.089,0.051l0.088,0.051l0.089,0.051l0.089,0.05l0.089,0.05l0.089,0.05l0.089,0.049l0.09,0.049l0.089,0.049l0.09,0.049l0.09,0.048l0.09,0.048l0.091,0.048l0.09,0.048l0.091,0.047l0.091,0.047l0.091,0.047l0.091,0.047l0.091,0.046l0.092,0.046l0.091,0.046l0.092,0.045l0.092,0.045l0.092,0.045l0.092,0.045l0.093,0.044l0.092,0.044l0.093,0.044l0.093,0.044l0.093,0.043l0.093,0.043l0.093,0.043l0.094,0.042l0.093,0.042l0.094,0.042l0.094,0.042l0.094,0.041l0.094,0.041l0.095,0.041l0.094,0.041l0.095,0.04l0.095,0.04l0.095,0.04l0.095,0.039l0.095,0.039l0.096,0.039l0.095,0.038l0.096,0.039l0.096,0.038l0.096,0.037l0.096,0.038l0.096,0.037l0.096,0.037l0.097,0.036l0.097,0.037l0.096,0.036l0.097,0.035l0.097,0.036l0.098,0.035l0.097,0.035l0.097,0.034l0.098,0.034l0.098,0.034l0.098,0.034l0.098,0.033l0.098,0.034l0.098,0.032l0.099,0.033l0.098,0.032l0.099,0.032l0.099,0.032l0.099,0.031l0.099,0.031l0.099,0.031l0.1,0.03l0.099,0.03l0.1,0.03l0.099,0.03l0.1,0.029l0.1,0.029l0.101,0.028l0.1,0.029l0.1,0.028l0.101,0.027l0.1,0.028l0.101,0.027l0.101,0.027l0.101,0.026l0.101,0.027l0.101,0.025l0.102,0.026l0.101,0.025l0.102,0.025l0.102,0.025l0.101,0.024l0.102,0.024l0.102,0.024l0.103,0.024l0.102,0.023l0.102,0.023l0.103,0.022l0.103,0.022l0.102,0.022l0.103,0.022l0.103,0.021l0.103,0.021l0.104,0.021l0.103,0.02l0.104,0.02l0.103,0.02l0.104,0.019l0.104,0.019l0.104,0.019l0.104,0.018l0.104,0.019l0.104,0.017l0.104,0.018l0.105,0.017l0.104,0.017l0.105,0.016l0.105,0.017l0.105,0.015l0.105,0.016l0.105,0.015l0.105,0.015l0.105,0.015l0.106,0.014l0.105,0.014l0.106,0.013l0.105,0.014l0.106,0.013l0.106,0.012l0.106,0.013l0.106,0.012l0.106,0.011l0.107,0.012l0.106,0.011l0.106,0.01l0.107,0.011l0.107,0.01l0.107,0.009l0.106,0.01l0.107,0.009l0.107,0.008l0.108,0.009l0.107,0.008l0.107,0.007l0.108,0.008l0.107,0.007l0.108,0.006l0.107,0.007l0.108,0.006l0.108,0.005l0.108,0.005l0.108,0.005l0.108,0.005l0.109,0.004l0.108,0.004l0.108,0.004l0.109,0.003l0.108,0.003l0.109,0.003l0.109,0.002l0.109,0.002l0.108,0.001l0.109,0.002l0.11,0l0.109,0.001l0.109,0l0.109,0l0.109,-0.001l0.109,0l0.109,-0.002l0.109,-0.001l0.109,-0.002l0.109,-0.002l0.109,-0.003l0.108,-0.003l0.109,-0.003l0.108,-0.004l0.108,-0.004l0.109,-0.004l0.108,-0.005l0.108,-0.005l0.108,-0.005l0.108,-0.005l0.107,-0.006l0.108,-0.007l0.108,-0.006l0.107,-0.007l0.108,-0.008l0.107,-0.007l0.107,-0.008l0.107,-0.009l0.107,-0.008l0.107,-0.009l0.107,-0.01l0.107,-0.009l0.107,-0.01l0.106,-0.011l0.107,-0.01l0.106,-0.011l0.107,-0.012l0.106,-0.011l0.106,-0.012l0.106,-0.013l0.106,-0.012l0.106,-0.013l0.105,-0.014l0.106,-0.013l0.105,-0.014l0.106,-0.014l0.105,-0.015l0.105,-0.015l0.105,-0.015l0.105,-0.016l0.105,-0.015l0.105,-0.017l0.105,-0.016l0.104,-0.017l0.105,-0.017l0.104,-0.018l0.104,-0.017l0.104,-0.019l0.104,-0.018l0.104,-0.019l0.104,-0.019l0.104,-0.019l0.103,-0.02l0.104,-0.02l0.103,-0.02l0.103,-0.021l0.104,-0.021l0.103,-0.021l0.102,-0.022l0.103,-0.022l0.103,-0.022l0.102,-0.022l0.103,-0.023l0.102,-0.023l0.102,-0.024l0.103,-0.024l0.101,-0.024l0.102,-0.024l0.102,-0.025l0.102,-0.025l0.101,-0.025l0.102,-0.026l0.101,-0.025l0.101,-0.027l0.101,-0.026l0.101,-0.027l0.101,-0.027l0.1,-0.028l0.101,-0.027l0.1,-0.028l0.1,-0.029l0.1,-0.028l0.1,-0.029l0.1,-0.029l0.1,-0.03l0.1,-0.03l0.099,-0.03l0.1,-0.03l0.099,-0.031l0.099,-0.031l0.099,-0.031l0.099,-0.032l0.098,-0.032l0.099,-0.032l0.099,-0.033l0.098,-0.032l0.098,-0.034l0.098,-0.033l0.098,-0.034l0.098,-0.034l0.097,-0.034l0.098,-0.034l0.097,-0.035l0.097,-0.035l0.098,-0.036l0.097,-0.035l0.096,-0.036l0.097,-0.037l0.097,-0.036l0.096,-0.037l0.096,-0.037l0.096,-0.038l0.096,-0.037l0.096,-0.038l0.096,-0.039l0.095,-0.038l0.096,-0.039l0.095,-0.039l0.095,-0.039l0.095,-0.04l0.095,-0.04l0.095,-0.04l0.094,-0.041l0.094,-0.041l0.095,-0.041l0.094,-0.041l0.094,-0.042l0.093,-0.042l0.094,-0.042l0.093,-0.042l0.094,-0.043l0.093,-0.043l0.093,-0.043l0.093,-0.044l0.093,-0.044l0.092,-0.044l0.093,-0.044l0.092,-0.045l0.092,-0.045l0.092,-0.045l0.092,-0.045l0.091,-0.046l0.092,-0.046l0.091,-0.046l0.091,-0.047l0.091,-0.047l0.091,-0.047l0.091,-0.047l0.09,-0.048l0.09,-0.048l0.091,-0.048l0.09,-0.048l0.089,-0.049l0.09,-0.049l0.09,-0.049l0.089,-0.049l0.089,-0.05l0.089,-0.05l0.089,-0.05l0.089,-0.051l0.088,-0.051l0.089,-0.051l0.088,-0.051l0.088,-0.051l0.088,-0.052l0.087,-0.052l0.088,-0.052l0.087,-0.053l0.088,-0.053l0.087,-0.053l0.086,-0.053l0.087,-0.054l0.086,-0.054l0.087,-0.054l0.086,-0.054l0.086,-0.055l0.086,-0.054l0.085,-0.056l0.086,-0.055l0.085,-0.056l0.085,-0.055l0.085,-0.056l0.085,-0.057l0.084,-0.056l0.085,-0.057l0.084,-0.057l0.084,-0.058l0.084,-0.057l0.083,-0.058l0.084,-0.058l0.083,-0.058l0.083,-0.059l0.083,-0.059l0.083,-0.059l0.082,-0.059l0.083,-0.059l0.082,-0.06l0.082,-0.06l0.082,-0.06l0.081,-0.061l0.082,-0.061l0.081,-0.061l0.081,-0.061l0.081,-0.061l0.08,-0.062l0.081,-0.062l0.08,-0.062l0.08,-0.062l0.08,-0.063l0.08,-0.063l0.079,-0.063l0.08,-0.063l0.079,-0.064l0.079,-0.063l0.078,-0.065l0.079,-0.064l0.078,-0.064l0.078,-0.065l0.078,-0.065l0.078,-0.065l0.078,-0.065l0.077,-0.066l0.077,-0.066l0.077,-0.066l0.077,-0.066l0.076,-0.067l0.077,-0.066l0.076,-0.067l0.076,-0.068l0.076,-0.067l0.075,-0.068l0.075,-0.068l0.076,-0.068l0.075,-0.068l0.074,-0.068l0.075,-0.069l0.074,-0.069l0.074,-0.069l0.074,-0.07l0.074,-0.069l0.073,-0.07l0.074,-0.07l0.073,-0.071l0.072,-0.07l0.073,-0.071l0.072,-0.071l0.073,-0.071l0.072,-0.071l0.071,-0.072l0.072,-0.072l0.071,-0.072l0.072,-0.072l0.07,-0.072l0.071,-0.073l0.071,-0.073l0.07,-0.073l0.07,-0.073l0.07,-0.074l0.069,-0.073l0.07,-0.074l0.069,-0.074l0.069,-0.075l0.069,-0.074l0.068,-0.075l0.069,-0.075l0.068,-0.075l0.068,-0.075l0.067,-0.076l0.068,-0.075l0.067,-0.076l0.067,-0.076l0.067,-0.077l0.066,-0.076l0.066,-0.077l0.066,-0.077l0.066,-0.077l0.066,-0.078l0.065,-0.077l0.065,-0.078l0.065,-0.078l0.065,-0.078l0.065,-0.078l0.064,-0.079l0.064,-0.079l0.064,-0.079l0.063,-0.079l0.063,-0.079l0.063,-0.079l0.063,-0.08l0.063,-0.08l0.062,-0.08l0.062,-0.08l0.062,-0.081l0.062,-0.081l0.061,-0.08l0.062,-0.081l0.061,-0.082l0.06,-0.081l0.061,-0.082l0.06,-0.082l0.06,-0.082l0.06,-0.082l0.059,-0.082l0.06,-0.083l0.059,-0.082l0.058,-0.083l0.059,-0.083l0.058,-0.084l0.058,-0.083l0.058,-0.084l0.058,-0.083l0.057,-0.084l0.057,-0.085l0.057,-0.084l0.057,-0.085l0.056,-0.084l0.056,-0.085l0.056,-0.085l0.055,-0.086l0.056,-0.085l0.055,-0.086l0.055,-0.085l0.054,-0.086l0.055,-0.086l0.054,-0.087l0.053,-0.086l0.054,-0.087l0.053,-0.087l0.053,-0.087l0.053,-0.087l0.053,-0.087l0.052,-0.088l0.052,-0.087l0.052,-0.088l0.051,-0.088l0.052,-0.089l0.051,-0.088l0.051,-0.088l0.05,-0.089l0.05,-0.089l0.05,-0.089l0.05,-0.089l0.049,-0.09l0.05,-0.089l0.048,-0.09l0.049,-0.09l0.049,-0.09l0.048,-0.09l0.048,-0.09l0.047,-0.091l0.047,-0.09l0.048,-0.091l0.046,-0.091l0.047,-0.091l0.046,-0.092l0.046,-0.091l0.046,-0.092l0.045,-0.092l0.046,-0.091l0.044,-0.093l0.045,-0.092l0.044,-0.092l0.045,-0.093l0.043,-0.092l0.044,-0.093l0.043,-0.093l0.043,-0.093l0.043,-0.094l0.042,-0.093l0.043,-0.094l0.042,-0.094l0.041,-0.094l0.042,-0.094l0.041,-0.094l0.04,-0.094l0.041,-0.095l0.04,-0.094l0.04,-0.095l0.04,-0.095l0.039,-0.095l0.039,-0.096l0.039,-0.095l0.039,-0.095l0.038,-0.096l0.038,-0.096l0.038,-0.096l0.037,-0.096l0.037,-0.096l0.037,-0.097l0.037,-0.096l0.036,-0.097l0.036,-0.097l0.036,-0.097l0.035,-0.097l0.035,-0.097l0.035,-0.097l0.034,-0.098l0.035,-0.098l0.034,-0.097l0.033,-0.098l0.034,-0.098l0.033,-0.098l0.033,-0.099l0.032,-0.098l0.032,-0.099l0.032,-0.098l0.032,-0.099l0.031,-0.099l0.031,-0.099l0.031,-0.1l0.03,-0.099l0.03,-0.1l0.03,-0.099l0.03,-0.1l0.029,-0.1l0.029,-0.1l0.029,-0.1l0.028,-0.1l0.028,-0.101l0.028,-0.1l0.027,-0.101l0.027,-0.1l0.027,-0.101l0.027,-0.101l0.026,-0.101l0.026,-0.102l0.025,-0.101l0.026,-0.102l0.025,-0.101l0.024,-0.102l0.025,-0.102l0.024,-0.102l0.024,-0.102l0.023,-0.102l0.023,-0.102l0.023,-0.103l0.022,-0.102l0.023,-0.103l0.022,-0.103l0.021,-0.103l0.021,-0.103l0.021,-0.103l0.021,-0.103l0.02,-0.103l0.02,-0.104l0.02,-0.104l0.019,-0.103l0.02,-0.104l0.018,-0.104l0.019,-0.104l0.018,-0.104l0.018,-0.104l0.017,-0.105l0.017,-0.104l0.017,-0.105l0.017,-0.104l0.016,-0.105l0.016,-0.105l0.015,-0.105l0.015,-0.105l0.015,-0.105l0.015,-0.106l0.014,-0.105l0.014,-0.105l0.014,-0.106l0.013,-0.106l0.013,-0.106l0.013,-0.105l0.012,-0.106l0.012,-0.107l0.012,-0.106l0.011,-0.106l0.011,-0.106l0.011,-0.107l0.01,-0.106l0.01,-0.107l0.009,-0.107l0.01,-0.107l0.009,-0.107l0.008,-0.107l0.009,-0.107l0.008,-0.107l0.008,-0.108l0.007,-0.107l0.007,-0.108l0.006,-0.107l0.007,-0.108l0.006,-0.108l0.005,-0.108l0.006,-0.108l0.005,-0.108l0.004,-0.108l0.005,-0.108l0.004,-0.108l0.003,-0.109l0.003,-0.108l0.003,-0.109l0.003,-0.108l0.002,-0.109l0.002,-0.109l0.002,-0.109l0.001,-0.109l0.001,-0.109l0,-0.109l0,-0.109l0,-0.11l0,-0.109l-0.001,-0.109l-0.001,-0.109l-0.002,-0.109l-0.002,-0.109l-0.002,-0.108l-0.003,-0.109l-0.003,-0.109l-0.003,-0.108l-0.003,-0.108l-0.004,-0.109l-0.005,-0.108l-0.004,-0.108l-0.005,-0.108l-0.006,-0.108l-0.005,-0.108l-0.006,-0.108l-0.007,-0.108l-0.006,-0.107l-0.007,-0.108l-0.007,-0.107l-0.008,-0.107l-0.008,-0.108l-0.009,-0.107l-0.008,-0.107l-0.009,-0.107l-0.01,-0.107l-0.009,-0.107l-0.01,-0.106l-0.01,-0.107l-0.011,-0.106l-0.011,-0.107l-0.011,-0.106l-0.012,-0.106l-0.012,-0.106l-0.012,-0.106l-0.013,-0.106l-0.013,-0.106l-0.013,-0.106l-0.014,-0.105l-0.014,-0.106l-0.014,-0.105l-0.015,-0.105l-0.015,-0.106l-0.015,-0.105l-0.015,-0.105l-0.016,-0.105l-0.016,-0.104l-0.017,-0.105l-0.017,-0.105l-0.017,-0.104l-0.017,-0.104l-0.018,-0.105l-0.018,-0.104l-0.019,-0.104l-0.018,-0.104l-0.02,-0.103l-0.019,-0.104l-0.02,-0.104l-0.02,-0.103l-0.02,-0.104l-0.021,-0.103l-0.021,-0.103l-0.021,-0.103l-0.021,-0.103l-0.022,-0.103l-0.023,-0.102l-0.022,-0.103l-0.023,-0.102l-0.023,-0.103l-0.023,-0.102l-0.024,-0.102l-0.024,-0.102l-0.025,-0.102l-0.024,-0.101l-0.025,-0.102l-0.026,-0.102l-0.025,-0.101l-0.026,-0.101l-0.026,-0.101l-0.027,-0.101l-0.027,-0.101l-0.027,-0.101l-0.027,-0.101l-0.028,-0.1l-0.028,-0.101l-0.028,-0.1l-0.029,-0.1l-0.029,-0.1l-0.029,-0.1l-0.03,-0.1l-0.03,-0.099l-0.03,-0.1l-0.03,-0.099l-0.031,-0.099l-0.031,-0.099l-0.031,-0.099l-0.032,-0.099l-0.032,-0.099l-0.032,-0.098l-0.032,-0.099l-0.033,-0.098l-0.033,-0.098l-0.034,-0.098l-0.033,-0.098l-0.034,-0.098l-0.035,-0.098l-0.034,-0.097l-0.035,-0.098l-0.035,-0.097l-0.035,-0.097l-0.036,-0.097l-0.036,-0.097l-0.036,-0.096l-0.037,-0.097l-0.037,-0.096l-0.037,-0.097l-0.037,-0.096l-0.038,-0.096l-0.038,-0.096l-0.038,-0.095l-0.039,-0.096l-0.039,-0.095l-0.039,-0.095l-0.039,-0.095l-0.04,-0.095l-0.04,-0.095l-0.04,-0.095l-0.041,-0.094l-0.04,-0.095l-0.041,-0.094l-0.042,-0.094l-0.041,-0.094l-0.042,-0.094l-0.043,-0.093l-0.042,-0.094l-0.043,-0.093l-0.043,-0.093l-0.043,-0.093l-0.044,-0.093l-0.043,-0.093l-0.045,-0.093l-0.044,-0.092l-0.045,-0.092l-0.044,-0.092l-0.046,-0.092l-0.045,-0.092l-0.046,-0.092l-0.046,-0.091l-0.046,-0.091l-0.047,-0.091l-0.046,-0.091l-0.048,-0.091l-0.047,-0.091l-0.047,-0.09l-0.048,-0.091l-0.048,-0.09l-0.049,-0.09l-0.049,-0.09l-0.048,-0.09l-0.05,-0.089l-0.049,-0.089l-0.05,-0.09l-0.05,-0.089l-0.05,-0.089l-0.05,-0.088l-0.051,-0.089l-0.051,-0.088l-0.052,-0.088l-0.051,-0.088l-0.052,-0.088l-0.052,-0.088l-0.052,-0.087l-0.053,-0.088l-0.053,-0.087l-0.053,-0.087l-0.053,-0.087l-0.054,-0.086l-0.053,-0.087l-0.054,-0.086l-0.055,-0.086l-0.054,-0.086l-0.055,-0.086l-0.055,-0.086l-0.056,-0.085l-0.055,-0.085l-0.056,-0.085l-0.056,-0.085l-0.056,-0.085l-0.057,-0.085l-0.057,-0.084l-0.057,-0.084l-0.057,-0.084l-0.058,-0.084l-0.058,-0.084l-0.058,-0.083l-0.058,-0.083l-0.059,-0.083l-0.058,-0.083l-0.059,-0.083l-0.06,-0.083l-0.059,-0.082l-0.06,-0.082l-0.06,-0.082l-0.06,-0.082l-0.061,-0.082l-0.06,-0.081l-0.061,-0.081l-0.062,-0.081l-0.061,-0.081l-0.062,-0.081l-0.062,-0.08l-0.062,-0.081l-0.062,-0.08l-0.063,-0.08l-0.063,-0.079l-0.063,-0.08l-0.063,-0.079l-0.063,-0.079l-0.064,-0.079l-0.064,-0.079l-0.064,-0.078l-0.065,-0.079l-0.065,-0.078l-0.065,-0.078l-0.065,-0.078l-0.065,-0.077l-0.066,-0.077l-0.066,-0.078l-0.066,-0.077l-0.066,-0.076l-0.066,-0.077l-0.067,-0.076l-0.067,-0.076l-0.067,-0.076l-0.068,-0.076l-0.067,-0.076l-0.068,-0.075l-0.068,-0.075l-0.069,-0.075l-0.068,-0.075l-0.069,-0.074l-0.069,-0.075l-0.069,-0.074l-0.07,-0.073l-0.069,-0.074l-0.07,-0.074l-0.07,-0.073l-0.07,-0.073l-0.071,-0.073l-0.071,-0.072l-0.07,-0.073l-0.072,-0.072l-0.071,-0.072l-0.072,-0.072l-0.071,-0.071l-0.072,-0.072l-0.073,-0.071l-0.072,-0.071l-0.073,-0.071l-0.072,-0.07l-0.073,-0.07l-0.074,-0.07l-0.073,-0.07l-0.074,-0.07l-0.074,-0.069l-0.074,-0.07l-0.074,-0.068l-0.075,-0.069l-0.074,-0.069l-0.075,-0.068l-0.076,-0.068l-0.075,-0.068l-0.075,-0.068l-0.076,-0.067l-0.076,-0.067l-0.076,-0.067l-0.077,-0.067l-0.076,-0.067l-0.077,-0.066l-0.077,-0.066l-0.077,-0.066l-0.077,-0.065l-0.078,-0.066l-0.078,-0.065l-0.078,-0.065l-0.078,-0.064l-0.078,-0.065l-0.079,-0.064l-0.078,-0.064l-0.079,-0.064l-0.079,-0.064l-0.08,-0.063l-0.079,-0.063l-0.08,-0.063l-0.08,-0.062l-0.08,-0.063l-0.08,-0.062l-0.081,-0.062l-0.08,-0.061l-0.081,-0.062l-0.081,-0.061l-0.081,-0.061l-0.082,-0.061l-0.081,-0.06l-0.082,-0.06l-0.082,-0.06l-0.082,-0.06l-0.083,-0.06l-0.082,-0.059l-0.083,-0.059l-0.083,-0.059l-0.083,-0.058l-0.083,-0.059l-0.084,-0.058l-0.083,-0.058l-0.084,-0.057l-0.084,-0.057l-0.084,-0.058l-0.085,-0.056l-0.084,-0.057l-0.085,-0.056l-0.085,-0.056l-0.085,-0.056l-0.085,-0.056l-0.086,-0.055l-0.085,-0.055l-0.086,-0.055l-0.086,-0.055l-0.086,-0.054l-0.087,-0.054l-0.086,-0.054l-0.087,-0.053l-0.086,-0.054l-0.087,-0.053l-0.088,-0.053l-0.087,-0.052l-0.088,-0.053l-0.087,-0.052l-0.088,-0.051l-0.088,-0.052l-0.088,-0.051l-0.089,-0.051l-0.088,-0.051l-0.089,-0.05l-0.089,-0.051l-0.089,-0.05l-0.089,-0.049l-0.089,-0.05l-0.09,-0.049l-0.09,-0.049l-0.089,-0.049l-0.09,-0.048l-0.091,-0.048l-0.09,-0.048l-0.09,-0.048l-0.091,-0.047l-0.091,-0.047l-0.091,-0.047l-0.091,-0.046l-0.091,-0.047l-0.092,-0.046l-0.091,-0.045l-0.092,-0.046l-0.092,-0.045l-0.092,-0.045l-0.092,-0.045l-0.093,-0.044l-0.092,-0.044l-0.093,-0.044l-0.093,-0.043l-0.093,-0.044l-0.093,-0.043l-0.094,-0.042l-0.093,-0.043l-0.094,-0.042l-0.093,-0.042l-0.094,-0.042l-0.094,-0.041l-0.095,-0.041l-0.094,-0.041l-0.094,-0.04l-0.095,-0.041l-0.095,-0.04l-0.095,-0.039l-0.095,-0.04l-0.095,-0.039l-0.096,-0.039l-0.095,-0.038l-0.096,-0.038l-0.096,-0.038l-0.096,-0.038l-0.096,-0.038l-0.096,-0.037l-0.096,-0.036l-0.097,-0.037l-0.097,-0.036l-0.096,-0.036l-0.097,-0.036l-0.098,-0.035l-0.097,-0.036l-0.097,-0.034l-0.098,-0.035l-0.097,-0.034l-0.098,-0.034l-0.098,-0.034l-0.098,-0.033l-0.098,-0.033l-0.098,-0.033l-0.099,-0.033l-0.099,-0.032l-0.098,-0.032l-0.099,-0.031l-0.099,-0.032l-0.099,-0.031l-0.099,-0.03l-0.1,-0.031l-0.099,-0.03l-0.1,-0.03l-0.1,-0.029l-0.1,-0.029l-0.1,-0.029l-0.1,-0.029l-0.1,-0.028l-0.1,-0.028l-0.101,-0.028l-0.1,-0.028l-0.101,-0.027l-0.101,-0.027l-0.101,-0.026l-0.101,-0.026l-0.101,-0.026l-0.102,-0.026l-0.101,-0.025l-0.102,-0.025l-0.102,-0.025l-0.102,-0.024l-0.101,-0.024l-0.103,-0.024l-0.102,-0.023l-0.102,-0.024l-0.103,-0.022l-0.102,-0.023l-0.103,-0.022l-0.103,-0.022l-0.102,-0.022l-0.103,-0.021l-0.104,-0.021l-0.103,-0.02l-0.103,-0.021l-0.104,-0.02l-0.103,-0.019l-0.104,-0.02l-0.104,-0.019l-0.104,-0.019l-0.104,-0.018l-0.104,-0.018l-0.104,-0.018l-0.104,-0.017l-0.105,-0.018l-0.104,-0.016l-0.105,-0.017l-0.105,-0.016l-0.105,-0.016l-0.105,-0.016l-0.105,-0.015l-0.105,-0.015l-0.105,-0.014l-0.106,-0.015l-0.105,-0.014l-0.106,-0.013l-0.105,-0.013l-0.106,-0.013l-0.106,-0.013l-0.106,-0.012l-0.106,-0.012l-0.106,-0.012l-0.107,-0.011l-0.106,-0.011l-0.107,-0.011l-0.106,-0.01l-0.107,-0.01l-0.107,-0.01l-0.107,-0.009l-0.107,-0.009l-0.107,-0.009l-0.107,-0.008l-0.107,-0.008l-0.107,-0.008l-0.108,-0.007l-0.107,-0.007l-0.108,-0.007l-0.108,-0.006l-0.107,-0.006l-0.108,-0.006l-0.108,-0.005l-0.108,-0.005l-0.108,-0.005l-0.109,-0.004l-0.108,-0.004l-0.108,-0.004l-0.109,-0.003l-0.108,-0.003l-0.109,-0.002l-0.109,-0.003l-0.109,-0.002l-0.109,-0.001l-0.109,-0.001l-0.109,-0.001l-0.109,-0.001l-0.109,0l-0.109,0Z" style="fill:#18001f;"/><path id="Gamma" d="M12.279,17.865c-1.029,-4.275 -3.214,-13.165 -3.596,-14.162c-0.477,-1.244 -1.016,-0.29 -0.995,0.415c0.021,0.704 0.332,1.119 0.332,1.119c0,0 -1.208,-0.589 -0.912,-2.135c0.25,-1.307 1.113,-1.438 1.469,-1.039c0.213,0.239 0.361,0.763 0.417,0.956c0.076,0.264 2.167,8.754 3.514,14.141l-0.001,0.004c2.04,-6.1 4.937,-12.164 6.977,-15.242c1.568,-2.364 2.64,-1.726 3.2,-1.27c0.56,0.456 0.61,0.999 0.61,0.999c0,0 -0.347,-0.539 -0.961,-0.621c-0.576,-0.077 -1.556,0.271 -2.998,2.492c-2.569,3.956 -4.415,8.576 -6.56,14.706c0,0 0,-0.001 0,-0.001c0.392,1.561 0.689,2.728 0.803,3.138c0.904,3.255 -1.661,4.618 -2.153,1.568c-0.181,-1.121 0.187,-2.947 0.854,-5.068Zm-0.508,4.864c-0.065,-0.932 0.764,-3.798 0.764,-3.798c0.121,0.509 0.208,0.88 0.251,1.07c0.315,1.404 0.42,2.436 0.332,2.977c-0.185,1.139 -1.243,1.24 -1.347,-0.249Zm0.508,-4.864l0.001,0.004l0,-0.005l-0.001,0.001Z" style="stroke:#000;stroke-width:0.24px;"/></g><defs><radialGradient id="_Radial1" cx="0" cy="0" r="1" gradientUnits="userSpaceOnUse" gradientTransform="matrix(33.7915,0,0,33.7915,37.9209,46.3127)"><stop offset="0" style="stop-color:#24572d;stop-opacity:1"/><stop offset="0.6" style="stop-color:#1e4d25;stop-opacity:1"/><stop offset="0.81" style="stop-color:#0f3613;stop-opacity:1"/><stop offset="1" style="stop-color:#001f00;stop-opacity:1"/></radialGradient></defs></svg>