<?xml version="1.0" encoding="UTF-8" standalone="no"?><!DOCTYPE svg PUBLIC "-//W3C//DTD SVG 1.1//EN" "http://www.w3.org/Graphics/SVG/1.1/DTD/svg11.dtd"><svg width="100%" height="100%" viewBox="0 0 170 170" version="1.1" xmlns="http://www.w3.org/2000/svg" xmlns:xlink="http://www.w3.org/1999/xlink" xml:space="preserve" xmlns:serif="http://www.serif.com/" style="fill-rule:evenodd;clip-rule:evenodd;stroke-linecap:square;stroke-linejoin:round;stroke-miterlimit:1.5;"><g id="Gamma-InfectionCard" serif:id="Gamma InfectionCard"><path d="M13.958,0.672c-7.418,0.006 -13.436,6.033 -13.43,13.45l0.111,141.12c0.006,7.418 6.033,13.435 13.451,13.43l141.12,-0.111c7.417,-0.006 13.435,-6.033 13.429,-13.451l-0.111,-141.12c-0.006,-7.418 -6.033,-13.435 -13.45,-13.429l-141.12,0.111Z" style="fill:url(#_Linear1);stroke:#00191f;stroke-width:1px;"/><path d="M92.444,98.438c-2.031,-3.337 -3.21,-7.307 -3.21,-11.565c0,-11.807 9.063,-21.397 20.238,-21.429c-9.439,0.031 -17.093,7.704 -17.093,17.15c0,5.435 2.533,10.283 6.483,13.426l0,0l0.043,0.034l-0.043,-0.034c2.857,-2.484 6.588,-3.988 10.667,-3.988c4.079,0 7.81,1.504 10.667,3.988l-0.043,0.034l0.043,-0.034l0,0c3.949,-3.143 6.483,-7.991 6.483,-13.426c0,-9.446 -7.654,-17.119 -17.093,-17.15c11.175,0.032 20.238,9.622 20.238,21.429c0,4.258 -1.179,8.228 -3.211,11.565c3.906,-0.09 7.934,0.874 11.622,3.003c10.225,5.903 13.998,18.547 8.439,28.241c4.693,-8.19 1.875,-18.655 -6.306,-23.378c-4.707,-2.717 -10.172,-2.947 -14.869,-1.098l0,0l-0.05,0.02l0.05,-0.02c0.723,3.716 0.16,7.699 -1.879,11.232c-2.04,3.532 -5.208,6.011 -8.788,7.243l-0.008,-0.053l0.008,0.053l0,0c0.748,4.992 3.679,9.61 8.386,12.328c8.181,4.723 18.653,1.931 23.399,-6.228c-5.616,9.662 -18.452,12.716 -28.678,6.812c-3.687,-2.129 -6.536,-5.135 -8.41,-8.563c-1.874,3.428 -4.723,6.434 -8.411,8.563c-10.225,5.904 -23.061,2.85 -28.677,-6.812c4.746,8.159 15.218,10.951 23.399,6.228c4.707,-2.718 7.638,-7.336 8.385,-12.328l0,0l0.008,-0.053l-0.008,0.053c-3.579,-1.232 -6.747,-3.711 -8.787,-7.243c-2.039,-3.533 -2.602,-7.516 -1.879,-11.232l0.05,0.02l-0.05,-0.02l0,0c-4.697,-1.849 -10.162,-1.619 -14.869,1.098c-8.181,4.723 -10.999,15.188 -6.306,23.378c-5.559,-9.694 -1.786,-22.338 8.439,-28.241c3.688,-2.129 7.715,-3.093 11.621,-3.003Zm11.796,25.141l0.001,-0.005l-0.006,0.04l0.005,-0.035Zm10.582,0.034l-0.005,-0.039l0,0.005l0.005,0.034Zm-10.574,-0.085l0,-0.007l-0.004,0.035l0.004,-0.028Zm10.566,0.027l-0.005,-0.034l0.001,0.007l0.004,0.027Zm-10.559,-0.078l0.001,-0.009l-0.005,0.033l0.004,-0.024Zm10.551,0.023l-0.004,-0.032l0.001,0.009l0.003,0.023Zm-10.544,-0.074l0.001,-0.012l-0.004,0.033l0.003,-0.021Zm10.537,0.02l-0.004,-0.031l0.001,0.011l0.003,0.02Zm-10.531,-0.071l0.002,-0.014l-0.004,0.032l0.002,-0.018Zm10.524,0.017l-0.004,-0.031l0.001,0.014l0.003,0.017Zm-10.517,-0.069l0.002,-0.016l-0.004,0.032l0.002,-0.016Zm10.51,0.016l-0.004,-0.031l0.002,0.015l0.002,0.016Zm-10.503,-0.067l0.002,-0.018l-0.004,0.032l0.002,-0.014Zm10.496,0.013l-0.004,-0.031l0.002,0.018l0.002,0.013Zm-10.49,-0.064l0.002,-0.022l-0.004,0.033l0.002,-0.011Zm10.483,0.011l-0.004,-0.032l0.003,0.021l0.001,0.011Zm-10.477,-0.062l0.003,-0.026l-0.004,0.035l0.001,-0.009Zm10.471,0.009l-0.004,-0.033l0.003,0.024l0.001,0.009Zm-10.465,-0.06l0.004,-0.031l-0.005,0.037l0.001,-0.006Zm10.458,0.006l-0.004,-0.035l0.004,0.029l0,0.006Zm-10.452,-0.057l0.004,-0.041l-0.005,0.045l0.001,-0.004Zm10.446,0.004l-0.004,-0.042l0.004,0.038l0,0.004Zm-10.434,-0.11l-0.001,0.003l0,0l0,-0.001l0.001,-0.002Zm10.422,0.001l-0.005,-0.052l0,0.003l0.005,0.049Zm-10.412,-0.1l0,-0.006l-0.004,0.041l0.004,-0.035Zm10.405,0.032l-0.004,-0.038l0.001,0.006l0.003,0.032Zm-10.4,-0.084l0.001,-0.008l-0.004,0.037l0.003,-0.029Zm10.394,0.027l-0.003,-0.034l0.001,0.007l0.002,0.027Zm-10.389,-0.078l0.001,-0.01l-0.003,0.034l0.002,-0.024Zm10.384,0.023l-0.003,-0.033l0.001,0.01l0.002,0.023Zm-10.379,-0.074l0.001,-0.013l-0.003,0.034l0.002,-0.021Zm10.374,0.02l-0.003,-0.032l0.001,0.012l0.002,0.02Zm-10.37,-0.072l0.002,-0.015l-0.003,0.033l0.001,-0.018Zm10.365,0.017l-0.003,-0.031l0.001,0.014l0.002,0.017Zm-10.36,-0.068l0.001,-0.018l-0.002,0.033l0.001,-0.015Zm10.355,0.015l-0.003,-0.032l0.002,0.017l0.001,0.015Zm-10.351,-0.067l0.002,-0.02l-0.003,0.034l0.001,-0.014Zm10.347,0.013l-0.003,-0.032l0.001,0.019l0.002,0.013Zm-10.343,-0.064l0.002,-0.024l-0.002,0.035l0,-0.011Zm10.338,0.01l-0.003,-0.033l0.002,0.023l0.001,0.01Zm-10.334,-0.062l0.003,-0.028l-0.003,0.037l0,-0.009Zm10.33,0.008l-0.003,-0.034l0.002,0.026l0.001,0.008Zm-10.326,-0.059l0.003,-0.035l-0.003,0.041l0,-0.006Zm10.322,0.006l-0.003,-0.038l0.002,0.032l0.001,0.006Zm-0.004,-0.054l-0.003,-0.049l0.003,0.045l0,0.004Zm-10.31,-0.055l0,0.001l-0.001,0.004l0.001,-0.003l0,-0.002Zm0.006,-0.103l0.001,-0.005l-0.004,0.053l0.003,-0.048Zm10.296,0.042l-0.003,-0.046l0,0.004l0.003,0.042Zm-10.293,-0.094l0.001,-0.006l-0.003,0.041l0.002,-0.035Zm10.289,0.031l-0.002,-0.037l0,0.006l0.002,0.031Zm-10.286,-0.082l0.001,-0.009l-0.002,0.037l0.001,-0.028Zm10.283,0.026l-0.002,-0.035l0,0.009l0.002,0.026Zm-10.28,-0.078l0.001,-0.011l-0.002,0.035l0.001,-0.024Zm10.277,0.023l-0.002,-0.033l0.001,0.01l0.001,0.023Zm-10.274,-0.074l0,-0.014l-0.001,0.034l0.001,-0.02Zm10.271,0.019l-0.002,-0.032l0.001,0.013l0.001,0.019Zm-10.269,-0.071l0.001,-0.016l-0.002,0.034l0.001,-0.018Zm10.266,0.017l-0.001,-0.032l0,0.015l0.001,0.017Zm-10.263,-0.069l0,-0.019l-0.001,0.035l0.001,-0.016Zm10.261,0.015l-0.002,-0.033l0.001,0.018l0.001,0.015Zm-10.259,-0.066l0.001,-0.023l-0.002,0.035l0.001,-0.012Zm10.256,0.012l-0.001,-0.033l0.001,0.021l0,0.012Zm-10.254,-0.064l0.001,-0.026l-0.002,0.036l0.001,-0.01Zm10.252,0.01l-0.001,-0.034l0.001,0.024l0,0.01Zm-10.25,-0.062l0.001,-0.031l-0.002,0.039l0.001,-0.008Zm10.248,0.008l-0.001,-0.036l0.001,0.028l0,0.008Zm-10.247,-0.059l0.002,-0.04l-0.002,0.045l0,-0.005Zm10.245,0.005l-0.001,-0.041l0.001,0.036l0,0.005Zm-0.003,-0.11l0,0.002l0,0.002l0,-0.002l0,-0.002Zm-10.239,0l0,0.002l0,0.001l0,-0.001l0,-0.002Zm0.003,-0.102l0,-0.005l-0.001,0.047l0.001,-0.042Zm10.235,0.038l-0.001,-0.043l0,0.005l0.001,0.038Zm-10.234,-0.09l0,-0.007l-0.001,0.04l0.001,-0.033Zm10.233,0.03l-0.001,-0.037l0,0.007l0.001,0.03Zm-10.233,-0.081l0.001,-0.011l-0.001,0.038l0,-0.027Zm10.232,0.025l-0.001,-0.035l0,0.01l0.001,0.025Zm-10.231,-0.077l0,-0.013l0,0.036l0,-0.023Zm10.23,0.022l0,-0.034l0,0.012l0,0.022Zm-10.229,-0.074l0,-0.015l-0.001,0.035l0.001,-0.02Zm10.228,0.019l0,-0.033l0,0.014l0,0.019Zm-10.228,-0.071l0,-0.017l0,0.034l0,-0.017Zm10.228,0.016l0,-0.033l0,0.017l0,0.016Zm-10.228,-0.068l0,-0.02l0,0.035l0,-0.015Zm10.228,0.014l0,-0.033l0,0.019l0,0.014Zm-10.228,-0.065l0,-0.024l0,0.036l0,-0.012Zm10.228,0.011l0,-0.034l0,0.023l0,0.011Zm-10.228,-0.063l0,-0.028l0,0.038l0,-0.01Zm10.228,0.009l0,-0.036l0,0.027l0,0.009Zm-10.228,-0.061l-0.001,-0.034l0.001,0.041l0,-0.007Zm10.228,0.007l0,-0.039l0,0.032l0,0.007Zm-10.229,-0.059l-0.001,-0.047l0.001,0.052l0,-0.005Zm10.23,0.005l0,-0.048l0,0.043l0,0.005Zm0.001,-0.113l0,0.004l0,0.002l0,-0.002l0,-0.004Zm-10.232,0.004l0,0l-0.001,-0.055l0.001,0.055Zm-0.002,-0.103l-0.001,-0.006l0.001,0.044l0,-0.038Zm10.235,0.036l0.001,-0.042l0,0.006l-0.001,0.036Zm-10.237,-0.088l0,-0.008l0.001,0.039l-0.001,-0.031Zm10.239,0.029l0.001,-0.037l-0.001,0.008l0,0.029Zm-10.24,-0.081l0,-0.011l0.001,0.037l-0.001,-0.026Zm10.241,0.025l0.001,-0.035l0,0.01l-0.001,0.025Zm-10.243,-0.077l0,-0.013l0.001,0.036l-0.001,-0.023Zm10.245,0.022l0.001,-0.035l-0.001,0.013l0,0.022Zm-10.246,-0.073l-0.001,-0.016l0.001,0.035l0,-0.019Zm10.247,0.018l0.002,-0.034l-0.001,0.016l-0.001,0.018Zm-10.249,-0.07l-0.001,-0.019l0.001,0.035l0,-0.016Zm10.251,0.016l0.002,-0.035l-0.001,0.019l-0.001,0.016Zm-10.253,-0.068l-0.001,-0.022l0.001,0.036l0,-0.014Zm10.255,0.013l0.002,-0.035l-0.001,0.022l-0.001,0.013Zm-10.258,-0.065l-0.001,-0.025l0.002,0.036l-0.001,-0.011Zm10.261,0.011l0.001,-0.036l-0.001,0.025l0,0.011Zm-10.263,-0.063l-0.001,-0.03l0.002,0.039l-0.001,-0.009Zm10.265,0.009l0.002,-0.039l-0.001,0.03l-0.001,0.009Zm-10.267,-0.061l-0.002,-0.037l0.002,0.044l0,-0.007Zm10.27,0.007l0.002,-0.044l-0.002,0.037l0,0.007Zm0.006,-0.109l-0.003,0.055l0.003,-0.055l0,0Zm-10.283,-0.02l0.001,0.016l0,-0.003l-0.001,-0.013l-0.002,-0.036l0,0l0.002,0.036Zm9.575,-14.418c-0.796,-1.372 -2.209,-2.341 -3.859,-2.525l0,-3.48c2.541,-0.083 4.943,-0.721 7.089,-1.796c-2.159,-1.501 -4.805,-2.386 -7.663,-2.386c-2.858,0 -5.505,0.885 -7.664,2.386c2.146,1.075 4.548,1.713 7.089,1.796l0,3.48c-1.649,0.184 -3.063,1.153 -3.858,2.525l-0.002,0.003l-0.002,0.003c-0.79,1.375 -0.922,3.084 -0.257,4.604l-3.013,1.74c-1.344,-2.159 -3.097,-3.92 -5.1,-5.241c-0.221,2.62 0.336,5.354 1.765,7.829c1.429,2.475 3.518,4.325 5.898,5.444c-0.142,-2.396 -0.791,-4.795 -1.989,-7.037l3.013,-1.74c0.985,1.336 2.531,2.076 4.116,2.079l0.004,0l0.004,0c1.585,-0.003 3.131,-0.743 4.116,-2.079l3.013,1.74c-1.198,2.242 -1.847,4.641 -1.989,7.037c2.38,-1.119 4.469,-2.969 5.898,-5.444c1.429,-2.475 1.986,-5.209 1.765,-7.829c-2.003,1.321 -3.757,3.082 -5.1,5.241l-3.013,-1.74c0.665,-1.52 0.532,-3.229 -0.258,-4.604l-0.002,-0.003l-0.001,-0.003Zm8.416,1.081l-0.011,0.008l-0.031,0.02l0,0l0.031,-0.02l0.012,-0.009l-0.001,0.001Zm-25.703,-0.003l0,0l-0.046,-0.03l0.046,0.03Zm25.794,-0.056l-0.032,0.021l0.037,-0.025l-0.005,0.004Zm-25.886,-0.003l0.037,0.023l-0.031,-0.02l-0.006,-0.003Zm25.93,-0.025l-0.026,0.016l0.033,-0.021l-0.007,0.005Zm-25.975,-0.005l0.032,0.021l-0.025,-0.016l-0.007,-0.005Zm26.018,-0.023l-0.021,0.014l0.031,-0.02l-0.01,0.006Zm-26.064,-0.006l0.031,0.019l-0.022,-0.013l-0.009,-0.006Zm26.108,-0.022l-0.018,0.012l0.03,-0.019l-0.012,0.007Zm-26.154,-0.007l0.03,0.019l-0.018,-0.012l-0.012,-0.007Zm26.198,-0.021l-0.016,0.01l0.03,-0.018l-0.014,0.008Zm-26.244,-0.008l0.029,0.018l-0.015,-0.01l-0.014,-0.008Zm26.288,-0.019l-0.014,0.008l0.03,-0.018l-0.016,0.01Zm-26.334,-0.01l0.029,0.018l-0.013,-0.008l-0.016,-0.01Zm26.378,-0.018l-0.011,0.008l0.03,-0.019l-0.019,0.011Zm-26.425,-0.011l0.03,0.018l-0.011,-0.007l-0.019,-0.011Zm26.469,-0.016l-0.009,0.006l0.031,-0.019l-0.022,0.013Zm-26.516,-0.013l0.031,0.019l-0.009,-0.006l-0.022,-0.013Zm26.56,-0.014l-0.007,0.005l0.033,-0.021l-0.026,0.016Zm-26.608,-0.015l0.032,0.019l-0.007,-0.004l-0.025,-0.015Zm26.653,-0.012l-0.006,0.003l0.038,-0.023l-0.032,0.02Zm-26.703,-0.019l0.036,0.022l-0.005,-0.003l-0.031,-0.019Zm26.79,-0.034l-0.047,0.028l0.048,-0.028l-0.001,0Zm-26.849,-0.001l0.002,0.001l0.003,0.002l-0.003,-0.002l-0.002,-0.001Zm26.939,-0.053l-0.04,0.024l0.045,-0.026l-0.005,0.002Zm-27.031,-0.002l0.041,0.024l-0.037,-0.022l-0.004,-0.002Zm27.076,-0.024l-0.03,0.017l0.036,-0.021l-0.006,0.004Zm-27.122,-0.003l0.033,0.019l-0.027,-0.016l-0.006,-0.003Zm27.167,-0.023l-0.025,0.014l0.033,-0.019l-0.008,0.005Zm-27.214,-0.005l0.031,0.018l-0.023,-0.013l-0.008,-0.005Zm27.258,-0.021l-0.02,0.012l0.031,-0.018l-0.011,0.006Zm-27.305,-0.006l0.03,0.017l-0.02,-0.011l-0.01,-0.006Zm27.35,-0.02l-0.018,0.01l0.031,-0.017l-0.013,0.007Zm-27.397,-0.007l0.029,0.017l-0.017,-0.01l-0.012,-0.007Zm27.442,-0.019l-0.015,0.009l0.03,-0.017l-0.015,0.008Zm-27.489,-0.008l0.029,0.017l-0.015,-0.009l-0.014,-0.008Zm27.534,-0.017l-0.013,0.007l0.031,-0.017l-0.018,0.01Zm-27.581,-0.01l0.029,0.017l-0.013,-0.007l-0.016,-0.01Zm27.626,-0.016l-0.011,0.006l0.031,-0.017l-0.02,0.011Zm-27.674,-0.011l0.03,0.017l-0.011,-0.006l-0.019,-0.011Zm27.719,-0.014l-0.008,0.005l0.032,-0.018l-0.024,0.013Zm-27.767,-0.013l0.031,0.017l-0.009,-0.004l-0.022,-0.013Zm27.813,-0.012l-0.007,0.003l0.035,-0.019l-0.028,0.016Zm-27.862,-0.015l0.032,0.018l-0.006,-0.003l-0.026,-0.015Zm27.907,-0.01l-0.005,0.002l0.042,-0.023l-0.037,0.021Zm-27.959,-0.019l0.037,0.021l-0.004,-0.002l-0.033,-0.019Zm-0.06,-0.032l0.002,0.001l0.002,0.001l-0.002,-0.001l-0.002,-0.001Zm28.111,0l-0.001,0.001l-0.002,0l0.002,0l0.001,-0.001Zm0.09,-0.048l-0.036,0.019l0.041,-0.022l-0.005,0.003Zm-28.294,-0.003l0.036,0.02l-0.032,-0.017l-0.004,-0.003Zm28.339,-0.022l-0.027,0.015l0.034,-0.018l-0.007,0.003Zm-28.387,-0.003l0.032,0.017l-0.026,-0.014l-0.006,-0.003Zm28.433,-0.021l-0.023,0.012l0.032,-0.017l-0.009,0.005Zm-28.481,-0.004l0.03,0.016l-0.021,-0.012l-0.009,-0.004Zm28.527,-0.02l-0.02,0.011l0.031,-0.017l-0.011,0.006Zm-28.574,-0.005l0.029,0.015l-0.019,-0.01l-0.01,-0.005Zm28.619,-0.019l-0.017,0.009l0.031,-0.016l-0.014,0.007Zm-28.667,-0.006l0.028,0.015l-0.016,-0.009l-0.012,-0.006Zm28.713,-0.018l-0.014,0.008l0.03,-0.016l-0.016,0.008Zm-28.761,-0.007l0.028,0.014l-0.014,-0.007l-0.014,-0.007Zm28.807,-0.016l-0.012,0.006l0.031,-0.016l-0.019,0.01Zm-28.856,-0.009l0.029,0.015l-0.012,-0.006l-0.017,-0.009Zm28.902,-0.015l-0.01,0.005l0.032,-0.016l-0.022,0.011Zm-28.951,-0.01l0.03,0.015l-0.01,-0.005l-0.02,-0.01Zm28.997,-0.013l-0.008,0.004l0.033,-0.017l-0.025,0.013Zm-29.046,-0.012l0.031,0.016l-0.008,-0.004l-0.023,-0.012Zm29.092,-0.011l-0.006,0.003l0.037,-0.019l-0.031,0.016Zm-29.143,-0.014l0.034,0.016l-0.006,-0.002l-0.028,-0.014Zm29.19,-0.009l-0.004,0.002l0.046,-0.024l-0.042,0.022Zm-29.245,-0.019l0.041,0.02l-0.004,-0.001l-0.037,-0.019Zm29.342,-0.029l-0.003,0.001l-0.002,0.001l0.001,-0.001l0.004,-0.001Zm-29.447,-0.022l0.044,0.021l-0.041,-0.02l-0.003,-0.001Zm29.535,-0.021l-0.032,0.015l0.038,-0.018l-0.006,0.003Zm-29.583,-0.003l0.033,0.017l-0.028,-0.014l-0.005,-0.003Zm29.63,-0.02l-0.026,0.013l0.033,-0.016l-0.007,0.003Zm-29.679,-0.003l0.031,0.015l-0.024,-0.012l-0.007,-0.003Zm29.725,-0.019l-0.022,0.01l0.032,-0.015l-0.01,0.005Zm-29.774,-0.004l0.03,0.014l-0.02,-0.01l-0.01,-0.004Zm29.821,-0.018l-0.019,0.009l0.031,-0.015l-0.012,0.006Zm-29.869,-0.005l0.029,0.013l-0.018,-0.008l-0.011,-0.005Zm29.915,-0.017l-0.016,0.008l0.031,-0.015l-0.015,0.007Zm-29.964,-0.006l0.029,0.013l-0.016,-0.007l-0.013,-0.006Zm30.011,-0.016l-0.014,0.007l0.031,-0.015l-0.017,0.008Zm-30.06,-0.007l0.029,0.013l-0.014,-0.006l-0.015,-0.007Zm30.107,-0.015l-0.011,0.006l0.03,-0.014l-0.019,0.008Zm-30.157,-0.008l0.03,0.014l-0.011,-0.006l-0.019,-0.008Zm30.204,-0.013l-0.009,0.004l0.031,-0.014l-0.022,0.01Zm-30.253,-0.01l0.03,0.014l-0.009,-0.004l-0.021,-0.01Zm30.3,-0.011l-0.007,0.003l0.033,-0.015l-0.026,0.012Zm-30.351,-0.012l0.032,0.015l-0.007,-0.003l-0.025,-0.012Zm30.398,-0.01l-0.005,0.003l0.037,-0.017l-0.032,0.014Zm-30.45,-0.013l0.035,0.015l-0.005,-0.002l-0.03,-0.013Zm-0.062,-0.028l0.048,0.021l-0.003,-0.001l-0.045,-0.02Zm30.606,-0.001l-0.001,0.001l-0.002,0l0.003,0l0,-0.001Zm0.094,-0.041l-0.037,0.016l0.042,-0.018l-0.005,0.002Zm-30.801,-0.002l0.038,0.017l-0.034,-0.015l-0.004,-0.002Zm30.849,-0.019l-0.029,0.013l0.035,-0.015l-0.006,0.002Zm-30.898,-0.002l0.033,0.014l-0.027,-0.012l-0.006,-0.002Zm30.945,-0.018l-0.024,0.01l0.032,-0.014l-0.008,0.004Zm-30.994,-0.003l0.03,0.013l-0.022,-0.01l-0.008,-0.003Zm31.041,-0.017l-0.02,0.008l0.031,-0.013l-0.011,0.005Zm-31.091,-0.005l0.03,0.013l-0.02,-0.008l-0.01,-0.005Zm31.139,-0.015l-0.018,0.007l0.03,-0.013l-0.012,0.006Zm-31.188,-0.005l0.029,0.012l-0.017,-0.007l-0.012,-0.005Zm31.235,-0.015l-0.014,0.006l0.029,-0.012l-0.015,0.006Zm-31.285,-0.006l0.029,0.012l-0.015,-0.006l-0.014,-0.006Zm31.333,-0.014l-0.013,0.005l0.03,-0.012l-0.017,0.007Zm-31.383,-0.007l0.029,0.012l-0.012,-0.005l-0.017,-0.007Zm31.431,-0.013l-0.011,0.004l0.03,-0.012l-0.019,0.008Zm-31.481,-0.008l0.029,0.012l-0.01,-0.004l-0.019,-0.008Zm31.528,-0.011l-0.008,0.003l0.031,-0.012l-0.023,0.009Zm-31.579,-0.009l0.03,0.012l-0.008,-0.003l-0.022,-0.009Zm31.627,-0.011l-0.006,0.003l0.032,-0.013l-0.026,0.01Zm-31.678,-0.01l0.032,0.013l-0.006,-0.003l-0.026,-0.01Zm31.726,-0.009l-0.004,0.002l0.037,-0.015l-0.033,0.013Zm-31.781,-0.013l0.037,0.015l-0.004,-0.002l-0.033,-0.013Zm8.199,-7.315l0.012,0.006l0.032,0.016l0,0l-0.032,-0.016l-0.014,-0.007l0.002,0.001Zm15.421,-0.003l0,0l0.049,-0.025l-0.049,0.025Zm-15.518,-0.046l0.034,0.017l-0.04,-0.02l0.006,0.003Zm15.615,-0.003l-0.039,0.019l0.034,-0.016l0.005,-0.003Zm-15.661,-0.021l0.027,0.014l-0.035,-0.018l0.008,0.004Zm15.71,-0.004l-0.035,0.017l0.027,-0.013l0.008,-0.004Zm-15.756,-0.02l0.022,0.012l-0.032,-0.017l0.01,0.005Zm15.804,-0.005l-0.032,0.016l0.022,-0.011l0.01,-0.005Zm-15.85,-0.019l0.019,0.01l-0.031,-0.017l0.012,0.007Zm15.898,-0.006l-0.031,0.016l0.019,-0.01l0.012,-0.006Zm-15.944,-0.018l0.017,0.008l-0.032,-0.016l0.015,0.008Zm15.992,-0.008l-0.03,0.016l0.016,-0.008l0.014,-0.008Zm-16.038,-0.017l0.014,0.008l-0.031,-0.017l0.017,0.009Zm16.086,-0.008l-0.03,0.016l0.014,-0.008l0.016,-0.008Zm-16.132,-0.016l0.012,0.006l-0.031,-0.016l0.019,0.01Zm16.18,-0.01l-0.03,0.016l0.011,-0.006l0.019,-0.01Zm-16.225,-0.015l0.009,0.006l-0.032,-0.018l0.023,0.012Zm16.274,-0.011l-0.031,0.016l0.009,-0.005l0.022,-0.011Zm-16.32,-0.013l0.008,0.004l-0.035,-0.019l0.027,0.015Zm16.369,-0.014l-0.032,0.018l0.007,-0.004l0.025,-0.014Zm-16.415,-0.011l0.006,0.003l-0.039,-0.022l0.033,0.019Zm16.467,-0.017l-0.037,0.02l0.005,-0.003l0.032,-0.017Zm-16.556,-0.033l0.047,0.027l-0.048,-0.027l0.001,0Zm16.616,-0.001l-0.001,0.001l-0.004,0.002l0.003,-0.002l0.002,-0.001Zm-16.708,-0.05l0.041,0.023l-0.045,-0.025l0.004,0.002Zm16.802,-0.002l-0.042,0.023l0.038,-0.021l0.004,-0.002Zm-16.847,-0.023l0.03,0.017l-0.036,-0.021l0.006,0.004Zm16.894,-0.004l-0.034,0.02l0.028,-0.016l0.006,-0.004Zm-16.939,-0.022l0.025,0.014l-0.033,-0.019l0.008,0.005Zm16.985,-0.004l-0.03,0.017l0.023,-0.013l0.007,-0.004Zm-17.03,-0.022l0.021,0.012l-0.031,-0.018l0.01,0.006Zm17.077,-0.005l-0.029,0.017l0.02,-0.012l0.009,-0.005Zm-17.122,-0.021l0.018,0.011l-0.03,-0.018l0.012,0.007Zm17.169,-0.006l-0.029,0.016l0.017,-0.01l0.012,-0.006Zm-17.214,-0.02l0.016,0.009l-0.03,-0.017l0.014,0.008Zm17.261,-0.008l-0.028,0.017l0.014,-0.009l0.014,-0.008Zm-17.305,-0.018l0.013,0.008l-0.03,-0.018l0.017,0.01Zm17.352,-0.009l-0.028,0.016l0.012,-0.007l0.016,-0.009Zm-17.397,-0.017l0.011,0.006l-0.031,-0.018l0.02,0.012Zm17.444,-0.011l-0.029,0.017l0.01,-0.006l0.019,-0.011Zm-17.488,-0.015l0.008,0.005l-0.031,-0.019l0.023,0.014Zm17.536,-0.013l-0.03,0.017l0.008,-0.004l0.022,-0.013Zm-17.581,-0.014l0.007,0.004l-0.034,-0.021l0.027,0.017Zm17.629,-0.015l-0.032,0.019l0.006,-0.004l0.026,-0.015Zm-17.673,-0.012l0.005,0.003l-0.041,-0.025l0.036,0.022Zm17.724,-0.019l-0.036,0.022l0.004,-0.003l0.032,-0.019Zm0.058,-0.036l-0.002,0.002l-0.002,0.001l0.002,-0.001l0.002,-0.002Zm-17.872,0.001l0.001,0.001l0.002,0l-0.002,0l-0.001,-0.001Zm-0.086,-0.054l0.034,0.022l-0.039,-0.025l0.005,0.003Zm18.048,-0.002l-0.035,0.021l0.031,-0.019l0.004,-0.002Zm-18.092,-0.025l0.026,0.017l-0.033,-0.021l0.007,0.004Zm18.138,-0.004l-0.03,0.019l0.024,-0.015l0.006,-0.004Zm-18.182,-0.023l0.022,0.014l-0.031,-0.02l0.009,0.006Zm18.228,-0.005l-0.029,0.018l0.021,-0.013l0.008,-0.005Zm-18.272,-0.023l0.019,0.012l-0.03,-0.019l0.011,0.007Zm18.318,-0.006l-0.028,0.017l0.018,-0.011l0.01,-0.006Zm-18.362,-0.022l0.017,0.011l-0.029,-0.019l0.012,0.008Zm18.407,-0.007l-0.027,0.017l0.015,-0.01l0.012,-0.007Zm-18.45,-0.02l0.014,0.008l-0.029,-0.018l0.015,0.01Zm18.496,-0.01l-0.027,0.018l0.013,-0.008l0.014,-0.01Zm-18.54,-0.018l0.012,0.007l-0.029,-0.019l0.017,0.012Zm18.585,-0.011l-0.027,0.018l0.011,-0.007l0.016,-0.011Zm-18.628,-0.018l0.01,0.007l-0.03,-0.02l0.02,0.013Zm18.674,-0.012l-0.027,0.018l0.009,-0.006l0.018,-0.012Zm-18.717,-0.016l0.007,0.005l-0.031,-0.02l0.024,0.015Zm18.764,-0.014l-0.029,0.019l0.007,-0.005l0.022,-0.014Zm-18.807,-0.014l0.005,0.004l-0.034,-0.023l0.029,0.019Zm18.854,-0.017l-0.031,0.02l0.005,-0.003l0.026,-0.017Zm-18.897,-0.012l0.003,0.003l-0.043,-0.029l0.04,0.026Zm18.949,-0.023l-0.038,0.026l0.003,-0.003l0.035,-0.023Zm-19.04,-0.037l0.003,0.002l0.002,0.001l-0.001,0l-0.004,-0.003Zm19.137,-0.028l-0.041,0.028l0.038,-0.026l0.003,-0.002Zm-19.218,-0.027l0.029,0.02l-0.034,-0.023l0.005,0.003Zm19.262,-0.003l-0.031,0.021l0.027,-0.018l0.004,-0.003Zm-19.304,-0.026l0.023,0.016l-0.031,-0.021l0.008,0.005Zm19.349,-0.004l-0.029,0.019l0.022,-0.015l0.007,-0.004Zm-19.392,-0.025l0.02,0.014l-0.029,-0.02l0.009,0.006Zm19.436,-0.006l-0.027,0.019l0.019,-0.013l0.008,-0.006Zm-19.478,-0.023l0.017,0.012l-0.028,-0.02l0.011,0.008Zm19.522,-0.007l-0.026,0.018l0.016,-0.011l0.01,-0.007Zm-19.565,-0.023l0.015,0.01l-0.028,-0.019l0.013,0.009Zm19.61,-0.008l-0.026,0.018l0.014,-0.01l0.012,-0.008Zm-19.652,-0.021l0.012,0.008l-0.027,-0.019l0.015,0.011Zm19.696,-0.01l-0.026,0.018l0.012,-0.008l0.014,-0.01Zm-19.738,-0.02l0.01,0.007l-0.028,-0.019l0.018,0.012Zm19.782,-0.012l-0.026,0.019l0.01,-0.007l0.016,-0.012Zm-19.824,-0.018l0.008,0.006l-0.028,-0.02l0.02,0.014Zm19.869,-0.013l-0.027,0.019l0.008,-0.006l0.019,-0.013Zm-19.911,-0.017l0.006,0.005l-0.03,-0.022l0.024,0.017Zm19.956,-0.016l-0.028,0.02l0.006,-0.004l0.022,-0.016Zm-19.998,-0.014l0.004,0.003l-0.033,-0.024l0.029,0.021Zm20.044,-0.019l-0.03,0.022l0.004,-0.003l0.026,-0.019Zm0.055,-0.04l-0.042,0.031l0.003,-0.002l0.039,-0.029Zm-20.183,-0.002l0.001,0.001l0.002,0.001l-0.002,-0.001l-0.001,-0.001Zm-0.083,-0.061l0.033,0.025l-0.036,-0.027l0.003,0.002Zm20.355,-0.002l-0.034,0.025l0.031,-0.023l0.003,-0.002Zm-20.396,-0.028l0.025,0.018l-0.031,-0.022l0.006,0.004Zm20.439,-0.004l-0.028,0.021l0.023,-0.017l0.005,-0.004Zm-20.481,-0.027l0.021,0.015l-0.028,-0.02l0.007,0.005Zm20.524,-0.005l-0.026,0.02l0.019,-0.015l0.007,-0.005Zm-20.565,-0.026l0.018,0.013l-0.027,-0.02l0.009,0.007Zm20.608,-0.006l-0.025,0.019l0.016,-0.013l0.009,-0.006Zm-20.649,-0.025l0.015,0.011l-0.026,-0.019l0.011,0.008Zm20.692,-0.008l-0.025,0.019l0.015,-0.011l0.01,-0.008Zm-20.733,-0.023l0.013,0.01l-0.026,-0.02l0.013,0.01Zm20.776,-0.01l-0.025,0.019l0.013,-0.009l0.012,-0.01Zm-20.817,-0.022l0.011,0.009l-0.026,-0.02l0.015,0.011Zm20.86,-0.01l-0.025,0.019l0.011,-0.009l0.014,-0.01Zm-20.901,-0.021l0.009,0.007l-0.025,-0.02l0.016,0.013Zm20.944,-0.013l-0.025,0.02l0.008,-0.007l0.017,-0.013Zm-20.984,-0.018l0.007,0.005l-0.027,-0.02l0.02,0.015Zm21.027,-0.015l-0.026,0.02l0.007,-0.005l0.019,-0.015Zm-21.068,-0.017l0.005,0.004l-0.027,-0.022l0.022,0.018Zm21.112,-0.017l-0.027,0.021l0.005,-0.004l0.022,-0.017Zm-21.153,-0.015l0.004,0.003l-0.031,-0.025l0.027,0.022Zm21.199,-0.022l-0.031,0.025l0.003,-0.003l0.028,-0.022Z"/><path id="Gamma" d="M19.308,70.883c-1.029,-4.276 -3.214,-13.165 -3.596,-14.163c-0.477,-1.243 -1.016,-0.29 -0.995,0.415c0.021,0.705 0.331,1.119 0.331,1.119c0,0 -1.208,-0.589 -0.912,-2.135c0.251,-1.306 1.114,-1.437 1.47,-1.039c0.213,0.239 0.361,0.763 0.416,0.956c0.077,0.264 2.168,8.754 3.515,14.142l-0.002,0.004c2.04,-6.101 4.938,-12.164 6.978,-15.242c1.567,-2.365 2.64,-1.726 3.2,-1.27c0.559,0.456 0.61,0.999 0.61,0.999c0,0 -0.348,-0.54 -0.961,-0.622c-0.576,-0.076 -1.556,0.272 -2.998,2.493c-2.57,3.955 -4.415,8.575 -6.56,14.705c0,0 0,0 0,0c0.392,1.56 0.689,2.728 0.803,3.138c0.904,3.255 -1.661,4.617 -2.153,1.567c-0.181,-1.12 0.187,-2.946 0.854,-5.067Zm-0.508,4.863c-0.065,-0.931 0.763,-3.798 0.763,-3.798c0.121,0.509 0.209,0.881 0.251,1.07c0.316,1.404 0.421,2.437 0.333,2.977c-0.185,1.139 -1.243,1.24 -1.347,-0.249Zm0.508,-4.863l0.001,0.003l-0.001,-0.005l0,0.002Z" style="stroke:#000;stroke-width:0.24px;stroke-linecap:round;"/></g><defs><linearGradient id="_Linear1" x1="0" y1="0" x2="1" y2="0" gradientUnits="userSpaceOnUse" gradientTransform="matrix(-0.132106,-168,168,-0.132106,84.6497,168.616)"><stop offset="0" style="stop-color:#18001f;stop-opacity:1"/><stop offset="0.09" style="stop-color:#2f1237;stop-opacity:1"/><stop offset="0.2" style="stop-color:#45234e;stop-opacity:1"/><stop offset="0.5" style="stop-color:#4f2a58;stop-opacity:1"/><stop offset="0.8" style="stop-color:#45234e;stop-opacity:1"/><stop offset="0.91" style="stop-color:#2f1237;stop-opacity:1"/><stop offset="1" style="stop-color:#18001f;stop-opacity:1"/></linearGradient></defs></svg>