<?xml version="1.0" encoding="UTF-8" standalone="no"?><!DOCTYPE svg PUBLIC "-//W3C//DTD SVG 1.1//EN" "http://www.w3.org/Graphics/SVG/1.1/DTD/svg11.dtd"><svg width="100%" height="100%" viewBox="0 0 55 64" version="1.1" xmlns="http://www.w3.org/2000/svg" xmlns:xlink="http://www.w3.org/1999/xlink" xml:space="preserve" xmlns:serif="http://www.serif.com/" style="fill-rule:evenodd;clip-rule:evenodd;stroke-linecap:round;stroke-linejoin:round;stroke-miterlimit:1.5;"><g id="Gamma-Cure" serif:id="Gamma Cure"><g id="Flaske"><path d="M50.803,15.414c0,-2.728 -2.215,-4.944 -4.944,-4.944l-36.67,0c-2.728,0 -4.944,2.216 -4.944,4.944l0,41.953c0,2.728 2.216,4.943 4.944,4.943l36.67,0c2.729,0 4.944,-2.215 4.944,-4.943l0,-41.953Z" style="fill:url(#_Linear1);"/><path d="M45.9,8.97l0.042,0.001l0.041,0.001l0.042,0l0.041,0.002l0.041,0.001l0.041,0.002l0.041,0.002l0.041,0.002l0.041,0.002l0.041,0.003l0.041,0.003l0.041,0.003l0.041,0.004l0.04,0.004l0.041,0.004l0.041,0.004l0.04,0.004l0.04,0.005l0.041,0.005l0.04,0.005l0.04,0.006l0.041,0.006l0.04,0.006l0.039,0.006l0.04,0.006l0.04,0.007l0.039,0.007l0.04,0.007l0.04,0.008l0.04,0.007l0.039,0.008l0.039,0.009l0.039,0.008l0.039,0.009l0.04,0.009l0.039,0.009l0.039,0.009l0.039,0.01l0.038,0.009l0.039,0.011l0.038,0.01l0.039,0.01l0.038,0.011l0.038,0.011l0.038,0.011l0.039,0.012l0.038,0.012l0.038,0.012l0.037,0.012l0.037,0.012l0.037,0.012l0.039,0.014l0.038,0.013l0.036,0.012l0.037,0.014l0.038,0.014l0.037,0.014l0.035,0.014l0.037,0.014l0.038,0.015l0.036,0.015l0.037,0.015l0.036,0.015l0.036,0.015l0.036,0.016l0.036,0.016l0.035,0.016l0.036,0.016l0.035,0.016l0.035,0.017l0.037,0.017l0.035,0.017l0.033,0.017l0.037,0.018l0.034,0.018l0.035,0.017l0.035,0.019l0.033,0.018l0.034,0.018l0.035,0.019l0.036,0.02l0.032,0.018l0.033,0.019l0.035,0.02l0.035,0.021l0.065,0.039l0.066,0.041l0.066,0.041l0.065,0.042l0.064,0.043l0.064,0.044l0.064,0.045l0.062,0.045l0.062,0.046l0.063,0.047l0.061,0.047l0.06,0.048l0.059,0.048l0.061,0.051l0.058,0.05l0.058,0.051l0.058,0.051l0.056,0.053l0.056,0.053l0.056,0.053l0.055,0.054l0.054,0.055l0.054,0.056l0.053,0.056l0.052,0.057l0.052,0.058l0.051,0.058l0.05,0.058l0.049,0.059l0.049,0.06l0.048,0.061l0.047,0.06l0.047,0.062l0.047,0.064l0.045,0.062l0.044,0.062l0.043,0.064l0.044,0.066l0.042,0.065l0.042,0.065l0.041,0.067l0.037,0.063l0.022,0.035l0.019,0.035l0.02,0.034l0.019,0.034l0.019,0.035l0.019,0.034l0.017,0.031l0.02,0.038l0.019,0.035l0.016,0.032l0.018,0.035l0.017,0.035l0.018,0.035l0.019,0.039l0.016,0.035l0.016,0.032l0.016,0.036l0.016,0.036l0.016,0.036l0.016,0.035l0.016,0.036l0.015,0.036l0.016,0.037l0.014,0.036l0.015,0.036l0.016,0.04l0.014,0.037l0.013,0.033l0.014,0.036l0.015,0.041l0.013,0.036l0.012,0.034l0.014,0.04l0.013,0.037l0.012,0.037l0.012,0.038l0.013,0.037l0.012,0.041l0.012,0.037l0.011,0.038l0.011,0.037l0.011,0.038l0.011,0.038l0.01,0.037l0.011,0.042l0.01,0.038l0.01,0.038l0.009,0.038l0.009,0.038l0.01,0.042l0.009,0.038l0.008,0.038l0.009,0.042l0.008,0.038l0.008,0.039l0.007,0.038l0.008,0.039l0.007,0.042l0.007,0.039l0.007,0.042l0.007,0.039l0.006,0.039l0.006,0.042l0.005,0.035l0.006,0.043l0.005,0.043l0.005,0.035l0.005,0.043l0.005,0.043l0.004,0.039l0.004,0.039l0.004,0.043l0.003,0.039l0.003,0.039l0.003,0.043l0.003,0.04l0.003,0.043l0.002,0.043l0.002,0.039l0.001,0.04l0.002,0.039l0.001,0.043l0.001,0.044l0,0.039l0.001,0.04l0,0.039l0,41.96l0,0.04l-0.001,0.039l0,0.04l-0.001,0.043l-0.001,0.044l-0.002,0.039l-0.001,0.039l-0.002,0.04l-0.002,0.043l-0.003,0.043l-0.003,0.039l-0.003,0.044l-0.003,0.039l-0.003,0.039l-0.004,0.043l-0.004,0.039l-0.004,0.039l-0.005,0.043l-0.005,0.043l-0.005,0.035l-0.005,0.043l-0.006,0.042l-0.005,0.035l-0.006,0.043l-0.006,0.039l-0.007,0.039l-0.007,0.042l-0.007,0.039l-0.007,0.042l-0.008,0.038l-0.007,0.039l-0.008,0.038l-0.008,0.039l-0.009,0.042l-0.008,0.038l-0.009,0.038l-0.01,0.042l-0.009,0.038l-0.009,0.038l-0.01,0.038l-0.01,0.038l-0.011,0.041l-0.01,0.038l-0.011,0.038l-0.011,0.037l-0.011,0.038l-0.011,0.038l-0.012,0.037l-0.012,0.041l-0.013,0.037l-0.012,0.037l-0.012,0.038l-0.013,0.037l-0.014,0.04l-0.012,0.033l-0.013,0.037l-0.015,0.04l-0.014,0.037l-0.013,0.033l-0.014,0.037l-0.016,0.04l-0.015,0.036l-0.014,0.036l-0.016,0.036l-0.015,0.036l-0.016,0.036l-0.016,0.036l-0.016,0.036l-0.016,0.036l-0.016,0.035l-0.016,0.032l-0.016,0.036l-0.019,0.039l-0.018,0.035l-0.017,0.035l-0.018,0.035l-0.016,0.032l-0.019,0.034l-0.02,0.038l-0.017,0.032l-0.019,0.034l-0.019,0.035l-0.019,0.034l-0.02,0.034l-0.019,0.034l-0.022,0.036l-0.037,0.063l-0.041,0.067l-0.042,0.065l-0.042,0.065l-0.044,0.066l-0.043,0.063l-0.044,0.062l-0.045,0.063l-0.047,0.064l-0.047,0.062l-0.047,0.06l-0.048,0.061l-0.049,0.06l-0.049,0.058l-0.05,0.058l-0.051,0.059l-0.052,0.058l-0.052,0.057l-0.053,0.055l-0.054,0.057l-0.054,0.054l-0.055,0.055l-0.055,0.053l-0.057,0.053l-0.057,0.052l-0.057,0.052l-0.058,0.051l-0.058,0.05l-0.061,0.05l-0.059,0.049l-0.06,0.047l-0.061,0.048l-0.063,0.047l-0.062,0.046l-0.062,0.045l-0.064,0.045l-0.064,0.043l-0.064,0.043l-0.065,0.043l-0.066,0.041l-0.066,0.041l-0.065,0.039l-0.035,0.02l-0.035,0.021l-0.033,0.019l-0.032,0.018l-0.036,0.019l-0.035,0.02l-0.034,0.018l-0.033,0.017l-0.035,0.019l-0.035,0.018l-0.034,0.018l-0.037,0.018l-0.033,0.016l-0.035,0.017l-0.037,0.018l-0.035,0.017l-0.035,0.016l-0.036,0.016l-0.035,0.016l-0.036,0.016l-0.036,0.015l-0.036,0.016l-0.036,0.015l-0.037,0.015l-0.036,0.015l-0.038,0.015l-0.037,0.014l-0.035,0.014l-0.037,0.014l-0.038,0.014l-0.038,0.013l-0.035,0.013l-0.038,0.013l-0.039,0.013l-0.037,0.013l-0.037,0.012l-0.037,0.012l-0.038,0.012l-0.038,0.012l-0.039,0.011l-0.038,0.012l-0.038,0.01l-0.038,0.011l-0.039,0.011l-0.039,0.01l-0.038,0.01l-0.038,0.01l-0.039,0.01l-0.039,0.009l-0.039,0.009l-0.04,0.009l-0.039,0.009l-0.039,0.008l-0.039,0.008l-0.039,0.008l-0.04,0.008l-0.04,0.007l-0.04,0.008l-0.039,0.007l-0.04,0.006l-0.04,0.007l-0.039,0.006l-0.04,0.006l-0.041,0.006l-0.04,0.005l-0.04,0.006l-0.041,0.005l-0.04,0.004l-0.04,0.005l-0.041,0.004l-0.041,0.004l-0.04,0.004l-0.041,0.003l-0.041,0.004l-0.041,0.003l-0.041,0.002l-0.041,0.003l-0.041,0.002l-0.041,0.002l-0.041,0.002l-0.041,0.001l-0.041,0.001l-0.042,0.001l-0.041,0.001l-0.042,0l-0.039,0l-36.674,0l-0.039,0l-0.042,0l-0.041,-0.001l-0.042,-0.001l-0.041,-0.001l-0.041,-0.001l-0.041,-0.002l-0.041,-0.002l-0.041,-0.002l-0.041,-0.003l-0.041,-0.002l-0.041,-0.003l-0.041,-0.004l-0.04,-0.003l-0.041,-0.004l-0.041,-0.004l-0.04,-0.004l-0.041,-0.005l-0.04,-0.004l-0.04,-0.005l-0.04,-0.006l-0.041,-0.005l-0.04,-0.006l-0.04,-0.006l-0.04,-0.006l-0.04,-0.007l-0.04,-0.006l-0.039,-0.007l-0.04,-0.008l-0.04,-0.007l-0.039,-0.008l-0.04,-0.008l-0.039,-0.008l-0.039,-0.008l-0.039,-0.009l-0.039,-0.009l-0.04,-0.009l-0.039,-0.009l-0.038,-0.01l-0.039,-0.01l-0.038,-0.01l-0.039,-0.01l-0.039,-0.011l-0.038,-0.011l-0.038,-0.01l-0.038,-0.012l-0.037,-0.011l-0.04,-0.012l-0.037,-0.012l-0.037,-0.012l-0.039,-0.012l-0.037,-0.013l-0.036,-0.012l-0.038,-0.013l-0.038,-0.014l-0.038,-0.014l-0.035,-0.013l-0.037,-0.014l-0.038,-0.014l-0.037,-0.015l-0.035,-0.014l-0.038,-0.015l-0.036,-0.015l-0.035,-0.015l-0.037,-0.016l-0.036,-0.015l-0.036,-0.016l-0.036,-0.016l-0.035,-0.016l-0.037,-0.017l-0.034,-0.016l-0.035,-0.017l-0.037,-0.018l-0.035,-0.017l-0.034,-0.017l-0.035,-0.018l-0.034,-0.018l-0.034,-0.018l-0.036,-0.019l-0.034,-0.018l-0.034,-0.019l-0.034,-0.018l-0.033,-0.019l-0.034,-0.019l-0.035,-0.021l-0.036,-0.021l-0.063,-0.038l-0.067,-0.041l-0.065,-0.041l-0.066,-0.043l-0.064,-0.043l-0.064,-0.043l-0.064,-0.045l-0.062,-0.045l-0.062,-0.046l-0.062,-0.047l-0.062,-0.048l-0.06,-0.047l-0.06,-0.05l-0.058,-0.049l-0.059,-0.05l-0.059,-0.051l-0.057,-0.052l-0.057,-0.052l-0.056,-0.053l-0.056,-0.053l-0.054,-0.055l-0.055,-0.055l-0.053,-0.054l-0.054,-0.057l-0.052,-0.058l-0.05,-0.056l-0.052,-0.058l-0.051,-0.06l-0.048,-0.058l-0.05,-0.06l-0.048,-0.061l-0.048,-0.062l-0.046,-0.061l-0.046,-0.061l-0.045,-0.063l-0.045,-0.065l-0.044,-0.064l-0.042,-0.063l-0.042,-0.064l-0.042,-0.067l-0.042,-0.067l-0.039,-0.066l-0.019,-0.033l-0.02,-0.034l-0.02,-0.034l-0.019,-0.034l-0.019,-0.035l-0.019,-0.034l-0.018,-0.035l-0.017,-0.031l-0.019,-0.035l-0.019,-0.038l-0.018,-0.035l-0.016,-0.032l-0.017,-0.035l-0.018,-0.036l-0.017,-0.035l-0.016,-0.036l-0.017,-0.035l-0.016,-0.036l-0.016,-0.036l-0.016,-0.036l-0.016,-0.036l-0.017,-0.039l-0.015,-0.036l-0.013,-0.033l-0.015,-0.036l-0.014,-0.037l-0.015,-0.036l-0.014,-0.037l-0.015,-0.04l-0.013,-0.037l-0.012,-0.033l-0.015,-0.041l-0.013,-0.036l-0.012,-0.037l-0.013,-0.038l-0.012,-0.037l-0.013,-0.041l-0.011,-0.033l-0.011,-0.038l-0.013,-0.041l-0.011,-0.038l-0.011,-0.037l-0.01,-0.038l-0.012,-0.041l-0.01,-0.038l-0.01,-0.038l-0.009,-0.038l-0.01,-0.038l-0.01,-0.042l-0.009,-0.038l-0.008,-0.038l-0.009,-0.038l-0.008,-0.039l-0.009,-0.042l-0.007,-0.038l-0.008,-0.039l-0.008,-0.042l-0.007,-0.038l-0.007,-0.039l-0.006,-0.039l-0.007,-0.042l-0.006,-0.039l-0.006,-0.039l-0.006,-0.042l-0.006,-0.039l-0.005,-0.039l-0.005,-0.043l-0.004,-0.039l-0.005,-0.039l-0.004,-0.043l-0.005,-0.043l-0.003,-0.039l-0.004,-0.039l-0.003,-0.043l-0.003,-0.04l-0.002,-0.039l-0.003,-0.039l-0.002,-0.043l-0.002,-0.044l-0.002,-0.039l-0.001,-0.043l-0.001,-0.04l-0.001,-0.039l-0.001,-0.044l-0.001,-0.043l0,-42.031l0.001,-0.044l0.001,-0.043l0.001,-0.04l0.001,-0.039l0.001,-0.043l0.002,-0.04l0.002,-0.043l0.002,-0.043l0.003,-0.039l0.002,-0.04l0.003,-0.039l0.003,-0.043l0.004,-0.039l0.003,-0.039l0.005,-0.043l0.004,-0.043l0.005,-0.039l0.004,-0.039l0.005,-0.043l0.005,-0.039l0.006,-0.039l0.006,-0.043l0.006,-0.038l0.006,-0.039l0.007,-0.043l0.006,-0.038l0.007,-0.039l0.007,-0.038l0.008,-0.043l0.008,-0.038l0.007,-0.039l0.009,-0.042l0.008,-0.038l0.009,-0.038l0.008,-0.038l0.009,-0.039l0.01,-0.041l0.01,-0.038l0.009,-0.038l0.01,-0.038l0.01,-0.038l0.012,-0.041l0.01,-0.038l0.011,-0.038l0.011,-0.037l0.013,-0.041l0.011,-0.038l0.011,-0.034l0.013,-0.04l0.012,-0.038l0.013,-0.037l0.012,-0.037l0.013,-0.037l0.015,-0.04l0.012,-0.033l0.013,-0.037l0.015,-0.04l0.014,-0.037l0.015,-0.036l0.014,-0.037l0.015,-0.036l0.013,-0.033l0.015,-0.036l0.017,-0.04l0.016,-0.036l0.016,-0.035l0.016,-0.036l0.016,-0.036l0.017,-0.036l0.016,-0.035l0.017,-0.035l0.018,-0.036l0.017,-0.035l0.016,-0.032l0.018,-0.035l0.019,-0.038l0.019,-0.035l0.017,-0.031l0.018,-0.035l0.019,-0.034l0.019,-0.035l0.019,-0.034l0.02,-0.034l0.02,-0.035l0.019,-0.032l0.039,-0.066l0.042,-0.067l0.042,-0.067l0.042,-0.064l0.042,-0.063l0.044,-0.064l0.045,-0.065l0.045,-0.063l0.046,-0.061l0.046,-0.062l0.048,-0.061l0.048,-0.061l0.05,-0.06l0.048,-0.059l0.051,-0.059l0.052,-0.059l0.05,-0.055l0.052,-0.058l0.054,-0.057l0.053,-0.054l0.055,-0.056l0.054,-0.054l0.056,-0.053l0.056,-0.053l0.057,-0.053l0.057,-0.051l0.059,-0.051l0.059,-0.051l0.058,-0.049l0.06,-0.049l0.06,-0.048l0.062,-0.047l0.062,-0.047l0.062,-0.046l0.062,-0.045l0.064,-0.045l0.064,-0.044l0.064,-0.043l0.066,-0.042l0.065,-0.041l0.067,-0.042l0.063,-0.037l0.036,-0.022l0.035,-0.02l0.034,-0.019l0.033,-0.019l0.034,-0.019l0.034,-0.018l0.034,-0.019l0.036,-0.019l0.034,-0.018l0.034,-0.017l0.035,-0.018l0.034,-0.017l0.035,-0.018l0.037,-0.017l0.035,-0.017l0.034,-0.016l0.037,-0.017l0.035,-0.016l0.036,-0.016l0.036,-0.016l0.036,-0.016l0.037,-0.016l0.035,-0.014l0.036,-0.015l0.038,-0.016l0.035,-0.014l0.037,-0.014l0.038,-0.014l0.037,-0.014l0.035,-0.014l0.037,-0.013l0.039,-0.014l0.038,-0.013l0.036,-0.012l0.037,-0.013l0.039,-0.013l0.037,-0.011l0.037,-0.012l0.04,-0.012l0.037,-0.012l0.038,-0.011l0.038,-0.011l0.038,-0.01l0.039,-0.011l0.039,-0.01l0.038,-0.01l0.039,-0.01l0.038,-0.01l0.039,-0.009l0.04,-0.009l0.039,-0.009l0.039,-0.009l0.039,-0.008l0.039,-0.009l0.04,-0.008l0.039,-0.007l0.04,-0.008l0.04,-0.007l0.039,-0.007l0.04,-0.007l0.04,-0.006l0.04,-0.006l0.04,-0.006l0.04,-0.006l0.041,-0.006l0.04,-0.005l0.04,-0.005l0.04,-0.005l0.041,-0.004l0.04,-0.004l0.041,-0.004l0.041,-0.004l0.04,-0.004l0.041,-0.003l0.041,-0.003l0.041,-0.003l0.041,-0.002l0.041,-0.002l0.041,-0.002l0.041,-0.002l0.041,-0.001l0.041,-0.002l0.042,0l0.042,-0.001l0.041,-0.001l0.039,0l36.674,0l0.039,0Zm-36.711,1.5l-0.032,0l-0.032,0.001l-0.031,0l-0.032,0.001l-0.032,0.001l-0.032,0.001l-0.031,0.001l-0.032,0.002l-0.032,0.002l-0.031,0.001l-0.031,0.002l-0.032,0.003l-0.031,0.002l-0.032,0.003l-0.031,0.003l-0.031,0.003l-0.031,0.003l-0.031,0.004l-0.031,0.003l-0.031,0.004l-0.031,0.004l-0.031,0.004l-0.031,0.005l-0.03,0.004l-0.031,0.005l-0.03,0.005l-0.031,0.005l-0.03,0.006l-0.031,0.005l-0.03,0.006l-0.03,0.006l-0.031,0.006l-0.03,0.006l-0.03,0.007l-0.03,0.006l-0.03,0.007l-0.03,0.007l-0.029,0.007l-0.03,0.008l-0.03,0.007l-0.029,0.008l-0.03,0.008l-0.029,0.008l-0.03,0.008l-0.029,0.008l-0.029,0.009l-0.029,0.009l-0.029,0.009l-0.029,0.009l-0.029,0.009l-0.029,0.01l-0.029,0.009l-0.028,0.01l-0.029,0.01l-0.028,0.01l-0.029,0.011l-0.028,0.01l-0.028,0.011l-0.029,0.011l-0.028,0.011l-0.028,0.011l-0.028,0.011l-0.028,0.011l-0.027,0.012l-0.028,0.012l-0.028,0.012l-0.027,0.012l-0.028,0.012l-0.027,0.013l-0.027,0.012l-0.027,0.013l-0.027,0.013l-0.027,0.013l-0.027,0.014l-0.027,0.013l-0.027,0.014l-0.026,0.013l-0.027,0.014l-0.026,0.014l-0.026,0.014l-0.027,0.015l-0.026,0.014l-0.026,0.015l-0.026,0.015l-0.026,0.015l-0.025,0.015l-0.051,0.031l-0.051,0.031l-0.051,0.032l-0.05,0.032l-0.049,0.033l-0.049,0.034l-0.049,0.034l-0.048,0.035l-0.048,0.035l-0.047,0.036l-0.047,0.036l-0.047,0.037l-0.046,0.038l-0.045,0.038l-0.045,0.039l-0.045,0.039l-0.044,0.039l-0.044,0.04l-0.043,0.041l-0.043,0.041l-0.042,0.042l-0.042,0.042l-0.041,0.043l-0.04,0.043l-0.041,0.044l-0.039,0.044l-0.039,0.045l-0.039,0.045l-0.038,0.045l-0.038,0.046l-0.037,0.047l-0.036,0.047l-0.036,0.047l-0.035,0.048l-0.035,0.048l-0.034,0.049l-0.034,0.049l-0.033,0.049l-0.032,0.05l-0.032,0.051l-0.031,0.05l-0.031,0.052l-0.015,0.025l-0.015,0.026l-0.015,0.026l-0.015,0.026l-0.014,0.026l-0.015,0.026l-0.014,0.027l-0.014,0.026l-0.014,0.027l-0.013,0.026l-0.014,0.027l-0.013,0.027l-0.014,0.027l-0.013,0.027l-0.013,0.027l-0.012,0.027l-0.013,0.027l-0.013,0.027l-0.012,0.028l-0.012,0.027l-0.012,0.028l-0.012,0.028l-0.011,0.027l-0.012,0.028l-0.011,0.028l-0.011,0.028l-0.011,0.028l-0.011,0.028l-0.011,0.029l-0.01,0.028l-0.011,0.029l-0.01,0.028l-0.01,0.029l-0.01,0.028l-0.009,0.029l-0.01,0.029l-0.009,0.029l-0.009,0.029l-0.009,0.029l-0.009,0.029l-0.008,0.029l-0.009,0.029l-0.008,0.03l-0.008,0.029l-0.008,0.03l-0.008,0.029l-0.007,0.03l-0.008,0.03l-0.007,0.029l-0.007,0.03l-0.007,0.03l-0.006,0.03l-0.007,0.03l-0.006,0.03l-0.006,0.031l-0.006,0.03l-0.006,0.03l-0.005,0.031l-0.006,0.03l-0.005,0.031l-0.005,0.03l-0.005,0.031l-0.004,0.03l-0.005,0.031l-0.004,0.031l-0.004,0.031l-0.004,0.031l-0.003,0.031l-0.004,0.031l-0.003,0.031l-0.003,0.031l-0.003,0.031l-0.003,0.032l-0.002,0.031l-0.002,0.031l-0.003,0.032l-0.001,0.031l-0.002,0.032l-0.002,0.032l-0.001,0.031l-0.001,0.032l-0.001,0.032l-0.001,0.031l0,0.032l0,0.032l-0.001,0.032l0,41.953l0.001,0.031l0,0.032l0,0.032l0.001,0.032l0.001,0.032l0.001,0.032l0.001,0.031l0.002,0.032l0.002,0.031l0.001,0.032l0.003,0.031l0.002,0.032l0.002,0.031l0.003,0.031l0.003,0.032l0.003,0.031l0.003,0.031l0.004,0.031l0.003,0.031l0.004,0.031l0.004,0.031l0.004,0.031l0.005,0.03l0.004,0.031l0.005,0.031l0.005,0.03l0.005,0.031l0.006,0.03l0.005,0.031l0.006,0.03l0.006,0.03l0.006,0.03l0.006,0.03l0.007,0.031l0.006,0.03l0.007,0.029l0.007,0.03l0.007,0.03l0.008,0.03l0.007,0.029l0.008,0.03l0.008,0.03l0.008,0.029l0.008,0.029l0.009,0.03l0.008,0.029l0.009,0.029l0.009,0.029l0.009,0.029l0.009,0.029l0.01,0.029l0.009,0.028l0.01,0.029l0.01,0.029l0.01,0.028l0.011,0.029l0.01,0.028l0.011,0.028l0.011,0.028l0.011,0.029l0.011,0.028l0.011,0.028l0.012,0.027l0.011,0.028l0.012,0.028l0.012,0.027l0.012,0.028l0.012,0.027l0.013,0.028l0.013,0.027l0.012,0.027l0.013,0.027l0.013,0.027l0.014,0.027l0.013,0.027l0.014,0.026l0.013,0.027l0.014,0.027l0.014,0.026l0.014,0.026l0.015,0.026l0.014,0.027l0.015,0.026l0.015,0.026l0.015,0.025l0.015,0.026l0.031,0.051l0.031,0.051l0.032,0.05l0.032,0.05l0.033,0.05l0.034,0.049l0.034,0.049l0.035,0.048l0.035,0.048l0.036,0.047l0.036,0.047l0.037,0.046l0.038,0.047l0.038,0.045l0.039,0.045l0.039,0.045l0.039,0.044l0.041,0.044l0.04,0.043l0.041,0.042l0.042,0.043l0.042,0.041l0.043,0.042l0.043,0.04l0.044,0.04l0.044,0.04l0.045,0.039l0.045,0.039l0.045,0.038l0.046,0.037l0.047,0.037l0.047,0.037l0.047,0.036l0.048,0.035l0.048,0.035l0.049,0.034l0.049,0.034l0.049,0.033l0.05,0.032l0.051,0.032l0.051,0.031l0.051,0.031l0.025,0.015l0.026,0.015l0.026,0.015l0.026,0.014l0.026,0.015l0.027,0.014l0.026,0.014l0.026,0.015l0.027,0.013l0.026,0.014l0.027,0.014l0.027,0.013l0.027,0.013l0.027,0.014l0.027,0.012l0.027,0.013l0.027,0.013l0.027,0.012l0.028,0.013l0.027,0.012l0.028,0.012l0.028,0.012l0.027,0.011l0.028,0.012l0.028,0.011l0.028,0.011l0.028,0.011l0.029,0.011l0.028,0.011l0.028,0.01l0.029,0.01l0.028,0.011l0.029,0.01l0.028,0.009l0.029,0.01l0.029,0.01l0.029,0.009l0.029,0.009l0.029,0.009l0.029,0.009l0.029,0.008l0.029,0.009l0.03,0.008l0.029,0.008l0.03,0.008l0.029,0.008l0.03,0.007l0.03,0.007l0.029,0.008l0.03,0.007l0.03,0.006l0.03,0.007l0.03,0.007l0.03,0.006l0.031,0.006l0.03,0.006l0.03,0.006l0.031,0.005l0.03,0.005l0.031,0.006l0.03,0.005l0.031,0.004l0.03,0.005l0.031,0.004l0.031,0.005l0.031,0.004l0.031,0.003l0.031,0.004l0.031,0.004l0.031,0.003l0.031,0.003l0.031,0.003l0.032,0.002l0.031,0.003l0.032,0.002l0.031,0.002l0.031,0.002l0.032,0.002l0.032,0.001l0.031,0.002l0.032,0.001l0.032,0.001l0.032,0l0.031,0.001l0.032,0l0.032,0l36.67,0l0.032,0l0.032,0l0.032,-0.001l0.032,0l0.031,-0.001l0.032,-0.001l0.032,-0.002l0.031,-0.001l0.032,-0.002l0.031,-0.002l0.032,-0.002l0.031,-0.002l0.032,-0.003l0.031,-0.002l0.031,-0.003l0.031,-0.003l0.031,-0.003l0.031,-0.004l0.031,-0.004l0.031,-0.003l0.031,-0.004l0.031,-0.005l0.031,-0.004l0.031,-0.005l0.03,-0.004l0.031,-0.005l0.03,-0.006l0.031,-0.005l0.03,-0.005l0.03,-0.006l0.031,-0.006l0.03,-0.006l0.03,-0.006l0.03,-0.007l0.03,-0.007l0.03,-0.006l0.03,-0.007l0.03,-0.008l0.029,-0.007l0.03,-0.007l0.03,-0.008l0.029,-0.008l0.03,-0.008l0.029,-0.008l0.029,-0.009l0.029,-0.008l0.03,-0.009l0.029,-0.009l0.029,-0.009l0.028,-0.009l0.029,-0.01l0.029,-0.01l0.029,-0.009l0.028,-0.01l0.029,-0.011l0.028,-0.01l0.029,-0.01l0.028,-0.011l0.028,-0.011l0.028,-0.011l0.028,-0.011l0.028,-0.011l0.028,-0.012l0.028,-0.011l0.027,-0.012l0.028,-0.012l0.027,-0.012l0.028,-0.013l0.027,-0.012l0.027,-0.013l0.028,-0.013l0.027,-0.012l0.027,-0.014l0.027,-0.013l0.026,-0.013l0.027,-0.014l0.027,-0.014l0.026,-0.013l0.027,-0.015l0.026,-0.014l0.026,-0.014l0.026,-0.015l0.026,-0.014l0.026,-0.015l0.026,-0.015l0.026,-0.015l0.051,-0.031l0.051,-0.031l0.05,-0.032l0.05,-0.032l0.049,-0.033l0.05,-0.034l0.048,-0.034l0.048,-0.035l0.048,-0.035l0.048,-0.036l0.047,-0.037l0.046,-0.037l0.046,-0.037l0.046,-0.038l0.045,-0.039l0.044,-0.039l0.045,-0.04l0.043,-0.04l0.043,-0.04l0.043,-0.042l0.042,-0.041l0.042,-0.043l0.041,-0.042l0.041,-0.043l0.04,-0.044l0.04,-0.044l0.039,-0.045l0.038,-0.045l0.038,-0.045l0.038,-0.047l0.037,-0.046l0.036,-0.047l0.036,-0.047l0.036,-0.048l0.034,-0.048l0.035,-0.049l0.033,-0.049l0.033,-0.05l0.033,-0.05l0.032,-0.05l0.031,-0.051l0.03,-0.051l0.016,-0.026l0.015,-0.025l0.014,-0.026l0.015,-0.026l0.015,-0.027l0.014,-0.026l0.014,-0.026l0.014,-0.026l0.014,-0.027l0.014,-0.027l0.013,-0.026l0.014,-0.027l0.013,-0.027l0.013,-0.027l0.013,-0.027l0.013,-0.027l0.012,-0.027l0.013,-0.028l0.012,-0.027l0.012,-0.028l0.012,-0.027l0.012,-0.028l0.012,-0.028l0.011,-0.027l0.012,-0.028l0.011,-0.028l0.011,-0.029l0.011,-0.028l0.01,-0.028l0.011,-0.028l0.01,-0.029l0.01,-0.028l0.01,-0.029l0.01,-0.029l0.01,-0.028l0.009,-0.029l0.009,-0.029l0.01,-0.029l0.008,-0.029l0.009,-0.029l0.009,-0.029l0.008,-0.03l0.009,-0.029l0.008,-0.029l0.007,-0.03l0.008,-0.03l0.008,-0.029l0.007,-0.03l0.007,-0.03l0.007,-0.03l0.007,-0.029l0.007,-0.03l0.006,-0.031l0.006,-0.03l0.007,-0.03l0.005,-0.03l0.006,-0.03l0.006,-0.031l0.005,-0.03l0.005,-0.031l0.005,-0.03l0.005,-0.031l0.005,-0.031l0.004,-0.03l0.004,-0.031l0.004,-0.031l0.004,-0.031l0.004,-0.031l0.003,-0.031l0.003,-0.031l0.003,-0.031l0.003,-0.032l0.003,-0.031l0.003,-0.031l0.002,-0.032l0.002,-0.031l0.002,-0.032l0.002,-0.031l0.001,-0.032l0.001,-0.031l0.001,-0.032l0.001,-0.032l0.001,-0.032l0.001,-0.032l0,-0.032l0,-0.031l0,-41.953l0,-0.032l0,-0.032l-0.001,-0.032l-0.001,-0.031l-0.001,-0.032l-0.001,-0.032l-0.001,-0.031l-0.001,-0.032l-0.002,-0.032l-0.002,-0.031l-0.002,-0.032l-0.002,-0.031l-0.003,-0.031l-0.003,-0.032l-0.003,-0.031l-0.003,-0.031l-0.003,-0.031l-0.003,-0.031l-0.004,-0.031l-0.004,-0.031l-0.004,-0.031l-0.004,-0.031l-0.004,-0.031l-0.005,-0.03l-0.005,-0.031l-0.005,-0.03l-0.005,-0.031l-0.005,-0.03l-0.006,-0.031l-0.006,-0.03l-0.005,-0.03l-0.007,-0.031l-0.006,-0.03l-0.006,-0.03l-0.007,-0.03l-0.007,-0.03l-0.007,-0.03l-0.007,-0.029l-0.007,-0.03l-0.008,-0.03l-0.008,-0.029l-0.007,-0.03l-0.008,-0.029l-0.009,-0.03l-0.008,-0.029l-0.009,-0.029l-0.009,-0.029l-0.008,-0.029l-0.01,-0.029l-0.009,-0.029l-0.009,-0.029l-0.01,-0.029l-0.01,-0.028l-0.01,-0.029l-0.01,-0.028l-0.01,-0.029l-0.011,-0.028l-0.01,-0.029l-0.011,-0.028l-0.011,-0.028l-0.011,-0.028l-0.012,-0.028l-0.011,-0.028l-0.012,-0.027l-0.012,-0.028l-0.012,-0.028l-0.012,-0.027l-0.012,-0.028l-0.013,-0.027l-0.012,-0.027l-0.013,-0.027l-0.013,-0.027l-0.013,-0.027l-0.013,-0.027l-0.014,-0.027l-0.013,-0.027l-0.014,-0.026l-0.014,-0.027l-0.014,-0.026l-0.014,-0.027l-0.014,-0.026l-0.015,-0.026l-0.015,-0.026l-0.014,-0.026l-0.015,-0.026l-0.016,-0.025l-0.03,-0.052l-0.031,-0.05l-0.032,-0.051l-0.033,-0.05l-0.033,-0.049l-0.033,-0.049l-0.035,-0.049l-0.034,-0.048l-0.036,-0.048l-0.036,-0.047l-0.036,-0.047l-0.037,-0.047l-0.038,-0.046l-0.038,-0.045l-0.038,-0.045l-0.039,-0.045l-0.04,-0.044l-0.04,-0.044l-0.041,-0.043l-0.041,-0.043l-0.042,-0.042l-0.042,-0.042l-0.043,-0.041l-0.043,-0.041l-0.043,-0.04l-0.045,-0.039l-0.044,-0.039l-0.045,-0.039l-0.046,-0.038l-0.046,-0.038l-0.046,-0.037l-0.047,-0.036l-0.048,-0.036l-0.048,-0.035l-0.048,-0.035l-0.048,-0.034l-0.05,-0.034l-0.049,-0.033l-0.05,-0.032l-0.05,-0.032l-0.051,-0.031l-0.051,-0.031l-0.026,-0.015l-0.026,-0.015l-0.026,-0.015l-0.026,-0.015l-0.026,-0.014l-0.026,-0.015l-0.026,-0.014l-0.027,-0.014l-0.026,-0.014l-0.027,-0.013l-0.027,-0.014l-0.026,-0.013l-0.027,-0.014l-0.027,-0.013l-0.027,-0.013l-0.028,-0.013l-0.027,-0.012l-0.027,-0.013l-0.028,-0.012l-0.027,-0.012l-0.028,-0.012l-0.027,-0.012l-0.028,-0.012l-0.028,-0.011l-0.028,-0.011l-0.028,-0.011l-0.028,-0.011l-0.028,-0.011l-0.028,-0.011l-0.029,-0.01l-0.028,-0.011l-0.029,-0.01l-0.028,-0.01l-0.029,-0.01l-0.029,-0.009l-0.029,-0.01l-0.028,-0.009l-0.029,-0.009l-0.029,-0.009l-0.03,-0.009l-0.029,-0.009l-0.029,-0.008l-0.029,-0.008l-0.03,-0.008l-0.029,-0.008l-0.03,-0.008l-0.03,-0.007l-0.029,-0.008l-0.03,-0.007l-0.03,-0.007l-0.03,-0.007l-0.03,-0.006l-0.03,-0.007l-0.03,-0.006l-0.03,-0.006l-0.031,-0.006l-0.03,-0.006l-0.03,-0.005l-0.031,-0.006l-0.03,-0.005l-0.031,-0.005l-0.03,-0.005l-0.031,-0.004l-0.031,-0.005l-0.031,-0.004l-0.031,-0.004l-0.031,-0.004l-0.031,-0.003l-0.031,-0.004l-0.031,-0.003l-0.031,-0.003l-0.031,-0.003l-0.031,-0.003l-0.032,-0.002l-0.031,-0.003l-0.032,-0.002l-0.031,-0.001l-0.032,-0.002l-0.031,-0.002l-0.032,-0.001l-0.032,-0.001l-0.031,-0.001l-0.032,-0.001l-0.032,0l-0.032,-0.001l-0.032,0l-36.67,0Z" style="fill:#18001f;"/></g><path id="Etikett" d="M4.032,21.936l46.558,0l0,30.651l-23.066,0.24l-23.492,-0.24l0,-30.651Z" style="fill:url(#_Linear2);"/><path d="M50.72,20.945l0.129,0.025l0.124,0.042l0.117,0.058l0.109,0.073l0.098,0.086l0.086,0.099l0.073,0.108l0.058,0.118l0.042,0.123l0.025,0.129l0.009,0.13l0,30.651l-0.009,0.13l-0.025,0.127l-0.041,0.124l-0.057,0.116l-0.072,0.109l-0.085,0.098l-0.098,0.086l-0.107,0.073l-0.116,0.058l-0.123,0.043l-0.127,0.026l-0.13,0.01l-23.076,0.24l-23.502,-0.24l-0.129,-0.009l-0.128,-0.027l-0.122,-0.043l-0.117,-0.058l-0.107,-0.073l-0.097,-0.086l-0.086,-0.098l-0.071,-0.109l-0.057,-0.116l-0.042,-0.123l-0.025,-0.128l-0.009,-0.13l0,-30.651l0.009,-0.13l0.025,-0.129l0.042,-0.123l0.058,-0.118l0.073,-0.108l0.086,-0.099l0.099,-0.086l0.108,-0.073l0.118,-0.058l0.124,-0.042l0.128,-0.025l0.13,-0.009l46.558,0l0.13,0.009Zm-46.688,0.991l0,30.651l23.492,0.24l23.066,-0.24l0,-30.651l-46.558,0Z"/><path d="M25.993,42.714c-1.029,-4.275 -3.214,-13.165 -3.596,-14.162c-0.477,-1.243 -1.016,-0.29 -0.995,0.415c0.02,0.704 0.331,1.119 0.331,1.119c0,0 -1.208,-0.589 -0.912,-2.135c0.251,-1.306 1.113,-1.437 1.47,-1.039c0.213,0.239 0.361,0.763 0.416,0.956c0.077,0.264 2.167,8.754 3.515,14.142l-0.002,0.004c2.04,-6.101 4.937,-12.164 6.978,-15.242c1.567,-2.365 2.64,-1.726 3.2,-1.27c0.559,0.456 0.61,0.998 0.61,0.998c0,0 -0.348,-0.539 -0.961,-0.621c-0.576,-0.077 -1.556,0.272 -2.998,2.493c-2.57,3.955 -4.415,8.575 -6.56,14.705c0,0 0,-0.001 0,-0.001c0.391,1.561 0.689,2.729 0.803,3.138c0.904,3.256 -1.662,4.618 -2.153,1.568c-0.181,-1.12 0.187,-2.946 0.854,-5.068Zm-0.508,4.864c-0.065,-0.932 0.763,-3.798 0.763,-3.798c0.121,0.509 0.209,0.881 0.251,1.07c0.316,1.404 0.42,2.436 0.333,2.977c-0.185,1.139 -1.244,1.24 -1.347,-0.249Zm0.508,-4.864l0.001,0.004l-0.001,-0.005l0,0.001Z" style="stroke:#000;stroke-width:0.24px;"/><path id="Lokk" d="M54.128,3.27c0,-1.324 -1.075,-2.4 -2.4,-2.4l-48.408,0c-1.325,0 -2.4,1.076 -2.4,2.4l0,4.8c0,1.325 1.075,2.4 2.4,2.4l48.408,0c1.325,0 2.4,-1.075 2.4,-2.4l0,-4.8Z" style="fill:url(#_Linear3);stroke:#000;stroke-width:1.5px;"/></g><defs><linearGradient id="_Linear1" x1="0" y1="0" x2="1" y2="0" gradientUnits="userSpaceOnUse" gradientTransform="matrix(46.5575,0,0,51.84,4.24542,36.3904)"><stop offset="0" style="stop-color:#18001f;stop-opacity:1"/><stop offset="0.09" style="stop-color:#2f1237;stop-opacity:1"/><stop offset="0.2" style="stop-color:#45234e;stop-opacity:1"/><stop offset="0.5" style="stop-color:#4f2a58;stop-opacity:1"/><stop offset="0.8" style="stop-color:#45234e;stop-opacity:1"/><stop offset="0.91" style="stop-color:#2f1237;stop-opacity:1"/><stop offset="1" style="stop-color:#18001f;stop-opacity:1"/></linearGradient><linearGradient id="_Linear2" x1="0" y1="0" x2="1" y2="0" gradientUnits="userSpaceOnUse" gradientTransform="matrix(46.5575,0,0,32.571,4.24542,36.5959)"><stop offset="0" style="stop-color:#7c715a;stop-opacity:1"/><stop offset="0.09" style="stop-color:#afa795;stop-opacity:1"/><stop offset="0.2" style="stop-color:#e1dbcf;stop-opacity:1"/><stop offset="0.5" style="stop-color:#f7f2e8;stop-opacity:1"/><stop offset="0.8" style="stop-color:#e1dbcf;stop-opacity:1"/><stop offset="0.91" style="stop-color:#afa695;stop-opacity:1"/><stop offset="1" style="stop-color:#7c7059;stop-opacity:1"/></linearGradient><linearGradient id="_Linear3" x1="0" y1="0" x2="1" y2="0" gradientUnits="userSpaceOnUse" gradientTransform="matrix(53.2086,0,0,9.6,0.91988,5.67036)"><stop offset="0" style="stop-color:#1e1b1b;stop-opacity:1"/><stop offset="0.09" style="stop-color:#464444;stop-opacity:1"/><stop offset="0.2" style="stop-color:#6c6c6c;stop-opacity:1"/><stop offset="0.5" style="stop-color:#7d7d7d;stop-opacity:1"/><stop offset="0.8" style="stop-color:#6c6c6c;stop-opacity:1"/><stop offset="0.91" style="stop-color:#464444;stop-opacity:1"/><stop offset="1" style="stop-color:#1e1b1b;stop-opacity:1"/></linearGradient></defs></svg>