<?xml version="1.0" encoding="UTF-8" standalone="no"?><!DOCTYPE svg PUBLIC "-//W3C//DTD SVG 1.1//EN" "http://www.w3.org/Graphics/SVG/1.1/DTD/svg11.dtd"><svg width="100%" height="100%" viewBox="0 0 909 435" version="1.1" xmlns="http://www.w3.org/2000/svg" xmlns:xlink="http://www.w3.org/1999/xlink" xml:space="preserve" xmlns:serif="http://www.serif.com/" style="fill-rule:evenodd;clip-rule:evenodd;stroke-linecap:round;stroke-miterlimit:1.5;"><rect id="GameMap" x="0.479" y="0.594" width="907.93" height="433.236" style="fill:none;"/><clipPath id="_clip1"><rect x="0.479" y="0.594" width="907.93" height="433.236"/></clipPath><g clip-path="url(#_clip1)"><g id="WalkingPath"><path d="M-116.527,123.628l168.54,19.716l73.139,-30.528l67.416,1.908l60.42,-2.544l117.66,-46.428l75.048,-15.9l66.78,-8.904l43.248,35.616l42.612,43.884l61.692,34.98l48.336,24.804l48.132,23.995l-6.793,-51.979l-8.268,-52.788l71.868,-1.908l54.696,33.708l72.504,0" style="fill:none;stroke:#002957;stroke-width:1.5px;"/><path d="M-62.467,190.408l114.48,-47.064l13.356,52.788l-101.76,64.872" style="fill:none;stroke:#002957;stroke-width:1.5px;"/><path d="M65.369,196.132l61.055,-83.316l1.272,102.396l-62.327,-19.08Z" style="fill:none;stroke:#002957;stroke-width:1.5px;"/><path d="M127.696,215.212l40.068,113.208l23.532,73.14" style="fill:none;stroke:#002957;stroke-width:1.5px;"/><path d="M167.764,328.42l36.252,-69.96l-76.251,-43.053l81.975,-8.463l-47.7,-47.064l-35.811,-46.633c0,0 66.169,0.75 66.339,1.477l41.919,47.543l-72.447,-2.387" style="fill:none;stroke:#002957;stroke-width:1.5px;"/><path d="M209.74,206.944c0,0 24.213,-45.21 24.747,-44.677c0.533,0.534 18.501,-50.087 18.501,-50.087l116.377,29.721l1.283,-76.149l54.074,40.003l-55.357,36.146l-77.5,198.309l-87.849,-81.75l50.401,135.154l37.448,-53.404l134.485,-89.874l84.665,-1.954l-49.496,52.101l-35.169,-50.147" style="fill:none;stroke:#002957;stroke-width:1.5px;"/><path d="M461.519,300.483l33.54,58.614l15.956,-110.715l-22.795,-53.078l-59.59,-17.91l-59.265,-35.493" style="fill:none;stroke:#002957;stroke-width:1.5px;"/><path d="M424.722,105.755l3.908,71.639l73.592,-42.983l-14.002,60.893l56.986,-33.54l13.025,59.591l-70.011,-26.051" style="fill:none;stroke:#002957;stroke-width:1.5px;"/><path d="M558.231,221.355l44.286,-45.263l-57.311,-14.328l-42.984,-27.353l-25.073,-40.053l-52.427,11.397l20.974,-55.903l31.453,44.506" style="fill:none;stroke:#002957;stroke-width:1.5px;"/><path d="M512.476,40.948l-10.254,93.463l53.502,-57.847" style="fill:none;stroke:#002957;stroke-width:1.5px;"/><path d="M598.336,120.448l-53.13,41.316" style="fill:none;stroke:#002957;stroke-width:1.5px;"/><path d="M598.336,120.448l4.181,55.644l12.374,65.777l45.137,-86.441l-57.511,20.664" style="fill:none;stroke:#002957;stroke-width:1.5px;"/><path d="M614.891,241.869l52.752,28.656l-7.615,-115.097" style="fill:none;stroke:#002957;stroke-width:1.5px;"/><path d="M708.364,180.232l-40.721,90.293l47.542,-29.958l-6.821,-60.335Z" style="fill:none;stroke:#002957;stroke-width:1.5px;"/><path d="M667.643,270.525l52.427,35.168l-4.885,-65.126l41.311,-36.34l11.116,64.344l-52.427,-28.004" style="fill:none;stroke:#002957;stroke-width:1.5px;"/><path d="M824.923,265.315l-57.311,3.256l-47.542,37.122l157.606,78.152l-52.753,-118.53Z" style="fill:none;stroke:#002957;stroke-width:1.5px;"/><path d="M877.676,383.845l37.122,-24.097" style="fill:none;stroke:#002957;stroke-width:1.5px;"/><path d="M824.923,265.315l90.851,-37.122" style="fill:none;stroke:#002957;stroke-width:1.5px;"/><path d="M821.341,205.073l-64.845,-0.846l68.427,61.088l-3.582,-60.242Z" style="fill:none;stroke:#002957;stroke-width:1.5px;"/><path d="M865.953,182.93l-44.612,22.143l-71.183,-49.343l117.841,-24.47l-2.046,51.67Z" style="fill:none;stroke:#002957;stroke-width:1.5px;"/><path d="M750.158,155.73l63.145,-58.178" style="fill:none;stroke:#002957;stroke-width:1.5px;"/></g><g id="Map"><path d="M229.73,28.958c-6.848,1.169 -12.985,-1.217 -18.444,-6.996l-6.996,-9.539l-16.536,0.636l-14.628,-13.356l-12.084,5.088l-10.176,-5.088l9.54,10.812c-8.002,3.445 -13.915,8.98 -18.444,15.899c-4.386,5.526 -7.419,12.572 -4.858,19.486c2.756,2.681 6.554,1.662 9.31,0.866l-3.18,7.632c4.619,3.06 7.644,1.868 10.176,-0.636c5.883,10.037 14.118,13.799 24.168,12.72c-1.2,8.62 -0.483,15.323 3.18,19.08c4.466,4.276 5.025,2.691 6.705,0c-3.757,-4.924 -4.053,-10.281 -2.253,-15.9c9.708,-1.036 7.666,-9.319 4.161,-20.091l-0.345,-25.065c13.452,-4.225 22.811,0.851 28.62,13.992c-1.9,9.594 -0.43,12.51 9.479,8.904l0.146,-10.927c9.728,8.2 13.789,17.816 15.179,28.099c13.95,3.558 18.506,13.947 17.172,28.62l8.904,12.084c-1.727,11.37 -6.707,14.608 -13.992,12.084c-7.62,3.416 -11.41,0.704 -12.084,-6.996c2.916,-6.121 4.835,-11.745 6.36,-17.172c-12.996,-0.7 -23.607,0.985 -32.436,4.452l13.992,4.452c0.879,4.99 0.628,9.697 -1.272,13.992c-11.487,2.223 -17.779,8.696 -21.624,17.172c-7.966,7.014 -11.876,15.589 -10.812,26.076c-19.31,3.359 -23.74,12.298 -15.264,26.076c13.992,13.183 20.69,16.273 34.682,21.793c4.553,8.088 7.802,16.216 -9.878,13.187l-10.812,-4.452l-19.08,-12.084c0.611,-15.487 -2.791,-24.836 -13.992,-22.26c-10.28,-3.45 -21.402,-3.956 -33.072,-2.544l-2.544,24.804c6.089,9.523 13.452,11.827 21.624,9.54c-2.813,-9.12 3.547,-10.9 14.628,-8.904l-1.908,13.992c-1.893,4.394 1.591,6.771 10.812,6.996l1.272,14.628l15.264,4.452c5.633,0.125 9.407,-2.14 10.176,-8.268c7.77,-3.089 15.703,-3.585 24.168,4.452l16.536,0l11.448,14.628l15.264,-3.816c9.347,23.458 29.426,31.792 54.06,33.708l5.088,17.172l-12.72,12.084c2.74,25.321 -5.196,38.082 -26.076,35.616c-10.654,30.333 -29.161,48.622 -50.244,62.964l-8.268,-1.908c3.788,10.916 1.026,19.906 -6.996,27.348c0,0 12.084,-1.272 11.448,-1.272c-0.636,0 -15.9,20.988 -15.9,20.988l10.176,17.808c-1.797,5.951 -5.621,9.267 -14.367,6.184c-18.075,-16.359 -19.514,-36.126 -9.801,-61.516l10.176,-85.86c-14.968,-5.448 -21.938,-14.895 -21.624,-27.984c-17.694,-11.174 -17.959,-24.725 -5.088,-40.068l2.544,-15.264l-20.352,-5.724l-28.62,-15.9l-33.24,-16.437c-9.789,-19.186 -22.795,-33.545 -35.448,-48.435l-25.439,-59.148c-10.629,-9.719 -16.095,-21.786 -19.08,-34.98l-12.72,0l1.908,-19.716l-41.976,-11.448l11.394,-55.953l47.118,-26.726l36.251,-1.908l39.432,15.264l37.524,5.724l29.256,-12.72l29.256,-3.816l19.716,11.448l6.996,10.176l14.628,12.084c-3.492,9.086 -7.261,14.572 -11.448,14.628c-0.023,8.244 -1.013,15.522 -3.816,20.987" style="fill:#425f44;fill-opacity:0.6;stroke:#000;stroke-width:1px;"/><path d="M522.616,-7.054l11.071,5.535l10.42,-0.325l1.303,-15.305c-10.049,-4.443 -19.627,-12.185 -28.981,-21.492c-17.591,-6.209 -32.623,-3.038 -43.961,13.677l-26.701,45.914c-12.629,7.367 -19.336,18.318 -5.536,41.681c8.358,9.468 16.716,9.115 25.073,2.605c6.932,-1.301 8.439,-7.122 7.034,-15.37c10.484,2.496 9.792,-4.275 0.13,-19.147l12.049,-16.933l5.861,-14.002l6.838,10.746c-9.954,2.749 -14.924,11.035 -12.374,27.678l9.118,3.582l-0.977,8.141l0,4.233c0,0 -7.489,6.839 -7.489,7.49c0,0.651 -2.605,8.792 -2.605,8.792l-21.492,3.582l-27.028,3.908l-5.861,10.094l-12.048,8.792l-17.584,8.792l2.93,3.582l12.7,0.977l-1.628,12.048l-20.515,0.977l-0.977,26.051l7.164,6.187l-3.256,6.838l-6.187,3.908l0,11.397c-14.29,5.864 -21.379,15.518 -22.469,28.33c-6.008,25.18 -0.7,43.355 22.469,50.473l58.613,3.907l0.326,26.051l9.443,6.187l4.559,45.588l11.397,35.82c17.629,24.996 34.559,18.92 50.799,-17.91l3.907,-19.538c16.353,-5.958 20.292,-20.679 13.026,-43.309c-1.774,-5.523 4.247,-15.633 11.523,-19.757c9.174,-5.198 21.103,-14.106 26.901,-35.6l-24.097,0.651c-20.099,-17.45 -25.286,-35.578 -29.958,-53.729c7.333,16.795 17.632,32.266 34.517,42.983c12.217,2.977 24.363,-0.806 34.843,-11.723l5.861,-21.166l-21.817,-3.582l-10.095,-13.351l6.513,-0.325l9.443,9.769l40.704,6.838l14.654,14.002c5.399,15.022 11.54,29.726 21.817,42.658c-2.855,8.575 -5.056,17.15 -1.628,25.725l7.489,1.628c11.796,-4.434 7.314,-26.503 2.28,-49.17c6.689,-13.1 15.956,-23.047 35.168,-20.841l19.212,19.212l16.607,18.236c18.155,-3.346 19.619,-13.739 6.513,-30.284l14.002,-10.095c35.347,2.618 39.64,-17.723 31.912,-44.285l-6.187,-4.234l8.141,-16.607l28.33,-4.884l22.794,-21.818l9.443,-22.468l8.467,9.443l4.559,-3.582l-3.908,-17.91l-24.097,-9.117l19.864,-24.097l31.26,-1.954l27.028,-28.004l0.326,-62.521l-27.679,3.582c-3.383,-15.707 -16.481,-22.024 -40.704,-17.585l-3.908,10.095l-19.212,-0.651l-4.233,8.141l-4.233,-23.446c-4.922,-5.881 -11.469,-8.837 -19.864,-8.466l-1.628,13.351l-8.792,-5.536l-20.515,-5.862c5.579,-20.941 5.219,-36.57 -15.63,-33.865c-7.318,-19.446 -16.237,-19.348 -27.028,3.582c-18.443,2.137 -30.642,10.039 -40.052,20.514l-4.559,11.723l-13.025,0.651l5.861,19.213c-5.808,-6.005 -12.623,-9.321 -20.515,-9.769l-7.164,11.723l-7.164,-21.492l-13.025,23.771c-4.148,10.488 -2.083,19.035 4.885,26.051c-36.152,-12.804 -50.666,-42.778 -20.791,-67.07c7.021,-5.709 20.066,-5.257 24.047,-20.851l-12.7,-0.326c2.174,6.036 -6.754,9.296 -18.496,11.853c-10.642,8.604 -26.894,30.097 -15.369,59.135l19.212,14.002c-19.264,-5.112 -33.902,-2.334 -41.355,12.7c-8.219,-15.898 -11.841,-12.649 -11.723,6.187c-7.028,3.164 -11.317,7.972 -11.397,15.305l-11.072,4.884l-9.117,-21.817Zm-115.404,162.175c27.862,-6.777 47.24,-7.192 47.307,6.877l27.301,11.254c0.872,-7.763 9.341,-8.562 26.885,-1.042c25.161,2.59 27.425,-4.048 6.043,-20.215c-10.46,3.665 -14.687,0.364 -13.338,-9.17c-3.88,4.943 -9.041,8.604 -15.005,11.462l-6.252,-22.09c-2.386,-5.259 -9.701,-10.928 -20.423,-16.881c2.109,6.29 6.086,12.813 13.754,19.798c1.776,20.407 -5.11,22.664 -17.923,12.505c10.234,-1.948 12.553,-6.111 5.419,-12.922c-7.429,-15.689 -17.788,-18.35 -31.469,-6.252l-22.299,26.676Zm165.681,-45.432l0.834,28.968l0.962,11.823l-4.297,5.266c10.613,1.157 18.246,-0.541 16.256,-11.462l-6.044,-19.59l-7.711,-15.005Zm-66.689,26.051l26.259,-2.293l16.047,0.208l-10.212,-18.339l-3.543,-7.086l-11.254,9.378l-5.835,-10.211l-11.462,28.343Z" style="fill:#425f44;fill-opacity:0.6;stroke:#000;stroke-width:1px;"/><path d="M298.418,40.968c0.191,-20.362 5.839,-34.427 15.061,-44.368l6.415,9.981c-2.817,-17.483 13.687,-24.261 31.032,-29.926l10.176,-8.547l-10.99,-6.92l0.814,-9.769c3.153,6.042 7.093,10.508 13.026,10.99c-3.319,-9.951 -3.58,-18.591 -2.036,-26.457c5.354,-3.01 9.876,-9.343 13.84,-17.91l-0.814,-40.704l1.628,-18.724l5.698,-18.724l-180.318,-12.211l13.025,32.97l-12.211,6.106c0.433,8.874 4.255,14.642 13.025,15.874l-7.327,4.885c-0.252,3.94 1.496,6.452 6.106,6.919c2.757,13.347 11.007,15.706 22.794,10.991l1.628,-13.026l23.43,73.43c0.235,58.178 15.62,76.707 35.998,75.14Z" style="fill:#425f44;fill-opacity:0.6;stroke:#000;stroke-width:1px;"/><path d="M361.509,7.997c-6.005,-9.242 4.396,-11.075 19.945,-10.583c16.511,4.787 17.024,11.805 3.664,20.759c-11.174,2.115 -18.688,-1.87 -23.609,-10.176Z" style="fill:#425f44;fill-opacity:0.6;stroke:#000;stroke-width:1px;"/><path d="M410.082,58.015l13.171,21.507c0.964,6.353 -0.992,10.848 -7.669,12.338l-12.671,5.002l-3.168,-6.836l-10.67,-5.002l-7.336,-6.502l-8.17,-6.335l6.002,-8.337l10.337,1.501l3.001,5.669l6.502,-2.835c1.311,7.587 3.442,11.615 6.836,10.17c2.759,-0.113 0.603,-6.277 -5.668,-17.506c0.484,-10.673 3.461,-12.306 9.503,-2.834Z" style="fill:#425f44;fill-opacity:0.6;stroke:#000;stroke-width:1px;"/><path d="M825.84,374.628c7.136,13.216 16.066,22.129 26.676,27.009c11.775,7.133 21.402,8.177 29.009,3.501l1.168,-10.837l9.836,-18.84c3.841,-12.757 1.605,-22.476 -5.668,-29.676l-16.006,-16.506c-9.326,-22.815 -15.378,-20.374 -19.84,-5.669l-7.669,-3.668c-9.947,-16.97 -18.647,-17.319 -26.509,-6.502l-24.342,17.006c-19.064,5.299 -27.842,14.929 -20.507,31.344c1.329,27.418 10.314,33.881 24.842,25.175l29.01,-12.337Z" style="fill:#425f44;fill-opacity:0.6;stroke:#000;stroke-width:1px;"/><path d="M795.83,226.244l36.846,31.677l12.504,13.672l11.17,8.669l12.504,9.503l23.508,-4.001l3.335,4.835l-20.34,7.002l13.671,16.006l-7.336,0.667l-13.171,-13.005l-20.007,-0.166l-11.004,-10.504l-14.171,-15.839l-12.171,-17.672l-15.172,-13.338l-8.169,-14.338l2.834,-14.005l5.169,10.837Z" style="fill:#425f44;fill-opacity:0.6;stroke:#000;stroke-width:1px;"/><path d="M729.974,263.923l-1.167,-16.839l6.169,1.668l5.168,17.005l11.337,17.173l13.005,9.836l11.504,7.17l-16.006,1.667l-16.839,-6.836l-7.336,-14.005l-8.002,-7.669l-9.67,-8.336l-5.502,-9.503l5.835,-2.668l11.504,11.337Z" style="fill:#425f44;fill-opacity:0.6;stroke:#000;stroke-width:1px;"/><path d="M788.994,243.416l-2.501,27.01l-14.838,13.337l-16.339,-6.502l-2.001,-12.504l-0.167,-7.503l-3.667,-7.502l9.836,-0.667l11.004,8.169l6.335,-8.002l6.003,-9.337l6.335,3.501Z" style="fill:#425f44;fill-opacity:0.6;stroke:#000;stroke-width:1px;"/><path d="M827.402,178.703l13.231,-15.365l13.402,-6.829l12.377,-7.427l9.988,-16.389l-7.598,-13.061l-15.621,2.22l-2.561,16.645l-8.877,11.524l-12.463,4.695l-11.012,13.573l1.878,9.902l7.256,0.512" style="fill:#425f44;fill-opacity:0.6;stroke:#000;stroke-width:1px;"/></g></g><rect x="0.479" y="0.594" width="907.93" height="433.236" style="fill:none;stroke:#000;stroke-width:0.5px;"/></svg>