<?xml version="1.0" encoding="UTF-8" standalone="no"?><!DOCTYPE svg PUBLIC "-//W3C//DTD SVG 1.1//EN" "http://www.w3.org/Graphics/SVG/1.1/DTD/svg11.dtd"><svg width="100%" height="100%" viewBox="0 0 173 173" version="1.1" xmlns="http://www.w3.org/2000/svg" xmlns:xlink="http://www.w3.org/1999/xlink" xml:space="preserve" xmlns:serif="http://www.serif.com/" style="fill-rule:evenodd;clip-rule:evenodd;stroke-linecap:square;stroke-linejoin:round;stroke-miterlimit:1.5;"><g id="No-InfectionCard" serif:id="No InfectionCard"><path d="M15.575,2.314c-7.418,0.006 -13.435,6.033 -13.429,13.451l0.11,141.12c0.006,7.418 6.033,13.435 13.451,13.429l141.12,-0.111c7.418,-0.006 13.435,-6.033 13.429,-13.45l-0.111,-141.12c-0.005,-7.418 -6.032,-13.436 -13.45,-13.43l-141.12,0.111Z" style="fill:url(#_Radial1);stroke:#00191f;stroke-width:4.04px;stroke-dasharray:8.09,8.09,0,0;"/><path d="M62.494,80.592c-2.819,-4.631 -4.455,-10.14 -4.455,-16.048c0,-16.384 12.576,-29.69 28.083,-29.735c-13.098,0.042 -23.718,10.689 -23.718,23.797c0,7.541 3.515,14.268 8.996,18.63l0,0l0.059,0.046l-0.059,-0.046c3.964,-3.447 9.141,-5.534 14.801,-5.534c5.66,0 10.837,2.087 14.801,5.534l-0.059,0.046l0.059,-0.046l0,0c5.481,-4.362 8.996,-11.089 8.996,-18.63c0,-13.108 -10.62,-23.755 -23.718,-23.797c15.507,0.045 28.083,13.351 28.083,29.735c0,5.908 -1.636,11.417 -4.456,16.048c5.42,-0.127 11.009,1.211 16.126,4.166c14.189,8.191 19.424,25.736 11.71,39.187c6.512,-11.364 2.602,-25.885 -8.75,-32.439c-6.531,-3.771 -14.115,-4.09 -20.632,-1.524l0,0l-0.07,0.028l0.07,-0.028c1.003,5.156 0.222,10.683 -2.608,15.585c-2.83,4.902 -7.226,8.341 -12.193,10.051l-0.011,-0.074l0.011,0.074l0,0c1.037,6.927 5.105,13.335 11.636,17.106c11.352,6.554 25.882,2.68 32.468,-8.642c-7.792,13.407 -25.604,17.645 -39.792,9.453c-5.118,-2.955 -9.07,-7.126 -11.671,-11.882c-2.601,4.756 -6.553,8.927 -11.671,11.882c-14.188,8.192 -32,3.954 -39.792,-9.453c6.586,11.322 21.116,15.196 32.468,8.642c6.531,-3.771 10.599,-10.179 11.636,-17.106l0,0l0.011,-0.074l-0.011,0.074c-4.967,-1.71 -9.363,-5.149 -12.193,-10.051c-2.83,-4.902 -3.611,-10.429 -2.608,-15.585l0.07,0.028l-0.07,-0.028l0,0c-6.518,-2.566 -14.101,-2.247 -20.632,1.524c-11.352,6.554 -15.262,21.075 -8.75,32.439c-7.714,-13.451 -2.479,-30.996 11.71,-39.187c5.117,-2.955 10.706,-4.293 16.125,-4.166Zm16.369,34.884l0.001,-0.006l-0.008,0.055l0.007,-0.049Zm14.683,0.048l-0.008,-0.054l0.001,0.006l0.007,0.048Zm-14.673,-0.119l0.001,-0.009l-0.007,0.048l0.006,-0.039Zm14.662,0.039l-0.007,-0.048l0.001,0.009l0.006,0.039Zm-14.652,-0.109l0.001,-0.013l-0.006,0.046l0.005,-0.033Zm14.641,0.032l-0.006,-0.044l0.001,0.012l0.005,0.032Zm-14.632,-0.103l0.002,-0.016l-0.006,0.045l0.004,-0.029Zm14.622,0.028l-0.006,-0.043l0.002,0.015l0.004,0.028Zm-14.612,-0.099l0.002,-0.019l-0.006,0.044l0.004,-0.025Zm14.602,0.025l-0.006,-0.043l0.002,0.018l0.004,0.025Zm-14.593,-0.096l0.003,-0.022l-0.006,0.044l0.003,-0.022Zm14.583,0.021l-0.006,-0.043l0.003,0.022l0.003,0.021Zm-14.574,-0.092l0.003,-0.026l-0.006,0.045l0.003,-0.019Zm14.564,0.018l-0.005,-0.043l0.003,0.025l0.002,0.018Zm-14.555,-0.089l0.003,-0.03l-0.005,0.045l0.002,-0.015Zm14.546,0.015l-0.005,-0.044l0.003,0.029l0.002,0.015Zm-14.538,-0.086l0.004,-0.035l-0.005,0.047l0.001,-0.012Zm14.529,0.012l-0.005,-0.046l0.004,0.034l0.001,0.012Zm-14.52,-0.083l0.004,-0.042l-0.006,0.051l0.002,-0.009Zm14.511,0.009l-0.005,-0.049l0.004,0.04l0.001,0.009Zm-14.503,-0.08l0.006,-0.056l-0.007,0.062l0.001,-0.006Zm14.495,0.006l-0.007,-0.058l0.006,0.052l0.001,0.006Zm-14.479,-0.152l-0.001,0.003l0,0.001l0,-0.002l0.001,-0.002Zm14.462,0l-0.007,-0.072l0,0.005l0.007,0.067Zm-14.448,-0.139l0.001,-0.007l-0.006,0.057l0.005,-0.05Zm14.438,0.046l-0.005,-0.053l0.001,0.007l0.004,0.046Zm-14.431,-0.117l0.001,-0.011l-0.005,0.051l0.004,-0.04Zm14.423,0.037l-0.004,-0.047l0.001,0.01l0.003,0.037Zm-14.416,-0.108l0.001,-0.014l-0.004,0.048l0.003,-0.034Zm14.409,0.032l-0.004,-0.045l0.001,0.013l0.003,0.032Zm-14.402,-0.103l0.001,-0.018l-0.004,0.047l0.003,-0.029Zm14.395,0.027l-0.004,-0.044l0.001,0.017l0.003,0.027Zm-14.389,-0.099l0.002,-0.021l-0.004,0.047l0.002,-0.026Zm14.382,0.024l-0.004,-0.044l0.002,0.02l0.002,0.024Zm-14.376,-0.095l0.003,-0.025l-0.004,0.047l0.001,-0.022Zm14.369,0.021l-0.004,-0.044l0.002,0.023l0.002,0.021Zm-14.363,-0.092l0.003,-0.029l-0.004,0.047l0.001,-0.018Zm14.357,0.017l-0.004,-0.044l0.002,0.027l0.002,0.017Zm-14.351,-0.089l0.003,-0.033l-0.004,0.048l0.001,-0.015Zm14.345,0.014l-0.004,-0.045l0.003,0.031l0.001,0.014Zm-14.339,-0.085l0.003,-0.04l-0.004,0.052l0.001,-0.012Zm14.333,0.011l-0.004,-0.048l0.003,0.037l0.001,0.011Zm-14.328,-0.082l0.004,-0.049l-0.004,0.057l0,-0.008Zm14.322,0.007l-0.004,-0.052l0.004,0.045l0,0.007Zm-0.005,-0.074l-0.005,-0.067l0.004,0.062l0.001,0.005Zm-14.307,-0.077l0,0.002l0,0.006l0,-0.005l0,-0.003Zm0.01,-0.142l0,-0.007l-0.005,0.073l0.005,-0.066Zm14.286,0.057l-0.004,-0.063l0,0.006l0.004,0.057Zm-14.282,-0.129l0,-0.009l-0.003,0.057l0.003,-0.048Zm14.277,0.043l-0.004,-0.051l0.001,0.008l0.003,0.043Zm-14.273,-0.114l0.001,-0.013l-0.003,0.052l0.002,-0.039Zm14.268,0.036l-0.003,-0.048l0.001,0.012l0.002,0.036Zm-14.264,-0.108l0.001,-0.016l-0.003,0.049l0.002,-0.033Zm14.26,0.031l-0.003,-0.046l0.001,0.015l0.002,0.031Zm-14.256,-0.103l0.001,-0.019l-0.003,0.048l0.002,-0.029Zm14.252,0.027l-0.003,-0.045l0.001,0.018l0.002,0.027Zm-14.249,-0.098l0.001,-0.023l-0.002,0.048l0.001,-0.025Zm14.245,0.023l-0.002,-0.045l0.001,0.022l0.001,0.023Zm-14.242,-0.095l0.001,-0.027l-0.002,0.048l0.001,-0.021Zm14.239,0.02l-0.002,-0.045l0.001,0.025l0.001,0.02Zm-14.236,-0.091l0.002,-0.032l-0.002,0.049l0,-0.017Zm14.232,0.016l-0.002,-0.046l0.002,0.03l0,0.016Zm-14.229,-0.088l0.001,-0.037l-0.001,0.051l0,-0.014Zm14.226,0.013l-0.001,-0.047l0.001,0.034l0,0.013Zm-14.223,-0.085l0.001,-0.043l-0.002,0.054l0.001,-0.011Zm14.221,0.01l-0.002,-0.05l0.001,0.04l0.001,0.01Zm-14.219,-0.082l0.002,-0.055l-0.002,0.063l0,-0.008Zm14.216,0.008l-0.002,-0.058l0.002,0.05l0,0.008Zm-0.004,-0.154l0,0.003l0,0.004l0,-0.004l0,-0.003Zm-14.208,0.001l0,0.002l0,0.003l0,-0.003l0,-0.002Zm0.003,-0.142l0.001,-0.007l-0.002,0.066l0.001,-0.059Zm14.203,0.053l-0.002,-0.059l0,0.006l0.002,0.053Zm-14.201,-0.124l0,-0.011l-0.001,0.056l0.001,-0.045Zm14.199,0.041l-0.001,-0.051l0,0.01l0.001,0.041Zm-14.198,-0.113l0,-0.014l-0.001,0.051l0.001,-0.037Zm14.197,0.035l-0.001,-0.048l0,0.013l0.001,0.035Zm-14.196,-0.107l0,-0.017l-0.001,0.049l0.001,-0.032Zm14.195,0.03l-0.001,-0.046l0,0.016l0.001,0.03Zm-14.195,-0.102l0,-0.021l0,0.049l0,-0.028Zm14.194,0.026l-0.001,-0.045l0.001,0.019l0,0.026Zm-14.193,-0.098l0,-0.024l0,0.048l0,-0.024Zm14.192,0.023l0,-0.046l0,0.023l0,0.023Zm-14.192,-0.094l0,-0.029l0,0.049l0,-0.02Zm14.192,0.019l0,-0.047l0,0.028l0,0.019Zm-14.192,-0.091l0,-0.034l0,0.05l0,-0.016Zm14.192,0.016l0,-0.048l0,0.032l0,0.016Zm-14.192,-0.088l0,-0.039l0,0.052l0,-0.013Zm14.192,0.012l0,-0.049l0,0.037l0,0.012Zm-14.193,-0.084l0,-0.047l0,0.057l0,-0.01Zm14.194,0.009l0,-0.053l0,0.044l0,0.009Zm-14.194,-0.081l-0.001,-0.065l0.001,0.072l0,-0.007Zm14.194,0.006l0.001,-0.066l-0.001,0.06l0,0.006Zm0.002,-0.156l0,0.005l0,0.003l0,-0.003l0,-0.005Zm-14.198,0.005l0,0l-0.002,-0.076l0.002,0.076Zm-0.003,-0.143l0,-0.008l0.001,0.062l-0.001,-0.054Zm14.203,0.051l0.001,-0.059l0,0.008l-0.001,0.051Zm-14.205,-0.122l0,-0.012l0.001,0.054l-0.001,-0.042Zm14.207,0.04l0.001,-0.052l0,0.012l-0.001,0.04Zm-14.209,-0.112l0,-0.016l0.001,0.051l-0.001,-0.035Zm14.211,0.034l0.001,-0.049l0,0.015l-0.001,0.034Zm-14.213,-0.106l-0.001,-0.019l0.002,0.049l-0.001,-0.03Zm14.215,0.029l0.002,-0.047l-0.001,0.018l-0.001,0.029Zm-14.217,-0.101l-0.001,-0.023l0.001,0.049l0,-0.026Zm14.219,0.026l0.002,-0.048l-0.001,0.022l-0.001,0.026Zm-14.222,-0.098l-0.001,-0.026l0.002,0.048l-0.001,-0.022Zm14.225,0.022l0.002,-0.048l-0.001,0.026l-0.001,0.022Zm-14.228,-0.094l-0.001,-0.031l0.002,0.05l-0.001,-0.019Zm14.231,0.018l0.002,-0.048l-0.001,0.03l-0.001,0.018Zm-14.234,-0.09l-0.002,-0.036l0.003,0.051l-0.001,-0.015Zm14.237,0.015l0.002,-0.05l-0.001,0.035l-0.001,0.015Zm-14.24,-0.087l-0.002,-0.042l0.002,0.054l0,-0.012Zm14.244,0.012l0.002,-0.053l-0.002,0.041l0,0.012Zm-14.248,-0.084l-0.002,-0.052l0.003,0.061l-0.001,-0.009Zm14.251,0.009l0.003,-0.061l-0.002,0.052l-0.001,0.009Zm0.008,-0.151l-0.004,0.076l0.004,-0.077l0,0.001Zm-14.268,-0.027l0.001,0.021l0,-0.003l-0.001,-0.018l-0.003,-0.051l0,0l0.003,0.051Zm13.286,-20.008c-1.104,-1.903 -3.065,-3.247 -5.354,-3.503l0,-4.828c3.526,-0.116 6.859,-1.001 9.837,-2.493c-2.996,-2.083 -6.668,-3.31 -10.634,-3.31c-3.966,0 -7.638,1.227 -10.634,3.31c2.978,1.492 6.311,2.377 9.837,2.493l0,4.828c-2.289,0.256 -4.25,1.6 -5.354,3.503l-0.002,0.005l-0.003,0.004c-1.096,1.908 -1.28,4.279 -0.358,6.389l-4.181,2.414c-1.863,-2.996 -4.296,-5.44 -7.076,-7.273c-0.307,3.636 0.466,7.43 2.449,10.865c1.983,3.434 4.882,6.001 8.184,7.553c-0.197,-3.324 -1.097,-6.653 -2.759,-9.765l4.181,-2.414c1.365,1.854 3.511,2.881 5.711,2.885l0.005,0l0.005,0c2.2,-0.004 4.345,-1.031 5.711,-2.885l4.181,2.414c-1.662,3.112 -2.562,6.441 -2.759,9.765c3.302,-1.552 6.201,-4.119 8.184,-7.553c1.982,-3.435 2.756,-7.229 2.449,-10.865c-2.78,1.833 -5.213,4.277 -7.077,7.273l-4.18,-2.414c0.922,-2.11 0.738,-4.481 -0.358,-6.389l-0.003,-0.004l-0.002,-0.005Zm11.678,1.501l-0.015,0.01l-0.043,0.028l0,0l0.043,-0.028l0.017,-0.011l-0.002,0.001Zm-35.665,-0.004l0,-0.001l-0.064,-0.041l0.064,0.042Zm35.791,-0.078l-0.043,0.028l0.051,-0.033l-0.008,0.005Zm-35.918,-0.005l0.051,0.033l-0.044,-0.028l-0.007,-0.005Zm35.979,-0.034l-0.035,0.023l0.045,-0.03l-0.01,0.007Zm-36.042,-0.007l0.045,0.029l-0.035,-0.022l-0.01,-0.007Zm36.103,-0.032l-0.03,0.019l0.043,-0.027l-0.013,0.008Zm-36.167,-0.008l0.043,0.027l-0.03,-0.019l-0.013,-0.008Zm36.228,-0.03l-0.026,0.016l0.042,-0.027l-0.016,0.011Zm-36.291,-0.01l0.041,0.026l-0.026,-0.016l-0.015,-0.01Zm36.351,-0.029l-0.022,0.014l0.042,-0.026l-0.02,0.012Zm-36.415,-0.012l0.04,0.026l-0.022,-0.014l-0.018,-0.012Zm36.476,-0.026l-0.018,0.012l0.041,-0.026l-0.023,0.014Zm-36.54,-0.014l0.04,0.025l-0.019,-0.011l-0.021,-0.014Zm36.602,-0.024l-0.016,0.01l0.042,-0.026l-0.026,0.016Zm-36.667,-0.016l0.041,0.025l-0.016,-0.009l-0.025,-0.016Zm36.728,-0.022l-0.013,0.008l0.043,-0.027l-0.03,0.019Zm-36.793,-0.018l0.042,0.026l-0.013,-0.008l-0.029,-0.018Zm36.854,-0.02l-0.01,0.007l0.046,-0.029l-0.036,0.022Zm-36.921,-0.021l0.045,0.027l-0.01,-0.006l-0.035,-0.021Zm36.983,-0.016l-0.008,0.004l0.053,-0.032l-0.045,0.028Zm-37.052,-0.026l0.049,0.03l-0.007,-0.004l-0.042,-0.026Zm37.173,-0.048l-0.065,0.039l0.066,-0.039l-0.001,0Zm-37.255,-0.001l0.002,0.001l0.004,0.003l-0.003,-0.003l-0.003,-0.001Zm37.38,-0.073l-0.056,0.033l0.062,-0.037l-0.006,0.004Zm-37.508,-0.003l0.057,0.033l-0.051,-0.03l-0.006,-0.003Zm37.57,-0.034l-0.041,0.024l0.05,-0.029l-0.009,0.005Zm-37.634,-0.004l0.046,0.027l-0.038,-0.023l-0.008,-0.004Zm37.696,-0.032l-0.034,0.02l0.046,-0.027l-0.012,0.007Zm-37.761,-0.006l0.043,0.025l-0.032,-0.019l-0.011,-0.006Zm37.823,-0.03l-0.028,0.017l0.043,-0.025l-0.015,0.008Zm-37.888,-0.008l0.041,0.024l-0.027,-0.016l-0.014,-0.008Zm37.951,-0.028l-0.025,0.014l0.042,-0.024l-0.017,0.01Zm-38.016,-0.01l0.04,0.024l-0.024,-0.014l-0.016,-0.01Zm38.078,-0.026l-0.021,0.012l0.041,-0.024l-0.02,0.012Zm-38.144,-0.011l0.04,0.023l-0.02,-0.012l-0.02,-0.011Zm38.206,-0.024l-0.018,0.01l0.042,-0.024l-0.024,0.014Zm-38.271,-0.013l0.04,0.022l-0.017,-0.009l-0.023,-0.013Zm38.334,-0.023l-0.015,0.009l0.043,-0.024l-0.028,0.015Zm-38.4,-0.014l0.04,0.022l-0.014,-0.008l-0.026,-0.014Zm38.462,-0.021l-0.012,0.007l0.045,-0.025l-0.033,0.018Zm-38.529,-0.017l0.042,0.024l-0.011,-0.007l-0.031,-0.017Zm38.592,-0.018l-0.009,0.005l0.048,-0.027l-0.039,0.022Zm-38.66,-0.02l0.044,0.025l-0.008,-0.005l-0.036,-0.02Zm38.723,-0.015l-0.007,0.004l0.058,-0.032l-0.051,0.028Zm-38.796,-0.025l0.052,0.029l-0.006,-0.004l-0.046,-0.025Zm-0.083,-0.045l0.003,0.001l0.002,0.002l-0.002,-0.002l-0.003,-0.001Zm39.007,0l-0.002,0.001l-0.002,0.001l0.002,-0.001l0.002,-0.001Zm0.124,-0.067l-0.049,0.027l0.056,-0.03l-0.007,0.003Zm-39.26,-0.003l0.05,0.027l-0.044,-0.024l-0.006,-0.003Zm39.323,-0.03l-0.038,0.02l0.048,-0.026l-0.01,0.006Zm-39.389,-0.005l0.044,0.023l-0.035,-0.018l-0.009,-0.005Zm39.453,-0.029l-0.032,0.017l0.044,-0.024l-0.012,0.007Zm-39.52,-0.006l0.042,0.022l-0.03,-0.016l-0.012,-0.006Zm39.583,-0.027l-0.027,0.014l0.043,-0.023l-0.016,0.009Zm-39.649,-0.008l0.04,0.021l-0.025,-0.013l-0.015,-0.008Zm39.713,-0.026l-0.024,0.013l0.043,-0.022l-0.019,0.009Zm-39.779,-0.009l0.039,0.021l-0.022,-0.012l-0.017,-0.009Zm39.842,-0.024l-0.02,0.011l0.042,-0.022l-0.022,0.011Zm-39.909,-0.01l0.04,0.02l-0.02,-0.01l-0.02,-0.01Zm39.973,-0.022l-0.017,0.008l0.043,-0.022l-0.026,0.014Zm-40.04,-0.013l0.04,0.021l-0.016,-0.008l-0.024,-0.013Zm40.104,-0.02l-0.014,0.007l0.044,-0.022l-0.03,0.015Zm-40.172,-0.014l0.041,0.021l-0.013,-0.007l-0.028,-0.014Zm40.236,-0.019l-0.011,0.006l0.046,-0.023l-0.035,0.017Zm-40.304,-0.016l0.042,0.022l-0.01,-0.006l-0.032,-0.016Zm40.368,-0.016l-0.008,0.004l0.05,-0.025l-0.042,0.021Zm-40.439,-0.019l0.047,0.023l-0.008,-0.004l-0.039,-0.019Zm40.503,-0.013l-0.005,0.003l0.064,-0.032l-0.059,0.029Zm-40.58,-0.025l0.057,0.028l-0.005,-0.003l-0.052,-0.025Zm40.715,-0.041l-0.004,0.002l-0.003,0.001l0.002,-0.001l0.005,-0.002Zm-40.86,-0.031l0.06,0.03l-0.056,-0.028l-0.004,-0.002Zm40.982,-0.029l-0.044,0.021l0.052,-0.025l-0.008,0.004Zm-41.05,-0.003l0.047,0.022l-0.039,-0.019l-0.008,-0.003Zm41.115,-0.028l-0.036,0.017l0.047,-0.022l-0.011,0.005Zm-41.182,-0.005l0.043,0.021l-0.033,-0.016l-0.01,-0.005Zm41.247,-0.026l-0.031,0.015l0.044,-0.021l-0.013,0.006Zm-41.314,-0.006l0.041,0.02l-0.029,-0.014l-0.012,-0.006Zm41.378,-0.024l-0.026,0.012l0.043,-0.02l-0.017,0.008Zm-41.446,-0.008l0.04,0.019l-0.024,-0.011l-0.016,-0.008Zm41.511,-0.023l-0.022,0.011l0.042,-0.02l-0.02,0.009Zm-41.579,-0.009l0.04,0.019l-0.021,-0.01l-0.019,-0.009Zm41.644,-0.021l-0.019,0.009l0.042,-0.02l-0.023,0.011Zm-41.712,-0.01l0.04,0.018l-0.018,-0.008l-0.022,-0.01Zm41.777,-0.02l-0.016,0.007l0.043,-0.02l-0.027,0.013Zm-41.845,-0.012l0.04,0.019l-0.015,-0.007l-0.025,-0.012Zm41.91,-0.018l-0.013,0.006l0.044,-0.02l-0.031,0.014Zm-41.979,-0.013l0.041,0.018l-0.012,-0.005l-0.029,-0.013Zm42.044,-0.017l-0.01,0.005l0.047,-0.021l-0.037,0.016Zm-42.114,-0.015l0.043,0.019l-0.009,-0.004l-0.034,-0.015Zm42.179,-0.014l-0.007,0.003l0.052,-0.023l-0.045,0.02Zm-42.252,-0.019l0.048,0.022l-0.006,-0.003l-0.042,-0.019Zm-0.086,-0.038l0.066,0.029l-0.004,-0.002l-0.062,-0.027Zm42.469,-0.002l-0.001,0.001l-0.003,0.001l0.003,-0.001l0.001,-0.001Zm0.131,-0.057l-0.052,0.023l0.058,-0.026l-0.006,0.003Zm-42.739,-0.002l0.052,0.023l-0.047,-0.021l-0.005,-0.002Zm42.805,-0.027l-0.04,0.017l0.048,-0.02l-0.008,0.003Zm-42.874,-0.003l0.045,0.019l-0.037,-0.016l-0.008,-0.003Zm42.939,-0.025l-0.032,0.014l0.044,-0.019l-0.012,0.005Zm-43.007,-0.005l0.042,0.019l-0.031,-0.014l-0.011,-0.005Zm43.073,-0.023l-0.028,0.012l0.042,-0.018l-0.014,0.006Zm-43.142,-0.006l0.041,0.018l-0.027,-0.012l-0.014,-0.006Zm43.208,-0.022l-0.024,0.01l0.041,-0.017l-0.017,0.007Zm-43.277,-0.007l0.04,0.017l-0.023,-0.01l-0.017,-0.007Zm43.343,-0.021l-0.021,0.009l0.041,-0.017l-0.02,0.008Zm-43.412,-0.008l0.04,0.017l-0.02,-0.009l-0.02,-0.008Zm43.478,-0.019l-0.018,0.007l0.042,-0.017l-0.024,0.01Zm-43.547,-0.01l0.04,0.017l-0.017,-0.007l-0.023,-0.01Zm43.613,-0.017l-0.014,0.006l0.041,-0.017l-0.027,0.011Zm-43.683,-0.011l0.041,0.017l-0.014,-0.006l-0.027,-0.011Zm43.749,-0.016l-0.011,0.004l0.042,-0.017l-0.031,0.013Zm-43.819,-0.013l0.042,0.017l-0.011,-0.004l-0.031,-0.013Zm43.885,-0.014l-0.008,0.003l0.045,-0.018l-0.037,0.015Zm-43.956,-0.015l0.044,0.018l-0.008,-0.003l-0.036,-0.015Zm44.023,-0.012l-0.006,0.002l0.051,-0.02l-0.045,0.018Zm-44.099,-0.018l0.051,0.02l-0.006,-0.002l-0.045,-0.018Zm11.377,-10.15l0.016,0.008l0.045,0.022l0,0l-0.045,-0.022l-0.019,-0.01l0.003,0.002Zm21.398,-0.004l0,-0.001l0.068,-0.034l-0.068,0.035Zm-21.533,-0.065l0.047,0.024l-0.055,-0.028l0.008,0.004Zm21.668,-0.004l-0.054,0.028l0.046,-0.024l0.008,-0.004Zm-21.732,-0.029l0.037,0.019l-0.048,-0.025l0.011,0.006Zm21.799,-0.005l-0.048,0.024l0.037,-0.019l0.011,-0.005Zm-21.863,-0.028l0.031,0.016l-0.045,-0.023l0.014,0.007Zm21.929,-0.007l-0.044,0.023l0.031,-0.016l0.013,-0.007Zm-21.993,-0.026l0.027,0.014l-0.044,-0.023l0.017,0.009Zm22.06,-0.009l-0.043,0.022l0.027,-0.013l0.016,-0.009Zm-22.124,-0.025l0.024,0.012l-0.044,-0.022l0.02,0.01Zm22.191,-0.01l-0.042,0.022l0.022,-0.012l0.02,-0.01Zm-22.254,-0.024l0.02,0.011l-0.044,-0.023l0.024,0.012Zm22.321,-0.012l-0.042,0.023l0.019,-0.011l0.023,-0.012Zm-22.385,-0.022l0.017,0.009l-0.044,-0.023l0.027,0.014Zm22.452,-0.014l-0.042,0.023l0.016,-0.009l0.026,-0.014Zm-22.515,-0.02l0.013,0.008l-0.045,-0.025l0.032,0.017Zm22.582,-0.016l-0.043,0.023l0.013,-0.007l0.03,-0.016Zm-22.645,-0.018l0.01,0.006l-0.048,-0.026l0.038,0.02Zm22.714,-0.019l-0.046,0.025l0.01,-0.006l0.036,-0.019Zm-22.778,-0.015l0.008,0.004l-0.054,-0.03l0.046,0.026Zm22.849,-0.024l-0.051,0.028l0.007,-0.004l0.044,-0.024Zm-22.973,-0.045l0.066,0.037l-0.067,-0.037l0.001,0Zm23.057,-0.002l-0.002,0.002l-0.005,0.002l0.004,-0.002l0.003,-0.002Zm-23.184,-0.069l0.057,0.032l-0.063,-0.035l0.006,0.003Zm23.313,-0.003l-0.057,0.032l0.052,-0.029l0.005,-0.003Zm-23.376,-0.032l0.042,0.023l-0.05,-0.028l0.008,0.005Zm23.442,-0.005l-0.047,0.027l0.039,-0.022l0.008,-0.005Zm-23.504,-0.031l0.034,0.019l-0.046,-0.026l0.012,0.007Zm23.569,-0.006l-0.043,0.024l0.032,-0.018l0.011,-0.006Zm-23.631,-0.03l0.028,0.017l-0.043,-0.025l0.015,0.008Zm23.696,-0.008l-0.041,0.024l0.027,-0.016l0.014,-0.008Zm-23.759,-0.028l0.025,0.015l-0.042,-0.025l0.017,0.01Zm23.824,-0.009l-0.04,0.023l0.024,-0.014l0.016,-0.009Zm-23.886,-0.027l0.021,0.013l-0.041,-0.025l0.02,0.012Zm23.951,-0.011l-0.039,0.023l0.02,-0.012l0.019,-0.011Zm-24.013,-0.025l0.018,0.011l-0.042,-0.025l0.024,0.014Zm24.078,-0.013l-0.039,0.023l0.017,-0.01l0.022,-0.013Zm-24.14,-0.023l0.015,0.008l-0.042,-0.025l0.027,0.017Zm24.206,-0.016l-0.041,0.024l0.015,-0.008l0.026,-0.016Zm-24.267,-0.021l0.012,0.007l-0.045,-0.026l0.033,0.019Zm24.332,-0.018l-0.041,0.025l0.011,-0.007l0.03,-0.018Zm-24.394,-0.019l0.009,0.006l-0.047,-0.029l0.038,0.023Zm24.461,-0.021l-0.044,0.026l0.009,-0.005l0.035,-0.021Zm-24.523,-0.016l0.007,0.004l-0.057,-0.034l0.05,0.03Zm24.594,-0.027l-0.05,0.031l0.005,-0.004l0.045,-0.027Zm0.081,-0.05l-0.003,0.002l-0.002,0.002l0.002,-0.002l0.003,-0.002Zm-24.8,0.001l0.003,0.001l0.001,0.001l-0.001,-0.001l-0.003,-0.001Zm-0.119,-0.074l0.047,0.03l-0.054,-0.034l0.007,0.004Zm25.044,-0.004l-0.048,0.031l0.042,-0.027l0.006,-0.004Zm-25.105,-0.034l0.037,0.023l-0.047,-0.029l0.01,0.006Zm25.169,-0.005l-0.043,0.026l0.034,-0.021l0.009,-0.005Zm-25.23,-0.033l0.031,0.02l-0.043,-0.027l0.012,0.007Zm25.293,-0.007l-0.04,0.025l0.029,-0.018l0.011,-0.007Zm-25.354,-0.031l0.027,0.017l-0.042,-0.027l0.015,0.01Zm25.418,-0.009l-0.039,0.024l0.025,-0.015l0.014,-0.009Zm-25.478,-0.03l0.022,0.015l-0.04,-0.026l0.018,0.011Zm25.541,-0.01l-0.038,0.024l0.021,-0.014l0.017,-0.01Zm-25.602,-0.028l0.02,0.012l-0.04,-0.026l0.02,0.014Zm25.665,-0.013l-0.038,0.024l0.019,-0.011l0.019,-0.013Zm-25.725,-0.026l0.016,0.011l-0.04,-0.027l0.024,0.016Zm25.788,-0.015l-0.037,0.025l0.015,-0.01l0.022,-0.015Zm-25.848,-0.024l0.013,0.009l-0.041,-0.027l0.028,0.018Zm25.912,-0.017l-0.038,0.025l0.012,-0.008l0.026,-0.017Zm-25.972,-0.022l0.01,0.007l-0.043,-0.028l0.033,0.021Zm26.036,-0.02l-0.04,0.026l0.01,-0.006l0.03,-0.02Zm-26.096,-0.019l0.008,0.005l-0.048,-0.032l0.04,0.027Zm26.162,-0.024l-0.043,0.028l0.007,-0.004l0.036,-0.024Zm-26.222,-0.016l0.005,0.004l-0.06,-0.041l0.055,0.037Zm26.294,-0.032l-0.053,0.035l0.005,-0.003l0.048,-0.032Zm-26.419,-0.051l0.004,0.002l0.002,0.002l-0.001,-0.001l-0.005,-0.003Zm26.553,-0.039l-0.056,0.038l0.052,-0.035l0.004,-0.003Zm-26.666,-0.038l0.041,0.028l-0.048,-0.033l0.007,0.005Zm26.728,-0.004l-0.043,0.029l0.037,-0.025l0.006,-0.004Zm-26.787,-0.036l0.033,0.022l-0.043,-0.029l0.01,0.007Zm26.849,-0.006l-0.039,0.027l0.03,-0.021l0.009,-0.006Zm-26.908,-0.035l0.028,0.02l-0.04,-0.028l0.012,0.008Zm26.969,-0.008l-0.037,0.026l0.026,-0.018l0.011,-0.008Zm-27.028,-0.032l0.024,0.016l-0.039,-0.027l0.015,0.011Zm27.09,-0.01l-0.037,0.025l0.023,-0.015l0.014,-0.01Zm-27.149,-0.031l0.021,0.014l-0.039,-0.027l0.018,0.013Zm27.21,-0.012l-0.036,0.025l0.02,-0.013l0.016,-0.012Zm-27.268,-0.029l0.017,0.012l-0.038,-0.027l0.021,0.015Zm27.33,-0.014l-0.036,0.025l0.016,-0.011l0.02,-0.014Zm-27.389,-0.027l0.015,0.01l-0.039,-0.027l0.024,0.017Zm27.45,-0.017l-0.036,0.026l0.014,-0.009l0.022,-0.017Zm-27.508,-0.025l0.011,0.008l-0.039,-0.028l0.028,0.02Zm27.57,-0.018l-0.037,0.026l0.011,-0.008l0.026,-0.018Zm-27.628,-0.023l0.009,0.006l-0.042,-0.03l0.033,0.024Zm27.691,-0.022l-0.039,0.028l0.008,-0.006l0.031,-0.022Zm-27.75,-0.02l0.007,0.004l-0.047,-0.033l0.04,0.029Zm27.814,-0.027l-0.042,0.031l0.005,-0.004l0.037,-0.027Zm0.077,-0.055l-0.059,0.042l0.003,-0.002l0.056,-0.04Zm-28.007,-0.002l0.002,0.001l0.002,0.001l-0.003,-0.002l-0.001,0Zm-0.115,-0.085l0.046,0.034l-0.051,-0.038l0.005,0.004Zm28.244,-0.003l-0.046,0.034l0.042,-0.031l0.004,-0.003Zm-28.301,-0.039l0.034,0.025l-0.042,-0.031l0.008,0.006Zm28.361,-0.006l-0.039,0.03l0.032,-0.024l0.007,-0.006Zm-28.419,-0.037l0.029,0.021l-0.038,-0.029l0.009,0.008Zm28.479,-0.007l-0.037,0.027l0.027,-0.02l0.01,-0.007Zm-28.536,-0.036l0.025,0.018l-0.037,-0.027l0.012,0.009Zm28.596,-0.009l-0.036,0.027l0.024,-0.018l0.012,-0.009Zm-28.653,-0.034l0.021,0.016l-0.036,-0.028l0.015,0.012Zm28.712,-0.011l-0.035,0.026l0.021,-0.015l0.014,-0.011Zm-28.769,-0.032l0.018,0.013l-0.035,-0.027l0.017,0.014Zm28.829,-0.013l-0.035,0.026l0.018,-0.013l0.017,-0.013Zm-28.886,-0.031l0.015,0.012l-0.035,-0.027l0.02,0.015Zm28.945,-0.015l-0.034,0.026l0.015,-0.011l0.019,-0.015Zm-29.001,-0.028l0.012,0.009l-0.035,-0.027l0.023,0.018Zm29.061,-0.018l-0.035,0.027l0.012,-0.009l0.023,-0.018Zm-29.118,-0.026l0.01,0.007l-0.036,-0.028l0.026,0.021Zm29.178,-0.021l-0.036,0.028l0.01,-0.007l0.026,-0.021Zm-29.234,-0.023l0.007,0.005l-0.038,-0.029l0.031,0.024Zm29.295,-0.024l-0.038,0.029l0.007,-0.005l0.031,-0.024Zm-29.351,-0.02l0.004,0.003l-0.043,-0.034l0.039,0.031Zm29.415,-0.03l-0.043,0.033l0.004,-0.003l0.039,-0.03Z"/></g><defs><radialGradient id="_Radial1" cx="0" cy="0" r="1" gradientUnits="userSpaceOnUse" gradientTransform="matrix(-0.0660531,-84,84,-0.0660531,86.201,86.2587)"><stop offset="0" style="stop-color:#fff;stop-opacity:1"/><stop offset="0.55" style="stop-color:#f7f7f7;stop-opacity:1"/><stop offset="1" style="stop-color:#d9d9d9;stop-opacity:1"/></radialGradient></defs></svg>