<?xml version="1.0" encoding="UTF-8" standalone="no"?><!DOCTYPE svg PUBLIC "-//W3C//DTD SVG 1.1//EN" "http://www.w3.org/Graphics/SVG/1.1/DTD/svg11.dtd"><svg width="100%" height="100%" viewBox="0 0 173 173" version="1.1" xmlns="http://www.w3.org/2000/svg" xmlns:xlink="http://www.w3.org/1999/xlink" xml:space="preserve" xmlns:serif="http://www.serif.com/" style="fill-rule:evenodd;clip-rule:evenodd;stroke-linecap:square;stroke-linejoin:round;stroke-miterlimit:1.5;"><g id="No-PlayerCards" serif:id="No PlayerCards"><path d="M15.464,2.34c-7.418,0.005 -13.435,6.032 -13.429,13.45l0.11,141.12c0.006,7.418 6.033,13.435 13.451,13.43l141.12,-0.111c7.418,-0.006 13.435,-6.033 13.429,-13.451l-0.111,-141.12c-0.005,-7.418 -6.032,-13.435 -13.45,-13.429l-141.12,0.111Z" style="fill:url(#_Radial1);stroke:#00191f;stroke-width:4.04px;stroke-dasharray:8.09,8.09,0,0;"/><g id="Research"><g id="Caffeine"><g id="Cafeeine_base"><path d="M84.59,61.915l21.947,0.544l10.503,19.278l-11.444,18.735l-21.947,-0.544l-10.503,-19.278l11.444,-18.735Z" style="fill:none;stroke:#18001f;stroke-width:1.5px;stroke-linecap:round;"/><path d="M106.537,62.459l14.359,-23.453" style="fill:none;stroke:#18001f;stroke-width:1.5px;stroke-linecap:round;"/><path d="M51.551,84.644l21.558,-3.959l10.569,19.298l-15.025,15.886l-19.856,-9.48l2.754,-21.745Z" style="fill:none;stroke:#18001f;stroke-width:1.5px;stroke-linecap:round;"/><path d="M71.41,82.93l9.378,16.542" style="fill:none;stroke:#18001f;stroke-width:1.5px;stroke-linecap:round;"/><path d="M48.768,108.843l17.36,8.401" style="fill:none;stroke:#18001f;stroke-width:1.5px;stroke-linecap:round;"/><path d="M83.649,63.457l-6.849,-12.622" style="fill:none;stroke:#18001f;stroke-width:1.5px;stroke-linecap:round;"/><path d="M86.396,61.96l-6.87,-12.61" style="fill:none;stroke:#18001f;stroke-width:1.5px;stroke-linecap:round;"/><path d="M105.732,100.398l7.842,14.395" style="fill:none;stroke:#18001f;stroke-width:1.5px;stroke-linecap:round;"/><path d="M51.551,84.644l-11.909,-10.85" style="fill:none;stroke:#18001f;stroke-width:1.5px;stroke-linecap:round;"/><path d="M116.11,83.259l14.414,0.574" style="fill:none;stroke:#18001f;stroke-width:1.5px;stroke-linecap:round;"/><path d="M116.179,80.14l14.246,0.358" style="fill:none;stroke:#18001f;stroke-width:1.5px;stroke-linecap:round;"/></g><g id="Nitrogen"><path d="M103.406,96.453c2.218,-1.208 5,-0.388 6.208,1.83c1.208,2.218 0.389,4.999 -1.829,6.207c-2.218,1.209 -5,0.389 -6.208,-1.829c-1.208,-2.218 -0.388,-4.999 1.829,-6.208Z" style="fill:#f7f2e8;stroke:#18001f;stroke-width:1px;stroke-linecap:round;"/><g transform="matrix(0.878141,-0.478401,0.478401,0.878141,-26.7259,-14.0308)"><text x="59.839px" y="166.816px" style="font-family:'ArialMT', 'Arial', sans-serif;font-size:8.28px;stroke:#000;stroke-width:0.24px;stroke-linecap:butt;stroke-miterlimit:2;">N</text></g></g><g id="Oxygen"><path d="M73.774,42.061c2.218,-1.208 5,-0.388 6.208,1.83c1.208,2.218 0.388,4.999 -1.829,6.207c-2.218,1.209 -5,0.389 -6.208,-1.829c-1.208,-2.218 -0.389,-4.999 1.829,-6.208Z" style="fill:#f7f2e8;stroke:#18001f;stroke-width:1px;stroke-linecap:round;"/><g transform="matrix(0.878141,-0.478401,0.478401,0.878141,-28.5855,-57.266)"><text x="39.525px" y="143.606px" style="font-family:'ArialMT', 'Arial', sans-serif;font-size:7.922px;stroke:#000;stroke-width:0.24px;stroke-linecap:butt;stroke-miterlimit:2;">O</text></g></g><g id="Oxygen1" serif:id="Oxygen"><path d="M131.418,78.184c2.218,-1.208 5,-0.389 6.208,1.829c1.208,2.218 0.388,4.999 -1.829,6.208c-2.218,1.208 -5,0.388 -6.208,-1.83c-1.208,-2.217 -0.389,-4.999 1.829,-6.207Z" style="fill:#f7f2e8;stroke:#18001f;stroke-width:1px;stroke-linecap:round;"/><g transform="matrix(0.878141,-0.478401,0.478401,0.878141,-38.8421,-25.2872)"><text x="97.169px" y="179.728px" style="font-family:'ArialMT', 'Arial', sans-serif;font-size:7.922px;stroke:#000;stroke-width:0.24px;stroke-linecap:butt;stroke-miterlimit:2;">O</text></g></g><g id="Nitrogen1" serif:id="Nitrogen"><path d="M104.355,58.437c2.218,-1.209 5,-0.389 6.208,1.829c1.208,2.218 0.389,4.999 -1.829,6.207c-2.218,1.209 -5,0.389 -6.208,-1.829c-1.208,-2.218 -0.389,-4.999 1.829,-6.207Z" style="fill:#f7f2e8;stroke:#18001f;stroke-width:1px;stroke-linecap:round;"/><g transform="matrix(0.878141,-0.478401,0.478401,0.878141,-8.42293,-18.2095)"><text x="60.788px" y="128.799px" style="font-family:'ArialMT', 'Arial', sans-serif;font-size:8.28px;stroke:#000;stroke-width:0.24px;stroke-linecap:butt;stroke-miterlimit:2;">N</text></g></g><g id="Nitrogen2" serif:id="Nitrogen"><path d="M49.362,80.626c2.218,-1.209 4.999,-0.389 6.207,1.829c1.209,2.218 0.389,4.999 -1.829,6.207c-2.218,1.209 -4.999,0.389 -6.207,-1.829c-1.209,-2.218 -0.389,-4.999 1.829,-6.207Z" style="fill:#f7f2e8;stroke:#18001f;stroke-width:1px;stroke-linecap:round;"/><g transform="matrix(0.878141,-0.478401,0.478401,0.878141,-25.7396,-41.8146)"><text x="5.794px" y="150.988px" style="font-family:'ArialMT', 'Arial', sans-serif;font-size:8.28px;stroke:#000;stroke-width:0.24px;stroke-linecap:butt;stroke-miterlimit:2;">N</text></g></g><g id="Nitrogen3" serif:id="Nitrogen"><path d="M66.393,111.888c2.218,-1.208 5,-0.388 6.208,1.83c1.208,2.218 0.389,4.999 -1.829,6.207c-2.218,1.209 -5,0.389 -6.208,-1.829c-1.208,-2.218 -0.388,-4.999 1.829,-6.208Z" style="fill:#f7f2e8;stroke:#18001f;stroke-width:1px;stroke-linecap:round;"/><g transform="matrix(0.878141,-0.478401,0.478401,0.878141,-38.6204,-29.857)"><text x="22.826px" y="182.251px" style="font-family:'ArialMT', 'Arial', sans-serif;font-size:8.28px;stroke:#000;stroke-width:0.24px;stroke-linecap:butt;stroke-miterlimit:2;">N</text></g></g><g><path d="M126.763,38.147c-0.406,0.77 -1.036,1.433 -1.857,1.88c-2.218,1.209 -4.999,0.389 -6.208,-1.829c-1.208,-2.218 -0.388,-4.999 1.83,-6.208c1.814,-0.988 4.006,-0.619 5.405,0.762c0.224,-0.224 0.484,-0.42 0.776,-0.58c1.641,-0.894 3.699,-0.287 4.593,1.354c0.894,1.641 0.288,3.699 -1.353,4.593c-1.028,0.56 -2.22,0.531 -3.186,0.028Z" style="fill:#f7f2e8;stroke:#18001f;stroke-width:1px;stroke-linecap:round;"/><g transform="matrix(0.878141,-0.478401,0.478401,0.878141,-5.04037,12.0389)"><text x="104.1px" y="85.443px" style="font-family:'ArialMT', 'Arial', sans-serif;font-size:4.743px;stroke:#000;stroke-width:0.24px;stroke-linecap:butt;stroke-miterlimit:2;">H</text></g><g transform="matrix(0.878141,-0.478401,0.478401,0.878141,0.113956,-68.1027)"><text x="63.83px" y="154.502px" style="font-family:'ArialMT', 'Arial', sans-serif;font-size:2.748px;stroke:#000;stroke-width:0.24px;stroke-linecap:butt;stroke-miterlimit:2;">3</text></g><g transform="matrix(0.878141,-0.478401,0.478401,0.878141,-18.0703,-36.1263)"><text x="86.278px" y="133.535px" style="font-family:'ArialMT', 'Arial', sans-serif;font-size:7.922px;stroke:#000;stroke-width:0.24px;stroke-linecap:butt;stroke-miterlimit:2;">C</text></g></g><g><path d="M42.618,73.284c-0.406,0.77 -1.035,1.433 -1.856,1.881c-2.218,1.208 -5,0.388 -6.208,-1.829c-1.208,-2.218 -0.388,-5 1.829,-6.208c1.815,-0.989 4.007,-0.62 5.406,0.762c0.224,-0.224 0.484,-0.421 0.776,-0.58c1.641,-0.894 3.699,-0.288 4.593,1.353c0.894,1.641 0.287,3.699 -1.353,4.593c-1.028,0.56 -2.22,0.531 -3.187,0.028Z" style="fill:#f7f2e8;stroke:#18001f;stroke-width:1px;stroke-linecap:round;"/><g transform="matrix(0.878141,-0.478401,0.478401,0.878141,-32.1039,-23.934)"><text x="19.956px" y="120.58px" style="font-family:'ArialMT', 'Arial', sans-serif;font-size:4.743px;stroke:#000;stroke-width:0.24px;stroke-linecap:butt;stroke-miterlimit:2;">H</text></g><g transform="matrix(0.878141,-0.478401,0.478401,0.878141,-26.9496,-104.076)"><text x="-20.315px" y="189.64px" style="font-family:'ArialMT', 'Arial', sans-serif;font-size:2.748px;stroke:#000;stroke-width:0.24px;stroke-linecap:butt;stroke-miterlimit:2;">3</text></g><g transform="matrix(0.878141,-0.478401,0.478401,0.878141,-45.1338,-72.0993)"><text x="2.134px" y="168.672px" style="font-family:'ArialMT', 'Arial', sans-serif;font-size:7.922px;stroke:#000;stroke-width:0.24px;stroke-linecap:butt;stroke-miterlimit:2;">C</text></g></g><g><path d="M118.919,119.317c-0.406,0.77 -1.035,1.433 -1.856,1.88c-2.218,1.209 -5,0.389 -6.208,-1.829c-1.208,-2.218 -0.389,-4.999 1.829,-6.208c1.815,-0.988 4.007,-0.619 5.406,0.762c0.224,-0.224 0.483,-0.42 0.776,-0.58c1.641,-0.894 3.699,-0.287 4.593,1.354c0.894,1.641 0.287,3.699 -1.354,4.593c-1.028,0.56 -2.219,0.531 -3.186,0.028Z" style="fill:#f7f2e8;stroke:#18001f;stroke-width:1px;stroke-linecap:round;"/><g transform="matrix(0.878141,-0.478401,0.478401,0.878141,-44.828,18.1778)"><text x="96.256px" y="166.613px" style="font-family:'ArialMT', 'Arial', sans-serif;font-size:4.743px;stroke:#000;stroke-width:0.24px;stroke-linecap:butt;stroke-miterlimit:2;">H</text></g><g transform="matrix(0.878141,-0.478401,0.478401,0.878141,-39.6737,-61.9638)"><text x="55.986px" y="235.672px" style="font-family:'ArialMT', 'Arial', sans-serif;font-size:2.748px;stroke:#000;stroke-width:0.24px;stroke-linecap:butt;stroke-miterlimit:2;">3</text></g><g transform="matrix(0.878141,-0.478401,0.478401,0.878141,-57.8579,-29.9874)"><text x="78.435px" y="214.705px" style="font-family:'ArialMT', 'Arial', sans-serif;font-size:7.922px;stroke:#000;stroke-width:0.24px;stroke-linecap:butt;stroke-miterlimit:2;">C</text></g></g></g><g id="Erlenmeyer"><path d="M93.464,87.167l-9.313,-0.018c-2.894,-0.137 -2.905,-3.875 -0.085,-3.752l16.151,-0.063c2.472,0 2.353,3.73 0.064,3.73l-1.498,0.103l0.155,12.703l12.703,30.208c1.509,4.859 -0.503,7.076 -3.408,8.624c-10.268,3.145 -20.694,3.289 -31.293,0.155c-3.201,-1.731 -5.483,-3.8 -4.492,-7.074l12.909,-31.706l0.132,-12.926" style="fill:#d4f9ff;stroke:#18001f;stroke-width:1.35px;stroke-linejoin:miter;"/><path d="M81.38,118.995c2.992,-0.317 7.234,0.659 9.626,1.372c3.058,0.911 10.328,2.759 12.187,-0.05l3.412,8.28c1.623,3.535 2.782,5.781 -2.086,7.313c-6.609,1.395 -16.574,1.633 -23.834,0.419c-4.832,-0.866 -5.356,-3.342 -3.462,-7.652l4.157,-9.682" style="fill:url(#_Linear2);"/><circle cx="86.709" cy="125.215" r="2.479" style="fill:url(#_Radial3);"/><circle cx="98.091" cy="129.089" r="2.175" style="fill:url(#_Radial4);"/><circle cx="91.283" cy="133.57" r="1.395" style="fill:url(#_Linear5);"/><circle cx="95.051" cy="114.703" r="2.386" style="fill:url(#_Linear6);stroke:#18001f;stroke-width:0.97px;stroke-linejoin:miter;"/><circle cx="89.232" cy="107.034" r="1.672" style="fill:url(#_Linear7);stroke:#18001f;stroke-width:1px;stroke-linejoin:miter;"/></g></g></g><defs><radialGradient id="_Radial1" cx="0" cy="0" r="1" gradientUnits="userSpaceOnUse" gradientTransform="matrix(-0.0660531,-84,84,-0.0660531,86.09,86.2841)"><stop offset="0" style="stop-color:#fff;stop-opacity:1"/><stop offset="0.55" style="stop-color:#f7f7f7;stop-opacity:1"/><stop offset="1" style="stop-color:#d9d9d9;stop-opacity:1"/></radialGradient><linearGradient id="_Linear2" x1="0" y1="0" x2="1" y2="0" gradientUnits="userSpaceOnUse" gradientTransform="matrix(31.8051,0,0,18.1799,76.2037,128.023)"><stop offset="0" style="stop-color:#00191f;stop-opacity:1"/><stop offset="0.09" style="stop-color:#123037;stop-opacity:1"/><stop offset="0.2" style="stop-color:#23464e;stop-opacity:1"/><stop offset="0.5" style="stop-color:#2a5058;stop-opacity:1"/><stop offset="0.8" style="stop-color:#23464e;stop-opacity:1"/><stop offset="0.91" style="stop-color:#123037;stop-opacity:1"/><stop offset="1" style="stop-color:#00191f;stop-opacity:1"/></linearGradient><radialGradient id="_Radial3" cx="0" cy="0" r="1" gradientUnits="userSpaceOnUse" gradientTransform="matrix(4.95729,0,0,4.95729,84.2307,125.215)"><stop offset="0" style="stop-color:#fff;stop-opacity:1"/><stop offset="0.55" style="stop-color:#f7f7f7;stop-opacity:1"/><stop offset="1" style="stop-color:#d9d9d9;stop-opacity:1"/></radialGradient><radialGradient id="_Radial4" cx="0" cy="0" r="1" gradientUnits="userSpaceOnUse" gradientTransform="matrix(2.1746,0,0,2.1746,98.0913,129.089)"><stop offset="0" style="stop-color:#fff;stop-opacity:1"/><stop offset="0.55" style="stop-color:#f7f7f7;stop-opacity:1"/><stop offset="1" style="stop-color:#d9d9d9;stop-opacity:1"/></radialGradient><linearGradient id="_Linear5" x1="0" y1="0" x2="1" y2="0" gradientUnits="userSpaceOnUse" gradientTransform="matrix(2.7893,0,0,2.7893,89.8886,133.57)"><stop offset="0" style="stop-color:#7c715a;stop-opacity:1"/><stop offset="0.09" style="stop-color:#afa795;stop-opacity:1"/><stop offset="0.2" style="stop-color:#e1dbcf;stop-opacity:1"/><stop offset="0.5" style="stop-color:#f7f2e8;stop-opacity:1"/><stop offset="0.8" style="stop-color:#e1dbcf;stop-opacity:1"/><stop offset="0.91" style="stop-color:#afa695;stop-opacity:1"/><stop offset="1" style="stop-color:#7c7059;stop-opacity:1"/></linearGradient><linearGradient id="_Linear6" x1="0" y1="0" x2="1" y2="0" gradientUnits="userSpaceOnUse" gradientTransform="matrix(4.77222,0,0,4.77222,92.6647,114.703)"><stop offset="0" style="stop-color:#7c715a;stop-opacity:1"/><stop offset="0.09" style="stop-color:#afa795;stop-opacity:1"/><stop offset="0.2" style="stop-color:#e1dbcf;stop-opacity:1"/><stop offset="0.5" style="stop-color:#f7f2e8;stop-opacity:1"/><stop offset="0.8" style="stop-color:#e1dbcf;stop-opacity:1"/><stop offset="0.91" style="stop-color:#afa695;stop-opacity:1"/><stop offset="1" style="stop-color:#7c7059;stop-opacity:1"/></linearGradient><linearGradient id="_Linear7" x1="0" y1="0" x2="1" y2="0" gradientUnits="userSpaceOnUse" gradientTransform="matrix(3.34452,0,0,3.34452,87.5594,107.034)"><stop offset="0" style="stop-color:#7c715a;stop-opacity:1"/><stop offset="0.09" style="stop-color:#afa795;stop-opacity:1"/><stop offset="0.2" style="stop-color:#e1dbcf;stop-opacity:1"/><stop offset="0.5" style="stop-color:#f7f2e8;stop-opacity:1"/><stop offset="0.8" style="stop-color:#e1dbcf;stop-opacity:1"/><stop offset="0.91" style="stop-color:#afa695;stop-opacity:1"/><stop offset="1" style="stop-color:#7c7059;stop-opacity:1"/></linearGradient></defs></svg>