<?xml version="1.0" encoding="UTF-8" standalone="no"?><!DOCTYPE svg PUBLIC "-//W3C//DTD SVG 1.1//EN" "http://www.w3.org/Graphics/SVG/1.1/DTD/svg11.dtd"><svg width="100%" height="100%" viewBox="0 0 237 240" version="1.1" xmlns="http://www.w3.org/2000/svg" xmlns:xlink="http://www.w3.org/1999/xlink" xml:space="preserve" xmlns:serif="http://www.serif.com/" style="fill-rule:evenodd;clip-rule:evenodd;stroke-linecap:square;stroke-linejoin:round;stroke-miterlimit:1.5;"><g id="Stack-of-Cards" serif:id="Stack of Cards"><g id="Delta-InfectionCard" serif:id="Delta InfectionCard"><path d="M14.124,0.627c-7.418,0.006 -13.436,6.033 -13.43,13.45l0.111,141.12c0.006,7.418 6.033,13.435 13.451,13.43l141.12,-0.111c7.417,-0.006 13.435,-6.033 13.429,-13.451l-0.111,-141.12c-0.006,-7.418 -6.033,-13.435 -13.451,-13.429l-141.119,0.111Z" style="fill:url(#_Linear1);stroke:#00191f;stroke-width:1px;"/><path d="M92.61,98.393c-2.032,-3.337 -3.211,-7.307 -3.211,-11.565c0,-11.807 9.064,-21.397 20.239,-21.429c-9.44,0.031 -17.093,7.704 -17.093,17.15c0,5.435 2.533,10.283 6.483,13.426l0,0l0.042,0.034l-0.042,-0.034c2.857,-2.484 6.588,-3.988 10.667,-3.988c4.079,0 7.809,1.504 10.666,3.988l-0.042,0.034l0.042,-0.034l0,0c3.95,-3.143 6.484,-7.991 6.484,-13.426c0,-9.446 -7.654,-17.119 -17.093,-17.15c11.175,0.032 20.238,9.622 20.238,21.429c0,4.258 -1.179,8.228 -3.211,11.565c3.906,-0.09 7.934,0.874 11.622,3.003c10.225,5.903 13.998,18.547 8.439,28.241c4.693,-8.19 1.875,-18.655 -6.306,-23.378c-4.707,-2.717 -10.172,-2.947 -14.869,-1.098l0,0l-0.05,0.02l0.05,-0.02c0.722,3.716 0.16,7.699 -1.88,11.232c-2.039,3.532 -5.207,6.011 -8.787,7.243l-0.008,-0.053l0.008,0.053l0,0c0.747,4.992 3.679,9.61 8.386,12.328c8.181,4.723 18.652,1.931 23.399,-6.228c-5.616,9.662 -18.452,12.716 -28.678,6.812c-3.688,-2.129 -6.536,-5.135 -8.41,-8.563c-1.874,3.428 -4.723,6.434 -8.411,8.563c-10.225,5.904 -23.062,2.85 -28.677,-6.812c4.746,8.159 15.218,10.951 23.399,6.228c4.706,-2.718 7.638,-7.336 8.385,-12.328l0,0l0.008,-0.053l-0.008,0.053c-3.579,-1.232 -6.747,-3.711 -8.787,-7.243c-2.04,-3.533 -2.602,-7.516 -1.88,-11.232l0.051,0.02l-0.051,-0.02l0,0c-4.696,-1.849 -10.162,-1.619 -14.868,1.098c-8.181,4.723 -10.999,15.188 -6.306,23.378c-5.56,-9.694 -1.786,-22.338 8.439,-28.241c3.688,-2.129 7.715,-3.093 11.621,-3.003Zm11.796,25.141l0.001,-0.005l-0.006,0.04l0.005,-0.035Zm10.582,0.034l-0.005,-0.039l0,0.005l0.005,0.034Zm-10.575,-0.085l0.001,-0.007l-0.005,0.035l0.004,-0.028Zm10.567,0.027l-0.005,-0.034l0.001,0.007l0.004,0.027Zm-10.559,-0.078l0.001,-0.009l-0.005,0.033l0.004,-0.024Zm10.551,0.023l-0.004,-0.032l0.001,0.009l0.003,0.023Zm-10.545,-0.074l0.002,-0.012l-0.004,0.033l0.002,-0.021Zm10.538,0.02l-0.005,-0.031l0.002,0.011l0.003,0.02Zm-10.531,-0.071l0.002,-0.014l-0.004,0.032l0.002,-0.018Zm10.524,0.017l-0.005,-0.031l0.002,0.014l0.003,0.017Zm-10.517,-0.069l0.002,-0.016l-0.004,0.032l0.002,-0.016Zm10.509,0.016l-0.003,-0.031l0.001,0.015l0.002,0.016Zm-10.503,-0.067l0.003,-0.018l-0.004,0.032l0.001,-0.014Zm10.497,0.013l-0.004,-0.031l0.002,0.018l0.002,0.013Zm-10.49,-0.064l0.002,-0.022l-0.004,0.033l0.002,-0.011Zm10.483,0.011l-0.004,-0.032l0.003,0.021l0.001,0.011Zm-10.477,-0.062l0.003,-0.026l-0.004,0.035l0.001,-0.009Zm10.471,0.009l-0.004,-0.033l0.003,0.024l0.001,0.009Zm-10.465,-0.06l0.003,-0.031l-0.004,0.037l0.001,-0.006Zm10.458,0.006l-0.004,-0.035l0.003,0.029l0.001,0.006Zm-10.452,-0.057l0.004,-0.041l-0.005,0.045l0.001,-0.004Zm10.446,0.004l-0.005,-0.042l0.005,0.038l0,0.004Zm-10.435,-0.11l0,0.003l0,0l0,-0.001l0,-0.002Zm10.423,0.001l-0.005,-0.052l0,0.003l0.005,0.049Zm-10.412,-0.1l0,-0.006l-0.004,0.041l0.004,-0.035Zm10.405,0.032l-0.004,-0.038l0.001,0.006l0.003,0.032Zm-10.4,-0.084l0.001,-0.008l-0.004,0.037l0.003,-0.029Zm10.394,0.027l-0.003,-0.034l0.001,0.007l0.002,0.027Zm-10.389,-0.078l0.001,-0.01l-0.004,0.034l0.003,-0.024Zm10.384,0.023l-0.003,-0.033l0.001,0.01l0.002,0.023Zm-10.379,-0.074l0.001,-0.013l-0.003,0.034l0.002,-0.021Zm10.374,0.02l-0.003,-0.032l0.001,0.012l0.002,0.02Zm-10.37,-0.072l0.002,-0.015l-0.003,0.033l0.001,-0.018Zm10.365,0.017l-0.003,-0.031l0.001,0.014l0.002,0.017Zm-10.36,-0.068l0.001,-0.018l-0.003,0.033l0.002,-0.015Zm10.355,0.015l-0.003,-0.032l0.002,0.017l0.001,0.015Zm-10.351,-0.067l0.002,-0.02l-0.003,0.034l0.001,-0.014Zm10.346,0.013l-0.002,-0.032l0.001,0.019l0.001,0.013Zm-10.342,-0.064l0.002,-0.024l-0.003,0.035l0.001,-0.011Zm10.338,0.01l-0.003,-0.033l0.002,0.023l0.001,0.01Zm-10.334,-0.062l0.002,-0.028l-0.002,0.037l0,-0.009Zm10.33,0.008l-0.003,-0.034l0.002,0.026l0.001,0.008Zm-10.326,-0.059l0.003,-0.035l-0.003,0.041l0,-0.006Zm10.322,0.006l-0.003,-0.038l0.002,0.032l0.001,0.006Zm-0.004,-0.054l-0.004,-0.049l0.003,0.045l0.001,0.004Zm-10.311,-0.055l0,0.001l0,0.004l0,-0.003l0,-0.002Zm0.007,-0.103l0,-0.005l-0.003,0.053l0.003,-0.048Zm10.296,0.042l-0.003,-0.046l0,0.004l0.003,0.042Zm-10.293,-0.094l0.001,-0.006l-0.003,0.041l0.002,-0.035Zm10.289,0.031l-0.002,-0.037l0,0.006l0.002,0.031Zm-10.286,-0.082l0.001,-0.009l-0.002,0.037l0.001,-0.028Zm10.283,0.026l-0.002,-0.035l0,0.009l0.002,0.026Zm-10.28,-0.078l0.001,-0.011l-0.002,0.035l0.001,-0.024Zm10.277,0.023l-0.002,-0.033l0,0.01l0.002,0.023Zm-10.274,-0.074l0,-0.014l-0.001,0.034l0.001,-0.02Zm10.271,0.019l-0.002,-0.032l0.001,0.013l0.001,0.019Zm-10.269,-0.071l0.001,-0.016l-0.002,0.034l0.001,-0.018Zm10.266,0.017l-0.001,-0.032l0,0.015l0.001,0.017Zm-10.264,-0.069l0.001,-0.019l-0.001,0.035l0,-0.016Zm10.262,0.015l-0.002,-0.033l0.001,0.018l0.001,0.015Zm-10.259,-0.066l0.001,-0.023l-0.002,0.035l0.001,-0.012Zm10.256,0.012l-0.001,-0.033l0.001,0.021l0,0.012Zm-10.254,-0.064l0.001,-0.026l-0.002,0.036l0.001,-0.01Zm10.252,0.01l-0.001,-0.034l0.001,0.024l0,0.01Zm-10.25,-0.062l0.001,-0.031l-0.002,0.039l0.001,-0.008Zm10.248,0.008l-0.001,-0.036l0.001,0.028l0,0.008Zm-10.247,-0.059l0.001,-0.04l-0.001,0.045l0,-0.005Zm10.245,0.005l-0.001,-0.041l0.001,0.036l0,0.005Zm-0.003,-0.111l0,0.003l0,0.002l0,-0.002l0,-0.003Zm-10.239,0.001l0,0.002l0,0.001l0,-0.001l0,-0.002Zm0.003,-0.102l0,-0.005l-0.001,0.047l0.001,-0.042Zm10.235,0.038l-0.001,-0.043l0,0.005l0.001,0.038Zm-10.235,-0.09l0.001,-0.007l-0.001,0.04l0,-0.033Zm10.233,0.03l0,-0.037l0,0.007l0,0.03Zm-10.232,-0.081l0,-0.011l0,0.038l0,-0.027Zm10.231,0.025l0,-0.035l0,0.01l0,0.025Zm-10.23,-0.077l0,-0.013l0,0.036l0,-0.023Zm10.23,0.022l-0.001,-0.034l0,0.012l0.001,0.022Zm-10.23,-0.074l0,-0.015l0,0.035l0,-0.02Zm10.229,0.019l0,-0.033l0,0.014l0,0.019Zm-10.228,-0.071l0,-0.017l0,0.034l0,-0.017Zm10.228,0.016l0,-0.033l0,0.017l0,0.016Zm-10.228,-0.068l0,-0.02l0,0.035l0,-0.015Zm10.228,0.014l0,-0.033l0,0.019l0,0.014Zm-10.228,-0.065l0,-0.024l0,0.036l0,-0.012Zm10.228,0.011l0,-0.034l0,0.023l0,0.011Zm-10.228,-0.063l0,-0.028l0,0.037l0,-0.009Zm10.228,0.009l0,-0.036l0,0.027l0,0.009Zm-10.229,-0.061l0,-0.034l0,0.041l0,-0.007Zm10.229,0.007l0,-0.039l0,0.032l0,0.007Zm-10.229,-0.059l-0.001,-0.047l0.001,0.052l0,-0.005Zm10.229,0.005l0.001,-0.048l-0.001,0.043l0,0.005Zm0.002,-0.113l0,0.003l0,0.003l0,-0.002l0,-0.004Zm-10.233,0.004l0,-0.001l-0.001,-0.054l0.001,0.055Zm-0.002,-0.103l0,-0.006l0.001,0.044l-0.001,-0.038Zm10.236,0.036l0.001,-0.042l0,0.006l-0.001,0.036Zm-10.237,-0.088l0,-0.008l0.001,0.039l-0.001,-0.031Zm10.239,0.029l0,-0.037l0,0.008l0,0.029Zm-10.24,-0.081l-0.001,-0.011l0.001,0.037l0,-0.026Zm10.241,0.025l0.001,-0.035l0,0.01l-0.001,0.025Zm-10.243,-0.077l0,-0.013l0.001,0.036l-0.001,-0.023Zm10.245,0.022l0.001,-0.035l-0.001,0.013l0,0.022Zm-10.247,-0.073l0,-0.016l0.001,0.035l-0.001,-0.019Zm10.248,0.018l0.001,-0.034l0,0.016l-0.001,0.018Zm-10.249,-0.07l-0.001,-0.019l0.001,0.035l0,-0.016Zm10.251,0.016l0.002,-0.035l-0.001,0.019l-0.001,0.016Zm-10.253,-0.068l-0.001,-0.022l0.001,0.036l0,-0.014Zm10.255,0.013l0.002,-0.035l-0.001,0.022l-0.001,0.013Zm-10.258,-0.065l-0.001,-0.025l0.002,0.036l-0.001,-0.011Zm10.261,0.011l0.001,-0.036l-0.001,0.025l0,0.011Zm-10.263,-0.063l-0.001,-0.03l0.001,0.039l0,-0.009Zm10.265,0.009l0.002,-0.039l-0.002,0.03l0,0.009Zm-10.268,-0.061l-0.001,-0.037l0.002,0.044l-0.001,-0.007Zm10.271,0.007l0.002,-0.044l-0.002,0.037l0,0.007Zm0.005,-0.109l-0.003,0.055l0.003,-0.055l0,0Zm-10.282,-0.02l0.001,0.016l0,-0.003l-0.001,-0.013l-0.002,-0.036l0,0l0.002,0.036Zm9.574,-14.418c-0.795,-1.372 -2.209,-2.341 -3.858,-2.525l0,-3.48c2.541,-0.083 4.943,-0.721 7.089,-1.796c-2.159,-1.501 -4.805,-2.386 -7.663,-2.386c-2.858,0 -5.505,0.885 -7.664,2.386c2.146,1.075 4.548,1.713 7.089,1.796l0,3.48c-1.649,0.184 -3.063,1.153 -3.858,2.525l-0.002,0.003l-0.002,0.003c-0.79,1.375 -0.922,3.084 -0.257,4.604l-3.014,1.74c-1.343,-2.159 -3.096,-3.92 -5.1,-5.241c-0.22,2.62 0.337,5.354 1.766,7.829c1.429,2.475 3.518,4.325 5.898,5.444c-0.142,-2.396 -0.791,-4.795 -1.989,-7.037l3.013,-1.74c0.984,1.336 2.531,2.076 4.116,2.079l0.004,0l0.003,0c1.586,-0.003 3.132,-0.743 4.116,-2.079l3.013,1.74c-1.198,2.242 -1.846,4.641 -1.988,7.037c2.379,-1.119 4.469,-2.969 5.898,-5.444c1.429,-2.475 1.986,-5.209 1.765,-7.829c-2.004,1.321 -3.757,3.082 -5.1,5.241l-3.013,-1.74c0.665,-1.52 0.532,-3.229 -0.258,-4.604l-0.002,-0.003l-0.002,-0.003Zm8.416,1.081l-0.011,0.008l-0.03,0.02l0,0l0.03,-0.02l0.013,-0.009l-0.002,0.001Zm-25.702,-0.003l-0.001,0l-0.045,-0.03l0.046,0.03Zm25.794,-0.056l-0.032,0.021l0.037,-0.025l-0.005,0.004Zm-25.886,-0.003l0.037,0.023l-0.031,-0.02l-0.006,-0.003Zm25.929,-0.025l-0.025,0.016l0.033,-0.021l-0.008,0.005Zm-25.974,-0.005l0.032,0.021l-0.025,-0.016l-0.007,-0.005Zm26.018,-0.023l-0.021,0.014l0.031,-0.02l-0.01,0.006Zm-26.064,-0.006l0.03,0.019l-0.021,-0.013l-0.009,-0.006Zm26.108,-0.022l-0.019,0.012l0.031,-0.019l-0.012,0.007Zm-26.154,-0.007l0.03,0.019l-0.019,-0.012l-0.011,-0.007Zm26.198,-0.021l-0.016,0.01l0.03,-0.018l-0.014,0.008Zm-26.244,-0.008l0.029,0.018l-0.015,-0.01l-0.014,-0.008Zm26.288,-0.019l-0.014,0.008l0.03,-0.018l-0.016,0.01Zm-26.334,-0.01l0.029,0.018l-0.013,-0.008l-0.016,-0.01Zm26.378,-0.018l-0.012,0.008l0.031,-0.019l-0.019,0.011Zm-26.425,-0.011l0.03,0.018l-0.011,-0.007l-0.019,-0.011Zm26.469,-0.016l-0.009,0.006l0.031,-0.019l-0.022,0.013Zm-26.516,-0.013l0.03,0.019l-0.009,-0.006l-0.021,-0.013Zm26.56,-0.014l-0.007,0.004l0.033,-0.02l-0.026,0.016Zm-26.608,-0.015l0.032,0.019l-0.007,-0.004l-0.025,-0.015Zm26.652,-0.012l-0.005,0.003l0.038,-0.023l-0.033,0.02Zm-26.702,-0.019l0.036,0.022l-0.005,-0.003l-0.031,-0.019Zm26.79,-0.034l-0.047,0.028l0.048,-0.028l-0.001,0Zm-26.849,-0.001l0.002,0.001l0.003,0.002l-0.003,-0.002l-0.002,-0.001Zm26.939,-0.053l-0.04,0.024l0.044,-0.026l-0.004,0.002Zm-27.031,-0.002l0.041,0.024l-0.037,-0.022l-0.004,-0.002Zm27.076,-0.024l-0.03,0.017l0.036,-0.021l-0.006,0.004Zm-27.122,-0.003l0.033,0.019l-0.027,-0.016l-0.006,-0.003Zm27.167,-0.023l-0.025,0.014l0.033,-0.019l-0.008,0.005Zm-27.214,-0.005l0.031,0.018l-0.023,-0.013l-0.008,-0.005Zm27.258,-0.021l-0.02,0.012l0.031,-0.018l-0.011,0.006Zm-27.305,-0.006l0.03,0.017l-0.02,-0.011l-0.01,-0.006Zm27.35,-0.02l-0.018,0.01l0.031,-0.017l-0.013,0.007Zm-27.397,-0.007l0.029,0.017l-0.017,-0.01l-0.012,-0.007Zm27.442,-0.019l-0.015,0.009l0.03,-0.017l-0.015,0.008Zm-27.489,-0.008l0.029,0.017l-0.015,-0.009l-0.014,-0.008Zm27.534,-0.017l-0.013,0.007l0.03,-0.017l-0.017,0.01Zm-27.581,-0.01l0.029,0.017l-0.013,-0.007l-0.016,-0.01Zm27.626,-0.016l-0.011,0.006l0.031,-0.017l-0.02,0.011Zm-27.674,-0.011l0.03,0.017l-0.011,-0.006l-0.019,-0.011Zm27.719,-0.014l-0.009,0.005l0.033,-0.018l-0.024,0.013Zm-27.767,-0.013l0.03,0.017l-0.008,-0.004l-0.022,-0.013Zm27.812,-0.012l-0.006,0.003l0.035,-0.019l-0.029,0.016Zm-27.861,-0.015l0.032,0.018l-0.006,-0.003l-0.026,-0.015Zm27.907,-0.01l-0.005,0.002l0.042,-0.023l-0.037,0.021Zm-27.96,-0.019l0.038,0.021l-0.004,-0.002l-0.034,-0.019Zm-0.059,-0.032l0.002,0.001l0.002,0.001l-0.002,-0.001l-0.002,-0.001Zm28.111,0l-0.001,0.001l-0.002,0l0.002,0l0.001,-0.001Zm0.089,-0.048l-0.035,0.019l0.04,-0.022l-0.005,0.003Zm-28.294,-0.003l0.037,0.02l-0.032,-0.017l-0.005,-0.003Zm28.34,-0.022l-0.028,0.015l0.035,-0.018l-0.007,0.003Zm-28.387,-0.003l0.032,0.017l-0.026,-0.014l-0.006,-0.003Zm28.433,-0.021l-0.023,0.012l0.032,-0.017l-0.009,0.005Zm-28.481,-0.004l0.03,0.016l-0.021,-0.012l-0.009,-0.004Zm28.526,-0.02l-0.019,0.011l0.031,-0.017l-0.012,0.006Zm-28.574,-0.005l0.03,0.015l-0.019,-0.01l-0.011,-0.005Zm28.62,-0.019l-0.017,0.009l0.031,-0.016l-0.014,0.007Zm-28.668,-0.006l0.029,0.015l-0.016,-0.009l-0.013,-0.006Zm28.714,-0.018l-0.015,0.008l0.031,-0.016l-0.016,0.008Zm-28.762,-0.007l0.029,0.014l-0.014,-0.007l-0.015,-0.007Zm28.808,-0.016l-0.012,0.006l0.031,-0.016l-0.019,0.01Zm-28.856,-0.009l0.029,0.015l-0.012,-0.006l-0.017,-0.009Zm28.902,-0.015l-0.01,0.005l0.032,-0.016l-0.022,0.011Zm-28.951,-0.01l0.03,0.015l-0.01,-0.005l-0.02,-0.01Zm28.997,-0.013l-0.008,0.004l0.033,-0.017l-0.025,0.013Zm-29.046,-0.012l0.031,0.016l-0.008,-0.004l-0.023,-0.012Zm29.092,-0.011l-0.006,0.003l0.037,-0.019l-0.031,0.016Zm-29.143,-0.014l0.034,0.016l-0.006,-0.002l-0.028,-0.014Zm29.189,-0.009l-0.004,0.002l0.047,-0.024l-0.043,0.022Zm-29.244,-0.019l0.04,0.02l-0.003,-0.001l-0.037,-0.019Zm29.342,-0.029l-0.003,0.001l-0.002,0.001l0.001,-0.001l0.004,-0.001Zm-29.447,-0.022l0.043,0.021l-0.04,-0.02l-0.003,-0.001Zm29.535,-0.021l-0.032,0.015l0.038,-0.018l-0.006,0.003Zm-29.584,-0.003l0.034,0.017l-0.029,-0.014l-0.005,-0.003Zm29.63,-0.02l-0.025,0.013l0.033,-0.016l-0.008,0.003Zm-29.678,-0.003l0.031,0.015l-0.024,-0.012l-0.007,-0.003Zm29.725,-0.019l-0.022,0.01l0.032,-0.015l-0.01,0.005Zm-29.774,-0.004l0.03,0.014l-0.021,-0.01l-0.009,-0.004Zm29.821,-0.018l-0.019,0.009l0.031,-0.015l-0.012,0.006Zm-29.87,-0.005l0.03,0.013l-0.018,-0.008l-0.012,-0.005Zm29.916,-0.017l-0.016,0.008l0.031,-0.015l-0.015,0.007Zm-29.964,-0.006l0.028,0.013l-0.015,-0.007l-0.013,-0.006Zm30.011,-0.016l-0.014,0.007l0.031,-0.015l-0.017,0.008Zm-30.06,-0.007l0.028,0.013l-0.013,-0.006l-0.015,-0.007Zm30.107,-0.015l-0.012,0.006l0.031,-0.014l-0.019,0.008Zm-30.157,-0.008l0.029,0.014l-0.011,-0.006l-0.018,-0.008Zm30.204,-0.013l-0.01,0.004l0.032,-0.014l-0.022,0.01Zm-30.253,-0.01l0.029,0.014l-0.008,-0.004l-0.021,-0.01Zm30.3,-0.011l-0.008,0.003l0.034,-0.015l-0.026,0.012Zm-30.351,-0.012l0.031,0.015l-0.006,-0.003l-0.025,-0.012Zm30.398,-0.01l-0.005,0.003l0.037,-0.017l-0.032,0.014Zm-30.45,-0.013l0.034,0.015l-0.004,-0.002l-0.03,-0.013Zm-0.062,-0.028l0.047,0.021l-0.002,-0.001l-0.045,-0.02Zm30.606,-0.001l-0.001,0.001l-0.002,0l0.002,0l0.001,-0.001Zm0.094,-0.041l-0.037,0.016l0.041,-0.018l-0.004,0.002Zm-30.801,-0.002l0.038,0.017l-0.034,-0.015l-0.004,-0.002Zm30.849,-0.019l-0.029,0.013l0.035,-0.015l-0.006,0.002Zm-30.898,-0.002l0.032,0.014l-0.026,-0.012l-0.006,-0.002Zm30.945,-0.018l-0.024,0.01l0.032,-0.014l-0.008,0.004Zm-30.994,-0.003l0.03,0.013l-0.023,-0.01l-0.007,-0.003Zm31.041,-0.017l-0.02,0.008l0.031,-0.013l-0.011,0.005Zm-31.091,-0.005l0.03,0.013l-0.02,-0.008l-0.01,-0.005Zm31.139,-0.015l-0.018,0.007l0.03,-0.013l-0.012,0.006Zm-31.188,-0.005l0.028,0.012l-0.016,-0.007l-0.012,-0.005Zm31.235,-0.015l-0.015,0.006l0.03,-0.012l-0.015,0.006Zm-31.285,-0.006l0.029,0.012l-0.015,-0.006l-0.014,-0.006Zm31.333,-0.014l-0.013,0.005l0.03,-0.012l-0.017,0.007Zm-31.383,-0.007l0.029,0.012l-0.012,-0.005l-0.017,-0.007Zm31.431,-0.013l-0.011,0.004l0.03,-0.012l-0.019,0.008Zm-31.481,-0.008l0.029,0.012l-0.01,-0.004l-0.019,-0.008Zm31.528,-0.011l-0.008,0.003l0.031,-0.012l-0.023,0.009Zm-31.579,-0.009l0.03,0.012l-0.008,-0.003l-0.022,-0.009Zm31.627,-0.011l-0.006,0.003l0.032,-0.013l-0.026,0.01Zm-31.678,-0.01l0.031,0.013l-0.006,-0.003l-0.025,-0.01Zm31.726,-0.009l-0.004,0.002l0.037,-0.015l-0.033,0.013Zm-31.781,-0.013l0.037,0.015l-0.004,-0.002l-0.033,-0.013Zm8.199,-7.315l0.012,0.006l0.032,0.016l0,0l-0.032,-0.016l-0.014,-0.007l0.002,0.001Zm15.421,-0.003l0,0l0.049,-0.025l-0.049,0.025Zm-15.518,-0.046l0.034,0.017l-0.04,-0.02l0.006,0.003Zm15.615,-0.003l-0.039,0.019l0.033,-0.016l0.006,-0.003Zm-15.661,-0.021l0.027,0.014l-0.035,-0.018l0.008,0.004Zm15.709,-0.004l-0.034,0.017l0.027,-0.013l0.007,-0.004Zm-15.755,-0.02l0.022,0.012l-0.032,-0.017l0.01,0.005Zm15.804,-0.005l-0.033,0.016l0.023,-0.011l0.01,-0.005Zm-15.85,-0.019l0.019,0.01l-0.032,-0.017l0.013,0.007Zm15.898,-0.006l-0.031,0.016l0.019,-0.01l0.012,-0.006Zm-15.944,-0.018l0.016,0.008l-0.031,-0.016l0.015,0.008Zm15.992,-0.008l-0.031,0.016l0.017,-0.008l0.014,-0.008Zm-16.038,-0.017l0.014,0.008l-0.031,-0.017l0.017,0.009Zm16.086,-0.008l-0.03,0.016l0.014,-0.008l0.016,-0.008Zm-16.132,-0.016l0.012,0.006l-0.031,-0.017l0.019,0.011Zm16.18,-0.01l-0.03,0.016l0.011,-0.006l0.019,-0.01Zm-16.226,-0.015l0.01,0.006l-0.032,-0.018l0.022,0.012Zm16.275,-0.011l-0.031,0.016l0.009,-0.005l0.022,-0.011Zm-16.32,-0.013l0.007,0.004l-0.034,-0.019l0.027,0.015Zm16.369,-0.014l-0.033,0.018l0.008,-0.004l0.025,-0.014Zm-16.415,-0.011l0.006,0.003l-0.039,-0.022l0.033,0.019Zm16.467,-0.017l-0.037,0.02l0.005,-0.003l0.032,-0.017Zm-16.557,-0.033l0.048,0.027l-0.048,-0.027l0,0Zm16.617,-0.001l-0.002,0.001l-0.003,0.002l0.003,-0.002l0.002,-0.001Zm-16.708,-0.05l0.041,0.023l-0.045,-0.025l0.004,0.002Zm16.801,-0.002l-0.041,0.023l0.037,-0.021l0.004,-0.002Zm-16.846,-0.023l0.03,0.017l-0.036,-0.021l0.006,0.004Zm16.893,-0.004l-0.033,0.02l0.027,-0.016l0.006,-0.004Zm-16.938,-0.022l0.024,0.014l-0.032,-0.019l0.008,0.005Zm16.985,-0.004l-0.031,0.017l0.023,-0.013l0.008,-0.004Zm-17.03,-0.022l0.021,0.012l-0.031,-0.018l0.01,0.006Zm17.077,-0.005l-0.029,0.017l0.019,-0.012l0.01,-0.005Zm-17.122,-0.021l0.018,0.011l-0.03,-0.018l0.012,0.007Zm17.169,-0.006l-0.029,0.016l0.017,-0.01l0.012,-0.006Zm-17.214,-0.02l0.016,0.009l-0.03,-0.017l0.014,0.008Zm17.261,-0.008l-0.028,0.017l0.014,-0.009l0.014,-0.008Zm-17.305,-0.018l0.013,0.008l-0.031,-0.018l0.018,0.01Zm17.352,-0.009l-0.029,0.016l0.013,-0.007l0.016,-0.009Zm-17.397,-0.017l0.011,0.006l-0.031,-0.018l0.02,0.012Zm17.444,-0.011l-0.029,0.017l0.01,-0.006l0.019,-0.011Zm-17.488,-0.015l0.008,0.005l-0.032,-0.019l0.024,0.014Zm17.535,-0.013l-0.029,0.017l0.008,-0.004l0.021,-0.013Zm-17.58,-0.014l0.007,0.004l-0.035,-0.021l0.028,0.017Zm17.629,-0.015l-0.032,0.019l0.006,-0.004l0.026,-0.015Zm-17.673,-0.012l0.004,0.003l-0.04,-0.025l0.036,0.022Zm17.724,-0.019l-0.037,0.022l0.005,-0.003l0.032,-0.019Zm0.058,-0.036l-0.002,0.002l-0.002,0.001l0.002,-0.002l0.002,-0.001Zm-17.872,0.001l0.001,0l0.002,0.001l-0.002,0l-0.001,-0.001Zm-0.087,-0.054l0.035,0.022l-0.039,-0.025l0.004,0.003Zm18.049,-0.002l-0.035,0.021l0.031,-0.019l0.004,-0.002Zm-18.093,-0.025l0.027,0.017l-0.033,-0.021l0.006,0.004Zm18.139,-0.004l-0.031,0.019l0.025,-0.015l0.006,-0.004Zm-18.182,-0.023l0.022,0.014l-0.031,-0.02l0.009,0.006Zm18.228,-0.005l-0.029,0.018l0.021,-0.013l0.008,-0.005Zm-18.272,-0.023l0.019,0.012l-0.03,-0.019l0.011,0.007Zm18.317,-0.006l-0.027,0.017l0.017,-0.011l0.01,-0.006Zm-18.361,-0.022l0.017,0.011l-0.029,-0.019l0.012,0.008Zm18.407,-0.007l-0.027,0.017l0.015,-0.01l0.012,-0.007Zm-18.45,-0.02l0.014,0.008l-0.029,-0.018l0.015,0.01Zm18.496,-0.01l-0.027,0.018l0.013,-0.008l0.014,-0.01Zm-18.54,-0.018l0.012,0.007l-0.029,-0.019l0.017,0.012Zm18.585,-0.011l-0.027,0.018l0.011,-0.007l0.016,-0.011Zm-18.628,-0.018l0.01,0.007l-0.03,-0.02l0.02,0.013Zm18.674,-0.012l-0.028,0.018l0.009,-0.006l0.019,-0.012Zm-18.717,-0.016l0.007,0.005l-0.031,-0.02l0.024,0.015Zm18.763,-0.014l-0.028,0.019l0.007,-0.005l0.021,-0.014Zm-18.806,-0.014l0.005,0.004l-0.034,-0.023l0.029,0.019Zm18.854,-0.017l-0.031,0.02l0.005,-0.003l0.026,-0.017Zm-18.898,-0.012l0.004,0.003l-0.043,-0.029l0.039,0.026Zm18.95,-0.023l-0.038,0.026l0.003,-0.003l0.035,-0.023Zm-19.04,-0.037l0.003,0.002l0.002,0.001l-0.001,0l-0.004,-0.003Zm19.137,-0.028l-0.041,0.027l0.038,-0.025l0.003,-0.002Zm-19.218,-0.027l0.029,0.02l-0.034,-0.023l0.005,0.003Zm19.262,-0.003l-0.031,0.021l0.026,-0.018l0.005,-0.003Zm-19.305,-0.026l0.024,0.016l-0.031,-0.021l0.007,0.005Zm19.35,-0.004l-0.029,0.019l0.022,-0.015l0.007,-0.004Zm-19.392,-0.025l0.02,0.014l-0.029,-0.02l0.009,0.006Zm19.436,-0.006l-0.027,0.019l0.019,-0.013l0.008,-0.006Zm-19.479,-0.023l0.018,0.012l-0.029,-0.02l0.011,0.008Zm19.523,-0.007l-0.026,0.018l0.016,-0.011l0.01,-0.007Zm-19.565,-0.023l0.015,0.01l-0.028,-0.019l0.013,0.009Zm19.61,-0.008l-0.027,0.018l0.014,-0.01l0.013,-0.008Zm-19.652,-0.021l0.012,0.008l-0.027,-0.019l0.015,0.011Zm19.696,-0.01l-0.026,0.018l0.012,-0.008l0.014,-0.01Zm-19.738,-0.02l0.01,0.007l-0.028,-0.019l0.018,0.012Zm19.782,-0.012l-0.026,0.019l0.01,-0.007l0.016,-0.012Zm-19.824,-0.018l0.008,0.006l-0.028,-0.02l0.02,0.014Zm19.869,-0.013l-0.027,0.019l0.008,-0.006l0.019,-0.013Zm-19.911,-0.017l0.006,0.005l-0.03,-0.022l0.024,0.017Zm19.956,-0.016l-0.028,0.02l0.006,-0.004l0.022,-0.016Zm-19.998,-0.014l0.004,0.003l-0.033,-0.024l0.029,0.021Zm20.044,-0.019l-0.03,0.022l0.004,-0.003l0.026,-0.019Zm0.055,-0.04l-0.042,0.031l0.003,-0.002l0.039,-0.029Zm-20.183,-0.002l0.001,0.001l0.001,0.001l-0.001,-0.001l-0.001,-0.001Zm-0.083,-0.061l0.033,0.025l-0.037,-0.027l0.004,0.002Zm20.355,-0.002l-0.034,0.025l0.03,-0.023l0.004,-0.002Zm-20.396,-0.028l0.024,0.018l-0.03,-0.022l0.006,0.004Zm20.439,-0.004l-0.029,0.021l0.024,-0.017l0.005,-0.004Zm-20.481,-0.027l0.021,0.015l-0.028,-0.02l0.007,0.005Zm20.524,-0.005l-0.027,0.02l0.02,-0.015l0.007,-0.005Zm-20.565,-0.026l0.018,0.013l-0.027,-0.02l0.009,0.007Zm20.608,-0.006l-0.026,0.019l0.017,-0.013l0.009,-0.006Zm-20.649,-0.025l0.015,0.011l-0.026,-0.019l0.011,0.008Zm20.692,-0.008l-0.025,0.019l0.014,-0.011l0.011,-0.008Zm-20.733,-0.023l0.013,0.01l-0.026,-0.02l0.013,0.01Zm20.776,-0.01l-0.025,0.019l0.013,-0.009l0.012,-0.01Zm-20.817,-0.022l0.011,0.009l-0.026,-0.02l0.015,0.011Zm20.86,-0.01l-0.025,0.019l0.01,-0.009l0.015,-0.01Zm-20.901,-0.021l0.009,0.007l-0.026,-0.02l0.017,0.013Zm20.944,-0.013l-0.025,0.02l0.008,-0.007l0.017,-0.013Zm-20.985,-0.018l0.007,0.005l-0.026,-0.02l0.019,0.015Zm21.028,-0.015l-0.026,0.02l0.007,-0.005l0.019,-0.015Zm-21.068,-0.017l0.005,0.004l-0.028,-0.022l0.023,0.018Zm21.112,-0.017l-0.027,0.021l0.005,-0.004l0.022,-0.017Zm-21.153,-0.015l0.004,0.003l-0.032,-0.025l0.028,0.022Zm21.199,-0.022l-0.031,0.025l0.003,-0.003l0.028,-0.022Z"/><path id="Delta" d="M14.469,31.668c0,0 1.098,0.473 0.797,1.986c-0.29,1.457 -1.276,0.504 -1.584,0.127c-0.399,-0.49 -0.953,-1.435 -1.365,-2.145c-0.716,-1.233 -1.881,-3.27 -3.433,-2.473c-0.654,0.335 -0.912,1.026 -0.88,1.494c0.074,1.063 0.683,2.002 1.148,2.758c0.482,0.784 4.789,6.324 5.237,6.991c2.314,3.438 2.101,5.536 1.575,7.106c-0.895,2.67 -5.04,3.924 -6.932,0.026c-1.719,-3.543 0.753,-6.658 3.082,-5.589c2.021,0.928 2.378,2.588 2.378,2.588c0,0 -0.511,-3.011 -2.51,-3.727c-4.294,-1.537 -4.751,4.222 -3.473,6.871c2.866,5.941 9.911,3.624 8.766,-2.361c-0.157,-0.821 -0.512,-2.698 -2.161,-5.183c-0.586,-0.884 -3.601,-4.265 -4.629,-5.888c-0.739,-1.168 -1.785,-2.64 -1.536,-3.852c0.175,-0.852 1.425,-0.555 1.777,-0.222c0.352,0.333 2.555,3.743 2.637,3.862c1.396,2.013 2.467,0.593 2.594,-0.227c0.178,-1.139 -0.392,-1.889 -1.488,-2.142Z" style="stroke:#000;stroke-width:0.32px;stroke-linecap:round;"/></g><g id="Gamma-InfectionCard" serif:id="Gamma InfectionCard"><path d="M34.758,23.86c-7.418,0.005 -13.435,6.032 -13.43,13.45l0.111,141.12c0.006,7.418 6.033,13.435 13.451,13.43l141.12,-0.111c7.418,-0.006 13.435,-6.033 13.429,-13.451l-0.111,-141.12c-0.005,-7.418 -6.032,-13.435 -13.45,-13.429l-141.12,0.111Z" style="fill:url(#_Linear2);stroke:#00191f;stroke-width:1px;"/><path d="M113.244,121.626c-2.031,-3.337 -3.21,-7.307 -3.21,-11.565c0,-11.807 9.063,-21.397 20.238,-21.429c-9.439,0.031 -17.093,7.703 -17.093,17.15c0,5.435 2.534,10.283 6.483,13.426l0,0l0.043,0.033l-0.043,-0.033c2.857,-2.484 6.588,-3.988 10.667,-3.988c4.079,0 7.81,1.504 10.667,3.988l-0.043,0.033l0.043,-0.033l0,0c3.949,-3.143 6.483,-7.991 6.483,-13.426c0,-9.447 -7.654,-17.119 -17.093,-17.15c11.175,0.032 20.238,9.622 20.238,21.429c0,4.258 -1.179,8.228 -3.21,11.565c3.906,-0.091 7.933,0.873 11.621,3.003c10.225,5.903 13.998,18.547 8.439,28.241c4.693,-8.19 1.875,-18.655 -6.306,-23.378c-4.707,-2.717 -10.172,-2.947 -14.869,-1.098l0,0l-0.05,0.02l0.05,-0.02c0.723,3.716 0.16,7.699 -1.879,11.231c-2.04,3.533 -5.208,6.012 -8.787,7.244l-0.008,-0.053l0.008,0.053l0,0c0.747,4.992 3.678,9.61 8.385,12.328c8.181,4.723 18.653,1.931 23.399,-6.228c-5.616,9.661 -18.452,12.716 -28.677,6.812c-3.688,-2.129 -6.537,-5.135 -8.411,-8.563c-1.874,3.428 -4.723,6.434 -8.411,8.563c-10.225,5.904 -23.061,2.849 -28.677,-6.812c4.746,8.159 15.218,10.951 23.399,6.228c4.707,-2.718 7.638,-7.336 8.385,-12.328l0,0l0.008,-0.054l-0.008,0.054c-3.579,-1.232 -6.747,-3.711 -8.787,-7.244c-2.039,-3.532 -2.602,-7.515 -1.879,-11.231l0.05,0.02l-0.05,-0.02l0,0c-4.697,-1.849 -10.162,-1.619 -14.869,1.098c-8.181,4.723 -10.999,15.188 -6.306,23.378c-5.559,-9.694 -1.786,-22.338 8.439,-28.241c3.688,-2.13 7.715,-3.094 11.621,-3.003Zm11.796,25.141l0.001,-0.005l-0.006,0.04l0.005,-0.035Zm10.583,0.034l-0.006,-0.039l0.001,0.005l0.005,0.034Zm-10.575,-0.085l0.001,-0.007l-0.005,0.035l0.004,-0.028Zm10.566,0.027l-0.005,-0.034l0.001,0.007l0.004,0.027Zm-10.559,-0.078l0.001,-0.009l-0.005,0.033l0.004,-0.024Zm10.551,0.023l-0.004,-0.032l0.001,0.009l0.003,0.023Zm-10.544,-0.074l0.001,-0.012l-0.004,0.033l0.003,-0.021Zm10.537,0.02l-0.004,-0.031l0.001,0.011l0.003,0.02Zm-10.53,-0.072l0.001,-0.013l-0.004,0.032l0.003,-0.019Zm10.523,0.018l-0.004,-0.031l0.001,0.013l0.003,0.018Zm-10.517,-0.069l0.002,-0.016l-0.004,0.032l0.002,-0.016Zm10.51,0.016l-0.004,-0.031l0.002,0.015l0.002,0.016Zm-10.503,-0.067l0.002,-0.019l-0.004,0.033l0.002,-0.014Zm10.496,0.013l-0.004,-0.031l0.002,0.018l0.002,0.013Zm-10.49,-0.064l0.003,-0.022l-0.004,0.033l0.001,-0.011Zm10.483,0.011l-0.004,-0.032l0.003,0.021l0.001,0.011Zm-10.477,-0.062l0.003,-0.026l-0.004,0.035l0.001,-0.009Zm10.471,0.008l-0.004,-0.032l0.003,0.024l0.001,0.008Zm-10.465,-0.059l0.004,-0.031l-0.005,0.037l0.001,-0.006Zm10.459,0.006l-0.005,-0.035l0.004,0.029l0.001,0.006Zm-10.453,-0.057l0.005,-0.041l-0.005,0.045l0,-0.004Zm10.446,0.004l-0.004,-0.042l0.004,0.038l0,0.004Zm-10.434,-0.11l-0.001,0.003l0,0l0,-0.001l0.001,-0.002Zm10.422,0.001l-0.005,-0.052l0,0.003l0.005,0.049Zm-10.412,-0.101l0.001,-0.005l-0.005,0.041l0.004,-0.036Zm10.405,0.033l-0.004,-0.038l0.001,0.005l0.003,0.033Zm-10.4,-0.084l0.001,-0.008l-0.004,0.037l0.003,-0.029Zm10.395,0.027l-0.004,-0.034l0.001,0.007l0.003,0.027Zm-10.39,-0.078l0.001,-0.01l-0.003,0.034l0.002,-0.024Zm10.384,0.023l-0.003,-0.033l0.001,0.01l0.002,0.023Zm-10.379,-0.075l0.001,-0.012l-0.003,0.034l0.002,-0.022Zm10.374,0.02l-0.003,-0.032l0.001,0.012l0.002,0.02Zm-10.369,-0.071l0.001,-0.015l-0.003,0.033l0.002,-0.018Zm10.364,0.017l-0.003,-0.031l0.001,0.014l0.002,0.017Zm-10.36,-0.068l0.002,-0.018l-0.003,0.033l0.001,-0.015Zm10.355,0.014l-0.002,-0.031l0.001,0.017l0.001,0.014Zm-10.351,-0.066l0.002,-0.021l-0.003,0.034l0.001,-0.013Zm10.347,0.013l-0.003,-0.032l0.002,0.019l0.001,0.013Zm-10.342,-0.064l0.001,-0.024l-0.002,0.035l0.001,-0.011Zm10.337,0.01l-0.002,-0.033l0.001,0.023l0.001,0.01Zm-10.333,-0.062l0.002,-0.028l-0.003,0.037l0.001,-0.009Zm10.329,0.008l-0.003,-0.034l0.002,0.026l0.001,0.008Zm-10.326,-0.059l0.003,-0.035l-0.003,0.041l0,-0.006Zm10.322,0.006l-0.003,-0.038l0.003,0.032l0,0.006Zm-0.004,-0.054l-0.003,-0.049l0.003,0.045l0,0.004Zm-10.31,-0.055l0,0.001l-0.001,0.004l0.001,-0.003l0,-0.002Zm0.006,-0.103l0.001,-0.005l-0.004,0.053l0.003,-0.048Zm10.296,0.041l-0.003,-0.045l0.001,0.004l0.002,0.041Zm-10.292,-0.093l0,-0.006l-0.002,0.04l0.002,-0.034Zm10.288,0.031l-0.002,-0.037l0,0.006l0.002,0.031Zm-10.285,-0.082l0,-0.009l-0.002,0.037l0.002,-0.028Zm10.282,0.026l-0.002,-0.035l0,0.009l0.002,0.026Zm-10.28,-0.078l0.001,-0.011l-0.002,0.035l0.001,-0.024Zm10.277,0.023l-0.002,-0.033l0.001,0.01l0.001,0.023Zm-10.274,-0.074l0.001,-0.014l-0.002,0.034l0.001,-0.02Zm10.271,0.019l-0.002,-0.032l0.001,0.013l0.001,0.019Zm-10.269,-0.071l0.001,-0.017l-0.001,0.035l0,-0.018Zm10.266,0.017l-0.001,-0.033l0.001,0.016l0,0.017Zm-10.263,-0.069l0.001,-0.019l-0.002,0.035l0.001,-0.016Zm10.261,0.015l-0.002,-0.033l0.001,0.018l0.001,0.015Zm-10.259,-0.066l0.001,-0.023l-0.002,0.035l0.001,-0.012Zm10.257,0.012l-0.002,-0.033l0.001,0.021l0.001,0.012Zm-10.255,-0.064l0.001,-0.026l-0.001,0.036l0,-0.01Zm10.252,0.01l-0.001,-0.034l0.001,0.024l0,0.01Zm-10.25,-0.062l0.001,-0.031l-0.001,0.039l0,-0.008Zm10.248,0.008l-0.001,-0.036l0.001,0.028l0,0.008Zm-10.246,-0.059l0.001,-0.041l-0.002,0.046l0.001,-0.005Zm10.245,0.005l-0.002,-0.041l0.001,0.036l0.001,0.005Zm-0.004,-0.111l0,0.003l0.001,0.002l-0.001,-0.003l0,-0.002Zm-10.238,0.001l0,0.001l-0.001,0.002l0.001,-0.001l0,-0.002Zm0.002,-0.102l0,-0.005l-0.001,0.047l0.001,-0.042Zm10.235,0.038l-0.001,-0.043l0,0.005l0.001,0.038Zm-10.234,-0.09l0,-0.008l-0.001,0.041l0.001,-0.033Zm10.233,0.03l-0.001,-0.037l0,0.007l0.001,0.03Zm-10.232,-0.082l0,-0.01l-0.001,0.037l0.001,-0.027Zm10.231,0.026l-0.001,-0.035l0,0.009l0.001,0.026Zm-10.231,-0.077l0,-0.013l0,0.036l0,-0.023Zm10.23,0.022l0,-0.034l0,0.012l0,0.022Zm-10.229,-0.074l0,-0.015l-0.001,0.035l0.001,-0.02Zm10.228,0.019l0,-0.033l0,0.014l0,0.019Zm-10.228,-0.071l0,-0.018l0,0.035l0,-0.017Zm10.228,0.016l0,-0.033l0,0.017l0,0.016Zm-10.228,-0.068l0,-0.02l0,0.035l0,-0.015Zm10.228,0.014l0,-0.033l0,0.019l0,0.014Zm-10.228,-0.065l0,-0.024l0,0.036l0,-0.012Zm10.228,0.011l0,-0.034l0,0.023l0,0.011Zm-10.228,-0.063l0,-0.028l0,0.037l0,-0.009Zm10.228,0.009l0,-0.036l0,0.027l0,0.009Zm-10.228,-0.061l-0.001,-0.034l0.001,0.041l0,-0.007Zm10.228,0.007l0.001,-0.039l-0.001,0.032l0,0.007Zm-10.229,-0.059l0,-0.047l0,0.052l0,-0.005Zm10.23,0.005l0,-0.048l0,0.043l0,0.005Zm0.001,-0.113l0,0.003l0,0.003l0,-0.002l0,-0.004Zm-10.232,0.004l0,-0.001l-0.001,-0.054l0.001,0.055Zm-0.002,-0.103l0,-0.006l0.001,0.044l-0.001,-0.038Zm10.235,0.036l0.001,-0.042l0,0.006l-0.001,0.036Zm-10.237,-0.088l0,-0.009l0.001,0.04l-0.001,-0.031Zm10.239,0.029l0.001,-0.037l0,0.008l-0.001,0.029Zm-10.24,-0.081l0,-0.011l0.001,0.037l-0.001,-0.026Zm10.241,0.025l0.001,-0.035l0,0.01l-0.001,0.025Zm-10.242,-0.077l-0.001,-0.013l0.001,0.036l0,-0.023Zm10.244,0.022l0.001,-0.035l-0.001,0.013l0,0.022Zm-10.246,-0.073l-0.001,-0.017l0.001,0.036l0,-0.019Zm10.248,0.018l0.001,-0.034l-0.001,0.016l0,0.018Zm-10.25,-0.07l-0.001,-0.019l0.001,0.035l0,-0.016Zm10.252,0.016l0.001,-0.035l-0.001,0.019l0,0.016Zm-10.254,-0.068l-0.001,-0.022l0.001,0.036l0,-0.014Zm10.256,0.013l0.001,-0.035l-0.001,0.022l0,0.013Zm-10.258,-0.065l-0.002,-0.026l0.002,0.037l0,-0.011Zm10.26,0.011l0.001,-0.036l-0.001,0.025l0,0.011Zm-10.263,-0.063l-0.001,-0.03l0.002,0.039l-0.001,-0.009Zm10.265,0.009l0.002,-0.039l-0.001,0.03l-0.001,0.009Zm-10.267,-0.061l-0.002,-0.037l0.002,0.044l0,-0.007Zm10.27,0.007l0.002,-0.044l-0.002,0.037l0,0.007Zm0.006,-0.109l-0.003,0.055l0.003,-0.055l0,0Zm-10.283,-0.02l0.001,0.016l0,-0.003l-0.001,-0.013l-0.002,-0.036l0,0l0.002,0.036Zm9.575,-14.418c-0.796,-1.372 -2.209,-2.341 -3.859,-2.525l0,-3.48c2.542,-0.083 4.944,-0.721 7.089,-1.796c-2.159,-1.501 -4.805,-2.386 -7.663,-2.386c-2.858,0 -5.504,0.885 -7.663,2.386c2.145,1.075 4.547,1.713 7.089,1.796l0,3.48c-1.65,0.184 -3.063,1.153 -3.859,2.525l-0.002,0.003l-0.001,0.003c-0.79,1.375 -0.923,3.083 -0.258,4.604l-3.013,1.74c-1.343,-2.159 -3.097,-3.92 -5.1,-5.241c-0.221,2.62 0.336,5.354 1.765,7.829c1.429,2.475 3.518,4.325 5.898,5.444c-0.142,-2.396 -0.791,-4.795 -1.989,-7.037l3.013,-1.74c0.985,1.336 2.531,2.076 4.116,2.079l0.004,0l0.004,0c1.585,-0.003 3.131,-0.743 4.116,-2.079l3.013,1.74c-1.198,2.242 -1.847,4.641 -1.989,7.037c2.38,-1.119 4.469,-2.969 5.898,-5.444c1.429,-2.475 1.986,-5.209 1.765,-7.829c-2.003,1.321 -3.757,3.082 -5.1,5.241l-3.013,-1.74c0.665,-1.521 0.532,-3.229 -0.258,-4.604l-0.001,-0.003l-0.002,-0.003Zm8.416,1.081l-0.011,0.008l-0.031,0.02l0,0l0.031,-0.02l0.013,-0.009l-0.002,0.001Zm-25.703,-0.003l0,0l-0.046,-0.03l0.046,0.03Zm25.794,-0.056l-0.032,0.02l0.038,-0.024l-0.006,0.004Zm-25.885,-0.004l0.036,0.024l-0.031,-0.02l-0.005,-0.004Zm25.929,-0.024l-0.026,0.016l0.033,-0.021l-0.007,0.005Zm-25.975,-0.005l0.032,0.021l-0.025,-0.016l-0.007,-0.005Zm26.018,-0.023l-0.021,0.014l0.031,-0.02l-0.01,0.006Zm-26.064,-0.006l0.031,0.019l-0.021,-0.013l-0.01,-0.006Zm26.108,-0.022l-0.018,0.012l0.03,-0.019l-0.012,0.007Zm-26.154,-0.007l0.03,0.019l-0.018,-0.012l-0.012,-0.007Zm26.198,-0.021l-0.016,0.01l0.03,-0.018l-0.014,0.008Zm-26.244,-0.008l0.029,0.018l-0.015,-0.01l-0.014,-0.008Zm26.288,-0.019l-0.014,0.008l0.03,-0.018l-0.016,0.01Zm-26.334,-0.01l0.029,0.018l-0.013,-0.008l-0.016,-0.01Zm26.378,-0.018l-0.011,0.007l0.03,-0.018l-0.019,0.011Zm-26.424,-0.011l0.029,0.018l-0.011,-0.007l-0.018,-0.011Zm26.468,-0.016l-0.009,0.006l0.031,-0.019l-0.022,0.013Zm-26.515,-0.013l0.03,0.019l-0.009,-0.006l-0.021,-0.013Zm26.559,-0.014l-0.007,0.004l0.034,-0.02l-0.027,0.016Zm-26.607,-0.015l0.032,0.019l-0.007,-0.004l-0.025,-0.015Zm26.652,-0.012l-0.006,0.003l0.038,-0.023l-0.032,0.02Zm-26.703,-0.019l0.036,0.022l-0.005,-0.003l-0.031,-0.019Zm26.79,-0.034l-0.046,0.028l0.047,-0.028l-0.001,0Zm-26.848,-0.001l0.001,0.001l0.003,0.002l-0.002,-0.002l-0.002,-0.001Zm26.938,-0.053l-0.04,0.024l0.045,-0.026l-0.005,0.002Zm-27.03,-0.002l0.041,0.024l-0.037,-0.022l-0.004,-0.002Zm27.075,-0.024l-0.029,0.017l0.035,-0.021l-0.006,0.004Zm-27.122,-0.003l0.033,0.019l-0.027,-0.016l-0.006,-0.003Zm27.167,-0.023l-0.024,0.014l0.032,-0.019l-0.008,0.005Zm-27.214,-0.005l0.031,0.018l-0.023,-0.013l-0.008,-0.005Zm27.259,-0.021l-0.021,0.012l0.031,-0.018l-0.01,0.006Zm-27.305,-0.006l0.029,0.017l-0.02,-0.011l-0.009,-0.006Zm27.349,-0.02l-0.017,0.01l0.03,-0.017l-0.013,0.007Zm-27.396,-0.007l0.029,0.017l-0.017,-0.01l-0.012,-0.007Zm27.441,-0.019l-0.015,0.009l0.03,-0.017l-0.015,0.008Zm-27.488,-0.008l0.028,0.016l-0.014,-0.008l-0.014,-0.008Zm27.533,-0.018l-0.013,0.008l0.031,-0.017l-0.018,0.009Zm-27.581,-0.009l0.029,0.017l-0.012,-0.008l-0.017,-0.009Zm27.626,-0.016l-0.01,0.006l0.031,-0.017l-0.021,0.011Zm-27.673,-0.011l0.029,0.017l-0.01,-0.006l-0.019,-0.011Zm27.719,-0.014l-0.009,0.005l0.032,-0.018l-0.023,0.013Zm-27.768,-0.013l0.031,0.017l-0.009,-0.004l-0.022,-0.013Zm27.813,-0.013l-0.007,0.004l0.035,-0.019l-0.028,0.015Zm-27.862,-0.014l0.032,0.018l-0.006,-0.004l-0.026,-0.014Zm27.907,-0.011l-0.005,0.003l0.042,-0.023l-0.037,0.02Zm-27.959,-0.018l0.037,0.021l-0.004,-0.003l-0.033,-0.018Zm-0.06,-0.033l0.002,0.002l0.002,0.001l-0.002,-0.001l-0.002,-0.002Zm28.112,0.001l-0.002,0.001l-0.001,0l0.001,0l0.002,-0.001Zm0.089,-0.048l-0.036,0.019l0.041,-0.022l-0.005,0.003Zm-28.294,-0.003l0.036,0.02l-0.032,-0.017l-0.004,-0.003Zm28.339,-0.022l-0.027,0.015l0.034,-0.018l-0.007,0.003Zm-28.387,-0.003l0.032,0.017l-0.025,-0.014l-0.007,-0.003Zm28.433,-0.021l-0.023,0.012l0.032,-0.017l-0.009,0.005Zm-28.48,-0.004l0.03,0.015l-0.022,-0.011l-0.008,-0.004Zm28.526,-0.02l-0.02,0.01l0.031,-0.016l-0.011,0.006Zm-28.574,-0.006l0.029,0.016l-0.019,-0.01l-0.01,-0.006Zm28.62,-0.018l-0.018,0.009l0.031,-0.016l-0.013,0.007Zm-28.668,-0.007l0.029,0.015l-0.017,-0.008l-0.012,-0.007Zm28.713,-0.017l-0.014,0.008l0.03,-0.016l-0.016,0.008Zm-28.761,-0.007l0.028,0.014l-0.013,-0.007l-0.015,-0.007Zm28.807,-0.016l-0.012,0.006l0.031,-0.016l-0.019,0.01Zm-28.856,-0.009l0.029,0.015l-0.011,-0.006l-0.018,-0.009Zm28.902,-0.015l-0.01,0.005l0.032,-0.016l-0.022,0.011Zm-28.95,-0.01l0.029,0.015l-0.009,-0.005l-0.02,-0.01Zm28.996,-0.013l-0.008,0.004l0.034,-0.017l-0.026,0.013Zm-29.046,-0.012l0.031,0.016l-0.007,-0.004l-0.024,-0.012Zm29.093,-0.011l-0.006,0.003l0.036,-0.019l-0.03,0.016Zm-29.143,-0.014l0.033,0.016l-0.006,-0.002l-0.027,-0.014Zm29.189,-0.01l-0.004,0.002l0.047,-0.023l-0.043,0.021Zm-29.245,-0.018l0.041,0.02l-0.004,-0.002l-0.037,-0.018Zm29.342,-0.03l-0.003,0.002l-0.002,0.001l0.001,-0.001l0.004,-0.002Zm-29.447,-0.022l0.044,0.022l-0.041,-0.02l-0.003,-0.002Zm29.535,-0.02l-0.032,0.015l0.038,-0.018l-0.006,0.003Zm-29.583,-0.003l0.034,0.016l-0.029,-0.013l-0.005,-0.003Zm29.63,-0.02l-0.026,0.013l0.033,-0.017l-0.007,0.004Zm-29.679,-0.003l0.031,0.015l-0.024,-0.012l-0.007,-0.003Zm29.725,-0.019l-0.022,0.01l0.032,-0.015l-0.01,0.005Zm-29.773,-0.004l0.029,0.014l-0.02,-0.01l-0.009,-0.004Zm29.82,-0.018l-0.019,0.009l0.031,-0.015l-0.012,0.006Zm-29.869,-0.005l0.029,0.013l-0.018,-0.008l-0.011,-0.005Zm29.916,-0.017l-0.017,0.007l0.031,-0.014l-0.014,0.007Zm-29.965,-0.006l0.029,0.013l-0.016,-0.007l-0.013,-0.006Zm30.011,-0.016l-0.013,0.006l0.03,-0.014l-0.017,0.008Zm-30.06,-0.007l0.029,0.013l-0.013,-0.006l-0.016,-0.007Zm30.107,-0.015l-0.011,0.006l0.031,-0.014l-0.02,0.008Zm-30.156,-0.008l0.029,0.013l-0.011,-0.005l-0.018,-0.008Zm30.203,-0.013l-0.009,0.004l0.031,-0.014l-0.022,0.01Zm-30.253,-0.01l0.03,0.014l-0.009,-0.004l-0.021,-0.01Zm30.3,-0.012l-0.007,0.004l0.033,-0.015l-0.026,0.011Zm-30.351,-0.011l0.032,0.015l-0.007,-0.004l-0.025,-0.011Zm30.398,-0.01l-0.005,0.003l0.038,-0.017l-0.033,0.014Zm-30.45,-0.013l0.035,0.015l-0.005,-0.002l-0.03,-0.013Zm-0.062,-0.028l0.048,0.021l-0.003,-0.001l-0.045,-0.02Zm30.606,-0.001l-0.001,0.001l-0.001,0l0.002,-0.001l0,0Zm0.095,-0.041l-0.038,0.016l0.042,-0.018l-0.004,0.002Zm-30.801,-0.002l0.038,0.017l-0.035,-0.015l-0.003,-0.002Zm30.848,-0.019l-0.028,0.012l0.034,-0.014l-0.006,0.002Zm-30.898,-0.002l0.033,0.014l-0.027,-0.012l-0.006,-0.002Zm30.945,-0.018l-0.023,0.01l0.031,-0.014l-0.008,0.004Zm-30.994,-0.004l0.03,0.014l-0.022,-0.01l-0.008,-0.004Zm31.042,-0.016l-0.021,0.008l0.031,-0.013l-0.01,0.005Zm-31.092,-0.005l0.03,0.013l-0.02,-0.008l-0.01,-0.005Zm31.139,-0.015l-0.017,0.007l0.03,-0.013l-0.013,0.006Zm-31.188,-0.006l0.029,0.013l-0.017,-0.007l-0.012,-0.006Zm31.236,-0.014l-0.015,0.006l0.029,-0.013l-0.014,0.007Zm-31.286,-0.006l0.029,0.012l-0.015,-0.006l-0.014,-0.006Zm31.333,-0.014l-0.012,0.005l0.029,-0.012l-0.017,0.007Zm-31.383,-0.007l0.029,0.012l-0.012,-0.005l-0.017,-0.007Zm31.431,-0.013l-0.011,0.004l0.03,-0.012l-0.019,0.008Zm-31.481,-0.008l0.029,0.012l-0.01,-0.004l-0.019,-0.008Zm31.529,-0.011l-0.009,0.003l0.031,-0.013l-0.022,0.01Zm-31.58,-0.009l0.031,0.012l-0.009,-0.003l-0.022,-0.009Zm31.627,-0.011l-0.006,0.003l0.033,-0.013l-0.027,0.01Zm-31.678,-0.01l0.032,0.013l-0.006,-0.003l-0.026,-0.01Zm31.726,-0.009l-0.004,0.002l0.037,-0.015l-0.033,0.013Zm-31.781,-0.013l0.037,0.015l-0.004,-0.002l-0.033,-0.013Zm8.199,-7.315l0.012,0.006l0.033,0.016l0,0l-0.033,-0.016l-0.014,-0.007l0.002,0.001Zm15.421,-0.003l0.001,0l0.048,-0.025l-0.049,0.025Zm-15.518,-0.047l0.034,0.018l-0.04,-0.021l0.006,0.003Zm15.615,-0.002l-0.038,0.019l0.033,-0.017l0.005,-0.002Zm-15.661,-0.021l0.027,0.014l-0.035,-0.018l0.008,0.004Zm15.71,-0.004l-0.034,0.017l0.026,-0.013l0.008,-0.004Zm-15.756,-0.02l0.023,0.012l-0.033,-0.017l0.01,0.005Zm15.804,-0.005l-0.032,0.016l0.022,-0.011l0.01,-0.005Zm-15.85,-0.019l0.019,0.01l-0.031,-0.017l0.012,0.007Zm15.898,-0.006l-0.031,0.016l0.019,-0.01l0.012,-0.006Zm-15.944,-0.018l0.017,0.008l-0.031,-0.016l0.014,0.008Zm15.992,-0.008l-0.03,0.016l0.016,-0.008l0.014,-0.008Zm-16.038,-0.017l0.014,0.008l-0.031,-0.017l0.017,0.009Zm16.086,-0.008l-0.03,0.016l0.014,-0.008l0.016,-0.008Zm-16.132,-0.016l0.012,0.006l-0.031,-0.017l0.019,0.011Zm16.181,-0.01l-0.031,0.016l0.012,-0.006l0.019,-0.01Zm-16.226,-0.015l0.009,0.006l-0.032,-0.018l0.023,0.012Zm16.274,-0.011l-0.031,0.016l0.009,-0.005l0.022,-0.011Zm-16.32,-0.013l0.008,0.004l-0.035,-0.019l0.027,0.015Zm16.37,-0.014l-0.033,0.018l0.007,-0.004l0.026,-0.014Zm-16.415,-0.011l0.005,0.003l-0.039,-0.022l0.034,0.019Zm16.466,-0.018l-0.037,0.021l0.005,-0.003l0.032,-0.018Zm-16.556,-0.032l0.048,0.027l-0.049,-0.027l0.001,0Zm16.616,-0.001l-0.001,0.001l-0.004,0.002l0.003,-0.002l0.002,-0.001Zm-16.708,-0.05l0.041,0.023l-0.045,-0.025l0.004,0.002Zm16.802,-0.002l-0.042,0.023l0.038,-0.021l0.004,-0.002Zm-16.847,-0.023l0.03,0.017l-0.036,-0.021l0.006,0.004Zm16.894,-0.004l-0.034,0.019l0.028,-0.015l0.006,-0.004Zm-16.939,-0.022l0.025,0.014l-0.033,-0.019l0.008,0.005Zm16.986,-0.004l-0.031,0.017l0.023,-0.013l0.008,-0.004Zm-17.031,-0.022l0.021,0.012l-0.031,-0.018l0.01,0.006Zm17.078,-0.005l-0.03,0.017l0.02,-0.012l0.01,-0.005Zm-17.123,-0.021l0.018,0.011l-0.03,-0.018l0.012,0.007Zm17.169,-0.007l-0.028,0.017l0.017,-0.01l0.011,-0.007Zm-17.213,-0.019l0.015,0.009l-0.03,-0.017l0.015,0.008Zm17.26,-0.008l-0.028,0.017l0.014,-0.009l0.014,-0.008Zm-17.305,-0.018l0.013,0.008l-0.03,-0.018l0.017,0.01Zm17.352,-0.009l-0.028,0.016l0.012,-0.007l0.016,-0.009Zm-17.397,-0.017l0.011,0.006l-0.031,-0.018l0.02,0.012Zm17.444,-0.011l-0.029,0.017l0.011,-0.006l0.018,-0.011Zm-17.488,-0.015l0.009,0.005l-0.032,-0.019l0.023,0.014Zm17.536,-0.013l-0.03,0.017l0.008,-0.004l0.022,-0.013Zm-17.581,-0.014l0.007,0.004l-0.034,-0.021l0.027,0.017Zm17.629,-0.015l-0.032,0.019l0.007,-0.004l0.025,-0.015Zm-17.673,-0.012l0.005,0.003l-0.041,-0.025l0.036,0.022Zm17.724,-0.019l-0.036,0.022l0.004,-0.003l0.032,-0.019Zm0.059,-0.036l-0.003,0.001l-0.001,0.002l0.001,-0.002l0.003,-0.001Zm-17.873,0l0.002,0.001l0.001,0.001l-0.001,-0.001l-0.002,-0.001Zm-0.086,-0.053l0.034,0.021l-0.039,-0.024l0.005,0.003Zm18.049,-0.002l-0.035,0.021l0.03,-0.019l0.005,-0.002Zm-18.093,-0.025l0.026,0.017l-0.033,-0.021l0.007,0.004Zm18.138,-0.004l-0.03,0.019l0.024,-0.015l0.006,-0.004Zm-18.182,-0.023l0.022,0.013l-0.031,-0.019l0.009,0.006Zm18.228,-0.006l-0.029,0.018l0.021,-0.012l0.008,-0.006Zm-18.272,-0.022l0.019,0.012l-0.029,-0.019l0.01,0.007Zm18.318,-0.006l-0.028,0.017l0.018,-0.011l0.01,-0.006Zm-18.361,-0.022l0.016,0.011l-0.029,-0.019l0.013,0.008Zm18.406,-0.007l-0.027,0.017l0.015,-0.01l0.012,-0.007Zm-18.45,-0.021l0.014,0.009l-0.029,-0.018l0.015,0.009Zm18.496,-0.009l-0.027,0.018l0.013,-0.009l0.014,-0.009Zm-18.539,-0.019l0.011,0.008l-0.029,-0.019l0.018,0.011Zm18.585,-0.01l-0.028,0.018l0.011,-0.008l0.017,-0.01Zm-18.629,-0.018l0.01,0.007l-0.03,-0.02l0.02,0.013Zm18.674,-0.012l-0.027,0.018l0.009,-0.006l0.018,-0.012Zm-18.717,-0.016l0.008,0.005l-0.031,-0.02l0.023,0.015Zm18.764,-0.014l-0.029,0.019l0.007,-0.005l0.022,-0.014Zm-18.807,-0.014l0.005,0.004l-0.034,-0.023l0.029,0.019Zm18.854,-0.017l-0.031,0.02l0.005,-0.003l0.026,-0.017Zm-18.897,-0.012l0.003,0.003l-0.043,-0.029l0.04,0.026Zm18.949,-0.023l-0.038,0.026l0.003,-0.003l0.035,-0.023Zm-19.039,-0.037l0.002,0.002l0.002,0.001l-0.001,0l-0.003,-0.003Zm19.136,-0.028l-0.04,0.027l0.037,-0.025l0.003,-0.002Zm-19.218,-0.027l0.03,0.02l-0.035,-0.023l0.005,0.003Zm19.262,-0.003l-0.031,0.021l0.027,-0.018l0.004,-0.003Zm-19.304,-0.026l0.023,0.016l-0.03,-0.021l0.007,0.005Zm19.349,-0.004l-0.029,0.019l0.022,-0.015l0.007,-0.004Zm-19.392,-0.025l0.02,0.014l-0.029,-0.02l0.009,0.006Zm19.436,-0.006l-0.027,0.019l0.019,-0.013l0.008,-0.006Zm-19.478,-0.023l0.017,0.011l-0.028,-0.019l0.011,0.008Zm19.523,-0.008l-0.027,0.019l0.016,-0.011l0.011,-0.008Zm-19.566,-0.022l0.015,0.01l-0.028,-0.019l0.013,0.009Zm19.61,-0.008l-0.026,0.018l0.014,-0.01l0.012,-0.008Zm-19.652,-0.021l0.013,0.008l-0.028,-0.019l0.015,0.011Zm19.696,-0.01l-0.026,0.018l0.012,-0.008l0.014,-0.01Zm-19.738,-0.02l0.01,0.007l-0.027,-0.019l0.017,0.012Zm19.782,-0.012l-0.026,0.019l0.01,-0.007l0.016,-0.012Zm-19.824,-0.018l0.008,0.006l-0.028,-0.02l0.02,0.014Zm19.869,-0.013l-0.027,0.019l0.008,-0.006l0.019,-0.013Zm-19.911,-0.017l0.006,0.005l-0.03,-0.022l0.024,0.017Zm19.956,-0.016l-0.028,0.02l0.006,-0.004l0.022,-0.016Zm-19.998,-0.014l0.005,0.003l-0.034,-0.024l0.029,0.021Zm20.045,-0.019l-0.031,0.022l0.004,-0.003l0.027,-0.019Zm0.055,-0.04l-0.043,0.031l0.003,-0.002l0.04,-0.029Zm-20.184,-0.002l0.001,0.001l0.002,0.001l-0.002,-0.001l-0.001,-0.001Zm-0.083,-0.061l0.033,0.025l-0.036,-0.027l0.003,0.002Zm20.355,-0.002l-0.033,0.025l0.03,-0.023l0.003,-0.002Zm-20.396,-0.028l0.025,0.018l-0.03,-0.022l0.005,0.004Zm20.439,-0.004l-0.028,0.021l0.023,-0.017l0.005,-0.004Zm-20.48,-0.027l0.02,0.015l-0.028,-0.02l0.008,0.005Zm20.523,-0.005l-0.026,0.02l0.019,-0.015l0.007,-0.005Zm-20.565,-0.026l0.018,0.013l-0.027,-0.02l0.009,0.007Zm20.608,-0.007l-0.025,0.02l0.017,-0.013l0.008,-0.007Zm-20.649,-0.024l0.015,0.011l-0.026,-0.019l0.011,0.008Zm20.692,-0.008l-0.025,0.019l0.015,-0.011l0.01,-0.008Zm-20.733,-0.023l0.013,0.01l-0.025,-0.02l0.012,0.01Zm20.776,-0.01l-0.025,0.019l0.013,-0.009l0.012,-0.01Zm-20.817,-0.022l0.011,0.009l-0.025,-0.02l0.014,0.011Zm20.86,-0.011l-0.025,0.02l0.011,-0.009l0.014,-0.011Zm-20.901,-0.02l0.009,0.007l-0.025,-0.02l0.016,0.013Zm20.944,-0.013l-0.025,0.02l0.009,-0.007l0.016,-0.013Zm-20.984,-0.019l0.007,0.006l-0.027,-0.02l0.02,0.014Zm21.027,-0.014l-0.026,0.02l0.007,-0.006l0.019,-0.014Zm-21.068,-0.017l0.005,0.004l-0.027,-0.022l0.022,0.018Zm21.112,-0.017l-0.027,0.021l0.005,-0.004l0.022,-0.017Zm-21.153,-0.015l0.004,0.003l-0.031,-0.025l0.027,0.022Zm21.199,-0.022l-0.031,0.025l0.004,-0.003l0.027,-0.022Z"/><path id="Gamma" d="M33.742,69.739c-1.029,-4.275 -3.215,-13.165 -3.597,-14.162c-0.476,-1.243 -1.015,-0.29 -0.995,0.415c0.021,0.704 0.332,1.119 0.332,1.119c0,0 -1.208,-0.589 -0.912,-2.135c0.25,-1.307 1.113,-1.438 1.469,-1.039c0.214,0.239 0.361,0.763 0.417,0.956c0.076,0.264 2.167,8.754 3.514,14.141l-0.001,0.005c2.04,-6.101 4.937,-12.165 6.978,-15.243c1.567,-2.364 2.64,-1.726 3.199,-1.27c0.56,0.456 0.611,0.999 0.611,0.999c0,0 -0.348,-0.539 -0.961,-0.621c-0.576,-0.077 -1.556,0.272 -2.999,2.492c-2.569,3.956 -4.415,8.576 -6.559,14.706c-0.001,0 0,-0.001 0,-0.001c0.391,1.561 0.688,2.728 0.802,3.138c0.905,3.256 -1.661,4.618 -2.153,1.568c-0.18,-1.121 0.188,-2.947 0.855,-5.068Zm-0.509,4.864c-0.065,-0.932 0.764,-3.798 0.764,-3.798c0.121,0.509 0.208,0.88 0.251,1.07c0.316,1.404 0.42,2.436 0.333,2.977c-0.185,1.139 -1.244,1.24 -1.348,-0.249Zm0.509,-4.864l0,0.004l0,-0.005l0,0.001Z" style="stroke:#000;stroke-width:0.24px;stroke-linecap:round;"/></g><g id="Beta-InfectionCard" serif:id="Beta InfectionCard"><path d="M58.793,46.988c-7.418,0.006 -13.436,6.033 -13.43,13.451l0.111,141.12c0.006,7.417 6.033,13.435 13.451,13.429l141.12,-0.111c7.417,-0.006 13.435,-6.033 13.429,-13.45l-0.111,-141.12c-0.006,-7.418 -6.033,-13.436 -13.451,-13.43l-141.119,0.111Z" style="fill:url(#_Linear3);stroke:#00191f;stroke-width:1px;"/><path d="M137.279,144.755c-2.032,-3.337 -3.211,-7.307 -3.211,-11.565c0,-11.807 9.064,-21.397 20.239,-21.43c-9.44,0.031 -17.093,7.704 -17.093,17.15c0,5.435 2.533,10.283 6.483,13.426l0,0l0.042,0.034l-0.042,-0.034c2.857,-2.483 6.588,-3.988 10.667,-3.988c4.079,0 7.809,1.505 10.666,3.988l-0.042,0.034l0.042,-0.034l0,0c3.95,-3.143 6.484,-7.991 6.484,-13.426c0,-9.446 -7.654,-17.119 -17.093,-17.15c11.175,0.033 20.238,9.623 20.238,21.43c0,4.258 -1.179,8.228 -3.211,11.565c3.906,-0.091 7.934,0.873 11.622,3.002c10.225,5.904 13.998,18.547 8.439,28.242c4.693,-8.19 1.875,-18.655 -6.306,-23.378c-4.707,-2.718 -10.172,-2.948 -14.869,-1.099l0,0l-0.05,0.02l0.05,-0.02c0.722,3.716 0.16,7.699 -1.88,11.232c-2.039,3.533 -5.207,6.011 -8.787,7.244l-0.008,-0.054l0.008,0.054l0,0c0.747,4.992 3.679,9.61 8.386,12.327c8.181,4.724 18.652,1.932 23.399,-6.228c-5.616,9.662 -18.452,12.716 -28.678,6.813c-3.688,-2.13 -6.536,-5.136 -8.41,-8.564c-1.874,3.428 -4.723,6.434 -8.411,8.564c-10.225,5.903 -23.062,2.849 -28.677,-6.813c4.746,8.16 15.218,10.952 23.399,6.228c4.706,-2.717 7.638,-7.335 8.385,-12.327l0,0l0.008,-0.054l-0.008,0.054c-3.579,-1.233 -6.747,-3.711 -8.787,-7.244c-2.04,-3.533 -2.602,-7.516 -1.88,-11.232l0.051,0.02l-0.051,-0.02l0,0c-4.696,-1.849 -10.162,-1.619 -14.868,1.099c-8.181,4.723 -10.999,15.188 -6.306,23.378c-5.56,-9.695 -1.786,-22.338 8.439,-28.242c3.688,-2.129 7.715,-3.093 11.621,-3.002Zm11.796,25.14l0.001,-0.004l-0.006,0.039l0.005,-0.035Zm10.582,0.035l-0.005,-0.039l0,0.004l0.005,0.035Zm-10.575,-0.086l0.001,-0.006l-0.005,0.034l0.004,-0.028Zm10.567,0.028l-0.005,-0.034l0.001,0.006l0.004,0.028Zm-10.559,-0.079l0.001,-0.009l-0.005,0.033l0.004,-0.024Zm10.551,0.024l-0.004,-0.032l0.001,0.008l0.003,0.024Zm-10.545,-0.075l0.002,-0.011l-0.004,0.032l0.002,-0.021Zm10.538,0.021l-0.005,-0.032l0.002,0.011l0.003,0.021Zm-10.531,-0.072l0.002,-0.014l-0.004,0.032l0.002,-0.018Zm10.524,0.018l-0.005,-0.031l0.002,0.013l0.003,0.018Zm-10.517,-0.069l0.002,-0.016l-0.004,0.032l0.002,-0.016Zm10.51,0.015l-0.004,-0.031l0.002,0.016l0.002,0.015Zm-10.504,-0.066l0.003,-0.019l-0.004,0.032l0.001,-0.013Zm10.497,0.013l-0.004,-0.031l0.002,0.018l0.002,0.013Zm-10.49,-0.064l0.002,-0.022l-0.004,0.033l0.002,-0.011Zm10.483,0.01l-0.004,-0.031l0.003,0.021l0.001,0.01Zm-10.477,-0.061l0.003,-0.026l-0.004,0.034l0.001,-0.008Zm10.471,0.008l-0.004,-0.033l0.003,0.025l0.001,0.008Zm-10.465,-0.06l0.003,-0.03l-0.004,0.037l0.001,-0.007Zm10.458,0.007l-0.004,-0.036l0.003,0.029l0.001,0.007Zm-10.452,-0.058l0.004,-0.04l-0.005,0.045l0.001,-0.005Zm10.446,0.004l-0.005,-0.041l0.005,0.037l0,0.004Zm-10.435,-0.109l0,0.002l0,0.001l0,-0.001l0,-0.002Zm10.423,0l-0.005,-0.052l0,0.003l0.005,0.049Zm-10.412,-0.1l0,-0.006l-0.004,0.041l0.004,-0.035Zm10.405,0.033l-0.004,-0.038l0.001,0.005l0.003,0.033Zm-10.4,-0.084l0.001,-0.008l-0.004,0.036l0.003,-0.028Zm10.394,0.027l-0.003,-0.035l0.001,0.008l0.002,0.027Zm-10.389,-0.079l0.001,-0.01l-0.004,0.035l0.003,-0.025Zm10.384,0.023l-0.003,-0.032l0.001,0.009l0.002,0.023Zm-10.379,-0.074l0.001,-0.013l-0.003,0.034l0.002,-0.021Zm10.374,0.02l-0.003,-0.032l0.001,0.012l0.002,0.02Zm-10.37,-0.071l0.002,-0.016l-0.003,0.034l0.001,-0.018Zm10.365,0.017l-0.003,-0.032l0.001,0.015l0.002,0.017Zm-10.36,-0.069l0.001,-0.018l-0.003,0.034l0.002,-0.016Zm10.355,0.015l-0.003,-0.032l0.002,0.017l0.001,0.015Zm-10.351,-0.066l0.002,-0.021l-0.003,0.034l0.001,-0.013Zm10.346,0.012l-0.002,-0.032l0.001,0.02l0.001,0.012Zm-10.342,-0.064l0.002,-0.024l-0.003,0.035l0.001,-0.011Zm10.338,0.011l-0.003,-0.033l0.002,0.022l0.001,0.011Zm-10.334,-0.062l0.002,-0.029l-0.002,0.037l0,-0.008Zm10.33,0.008l-0.003,-0.034l0.002,0.026l0.001,0.008Zm-10.326,-0.06l0.003,-0.035l-0.003,0.042l0,-0.007Zm10.322,0.006l-0.003,-0.037l0.002,0.031l0.001,0.006Zm-0.004,-0.054l-0.004,-0.048l0.003,0.045l0.001,0.003Zm-10.31,-0.055l-0.001,0.001l0,0.005l0,-0.004l0.001,-0.002Zm0.006,-0.103l0,-0.004l-0.003,0.052l0.003,-0.048Zm10.296,0.042l-0.003,-0.045l0,0.003l0.003,0.042Zm-10.293,-0.093l0.001,-0.007l-0.003,0.041l0.002,-0.034Zm10.289,0.031l-0.002,-0.037l0,0.006l0.002,0.031Zm-10.286,-0.083l0.001,-0.009l-0.002,0.037l0.001,-0.028Zm10.283,0.026l-0.002,-0.034l0,0.008l0.002,0.026Zm-10.28,-0.077l0.001,-0.012l-0.002,0.036l0.001,-0.024Zm10.277,0.022l-0.002,-0.033l0,0.011l0.002,0.022Zm-10.274,-0.074l0,-0.014l-0.001,0.035l0.001,-0.021Zm10.271,0.02l-0.002,-0.033l0.001,0.013l0.001,0.02Zm-10.269,-0.071l0.001,-0.017l-0.002,0.034l0.001,-0.017Zm10.266,0.016l-0.001,-0.032l0,0.016l0.001,0.016Zm-10.264,-0.068l0.001,-0.019l-0.001,0.034l0,-0.015Zm10.262,0.014l-0.002,-0.032l0.001,0.018l0.001,0.014Zm-10.259,-0.066l0.001,-0.022l-0.002,0.035l0.001,-0.013Zm10.256,0.012l-0.001,-0.033l0.001,0.021l0,0.012Zm-10.254,-0.063l0.001,-0.027l-0.002,0.037l0.001,-0.01Zm10.252,0.009l-0.001,-0.034l0.001,0.025l0,0.009Zm-10.25,-0.061l0.001,-0.031l-0.002,0.039l0.001,-0.008Zm10.248,0.007l-0.001,-0.036l0.001,0.029l0,0.007Zm-10.247,-0.059l0.001,-0.04l-0.001,0.046l0,-0.006Zm10.245,0.005l-0.001,-0.041l0.001,0.036l0,0.005Zm-0.003,-0.11l0,0.002l0,0.003l0,-0.003l0,-0.002Zm-10.239,0.001l0,0.001l0,0.002l0,-0.002l0,-0.001Zm0.003,-0.103l0,-0.005l-0.001,0.048l0.001,-0.043Zm10.235,0.038l-0.001,-0.042l0,0.004l0.001,0.038Zm-10.234,-0.089l0,-0.008l-0.001,0.04l0.001,-0.032Zm10.232,0.03l0,-0.037l0,0.007l0,0.03Zm-10.232,-0.082l0,-0.01l0,0.037l0,-0.027Zm10.231,0.025l0,-0.034l0,0.009l0,0.025Zm-10.23,-0.077l0,-0.012l0,0.035l0,-0.023Zm10.23,0.022l-0.001,-0.034l0,0.012l0.001,0.022Zm-10.23,-0.073l0,-0.016l0,0.035l0,-0.019Zm10.229,0.018l0,-0.033l0,0.015l0,0.018Zm-10.228,-0.07l0,-0.018l0,0.035l0,-0.017Zm10.228,0.016l0,-0.033l0,0.017l0,0.016Zm-10.228,-0.068l0,-0.021l0,0.035l0,-0.014Zm10.228,0.014l0,-0.034l0,0.02l0,0.014Zm-10.228,-0.066l0,-0.024l0,0.036l0,-0.012Zm10.228,0.012l0,-0.035l0,0.023l0,0.012Zm-10.228,-0.064l0,-0.028l0,0.038l0,-0.01Zm10.228,0.009l0,-0.035l0,0.026l0,0.009Zm-10.229,-0.06l0,-0.035l0,0.042l0,-0.007Zm10.229,0.006l0,-0.038l0,0.032l0,0.006Zm-10.229,-0.058l-0.001,-0.047l0.001,0.052l0,-0.005Zm10.229,0.004l0.001,-0.047l0,0.043l-0.001,0.004Zm0.002,-0.112l0,0.003l0,0.002l0,-0.002l0,-0.003Zm-10.233,0.003l0,0l-0.001,-0.055l0.001,0.055Zm-0.002,-0.103l0,-0.006l0.001,0.045l-0.001,-0.039Zm10.236,0.037l0.001,-0.042l0,0.005l-0.001,0.037Zm-10.237,-0.088l0,-0.009l0.001,0.039l-0.001,-0.03Zm10.239,0.029l0,-0.038l0,0.009l0,0.029Zm-10.24,-0.081l-0.001,-0.011l0.001,0.037l0,-0.026Zm10.241,0.025l0.001,-0.036l0,0.011l-0.001,0.025Zm-10.243,-0.077l0,-0.014l0.001,0.036l-0.001,-0.022Zm10.245,0.021l0.001,-0.034l-0.001,0.013l0,0.021Zm-10.247,-0.073l0,-0.016l0.001,0.035l-0.001,-0.019Zm10.248,0.019l0.001,-0.035l0,0.016l-0.001,0.019Zm-10.249,-0.071l-0.001,-0.019l0.001,0.036l0,-0.017Zm10.251,0.016l0.002,-0.034l-0.001,0.018l-0.001,0.016Zm-10.253,-0.068l-0.001,-0.022l0.001,0.036l0,-0.014Zm10.255,0.014l0.002,-0.035l-0.001,0.021l-0.001,0.014Zm-10.258,-0.065l-0.001,-0.026l0.002,0.037l-0.001,-0.011Zm10.261,0.011l0.001,-0.037l-0.001,0.026l0,0.011Zm-10.263,-0.063l-0.001,-0.031l0.001,0.04l0,-0.009Zm10.265,0.008l0.002,-0.038l-0.002,0.03l0,0.008Zm-10.268,-0.06l-0.001,-0.038l0.002,0.044l-0.001,-0.006Zm10.271,0.006l0.002,-0.043l-0.002,0.037l0,0.006Zm0.005,-0.108l-0.003,0.054l0.003,-0.055l0,0.001Zm-10.282,-0.02l0.001,0.015l0,-0.002l-0.001,-0.013l-0.002,-0.036l0,0l0.002,0.036Zm9.574,-14.419c-0.795,-1.371 -2.209,-2.34 -3.858,-2.525l0,-3.479c2.541,-0.084 4.943,-0.722 7.089,-1.796c-2.159,-1.502 -4.805,-2.386 -7.663,-2.386c-2.858,0 -5.505,0.884 -7.664,2.386c2.146,1.074 4.548,1.712 7.089,1.796l0,3.479c-1.649,0.185 -3.063,1.154 -3.858,2.525l-0.002,0.003l-0.002,0.004c-0.79,1.374 -0.922,3.083 -0.257,4.604l-3.013,1.739c-1.344,-2.159 -3.097,-3.92 -5.101,-5.241c-0.22,2.621 0.337,5.355 1.766,7.83c1.429,2.475 3.518,4.325 5.898,5.444c-0.142,-2.396 -0.791,-4.795 -1.989,-7.038l3.013,-1.739c0.984,1.336 2.531,2.075 4.116,2.078l0.004,0l0.003,0c1.586,-0.003 3.132,-0.742 4.116,-2.078l3.013,1.739c-1.198,2.243 -1.846,4.642 -1.988,7.038c2.379,-1.119 4.469,-2.969 5.898,-5.444c1.429,-2.475 1.986,-5.209 1.765,-7.83c-2.004,1.321 -3.757,3.082 -5.1,5.241l-3.013,-1.739c0.665,-1.521 0.532,-3.23 -0.258,-4.604l-0.002,-0.004l-0.002,-0.003Zm8.416,1.082l-0.011,0.007l-0.03,0.02l0,0l0.03,-0.02l0.013,-0.008l-0.002,0.001Zm-25.702,-0.003l0,-0.001l-0.046,-0.03l0.046,0.031Zm25.794,-0.056l-0.032,0.02l0.037,-0.024l-0.005,0.004Zm-25.886,-0.004l0.037,0.024l-0.031,-0.02l-0.006,-0.004Zm25.929,-0.025l-0.025,0.017l0.033,-0.021l-0.008,0.004Zm-25.974,-0.004l0.032,0.021l-0.025,-0.017l-0.007,-0.004Zm26.018,-0.024l-0.021,0.014l0.031,-0.02l-0.01,0.006Zm-26.064,-0.005l0.03,0.019l-0.021,-0.014l-0.009,-0.005Zm26.108,-0.022l-0.019,0.011l0.031,-0.019l-0.012,0.008Zm-26.154,-0.008l0.03,0.019l-0.019,-0.011l-0.011,-0.008Zm26.198,-0.02l-0.016,0.01l0.03,-0.019l-0.014,0.009Zm-26.244,-0.009l0.029,0.019l-0.015,-0.01l-0.014,-0.009Zm26.288,-0.019l-0.014,0.009l0.03,-0.019l-0.016,0.01Zm-26.334,-0.009l0.029,0.018l-0.013,-0.009l-0.016,-0.009Zm26.378,-0.018l-0.012,0.007l0.031,-0.019l-0.019,0.012Zm-26.425,-0.011l0.03,0.018l-0.011,-0.007l-0.019,-0.011Zm26.469,-0.016l-0.009,0.005l0.031,-0.019l-0.022,0.014Zm-26.516,-0.013l0.031,0.018l-0.01,-0.005l-0.021,-0.013Zm26.56,-0.015l-0.007,0.005l0.033,-0.02l-0.026,0.015Zm-26.608,-0.015l0.032,0.02l-0.007,-0.005l-0.025,-0.015Zm26.652,-0.012l-0.005,0.004l0.038,-0.023l-0.033,0.019Zm-26.702,-0.018l0.036,0.022l-0.005,-0.004l-0.031,-0.018Zm26.79,-0.035l-0.047,0.029l0.048,-0.029l-0.001,0Zm-26.849,-0.001l0.002,0.001l0.003,0.002l-0.003,-0.002l-0.002,-0.001Zm26.939,-0.052l-0.04,0.024l0.044,-0.027l-0.004,0.003Zm-27.031,-0.002l0.041,0.024l-0.037,-0.022l-0.004,-0.002Zm27.076,-0.024l-0.03,0.017l0.036,-0.021l-0.006,0.004Zm-27.122,-0.004l0.033,0.02l-0.027,-0.016l-0.006,-0.004Zm27.167,-0.023l-0.025,0.015l0.033,-0.019l-0.008,0.004Zm-27.214,-0.004l0.031,0.018l-0.023,-0.014l-0.008,-0.004Zm27.258,-0.022l-0.02,0.012l0.031,-0.018l-0.011,0.006Zm-27.305,-0.005l0.03,0.017l-0.02,-0.012l-0.01,-0.005Zm27.35,-0.021l-0.018,0.011l0.031,-0.018l-0.013,0.007Zm-27.397,-0.006l0.029,0.016l-0.017,-0.01l-0.012,-0.006Zm27.442,-0.019l-0.015,0.008l0.03,-0.017l-0.015,0.009Zm-27.489,-0.008l0.029,0.016l-0.015,-0.008l-0.014,-0.008Zm27.534,-0.018l-0.013,0.007l0.03,-0.017l-0.017,0.01Zm-27.581,-0.009l0.029,0.016l-0.013,-0.007l-0.016,-0.009Zm27.626,-0.016l-0.011,0.006l0.031,-0.018l-0.02,0.012Zm-27.674,-0.011l0.03,0.016l-0.011,-0.005l-0.019,-0.011Zm27.719,-0.015l-0.009,0.005l0.033,-0.018l-0.024,0.013Zm-27.767,-0.012l0.03,0.017l-0.008,-0.005l-0.022,-0.012Zm27.812,-0.013l-0.006,0.004l0.035,-0.02l-0.029,0.016Zm-27.861,-0.014l0.032,0.018l-0.006,-0.004l-0.026,-0.014Zm27.907,-0.011l-0.005,0.003l0.042,-0.023l-0.037,0.02Zm-27.96,-0.018l0.038,0.02l-0.004,-0.002l-0.034,-0.018Zm-0.059,-0.033l0.002,0.001l0.002,0.001l-0.002,-0.001l-0.002,-0.001Zm28.111,0l-0.001,0.001l-0.002,0.001l0.002,-0.001l0.001,-0.001Zm0.089,-0.048l-0.035,0.019l0.04,-0.022l-0.005,0.003Zm-28.294,-0.002l0.037,0.019l-0.032,-0.017l-0.005,-0.002Zm28.34,-0.022l-0.028,0.015l0.035,-0.019l-0.007,0.004Zm-28.387,-0.004l0.032,0.017l-0.026,-0.013l-0.006,-0.004Zm28.433,-0.02l-0.023,0.012l0.032,-0.017l-0.009,0.005Zm-28.481,-0.005l0.03,0.016l-0.021,-0.011l-0.009,-0.005Zm28.526,-0.019l-0.019,0.01l0.031,-0.016l-0.012,0.006Zm-28.574,-0.006l0.03,0.015l-0.019,-0.009l-0.011,-0.006Zm28.62,-0.018l-0.017,0.009l0.031,-0.016l-0.014,0.007Zm-28.668,-0.007l0.029,0.015l-0.016,-0.008l-0.013,-0.007Zm28.714,-0.017l-0.015,0.007l0.031,-0.015l-0.016,0.008Zm-28.762,-0.008l0.029,0.015l-0.014,-0.007l-0.015,-0.008Zm28.808,-0.016l-0.012,0.007l0.031,-0.016l-0.019,0.009Zm-28.856,-0.009l0.029,0.015l-0.012,-0.006l-0.017,-0.009Zm28.902,-0.014l-0.01,0.005l0.032,-0.016l-0.022,0.011Zm-28.951,-0.01l0.03,0.015l-0.01,-0.005l-0.02,-0.01Zm28.997,-0.014l-0.008,0.004l0.033,-0.016l-0.025,0.012Zm-29.046,-0.011l0.031,0.015l-0.008,-0.004l-0.023,-0.011Zm29.092,-0.012l-0.006,0.003l0.037,-0.018l-0.031,0.015Zm-29.143,-0.014l0.034,0.017l-0.006,-0.003l-0.028,-0.014Zm29.189,-0.009l-0.004,0.002l0.047,-0.023l-0.043,0.021Zm-29.244,-0.019l0.04,0.021l-0.003,-0.002l-0.037,-0.019Zm29.342,-0.029l-0.003,0.001l-0.002,0.001l0.001,0l0.004,-0.002Zm-29.447,-0.022l0.043,0.021l-0.04,-0.019l-0.003,-0.002Zm29.535,-0.021l-0.032,0.015l0.038,-0.018l-0.006,0.003Zm-29.584,-0.002l0.034,0.016l-0.028,-0.014l-0.006,-0.002Zm29.63,-0.02l-0.025,0.012l0.033,-0.016l-0.008,0.004Zm-29.678,-0.004l0.031,0.015l-0.024,-0.011l-0.007,-0.004Zm29.725,-0.019l-0.022,0.011l0.032,-0.015l-0.01,0.004Zm-29.774,-0.004l0.03,0.014l-0.021,-0.01l-0.009,-0.004Zm29.821,-0.018l-0.019,0.009l0.031,-0.014l-0.012,0.005Zm-29.87,-0.005l0.03,0.014l-0.018,-0.009l-0.012,-0.005Zm29.916,-0.017l-0.016,0.008l0.031,-0.014l-0.015,0.006Zm-29.964,-0.006l0.028,0.014l-0.015,-0.008l-0.013,-0.006Zm30.011,-0.015l-0.014,0.006l0.031,-0.014l-0.017,0.008Zm-30.06,-0.008l0.028,0.014l-0.013,-0.006l-0.015,-0.008Zm30.107,-0.014l-0.012,0.005l0.031,-0.014l-0.019,0.009Zm-30.157,-0.008l0.029,0.013l-0.01,-0.005l-0.019,-0.008Zm30.204,-0.014l-0.01,0.005l0.032,-0.015l-0.022,0.01Zm-30.253,-0.009l0.029,0.013l-0.008,-0.004l-0.021,-0.009Zm30.3,-0.012l-0.008,0.003l0.034,-0.015l-0.026,0.012Zm-30.351,-0.011l0.031,0.014l-0.006,-0.003l-0.025,-0.011Zm30.398,-0.01l-0.005,0.002l0.037,-0.017l-0.032,0.015Zm-30.45,-0.014l0.034,0.016l-0.004,-0.002l-0.03,-0.014Zm-0.062,-0.027l0.047,0.021l-0.002,-0.001l-0.045,-0.02Zm30.606,-0.001l-0.001,0l-0.002,0.001l0.002,-0.001l0.001,0Zm0.094,-0.042l-0.037,0.017l0.041,-0.019l-0.004,0.002Zm-30.801,-0.001l0.038,0.016l-0.034,-0.015l-0.004,-0.001Zm30.849,-0.019l-0.029,0.012l0.035,-0.015l-0.006,0.003Zm-30.898,-0.003l0.032,0.014l-0.026,-0.011l-0.006,-0.003Zm30.945,-0.018l-0.024,0.011l0.032,-0.014l-0.008,0.003Zm-30.994,-0.003l0.03,0.013l-0.023,-0.01l-0.007,-0.003Zm31.041,-0.017l-0.02,0.009l0.031,-0.013l-0.011,0.004Zm-31.091,-0.004l0.03,0.012l-0.02,-0.008l-0.01,-0.004Zm31.139,-0.016l-0.018,0.007l0.03,-0.012l-0.012,0.005Zm-31.188,-0.005l0.029,0.012l-0.017,-0.007l-0.012,-0.005Zm31.235,-0.015l-0.015,0.006l0.03,-0.012l-0.015,0.006Zm-31.285,-0.006l0.029,0.012l-0.015,-0.006l-0.014,-0.006Zm31.333,-0.014l-0.013,0.006l0.03,-0.013l-0.017,0.007Zm-31.383,-0.007l0.029,0.012l-0.012,-0.005l-0.017,-0.007Zm31.431,-0.012l-0.011,0.004l0.03,-0.012l-0.019,0.008Zm-31.481,-0.008l0.029,0.012l-0.01,-0.004l-0.019,-0.008Zm31.528,-0.012l-0.008,0.004l0.031,-0.013l-0.023,0.009Zm-31.579,-0.009l0.03,0.012l-0.008,-0.003l-0.022,-0.009Zm31.627,-0.01l-0.006,0.002l0.032,-0.013l-0.026,0.011Zm-31.678,-0.011l0.031,0.013l-0.006,-0.002l-0.025,-0.011Zm31.726,-0.008l-0.004,0.001l0.037,-0.015l-0.033,0.014Zm-31.781,-0.013l0.037,0.014l-0.004,-0.001l-0.033,-0.013Zm8.199,-7.316l0.012,0.006l0.032,0.017l0,0l-0.032,-0.017l-0.014,-0.007l0.002,0.001Zm15.421,-0.002l0,-0.001l0.049,-0.024l-0.049,0.025Zm-15.518,-0.047l0.034,0.017l-0.04,-0.02l0.006,0.003Zm15.615,-0.003l-0.039,0.02l0.033,-0.017l0.006,-0.003Zm-15.661,-0.021l0.027,0.014l-0.035,-0.018l0.008,0.004Zm15.709,-0.004l-0.034,0.018l0.027,-0.014l0.007,-0.004Zm-15.755,-0.02l0.022,0.012l-0.032,-0.017l0.01,0.005Zm15.804,-0.005l-0.033,0.017l0.023,-0.012l0.01,-0.005Zm-15.85,-0.019l0.019,0.01l-0.032,-0.016l0.013,0.006Zm15.898,-0.006l-0.031,0.016l0.019,-0.01l0.012,-0.006Zm-15.944,-0.018l0.016,0.009l-0.031,-0.016l0.015,0.007Zm15.992,-0.007l-0.031,0.016l0.017,-0.009l0.014,-0.007Zm-16.038,-0.017l0.014,0.007l-0.031,-0.016l0.017,0.009Zm16.086,-0.009l-0.03,0.016l0.014,-0.007l0.016,-0.009Zm-16.132,-0.016l0.012,0.007l-0.031,-0.017l0.019,0.01Zm16.18,-0.01l-0.03,0.017l0.011,-0.007l0.019,-0.01Zm-16.226,-0.014l0.01,0.005l-0.032,-0.017l0.022,0.012Zm16.275,-0.012l-0.031,0.017l0.009,-0.005l0.022,-0.012Zm-16.32,-0.013l0.007,0.004l-0.034,-0.018l0.027,0.014Zm16.369,-0.014l-0.033,0.018l0.008,-0.004l0.025,-0.014Zm-16.415,-0.011l0.006,0.003l-0.039,-0.021l0.033,0.018Zm16.467,-0.017l-0.037,0.02l0.005,-0.003l0.032,-0.017Zm-16.557,-0.032l0.048,0.026l-0.048,-0.026l0,0Zm16.617,-0.001l-0.002,0.001l-0.003,0.001l0.003,-0.001l0.002,-0.001Zm-16.708,-0.05l0.041,0.023l-0.045,-0.026l0.004,0.003Zm16.801,-0.003l-0.041,0.024l0.037,-0.021l0.004,-0.003Zm-16.846,-0.023l0.03,0.017l-0.036,-0.02l0.006,0.003Zm16.893,-0.003l-0.033,0.019l0.027,-0.016l0.006,-0.003Zm-16.938,-0.022l0.024,0.014l-0.032,-0.019l0.008,0.005Zm16.985,-0.005l-0.031,0.018l0.024,-0.013l0.007,-0.005Zm-17.03,-0.021l0.021,0.012l-0.031,-0.018l0.01,0.006Zm17.077,-0.006l-0.029,0.017l0.019,-0.011l0.01,-0.006Zm-17.122,-0.02l0.018,0.01l-0.03,-0.017l0.012,0.007Zm17.169,-0.007l-0.029,0.017l0.017,-0.01l0.012,-0.007Zm-17.214,-0.019l0.016,0.009l-0.03,-0.018l0.014,0.009Zm17.261,-0.008l-0.028,0.016l0.014,-0.008l0.014,-0.008Zm-17.305,-0.018l0.013,0.007l-0.03,-0.017l0.017,0.01Zm17.352,-0.01l-0.029,0.017l0.013,-0.007l0.016,-0.01Zm-17.397,-0.017l0.011,0.007l-0.031,-0.018l0.02,0.011Zm17.444,-0.011l-0.029,0.017l0.01,-0.006l0.019,-0.011Zm-17.488,-0.015l0.008,0.005l-0.032,-0.019l0.024,0.014Zm17.535,-0.013l-0.029,0.018l0.008,-0.005l0.021,-0.013Zm-17.58,-0.013l0.007,0.003l-0.035,-0.02l0.028,0.017Zm17.629,-0.016l-0.032,0.019l0.006,-0.003l0.026,-0.016Zm-17.673,-0.011l0.004,0.003l-0.04,-0.025l0.036,0.022Zm17.724,-0.02l-0.037,0.022l0.005,-0.002l0.032,-0.02Zm0.058,-0.035l-0.002,0.001l-0.002,0.001l0.002,-0.001l0.002,-0.001Zm-17.872,0l0.001,0.001l0.002,0.001l-0.002,-0.001l-0.001,-0.001Zm-0.087,-0.053l0.035,0.021l-0.039,-0.024l0.004,0.003Zm18.049,-0.003l-0.035,0.022l0.031,-0.019l0.004,-0.003Zm-18.093,-0.024l0.027,0.016l-0.033,-0.021l0.006,0.005Zm18.139,-0.004l-0.03,0.019l0.024,-0.015l0.006,-0.004Zm-18.182,-0.024l0.022,0.014l-0.031,-0.019l0.009,0.005Zm18.228,-0.005l-0.029,0.018l0.021,-0.013l0.008,-0.005Zm-18.272,-0.022l0.019,0.012l-0.03,-0.019l0.011,0.007Zm18.317,-0.007l-0.027,0.018l0.017,-0.011l0.01,-0.007Zm-18.361,-0.021l0.017,0.01l-0.029,-0.018l0.012,0.008Zm18.407,-0.008l-0.027,0.018l0.015,-0.01l0.012,-0.008Zm-18.45,-0.02l0.014,0.009l-0.029,-0.019l0.015,0.01Zm18.496,-0.009l-0.027,0.017l0.013,-0.008l0.014,-0.009Zm-18.54,-0.019l0.012,0.008l-0.029,-0.019l0.017,0.011Zm18.585,-0.011l-0.027,0.018l0.011,-0.007l0.016,-0.011Zm-18.628,-0.017l0.01,0.006l-0.03,-0.019l0.02,0.013Zm18.674,-0.012l-0.028,0.018l0.009,-0.006l0.019,-0.012Zm-18.717,-0.016l0.007,0.005l-0.031,-0.021l0.024,0.016Zm18.763,-0.015l-0.028,0.019l0.007,-0.004l0.021,-0.015Zm-18.806,-0.014l0.005,0.004l-0.034,-0.022l0.029,0.018Zm18.854,-0.017l-0.031,0.021l0.005,-0.004l0.026,-0.017Zm-18.898,-0.011l0.004,0.002l-0.043,-0.029l0.039,0.027Zm18.95,-0.023l-0.038,0.025l0.003,-0.002l0.035,-0.023Zm-19.04,-0.037l0.003,0.002l0.002,0.001l-0.001,-0.001l-0.004,-0.002Zm19.137,-0.028l-0.041,0.027l0.038,-0.025l0.003,-0.002Zm-19.218,-0.027l0.029,0.02l-0.034,-0.024l0.005,0.004Zm19.262,-0.003l-0.031,0.021l0.026,-0.018l0.005,-0.003Zm-19.305,-0.026l0.024,0.016l-0.031,-0.021l0.007,0.005Zm19.35,-0.005l-0.029,0.02l0.022,-0.015l0.007,-0.005Zm-19.392,-0.025l0.02,0.014l-0.029,-0.02l0.009,0.006Zm19.436,-0.005l-0.027,0.018l0.019,-0.013l0.008,-0.005Zm-19.479,-0.024l0.018,0.012l-0.028,-0.019l0.01,0.007Zm19.523,-0.007l-0.026,0.018l0.016,-0.011l0.01,-0.007Zm-19.565,-0.022l0.015,0.01l-0.028,-0.019l0.013,0.009Zm19.61,-0.009l-0.027,0.018l0.014,-0.009l0.013,-0.009Zm-19.652,-0.021l0.012,0.009l-0.027,-0.019l0.015,0.01Zm19.696,-0.01l-0.026,0.018l0.012,-0.008l0.014,-0.01Zm-19.738,-0.02l0.01,0.008l-0.028,-0.02l0.018,0.012Zm19.782,-0.011l-0.026,0.018l0.01,-0.007l0.016,-0.011Zm-19.824,-0.018l0.008,0.006l-0.028,-0.021l0.02,0.015Zm19.869,-0.014l-0.027,0.019l0.008,-0.005l0.019,-0.014Zm-19.911,-0.016l0.006,0.004l-0.03,-0.021l0.024,0.017Zm19.956,-0.016l-0.028,0.02l0.006,-0.004l0.022,-0.016Zm-19.998,-0.015l0.004,0.004l-0.033,-0.024l0.029,0.02Zm20.044,-0.019l-0.03,0.023l0.004,-0.004l0.026,-0.019Zm0.055,-0.04l-0.042,0.031l0.003,-0.002l0.039,-0.029Zm-20.183,-0.001l0.001,0.001l0.001,0.001l-0.001,-0.002l-0.001,0Zm-0.083,-0.061l0.033,0.024l-0.037,-0.027l0.004,0.003Zm20.355,-0.003l-0.034,0.025l0.03,-0.022l0.004,-0.003Zm-20.396,-0.028l0.024,0.019l-0.03,-0.023l0.006,0.004Zm20.439,-0.004l-0.029,0.022l0.024,-0.018l0.005,-0.004Zm-20.481,-0.027l0.021,0.016l-0.028,-0.021l0.007,0.005Zm20.524,-0.005l-0.027,0.02l0.02,-0.015l0.007,-0.005Zm-20.565,-0.026l0.018,0.014l-0.027,-0.02l0.009,0.006Zm20.608,-0.006l-0.026,0.019l0.017,-0.013l0.009,-0.006Zm-20.649,-0.025l0.015,0.012l-0.026,-0.02l0.011,0.008Zm20.692,-0.007l-0.025,0.019l0.014,-0.012l0.011,-0.007Zm-20.733,-0.024l0.013,0.01l-0.026,-0.019l0.013,0.009Zm20.776,-0.009l-0.025,0.019l0.013,-0.01l0.012,-0.009Zm-20.817,-0.022l0.011,0.008l-0.026,-0.019l0.015,0.011Zm20.86,-0.011l-0.025,0.019l0.01,-0.008l0.015,-0.011Zm-20.901,-0.02l0.009,0.006l-0.026,-0.019l0.017,0.013Zm20.944,-0.013l-0.025,0.019l0.008,-0.006l0.017,-0.013Zm-20.985,-0.019l0.007,0.005l-0.026,-0.02l0.019,0.015Zm21.028,-0.015l-0.026,0.02l0.007,-0.005l0.019,-0.015Zm-21.068,-0.017l0.005,0.004l-0.028,-0.021l0.023,0.017Zm21.112,-0.017l-0.027,0.021l0.005,-0.004l0.022,-0.017Zm-21.153,-0.014l0.004,0.002l-0.032,-0.024l0.028,0.022Zm21.199,-0.022l-0.031,0.024l0.003,-0.002l0.028,-0.022Z"/><path id="Beta" d="M59.96,82.249c0,0 1.969,-0.342 3.699,2.015c0.43,0.586 1.185,1.77 0.993,3.827c-0.286,3.067 -1.726,4.763 -3.837,4.916c-2.61,0.191 -3.639,-0.881 -4.13,-1.487c-0.606,-0.748 -0.443,-1.084 -0.443,-1.084c0,0 -0.108,0.712 1.557,1.615c0.652,0.353 6.357,1.618 6.357,-4.709c0,-3.511 -2.73,-4.8 -3.89,-4.705c-2.643,0.215 -2.923,-0.851 -2.923,-0.851c0,0 1.013,1.36 2.832,-0.332c0.976,-0.909 1.589,-2.811 1.347,-3.677c-0.247,-0.888 -0.755,-1.252 -1.255,-1.543c-0.972,-0.563 -2.473,-0.472 -3.512,0.568c-0.718,0.719 -1.428,1.572 -1.491,4.331c-0.141,6.178 0.028,10.017 -0.03,11.181c-0.272,5.415 -2.03,6.339 -2.03,6.339l-0.643,-0.593c0,0 2.1,-1.959 2.02,-6.118c-0.081,-4.159 0.15,-7.839 0.06,-10.448c-0.025,-0.718 -0.47,-5.078 -0.818,-5.522c-0.417,-0.532 -0.699,-0.144 -0.739,0.138c-0.084,0.59 0.492,1.477 0.492,1.477c0,0 -1.226,-0.563 -0.994,-1.698c0.134,-0.659 0.694,-0.656 1.075,-0.522c0.366,0.128 0.537,0.697 0.653,1.188c0.078,0.332 0.612,3.915 0.612,3.915c0,0 0.43,-4.993 3.768,-4.993c2.779,0 3.211,2.383 3.224,2.933c0.068,2.897 -1.954,3.839 -1.954,3.839Z" style="stroke:#000;stroke-width:0.24px;stroke-linecap:round;"/></g><g id="Alfa-InfectionCard" serif:id="Alfa InfectionCard"><path d="M80.787,70.641c-7.418,0.005 -13.435,6.032 -13.429,13.45l0.111,141.12c0.006,7.418 6.033,13.435 13.45,13.43l141.12,-0.111c7.418,-0.006 13.436,-6.033 13.43,-13.451l-0.111,-141.12c-0.006,-7.418 -6.033,-13.435 -13.451,-13.429l-141.12,0.111Z" style="fill:url(#_Linear4);stroke:#00191f;stroke-width:1px;"/><path d="M159.274,168.407c-2.032,-3.337 -3.211,-7.307 -3.211,-11.565c0,-11.807 9.063,-21.397 20.238,-21.429c-9.439,0.031 -17.093,7.703 -17.093,17.15c0,5.435 2.534,10.283 6.484,13.426l0,0l0.042,0.033l-0.042,-0.033c2.857,-2.484 6.587,-3.988 10.666,-3.988c4.08,0 7.81,1.504 10.667,3.988l-0.042,0.033l0.042,-0.033l0,0c3.95,-3.143 6.483,-7.991 6.483,-13.426c0,-9.447 -7.653,-17.119 -17.093,-17.15c11.176,0.032 20.239,9.622 20.239,21.429c0,4.258 -1.179,8.228 -3.211,11.565c3.906,-0.091 7.933,0.873 11.621,3.003c10.225,5.903 13.999,18.547 8.439,28.241c4.693,-8.19 1.875,-18.655 -6.305,-23.378c-4.707,-2.717 -10.173,-2.947 -14.869,-1.098l0,0l-0.051,0.02l0.051,-0.02c0.722,3.716 0.16,7.699 -1.88,11.231c-2.039,3.533 -5.208,6.012 -8.787,7.244l-0.008,-0.053l0.008,0.053l0,0c0.747,4.992 3.679,9.61 8.386,12.328c8.18,4.723 18.652,1.931 23.398,-6.228c-5.615,9.661 -18.452,12.716 -28.677,6.812c-3.688,-2.129 -6.536,-5.135 -8.411,-8.563c-1.874,3.428 -4.722,6.434 -8.41,8.563c-10.225,5.904 -23.062,2.849 -28.678,-6.812c4.747,8.159 15.218,10.951 23.399,6.228c4.707,-2.718 7.639,-7.336 8.386,-12.328l0,0l0.008,-0.054l-0.008,0.054c-3.58,-1.232 -6.748,-3.711 -8.787,-7.244c-2.04,-3.532 -2.602,-7.515 -1.88,-11.231l0.05,0.02l-0.05,-0.02l0,0c-4.697,-1.849 -10.162,-1.619 -14.869,1.098c-8.181,4.723 -10.998,15.188 -6.306,23.378c-5.559,-9.694 -1.786,-22.338 8.44,-28.241c3.687,-2.13 7.715,-3.094 11.621,-3.003Zm11.796,25.141l0.001,-0.005l-0.006,0.04l0.005,-0.035Zm10.582,0.034l-0.006,-0.039l0.001,0.005l0.005,0.034Zm-10.575,-0.085l0.001,-0.007l-0.005,0.035l0.004,-0.028Zm10.567,0.027l-0.005,-0.034l0.001,0.007l0.004,0.027Zm-10.56,-0.078l0.001,-0.009l-0.004,0.033l0.003,-0.024Zm10.552,0.023l-0.005,-0.032l0.002,0.009l0.003,0.023Zm-10.545,-0.074l0.002,-0.012l-0.005,0.033l0.003,-0.021Zm10.537,0.02l-0.004,-0.031l0.002,0.011l0.002,0.02Zm-10.53,-0.072l0.002,-0.013l-0.004,0.032l0.002,-0.019Zm10.523,0.018l-0.004,-0.031l0.002,0.013l0.002,0.018Zm-10.516,-0.069l0.002,-0.016l-0.004,0.032l0.002,-0.016Zm10.509,0.016l-0.004,-0.031l0.002,0.015l0.002,0.016Zm-10.503,-0.067l0.002,-0.019l-0.004,0.033l0.002,-0.014Zm10.496,0.013l-0.004,-0.031l0.003,0.018l0.001,0.013Zm-10.49,-0.064l0.003,-0.022l-0.004,0.033l0.001,-0.011Zm10.484,0.011l-0.004,-0.032l0.002,0.021l0.002,0.011Zm-10.477,-0.062l0.003,-0.026l-0.004,0.035l0.001,-0.009Zm10.47,0.008l-0.004,-0.032l0.003,0.024l0.001,0.008Zm-10.464,-0.059l0.003,-0.031l-0.004,0.037l0.001,-0.006Zm10.458,0.006l-0.004,-0.035l0.003,0.029l0.001,0.006Zm-10.453,-0.057l0.005,-0.041l-0.005,0.045l0,-0.004Zm10.447,0.004l-0.005,-0.042l0.004,0.038l0.001,0.004Zm-10.435,-0.11l0,0.003l0,0l0,-0.001l0,-0.002Zm10.423,0.001l-0.006,-0.052l0.001,0.003l0.005,0.049Zm-10.413,-0.101l0.001,-0.005l-0.004,0.041l0.003,-0.036Zm10.406,0.033l-0.004,-0.038l0,0.005l0.004,0.033Zm-10.4,-0.084l0,-0.008l-0.003,0.037l0.003,-0.029Zm10.394,0.027l-0.003,-0.034l0,0.007l0.003,0.027Zm-10.389,-0.078l0,-0.01l-0.003,0.034l0.003,-0.024Zm10.384,0.023l-0.004,-0.033l0.001,0.01l0.003,0.023Zm-10.38,-0.075l0.001,-0.012l-0.003,0.034l0.002,-0.022Zm10.374,0.02l-0.003,-0.032l0.001,0.012l0.002,0.02Zm-10.369,-0.071l0.001,-0.015l-0.003,0.033l0.002,-0.018Zm10.364,0.017l-0.002,-0.031l0.001,0.014l0.001,0.017Zm-10.36,-0.068l0.002,-0.018l-0.003,0.033l0.001,-0.015Zm10.356,0.014l-0.003,-0.031l0.001,0.017l0.002,0.014Zm-10.351,-0.066l0.001,-0.021l-0.002,0.034l0.001,-0.013Zm10.346,0.013l-0.003,-0.032l0.002,0.019l0.001,0.013Zm-10.342,-0.064l0.002,-0.024l-0.003,0.035l0.001,-0.011Zm10.338,0.01l-0.003,-0.033l0.002,0.023l0.001,0.01Zm-10.334,-0.062l0.002,-0.028l-0.003,0.037l0.001,-0.009Zm10.329,0.008l-0.002,-0.034l0.002,0.026l0,0.008Zm-10.325,-0.059l0.002,-0.035l-0.003,0.041l0.001,-0.006Zm10.321,0.006l-0.002,-0.038l0.002,0.032l0,0.006Zm-0.004,-0.054l-0.003,-0.049l0.003,0.045l0,0.004Zm-10.31,-0.055l0,0.001l0,0.004l0,-0.003l0,-0.002Zm0.007,-0.103l0,-0.005l-0.003,0.053l0.003,-0.048Zm10.296,0.041l-0.003,-0.045l0,0.004l0.003,0.041Zm-10.293,-0.093l0,-0.006l-0.002,0.04l0.002,-0.034Zm10.289,0.031l-0.003,-0.037l0.001,0.006l0.002,0.031Zm-10.286,-0.082l0,-0.009l-0.002,0.037l0.002,-0.028Zm10.282,0.026l-0.002,-0.035l0.001,0.009l0.001,0.026Zm-10.279,-0.078l0,-0.011l-0.002,0.035l0.002,-0.024Zm10.276,0.023l-0.001,-0.033l0,0.01l0.001,0.023Zm-10.274,-0.074l0.001,-0.014l-0.002,0.034l0.001,-0.02Zm10.271,0.019l-0.001,-0.032l0,0.013l0.001,0.019Zm-10.268,-0.071l0.001,-0.017l-0.002,0.035l0.001,-0.018Zm10.266,0.017l-0.002,-0.033l0.001,0.016l0.001,0.017Zm-10.264,-0.069l0.001,-0.019l-0.001,0.035l0,-0.016Zm10.261,0.015l-0.001,-0.033l0.001,0.018l0,0.015Zm-10.259,-0.066l0.001,-0.023l-0.001,0.035l0,-0.012Zm10.257,0.012l-0.001,-0.033l0,0.021l0.001,0.012Zm-10.255,-0.064l0.001,-0.026l-0.001,0.036l0,-0.01Zm10.253,0.01l-0.001,-0.034l0,0.024l0.001,0.01Zm-10.251,-0.062l0.001,-0.031l-0.001,0.039l0,-0.008Zm10.249,0.008l-0.001,-0.036l0.001,0.028l0,0.008Zm-10.247,-0.059l0.001,-0.041l-0.001,0.046l0,-0.005Zm10.245,0.005l-0.001,-0.041l0.001,0.036l0,0.005Zm-0.003,-0.111l0,0.003l0,0.002l0,-0.003l0,-0.002Zm-10.239,0.001l0,0.001l0,0.002l0,-0.001l0,-0.002Zm0.002,-0.102l0,-0.005l-0.001,0.047l0.001,-0.042Zm10.235,0.038l-0.001,-0.043l0.001,0.005l0,0.038Zm-10.234,-0.09l0,-0.008l0,0.041l0,-0.033Zm10.233,0.03l-0.001,-0.037l0.001,0.007l0,0.03Zm-10.232,-0.082l0,-0.01l0,0.037l0,-0.027Zm10.231,0.026l0,-0.035l0,0.009l0,0.026Zm-10.23,-0.077l0,-0.013l-0.001,0.036l0.001,-0.023Zm10.229,0.021l0,-0.033l0,0.012l0,0.021Zm-10.229,-0.073l0,-0.015l0,0.035l0,-0.02Zm10.229,0.019l0,-0.033l0,0.014l0,0.019Zm-10.229,-0.071l0,-0.018l0,0.035l0,-0.017Zm10.229,0.016l-0.001,-0.033l0,0.017l0.001,0.016Zm-10.228,-0.068l0,-0.02l-0.001,0.035l0.001,-0.015Zm10.227,0.014l0,-0.033l0,0.019l0,0.014Zm-10.227,-0.065l-0.001,-0.024l0.001,0.036l0,-0.012Zm10.227,0.011l0,-0.034l0,0.023l0,0.011Zm-10.228,-0.063l0,-0.028l0,0.037l0,-0.009Zm10.228,0.009l0.001,-0.036l-0.001,0.027l0,0.009Zm-10.228,-0.061l0,-0.034l0,0.041l0,-0.007Zm10.229,0.007l0,-0.039l0,0.032l0,0.007Zm-10.229,-0.059l-0.001,-0.047l0.001,0.052l0,-0.005Zm10.229,0.005l0.001,-0.048l-0.001,0.043l0,0.005Zm0.002,-0.113l0,0.003l0,0.003l0,-0.002l0,-0.004Zm-10.233,0.004l0,-0.001l-0.001,-0.054l0.001,0.055Zm-0.002,-0.103l0,-0.006l0.001,0.044l-0.001,-0.038Zm10.236,0.036l0.001,-0.042l0,0.006l-0.001,0.036Zm-10.237,-0.088l0,-0.009l0.001,0.04l-0.001,-0.031Zm10.238,0.029l0.001,-0.037l0,0.008l-0.001,0.029Zm-10.24,-0.081l0,-0.011l0.001,0.037l-0.001,-0.026Zm10.242,0.025l0.001,-0.035l-0.001,0.01l0,0.025Zm-10.243,-0.077l-0.001,-0.013l0.002,0.036l-0.001,-0.023Zm10.244,0.022l0.001,-0.035l0,0.013l-0.001,0.022Zm-10.246,-0.073l0,-0.017l0.001,0.036l-0.001,-0.019Zm10.248,0.018l0.001,-0.034l0,0.016l-0.001,0.018Zm-10.25,-0.07l0,-0.019l0.001,0.035l-0.001,-0.016Zm10.252,0.016l0.001,-0.035l0,0.019l-0.001,0.016Zm-10.254,-0.068l-0.001,-0.022l0.002,0.036l-0.001,-0.014Zm10.256,0.013l0.001,-0.035l0,0.022l-0.001,0.013Zm-10.258,-0.065l-0.001,-0.026l0.002,0.037l-0.001,-0.011Zm10.26,0.011l0.002,-0.036l-0.001,0.025l-0.001,0.011Zm-10.262,-0.063l-0.002,-0.03l0.002,0.039l0,-0.009Zm10.265,0.009l0.002,-0.039l-0.002,0.03l0,0.009Zm-10.268,-0.061l-0.002,-0.037l0.002,0.044l0,-0.007Zm10.27,0.007l0.003,-0.044l-0.002,0.037l-0.001,0.007Zm0.006,-0.109l-0.003,0.055l0.003,-0.055l0,0Zm-10.282,-0.02l0,0.016l0,-0.003l0,-0.013l-0.002,-0.036l-0.001,0l0.003,0.036Zm9.574,-14.418c-0.795,-1.372 -2.209,-2.341 -3.858,-2.525l0,-3.48c2.541,-0.083 4.943,-0.721 7.089,-1.796c-2.159,-1.501 -4.806,-2.386 -7.664,-2.386c-2.858,0 -5.504,0.885 -7.663,2.386c2.146,1.075 4.548,1.713 7.089,1.796l0,3.48c-1.649,0.184 -3.063,1.153 -3.858,2.525l-0.002,0.003l-0.002,0.003c-0.79,1.375 -0.923,3.083 -0.258,4.604l-3.013,1.74c-1.343,-2.159 -3.096,-3.92 -5.1,-5.241c-0.221,2.62 0.337,5.354 1.766,7.829c1.429,2.475 3.518,4.325 5.897,5.444c-0.142,-2.396 -0.79,-4.795 -1.988,-7.037l3.013,-1.74c0.984,1.336 2.53,2.076 4.116,2.079l0.003,0l0.004,0c1.586,-0.003 3.132,-0.743 4.116,-2.079l3.013,1.74c-1.198,2.242 -1.847,4.641 -1.989,7.037c2.38,-1.119 4.469,-2.969 5.898,-5.444c1.429,-2.475 1.987,-5.209 1.766,-7.829c-2.004,1.321 -3.757,3.082 -5.1,5.241l-3.013,-1.74c0.664,-1.521 0.532,-3.229 -0.258,-4.604l-0.002,-0.003l-0.002,-0.003Zm8.416,1.081l-0.011,0.008l-0.03,0.02l0,0l0.03,-0.02l0.013,-0.009l-0.002,0.001Zm-25.702,-0.003l-0.001,0l-0.046,-0.03l0.047,0.03Zm25.793,-0.056l-0.031,0.02l0.037,-0.024l-0.006,0.004Zm-25.885,-0.004l0.037,0.024l-0.032,-0.02l-0.005,-0.004Zm25.929,-0.024l-0.025,0.016l0.033,-0.021l-0.008,0.005Zm-25.975,-0.005l0.033,0.021l-0.025,-0.016l-0.008,-0.005Zm26.019,-0.023l-0.022,0.014l0.031,-0.02l-0.009,0.006Zm-26.064,-0.006l0.03,0.019l-0.021,-0.013l-0.009,-0.006Zm26.108,-0.022l-0.019,0.012l0.03,-0.019l-0.011,0.007Zm-26.154,-0.007l0.029,0.019l-0.018,-0.012l-0.011,-0.007Zm26.198,-0.021l-0.016,0.01l0.029,-0.018l-0.013,0.008Zm-26.244,-0.008l0.029,0.018l-0.016,-0.01l-0.013,-0.008Zm26.287,-0.019l-0.013,0.008l0.03,-0.018l-0.017,0.01Zm-26.333,-0.01l0.029,0.018l-0.014,-0.008l-0.015,-0.01Zm26.378,-0.018l-0.012,0.007l0.03,-0.018l-0.018,0.011Zm-26.425,-0.011l0.029,0.018l-0.011,-0.007l-0.018,-0.011Zm26.469,-0.016l-0.01,0.006l0.032,-0.019l-0.022,0.013Zm-26.516,-0.013l0.03,0.019l-0.009,-0.006l-0.021,-0.013Zm26.56,-0.014l-0.008,0.004l0.034,-0.02l-0.026,0.016Zm-26.608,-0.015l0.032,0.019l-0.007,-0.004l-0.025,-0.015Zm26.652,-0.012l-0.005,0.003l0.038,-0.023l-0.033,0.02Zm-26.702,-0.019l0.036,0.022l-0.005,-0.003l-0.031,-0.019Zm26.79,-0.034l-0.047,0.028l0.047,-0.028l0,0Zm-26.849,-0.001l0.002,0.001l0.003,0.002l-0.003,-0.002l-0.002,-0.001Zm26.939,-0.053l-0.04,0.024l0.044,-0.026l-0.004,0.002Zm-27.031,-0.002l0.041,0.024l-0.037,-0.022l-0.004,-0.002Zm27.076,-0.024l-0.03,0.017l0.036,-0.021l-0.006,0.004Zm-27.123,-0.003l0.034,0.019l-0.028,-0.016l-0.006,-0.003Zm27.167,-0.023l-0.024,0.014l0.033,-0.019l-0.009,0.005Zm-27.213,-0.005l0.031,0.018l-0.023,-0.013l-0.008,-0.005Zm27.258,-0.021l-0.021,0.012l0.031,-0.018l-0.01,0.006Zm-27.305,-0.006l0.029,0.017l-0.019,-0.011l-0.01,-0.006Zm27.35,-0.02l-0.018,0.01l0.03,-0.017l-0.012,0.007Zm-27.397,-0.007l0.029,0.017l-0.017,-0.01l-0.012,-0.007Zm27.442,-0.019l-0.016,0.009l0.031,-0.017l-0.015,0.008Zm-27.489,-0.008l0.029,0.016l-0.015,-0.008l-0.014,-0.008Zm27.534,-0.018l-0.013,0.008l0.03,-0.017l-0.017,0.009Zm-27.581,-0.009l0.028,0.017l-0.012,-0.008l-0.016,-0.009Zm27.626,-0.016l-0.011,0.006l0.031,-0.017l-0.02,0.011Zm-27.674,-0.011l0.029,0.017l-0.01,-0.006l-0.019,-0.011Zm27.719,-0.014l-0.009,0.005l0.033,-0.018l-0.024,0.013Zm-27.767,-0.013l0.03,0.017l-0.008,-0.004l-0.022,-0.013Zm27.812,-0.013l-0.007,0.004l0.035,-0.019l-0.028,0.015Zm-27.861,-0.014l0.032,0.018l-0.006,-0.004l-0.026,-0.014Zm27.906,-0.011l-0.004,0.003l0.041,-0.023l-0.037,0.02Zm-27.959,-0.018l0.038,0.021l-0.005,-0.003l-0.033,-0.018Zm-0.06,-0.033l0.003,0.002l0.001,0.001l-0.002,-0.001l-0.002,-0.002Zm28.112,0.001l-0.002,0.001l-0.001,0l0.001,0l0.002,-0.001Zm0.089,-0.048l-0.035,0.019l0.04,-0.022l-0.005,0.003Zm-28.294,-0.003l0.036,0.02l-0.031,-0.017l-0.005,-0.003Zm28.34,-0.022l-0.028,0.015l0.035,-0.018l-0.007,0.003Zm-28.387,-0.003l0.031,0.017l-0.025,-0.014l-0.006,-0.003Zm28.432,-0.021l-0.023,0.012l0.033,-0.017l-0.01,0.005Zm-28.48,-0.004l0.03,0.015l-0.022,-0.011l-0.008,-0.004Zm28.526,-0.02l-0.02,0.01l0.031,-0.016l-0.011,0.006Zm-28.574,-0.006l0.029,0.016l-0.018,-0.01l-0.011,-0.006Zm28.62,-0.018l-0.017,0.009l0.03,-0.016l-0.013,0.007Zm-28.668,-0.007l0.029,0.015l-0.016,-0.008l-0.013,-0.007Zm28.714,-0.017l-0.015,0.008l0.031,-0.016l-0.016,0.008Zm-28.762,-0.007l0.029,0.014l-0.014,-0.007l-0.015,-0.007Zm28.808,-0.016l-0.013,0.006l0.031,-0.016l-0.018,0.01Zm-28.856,-0.009l0.029,0.015l-0.012,-0.006l-0.017,-0.009Zm28.902,-0.015l-0.01,0.005l0.031,-0.016l-0.021,0.011Zm-28.951,-0.01l0.03,0.015l-0.01,-0.005l-0.02,-0.01Zm28.997,-0.013l-0.008,0.004l0.033,-0.017l-0.025,0.013Zm-29.046,-0.012l0.03,0.016l-0.007,-0.004l-0.023,-0.012Zm29.092,-0.011l-0.006,0.003l0.037,-0.019l-0.031,0.016Zm-29.143,-0.014l0.033,0.016l-0.005,-0.002l-0.028,-0.014Zm29.189,-0.01l-0.004,0.002l0.047,-0.023l-0.043,0.021Zm-29.245,-0.018l0.041,0.02l-0.003,-0.002l-0.038,-0.018Zm29.342,-0.03l-0.003,0.002l-0.002,0.001l0.002,-0.001l0.003,-0.002Zm-29.447,-0.022l0.044,0.022l-0.04,-0.02l-0.004,-0.002Zm29.536,-0.02l-0.032,0.015l0.037,-0.018l-0.005,0.003Zm-29.584,-0.003l0.034,0.016l-0.029,-0.013l-0.005,-0.003Zm29.63,-0.02l-0.026,0.013l0.034,-0.017l-0.008,0.004Zm-29.678,-0.003l0.03,0.015l-0.023,-0.012l-0.007,-0.003Zm29.725,-0.019l-0.022,0.01l0.032,-0.015l-0.01,0.005Zm-29.774,-0.004l0.03,0.014l-0.021,-0.01l-0.009,-0.004Zm29.82,-0.018l-0.019,0.009l0.031,-0.015l-0.012,0.006Zm-29.869,-0.005l0.029,0.013l-0.018,-0.008l-0.011,-0.005Zm29.916,-0.017l-0.016,0.007l0.03,-0.014l-0.014,0.007Zm-29.965,-0.006l0.029,0.013l-0.015,-0.007l-0.014,-0.006Zm30.012,-0.016l-0.014,0.006l0.03,-0.014l-0.016,0.008Zm-30.061,-0.007l0.029,0.013l-0.013,-0.006l-0.016,-0.007Zm30.108,-0.015l-0.012,0.006l0.031,-0.014l-0.019,0.008Zm-30.157,-0.008l0.029,0.013l-0.011,-0.005l-0.018,-0.008Zm30.203,-0.013l-0.009,0.004l0.032,-0.014l-0.023,0.01Zm-30.253,-0.01l0.03,0.014l-0.009,-0.004l-0.021,-0.01Zm30.3,-0.012l-0.007,0.004l0.034,-0.015l-0.027,0.011Zm-30.35,-0.011l0.031,0.015l-0.007,-0.004l-0.024,-0.011Zm30.397,-0.01l-0.005,0.003l0.038,-0.017l-0.033,0.014Zm-30.45,-0.013l0.035,0.015l-0.005,-0.002l-0.03,-0.013Zm-0.062,-0.028l0.048,0.021l-0.003,-0.001l-0.045,-0.02Zm30.607,-0.001l-0.001,0.001l-0.002,0l0.002,-0.001l0.001,0Zm0.094,-0.041l-0.037,0.016l0.041,-0.018l-0.004,0.002Zm-30.801,-0.002l0.038,0.017l-0.034,-0.015l-0.004,-0.002Zm30.848,-0.019l-0.028,0.012l0.034,-0.014l-0.006,0.002Zm-30.897,-0.002l0.032,0.014l-0.026,-0.012l-0.006,-0.002Zm30.945,-0.018l-0.024,0.01l0.032,-0.014l-0.008,0.004Zm-30.995,-0.004l0.031,0.014l-0.023,-0.01l-0.008,-0.004Zm31.042,-0.016l-0.02,0.008l0.03,-0.013l-0.01,0.005Zm-31.091,-0.005l0.029,0.013l-0.019,-0.008l-0.01,-0.005Zm31.139,-0.015l-0.018,0.007l0.03,-0.013l-0.012,0.006Zm-31.189,-0.006l0.029,0.013l-0.017,-0.007l-0.012,-0.006Zm31.236,-0.014l-0.015,0.006l0.03,-0.013l-0.015,0.007Zm-31.286,-0.006l0.029,0.012l-0.014,-0.006l-0.015,-0.006Zm31.334,-0.014l-0.013,0.005l0.03,-0.012l-0.017,0.007Zm-31.383,-0.007l0.029,0.012l-0.013,-0.005l-0.016,-0.007Zm31.43,-0.013l-0.01,0.004l0.03,-0.012l-0.02,0.008Zm-31.481,-0.008l0.03,0.012l-0.01,-0.004l-0.02,-0.008Zm31.529,-0.011l-0.008,0.003l0.03,-0.013l-0.022,0.01Zm-31.579,-0.009l0.03,0.012l-0.008,-0.003l-0.022,-0.009Zm31.627,-0.011l-0.006,0.003l0.032,-0.013l-0.026,0.01Zm-31.679,-0.01l0.032,0.013l-0.006,-0.003l-0.026,-0.01Zm31.726,-0.009l-0.004,0.002l0.037,-0.015l-0.033,0.013Zm-31.78,-0.013l0.036,0.015l-0.004,-0.002l-0.032,-0.013Zm8.199,-7.315l0.011,0.006l0.033,0.016l0,0l-0.033,-0.016l-0.013,-0.007l0.002,0.001Zm15.421,-0.003l0,0l0.049,-0.025l-0.049,0.025Zm-15.518,-0.047l0.033,0.018l-0.039,-0.021l0.006,0.003Zm15.615,-0.002l-0.039,0.019l0.033,-0.017l0.006,-0.002Zm-15.662,-0.021l0.027,0.014l-0.034,-0.018l0.007,0.004Zm15.71,-0.004l-0.034,0.017l0.026,-0.013l0.008,-0.004Zm-15.756,-0.02l0.023,0.012l-0.033,-0.017l0.01,0.005Zm15.804,-0.005l-0.032,0.016l0.022,-0.011l0.01,-0.005Zm-15.85,-0.019l0.02,0.01l-0.032,-0.017l0.012,0.007Zm15.898,-0.006l-0.031,0.016l0.019,-0.01l0.012,-0.006Zm-15.944,-0.018l0.017,0.008l-0.031,-0.016l0.014,0.008Zm15.992,-0.008l-0.03,0.016l0.016,-0.008l0.014,-0.008Zm-16.037,-0.017l0.014,0.008l-0.031,-0.017l0.017,0.009Zm16.086,-0.008l-0.031,0.016l0.014,-0.008l0.017,-0.008Zm-16.132,-0.016l0.012,0.006l-0.032,-0.017l0.02,0.011Zm16.18,-0.01l-0.031,0.016l0.012,-0.006l0.019,-0.01Zm-16.226,-0.015l0.01,0.006l-0.033,-0.018l0.023,0.012Zm16.275,-0.011l-0.032,0.016l0.01,-0.005l0.022,-0.011Zm-16.321,-0.013l0.008,0.004l-0.034,-0.019l0.026,0.015Zm16.37,-0.014l-0.033,0.018l0.007,-0.004l0.026,-0.014Zm-16.415,-0.011l0.005,0.003l-0.039,-0.022l0.034,0.019Zm16.466,-0.018l-0.036,0.021l0.005,-0.003l0.031,-0.018Zm-16.556,-0.032l0.048,0.027l-0.048,-0.027l0,0Zm16.617,-0.001l-0.002,0.001l-0.003,0.002l0.003,-0.002l0.002,-0.001Zm-16.708,-0.05l0.041,0.023l-0.046,-0.025l0.005,0.002Zm16.801,-0.002l-0.042,0.023l0.038,-0.021l0.004,-0.002Zm-16.846,-0.023l0.029,0.017l-0.036,-0.021l0.007,0.004Zm16.893,-0.004l-0.034,0.019l0.028,-0.015l0.006,-0.004Zm-16.938,-0.022l0.024,0.014l-0.033,-0.019l0.009,0.005Zm16.985,-0.004l-0.031,0.017l0.023,-0.013l0.008,-0.004Zm-17.03,-0.022l0.02,0.012l-0.031,-0.018l0.011,0.006Zm17.077,-0.005l-0.03,0.017l0.02,-0.012l0.01,-0.005Zm-17.122,-0.021l0.018,0.011l-0.031,-0.018l0.013,0.007Zm17.169,-0.007l-0.029,0.017l0.017,-0.01l0.012,-0.007Zm-17.214,-0.019l0.015,0.009l-0.03,-0.017l0.015,0.008Zm17.261,-0.008l-0.029,0.017l0.015,-0.009l0.014,-0.008Zm-17.306,-0.018l0.013,0.008l-0.03,-0.018l0.017,0.01Zm17.353,-0.009l-0.029,0.016l0.012,-0.007l0.017,-0.009Zm-17.397,-0.017l0.011,0.006l-0.031,-0.018l0.02,0.012Zm17.444,-0.011l-0.029,0.017l0.01,-0.006l0.019,-0.011Zm-17.489,-0.015l0.009,0.005l-0.032,-0.019l0.023,0.014Zm17.536,-0.013l-0.03,0.017l0.009,-0.004l0.021,-0.013Zm-17.58,-0.014l0.006,0.004l-0.034,-0.021l0.028,0.017Zm17.628,-0.015l-0.031,0.019l0.006,-0.004l0.025,-0.015Zm-17.672,-0.012l0.004,0.003l-0.041,-0.025l0.037,0.022Zm17.724,-0.019l-0.037,0.022l0.004,-0.003l0.033,-0.019Zm0.058,-0.036l-0.002,0.001l-0.002,0.002l0.002,-0.002l0.002,-0.001Zm-17.873,0l0.002,0.001l0.001,0.001l-0.001,-0.001l-0.002,-0.001Zm-0.086,-0.053l0.034,0.021l-0.039,-0.024l0.005,0.003Zm18.049,-0.002l-0.035,0.021l0.031,-0.019l0.004,-0.002Zm-18.093,-0.025l0.027,0.017l-0.034,-0.021l0.007,0.004Zm18.139,-0.004l-0.031,0.019l0.025,-0.015l0.006,-0.004Zm-18.183,-0.023l0.023,0.013l-0.031,-0.019l0.008,0.006Zm18.229,-0.006l-0.029,0.018l0.02,-0.012l0.009,-0.006Zm-18.272,-0.022l0.019,0.012l-0.03,-0.019l0.011,0.007Zm18.317,-0.006l-0.028,0.017l0.018,-0.011l0.01,-0.006Zm-18.361,-0.022l0.016,0.011l-0.029,-0.019l0.013,0.008Zm18.407,-0.007l-0.028,0.017l0.016,-0.01l0.012,-0.007Zm-18.45,-0.021l0.013,0.009l-0.028,-0.018l0.015,0.009Zm18.495,-0.009l-0.027,0.018l0.013,-0.009l0.014,-0.009Zm-18.539,-0.019l0.012,0.008l-0.029,-0.019l0.017,0.011Zm18.585,-0.01l-0.027,0.018l0.011,-0.008l0.016,-0.01Zm-18.628,-0.018l0.009,0.007l-0.029,-0.02l0.02,0.013Zm18.674,-0.012l-0.028,0.018l0.009,-0.006l0.019,-0.012Zm-18.718,-0.016l0.008,0.005l-0.031,-0.02l0.023,0.015Zm18.764,-0.014l-0.029,0.019l0.007,-0.005l0.022,-0.014Zm-18.807,-0.014l0.006,0.004l-0.034,-0.023l0.028,0.019Zm18.854,-0.017l-0.031,0.02l0.006,-0.003l0.025,-0.017Zm-18.897,-0.012l0.004,0.003l-0.044,-0.029l0.04,0.026Zm18.949,-0.023l-0.038,0.026l0.004,-0.003l0.034,-0.023Zm-19.039,-0.037l0.003,0.002l0.002,0.001l-0.002,0l-0.003,-0.003Zm19.136,-0.028l-0.04,0.027l0.037,-0.025l0.003,-0.002Zm-19.217,-0.027l0.029,0.02l-0.034,-0.023l0.005,0.003Zm19.262,-0.003l-0.031,0.021l0.026,-0.018l0.005,-0.003Zm-19.305,-0.026l0.024,0.016l-0.031,-0.021l0.007,0.005Zm19.349,-0.004l-0.028,0.019l0.022,-0.015l0.006,-0.004Zm-19.391,-0.025l0.02,0.014l-0.029,-0.02l0.009,0.006Zm19.436,-0.006l-0.027,0.019l0.018,-0.013l0.009,-0.006Zm-19.479,-0.023l0.017,0.011l-0.028,-0.019l0.011,0.008Zm19.523,-0.008l-0.026,0.019l0.016,-0.011l0.01,-0.008Zm-19.565,-0.022l0.014,0.01l-0.027,-0.019l0.013,0.009Zm19.609,-0.008l-0.026,0.018l0.014,-0.01l0.012,-0.008Zm-19.652,-0.021l0.013,0.008l-0.028,-0.019l0.015,0.011Zm19.697,-0.01l-0.026,0.018l0.011,-0.008l0.015,-0.01Zm-19.739,-0.02l0.011,0.007l-0.028,-0.019l0.017,0.012Zm19.783,-0.012l-0.026,0.019l0.01,-0.007l0.016,-0.012Zm-19.825,-0.018l0.009,0.006l-0.029,-0.02l0.02,0.014Zm19.869,-0.013l-0.026,0.019l0.008,-0.006l0.018,-0.013Zm-19.911,-0.017l0.007,0.005l-0.03,-0.022l0.023,0.017Zm19.956,-0.016l-0.027,0.02l0.006,-0.004l0.021,-0.016Zm-19.998,-0.014l0.005,0.003l-0.034,-0.024l0.029,0.021Zm20.045,-0.019l-0.031,0.022l0.004,-0.003l0.027,-0.019Zm0.055,-0.04l-0.042,0.031l0.002,-0.002l0.04,-0.029Zm-20.183,-0.002l0.001,0.001l0.001,0.001l-0.002,-0.001l0,-0.001Zm-0.083,-0.061l0.033,0.025l-0.037,-0.027l0.004,0.002Zm20.354,-0.002l-0.033,0.025l0.03,-0.023l0.003,-0.002Zm-20.396,-0.028l0.025,0.018l-0.03,-0.022l0.005,0.004Zm20.44,-0.004l-0.029,0.021l0.024,-0.017l0.005,-0.004Zm-20.481,-0.027l0.021,0.015l-0.028,-0.02l0.007,0.005Zm20.524,-0.005l-0.027,0.02l0.02,-0.015l0.007,-0.005Zm-20.565,-0.026l0.017,0.013l-0.026,-0.02l0.009,0.007Zm20.608,-0.007l-0.026,0.02l0.017,-0.013l0.009,-0.007Zm-20.649,-0.024l0.015,0.011l-0.026,-0.019l0.011,0.008Zm20.692,-0.008l-0.025,0.019l0.014,-0.011l0.011,-0.008Zm-20.733,-0.023l0.013,0.01l-0.026,-0.02l0.013,0.01Zm20.776,-0.01l-0.025,0.019l0.012,-0.009l0.013,-0.01Zm-20.817,-0.022l0.011,0.009l-0.026,-0.02l0.015,0.011Zm20.859,-0.011l-0.024,0.02l0.01,-0.009l0.014,-0.011Zm-20.9,-0.02l0.009,0.007l-0.026,-0.02l0.017,0.013Zm20.943,-0.013l-0.025,0.02l0.009,-0.007l0.016,-0.013Zm-20.984,-0.019l0.007,0.006l-0.026,-0.02l0.019,0.014Zm21.028,-0.014l-0.026,0.02l0.007,-0.006l0.019,-0.014Zm-21.069,-0.017l0.006,0.004l-0.028,-0.022l0.022,0.018Zm21.112,-0.017l-0.027,0.021l0.005,-0.004l0.022,-0.017Zm-21.152,-0.015l0.003,0.003l-0.031,-0.025l0.028,0.022Zm21.198,-0.022l-0.03,0.025l0.003,-0.003l0.027,-0.022Z"/><path id="Alfa" d="M91.159,135.666c0,0 -0.228,0.372 -0.475,0.789c-0.945,1.593 -2.578,4.68 -3.445,7.504c-0.775,2.525 -1.625,2.472 -2.813,-0.054c-2.247,-4.779 -2.149,-13.151 -1.197,-16.99c0.626,-2.526 0.993,-3.075 2.187,-1.17c1.057,1.687 4.347,6.775 5.305,8.375c0.133,0.221 0.265,0.438 0.397,0.651c2.276,3.663 4.4,5.912 6.224,7.323c5.586,4.319 7.369,1.476 7.369,1.476c0,0 0.04,1.05 -1.985,1.373c-5.098,0.813 -9.341,-5.509 -11.567,-9.277Zm-0.272,-0.464c0,0 -0.158,-0.272 -0.34,-0.591c-1.936,-3.377 -3.541,-5.742 -5.286,-8.075c-0.596,-0.798 -1.145,-0.985 -1.482,0.231c-1.016,3.679 -0.931,11.372 0.739,16.489c0.605,1.856 1.535,1.822 2.308,0.181c0.849,-1.803 2.298,-5.067 3.594,-7.407c0.122,-0.22 0.314,-0.559 0.467,-0.828Zm0.239,-0.418c5.205,-8.962 9.09,-10.77 11.331,-10.763c1.956,0.007 2.13,0.783 2.13,0.783c0,0 -0.226,-0.401 -1.711,-0.3c-1.897,0.13 -6.111,2.164 -11.458,10.743" style="stroke:#000;stroke-width:0.24px;stroke-linecap:round;"/></g></g><defs><linearGradient id="_Linear1" x1="0" y1="0" x2="1" y2="0" gradientUnits="userSpaceOnUse" gradientTransform="matrix(-0.132106,-168,168,-0.132106,84.8156,168.571)"><stop offset="0" style="stop-color:#00191f;stop-opacity:1"/><stop offset="0.09" style="stop-color:#123037;stop-opacity:1"/><stop offset="0.2" style="stop-color:#23464e;stop-opacity:1"/><stop offset="0.5" style="stop-color:#2a5058;stop-opacity:1"/><stop offset="0.8" style="stop-color:#23464e;stop-opacity:1"/><stop offset="0.91" style="stop-color:#123037;stop-opacity:1"/><stop offset="1" style="stop-color:#00191f;stop-opacity:1"/></linearGradient><linearGradient id="_Linear2" x1="0" y1="0" x2="1" y2="0" gradientUnits="userSpaceOnUse" gradientTransform="matrix(-0.132106,-168,168,-0.132106,105.45,191.804)"><stop offset="0" style="stop-color:#18001f;stop-opacity:1"/><stop offset="0.09" style="stop-color:#2f1237;stop-opacity:1"/><stop offset="0.2" style="stop-color:#45234e;stop-opacity:1"/><stop offset="0.5" style="stop-color:#4f2a58;stop-opacity:1"/><stop offset="0.8" style="stop-color:#45234e;stop-opacity:1"/><stop offset="0.91" style="stop-color:#2f1237;stop-opacity:1"/><stop offset="1" style="stop-color:#18001f;stop-opacity:1"/></linearGradient><linearGradient id="_Linear3" x1="0" y1="0" x2="1" y2="0" gradientUnits="userSpaceOnUse" gradientTransform="matrix(-0.132106,-168,168,-0.132106,129.485,214.933)"><stop offset="0" style="stop-color:#001f05;stop-opacity:1"/><stop offset="0.09" style="stop-color:#123718;stop-opacity:1"/><stop offset="0.2" style="stop-color:#234e2a;stop-opacity:1"/><stop offset="0.5" style="stop-color:#2a5832;stop-opacity:1"/><stop offset="0.8" style="stop-color:#234e2a;stop-opacity:1"/><stop offset="0.91" style="stop-color:#123718;stop-opacity:1"/><stop offset="1" style="stop-color:#001f05;stop-opacity:1"/></linearGradient><linearGradient id="_Linear4" x1="0" y1="0" x2="1" y2="0" gradientUnits="userSpaceOnUse" gradientTransform="matrix(-0.132106,-168,168,-0.132106,151.479,238.585)"><stop offset="0" style="stop-color:#1f0000;stop-opacity:1"/><stop offset="0.09" style="stop-color:#371212;stop-opacity:1"/><stop offset="0.2" style="stop-color:#4e2323;stop-opacity:1"/><stop offset="0.5" style="stop-color:#582a2a;stop-opacity:1"/><stop offset="0.8" style="stop-color:#4e2323;stop-opacity:1"/><stop offset="0.91" style="stop-color:#361212;stop-opacity:1"/><stop offset="1" style="stop-color:#1e0000;stop-opacity:1"/></linearGradient></defs></svg>